M48
METRIC,TZ
T1C0.400
T2C1.000
%
G90
G05
T1
X134500Y-55000
X137500Y-55000
X137500Y-58000
X139000Y-58000
X141200Y-54300
X141800Y-59500
X142230Y-56069
X142325Y-57329
X142382Y-54750
X142400Y-62000
X143100Y-58275
X143300Y-63000
X144800Y-64100
X145695Y-53195
X145725Y-59850
X145817Y-46850
X146775Y-59875
X146800Y-52250
X147200Y-62300
X147500Y-42250
X147892Y-81300
X148000Y-67500
X148000Y-69000
X148000Y-70500
X148000Y-72000
X148000Y-73500
X148000Y-75000
X148000Y-76500
X148000Y-78000
X148000Y-79500
X148000Y-82500
X148000Y-84000
X148000Y-85500
X148000Y-87000
X148000Y-88500
X148000Y-90000
X148000Y-91500
X148000Y-93000
X148000Y-94500
X148000Y-97500
X148000Y-99000
X148000Y-100500
X148000Y-102000
X148000Y-103500
X148000Y-105000
X148000Y-106500
X148000Y-108000
X148000Y-109500
X148000Y-112500
X148000Y-114000
X148000Y-115500
X148000Y-117000
X148000Y-118500
X148000Y-120000
X148000Y-121500
X148000Y-123000
X148000Y-124500
X148100Y-53900
X148200Y-63300
X148325Y-51925
X148711Y-50750
X149300Y-64100
X150039Y-50761
X150975Y-62325
X151250Y-58175
X151485Y-54465
X151500Y-52250
X151600Y-63600
X152300Y-70300
X152300Y-109100
X152300Y-110600
X152400Y-93400
X152400Y-94900
X152500Y-79400
X152500Y-80900
X152500Y-99500
X152500Y-121800
X152500Y-123000
X152500Y-124500
X152700Y-84400
X152900Y-77989
X153150Y-48050
X153650Y-114550
X153800Y-62000
X153875Y-68500
X154350Y-48000
X154500Y-42250
X154550Y-52950
X155000Y-59275
X155035Y-58175
X155690Y-54219
X156500Y-56950
X156500Y-58000
X156500Y-65400
X156500Y-81400
X156500Y-96400
X156600Y-51500
X156700Y-52600
X156738Y-45853
X156825Y-61450
X156900Y-59000
X156900Y-60100
X157000Y-43750
X157000Y-42521
X158000Y-67500
X158000Y-69000
X158000Y-70500
X158000Y-72000
X158000Y-73500
X158000Y-75000
X158000Y-76500
X158000Y-78000
X158000Y-79500
X158000Y-82500
X158000Y-84000
X158000Y-85500
X158000Y-87000
X158000Y-88500
X158000Y-90000
X158000Y-91500
X158000Y-93000
X158000Y-94500
X158000Y-97500
X158000Y-99000
X158000Y-100500
X158000Y-102000
X158000Y-103500
X158000Y-105000
X158000Y-106500
X158000Y-108000
X158000Y-109500
X158000Y-112500
X158000Y-114000
X158000Y-115500
X158000Y-117000
X158000Y-118500
X158000Y-120000
X158000Y-121500
X158000Y-123000
X158000Y-124500
X158200Y-42900
X159230Y-49800
X159728Y-48022
X159750Y-46050
X159900Y-57200
X160000Y-59200
X160200Y-50600
X160200Y-52200
X160250Y-47000
X161125Y-55050
X161500Y-63700
X162000Y-43400
X162700Y-54275
X163100Y-50900
X163200Y-47400
X163300Y-49800
X163800Y-54450
X164100Y-64800
X164250Y-46000
X164850Y-54450
X165400Y-64800
X165500Y-43900
X165500Y-46000
X165900Y-54450
X166000Y-41250
X166000Y-48317
X166059Y-59281
X166200Y-49500
X166900Y-57000
X168400Y-54300
X168700Y-55500
X169000Y-41500
X169000Y-53200
X169400Y-48900
X170375Y-47125
X170450Y-41350
X171900Y-41350
X172000Y-44750
X172000Y-55500
X172000Y-57000
X173500Y-41350
X173500Y-54000
X173500Y-55500
X174250Y-45250
X174340Y-50045
X177150Y-46250
X177200Y-43900
T2
X143002Y-42156
X143002Y-44696
X143002Y-47236
X143002Y-49776
X175895Y-42394
X175895Y-44934
X175895Y-47474
X175895Y-50014
X175895Y-52554
T0
M30
