G04 #@! TF.GenerationSoftware,KiCad,Pcbnew,(5.1.9)-1*
G04 #@! TF.CreationDate,2021-06-08T15:39:03+02:00*
G04 #@! TF.ProjectId,TempSpike,54656d70-5370-4696-9b65-2e6b69636164,rev?*
G04 #@! TF.SameCoordinates,Original*
G04 #@! TF.FileFunction,Paste,Top*
G04 #@! TF.FilePolarity,Positive*
%FSLAX46Y46*%
G04 Gerber Fmt 4.6, Leading zero omitted, Abs format (unit mm)*
G04 Created by KiCad (PCBNEW (5.1.9)-1) date 2021-06-08 15:39:03*
%MOMM*%
%LPD*%
G01*
G04 APERTURE LIST*
%ADD10R,1.500000X0.600000*%
%ADD11R,1.500000X0.400000*%
%ADD12R,1.300000X0.900000*%
%ADD13C,0.100000*%
%ADD14R,0.600000X1.500000*%
%ADD15R,1.450000X0.450000*%
%ADD16R,0.400000X1.500000*%
%ADD17R,0.800000X0.900000*%
%ADD18R,1.060000X0.650000*%
G04 APERTURE END LIST*
G36*
G01*
X142430000Y-52285000D02*
X142430000Y-51915000D01*
G75*
G02*
X142565000Y-51780000I135000J0D01*
G01*
X142835000Y-51780000D01*
G75*
G02*
X142970000Y-51915000I0J-135000D01*
G01*
X142970000Y-52285000D01*
G75*
G02*
X142835000Y-52420000I-135000J0D01*
G01*
X142565000Y-52420000D01*
G75*
G02*
X142430000Y-52285000I0J135000D01*
G01*
G37*
G36*
G01*
X141410000Y-52285000D02*
X141410000Y-51915000D01*
G75*
G02*
X141545000Y-51780000I135000J0D01*
G01*
X141815000Y-51780000D01*
G75*
G02*
X141950000Y-51915000I0J-135000D01*
G01*
X141950000Y-52285000D01*
G75*
G02*
X141815000Y-52420000I-135000J0D01*
G01*
X141545000Y-52420000D01*
G75*
G02*
X141410000Y-52285000I0J135000D01*
G01*
G37*
G36*
G01*
X157710000Y-46185000D02*
X157710000Y-45815000D01*
G75*
G02*
X157845000Y-45680000I135000J0D01*
G01*
X158115000Y-45680000D01*
G75*
G02*
X158250000Y-45815000I0J-135000D01*
G01*
X158250000Y-46185000D01*
G75*
G02*
X158115000Y-46320000I-135000J0D01*
G01*
X157845000Y-46320000D01*
G75*
G02*
X157710000Y-46185000I0J135000D01*
G01*
G37*
G36*
G01*
X158730000Y-46185000D02*
X158730000Y-45815000D01*
G75*
G02*
X158865000Y-45680000I135000J0D01*
G01*
X159135000Y-45680000D01*
G75*
G02*
X159270000Y-45815000I0J-135000D01*
G01*
X159270000Y-46185000D01*
G75*
G02*
X159135000Y-46320000I-135000J0D01*
G01*
X158865000Y-46320000D01*
G75*
G02*
X158730000Y-46185000I0J135000D01*
G01*
G37*
G36*
G01*
X158740000Y-48185000D02*
X158740000Y-47815000D01*
G75*
G02*
X158875000Y-47680000I135000J0D01*
G01*
X159145000Y-47680000D01*
G75*
G02*
X159280000Y-47815000I0J-135000D01*
G01*
X159280000Y-48185000D01*
G75*
G02*
X159145000Y-48320000I-135000J0D01*
G01*
X158875000Y-48320000D01*
G75*
G02*
X158740000Y-48185000I0J135000D01*
G01*
G37*
G36*
G01*
X157720000Y-48185000D02*
X157720000Y-47815000D01*
G75*
G02*
X157855000Y-47680000I135000J0D01*
G01*
X158125000Y-47680000D01*
G75*
G02*
X158260000Y-47815000I0J-135000D01*
G01*
X158260000Y-48185000D01*
G75*
G02*
X158125000Y-48320000I-135000J0D01*
G01*
X157855000Y-48320000D01*
G75*
G02*
X157720000Y-48185000I0J135000D01*
G01*
G37*
G36*
G01*
X141430000Y-53285000D02*
X141430000Y-52915000D01*
G75*
G02*
X141565000Y-52780000I135000J0D01*
G01*
X141835000Y-52780000D01*
G75*
G02*
X141970000Y-52915000I0J-135000D01*
G01*
X141970000Y-53285000D01*
G75*
G02*
X141835000Y-53420000I-135000J0D01*
G01*
X141565000Y-53420000D01*
G75*
G02*
X141430000Y-53285000I0J135000D01*
G01*
G37*
G36*
G01*
X142450000Y-53285000D02*
X142450000Y-52915000D01*
G75*
G02*
X142585000Y-52780000I135000J0D01*
G01*
X142855000Y-52780000D01*
G75*
G02*
X142990000Y-52915000I0J-135000D01*
G01*
X142990000Y-53285000D01*
G75*
G02*
X142855000Y-53420000I-135000J0D01*
G01*
X142585000Y-53420000D01*
G75*
G02*
X142450000Y-53285000I0J135000D01*
G01*
G37*
G36*
G01*
X156230000Y-48185000D02*
X156230000Y-47815000D01*
G75*
G02*
X156365000Y-47680000I135000J0D01*
G01*
X156635000Y-47680000D01*
G75*
G02*
X156770000Y-47815000I0J-135000D01*
G01*
X156770000Y-48185000D01*
G75*
G02*
X156635000Y-48320000I-135000J0D01*
G01*
X156365000Y-48320000D01*
G75*
G02*
X156230000Y-48185000I0J135000D01*
G01*
G37*
G36*
G01*
X155210000Y-48185000D02*
X155210000Y-47815000D01*
G75*
G02*
X155345000Y-47680000I135000J0D01*
G01*
X155615000Y-47680000D01*
G75*
G02*
X155750000Y-47815000I0J-135000D01*
G01*
X155750000Y-48185000D01*
G75*
G02*
X155615000Y-48320000I-135000J0D01*
G01*
X155345000Y-48320000D01*
G75*
G02*
X155210000Y-48185000I0J135000D01*
G01*
G37*
G36*
G01*
X158740000Y-47185000D02*
X158740000Y-46815000D01*
G75*
G02*
X158875000Y-46680000I135000J0D01*
G01*
X159145000Y-46680000D01*
G75*
G02*
X159280000Y-46815000I0J-135000D01*
G01*
X159280000Y-47185000D01*
G75*
G02*
X159145000Y-47320000I-135000J0D01*
G01*
X158875000Y-47320000D01*
G75*
G02*
X158740000Y-47185000I0J135000D01*
G01*
G37*
G36*
G01*
X157720000Y-47185000D02*
X157720000Y-46815000D01*
G75*
G02*
X157855000Y-46680000I135000J0D01*
G01*
X158125000Y-46680000D01*
G75*
G02*
X158260000Y-46815000I0J-135000D01*
G01*
X158260000Y-47185000D01*
G75*
G02*
X158125000Y-47320000I-135000J0D01*
G01*
X157855000Y-47320000D01*
G75*
G02*
X157720000Y-47185000I0J135000D01*
G01*
G37*
G36*
G01*
X155210000Y-47185000D02*
X155210000Y-46815000D01*
G75*
G02*
X155345000Y-46680000I135000J0D01*
G01*
X155615000Y-46680000D01*
G75*
G02*
X155750000Y-46815000I0J-135000D01*
G01*
X155750000Y-47185000D01*
G75*
G02*
X155615000Y-47320000I-135000J0D01*
G01*
X155345000Y-47320000D01*
G75*
G02*
X155210000Y-47185000I0J135000D01*
G01*
G37*
G36*
G01*
X156230000Y-47185000D02*
X156230000Y-46815000D01*
G75*
G02*
X156365000Y-46680000I135000J0D01*
G01*
X156635000Y-46680000D01*
G75*
G02*
X156770000Y-46815000I0J-135000D01*
G01*
X156770000Y-47185000D01*
G75*
G02*
X156635000Y-47320000I-135000J0D01*
G01*
X156365000Y-47320000D01*
G75*
G02*
X156230000Y-47185000I0J135000D01*
G01*
G37*
D10*
X149570000Y-60815000D03*
X149570000Y-59545000D03*
X149570000Y-58275000D03*
X149570000Y-57005000D03*
X149570000Y-55735000D03*
X149570000Y-54465000D03*
X149570000Y-53195000D03*
X149570000Y-51925000D03*
X144170000Y-51925000D03*
X144170000Y-53195000D03*
X144170000Y-54465000D03*
X144170000Y-55735000D03*
X144170000Y-57005000D03*
X144170000Y-58275000D03*
X144170000Y-59545000D03*
X144170000Y-60815000D03*
X158320000Y-60815000D03*
X158320000Y-59545000D03*
X158320000Y-58275000D03*
X158320000Y-57005000D03*
X158320000Y-55735000D03*
X158320000Y-54465000D03*
X158320000Y-53195000D03*
X158320000Y-51925000D03*
X152920000Y-51925000D03*
X152920000Y-53195000D03*
X152920000Y-54465000D03*
X152920000Y-55735000D03*
X152920000Y-57005000D03*
X152920000Y-58275000D03*
X152920000Y-59545000D03*
X152920000Y-60815000D03*
D11*
X172813040Y-51900240D03*
X169686960Y-51250000D03*
X172813040Y-50599760D03*
X169686960Y-50600000D03*
X169686960Y-51900240D03*
G36*
G01*
X171420000Y-46597500D02*
X171080000Y-46597500D01*
G75*
G02*
X170940000Y-46457500I0J140000D01*
G01*
X170940000Y-46177500D01*
G75*
G02*
X171080000Y-46037500I140000J0D01*
G01*
X171420000Y-46037500D01*
G75*
G02*
X171560000Y-46177500I0J-140000D01*
G01*
X171560000Y-46457500D01*
G75*
G02*
X171420000Y-46597500I-140000J0D01*
G01*
G37*
G36*
G01*
X171420000Y-47557500D02*
X171080000Y-47557500D01*
G75*
G02*
X170940000Y-47417500I0J140000D01*
G01*
X170940000Y-47137500D01*
G75*
G02*
X171080000Y-46997500I140000J0D01*
G01*
X171420000Y-46997500D01*
G75*
G02*
X171560000Y-47137500I0J-140000D01*
G01*
X171560000Y-47417500D01*
G75*
G02*
X171420000Y-47557500I-140000J0D01*
G01*
G37*
G36*
G01*
X173685000Y-42974000D02*
X173315000Y-42974000D01*
G75*
G02*
X173180000Y-42839000I0J135000D01*
G01*
X173180000Y-42569000D01*
G75*
G02*
X173315000Y-42434000I135000J0D01*
G01*
X173685000Y-42434000D01*
G75*
G02*
X173820000Y-42569000I0J-135000D01*
G01*
X173820000Y-42839000D01*
G75*
G02*
X173685000Y-42974000I-135000J0D01*
G01*
G37*
G36*
G01*
X173685000Y-43994000D02*
X173315000Y-43994000D01*
G75*
G02*
X173180000Y-43859000I0J135000D01*
G01*
X173180000Y-43589000D01*
G75*
G02*
X173315000Y-43454000I135000J0D01*
G01*
X173685000Y-43454000D01*
G75*
G02*
X173820000Y-43589000I0J-135000D01*
G01*
X173820000Y-43859000D01*
G75*
G02*
X173685000Y-43994000I-135000J0D01*
G01*
G37*
G36*
G01*
X167770000Y-61315000D02*
X167770000Y-61685000D01*
G75*
G02*
X167635000Y-61820000I-135000J0D01*
G01*
X167365000Y-61820000D01*
G75*
G02*
X167230000Y-61685000I0J135000D01*
G01*
X167230000Y-61315000D01*
G75*
G02*
X167365000Y-61180000I135000J0D01*
G01*
X167635000Y-61180000D01*
G75*
G02*
X167770000Y-61315000I0J-135000D01*
G01*
G37*
G36*
G01*
X166750000Y-61315000D02*
X166750000Y-61685000D01*
G75*
G02*
X166615000Y-61820000I-135000J0D01*
G01*
X166345000Y-61820000D01*
G75*
G02*
X166210000Y-61685000I0J135000D01*
G01*
X166210000Y-61315000D01*
G75*
G02*
X166345000Y-61180000I135000J0D01*
G01*
X166615000Y-61180000D01*
G75*
G02*
X166750000Y-61315000I0J-135000D01*
G01*
G37*
G36*
G01*
X173201250Y-48049000D02*
X172688750Y-48049000D01*
G75*
G02*
X172470000Y-47830250I0J218750D01*
G01*
X172470000Y-47392750D01*
G75*
G02*
X172688750Y-47174000I218750J0D01*
G01*
X173201250Y-47174000D01*
G75*
G02*
X173420000Y-47392750I0J-218750D01*
G01*
X173420000Y-47830250D01*
G75*
G02*
X173201250Y-48049000I-218750J0D01*
G01*
G37*
G36*
G01*
X173201250Y-46474000D02*
X172688750Y-46474000D01*
G75*
G02*
X172470000Y-46255250I0J218750D01*
G01*
X172470000Y-45817750D01*
G75*
G02*
X172688750Y-45599000I218750J0D01*
G01*
X173201250Y-45599000D01*
G75*
G02*
X173420000Y-45817750I0J-218750D01*
G01*
X173420000Y-46255250D01*
G75*
G02*
X173201250Y-46474000I-218750J0D01*
G01*
G37*
G36*
G01*
X174080000Y-51430000D02*
X174420000Y-51430000D01*
G75*
G02*
X174560000Y-51570000I0J-140000D01*
G01*
X174560000Y-51850000D01*
G75*
G02*
X174420000Y-51990000I-140000J0D01*
G01*
X174080000Y-51990000D01*
G75*
G02*
X173940000Y-51850000I0J140000D01*
G01*
X173940000Y-51570000D01*
G75*
G02*
X174080000Y-51430000I140000J0D01*
G01*
G37*
G36*
G01*
X174080000Y-50470000D02*
X174420000Y-50470000D01*
G75*
G02*
X174560000Y-50610000I0J-140000D01*
G01*
X174560000Y-50890000D01*
G75*
G02*
X174420000Y-51030000I-140000J0D01*
G01*
X174080000Y-51030000D01*
G75*
G02*
X173940000Y-50890000I0J140000D01*
G01*
X173940000Y-50610000D01*
G75*
G02*
X174080000Y-50470000I140000J0D01*
G01*
G37*
D12*
X160850000Y-42000000D03*
X160850000Y-45000000D03*
D13*
G36*
X164800000Y-44366500D02*
G01*
X161675000Y-44366500D01*
X161675000Y-43950000D01*
X160200000Y-43950000D01*
X160200000Y-43050000D01*
X161675000Y-43050000D01*
X161675000Y-42633500D01*
X164800000Y-42633500D01*
X164800000Y-44366500D01*
G37*
G36*
G01*
X148670000Y-42030000D02*
X148330000Y-42030000D01*
G75*
G02*
X148190000Y-41890000I0J140000D01*
G01*
X148190000Y-41610000D01*
G75*
G02*
X148330000Y-41470000I140000J0D01*
G01*
X148670000Y-41470000D01*
G75*
G02*
X148810000Y-41610000I0J-140000D01*
G01*
X148810000Y-41890000D01*
G75*
G02*
X148670000Y-42030000I-140000J0D01*
G01*
G37*
G36*
G01*
X148670000Y-42990000D02*
X148330000Y-42990000D01*
G75*
G02*
X148190000Y-42850000I0J140000D01*
G01*
X148190000Y-42570000D01*
G75*
G02*
X148330000Y-42430000I140000J0D01*
G01*
X148670000Y-42430000D01*
G75*
G02*
X148810000Y-42570000I0J-140000D01*
G01*
X148810000Y-42850000D01*
G75*
G02*
X148670000Y-42990000I-140000J0D01*
G01*
G37*
G36*
G01*
X165680000Y-57170000D02*
X165680000Y-56830000D01*
G75*
G02*
X165820000Y-56690000I140000J0D01*
G01*
X166100000Y-56690000D01*
G75*
G02*
X166240000Y-56830000I0J-140000D01*
G01*
X166240000Y-57170000D01*
G75*
G02*
X166100000Y-57310000I-140000J0D01*
G01*
X165820000Y-57310000D01*
G75*
G02*
X165680000Y-57170000I0J140000D01*
G01*
G37*
G36*
G01*
X164720000Y-57170000D02*
X164720000Y-56830000D01*
G75*
G02*
X164860000Y-56690000I140000J0D01*
G01*
X165140000Y-56690000D01*
G75*
G02*
X165280000Y-56830000I0J-140000D01*
G01*
X165280000Y-57170000D01*
G75*
G02*
X165140000Y-57310000I-140000J0D01*
G01*
X164860000Y-57310000D01*
G75*
G02*
X164720000Y-57170000I0J140000D01*
G01*
G37*
D14*
X154825000Y-49570000D03*
X153555000Y-49570000D03*
X152285000Y-49570000D03*
X151015000Y-49570000D03*
X149745000Y-49570000D03*
X148475000Y-49570000D03*
X147205000Y-49570000D03*
X145935000Y-49570000D03*
X145935000Y-44170000D03*
X147205000Y-44170000D03*
X148475000Y-44170000D03*
X149745000Y-44170000D03*
X151015000Y-44170000D03*
X152285000Y-44170000D03*
X153555000Y-44170000D03*
X154825000Y-44170000D03*
D15*
X161690000Y-47230000D03*
X161690000Y-47880000D03*
X161690000Y-48530000D03*
X161690000Y-49180000D03*
X161690000Y-49830000D03*
X161690000Y-50480000D03*
X161690000Y-51130000D03*
X161690000Y-51780000D03*
X161690000Y-52430000D03*
X161690000Y-53080000D03*
X167590000Y-53080000D03*
X167590000Y-52430000D03*
X167590000Y-51780000D03*
X167590000Y-51130000D03*
X167590000Y-50480000D03*
X167590000Y-49830000D03*
X167590000Y-49180000D03*
X167590000Y-48530000D03*
X167590000Y-47880000D03*
X167590000Y-47230000D03*
G36*
G01*
X153670000Y-43030000D02*
X153330000Y-43030000D01*
G75*
G02*
X153190000Y-42890000I0J140000D01*
G01*
X153190000Y-42610000D01*
G75*
G02*
X153330000Y-42470000I140000J0D01*
G01*
X153670000Y-42470000D01*
G75*
G02*
X153810000Y-42610000I0J-140000D01*
G01*
X153810000Y-42890000D01*
G75*
G02*
X153670000Y-43030000I-140000J0D01*
G01*
G37*
G36*
G01*
X153670000Y-42070000D02*
X153330000Y-42070000D01*
G75*
G02*
X153190000Y-41930000I0J140000D01*
G01*
X153190000Y-41650000D01*
G75*
G02*
X153330000Y-41510000I140000J0D01*
G01*
X153670000Y-41510000D01*
G75*
G02*
X153810000Y-41650000I0J-140000D01*
G01*
X153810000Y-41930000D01*
G75*
G02*
X153670000Y-42070000I-140000J0D01*
G01*
G37*
G36*
G01*
X152080000Y-41510000D02*
X152420000Y-41510000D01*
G75*
G02*
X152560000Y-41650000I0J-140000D01*
G01*
X152560000Y-41930000D01*
G75*
G02*
X152420000Y-42070000I-140000J0D01*
G01*
X152080000Y-42070000D01*
G75*
G02*
X151940000Y-41930000I0J140000D01*
G01*
X151940000Y-41650000D01*
G75*
G02*
X152080000Y-41510000I140000J0D01*
G01*
G37*
G36*
G01*
X152080000Y-42470000D02*
X152420000Y-42470000D01*
G75*
G02*
X152560000Y-42610000I0J-140000D01*
G01*
X152560000Y-42890000D01*
G75*
G02*
X152420000Y-43030000I-140000J0D01*
G01*
X152080000Y-43030000D01*
G75*
G02*
X151940000Y-42890000I0J140000D01*
G01*
X151940000Y-42610000D01*
G75*
G02*
X152080000Y-42470000I140000J0D01*
G01*
G37*
G36*
G01*
X171830000Y-43404500D02*
X172170000Y-43404500D01*
G75*
G02*
X172310000Y-43544500I0J-140000D01*
G01*
X172310000Y-43824500D01*
G75*
G02*
X172170000Y-43964500I-140000J0D01*
G01*
X171830000Y-43964500D01*
G75*
G02*
X171690000Y-43824500I0J140000D01*
G01*
X171690000Y-43544500D01*
G75*
G02*
X171830000Y-43404500I140000J0D01*
G01*
G37*
G36*
G01*
X171830000Y-42444500D02*
X172170000Y-42444500D01*
G75*
G02*
X172310000Y-42584500I0J-140000D01*
G01*
X172310000Y-42864500D01*
G75*
G02*
X172170000Y-43004500I-140000J0D01*
G01*
X171830000Y-43004500D01*
G75*
G02*
X171690000Y-42864500I0J140000D01*
G01*
X171690000Y-42584500D01*
G75*
G02*
X171830000Y-42444500I140000J0D01*
G01*
G37*
G36*
G01*
X149580000Y-42470000D02*
X149920000Y-42470000D01*
G75*
G02*
X150060000Y-42610000I0J-140000D01*
G01*
X150060000Y-42890000D01*
G75*
G02*
X149920000Y-43030000I-140000J0D01*
G01*
X149580000Y-43030000D01*
G75*
G02*
X149440000Y-42890000I0J140000D01*
G01*
X149440000Y-42610000D01*
G75*
G02*
X149580000Y-42470000I140000J0D01*
G01*
G37*
G36*
G01*
X149580000Y-41510000D02*
X149920000Y-41510000D01*
G75*
G02*
X150060000Y-41650000I0J-140000D01*
G01*
X150060000Y-41930000D01*
G75*
G02*
X149920000Y-42070000I-140000J0D01*
G01*
X149580000Y-42070000D01*
G75*
G02*
X149440000Y-41930000I0J140000D01*
G01*
X149440000Y-41650000D01*
G75*
G02*
X149580000Y-41510000I140000J0D01*
G01*
G37*
G36*
G01*
X156080000Y-48970000D02*
X156420000Y-48970000D01*
G75*
G02*
X156560000Y-49110000I0J-140000D01*
G01*
X156560000Y-49390000D01*
G75*
G02*
X156420000Y-49530000I-140000J0D01*
G01*
X156080000Y-49530000D01*
G75*
G02*
X155940000Y-49390000I0J140000D01*
G01*
X155940000Y-49110000D01*
G75*
G02*
X156080000Y-48970000I140000J0D01*
G01*
G37*
G36*
G01*
X156080000Y-49930000D02*
X156420000Y-49930000D01*
G75*
G02*
X156560000Y-50070000I0J-140000D01*
G01*
X156560000Y-50350000D01*
G75*
G02*
X156420000Y-50490000I-140000J0D01*
G01*
X156080000Y-50490000D01*
G75*
G02*
X155940000Y-50350000I0J140000D01*
G01*
X155940000Y-50070000D01*
G75*
G02*
X156080000Y-49930000I140000J0D01*
G01*
G37*
G36*
G01*
X160240000Y-48830000D02*
X160240000Y-49170000D01*
G75*
G02*
X160100000Y-49310000I-140000J0D01*
G01*
X159820000Y-49310000D01*
G75*
G02*
X159680000Y-49170000I0J140000D01*
G01*
X159680000Y-48830000D01*
G75*
G02*
X159820000Y-48690000I140000J0D01*
G01*
X160100000Y-48690000D01*
G75*
G02*
X160240000Y-48830000I0J-140000D01*
G01*
G37*
G36*
G01*
X159280000Y-48830000D02*
X159280000Y-49170000D01*
G75*
G02*
X159140000Y-49310000I-140000J0D01*
G01*
X158860000Y-49310000D01*
G75*
G02*
X158720000Y-49170000I0J140000D01*
G01*
X158720000Y-48830000D01*
G75*
G02*
X158860000Y-48690000I140000J0D01*
G01*
X159140000Y-48690000D01*
G75*
G02*
X159280000Y-48830000I0J-140000D01*
G01*
G37*
D16*
X152349760Y-119363040D03*
X153000000Y-116436960D03*
X153650240Y-119363040D03*
X153650000Y-116436960D03*
X152349760Y-116436960D03*
X152299760Y-86896960D03*
X153600000Y-86896960D03*
X153600240Y-89823040D03*
X152950000Y-86896960D03*
X152299760Y-89823040D03*
X152305260Y-75023040D03*
X152955500Y-72096960D03*
X153605740Y-75023040D03*
X153605500Y-72096960D03*
X152305260Y-72096960D03*
X152309760Y-101696960D03*
X153610000Y-101696960D03*
X153610240Y-104623040D03*
X152960000Y-101696960D03*
X152309760Y-104623040D03*
G36*
G01*
X153760000Y-120730000D02*
X153760000Y-121070000D01*
G75*
G02*
X153620000Y-121210000I-140000J0D01*
G01*
X153340000Y-121210000D01*
G75*
G02*
X153200000Y-121070000I0J140000D01*
G01*
X153200000Y-120730000D01*
G75*
G02*
X153340000Y-120590000I140000J0D01*
G01*
X153620000Y-120590000D01*
G75*
G02*
X153760000Y-120730000I0J-140000D01*
G01*
G37*
G36*
G01*
X152800000Y-120730000D02*
X152800000Y-121070000D01*
G75*
G02*
X152660000Y-121210000I-140000J0D01*
G01*
X152380000Y-121210000D01*
G75*
G02*
X152240000Y-121070000I0J140000D01*
G01*
X152240000Y-120730000D01*
G75*
G02*
X152380000Y-120590000I140000J0D01*
G01*
X152660000Y-120590000D01*
G75*
G02*
X152800000Y-120730000I0J-140000D01*
G01*
G37*
G36*
G01*
X153760000Y-91230000D02*
X153760000Y-91570000D01*
G75*
G02*
X153620000Y-91710000I-140000J0D01*
G01*
X153340000Y-91710000D01*
G75*
G02*
X153200000Y-91570000I0J140000D01*
G01*
X153200000Y-91230000D01*
G75*
G02*
X153340000Y-91090000I140000J0D01*
G01*
X153620000Y-91090000D01*
G75*
G02*
X153760000Y-91230000I0J-140000D01*
G01*
G37*
G36*
G01*
X152800000Y-91230000D02*
X152800000Y-91570000D01*
G75*
G02*
X152660000Y-91710000I-140000J0D01*
G01*
X152380000Y-91710000D01*
G75*
G02*
X152240000Y-91570000I0J140000D01*
G01*
X152240000Y-91230000D01*
G75*
G02*
X152380000Y-91090000I140000J0D01*
G01*
X152660000Y-91090000D01*
G75*
G02*
X152800000Y-91230000I0J-140000D01*
G01*
G37*
G36*
G01*
X153660000Y-76330000D02*
X153660000Y-76670000D01*
G75*
G02*
X153520000Y-76810000I-140000J0D01*
G01*
X153240000Y-76810000D01*
G75*
G02*
X153100000Y-76670000I0J140000D01*
G01*
X153100000Y-76330000D01*
G75*
G02*
X153240000Y-76190000I140000J0D01*
G01*
X153520000Y-76190000D01*
G75*
G02*
X153660000Y-76330000I0J-140000D01*
G01*
G37*
G36*
G01*
X152700000Y-76330000D02*
X152700000Y-76670000D01*
G75*
G02*
X152560000Y-76810000I-140000J0D01*
G01*
X152280000Y-76810000D01*
G75*
G02*
X152140000Y-76670000I0J140000D01*
G01*
X152140000Y-76330000D01*
G75*
G02*
X152280000Y-76190000I140000J0D01*
G01*
X152560000Y-76190000D01*
G75*
G02*
X152700000Y-76330000I0J-140000D01*
G01*
G37*
G36*
G01*
X152700000Y-106030000D02*
X152700000Y-106370000D01*
G75*
G02*
X152560000Y-106510000I-140000J0D01*
G01*
X152280000Y-106510000D01*
G75*
G02*
X152140000Y-106370000I0J140000D01*
G01*
X152140000Y-106030000D01*
G75*
G02*
X152280000Y-105890000I140000J0D01*
G01*
X152560000Y-105890000D01*
G75*
G02*
X152700000Y-106030000I0J-140000D01*
G01*
G37*
G36*
G01*
X153660000Y-106030000D02*
X153660000Y-106370000D01*
G75*
G02*
X153520000Y-106510000I-140000J0D01*
G01*
X153240000Y-106510000D01*
G75*
G02*
X153100000Y-106370000I0J140000D01*
G01*
X153100000Y-106030000D01*
G75*
G02*
X153240000Y-105890000I140000J0D01*
G01*
X153520000Y-105890000D01*
G75*
G02*
X153660000Y-106030000I0J-140000D01*
G01*
G37*
G36*
G01*
X159420000Y-43530000D02*
X159080000Y-43530000D01*
G75*
G02*
X158940000Y-43390000I0J140000D01*
G01*
X158940000Y-43110000D01*
G75*
G02*
X159080000Y-42970000I140000J0D01*
G01*
X159420000Y-42970000D01*
G75*
G02*
X159560000Y-43110000I0J-140000D01*
G01*
X159560000Y-43390000D01*
G75*
G02*
X159420000Y-43530000I-140000J0D01*
G01*
G37*
G36*
G01*
X159420000Y-44490000D02*
X159080000Y-44490000D01*
G75*
G02*
X158940000Y-44350000I0J140000D01*
G01*
X158940000Y-44070000D01*
G75*
G02*
X159080000Y-43930000I140000J0D01*
G01*
X159420000Y-43930000D01*
G75*
G02*
X159560000Y-44070000I0J-140000D01*
G01*
X159560000Y-44350000D01*
G75*
G02*
X159420000Y-44490000I-140000J0D01*
G01*
G37*
G36*
G01*
X169720000Y-45420000D02*
X169720000Y-45080000D01*
G75*
G02*
X169860000Y-44940000I140000J0D01*
G01*
X170140000Y-44940000D01*
G75*
G02*
X170280000Y-45080000I0J-140000D01*
G01*
X170280000Y-45420000D01*
G75*
G02*
X170140000Y-45560000I-140000J0D01*
G01*
X169860000Y-45560000D01*
G75*
G02*
X169720000Y-45420000I0J140000D01*
G01*
G37*
G36*
G01*
X170680000Y-45420000D02*
X170680000Y-45080000D01*
G75*
G02*
X170820000Y-44940000I140000J0D01*
G01*
X171100000Y-44940000D01*
G75*
G02*
X171240000Y-45080000I0J-140000D01*
G01*
X171240000Y-45420000D01*
G75*
G02*
X171100000Y-45560000I-140000J0D01*
G01*
X170820000Y-45560000D01*
G75*
G02*
X170680000Y-45420000I0J140000D01*
G01*
G37*
D17*
X168650000Y-58250000D03*
X166750000Y-58250000D03*
X167700000Y-60250000D03*
D18*
X162900000Y-58300000D03*
X162900000Y-59250000D03*
X162900000Y-60200000D03*
X165100000Y-60200000D03*
X165100000Y-58300000D03*
D12*
X167350000Y-42000000D03*
X167350000Y-45000000D03*
D13*
G36*
X171300000Y-44366500D02*
G01*
X168175000Y-44366500D01*
X168175000Y-43950000D01*
X166700000Y-43950000D01*
X166700000Y-43050000D01*
X168175000Y-43050000D01*
X168175000Y-42633500D01*
X171300000Y-42633500D01*
X171300000Y-44366500D01*
G37*
G36*
G01*
X170070000Y-56615000D02*
X170070000Y-56985000D01*
G75*
G02*
X169935000Y-57120000I-135000J0D01*
G01*
X169665000Y-57120000D01*
G75*
G02*
X169530000Y-56985000I0J135000D01*
G01*
X169530000Y-56615000D01*
G75*
G02*
X169665000Y-56480000I135000J0D01*
G01*
X169935000Y-56480000D01*
G75*
G02*
X170070000Y-56615000I0J-135000D01*
G01*
G37*
G36*
G01*
X169050000Y-56615000D02*
X169050000Y-56985000D01*
G75*
G02*
X168915000Y-57120000I-135000J0D01*
G01*
X168645000Y-57120000D01*
G75*
G02*
X168510000Y-56985000I0J135000D01*
G01*
X168510000Y-56615000D01*
G75*
G02*
X168645000Y-56480000I135000J0D01*
G01*
X168915000Y-56480000D01*
G75*
G02*
X169050000Y-56615000I0J-135000D01*
G01*
G37*
G36*
G01*
X164137500Y-56349999D02*
X164137500Y-57250001D01*
G75*
G02*
X163887501Y-57500000I-249999J0D01*
G01*
X163362499Y-57500000D01*
G75*
G02*
X163112500Y-57250001I0J249999D01*
G01*
X163112500Y-56349999D01*
G75*
G02*
X163362499Y-56100000I249999J0D01*
G01*
X163887501Y-56100000D01*
G75*
G02*
X164137500Y-56349999I0J-249999D01*
G01*
G37*
G36*
G01*
X162312500Y-56349999D02*
X162312500Y-57250001D01*
G75*
G02*
X162062501Y-57500000I-249999J0D01*
G01*
X161537499Y-57500000D01*
G75*
G02*
X161287500Y-57250001I0J249999D01*
G01*
X161287500Y-56349999D01*
G75*
G02*
X161537499Y-56100000I249999J0D01*
G01*
X162062501Y-56100000D01*
G75*
G02*
X162312500Y-56349999I0J-249999D01*
G01*
G37*
G36*
G01*
X164400000Y-62200001D02*
X164400000Y-61299999D01*
G75*
G02*
X164649999Y-61050000I249999J0D01*
G01*
X165175001Y-61050000D01*
G75*
G02*
X165425000Y-61299999I0J-249999D01*
G01*
X165425000Y-62200001D01*
G75*
G02*
X165175001Y-62450000I-249999J0D01*
G01*
X164649999Y-62450000D01*
G75*
G02*
X164400000Y-62200001I0J249999D01*
G01*
G37*
G36*
G01*
X162575000Y-62200001D02*
X162575000Y-61299999D01*
G75*
G02*
X162824999Y-61050000I249999J0D01*
G01*
X163350001Y-61050000D01*
G75*
G02*
X163600000Y-61299999I0J-249999D01*
G01*
X163600000Y-62200001D01*
G75*
G02*
X163350001Y-62450000I-249999J0D01*
G01*
X162824999Y-62450000D01*
G75*
G02*
X162575000Y-62200001I0J249999D01*
G01*
G37*
G36*
G01*
X160549999Y-58662500D02*
X161450001Y-58662500D01*
G75*
G02*
X161700000Y-58912499I0J-249999D01*
G01*
X161700000Y-59437501D01*
G75*
G02*
X161450001Y-59687500I-249999J0D01*
G01*
X160549999Y-59687500D01*
G75*
G02*
X160300000Y-59437501I0J249999D01*
G01*
X160300000Y-58912499D01*
G75*
G02*
X160549999Y-58662500I249999J0D01*
G01*
G37*
G36*
G01*
X160549999Y-60487500D02*
X161450001Y-60487500D01*
G75*
G02*
X161700000Y-60737499I0J-249999D01*
G01*
X161700000Y-61262501D01*
G75*
G02*
X161450001Y-61512500I-249999J0D01*
G01*
X160549999Y-61512500D01*
G75*
G02*
X160300000Y-61262501I0J249999D01*
G01*
X160300000Y-60737499D01*
G75*
G02*
X160549999Y-60487500I249999J0D01*
G01*
G37*
M02*
