G04 #@! TF.GenerationSoftware,KiCad,Pcbnew,(5.1.9)-1*
G04 #@! TF.CreationDate,2021-06-08T15:39:04+02:00*
G04 #@! TF.ProjectId,TempSpike,54656d70-5370-4696-9b65-2e6b69636164,rev?*
G04 #@! TF.SameCoordinates,Original*
G04 #@! TF.FileFunction,Soldermask,Bot*
G04 #@! TF.FilePolarity,Negative*
%FSLAX46Y46*%
G04 Gerber Fmt 4.6, Leading zero omitted, Abs format (unit mm)*
G04 Created by KiCad (PCBNEW (5.1.9)-1) date 2021-06-08 15:39:04*
%MOMM*%
%LPD*%
G01*
G04 APERTURE LIST*
%ADD10O,1.802000X1.802000*%
%ADD11C,0.254000*%
%ADD12C,0.100000*%
G04 APERTURE END LIST*
G36*
G01*
X142101000Y-43006000D02*
X142101000Y-41306000D01*
G75*
G02*
X142152000Y-41255000I51000J0D01*
G01*
X143852000Y-41255000D01*
G75*
G02*
X143903000Y-41306000I0J-51000D01*
G01*
X143903000Y-43006000D01*
G75*
G02*
X143852000Y-43057000I-51000J0D01*
G01*
X142152000Y-43057000D01*
G75*
G02*
X142101000Y-43006000I0J51000D01*
G01*
G37*
D10*
X143002000Y-44696000D03*
X143002000Y-47236000D03*
X143002000Y-49776000D03*
G36*
G01*
X174994000Y-43244000D02*
X174994000Y-41544000D01*
G75*
G02*
X175045000Y-41493000I51000J0D01*
G01*
X176745000Y-41493000D01*
G75*
G02*
X176796000Y-41544000I0J-51000D01*
G01*
X176796000Y-43244000D01*
G75*
G02*
X176745000Y-43295000I-51000J0D01*
G01*
X175045000Y-43295000D01*
G75*
G02*
X174994000Y-43244000I0J51000D01*
G01*
G37*
X175895000Y-44934000D03*
X175895000Y-47474000D03*
X175895000Y-50014000D03*
X175895000Y-52554000D03*
D11*
X149873000Y-124873000D02*
X147527000Y-124873000D01*
X147527000Y-112127000D01*
X149873000Y-112127000D01*
X149873000Y-124873000D01*
D12*
G36*
X149873000Y-124873000D02*
G01*
X147527000Y-124873000D01*
X147527000Y-112127000D01*
X149873000Y-112127000D01*
X149873000Y-124873000D01*
G37*
D11*
X149573000Y-79873000D02*
X147527000Y-79873000D01*
X147527000Y-67127000D01*
X149573000Y-67127000D01*
X149573000Y-79873000D01*
D12*
G36*
X149573000Y-79873000D02*
G01*
X147527000Y-79873000D01*
X147527000Y-67127000D01*
X149573000Y-67127000D01*
X149573000Y-79873000D01*
G37*
D11*
X149873000Y-94873000D02*
X147527000Y-94873000D01*
X147527000Y-82127000D01*
X149873000Y-82127000D01*
X149873000Y-94873000D01*
D12*
G36*
X149873000Y-94873000D02*
G01*
X147527000Y-94873000D01*
X147527000Y-82127000D01*
X149873000Y-82127000D01*
X149873000Y-94873000D01*
G37*
D11*
X149873000Y-109873000D02*
X147527000Y-109873000D01*
X147527000Y-97127000D01*
X149873000Y-97127000D01*
X149873000Y-109873000D01*
D12*
G36*
X149873000Y-109873000D02*
G01*
X147527000Y-109873000D01*
X147527000Y-97127000D01*
X149873000Y-97127000D01*
X149873000Y-109873000D01*
G37*
D11*
X158473000Y-124873000D02*
X156127000Y-124873000D01*
X156127000Y-112127000D01*
X158473000Y-112127000D01*
X158473000Y-124873000D01*
D12*
G36*
X158473000Y-124873000D02*
G01*
X156127000Y-124873000D01*
X156127000Y-112127000D01*
X158473000Y-112127000D01*
X158473000Y-124873000D01*
G37*
D11*
X158473000Y-109873000D02*
X156127000Y-109873000D01*
X156127000Y-97127000D01*
X158473000Y-97127000D01*
X158473000Y-109873000D01*
D12*
G36*
X158473000Y-109873000D02*
G01*
X156127000Y-109873000D01*
X156127000Y-97127000D01*
X158473000Y-97127000D01*
X158473000Y-109873000D01*
G37*
D11*
X158473000Y-94873000D02*
X156127000Y-94873000D01*
X156127000Y-82127000D01*
X158473000Y-82127000D01*
X158473000Y-94873000D01*
D12*
G36*
X158473000Y-94873000D02*
G01*
X156127000Y-94873000D01*
X156127000Y-82127000D01*
X158473000Y-82127000D01*
X158473000Y-94873000D01*
G37*
D11*
X158473000Y-79873000D02*
X156327000Y-79873000D01*
X156327000Y-67127000D01*
X158473000Y-67127000D01*
X158473000Y-79873000D01*
D12*
G36*
X158473000Y-79873000D02*
G01*
X156327000Y-79873000D01*
X156327000Y-67127000D01*
X158473000Y-67127000D01*
X158473000Y-79873000D01*
G37*
M02*
