G04 #@! TF.GenerationSoftware,KiCad,Pcbnew,(5.1.9)-1*
G04 #@! TF.CreationDate,2021-06-08T15:39:03+02:00*
G04 #@! TF.ProjectId,TempSpike,54656d70-5370-4696-9b65-2e6b69636164,rev?*
G04 #@! TF.SameCoordinates,Original*
G04 #@! TF.FileFunction,Copper,L1,Top*
G04 #@! TF.FilePolarity,Positive*
%FSLAX46Y46*%
G04 Gerber Fmt 4.6, Leading zero omitted, Abs format (unit mm)*
G04 Created by KiCad (PCBNEW (5.1.9)-1) date 2021-06-08 15:39:03*
%MOMM*%
%LPD*%
G01*
G04 APERTURE LIST*
G04 #@! TA.AperFunction,SMDPad,CuDef*
%ADD10R,1.500000X0.600000*%
G04 #@! TD*
G04 #@! TA.AperFunction,ComponentPad*
%ADD11R,1.700000X1.700000*%
G04 #@! TD*
G04 #@! TA.AperFunction,ComponentPad*
%ADD12O,1.700000X1.700000*%
G04 #@! TD*
G04 #@! TA.AperFunction,SMDPad,CuDef*
%ADD13R,1.500000X0.400000*%
G04 #@! TD*
G04 #@! TA.AperFunction,SMDPad,CuDef*
%ADD14R,1.300000X0.900000*%
G04 #@! TD*
G04 #@! TA.AperFunction,SMDPad,CuDef*
%ADD15C,0.100000*%
G04 #@! TD*
G04 #@! TA.AperFunction,SMDPad,CuDef*
%ADD16R,0.600000X1.500000*%
G04 #@! TD*
G04 #@! TA.AperFunction,SMDPad,CuDef*
%ADD17R,1.450000X0.450000*%
G04 #@! TD*
G04 #@! TA.AperFunction,SMDPad,CuDef*
%ADD18R,2.000000X2.000000*%
G04 #@! TD*
G04 #@! TA.AperFunction,SMDPad,CuDef*
%ADD19R,0.400000X1.500000*%
G04 #@! TD*
G04 #@! TA.AperFunction,SMDPad,CuDef*
%ADD20R,0.800000X0.900000*%
G04 #@! TD*
G04 #@! TA.AperFunction,SMDPad,CuDef*
%ADD21R,1.060000X0.650000*%
G04 #@! TD*
G04 #@! TA.AperFunction,ViaPad*
%ADD22C,0.800000*%
G04 #@! TD*
G04 #@! TA.AperFunction,Conductor*
%ADD23C,0.300000*%
G04 #@! TD*
G04 #@! TA.AperFunction,Conductor*
%ADD24C,0.350000*%
G04 #@! TD*
G04 #@! TA.AperFunction,Conductor*
%ADD25C,0.600000*%
G04 #@! TD*
G04 #@! TA.AperFunction,Conductor*
%ADD26C,0.400000*%
G04 #@! TD*
G04 #@! TA.AperFunction,Conductor*
%ADD27C,0.800000*%
G04 #@! TD*
G04 #@! TA.AperFunction,Conductor*
%ADD28C,0.254000*%
G04 #@! TD*
G04 #@! TA.AperFunction,Conductor*
%ADD29C,0.100000*%
G04 #@! TD*
G04 APERTURE END LIST*
G04 #@! TA.AperFunction,SMDPad,CuDef*
G36*
G01*
X142430000Y-52285000D02*
X142430000Y-51915000D01*
G75*
G02*
X142565000Y-51780000I135000J0D01*
G01*
X142835000Y-51780000D01*
G75*
G02*
X142970000Y-51915000I0J-135000D01*
G01*
X142970000Y-52285000D01*
G75*
G02*
X142835000Y-52420000I-135000J0D01*
G01*
X142565000Y-52420000D01*
G75*
G02*
X142430000Y-52285000I0J135000D01*
G01*
G37*
G04 #@! TD.AperFunction*
G04 #@! TA.AperFunction,SMDPad,CuDef*
G36*
G01*
X141410000Y-52285000D02*
X141410000Y-51915000D01*
G75*
G02*
X141545000Y-51780000I135000J0D01*
G01*
X141815000Y-51780000D01*
G75*
G02*
X141950000Y-51915000I0J-135000D01*
G01*
X141950000Y-52285000D01*
G75*
G02*
X141815000Y-52420000I-135000J0D01*
G01*
X141545000Y-52420000D01*
G75*
G02*
X141410000Y-52285000I0J135000D01*
G01*
G37*
G04 #@! TD.AperFunction*
G04 #@! TA.AperFunction,SMDPad,CuDef*
G36*
G01*
X157710000Y-46185000D02*
X157710000Y-45815000D01*
G75*
G02*
X157845000Y-45680000I135000J0D01*
G01*
X158115000Y-45680000D01*
G75*
G02*
X158250000Y-45815000I0J-135000D01*
G01*
X158250000Y-46185000D01*
G75*
G02*
X158115000Y-46320000I-135000J0D01*
G01*
X157845000Y-46320000D01*
G75*
G02*
X157710000Y-46185000I0J135000D01*
G01*
G37*
G04 #@! TD.AperFunction*
G04 #@! TA.AperFunction,SMDPad,CuDef*
G36*
G01*
X158730000Y-46185000D02*
X158730000Y-45815000D01*
G75*
G02*
X158865000Y-45680000I135000J0D01*
G01*
X159135000Y-45680000D01*
G75*
G02*
X159270000Y-45815000I0J-135000D01*
G01*
X159270000Y-46185000D01*
G75*
G02*
X159135000Y-46320000I-135000J0D01*
G01*
X158865000Y-46320000D01*
G75*
G02*
X158730000Y-46185000I0J135000D01*
G01*
G37*
G04 #@! TD.AperFunction*
G04 #@! TA.AperFunction,SMDPad,CuDef*
G36*
G01*
X158740000Y-48185000D02*
X158740000Y-47815000D01*
G75*
G02*
X158875000Y-47680000I135000J0D01*
G01*
X159145000Y-47680000D01*
G75*
G02*
X159280000Y-47815000I0J-135000D01*
G01*
X159280000Y-48185000D01*
G75*
G02*
X159145000Y-48320000I-135000J0D01*
G01*
X158875000Y-48320000D01*
G75*
G02*
X158740000Y-48185000I0J135000D01*
G01*
G37*
G04 #@! TD.AperFunction*
G04 #@! TA.AperFunction,SMDPad,CuDef*
G36*
G01*
X157720000Y-48185000D02*
X157720000Y-47815000D01*
G75*
G02*
X157855000Y-47680000I135000J0D01*
G01*
X158125000Y-47680000D01*
G75*
G02*
X158260000Y-47815000I0J-135000D01*
G01*
X158260000Y-48185000D01*
G75*
G02*
X158125000Y-48320000I-135000J0D01*
G01*
X157855000Y-48320000D01*
G75*
G02*
X157720000Y-48185000I0J135000D01*
G01*
G37*
G04 #@! TD.AperFunction*
G04 #@! TA.AperFunction,SMDPad,CuDef*
G36*
G01*
X141430000Y-53285000D02*
X141430000Y-52915000D01*
G75*
G02*
X141565000Y-52780000I135000J0D01*
G01*
X141835000Y-52780000D01*
G75*
G02*
X141970000Y-52915000I0J-135000D01*
G01*
X141970000Y-53285000D01*
G75*
G02*
X141835000Y-53420000I-135000J0D01*
G01*
X141565000Y-53420000D01*
G75*
G02*
X141430000Y-53285000I0J135000D01*
G01*
G37*
G04 #@! TD.AperFunction*
G04 #@! TA.AperFunction,SMDPad,CuDef*
G36*
G01*
X142450000Y-53285000D02*
X142450000Y-52915000D01*
G75*
G02*
X142585000Y-52780000I135000J0D01*
G01*
X142855000Y-52780000D01*
G75*
G02*
X142990000Y-52915000I0J-135000D01*
G01*
X142990000Y-53285000D01*
G75*
G02*
X142855000Y-53420000I-135000J0D01*
G01*
X142585000Y-53420000D01*
G75*
G02*
X142450000Y-53285000I0J135000D01*
G01*
G37*
G04 #@! TD.AperFunction*
G04 #@! TA.AperFunction,SMDPad,CuDef*
G36*
G01*
X156230000Y-48185000D02*
X156230000Y-47815000D01*
G75*
G02*
X156365000Y-47680000I135000J0D01*
G01*
X156635000Y-47680000D01*
G75*
G02*
X156770000Y-47815000I0J-135000D01*
G01*
X156770000Y-48185000D01*
G75*
G02*
X156635000Y-48320000I-135000J0D01*
G01*
X156365000Y-48320000D01*
G75*
G02*
X156230000Y-48185000I0J135000D01*
G01*
G37*
G04 #@! TD.AperFunction*
G04 #@! TA.AperFunction,SMDPad,CuDef*
G36*
G01*
X155210000Y-48185000D02*
X155210000Y-47815000D01*
G75*
G02*
X155345000Y-47680000I135000J0D01*
G01*
X155615000Y-47680000D01*
G75*
G02*
X155750000Y-47815000I0J-135000D01*
G01*
X155750000Y-48185000D01*
G75*
G02*
X155615000Y-48320000I-135000J0D01*
G01*
X155345000Y-48320000D01*
G75*
G02*
X155210000Y-48185000I0J135000D01*
G01*
G37*
G04 #@! TD.AperFunction*
G04 #@! TA.AperFunction,SMDPad,CuDef*
G36*
G01*
X158740000Y-47185000D02*
X158740000Y-46815000D01*
G75*
G02*
X158875000Y-46680000I135000J0D01*
G01*
X159145000Y-46680000D01*
G75*
G02*
X159280000Y-46815000I0J-135000D01*
G01*
X159280000Y-47185000D01*
G75*
G02*
X159145000Y-47320000I-135000J0D01*
G01*
X158875000Y-47320000D01*
G75*
G02*
X158740000Y-47185000I0J135000D01*
G01*
G37*
G04 #@! TD.AperFunction*
G04 #@! TA.AperFunction,SMDPad,CuDef*
G36*
G01*
X157720000Y-47185000D02*
X157720000Y-46815000D01*
G75*
G02*
X157855000Y-46680000I135000J0D01*
G01*
X158125000Y-46680000D01*
G75*
G02*
X158260000Y-46815000I0J-135000D01*
G01*
X158260000Y-47185000D01*
G75*
G02*
X158125000Y-47320000I-135000J0D01*
G01*
X157855000Y-47320000D01*
G75*
G02*
X157720000Y-47185000I0J135000D01*
G01*
G37*
G04 #@! TD.AperFunction*
G04 #@! TA.AperFunction,SMDPad,CuDef*
G36*
G01*
X155210000Y-47185000D02*
X155210000Y-46815000D01*
G75*
G02*
X155345000Y-46680000I135000J0D01*
G01*
X155615000Y-46680000D01*
G75*
G02*
X155750000Y-46815000I0J-135000D01*
G01*
X155750000Y-47185000D01*
G75*
G02*
X155615000Y-47320000I-135000J0D01*
G01*
X155345000Y-47320000D01*
G75*
G02*
X155210000Y-47185000I0J135000D01*
G01*
G37*
G04 #@! TD.AperFunction*
G04 #@! TA.AperFunction,SMDPad,CuDef*
G36*
G01*
X156230000Y-47185000D02*
X156230000Y-46815000D01*
G75*
G02*
X156365000Y-46680000I135000J0D01*
G01*
X156635000Y-46680000D01*
G75*
G02*
X156770000Y-46815000I0J-135000D01*
G01*
X156770000Y-47185000D01*
G75*
G02*
X156635000Y-47320000I-135000J0D01*
G01*
X156365000Y-47320000D01*
G75*
G02*
X156230000Y-47185000I0J135000D01*
G01*
G37*
G04 #@! TD.AperFunction*
D10*
X149570000Y-60815000D03*
X149570000Y-59545000D03*
X149570000Y-58275000D03*
X149570000Y-57005000D03*
X149570000Y-55735000D03*
X149570000Y-54465000D03*
X149570000Y-53195000D03*
X149570000Y-51925000D03*
X144170000Y-51925000D03*
X144170000Y-53195000D03*
X144170000Y-54465000D03*
X144170000Y-55735000D03*
X144170000Y-57005000D03*
X144170000Y-58275000D03*
X144170000Y-59545000D03*
X144170000Y-60815000D03*
X158320000Y-60815000D03*
X158320000Y-59545000D03*
X158320000Y-58275000D03*
X158320000Y-57005000D03*
X158320000Y-55735000D03*
X158320000Y-54465000D03*
X158320000Y-53195000D03*
X158320000Y-51925000D03*
X152920000Y-51925000D03*
X152920000Y-53195000D03*
X152920000Y-54465000D03*
X152920000Y-55735000D03*
X152920000Y-57005000D03*
X152920000Y-58275000D03*
X152920000Y-59545000D03*
X152920000Y-60815000D03*
D11*
X143002000Y-42156000D03*
D12*
X143002000Y-44696000D03*
X143002000Y-47236000D03*
X143002000Y-49776000D03*
D11*
X175895000Y-42394000D03*
D12*
X175895000Y-44934000D03*
X175895000Y-47474000D03*
X175895000Y-50014000D03*
X175895000Y-52554000D03*
D13*
X172813040Y-51900240D03*
X169686960Y-51250000D03*
X172813040Y-50599760D03*
X169686960Y-50600000D03*
X169686960Y-51900240D03*
G04 #@! TA.AperFunction,SMDPad,CuDef*
G36*
G01*
X171420000Y-46597500D02*
X171080000Y-46597500D01*
G75*
G02*
X170940000Y-46457500I0J140000D01*
G01*
X170940000Y-46177500D01*
G75*
G02*
X171080000Y-46037500I140000J0D01*
G01*
X171420000Y-46037500D01*
G75*
G02*
X171560000Y-46177500I0J-140000D01*
G01*
X171560000Y-46457500D01*
G75*
G02*
X171420000Y-46597500I-140000J0D01*
G01*
G37*
G04 #@! TD.AperFunction*
G04 #@! TA.AperFunction,SMDPad,CuDef*
G36*
G01*
X171420000Y-47557500D02*
X171080000Y-47557500D01*
G75*
G02*
X170940000Y-47417500I0J140000D01*
G01*
X170940000Y-47137500D01*
G75*
G02*
X171080000Y-46997500I140000J0D01*
G01*
X171420000Y-46997500D01*
G75*
G02*
X171560000Y-47137500I0J-140000D01*
G01*
X171560000Y-47417500D01*
G75*
G02*
X171420000Y-47557500I-140000J0D01*
G01*
G37*
G04 #@! TD.AperFunction*
G04 #@! TA.AperFunction,SMDPad,CuDef*
G36*
G01*
X173685000Y-42974000D02*
X173315000Y-42974000D01*
G75*
G02*
X173180000Y-42839000I0J135000D01*
G01*
X173180000Y-42569000D01*
G75*
G02*
X173315000Y-42434000I135000J0D01*
G01*
X173685000Y-42434000D01*
G75*
G02*
X173820000Y-42569000I0J-135000D01*
G01*
X173820000Y-42839000D01*
G75*
G02*
X173685000Y-42974000I-135000J0D01*
G01*
G37*
G04 #@! TD.AperFunction*
G04 #@! TA.AperFunction,SMDPad,CuDef*
G36*
G01*
X173685000Y-43994000D02*
X173315000Y-43994000D01*
G75*
G02*
X173180000Y-43859000I0J135000D01*
G01*
X173180000Y-43589000D01*
G75*
G02*
X173315000Y-43454000I135000J0D01*
G01*
X173685000Y-43454000D01*
G75*
G02*
X173820000Y-43589000I0J-135000D01*
G01*
X173820000Y-43859000D01*
G75*
G02*
X173685000Y-43994000I-135000J0D01*
G01*
G37*
G04 #@! TD.AperFunction*
G04 #@! TA.AperFunction,SMDPad,CuDef*
G36*
G01*
X167770000Y-61315000D02*
X167770000Y-61685000D01*
G75*
G02*
X167635000Y-61820000I-135000J0D01*
G01*
X167365000Y-61820000D01*
G75*
G02*
X167230000Y-61685000I0J135000D01*
G01*
X167230000Y-61315000D01*
G75*
G02*
X167365000Y-61180000I135000J0D01*
G01*
X167635000Y-61180000D01*
G75*
G02*
X167770000Y-61315000I0J-135000D01*
G01*
G37*
G04 #@! TD.AperFunction*
G04 #@! TA.AperFunction,SMDPad,CuDef*
G36*
G01*
X166750000Y-61315000D02*
X166750000Y-61685000D01*
G75*
G02*
X166615000Y-61820000I-135000J0D01*
G01*
X166345000Y-61820000D01*
G75*
G02*
X166210000Y-61685000I0J135000D01*
G01*
X166210000Y-61315000D01*
G75*
G02*
X166345000Y-61180000I135000J0D01*
G01*
X166615000Y-61180000D01*
G75*
G02*
X166750000Y-61315000I0J-135000D01*
G01*
G37*
G04 #@! TD.AperFunction*
G04 #@! TA.AperFunction,SMDPad,CuDef*
G36*
G01*
X173201250Y-48049000D02*
X172688750Y-48049000D01*
G75*
G02*
X172470000Y-47830250I0J218750D01*
G01*
X172470000Y-47392750D01*
G75*
G02*
X172688750Y-47174000I218750J0D01*
G01*
X173201250Y-47174000D01*
G75*
G02*
X173420000Y-47392750I0J-218750D01*
G01*
X173420000Y-47830250D01*
G75*
G02*
X173201250Y-48049000I-218750J0D01*
G01*
G37*
G04 #@! TD.AperFunction*
G04 #@! TA.AperFunction,SMDPad,CuDef*
G36*
G01*
X173201250Y-46474000D02*
X172688750Y-46474000D01*
G75*
G02*
X172470000Y-46255250I0J218750D01*
G01*
X172470000Y-45817750D01*
G75*
G02*
X172688750Y-45599000I218750J0D01*
G01*
X173201250Y-45599000D01*
G75*
G02*
X173420000Y-45817750I0J-218750D01*
G01*
X173420000Y-46255250D01*
G75*
G02*
X173201250Y-46474000I-218750J0D01*
G01*
G37*
G04 #@! TD.AperFunction*
G04 #@! TA.AperFunction,SMDPad,CuDef*
G36*
G01*
X174080000Y-51430000D02*
X174420000Y-51430000D01*
G75*
G02*
X174560000Y-51570000I0J-140000D01*
G01*
X174560000Y-51850000D01*
G75*
G02*
X174420000Y-51990000I-140000J0D01*
G01*
X174080000Y-51990000D01*
G75*
G02*
X173940000Y-51850000I0J140000D01*
G01*
X173940000Y-51570000D01*
G75*
G02*
X174080000Y-51430000I140000J0D01*
G01*
G37*
G04 #@! TD.AperFunction*
G04 #@! TA.AperFunction,SMDPad,CuDef*
G36*
G01*
X174080000Y-50470000D02*
X174420000Y-50470000D01*
G75*
G02*
X174560000Y-50610000I0J-140000D01*
G01*
X174560000Y-50890000D01*
G75*
G02*
X174420000Y-51030000I-140000J0D01*
G01*
X174080000Y-51030000D01*
G75*
G02*
X173940000Y-50890000I0J140000D01*
G01*
X173940000Y-50610000D01*
G75*
G02*
X174080000Y-50470000I140000J0D01*
G01*
G37*
G04 #@! TD.AperFunction*
D14*
X160850000Y-42000000D03*
X160850000Y-45000000D03*
G04 #@! TA.AperFunction,SMDPad,CuDef*
D15*
G36*
X164800000Y-44366500D02*
G01*
X161675000Y-44366500D01*
X161675000Y-43950000D01*
X160200000Y-43950000D01*
X160200000Y-43050000D01*
X161675000Y-43050000D01*
X161675000Y-42633500D01*
X164800000Y-42633500D01*
X164800000Y-44366500D01*
G37*
G04 #@! TD.AperFunction*
G04 #@! TA.AperFunction,SMDPad,CuDef*
G36*
G01*
X148670000Y-42030000D02*
X148330000Y-42030000D01*
G75*
G02*
X148190000Y-41890000I0J140000D01*
G01*
X148190000Y-41610000D01*
G75*
G02*
X148330000Y-41470000I140000J0D01*
G01*
X148670000Y-41470000D01*
G75*
G02*
X148810000Y-41610000I0J-140000D01*
G01*
X148810000Y-41890000D01*
G75*
G02*
X148670000Y-42030000I-140000J0D01*
G01*
G37*
G04 #@! TD.AperFunction*
G04 #@! TA.AperFunction,SMDPad,CuDef*
G36*
G01*
X148670000Y-42990000D02*
X148330000Y-42990000D01*
G75*
G02*
X148190000Y-42850000I0J140000D01*
G01*
X148190000Y-42570000D01*
G75*
G02*
X148330000Y-42430000I140000J0D01*
G01*
X148670000Y-42430000D01*
G75*
G02*
X148810000Y-42570000I0J-140000D01*
G01*
X148810000Y-42850000D01*
G75*
G02*
X148670000Y-42990000I-140000J0D01*
G01*
G37*
G04 #@! TD.AperFunction*
G04 #@! TA.AperFunction,SMDPad,CuDef*
G36*
G01*
X165680000Y-57170000D02*
X165680000Y-56830000D01*
G75*
G02*
X165820000Y-56690000I140000J0D01*
G01*
X166100000Y-56690000D01*
G75*
G02*
X166240000Y-56830000I0J-140000D01*
G01*
X166240000Y-57170000D01*
G75*
G02*
X166100000Y-57310000I-140000J0D01*
G01*
X165820000Y-57310000D01*
G75*
G02*
X165680000Y-57170000I0J140000D01*
G01*
G37*
G04 #@! TD.AperFunction*
G04 #@! TA.AperFunction,SMDPad,CuDef*
G36*
G01*
X164720000Y-57170000D02*
X164720000Y-56830000D01*
G75*
G02*
X164860000Y-56690000I140000J0D01*
G01*
X165140000Y-56690000D01*
G75*
G02*
X165280000Y-56830000I0J-140000D01*
G01*
X165280000Y-57170000D01*
G75*
G02*
X165140000Y-57310000I-140000J0D01*
G01*
X164860000Y-57310000D01*
G75*
G02*
X164720000Y-57170000I0J140000D01*
G01*
G37*
G04 #@! TD.AperFunction*
D16*
X154825000Y-49570000D03*
X153555000Y-49570000D03*
X152285000Y-49570000D03*
X151015000Y-49570000D03*
X149745000Y-49570000D03*
X148475000Y-49570000D03*
X147205000Y-49570000D03*
X145935000Y-49570000D03*
X145935000Y-44170000D03*
X147205000Y-44170000D03*
X148475000Y-44170000D03*
X149745000Y-44170000D03*
X151015000Y-44170000D03*
X152285000Y-44170000D03*
X153555000Y-44170000D03*
X154825000Y-44170000D03*
D17*
X161690000Y-47230000D03*
X161690000Y-47880000D03*
X161690000Y-48530000D03*
X161690000Y-49180000D03*
X161690000Y-49830000D03*
X161690000Y-50480000D03*
X161690000Y-51130000D03*
X161690000Y-51780000D03*
X161690000Y-52430000D03*
X161690000Y-53080000D03*
X167590000Y-53080000D03*
X167590000Y-52430000D03*
X167590000Y-51780000D03*
X167590000Y-51130000D03*
X167590000Y-50480000D03*
X167590000Y-49830000D03*
X167590000Y-49180000D03*
X167590000Y-48530000D03*
X167590000Y-47880000D03*
X167590000Y-47230000D03*
G04 #@! TA.AperFunction,SMDPad,CuDef*
G36*
G01*
X153670000Y-43030000D02*
X153330000Y-43030000D01*
G75*
G02*
X153190000Y-42890000I0J140000D01*
G01*
X153190000Y-42610000D01*
G75*
G02*
X153330000Y-42470000I140000J0D01*
G01*
X153670000Y-42470000D01*
G75*
G02*
X153810000Y-42610000I0J-140000D01*
G01*
X153810000Y-42890000D01*
G75*
G02*
X153670000Y-43030000I-140000J0D01*
G01*
G37*
G04 #@! TD.AperFunction*
G04 #@! TA.AperFunction,SMDPad,CuDef*
G36*
G01*
X153670000Y-42070000D02*
X153330000Y-42070000D01*
G75*
G02*
X153190000Y-41930000I0J140000D01*
G01*
X153190000Y-41650000D01*
G75*
G02*
X153330000Y-41510000I140000J0D01*
G01*
X153670000Y-41510000D01*
G75*
G02*
X153810000Y-41650000I0J-140000D01*
G01*
X153810000Y-41930000D01*
G75*
G02*
X153670000Y-42070000I-140000J0D01*
G01*
G37*
G04 #@! TD.AperFunction*
G04 #@! TA.AperFunction,SMDPad,CuDef*
G36*
G01*
X152080000Y-41510000D02*
X152420000Y-41510000D01*
G75*
G02*
X152560000Y-41650000I0J-140000D01*
G01*
X152560000Y-41930000D01*
G75*
G02*
X152420000Y-42070000I-140000J0D01*
G01*
X152080000Y-42070000D01*
G75*
G02*
X151940000Y-41930000I0J140000D01*
G01*
X151940000Y-41650000D01*
G75*
G02*
X152080000Y-41510000I140000J0D01*
G01*
G37*
G04 #@! TD.AperFunction*
G04 #@! TA.AperFunction,SMDPad,CuDef*
G36*
G01*
X152080000Y-42470000D02*
X152420000Y-42470000D01*
G75*
G02*
X152560000Y-42610000I0J-140000D01*
G01*
X152560000Y-42890000D01*
G75*
G02*
X152420000Y-43030000I-140000J0D01*
G01*
X152080000Y-43030000D01*
G75*
G02*
X151940000Y-42890000I0J140000D01*
G01*
X151940000Y-42610000D01*
G75*
G02*
X152080000Y-42470000I140000J0D01*
G01*
G37*
G04 #@! TD.AperFunction*
G04 #@! TA.AperFunction,SMDPad,CuDef*
G36*
G01*
X171830000Y-43404500D02*
X172170000Y-43404500D01*
G75*
G02*
X172310000Y-43544500I0J-140000D01*
G01*
X172310000Y-43824500D01*
G75*
G02*
X172170000Y-43964500I-140000J0D01*
G01*
X171830000Y-43964500D01*
G75*
G02*
X171690000Y-43824500I0J140000D01*
G01*
X171690000Y-43544500D01*
G75*
G02*
X171830000Y-43404500I140000J0D01*
G01*
G37*
G04 #@! TD.AperFunction*
G04 #@! TA.AperFunction,SMDPad,CuDef*
G36*
G01*
X171830000Y-42444500D02*
X172170000Y-42444500D01*
G75*
G02*
X172310000Y-42584500I0J-140000D01*
G01*
X172310000Y-42864500D01*
G75*
G02*
X172170000Y-43004500I-140000J0D01*
G01*
X171830000Y-43004500D01*
G75*
G02*
X171690000Y-42864500I0J140000D01*
G01*
X171690000Y-42584500D01*
G75*
G02*
X171830000Y-42444500I140000J0D01*
G01*
G37*
G04 #@! TD.AperFunction*
G04 #@! TA.AperFunction,SMDPad,CuDef*
G36*
G01*
X149580000Y-42470000D02*
X149920000Y-42470000D01*
G75*
G02*
X150060000Y-42610000I0J-140000D01*
G01*
X150060000Y-42890000D01*
G75*
G02*
X149920000Y-43030000I-140000J0D01*
G01*
X149580000Y-43030000D01*
G75*
G02*
X149440000Y-42890000I0J140000D01*
G01*
X149440000Y-42610000D01*
G75*
G02*
X149580000Y-42470000I140000J0D01*
G01*
G37*
G04 #@! TD.AperFunction*
G04 #@! TA.AperFunction,SMDPad,CuDef*
G36*
G01*
X149580000Y-41510000D02*
X149920000Y-41510000D01*
G75*
G02*
X150060000Y-41650000I0J-140000D01*
G01*
X150060000Y-41930000D01*
G75*
G02*
X149920000Y-42070000I-140000J0D01*
G01*
X149580000Y-42070000D01*
G75*
G02*
X149440000Y-41930000I0J140000D01*
G01*
X149440000Y-41650000D01*
G75*
G02*
X149580000Y-41510000I140000J0D01*
G01*
G37*
G04 #@! TD.AperFunction*
G04 #@! TA.AperFunction,SMDPad,CuDef*
G36*
G01*
X156080000Y-48970000D02*
X156420000Y-48970000D01*
G75*
G02*
X156560000Y-49110000I0J-140000D01*
G01*
X156560000Y-49390000D01*
G75*
G02*
X156420000Y-49530000I-140000J0D01*
G01*
X156080000Y-49530000D01*
G75*
G02*
X155940000Y-49390000I0J140000D01*
G01*
X155940000Y-49110000D01*
G75*
G02*
X156080000Y-48970000I140000J0D01*
G01*
G37*
G04 #@! TD.AperFunction*
G04 #@! TA.AperFunction,SMDPad,CuDef*
G36*
G01*
X156080000Y-49930000D02*
X156420000Y-49930000D01*
G75*
G02*
X156560000Y-50070000I0J-140000D01*
G01*
X156560000Y-50350000D01*
G75*
G02*
X156420000Y-50490000I-140000J0D01*
G01*
X156080000Y-50490000D01*
G75*
G02*
X155940000Y-50350000I0J140000D01*
G01*
X155940000Y-50070000D01*
G75*
G02*
X156080000Y-49930000I140000J0D01*
G01*
G37*
G04 #@! TD.AperFunction*
G04 #@! TA.AperFunction,SMDPad,CuDef*
G36*
G01*
X160240000Y-48830000D02*
X160240000Y-49170000D01*
G75*
G02*
X160100000Y-49310000I-140000J0D01*
G01*
X159820000Y-49310000D01*
G75*
G02*
X159680000Y-49170000I0J140000D01*
G01*
X159680000Y-48830000D01*
G75*
G02*
X159820000Y-48690000I140000J0D01*
G01*
X160100000Y-48690000D01*
G75*
G02*
X160240000Y-48830000I0J-140000D01*
G01*
G37*
G04 #@! TD.AperFunction*
G04 #@! TA.AperFunction,SMDPad,CuDef*
G36*
G01*
X159280000Y-48830000D02*
X159280000Y-49170000D01*
G75*
G02*
X159140000Y-49310000I-140000J0D01*
G01*
X158860000Y-49310000D01*
G75*
G02*
X158720000Y-49170000I0J140000D01*
G01*
X158720000Y-48830000D01*
G75*
G02*
X158860000Y-48690000I140000J0D01*
G01*
X159140000Y-48690000D01*
G75*
G02*
X159280000Y-48830000I0J-140000D01*
G01*
G37*
G04 #@! TD.AperFunction*
D18*
X148500000Y-103500000D03*
X148717000Y-117820000D03*
X157510000Y-88500000D03*
X148500000Y-88500000D03*
X157226000Y-117729000D03*
X157099000Y-103500000D03*
X157400000Y-73500000D03*
X148700000Y-73500000D03*
D19*
X152349760Y-119363040D03*
X153000000Y-116436960D03*
X153650240Y-119363040D03*
X153650000Y-116436960D03*
X152349760Y-116436960D03*
X152299760Y-86896960D03*
X153600000Y-86896960D03*
X153600240Y-89823040D03*
X152950000Y-86896960D03*
X152299760Y-89823040D03*
X152305260Y-75023040D03*
X152955500Y-72096960D03*
X153605740Y-75023040D03*
X153605500Y-72096960D03*
X152305260Y-72096960D03*
X152309760Y-101696960D03*
X153610000Y-101696960D03*
X153610240Y-104623040D03*
X152960000Y-101696960D03*
X152309760Y-104623040D03*
G04 #@! TA.AperFunction,SMDPad,CuDef*
G36*
G01*
X153760000Y-120730000D02*
X153760000Y-121070000D01*
G75*
G02*
X153620000Y-121210000I-140000J0D01*
G01*
X153340000Y-121210000D01*
G75*
G02*
X153200000Y-121070000I0J140000D01*
G01*
X153200000Y-120730000D01*
G75*
G02*
X153340000Y-120590000I140000J0D01*
G01*
X153620000Y-120590000D01*
G75*
G02*
X153760000Y-120730000I0J-140000D01*
G01*
G37*
G04 #@! TD.AperFunction*
G04 #@! TA.AperFunction,SMDPad,CuDef*
G36*
G01*
X152800000Y-120730000D02*
X152800000Y-121070000D01*
G75*
G02*
X152660000Y-121210000I-140000J0D01*
G01*
X152380000Y-121210000D01*
G75*
G02*
X152240000Y-121070000I0J140000D01*
G01*
X152240000Y-120730000D01*
G75*
G02*
X152380000Y-120590000I140000J0D01*
G01*
X152660000Y-120590000D01*
G75*
G02*
X152800000Y-120730000I0J-140000D01*
G01*
G37*
G04 #@! TD.AperFunction*
G04 #@! TA.AperFunction,SMDPad,CuDef*
G36*
G01*
X153760000Y-91230000D02*
X153760000Y-91570000D01*
G75*
G02*
X153620000Y-91710000I-140000J0D01*
G01*
X153340000Y-91710000D01*
G75*
G02*
X153200000Y-91570000I0J140000D01*
G01*
X153200000Y-91230000D01*
G75*
G02*
X153340000Y-91090000I140000J0D01*
G01*
X153620000Y-91090000D01*
G75*
G02*
X153760000Y-91230000I0J-140000D01*
G01*
G37*
G04 #@! TD.AperFunction*
G04 #@! TA.AperFunction,SMDPad,CuDef*
G36*
G01*
X152800000Y-91230000D02*
X152800000Y-91570000D01*
G75*
G02*
X152660000Y-91710000I-140000J0D01*
G01*
X152380000Y-91710000D01*
G75*
G02*
X152240000Y-91570000I0J140000D01*
G01*
X152240000Y-91230000D01*
G75*
G02*
X152380000Y-91090000I140000J0D01*
G01*
X152660000Y-91090000D01*
G75*
G02*
X152800000Y-91230000I0J-140000D01*
G01*
G37*
G04 #@! TD.AperFunction*
G04 #@! TA.AperFunction,SMDPad,CuDef*
G36*
G01*
X153660000Y-76330000D02*
X153660000Y-76670000D01*
G75*
G02*
X153520000Y-76810000I-140000J0D01*
G01*
X153240000Y-76810000D01*
G75*
G02*
X153100000Y-76670000I0J140000D01*
G01*
X153100000Y-76330000D01*
G75*
G02*
X153240000Y-76190000I140000J0D01*
G01*
X153520000Y-76190000D01*
G75*
G02*
X153660000Y-76330000I0J-140000D01*
G01*
G37*
G04 #@! TD.AperFunction*
G04 #@! TA.AperFunction,SMDPad,CuDef*
G36*
G01*
X152700000Y-76330000D02*
X152700000Y-76670000D01*
G75*
G02*
X152560000Y-76810000I-140000J0D01*
G01*
X152280000Y-76810000D01*
G75*
G02*
X152140000Y-76670000I0J140000D01*
G01*
X152140000Y-76330000D01*
G75*
G02*
X152280000Y-76190000I140000J0D01*
G01*
X152560000Y-76190000D01*
G75*
G02*
X152700000Y-76330000I0J-140000D01*
G01*
G37*
G04 #@! TD.AperFunction*
G04 #@! TA.AperFunction,SMDPad,CuDef*
G36*
G01*
X152700000Y-106030000D02*
X152700000Y-106370000D01*
G75*
G02*
X152560000Y-106510000I-140000J0D01*
G01*
X152280000Y-106510000D01*
G75*
G02*
X152140000Y-106370000I0J140000D01*
G01*
X152140000Y-106030000D01*
G75*
G02*
X152280000Y-105890000I140000J0D01*
G01*
X152560000Y-105890000D01*
G75*
G02*
X152700000Y-106030000I0J-140000D01*
G01*
G37*
G04 #@! TD.AperFunction*
G04 #@! TA.AperFunction,SMDPad,CuDef*
G36*
G01*
X153660000Y-106030000D02*
X153660000Y-106370000D01*
G75*
G02*
X153520000Y-106510000I-140000J0D01*
G01*
X153240000Y-106510000D01*
G75*
G02*
X153100000Y-106370000I0J140000D01*
G01*
X153100000Y-106030000D01*
G75*
G02*
X153240000Y-105890000I140000J0D01*
G01*
X153520000Y-105890000D01*
G75*
G02*
X153660000Y-106030000I0J-140000D01*
G01*
G37*
G04 #@! TD.AperFunction*
G04 #@! TA.AperFunction,SMDPad,CuDef*
G36*
G01*
X159420000Y-43530000D02*
X159080000Y-43530000D01*
G75*
G02*
X158940000Y-43390000I0J140000D01*
G01*
X158940000Y-43110000D01*
G75*
G02*
X159080000Y-42970000I140000J0D01*
G01*
X159420000Y-42970000D01*
G75*
G02*
X159560000Y-43110000I0J-140000D01*
G01*
X159560000Y-43390000D01*
G75*
G02*
X159420000Y-43530000I-140000J0D01*
G01*
G37*
G04 #@! TD.AperFunction*
G04 #@! TA.AperFunction,SMDPad,CuDef*
G36*
G01*
X159420000Y-44490000D02*
X159080000Y-44490000D01*
G75*
G02*
X158940000Y-44350000I0J140000D01*
G01*
X158940000Y-44070000D01*
G75*
G02*
X159080000Y-43930000I140000J0D01*
G01*
X159420000Y-43930000D01*
G75*
G02*
X159560000Y-44070000I0J-140000D01*
G01*
X159560000Y-44350000D01*
G75*
G02*
X159420000Y-44490000I-140000J0D01*
G01*
G37*
G04 #@! TD.AperFunction*
G04 #@! TA.AperFunction,SMDPad,CuDef*
G36*
G01*
X169720000Y-45420000D02*
X169720000Y-45080000D01*
G75*
G02*
X169860000Y-44940000I140000J0D01*
G01*
X170140000Y-44940000D01*
G75*
G02*
X170280000Y-45080000I0J-140000D01*
G01*
X170280000Y-45420000D01*
G75*
G02*
X170140000Y-45560000I-140000J0D01*
G01*
X169860000Y-45560000D01*
G75*
G02*
X169720000Y-45420000I0J140000D01*
G01*
G37*
G04 #@! TD.AperFunction*
G04 #@! TA.AperFunction,SMDPad,CuDef*
G36*
G01*
X170680000Y-45420000D02*
X170680000Y-45080000D01*
G75*
G02*
X170820000Y-44940000I140000J0D01*
G01*
X171100000Y-44940000D01*
G75*
G02*
X171240000Y-45080000I0J-140000D01*
G01*
X171240000Y-45420000D01*
G75*
G02*
X171100000Y-45560000I-140000J0D01*
G01*
X170820000Y-45560000D01*
G75*
G02*
X170680000Y-45420000I0J140000D01*
G01*
G37*
G04 #@! TD.AperFunction*
D20*
X168650000Y-58250000D03*
X166750000Y-58250000D03*
X167700000Y-60250000D03*
D21*
X162900000Y-58300000D03*
X162900000Y-59250000D03*
X162900000Y-60200000D03*
X165100000Y-60200000D03*
X165100000Y-58300000D03*
D14*
X167350000Y-42000000D03*
X167350000Y-45000000D03*
G04 #@! TA.AperFunction,SMDPad,CuDef*
D15*
G36*
X171300000Y-44366500D02*
G01*
X168175000Y-44366500D01*
X168175000Y-43950000D01*
X166700000Y-43950000D01*
X166700000Y-43050000D01*
X168175000Y-43050000D01*
X168175000Y-42633500D01*
X171300000Y-42633500D01*
X171300000Y-44366500D01*
G37*
G04 #@! TD.AperFunction*
G04 #@! TA.AperFunction,SMDPad,CuDef*
G36*
G01*
X170070000Y-56615000D02*
X170070000Y-56985000D01*
G75*
G02*
X169935000Y-57120000I-135000J0D01*
G01*
X169665000Y-57120000D01*
G75*
G02*
X169530000Y-56985000I0J135000D01*
G01*
X169530000Y-56615000D01*
G75*
G02*
X169665000Y-56480000I135000J0D01*
G01*
X169935000Y-56480000D01*
G75*
G02*
X170070000Y-56615000I0J-135000D01*
G01*
G37*
G04 #@! TD.AperFunction*
G04 #@! TA.AperFunction,SMDPad,CuDef*
G36*
G01*
X169050000Y-56615000D02*
X169050000Y-56985000D01*
G75*
G02*
X168915000Y-57120000I-135000J0D01*
G01*
X168645000Y-57120000D01*
G75*
G02*
X168510000Y-56985000I0J135000D01*
G01*
X168510000Y-56615000D01*
G75*
G02*
X168645000Y-56480000I135000J0D01*
G01*
X168915000Y-56480000D01*
G75*
G02*
X169050000Y-56615000I0J-135000D01*
G01*
G37*
G04 #@! TD.AperFunction*
G04 #@! TA.AperFunction,SMDPad,CuDef*
G36*
G01*
X164137500Y-56349999D02*
X164137500Y-57250001D01*
G75*
G02*
X163887501Y-57500000I-249999J0D01*
G01*
X163362499Y-57500000D01*
G75*
G02*
X163112500Y-57250001I0J249999D01*
G01*
X163112500Y-56349999D01*
G75*
G02*
X163362499Y-56100000I249999J0D01*
G01*
X163887501Y-56100000D01*
G75*
G02*
X164137500Y-56349999I0J-249999D01*
G01*
G37*
G04 #@! TD.AperFunction*
G04 #@! TA.AperFunction,SMDPad,CuDef*
G36*
G01*
X162312500Y-56349999D02*
X162312500Y-57250001D01*
G75*
G02*
X162062501Y-57500000I-249999J0D01*
G01*
X161537499Y-57500000D01*
G75*
G02*
X161287500Y-57250001I0J249999D01*
G01*
X161287500Y-56349999D01*
G75*
G02*
X161537499Y-56100000I249999J0D01*
G01*
X162062501Y-56100000D01*
G75*
G02*
X162312500Y-56349999I0J-249999D01*
G01*
G37*
G04 #@! TD.AperFunction*
G04 #@! TA.AperFunction,SMDPad,CuDef*
G36*
G01*
X164400000Y-62200001D02*
X164400000Y-61299999D01*
G75*
G02*
X164649999Y-61050000I249999J0D01*
G01*
X165175001Y-61050000D01*
G75*
G02*
X165425000Y-61299999I0J-249999D01*
G01*
X165425000Y-62200001D01*
G75*
G02*
X165175001Y-62450000I-249999J0D01*
G01*
X164649999Y-62450000D01*
G75*
G02*
X164400000Y-62200001I0J249999D01*
G01*
G37*
G04 #@! TD.AperFunction*
G04 #@! TA.AperFunction,SMDPad,CuDef*
G36*
G01*
X162575000Y-62200001D02*
X162575000Y-61299999D01*
G75*
G02*
X162824999Y-61050000I249999J0D01*
G01*
X163350001Y-61050000D01*
G75*
G02*
X163600000Y-61299999I0J-249999D01*
G01*
X163600000Y-62200001D01*
G75*
G02*
X163350001Y-62450000I-249999J0D01*
G01*
X162824999Y-62450000D01*
G75*
G02*
X162575000Y-62200001I0J249999D01*
G01*
G37*
G04 #@! TD.AperFunction*
G04 #@! TA.AperFunction,SMDPad,CuDef*
G36*
G01*
X160549999Y-58662500D02*
X161450001Y-58662500D01*
G75*
G02*
X161700000Y-58912499I0J-249999D01*
G01*
X161700000Y-59437501D01*
G75*
G02*
X161450001Y-59687500I-249999J0D01*
G01*
X160549999Y-59687500D01*
G75*
G02*
X160300000Y-59437501I0J249999D01*
G01*
X160300000Y-58912499D01*
G75*
G02*
X160549999Y-58662500I249999J0D01*
G01*
G37*
G04 #@! TD.AperFunction*
G04 #@! TA.AperFunction,SMDPad,CuDef*
G36*
G01*
X160549999Y-60487500D02*
X161450001Y-60487500D01*
G75*
G02*
X161700000Y-60737499I0J-249999D01*
G01*
X161700000Y-61262501D01*
G75*
G02*
X161450001Y-61512500I-249999J0D01*
G01*
X160549999Y-61512500D01*
G75*
G02*
X160300000Y-61262501I0J249999D01*
G01*
X160300000Y-60737499D01*
G75*
G02*
X160549999Y-60487500I249999J0D01*
G01*
G37*
G04 #@! TD.AperFunction*
D22*
X162000000Y-43400000D03*
X152300000Y-110600000D03*
X152300000Y-109100000D03*
X152500000Y-124500000D03*
X152500000Y-123000000D03*
X152500000Y-80900000D03*
X152500000Y-79400000D03*
X152900000Y-77989000D03*
X152400000Y-93400000D03*
X152400000Y-94900000D03*
X153150000Y-48050000D03*
X169000000Y-41500000D03*
X166000000Y-41250000D03*
X172000000Y-44750000D03*
X154500000Y-42250000D03*
X147500000Y-42250000D03*
X148325000Y-51925000D03*
X160000000Y-59200000D03*
X166899990Y-57000000D03*
X163300000Y-49800000D03*
X156700000Y-52600000D03*
X159230000Y-49799990D03*
X158200000Y-42900000D03*
X161125000Y-55050000D03*
X152500000Y-121800000D03*
X151600000Y-63600000D03*
X147200000Y-62300000D03*
X148200000Y-63300000D03*
X139000000Y-58000000D03*
X156825000Y-61450000D03*
X153800000Y-62000000D03*
X143300000Y-63000000D03*
X164100000Y-64800000D03*
X165400000Y-64800000D03*
X169000000Y-53200000D03*
X168400000Y-54300000D03*
X165500000Y-43900000D03*
X159900000Y-57200000D03*
X177150000Y-46250000D03*
X177200000Y-43900000D03*
X174250000Y-45250000D03*
X173500000Y-41350000D03*
X171900000Y-41350000D03*
X170450000Y-41350000D03*
X154350000Y-48000000D03*
X142400000Y-62000000D03*
X137500000Y-58000000D03*
X137500000Y-55000000D03*
X134500000Y-55000000D03*
X173500000Y-54000000D03*
X172000000Y-55500000D03*
X173500000Y-55500000D03*
X172000000Y-57000000D03*
X150975000Y-62325000D03*
X170375000Y-47125000D03*
X174340310Y-50044763D03*
X166059302Y-59281387D03*
X156600000Y-51500000D03*
X163199990Y-47400010D03*
X156500000Y-65400000D03*
X151250000Y-58175021D03*
X145816727Y-46850000D03*
X157000000Y-42521008D03*
X156999984Y-43750000D03*
X155000000Y-59274990D03*
X141200000Y-54300000D03*
X156738014Y-45852771D03*
X169400000Y-48900000D03*
X168700000Y-55500000D03*
X163100000Y-50900000D03*
X148000000Y-102000000D03*
X148000000Y-100500000D03*
X148000000Y-99000000D03*
X148000000Y-97500000D03*
X148000000Y-103500000D03*
X149300000Y-64100000D03*
X148000000Y-109500000D03*
X148000000Y-108000000D03*
X148000000Y-106500000D03*
X148000000Y-105000000D03*
X146775000Y-59875000D03*
X148000000Y-117000000D03*
X148000000Y-118500000D03*
X148000000Y-124500000D03*
X148000000Y-123000000D03*
X148000000Y-121500000D03*
X148000000Y-120000000D03*
X148000000Y-115500000D03*
X148000000Y-114000000D03*
X148000000Y-112500000D03*
X158000000Y-88500000D03*
X156500000Y-81400000D03*
X143100000Y-58275002D03*
X161500000Y-63700000D03*
X156900000Y-59000000D03*
X158000000Y-94500000D03*
X158000000Y-93000000D03*
X158000000Y-91500000D03*
X158000000Y-90000000D03*
X158000000Y-87000000D03*
X158000000Y-85500000D03*
X158000000Y-84000000D03*
X158000000Y-82500000D03*
X148000000Y-82500000D03*
X148000000Y-88500000D03*
X147892000Y-81300000D03*
X148000000Y-94500000D03*
X148000000Y-93000000D03*
X148000000Y-91500000D03*
X148000000Y-90000000D03*
X148000000Y-87000000D03*
X148000000Y-85500000D03*
X148000000Y-84000000D03*
X145725000Y-59850000D03*
X158000000Y-117000000D03*
X158000000Y-118500000D03*
X156500000Y-58000034D03*
X158000000Y-124500000D03*
X158000000Y-123000000D03*
X158000000Y-121500000D03*
X158000000Y-120000000D03*
X158000000Y-115500000D03*
X158000000Y-114000000D03*
X158000000Y-112500000D03*
X142325010Y-57329173D03*
X158000000Y-103500000D03*
X156500000Y-96400000D03*
X153875000Y-68500000D03*
X158000000Y-109500000D03*
X158000000Y-108000000D03*
X158000000Y-106500000D03*
X158000000Y-105000000D03*
X158000000Y-102000000D03*
X158000000Y-100500000D03*
X158000000Y-99000000D03*
X158000000Y-97500000D03*
X158000000Y-73500000D03*
X156900000Y-60100000D03*
X158000000Y-79500000D03*
X158000000Y-78000000D03*
X158000000Y-76500000D03*
X158000000Y-75000000D03*
X158000000Y-72000000D03*
X158000000Y-70500000D03*
X158000000Y-69000000D03*
X158000000Y-67500000D03*
X142382416Y-54750010D03*
X148000000Y-73500000D03*
X141800000Y-59500000D03*
X156500000Y-56950021D03*
X144800000Y-64100000D03*
X148000000Y-67500000D03*
X148000000Y-69000000D03*
X148000000Y-70500000D03*
X148000000Y-72000000D03*
X148000000Y-75000000D03*
X148000000Y-76500000D03*
X148000000Y-78000000D03*
X148000000Y-79500000D03*
X142229804Y-56069363D03*
X159750000Y-46050000D03*
X151500000Y-52250000D03*
X146800000Y-52250000D03*
X166000000Y-48317068D03*
X159727624Y-48022376D03*
X154550000Y-52950000D03*
X166200000Y-49500000D03*
X145695001Y-53195001D03*
X160200000Y-50600000D03*
X155690423Y-54219320D03*
X160250000Y-47000000D03*
X148100000Y-53900000D03*
X155034977Y-58175021D03*
X160200000Y-52200000D03*
X151484984Y-54465000D03*
X152500000Y-99500000D03*
X162700000Y-54274998D03*
X163800000Y-54450000D03*
X152700000Y-84400000D03*
X164850003Y-54450000D03*
X152300000Y-70300000D03*
X165900006Y-54450000D03*
X153650000Y-114550000D03*
X165500000Y-46000000D03*
X150038697Y-50761309D03*
X164250000Y-46000000D03*
X148711361Y-50749568D03*
D23*
X149750000Y-42750000D02*
X149750000Y-44250000D01*
X150500000Y-41750000D02*
X149823692Y-41750000D01*
X151015000Y-42265000D02*
X150500000Y-41750000D01*
X151015000Y-44170000D02*
X151015000Y-42265000D01*
D24*
X153555000Y-48312000D02*
X153309000Y-48066000D01*
X153555000Y-49570000D02*
X153555000Y-48312000D01*
X149870000Y-53195000D02*
X149870000Y-51925000D01*
D25*
X167350000Y-42000000D02*
X168500000Y-42000000D01*
X168500000Y-42000000D02*
X169000000Y-41500000D01*
X166750000Y-42000000D02*
X166000000Y-41250000D01*
X167350000Y-42000000D02*
X166750000Y-42000000D01*
D23*
X172000000Y-43684500D02*
X172000000Y-44750000D01*
X154040000Y-41790000D02*
X154500000Y-42250000D01*
X153500000Y-41790000D02*
X154040000Y-41790000D01*
X148500000Y-41750000D02*
X148386308Y-41750000D01*
X148000000Y-41750000D02*
X147500000Y-42250000D01*
X148386308Y-41750000D02*
X148000000Y-41750000D01*
D24*
X159250000Y-43250000D02*
X159750000Y-43250000D01*
X159750000Y-43250000D02*
X160000000Y-43500000D01*
X160000000Y-43500000D02*
X161000000Y-43500000D01*
D23*
X149870000Y-51925000D02*
X148325000Y-51925000D01*
X161500000Y-59240000D02*
X162990000Y-59240000D01*
X162990000Y-59240000D02*
X162980000Y-59250000D01*
X172813040Y-51900240D02*
X174099760Y-51900240D01*
X174099760Y-51900240D02*
X174250000Y-51750000D01*
X160030002Y-59240000D02*
X160020002Y-59250000D01*
X160750000Y-59240000D02*
X160030002Y-59240000D01*
D24*
X166750000Y-58250000D02*
X166750000Y-57149990D01*
X166750000Y-57149990D02*
X166899990Y-57000000D01*
D23*
X163270000Y-49830000D02*
X163300000Y-49800000D01*
X161690000Y-49830000D02*
X163270000Y-49830000D01*
X170960000Y-45250000D02*
X170960000Y-45360000D01*
X170960000Y-45360000D02*
X171200000Y-45600000D01*
X171200000Y-45600000D02*
X171200000Y-46300000D01*
X172945000Y-47611500D02*
X172811500Y-47611500D01*
X172811500Y-47611500D02*
X171500000Y-46300000D01*
X171500000Y-46300000D02*
X171200000Y-46300000D01*
X172000000Y-44750000D02*
X172000000Y-45400000D01*
X171800000Y-45600000D02*
X171200000Y-45600000D01*
X172000000Y-45400000D02*
X171800000Y-45600000D01*
D24*
X159120000Y-53195000D02*
X159115590Y-53190590D01*
X160559998Y-49774998D02*
X159074998Y-49774998D01*
X161690000Y-49830000D02*
X160615000Y-49830000D01*
D26*
X159000000Y-49569990D02*
X159230000Y-49799990D01*
X159000000Y-49000000D02*
X159000000Y-49569990D01*
D24*
X159074998Y-49774998D02*
X159000000Y-49700000D01*
X160615000Y-49830000D02*
X160559998Y-49774998D01*
D23*
X158550000Y-43250000D02*
X158200000Y-42900000D01*
X159250000Y-43250000D02*
X158550000Y-43250000D01*
D24*
X152520000Y-120900000D02*
X152520000Y-120420000D01*
X152349760Y-120249760D02*
X152520000Y-120420000D01*
X152349760Y-119363040D02*
X152349760Y-120249760D01*
X152520000Y-121780000D02*
X152500000Y-121800000D01*
X152520000Y-120900000D02*
X152520000Y-121780000D01*
D23*
X153000000Y-116436960D02*
X152436960Y-116436960D01*
X152436960Y-116436960D02*
X152400000Y-116400000D01*
X152349760Y-116436960D02*
X152349760Y-114849760D01*
X152960000Y-101696960D02*
X152303040Y-101696960D01*
X151849760Y-119363040D02*
X151339990Y-118853270D01*
X152349760Y-119363040D02*
X151849760Y-119363040D01*
X152950000Y-86896960D02*
X152303040Y-86896960D01*
X152955500Y-72096960D02*
X152303040Y-72096960D01*
X152420000Y-106200000D02*
X152420000Y-105620000D01*
X152420000Y-105620000D02*
X152300000Y-105500000D01*
X152300000Y-105500000D02*
X152300000Y-104800000D01*
X152520000Y-91400000D02*
X152520000Y-90920000D01*
X152520000Y-90920000D02*
X152300000Y-90700000D01*
X152300000Y-90700000D02*
X152300000Y-89800000D01*
X152300000Y-75960000D02*
X152300000Y-75300000D01*
X152420000Y-76080000D02*
X152300000Y-75960000D01*
X152420000Y-76500000D02*
X152420000Y-76080000D01*
X151752790Y-101639990D02*
X151339990Y-101639990D01*
X151809760Y-101696960D02*
X151752790Y-101639990D01*
X152309760Y-101696960D02*
X151809760Y-101696960D01*
X151339990Y-118853270D02*
X151339990Y-101639990D01*
X151403040Y-72096960D02*
X151339990Y-72160010D01*
X152305260Y-72096960D02*
X151403040Y-72096960D01*
X151339990Y-72160010D02*
X151339990Y-69160010D01*
X151339990Y-72460010D02*
X151339990Y-72160010D01*
X152305260Y-75023040D02*
X151456940Y-75023040D01*
X151456940Y-75023040D02*
X151339990Y-75139990D01*
X151339990Y-75139990D02*
X151339990Y-72460010D01*
X151339990Y-101639990D02*
X151339990Y-75139990D01*
X151339990Y-69160010D02*
X151339990Y-68660010D01*
X151339990Y-63860010D02*
X151600000Y-63600000D01*
X151339990Y-64060010D02*
X151339990Y-63860010D01*
X151339990Y-68660010D02*
X151339990Y-64060010D01*
D24*
X169686960Y-51250000D02*
X169686960Y-52086960D01*
D23*
X177000000Y-43900000D02*
X177200000Y-43900000D01*
X176750000Y-43650000D02*
X177000000Y-43900000D01*
X174325000Y-43975000D02*
X174650000Y-43650000D01*
X174250000Y-45250000D02*
X174325000Y-43975000D01*
X174650000Y-43650000D02*
X176750000Y-43650000D01*
X156800000Y-52600000D02*
X156700000Y-52600000D01*
X157475000Y-51925000D02*
X156800000Y-52600000D01*
X158620000Y-51925000D02*
X157475000Y-51925000D01*
X157900000Y-51550000D02*
X157900000Y-51900000D01*
X156250000Y-50210000D02*
X156560000Y-50210000D01*
X157675000Y-51325000D02*
X157675000Y-51875000D01*
X156560000Y-50210000D02*
X157675000Y-51325000D01*
X157675000Y-51325000D02*
X157900000Y-51550000D01*
X157675000Y-51875000D02*
X157700000Y-51900000D01*
X163775000Y-59250000D02*
X164025000Y-59000000D01*
X162900000Y-59250000D02*
X163775000Y-59250000D01*
X164025000Y-59000000D02*
X164025000Y-56725000D01*
X151339990Y-62689990D02*
X150975000Y-62325000D01*
X151339990Y-64060010D02*
X151339990Y-62689990D01*
X153555000Y-49943165D02*
X153555000Y-49570000D01*
X156700000Y-52600000D02*
X156211835Y-52600000D01*
X156211835Y-52600000D02*
X153555000Y-49943165D01*
X153500000Y-42750000D02*
X153500000Y-44250000D01*
X148475000Y-44170000D02*
X148475000Y-42775000D01*
D24*
X171250000Y-47277500D02*
X170527500Y-47277500D01*
X165100000Y-58300000D02*
X165100000Y-57100000D01*
X165100000Y-57100000D02*
X165000000Y-57000000D01*
D23*
X170527500Y-47277500D02*
X170375000Y-47125000D01*
D24*
X168750000Y-45000000D02*
X167250000Y-45000000D01*
X169000000Y-45250000D02*
X168750000Y-45000000D01*
X169000000Y-45750000D02*
X169000000Y-45250000D01*
X170375000Y-47125000D02*
X169000000Y-45750000D01*
D23*
X172813040Y-50599760D02*
X174099760Y-50599760D01*
X174099760Y-50599760D02*
X174250000Y-50750000D01*
X174250000Y-50135073D02*
X174340310Y-50044763D01*
X174250000Y-50750000D02*
X174250000Y-50135073D01*
X165100000Y-58300000D02*
X165100000Y-58925000D01*
X165456387Y-59281387D02*
X166059302Y-59281387D01*
X165100000Y-58925000D02*
X165456387Y-59281387D01*
X156250000Y-49250000D02*
X154850000Y-49250000D01*
X154850000Y-49250000D02*
X154800000Y-49300000D01*
D24*
X160104987Y-49174987D02*
X160000000Y-49070000D01*
X160844534Y-49174987D02*
X160104987Y-49174987D01*
X160849547Y-49180000D02*
X160844534Y-49174987D01*
X161690000Y-49180000D02*
X160849547Y-49180000D01*
X163199990Y-48665675D02*
X163199990Y-47400010D01*
X162685665Y-49180000D02*
X163199990Y-48665675D01*
D25*
X163750000Y-45000000D02*
X163199990Y-45550010D01*
X163199990Y-45550010D02*
X163199990Y-47400010D01*
X167350000Y-45000000D02*
X163750000Y-45000000D01*
D24*
X161690000Y-49180000D02*
X162685665Y-49180000D01*
D23*
X153650240Y-119363040D02*
X153650240Y-120649760D01*
X153650240Y-120649760D02*
X153400000Y-120900000D01*
D24*
X153610240Y-104623040D02*
X153610240Y-105989760D01*
X153610240Y-105989760D02*
X153400000Y-106200000D01*
X153600240Y-89823040D02*
X153600240Y-91299760D01*
X154136960Y-119363040D02*
X153636960Y-119363040D01*
X154700000Y-118800000D02*
X154136960Y-119363040D01*
X154700000Y-107208483D02*
X154700000Y-118800000D01*
X153568483Y-107208483D02*
X154700000Y-107208483D01*
X153380000Y-107020000D02*
X153568483Y-107208483D01*
X153380000Y-106200000D02*
X153380000Y-107020000D01*
X154700000Y-91400000D02*
X154700000Y-107208483D01*
X153480000Y-91400000D02*
X154700000Y-91400000D01*
X154700000Y-91400000D02*
X154700000Y-76500000D01*
D23*
X153380000Y-76500000D02*
X154700000Y-76500000D01*
X153605740Y-76494260D02*
X153600000Y-76500000D01*
X153605740Y-75023040D02*
X153605740Y-76494260D01*
D24*
X154700000Y-66634315D02*
X155934315Y-65400000D01*
X154700000Y-76500000D02*
X154700000Y-66634315D01*
X155934315Y-65400000D02*
X156500000Y-65400000D01*
D23*
X154900000Y-50000000D02*
X154900000Y-49600000D01*
X156400000Y-51500000D02*
X154900000Y-50000000D01*
X156600000Y-51500000D02*
X156400000Y-51500000D01*
X154884001Y-44115999D02*
X154750000Y-44250000D01*
X155300001Y-42634001D02*
X154884001Y-43050001D01*
X155300001Y-41865999D02*
X155300001Y-42634001D01*
X154543992Y-41109990D02*
X155300001Y-41865999D01*
X152860010Y-41109990D02*
X154543992Y-41109990D01*
X152250000Y-41720000D02*
X152860010Y-41109990D01*
X154884001Y-43050001D02*
X154884001Y-44115999D01*
X152250000Y-41790000D02*
X152250000Y-41720000D01*
X152285000Y-44170000D02*
X152285000Y-42785000D01*
D24*
X153220000Y-60815000D02*
X152770000Y-60815000D01*
X170000000Y-45250000D02*
X170000000Y-43500000D01*
D23*
X157980000Y-46000000D02*
X157980000Y-47980000D01*
X157980000Y-47980000D02*
X158000000Y-48000000D01*
X149870000Y-58275000D02*
X151150021Y-58275000D01*
X151150021Y-58275000D02*
X151250000Y-58175021D01*
D24*
X145900000Y-47000000D02*
X145700000Y-46800000D01*
X155480000Y-47000000D02*
X145900000Y-47000000D01*
X145766727Y-46800000D02*
X145816727Y-46850000D01*
X145700000Y-46800000D02*
X145766727Y-46800000D01*
X154450000Y-46850000D02*
X154600000Y-47000000D01*
X145816727Y-46850000D02*
X154450000Y-46850000D01*
D27*
X157000000Y-43749984D02*
X156999984Y-43750000D01*
X157000000Y-42521008D02*
X157000000Y-43749984D01*
D23*
X155000000Y-60300000D02*
X155000000Y-59274990D01*
X154550000Y-60750000D02*
X155000000Y-60300000D01*
X153250000Y-60750000D02*
X154550000Y-60750000D01*
D24*
X141700000Y-53100000D02*
X141700000Y-53800000D01*
X140800001Y-59700001D02*
X140800001Y-54699999D01*
X141900000Y-60800000D02*
X140800001Y-59700001D01*
X140800001Y-54699999D02*
X141200000Y-54300000D01*
X141700000Y-53800000D02*
X141200000Y-54300000D01*
X144600000Y-60800000D02*
X141900000Y-60800000D01*
D23*
X141700000Y-53100000D02*
X141700000Y-52100000D01*
D27*
X157771008Y-41750000D02*
X157000000Y-42521008D01*
X165000000Y-41750000D02*
X157771008Y-41750000D01*
X169000000Y-43500000D02*
X166750000Y-43500000D01*
X169900000Y-42600000D02*
X169000000Y-43500000D01*
X175689000Y-42600000D02*
X169900000Y-42600000D01*
X166750000Y-43500000D02*
X165000000Y-41750000D01*
X175895000Y-42394000D02*
X175689000Y-42600000D01*
D23*
X155480000Y-46943380D02*
X156570609Y-45852771D01*
X155480000Y-48000000D02*
X155480000Y-46943380D01*
X157980000Y-46000000D02*
X156885243Y-46000000D01*
X156885243Y-46000000D02*
X156738014Y-45852771D01*
X156570609Y-45852771D02*
X156738014Y-45852771D01*
D24*
X148425000Y-58275000D02*
X149870000Y-58275000D01*
X147600000Y-59100000D02*
X148425000Y-58275000D01*
X147600000Y-60325000D02*
X147600000Y-59100000D01*
X147110000Y-60815000D02*
X147600000Y-60325000D01*
X144470000Y-60815000D02*
X147110000Y-60815000D01*
X173500000Y-44750000D02*
X173500000Y-43750000D01*
X172945000Y-45305000D02*
X173500000Y-44750000D01*
X172945000Y-46036500D02*
X172945000Y-45305000D01*
X175260000Y-47474000D02*
X175895000Y-47474000D01*
X174119000Y-49250000D02*
X175895000Y-47474000D01*
X170000000Y-49250000D02*
X174119000Y-49250000D01*
X167590000Y-48530000D02*
X169280000Y-48530000D01*
X175895000Y-47474000D02*
X176121000Y-47700000D01*
D23*
X169475000Y-48825000D02*
X169400000Y-48900000D01*
X169475000Y-48725000D02*
X169475000Y-48825000D01*
D24*
X169280000Y-48530000D02*
X169475000Y-48725000D01*
X169475000Y-48725000D02*
X170000000Y-49250000D01*
D23*
X168700000Y-55600000D02*
X168700000Y-55500000D01*
X169800000Y-56700000D02*
X168700000Y-55600000D01*
D24*
X175045001Y-45783999D02*
X175895000Y-44934000D01*
X174371000Y-46458000D02*
X175045001Y-45783999D01*
X174371000Y-48109000D02*
X174371000Y-46458000D01*
X173980000Y-48500000D02*
X174371000Y-48109000D01*
X170250000Y-48500000D02*
X173980000Y-48500000D01*
X169630000Y-47880000D02*
X170250000Y-48500000D01*
X167590000Y-47880000D02*
X169630000Y-47880000D01*
D23*
X161690000Y-50480000D02*
X162680000Y-50480000D01*
X162680000Y-50480000D02*
X163100000Y-50900000D01*
X150200000Y-95200000D02*
X150200000Y-94149990D01*
X149500000Y-95900000D02*
X150200000Y-95200000D01*
X149500000Y-97600000D02*
X149500000Y-95900000D01*
X148500000Y-98600000D02*
X149500000Y-97600000D01*
X148500000Y-103500000D02*
X148500000Y-98600000D01*
X150200000Y-94149990D02*
X150200001Y-75700000D01*
X153220000Y-57005000D02*
X152170000Y-57005000D01*
X153420000Y-57005000D02*
X149870000Y-57005000D01*
X150200001Y-75700000D02*
X150200001Y-70399999D01*
X150200001Y-70399999D02*
X150200001Y-70200000D01*
X150200001Y-65000001D02*
X149300000Y-64100000D01*
X150200001Y-70399999D02*
X150200001Y-65000001D01*
D24*
X146775000Y-58125000D02*
X146775000Y-59875000D01*
X147895000Y-57005000D02*
X146775000Y-58125000D01*
X149870000Y-57005000D02*
X147895000Y-57005000D01*
X149870000Y-59545000D02*
X148955000Y-59545000D01*
D23*
X151100000Y-59500000D02*
X149750000Y-59500000D01*
X152325000Y-58275000D02*
X151100000Y-59500000D01*
X153220000Y-58275000D02*
X152325000Y-58275000D01*
X150017000Y-117820000D02*
X148717000Y-117820000D01*
X150750011Y-117086989D02*
X150017000Y-117820000D01*
X148500010Y-61800010D02*
X150750011Y-64050011D01*
X150750011Y-64050011D02*
X150750011Y-117086989D01*
X148555000Y-59545000D02*
X148175010Y-59924990D01*
X148755000Y-59545000D02*
X148555000Y-59545000D01*
X148175010Y-61475010D02*
X148500010Y-61800010D01*
X148175010Y-59924990D02*
X148175010Y-61475010D01*
X156500000Y-87490000D02*
X156500000Y-81400000D01*
X157510000Y-88500000D02*
X156500000Y-87490000D01*
D24*
X144470000Y-58275000D02*
X143100002Y-58275000D01*
X143100002Y-58275000D02*
X143100000Y-58275002D01*
X160450000Y-63700000D02*
X161500000Y-63700000D01*
X159624990Y-60124990D02*
X159624990Y-62874990D01*
X159045000Y-59545000D02*
X159624990Y-60124990D01*
X157645000Y-59545000D02*
X159045000Y-59545000D01*
X159624990Y-62874990D02*
X160450000Y-63700000D01*
X157100000Y-59000000D02*
X157645000Y-59545000D01*
X156900000Y-59000000D02*
X157100000Y-59000000D01*
X147900000Y-81873685D02*
X147900000Y-82800000D01*
X147892000Y-81300000D02*
X147900000Y-81308000D01*
X147900000Y-81308000D02*
X147900000Y-81873685D01*
D23*
X149670000Y-55735000D02*
X153220000Y-55735000D01*
X149870000Y-55735000D02*
X150920000Y-55735000D01*
D24*
X145725000Y-57375000D02*
X145725000Y-59850000D01*
X147365000Y-55735000D02*
X145725000Y-57375000D01*
X149870000Y-55735000D02*
X147365000Y-55735000D01*
X155974998Y-58525036D02*
X156500000Y-58000034D01*
X155974998Y-60525002D02*
X155974998Y-58525036D01*
D23*
X157346000Y-65846000D02*
X157346000Y-64946000D01*
X156792001Y-66400000D02*
X157346000Y-65846000D01*
X155900000Y-66400000D02*
X156792001Y-66400000D01*
X155275010Y-67024990D02*
X155900000Y-66400000D01*
X155275010Y-117175010D02*
X155275010Y-67024990D01*
X155974998Y-63574998D02*
X155974998Y-60525002D01*
X155829000Y-117729000D02*
X155275010Y-117175010D01*
X157346000Y-64946000D02*
X155974998Y-63574998D01*
X157226000Y-117729000D02*
X155829000Y-117729000D01*
D24*
X142649183Y-57005000D02*
X142325010Y-57329173D01*
X144470000Y-57005000D02*
X142649183Y-57005000D01*
X156699966Y-58000034D02*
X156500000Y-58000034D01*
X157695000Y-57005000D02*
X156699966Y-58000034D01*
X158620000Y-57005000D02*
X157695000Y-57005000D01*
D23*
X150405000Y-60815000D02*
X149670000Y-60815000D01*
X150920000Y-60815000D02*
X149870000Y-60815000D01*
X157099000Y-103500000D02*
X156500000Y-102901000D01*
X156500000Y-102901000D02*
X156500000Y-96400000D01*
X151515000Y-60815000D02*
X150920000Y-60815000D01*
X150985000Y-60815000D02*
X150920000Y-60815000D01*
X153220000Y-59545000D02*
X152255000Y-59545000D01*
X151515000Y-60815000D02*
X151515000Y-60315000D01*
X151515000Y-60315000D02*
X151500000Y-60300000D01*
X152255000Y-59545000D02*
X151500000Y-60300000D01*
X151515000Y-61140000D02*
X151515000Y-60815000D01*
X152375000Y-62000000D02*
X151515000Y-61140000D01*
X152700000Y-62325000D02*
X152375000Y-62000000D01*
X152700000Y-67325000D02*
X152700000Y-62325000D01*
X153875000Y-68500000D02*
X152700000Y-67325000D01*
D24*
X158620000Y-60815000D02*
X157615000Y-60815000D01*
X157615000Y-60815000D02*
X156900000Y-60100000D01*
X158000000Y-72900000D02*
X157400000Y-73500000D01*
X158800000Y-65252595D02*
X158000000Y-66052595D01*
X158000000Y-66052595D02*
X158000000Y-67500000D01*
X158800000Y-60800000D02*
X158800000Y-65252595D01*
X158000000Y-72000000D02*
X158000000Y-72900000D01*
X158000000Y-70500000D02*
X158000000Y-72000000D01*
X158000000Y-69000000D02*
X158000000Y-70500000D01*
X158000000Y-67500000D02*
X158000000Y-69000000D01*
X142550010Y-54750010D02*
X142382416Y-54750010D01*
X143550000Y-55750000D02*
X142550010Y-54750010D01*
X144500000Y-55750000D02*
X143550000Y-55750000D01*
X141800000Y-59500000D02*
X144500000Y-59500000D01*
X157715021Y-55735000D02*
X156500000Y-56950021D01*
X158620000Y-55735000D02*
X157715021Y-55735000D01*
X146900000Y-64700000D02*
X146700000Y-64700000D01*
X148000000Y-65800000D02*
X146900000Y-64700000D01*
X148000000Y-72490000D02*
X148000000Y-72000000D01*
X149010000Y-73500000D02*
X148000000Y-72490000D01*
D23*
X145400000Y-64700000D02*
X146700000Y-64700000D01*
X144800000Y-64100000D02*
X145400000Y-64700000D01*
D24*
X148000000Y-67500000D02*
X148000000Y-65800000D01*
X148000000Y-69000000D02*
X148000000Y-67500000D01*
X148000000Y-70500000D02*
X148000000Y-69000000D01*
X148000000Y-72000000D02*
X148000000Y-70500000D01*
X141500000Y-56799167D02*
X142229804Y-56069363D01*
X141500000Y-59200000D02*
X141500000Y-56799167D01*
X141800000Y-59500000D02*
X141500000Y-59200000D01*
D23*
X162900000Y-58300000D02*
X162750000Y-58150000D01*
X162975000Y-58275000D02*
X163000000Y-58250000D01*
X162575000Y-58300000D02*
X162600000Y-58300000D01*
X162575000Y-57575000D02*
X162575000Y-58300000D01*
X161800000Y-56800000D02*
X162575000Y-57575000D01*
X162350000Y-58150000D02*
X162475000Y-58275000D01*
X158995000Y-58150000D02*
X162350000Y-58150000D01*
X158870000Y-58275000D02*
X158995000Y-58150000D01*
X167590000Y-53080000D02*
X167570000Y-53100000D01*
X167300000Y-53100000D02*
X167200000Y-53200000D01*
X167570000Y-53100000D02*
X167300000Y-53100000D01*
X165250000Y-62000000D02*
X165250000Y-61500000D01*
X165000000Y-62250000D02*
X165250000Y-62000000D01*
X164912500Y-61750000D02*
X164912500Y-60337500D01*
X164912500Y-60337500D02*
X165000000Y-60250000D01*
X167100000Y-55784006D02*
X167100000Y-53700000D01*
X167700000Y-56384006D02*
X167100000Y-55784006D01*
X167700000Y-58784002D02*
X167700000Y-56384006D01*
X166284002Y-60200000D02*
X167700000Y-58784002D01*
X165100000Y-60200000D02*
X166284002Y-60200000D01*
X167100000Y-53700000D02*
X167700000Y-53100000D01*
X163000000Y-61500000D02*
X163000000Y-62035000D01*
X162900000Y-60200000D02*
X162900000Y-61650000D01*
X162900000Y-61650000D02*
X163000000Y-61750000D01*
X163087500Y-61750000D02*
X163087500Y-62712500D01*
X163087500Y-62712500D02*
X163625000Y-63250000D01*
X163625000Y-63250000D02*
X165475000Y-63250000D01*
X165475000Y-63250000D02*
X166475000Y-62250000D01*
X166475000Y-62250000D02*
X166475000Y-61525000D01*
X161925000Y-60250000D02*
X163000000Y-60250000D01*
X161175000Y-61000000D02*
X161925000Y-60250000D01*
X161000000Y-61000000D02*
X161175000Y-61000000D01*
D24*
X161729999Y-46729999D02*
X161729999Y-47229999D01*
X161000000Y-46000000D02*
X161729999Y-46729999D01*
X159750000Y-46000000D02*
X161000000Y-46000000D01*
D23*
X159750000Y-46000000D02*
X159000000Y-46000000D01*
X159750000Y-46000000D02*
X159750000Y-46050000D01*
D24*
X151500000Y-53075000D02*
X150075000Y-54500000D01*
X150075000Y-54500000D02*
X149750000Y-54500000D01*
X151500000Y-52250000D02*
X151500000Y-53075000D01*
D23*
X151500000Y-51684315D02*
X151500000Y-52250000D01*
X151984315Y-51200000D02*
X151500000Y-51684315D01*
X158620000Y-54465000D02*
X157299002Y-54465000D01*
X157299002Y-54465000D02*
X154034002Y-51200000D01*
X154034002Y-51200000D02*
X151984315Y-51200000D01*
X146675000Y-51925000D02*
X147000000Y-52250000D01*
X144470000Y-51925000D02*
X146675000Y-51925000D01*
X144470000Y-51925000D02*
X142875000Y-51925000D01*
X142875000Y-51925000D02*
X142700000Y-52100000D01*
X166565000Y-47230000D02*
X166000000Y-47795000D01*
X166000000Y-47795000D02*
X166000000Y-48317068D01*
X167590000Y-47230000D02*
X166565000Y-47230000D01*
X160563692Y-48530000D02*
X160033692Y-48000000D01*
X161690000Y-48530000D02*
X160563692Y-48530000D01*
X159750000Y-48000000D02*
X159727624Y-48022376D01*
X159010000Y-48000000D02*
X159750000Y-48000000D01*
X159750000Y-48000000D02*
X160033692Y-48000000D01*
D24*
X153370000Y-51925000D02*
X154260693Y-52815693D01*
D23*
X167590000Y-49180000D02*
X166520000Y-49180000D01*
X166520000Y-49180000D02*
X166200000Y-49500000D01*
X144470000Y-53195000D02*
X142795000Y-53195000D01*
X144470000Y-53195000D02*
X145520001Y-53195001D01*
X145520001Y-53195001D02*
X145895001Y-53195001D01*
D24*
X161690000Y-51130000D02*
X160730000Y-51130000D01*
X160730000Y-51130000D02*
X160200000Y-50600000D01*
D23*
X158815998Y-50600000D02*
X160200000Y-50600000D01*
X158200001Y-49984003D02*
X158815998Y-50600000D01*
X157634689Y-48720010D02*
X158200001Y-49285322D01*
X157100000Y-47000000D02*
X157319990Y-47219990D01*
X157319990Y-48406610D02*
X157633390Y-48720010D01*
X156500000Y-47000000D02*
X157100000Y-47000000D01*
X157633390Y-48720010D02*
X157634689Y-48720010D01*
X158200001Y-49285322D02*
X158200001Y-49984003D01*
X157319990Y-47219990D02*
X157319990Y-48406610D01*
D24*
X154519320Y-54219320D02*
X155690423Y-54219320D01*
X153495000Y-53195000D02*
X154519320Y-54219320D01*
X153220000Y-53195000D02*
X153495000Y-53195000D01*
D23*
X161690000Y-47880000D02*
X160716620Y-47880000D01*
X159836620Y-47000000D02*
X159000000Y-47000000D01*
X159836620Y-47000000D02*
X160250000Y-47000000D01*
X147735000Y-54465000D02*
X148300000Y-53900000D01*
X144470000Y-54465000D02*
X147735000Y-54465000D01*
X160250000Y-47413380D02*
X160268310Y-47431690D01*
X160250000Y-47000000D02*
X160250000Y-47413380D01*
X160268310Y-47431690D02*
X159836620Y-47000000D01*
X160716620Y-47880000D02*
X160268310Y-47431690D01*
D24*
X152770000Y-54465000D02*
X153220000Y-54465000D01*
X160620000Y-51780000D02*
X160200000Y-52200000D01*
X161690000Y-51780000D02*
X160620000Y-51780000D01*
D23*
X158400000Y-51200000D02*
X159665002Y-51200000D01*
X159665002Y-51200000D02*
X160432501Y-51967499D01*
X157649990Y-50449990D02*
X158400000Y-51200000D01*
X157649990Y-49514443D02*
X157649990Y-50449990D01*
X156500000Y-48364453D02*
X157649990Y-49514443D01*
X160432501Y-51967499D02*
X160200000Y-52200000D01*
X156500000Y-48000000D02*
X156500000Y-48364453D01*
D24*
X155034977Y-55634977D02*
X155034977Y-58175021D01*
X153865000Y-54465000D02*
X155034977Y-55634977D01*
X153220000Y-54465000D02*
X153865000Y-54465000D01*
D26*
X152920000Y-54465000D02*
X151484984Y-54465000D01*
D23*
X162700000Y-54022168D02*
X162700000Y-54600000D01*
X166242168Y-50480000D02*
X162700000Y-54022168D01*
X167590000Y-50480000D02*
X166242168Y-50480000D01*
X153610000Y-101696960D02*
X153610000Y-100610000D01*
X153610000Y-100610000D02*
X152500000Y-99500000D01*
X162700000Y-54050000D02*
X162700000Y-54274998D01*
X152900000Y-84400000D02*
X152700000Y-84400000D01*
X153600000Y-85100000D02*
X152900000Y-84400000D01*
X153600000Y-86896960D02*
X153600000Y-85100000D01*
X166370000Y-51130000D02*
X167590000Y-51130000D01*
X163800000Y-53700000D02*
X166370000Y-51130000D01*
X163800000Y-54450000D02*
X163800000Y-53700000D01*
X153400000Y-70300000D02*
X152300000Y-70300000D01*
X153605500Y-70505500D02*
X153400000Y-70300000D01*
X153605500Y-72096960D02*
X153605500Y-70505500D01*
X164850000Y-54449997D02*
X164850003Y-54450000D01*
X164850000Y-53427830D02*
X164850000Y-54449997D01*
X166497830Y-51780000D02*
X164850000Y-53427830D01*
X167590000Y-51780000D02*
X166497830Y-51780000D01*
X166670000Y-52430000D02*
X165900006Y-53199994D01*
X167590000Y-52430000D02*
X166670000Y-52430000D01*
X153650000Y-116436960D02*
X153650000Y-114550000D01*
X165900006Y-53199994D02*
X165900006Y-54450000D01*
X167590000Y-49830000D02*
X169580000Y-49830000D01*
X169686960Y-49936960D02*
X169580000Y-49830000D01*
X169686960Y-50600000D02*
X169686960Y-49936960D01*
D26*
X159250000Y-45000000D02*
X160750000Y-45000000D01*
D24*
X159250000Y-44210000D02*
X159250000Y-45000000D01*
D27*
X145425000Y-45800000D02*
X155195996Y-45800000D01*
X144750000Y-45125000D02*
X145425000Y-45800000D01*
X155195996Y-45800000D02*
X156195995Y-44800001D01*
X143002000Y-42156000D02*
X144750000Y-43904000D01*
X156195995Y-44800001D02*
X160800001Y-44800001D01*
X160800001Y-44800001D02*
X161000000Y-45000000D01*
X144750000Y-43904000D02*
X144750000Y-45125000D01*
D24*
X152285000Y-48470000D02*
X152285000Y-49570000D01*
X151515000Y-47700000D02*
X152285000Y-48470000D01*
X145500000Y-47700000D02*
X151515000Y-47700000D01*
X143002000Y-45202000D02*
X145500000Y-47700000D01*
X143002000Y-44696000D02*
X143002000Y-45202000D01*
X144050000Y-48300000D02*
X143000000Y-47250000D01*
X150876000Y-48300000D02*
X144050000Y-48300000D01*
X151015000Y-48439000D02*
X150876000Y-48300000D01*
X151015000Y-49570000D02*
X151015000Y-48439000D01*
D23*
X167700000Y-61200000D02*
X167700000Y-60200000D01*
X167400000Y-61500000D02*
X167700000Y-61200000D01*
X164800000Y-46700000D02*
X165500000Y-46000000D01*
X164800000Y-51122830D02*
X164800000Y-46700000D01*
X162842830Y-53080000D02*
X164800000Y-51122830D01*
X161690000Y-53080000D02*
X162842830Y-53080000D01*
X149745000Y-49570000D02*
X149745000Y-50467612D01*
X149745000Y-50467612D02*
X150038697Y-50761309D01*
D24*
X148475000Y-49570000D02*
X148475000Y-50020000D01*
D23*
X164250000Y-50895000D02*
X164250000Y-46000000D01*
X161690000Y-52430000D02*
X162715000Y-52430000D01*
X162715000Y-52430000D02*
X164250000Y-50895000D01*
X148475000Y-49570000D02*
X148475000Y-50513207D01*
X148475000Y-50513207D02*
X148711361Y-50749568D01*
D24*
X168500000Y-58000000D02*
X168750000Y-58250000D01*
X168500000Y-57050000D02*
X168500000Y-58000000D01*
X168800000Y-56750000D02*
X168500000Y-57050000D01*
D28*
X149873000Y-124873000D02*
X147537000Y-124873000D01*
X147537000Y-112127000D01*
X149873000Y-112127000D01*
X149873000Y-124873000D01*
G04 #@! TA.AperFunction,Conductor*
D29*
G36*
X149873000Y-124873000D02*
G01*
X147537000Y-124873000D01*
X147537000Y-112127000D01*
X149873000Y-112127000D01*
X149873000Y-124873000D01*
G37*
G04 #@! TD.AperFunction*
D28*
X149873000Y-109873000D02*
X147537000Y-109873000D01*
X147537000Y-97127000D01*
X149873000Y-97127000D01*
X149873000Y-109873000D01*
G04 #@! TA.AperFunction,Conductor*
D29*
G36*
X149873000Y-109873000D02*
G01*
X147537000Y-109873000D01*
X147537000Y-97127000D01*
X149873000Y-97127000D01*
X149873000Y-109873000D01*
G37*
G04 #@! TD.AperFunction*
D28*
X149523000Y-94183241D02*
X149523001Y-94183251D01*
X149523000Y-94873000D01*
X147537000Y-94873000D01*
X147537000Y-82127000D01*
X149523001Y-82127000D01*
X149523000Y-94183241D01*
G04 #@! TA.AperFunction,Conductor*
D29*
G36*
X149523000Y-94183241D02*
G01*
X149523001Y-94183251D01*
X149523000Y-94873000D01*
X147537000Y-94873000D01*
X147537000Y-82127000D01*
X149523001Y-82127000D01*
X149523000Y-94183241D01*
G37*
G04 #@! TD.AperFunction*
D28*
X149523001Y-70166748D02*
X149523001Y-70433250D01*
X149523002Y-70433260D01*
X149523001Y-75733251D01*
X149523002Y-75733261D01*
X149523002Y-79873000D01*
X147537000Y-79873000D01*
X147537000Y-67127000D01*
X149523002Y-67127000D01*
X149523001Y-70166748D01*
G04 #@! TA.AperFunction,Conductor*
D29*
G36*
X149523001Y-70166748D02*
G01*
X149523001Y-70433250D01*
X149523002Y-70433260D01*
X149523001Y-75733251D01*
X149523002Y-75733261D01*
X149523002Y-79873000D01*
X147537000Y-79873000D01*
X147537000Y-67127000D01*
X149523002Y-67127000D01*
X149523001Y-70166748D01*
G37*
G04 #@! TD.AperFunction*
D28*
X158463000Y-124873000D02*
X156127000Y-124873000D01*
X156127000Y-112127000D01*
X158463000Y-112127000D01*
X158463000Y-124873000D01*
G04 #@! TA.AperFunction,Conductor*
D29*
G36*
X158463000Y-124873000D02*
G01*
X156127000Y-124873000D01*
X156127000Y-112127000D01*
X158463000Y-112127000D01*
X158463000Y-124873000D01*
G37*
G04 #@! TD.AperFunction*
D28*
X158463001Y-94873000D02*
X156127000Y-94873000D01*
X156127000Y-82127000D01*
X158463001Y-82127000D01*
X158463001Y-94873000D01*
G04 #@! TA.AperFunction,Conductor*
D29*
G36*
X158463001Y-94873000D02*
G01*
X156127000Y-94873000D01*
X156127000Y-82127000D01*
X158463001Y-82127000D01*
X158463001Y-94873000D01*
G37*
G04 #@! TD.AperFunction*
D28*
X158463001Y-79873000D02*
X156127000Y-79873000D01*
X156127000Y-67130422D01*
X156130422Y-67127000D01*
X158463001Y-67127000D01*
X158463001Y-79873000D01*
G04 #@! TA.AperFunction,Conductor*
D29*
G36*
X158463001Y-79873000D02*
G01*
X156127000Y-79873000D01*
X156127000Y-67130422D01*
X156130422Y-67127000D01*
X158463001Y-67127000D01*
X158463001Y-79873000D01*
G37*
G04 #@! TD.AperFunction*
D28*
X155297998Y-63541753D02*
X155294724Y-63574998D01*
X155297998Y-63608243D01*
X155297998Y-63608249D01*
X155307794Y-63707712D01*
X155346506Y-63835327D01*
X155409370Y-63952938D01*
X155466869Y-64023000D01*
X155493971Y-64056024D01*
X155519798Y-64077220D01*
X156037031Y-64594453D01*
X155909072Y-64679952D01*
X155890061Y-64698963D01*
X155796699Y-64708158D01*
X155664372Y-64748299D01*
X155542418Y-64813485D01*
X155435525Y-64901210D01*
X155413543Y-64927995D01*
X154468538Y-65873000D01*
X153377000Y-65873000D01*
X153377000Y-62358241D01*
X153380274Y-62324999D01*
X153377000Y-62291757D01*
X153377000Y-62291748D01*
X153367204Y-62192285D01*
X153328492Y-62064670D01*
X153265628Y-61947059D01*
X153181027Y-61843973D01*
X153155191Y-61822770D01*
X152976971Y-61644549D01*
X153670000Y-61644549D01*
X153773310Y-61634374D01*
X153872650Y-61604239D01*
X153964202Y-61555304D01*
X154044448Y-61489448D01*
X154095698Y-61427000D01*
X154516755Y-61427000D01*
X154550000Y-61430274D01*
X154583245Y-61427000D01*
X154583252Y-61427000D01*
X154682715Y-61417204D01*
X154810330Y-61378492D01*
X154927941Y-61315628D01*
X155031027Y-61231027D01*
X155052227Y-61205195D01*
X155297999Y-60959423D01*
X155297998Y-63541753D01*
G04 #@! TA.AperFunction,Conductor*
D29*
G36*
X155297998Y-63541753D02*
G01*
X155294724Y-63574998D01*
X155297998Y-63608243D01*
X155297998Y-63608249D01*
X155307794Y-63707712D01*
X155346506Y-63835327D01*
X155409370Y-63952938D01*
X155466869Y-64023000D01*
X155493971Y-64056024D01*
X155519798Y-64077220D01*
X156037031Y-64594453D01*
X155909072Y-64679952D01*
X155890061Y-64698963D01*
X155796699Y-64708158D01*
X155664372Y-64748299D01*
X155542418Y-64813485D01*
X155435525Y-64901210D01*
X155413543Y-64927995D01*
X154468538Y-65873000D01*
X153377000Y-65873000D01*
X153377000Y-62358241D01*
X153380274Y-62324999D01*
X153377000Y-62291757D01*
X153377000Y-62291748D01*
X153367204Y-62192285D01*
X153328492Y-62064670D01*
X153265628Y-61947059D01*
X153181027Y-61843973D01*
X153155191Y-61822770D01*
X152976971Y-61644549D01*
X153670000Y-61644549D01*
X153773310Y-61634374D01*
X153872650Y-61604239D01*
X153964202Y-61555304D01*
X154044448Y-61489448D01*
X154095698Y-61427000D01*
X154516755Y-61427000D01*
X154550000Y-61430274D01*
X154583245Y-61427000D01*
X154583252Y-61427000D01*
X154682715Y-61417204D01*
X154810330Y-61378492D01*
X154927941Y-61315628D01*
X155031027Y-61231027D01*
X155052227Y-61205195D01*
X155297999Y-60959423D01*
X155297998Y-63541753D01*
G37*
G04 #@! TD.AperFunction*
D28*
X150949372Y-61517940D02*
X151033973Y-61621026D01*
X151059800Y-61642222D01*
X151919801Y-62502224D01*
X151919807Y-62502229D01*
X152023001Y-62605423D01*
X152023000Y-65873000D01*
X151427011Y-65873000D01*
X151427011Y-64083256D01*
X151430285Y-64050011D01*
X151427011Y-64016766D01*
X151427011Y-64016759D01*
X151417215Y-63917296D01*
X151378503Y-63789681D01*
X151315639Y-63672070D01*
X151272063Y-63618973D01*
X151252235Y-63594812D01*
X151252229Y-63594806D01*
X151231037Y-63568984D01*
X151205217Y-63547794D01*
X149301971Y-61644549D01*
X150320000Y-61644549D01*
X150423310Y-61634374D01*
X150522650Y-61604239D01*
X150614202Y-61555304D01*
X150691338Y-61492000D01*
X150935507Y-61492000D01*
X150949372Y-61517940D01*
G04 #@! TA.AperFunction,Conductor*
D29*
G36*
X150949372Y-61517940D02*
G01*
X151033973Y-61621026D01*
X151059800Y-61642222D01*
X151919801Y-62502224D01*
X151919807Y-62502229D01*
X152023001Y-62605423D01*
X152023000Y-65873000D01*
X151427011Y-65873000D01*
X151427011Y-64083256D01*
X151430285Y-64050011D01*
X151427011Y-64016766D01*
X151427011Y-64016759D01*
X151417215Y-63917296D01*
X151378503Y-63789681D01*
X151315639Y-63672070D01*
X151272063Y-63618973D01*
X151252235Y-63594812D01*
X151252229Y-63594806D01*
X151231037Y-63568984D01*
X151205217Y-63547794D01*
X149301971Y-61644549D01*
X150320000Y-61644549D01*
X150423310Y-61634374D01*
X150522650Y-61604239D01*
X150614202Y-61555304D01*
X150691338Y-61492000D01*
X150935507Y-61492000D01*
X150949372Y-61517940D01*
G37*
G04 #@! TD.AperFunction*
D28*
X132963001Y-42473612D02*
X132960402Y-42500000D01*
X132970770Y-42605270D01*
X133001476Y-42706495D01*
X133051341Y-42799785D01*
X133118447Y-42881553D01*
X133200215Y-42948659D01*
X133293505Y-42998524D01*
X133394730Y-43029230D01*
X133473622Y-43037000D01*
X133500000Y-43039598D01*
X133526378Y-43037000D01*
X139473622Y-43037000D01*
X139500000Y-43039598D01*
X139526378Y-43037000D01*
X139605270Y-43029230D01*
X139706495Y-42998524D01*
X139799785Y-42948659D01*
X139881553Y-42881553D01*
X139948659Y-42799785D01*
X139998524Y-42706495D01*
X140029230Y-42605270D01*
X140039598Y-42500000D01*
X140037000Y-42473622D01*
X140037000Y-41037000D01*
X141698225Y-41037000D01*
X141662761Y-41103350D01*
X141632626Y-41202690D01*
X141622451Y-41306000D01*
X141622451Y-43006000D01*
X141632626Y-43109310D01*
X141662761Y-43208650D01*
X141711696Y-43300202D01*
X141777552Y-43380448D01*
X141857798Y-43446304D01*
X141949350Y-43495239D01*
X142048690Y-43525374D01*
X142152000Y-43535549D01*
X142260202Y-43535549D01*
X142124213Y-43626414D01*
X141932414Y-43818213D01*
X141781718Y-44043746D01*
X141677917Y-44294344D01*
X141625000Y-44560377D01*
X141625000Y-44831623D01*
X141677917Y-45097656D01*
X141781718Y-45348254D01*
X141932414Y-45573787D01*
X142124213Y-45765586D01*
X142349746Y-45916282D01*
X142469776Y-45966000D01*
X142349746Y-46015718D01*
X142124213Y-46166414D01*
X141932414Y-46358213D01*
X141781718Y-46583746D01*
X141677917Y-46834344D01*
X141625000Y-47100377D01*
X141625000Y-47371623D01*
X141677917Y-47637656D01*
X141781718Y-47888254D01*
X141932414Y-48113787D01*
X142124213Y-48305586D01*
X142340308Y-48449975D01*
X142120645Y-48580822D01*
X141904412Y-48775731D01*
X141730359Y-49009080D01*
X141605175Y-49271901D01*
X141560524Y-49419110D01*
X141681845Y-49649000D01*
X142875000Y-49649000D01*
X142875000Y-49629000D01*
X143129000Y-49629000D01*
X143129000Y-49649000D01*
X144322155Y-49649000D01*
X144443476Y-49419110D01*
X144398825Y-49271901D01*
X144273641Y-49009080D01*
X144268360Y-49002000D01*
X145105451Y-49002000D01*
X145105451Y-50320000D01*
X145115626Y-50423310D01*
X145145761Y-50522650D01*
X145194696Y-50614202D01*
X145260552Y-50694448D01*
X145340798Y-50760304D01*
X145432350Y-50809239D01*
X145531690Y-50839374D01*
X145635000Y-50849549D01*
X146235000Y-50849549D01*
X146338310Y-50839374D01*
X146437650Y-50809239D01*
X146529202Y-50760304D01*
X146570000Y-50726822D01*
X146610798Y-50760304D01*
X146702350Y-50809239D01*
X146801690Y-50839374D01*
X146905000Y-50849549D01*
X147505000Y-50849549D01*
X147608310Y-50839374D01*
X147707650Y-50809239D01*
X147784361Y-50768237D01*
X147784361Y-50840869D01*
X147819985Y-51019964D01*
X147889865Y-51188667D01*
X147991313Y-51340496D01*
X148120433Y-51469616D01*
X148192490Y-51517762D01*
X148181928Y-51625000D01*
X148185000Y-51639250D01*
X148343750Y-51798000D01*
X149443000Y-51798000D01*
X149443000Y-51778000D01*
X149697000Y-51778000D01*
X149697000Y-51798000D01*
X149717000Y-51798000D01*
X149717000Y-52052000D01*
X149697000Y-52052000D01*
X149697000Y-53068000D01*
X149717000Y-53068000D01*
X149717000Y-53322000D01*
X149697000Y-53322000D01*
X149697000Y-53342000D01*
X149443000Y-53342000D01*
X149443000Y-53322000D01*
X149423000Y-53322000D01*
X149423000Y-53068000D01*
X149443000Y-53068000D01*
X149443000Y-52052000D01*
X148343750Y-52052000D01*
X148185000Y-52210750D01*
X148181928Y-52225000D01*
X148194188Y-52349482D01*
X148230498Y-52469180D01*
X148279043Y-52560000D01*
X148230498Y-52650820D01*
X148194188Y-52770518D01*
X148181928Y-52895000D01*
X148185000Y-52909250D01*
X148263015Y-52987265D01*
X148191301Y-52973000D01*
X148008699Y-52973000D01*
X147829604Y-53008624D01*
X147660901Y-53078504D01*
X147509072Y-53179952D01*
X147379952Y-53309072D01*
X147278504Y-53460901D01*
X147208624Y-53629604D01*
X147177117Y-53788000D01*
X146412978Y-53788000D01*
X146415049Y-53785929D01*
X146516497Y-53634100D01*
X146586377Y-53465397D01*
X146622001Y-53286302D01*
X146622001Y-53159755D01*
X146708699Y-53177000D01*
X146891301Y-53177000D01*
X147070396Y-53141376D01*
X147239099Y-53071496D01*
X147390928Y-52970048D01*
X147520048Y-52840928D01*
X147621496Y-52689099D01*
X147691376Y-52520396D01*
X147727000Y-52341301D01*
X147727000Y-52158699D01*
X147691376Y-51979604D01*
X147621496Y-51810901D01*
X147520048Y-51659072D01*
X147390928Y-51529952D01*
X147239099Y-51428504D01*
X147070396Y-51358624D01*
X147040366Y-51352651D01*
X146935330Y-51296508D01*
X146807715Y-51257796D01*
X146708252Y-51248000D01*
X146708245Y-51248000D01*
X146675000Y-51244726D01*
X146641755Y-51248000D01*
X145291338Y-51248000D01*
X145214202Y-51184696D01*
X145122650Y-51135761D01*
X145023310Y-51105626D01*
X144920000Y-51095451D01*
X143674728Y-51095451D01*
X143883355Y-50971178D01*
X144099588Y-50776269D01*
X144273641Y-50542920D01*
X144398825Y-50280099D01*
X144443476Y-50132890D01*
X144322155Y-49903000D01*
X143129000Y-49903000D01*
X143129000Y-49923000D01*
X142875000Y-49923000D01*
X142875000Y-49903000D01*
X141681845Y-49903000D01*
X141560524Y-50132890D01*
X141605175Y-50280099D01*
X141730359Y-50542920D01*
X141904412Y-50776269D01*
X142120645Y-50971178D01*
X142370748Y-51120157D01*
X142645109Y-51217481D01*
X142874998Y-51096815D01*
X142874998Y-51244726D01*
X142841757Y-51248000D01*
X142841748Y-51248000D01*
X142816862Y-51250451D01*
X142565000Y-51250451D01*
X142435353Y-51263220D01*
X142310688Y-51301037D01*
X142195796Y-51362448D01*
X142190000Y-51367205D01*
X142184204Y-51362448D01*
X142069312Y-51301037D01*
X141944647Y-51263220D01*
X141815000Y-51250451D01*
X141545000Y-51250451D01*
X141415353Y-51263220D01*
X141290688Y-51301037D01*
X141175796Y-51362448D01*
X141075093Y-51445093D01*
X140992448Y-51545796D01*
X140931037Y-51660688D01*
X140893220Y-51785353D01*
X140880451Y-51915000D01*
X140880451Y-52285000D01*
X140893220Y-52414647D01*
X140931037Y-52539312D01*
X140973475Y-52618709D01*
X140951037Y-52660688D01*
X140913220Y-52785353D01*
X140900451Y-52915000D01*
X140900451Y-53285000D01*
X140913220Y-53414647D01*
X140913426Y-53415325D01*
X140760901Y-53478504D01*
X140609072Y-53579952D01*
X140479952Y-53709072D01*
X140378504Y-53860901D01*
X140308624Y-54029604D01*
X140273000Y-54208699D01*
X140273000Y-54235585D01*
X140213486Y-54308103D01*
X140160244Y-54407712D01*
X140148301Y-54430056D01*
X140108160Y-54562383D01*
X140099241Y-54652939D01*
X140094606Y-54699999D01*
X140098002Y-54734479D01*
X140098001Y-59665531D01*
X140094606Y-59700001D01*
X140098001Y-59734471D01*
X140098001Y-59734480D01*
X140108159Y-59837616D01*
X140148300Y-59969943D01*
X140199445Y-60065628D01*
X140213486Y-60091897D01*
X140279231Y-60172008D01*
X140279234Y-60172011D01*
X140301211Y-60198790D01*
X140327991Y-60220768D01*
X141379233Y-61272011D01*
X141401210Y-61298790D01*
X141427989Y-61320767D01*
X141427992Y-61320770D01*
X141508103Y-61386515D01*
X141630056Y-61451701D01*
X141730612Y-61482204D01*
X141762384Y-61491842D01*
X141865520Y-61502000D01*
X141865527Y-61502000D01*
X141900000Y-61505395D01*
X141934473Y-61502000D01*
X143060847Y-61502000D01*
X143125798Y-61555304D01*
X143217350Y-61604239D01*
X143316690Y-61634374D01*
X143420000Y-61644549D01*
X144920000Y-61644549D01*
X145023310Y-61634374D01*
X145122650Y-61604239D01*
X145214202Y-61555304D01*
X145260876Y-61517000D01*
X147075530Y-61517000D01*
X147110000Y-61520395D01*
X147144470Y-61517000D01*
X147144480Y-61517000D01*
X147247616Y-61506842D01*
X147379943Y-61466701D01*
X147498011Y-61403592D01*
X147498011Y-61441756D01*
X147494736Y-61475010D01*
X147507806Y-61607724D01*
X147546518Y-61735339D01*
X147609382Y-61852950D01*
X147672786Y-61930208D01*
X147672789Y-61930211D01*
X147693984Y-61956037D01*
X147719811Y-61977232D01*
X147997782Y-62255203D01*
X147997786Y-62255208D01*
X148974165Y-63231588D01*
X148860901Y-63278504D01*
X148709072Y-63379952D01*
X148579952Y-63509072D01*
X148478504Y-63660901D01*
X148408624Y-63829604D01*
X148373000Y-64008699D01*
X148373000Y-64191301D01*
X148408624Y-64370396D01*
X148478504Y-64539099D01*
X148579952Y-64690928D01*
X148709072Y-64820048D01*
X148860901Y-64921496D01*
X149029604Y-64991376D01*
X149208699Y-65027000D01*
X149269578Y-65027000D01*
X149523002Y-65280425D01*
X149523002Y-65873000D01*
X148702000Y-65873000D01*
X148702000Y-65834470D01*
X148705395Y-65800000D01*
X148702000Y-65765530D01*
X148702000Y-65765520D01*
X148691842Y-65662384D01*
X148651701Y-65530057D01*
X148586515Y-65408103D01*
X148573170Y-65391842D01*
X148520770Y-65327992D01*
X148520767Y-65327989D01*
X148498790Y-65301210D01*
X148472011Y-65279233D01*
X147420771Y-64227994D01*
X147398790Y-64201210D01*
X147291897Y-64113485D01*
X147169943Y-64048299D01*
X147037616Y-64008158D01*
X146934480Y-63998000D01*
X146934470Y-63998000D01*
X146900000Y-63994605D01*
X146865530Y-63998000D01*
X146665520Y-63998000D01*
X146562384Y-64008158D01*
X146513457Y-64023000D01*
X145727000Y-64023000D01*
X145727000Y-64008699D01*
X145691376Y-63829604D01*
X145621496Y-63660901D01*
X145520048Y-63509072D01*
X145390928Y-63379952D01*
X145239099Y-63278504D01*
X145070396Y-63208624D01*
X144891301Y-63173000D01*
X144708699Y-63173000D01*
X144529604Y-63208624D01*
X144360901Y-63278504D01*
X144209072Y-63379952D01*
X144079952Y-63509072D01*
X143978504Y-63660901D01*
X143908624Y-63829604D01*
X143873000Y-64008699D01*
X143873000Y-64191301D01*
X143908624Y-64370396D01*
X143978504Y-64539099D01*
X144079952Y-64690928D01*
X144209072Y-64820048D01*
X144360901Y-64921496D01*
X144529604Y-64991376D01*
X144708699Y-65027000D01*
X144769578Y-65027000D01*
X144897774Y-65155196D01*
X144918973Y-65181027D01*
X145022059Y-65265628D01*
X145139670Y-65328492D01*
X145267285Y-65367204D01*
X145366748Y-65377000D01*
X145366757Y-65377000D01*
X145399999Y-65380274D01*
X145433241Y-65377000D01*
X146513457Y-65377000D01*
X146562384Y-65391842D01*
X146603072Y-65395849D01*
X146670223Y-65463000D01*
X144222432Y-65463000D01*
X132037000Y-53277568D01*
X132037000Y-51000000D01*
X132960402Y-51000000D01*
X132963001Y-51026388D01*
X132963000Y-52973621D01*
X132960402Y-53000000D01*
X132970770Y-53105270D01*
X133001476Y-53206495D01*
X133040354Y-53279230D01*
X133051341Y-53299785D01*
X133118447Y-53381553D01*
X133200215Y-53448659D01*
X133293505Y-53498524D01*
X133394730Y-53529230D01*
X133500000Y-53539598D01*
X133526378Y-53537000D01*
X139473622Y-53537000D01*
X139500000Y-53539598D01*
X139526378Y-53537000D01*
X139544675Y-53535198D01*
X139605270Y-53529230D01*
X139706495Y-53498524D01*
X139799785Y-53448659D01*
X139881553Y-53381553D01*
X139948659Y-53299785D01*
X139998524Y-53206495D01*
X140029230Y-53105270D01*
X140037000Y-53026378D01*
X140037000Y-53026377D01*
X140039598Y-53000000D01*
X140037000Y-52973622D01*
X140037000Y-51026378D01*
X140039598Y-51000000D01*
X140029230Y-50894730D01*
X139998524Y-50793505D01*
X139948659Y-50700215D01*
X139881553Y-50618447D01*
X139799785Y-50551341D01*
X139706495Y-50501476D01*
X139605270Y-50470770D01*
X139526378Y-50463000D01*
X139500000Y-50460402D01*
X139473622Y-50463000D01*
X133526378Y-50463000D01*
X133500000Y-50460402D01*
X133473622Y-50463000D01*
X133394730Y-50470770D01*
X133293505Y-50501476D01*
X133200215Y-50551341D01*
X133118447Y-50618447D01*
X133051341Y-50700215D01*
X133001476Y-50793505D01*
X132970770Y-50894730D01*
X132960402Y-51000000D01*
X132037000Y-51000000D01*
X132037000Y-41037000D01*
X132963000Y-41037000D01*
X132963001Y-42473612D01*
G04 #@! TA.AperFunction,Conductor*
D29*
G36*
X132963001Y-42473612D02*
G01*
X132960402Y-42500000D01*
X132970770Y-42605270D01*
X133001476Y-42706495D01*
X133051341Y-42799785D01*
X133118447Y-42881553D01*
X133200215Y-42948659D01*
X133293505Y-42998524D01*
X133394730Y-43029230D01*
X133473622Y-43037000D01*
X133500000Y-43039598D01*
X133526378Y-43037000D01*
X139473622Y-43037000D01*
X139500000Y-43039598D01*
X139526378Y-43037000D01*
X139605270Y-43029230D01*
X139706495Y-42998524D01*
X139799785Y-42948659D01*
X139881553Y-42881553D01*
X139948659Y-42799785D01*
X139998524Y-42706495D01*
X140029230Y-42605270D01*
X140039598Y-42500000D01*
X140037000Y-42473622D01*
X140037000Y-41037000D01*
X141698225Y-41037000D01*
X141662761Y-41103350D01*
X141632626Y-41202690D01*
X141622451Y-41306000D01*
X141622451Y-43006000D01*
X141632626Y-43109310D01*
X141662761Y-43208650D01*
X141711696Y-43300202D01*
X141777552Y-43380448D01*
X141857798Y-43446304D01*
X141949350Y-43495239D01*
X142048690Y-43525374D01*
X142152000Y-43535549D01*
X142260202Y-43535549D01*
X142124213Y-43626414D01*
X141932414Y-43818213D01*
X141781718Y-44043746D01*
X141677917Y-44294344D01*
X141625000Y-44560377D01*
X141625000Y-44831623D01*
X141677917Y-45097656D01*
X141781718Y-45348254D01*
X141932414Y-45573787D01*
X142124213Y-45765586D01*
X142349746Y-45916282D01*
X142469776Y-45966000D01*
X142349746Y-46015718D01*
X142124213Y-46166414D01*
X141932414Y-46358213D01*
X141781718Y-46583746D01*
X141677917Y-46834344D01*
X141625000Y-47100377D01*
X141625000Y-47371623D01*
X141677917Y-47637656D01*
X141781718Y-47888254D01*
X141932414Y-48113787D01*
X142124213Y-48305586D01*
X142340308Y-48449975D01*
X142120645Y-48580822D01*
X141904412Y-48775731D01*
X141730359Y-49009080D01*
X141605175Y-49271901D01*
X141560524Y-49419110D01*
X141681845Y-49649000D01*
X142875000Y-49649000D01*
X142875000Y-49629000D01*
X143129000Y-49629000D01*
X143129000Y-49649000D01*
X144322155Y-49649000D01*
X144443476Y-49419110D01*
X144398825Y-49271901D01*
X144273641Y-49009080D01*
X144268360Y-49002000D01*
X145105451Y-49002000D01*
X145105451Y-50320000D01*
X145115626Y-50423310D01*
X145145761Y-50522650D01*
X145194696Y-50614202D01*
X145260552Y-50694448D01*
X145340798Y-50760304D01*
X145432350Y-50809239D01*
X145531690Y-50839374D01*
X145635000Y-50849549D01*
X146235000Y-50849549D01*
X146338310Y-50839374D01*
X146437650Y-50809239D01*
X146529202Y-50760304D01*
X146570000Y-50726822D01*
X146610798Y-50760304D01*
X146702350Y-50809239D01*
X146801690Y-50839374D01*
X146905000Y-50849549D01*
X147505000Y-50849549D01*
X147608310Y-50839374D01*
X147707650Y-50809239D01*
X147784361Y-50768237D01*
X147784361Y-50840869D01*
X147819985Y-51019964D01*
X147889865Y-51188667D01*
X147991313Y-51340496D01*
X148120433Y-51469616D01*
X148192490Y-51517762D01*
X148181928Y-51625000D01*
X148185000Y-51639250D01*
X148343750Y-51798000D01*
X149443000Y-51798000D01*
X149443000Y-51778000D01*
X149697000Y-51778000D01*
X149697000Y-51798000D01*
X149717000Y-51798000D01*
X149717000Y-52052000D01*
X149697000Y-52052000D01*
X149697000Y-53068000D01*
X149717000Y-53068000D01*
X149717000Y-53322000D01*
X149697000Y-53322000D01*
X149697000Y-53342000D01*
X149443000Y-53342000D01*
X149443000Y-53322000D01*
X149423000Y-53322000D01*
X149423000Y-53068000D01*
X149443000Y-53068000D01*
X149443000Y-52052000D01*
X148343750Y-52052000D01*
X148185000Y-52210750D01*
X148181928Y-52225000D01*
X148194188Y-52349482D01*
X148230498Y-52469180D01*
X148279043Y-52560000D01*
X148230498Y-52650820D01*
X148194188Y-52770518D01*
X148181928Y-52895000D01*
X148185000Y-52909250D01*
X148263015Y-52987265D01*
X148191301Y-52973000D01*
X148008699Y-52973000D01*
X147829604Y-53008624D01*
X147660901Y-53078504D01*
X147509072Y-53179952D01*
X147379952Y-53309072D01*
X147278504Y-53460901D01*
X147208624Y-53629604D01*
X147177117Y-53788000D01*
X146412978Y-53788000D01*
X146415049Y-53785929D01*
X146516497Y-53634100D01*
X146586377Y-53465397D01*
X146622001Y-53286302D01*
X146622001Y-53159755D01*
X146708699Y-53177000D01*
X146891301Y-53177000D01*
X147070396Y-53141376D01*
X147239099Y-53071496D01*
X147390928Y-52970048D01*
X147520048Y-52840928D01*
X147621496Y-52689099D01*
X147691376Y-52520396D01*
X147727000Y-52341301D01*
X147727000Y-52158699D01*
X147691376Y-51979604D01*
X147621496Y-51810901D01*
X147520048Y-51659072D01*
X147390928Y-51529952D01*
X147239099Y-51428504D01*
X147070396Y-51358624D01*
X147040366Y-51352651D01*
X146935330Y-51296508D01*
X146807715Y-51257796D01*
X146708252Y-51248000D01*
X146708245Y-51248000D01*
X146675000Y-51244726D01*
X146641755Y-51248000D01*
X145291338Y-51248000D01*
X145214202Y-51184696D01*
X145122650Y-51135761D01*
X145023310Y-51105626D01*
X144920000Y-51095451D01*
X143674728Y-51095451D01*
X143883355Y-50971178D01*
X144099588Y-50776269D01*
X144273641Y-50542920D01*
X144398825Y-50280099D01*
X144443476Y-50132890D01*
X144322155Y-49903000D01*
X143129000Y-49903000D01*
X143129000Y-49923000D01*
X142875000Y-49923000D01*
X142875000Y-49903000D01*
X141681845Y-49903000D01*
X141560524Y-50132890D01*
X141605175Y-50280099D01*
X141730359Y-50542920D01*
X141904412Y-50776269D01*
X142120645Y-50971178D01*
X142370748Y-51120157D01*
X142645109Y-51217481D01*
X142874998Y-51096815D01*
X142874998Y-51244726D01*
X142841757Y-51248000D01*
X142841748Y-51248000D01*
X142816862Y-51250451D01*
X142565000Y-51250451D01*
X142435353Y-51263220D01*
X142310688Y-51301037D01*
X142195796Y-51362448D01*
X142190000Y-51367205D01*
X142184204Y-51362448D01*
X142069312Y-51301037D01*
X141944647Y-51263220D01*
X141815000Y-51250451D01*
X141545000Y-51250451D01*
X141415353Y-51263220D01*
X141290688Y-51301037D01*
X141175796Y-51362448D01*
X141075093Y-51445093D01*
X140992448Y-51545796D01*
X140931037Y-51660688D01*
X140893220Y-51785353D01*
X140880451Y-51915000D01*
X140880451Y-52285000D01*
X140893220Y-52414647D01*
X140931037Y-52539312D01*
X140973475Y-52618709D01*
X140951037Y-52660688D01*
X140913220Y-52785353D01*
X140900451Y-52915000D01*
X140900451Y-53285000D01*
X140913220Y-53414647D01*
X140913426Y-53415325D01*
X140760901Y-53478504D01*
X140609072Y-53579952D01*
X140479952Y-53709072D01*
X140378504Y-53860901D01*
X140308624Y-54029604D01*
X140273000Y-54208699D01*
X140273000Y-54235585D01*
X140213486Y-54308103D01*
X140160244Y-54407712D01*
X140148301Y-54430056D01*
X140108160Y-54562383D01*
X140099241Y-54652939D01*
X140094606Y-54699999D01*
X140098002Y-54734479D01*
X140098001Y-59665531D01*
X140094606Y-59700001D01*
X140098001Y-59734471D01*
X140098001Y-59734480D01*
X140108159Y-59837616D01*
X140148300Y-59969943D01*
X140199445Y-60065628D01*
X140213486Y-60091897D01*
X140279231Y-60172008D01*
X140279234Y-60172011D01*
X140301211Y-60198790D01*
X140327991Y-60220768D01*
X141379233Y-61272011D01*
X141401210Y-61298790D01*
X141427989Y-61320767D01*
X141427992Y-61320770D01*
X141508103Y-61386515D01*
X141630056Y-61451701D01*
X141730612Y-61482204D01*
X141762384Y-61491842D01*
X141865520Y-61502000D01*
X141865527Y-61502000D01*
X141900000Y-61505395D01*
X141934473Y-61502000D01*
X143060847Y-61502000D01*
X143125798Y-61555304D01*
X143217350Y-61604239D01*
X143316690Y-61634374D01*
X143420000Y-61644549D01*
X144920000Y-61644549D01*
X145023310Y-61634374D01*
X145122650Y-61604239D01*
X145214202Y-61555304D01*
X145260876Y-61517000D01*
X147075530Y-61517000D01*
X147110000Y-61520395D01*
X147144470Y-61517000D01*
X147144480Y-61517000D01*
X147247616Y-61506842D01*
X147379943Y-61466701D01*
X147498011Y-61403592D01*
X147498011Y-61441756D01*
X147494736Y-61475010D01*
X147507806Y-61607724D01*
X147546518Y-61735339D01*
X147609382Y-61852950D01*
X147672786Y-61930208D01*
X147672789Y-61930211D01*
X147693984Y-61956037D01*
X147719811Y-61977232D01*
X147997782Y-62255203D01*
X147997786Y-62255208D01*
X148974165Y-63231588D01*
X148860901Y-63278504D01*
X148709072Y-63379952D01*
X148579952Y-63509072D01*
X148478504Y-63660901D01*
X148408624Y-63829604D01*
X148373000Y-64008699D01*
X148373000Y-64191301D01*
X148408624Y-64370396D01*
X148478504Y-64539099D01*
X148579952Y-64690928D01*
X148709072Y-64820048D01*
X148860901Y-64921496D01*
X149029604Y-64991376D01*
X149208699Y-65027000D01*
X149269578Y-65027000D01*
X149523002Y-65280425D01*
X149523002Y-65873000D01*
X148702000Y-65873000D01*
X148702000Y-65834470D01*
X148705395Y-65800000D01*
X148702000Y-65765530D01*
X148702000Y-65765520D01*
X148691842Y-65662384D01*
X148651701Y-65530057D01*
X148586515Y-65408103D01*
X148573170Y-65391842D01*
X148520770Y-65327992D01*
X148520767Y-65327989D01*
X148498790Y-65301210D01*
X148472011Y-65279233D01*
X147420771Y-64227994D01*
X147398790Y-64201210D01*
X147291897Y-64113485D01*
X147169943Y-64048299D01*
X147037616Y-64008158D01*
X146934480Y-63998000D01*
X146934470Y-63998000D01*
X146900000Y-63994605D01*
X146865530Y-63998000D01*
X146665520Y-63998000D01*
X146562384Y-64008158D01*
X146513457Y-64023000D01*
X145727000Y-64023000D01*
X145727000Y-64008699D01*
X145691376Y-63829604D01*
X145621496Y-63660901D01*
X145520048Y-63509072D01*
X145390928Y-63379952D01*
X145239099Y-63278504D01*
X145070396Y-63208624D01*
X144891301Y-63173000D01*
X144708699Y-63173000D01*
X144529604Y-63208624D01*
X144360901Y-63278504D01*
X144209072Y-63379952D01*
X144079952Y-63509072D01*
X143978504Y-63660901D01*
X143908624Y-63829604D01*
X143873000Y-64008699D01*
X143873000Y-64191301D01*
X143908624Y-64370396D01*
X143978504Y-64539099D01*
X144079952Y-64690928D01*
X144209072Y-64820048D01*
X144360901Y-64921496D01*
X144529604Y-64991376D01*
X144708699Y-65027000D01*
X144769578Y-65027000D01*
X144897774Y-65155196D01*
X144918973Y-65181027D01*
X145022059Y-65265628D01*
X145139670Y-65328492D01*
X145267285Y-65367204D01*
X145366748Y-65377000D01*
X145366757Y-65377000D01*
X145399999Y-65380274D01*
X145433241Y-65377000D01*
X146513457Y-65377000D01*
X146562384Y-65391842D01*
X146603072Y-65395849D01*
X146670223Y-65463000D01*
X144222432Y-65463000D01*
X132037000Y-53277568D01*
X132037000Y-51000000D01*
X132960402Y-51000000D01*
X132963001Y-51026388D01*
X132963000Y-52973621D01*
X132960402Y-53000000D01*
X132970770Y-53105270D01*
X133001476Y-53206495D01*
X133040354Y-53279230D01*
X133051341Y-53299785D01*
X133118447Y-53381553D01*
X133200215Y-53448659D01*
X133293505Y-53498524D01*
X133394730Y-53529230D01*
X133500000Y-53539598D01*
X133526378Y-53537000D01*
X139473622Y-53537000D01*
X139500000Y-53539598D01*
X139526378Y-53537000D01*
X139544675Y-53535198D01*
X139605270Y-53529230D01*
X139706495Y-53498524D01*
X139799785Y-53448659D01*
X139881553Y-53381553D01*
X139948659Y-53299785D01*
X139998524Y-53206495D01*
X140029230Y-53105270D01*
X140037000Y-53026378D01*
X140037000Y-53026377D01*
X140039598Y-53000000D01*
X140037000Y-52973622D01*
X140037000Y-51026378D01*
X140039598Y-51000000D01*
X140029230Y-50894730D01*
X139998524Y-50793505D01*
X139948659Y-50700215D01*
X139881553Y-50618447D01*
X139799785Y-50551341D01*
X139706495Y-50501476D01*
X139605270Y-50470770D01*
X139526378Y-50463000D01*
X139500000Y-50460402D01*
X139473622Y-50463000D01*
X133526378Y-50463000D01*
X133500000Y-50460402D01*
X133473622Y-50463000D01*
X133394730Y-50470770D01*
X133293505Y-50501476D01*
X133200215Y-50551341D01*
X133118447Y-50618447D01*
X133051341Y-50700215D01*
X133001476Y-50793505D01*
X132970770Y-50894730D01*
X132960402Y-51000000D01*
X132037000Y-51000000D01*
X132037000Y-41037000D01*
X132963000Y-41037000D01*
X132963001Y-42473612D01*
G37*
G04 #@! TD.AperFunction*
D28*
X177463001Y-53777566D02*
X165777568Y-65463000D01*
X159469762Y-65463000D01*
X159491842Y-65390211D01*
X159502000Y-65287075D01*
X159502000Y-65287065D01*
X159505395Y-65252595D01*
X159502000Y-65218125D01*
X159502000Y-63744777D01*
X159929233Y-64172011D01*
X159951210Y-64198790D01*
X159977989Y-64220767D01*
X159977991Y-64220769D01*
X160058102Y-64286515D01*
X160098491Y-64308103D01*
X160180057Y-64351701D01*
X160312384Y-64391842D01*
X160415520Y-64402000D01*
X160415529Y-64402000D01*
X160449999Y-64405395D01*
X160484469Y-64402000D01*
X160891024Y-64402000D01*
X160909072Y-64420048D01*
X161060901Y-64521496D01*
X161229604Y-64591376D01*
X161408699Y-64627000D01*
X161591301Y-64627000D01*
X161770396Y-64591376D01*
X161939099Y-64521496D01*
X162090928Y-64420048D01*
X162220048Y-64290928D01*
X162321496Y-64139099D01*
X162391376Y-63970396D01*
X162427000Y-63791301D01*
X162427000Y-63608699D01*
X162391376Y-63429604D01*
X162321496Y-63260901D01*
X162220048Y-63109072D01*
X162090928Y-62979952D01*
X161939099Y-62878504D01*
X161770396Y-62808624D01*
X161591301Y-62773000D01*
X161408699Y-62773000D01*
X161229604Y-62808624D01*
X161060901Y-62878504D01*
X160909072Y-62979952D01*
X160891024Y-62998000D01*
X160740778Y-62998000D01*
X160326990Y-62584213D01*
X160326990Y-62005554D01*
X160397917Y-62027070D01*
X160549999Y-62042049D01*
X161450001Y-62042049D01*
X161602083Y-62027070D01*
X161748321Y-61982709D01*
X161883095Y-61910671D01*
X162001225Y-61813725D01*
X162045451Y-61759835D01*
X162045451Y-62200001D01*
X162060430Y-62352083D01*
X162104791Y-62498321D01*
X162176829Y-62633095D01*
X162273775Y-62751225D01*
X162391905Y-62848171D01*
X162426861Y-62866855D01*
X162459008Y-62972829D01*
X162521872Y-63090440D01*
X162585276Y-63167698D01*
X162585279Y-63167701D01*
X162606474Y-63193527D01*
X162632299Y-63214722D01*
X163122778Y-63705201D01*
X163143973Y-63731027D01*
X163169799Y-63752222D01*
X163169801Y-63752224D01*
X163247059Y-63815628D01*
X163364670Y-63878492D01*
X163492285Y-63917204D01*
X163625000Y-63930275D01*
X163658252Y-63927000D01*
X165441755Y-63927000D01*
X165475000Y-63930274D01*
X165508245Y-63927000D01*
X165508252Y-63927000D01*
X165607715Y-63917204D01*
X165735330Y-63878492D01*
X165852941Y-63815628D01*
X165956027Y-63731027D01*
X165977226Y-63705196D01*
X166930205Y-62752218D01*
X166956026Y-62731027D01*
X166977218Y-62705205D01*
X166977224Y-62705199D01*
X167040628Y-62627941D01*
X167103492Y-62510330D01*
X167142204Y-62382715D01*
X167149299Y-62310676D01*
X167235353Y-62336780D01*
X167365000Y-62349549D01*
X167635000Y-62349549D01*
X167764647Y-62336780D01*
X167889312Y-62298963D01*
X168004204Y-62237552D01*
X168104907Y-62154907D01*
X168187552Y-62054204D01*
X168248963Y-61939312D01*
X168286780Y-61814647D01*
X168299549Y-61685000D01*
X168299549Y-61514479D01*
X168328492Y-61460330D01*
X168367204Y-61332715D01*
X168377000Y-61233252D01*
X168377000Y-61233243D01*
X168380274Y-61200001D01*
X168377000Y-61166759D01*
X168377000Y-61149499D01*
X168394202Y-61140304D01*
X168474448Y-61074448D01*
X168540304Y-60994202D01*
X168589239Y-60902650D01*
X168619374Y-60803310D01*
X168629549Y-60700000D01*
X168629549Y-59800000D01*
X168619374Y-59696690D01*
X168589239Y-59597350D01*
X168540304Y-59505798D01*
X168474448Y-59425552D01*
X168394202Y-59359696D01*
X168302650Y-59310761D01*
X168203310Y-59280626D01*
X168166445Y-59276995D01*
X168181026Y-59265029D01*
X168202218Y-59239207D01*
X168202224Y-59239201D01*
X168213126Y-59225917D01*
X168250000Y-59229549D01*
X169050000Y-59229549D01*
X169153310Y-59219374D01*
X169252650Y-59189239D01*
X169344202Y-59140304D01*
X169424448Y-59074448D01*
X169490304Y-58994202D01*
X169539239Y-58902650D01*
X169569374Y-58803310D01*
X169579549Y-58700000D01*
X169579549Y-57800000D01*
X169569374Y-57696690D01*
X169551688Y-57638389D01*
X169665000Y-57649549D01*
X169935000Y-57649549D01*
X170064647Y-57636780D01*
X170189312Y-57598963D01*
X170304204Y-57537552D01*
X170404907Y-57454907D01*
X170487552Y-57354204D01*
X170548963Y-57239312D01*
X170586780Y-57114647D01*
X170599549Y-56985000D01*
X170599549Y-56615000D01*
X170586780Y-56485353D01*
X170548963Y-56360688D01*
X170487552Y-56245796D01*
X170404907Y-56145093D01*
X170304204Y-56062448D01*
X170189312Y-56001037D01*
X170064647Y-55963220D01*
X170015835Y-55958413D01*
X169627000Y-55569578D01*
X169627000Y-55408699D01*
X169591376Y-55229604D01*
X169521496Y-55060901D01*
X169420048Y-54909072D01*
X169290928Y-54779952D01*
X169139099Y-54678504D01*
X168970396Y-54608624D01*
X168791301Y-54573000D01*
X168608699Y-54573000D01*
X168429604Y-54608624D01*
X168260901Y-54678504D01*
X168109072Y-54779952D01*
X167979952Y-54909072D01*
X167878504Y-55060901D01*
X167808624Y-55229604D01*
X167777000Y-55388590D01*
X167777000Y-53980422D01*
X167922873Y-53834549D01*
X168315000Y-53834549D01*
X168418310Y-53824374D01*
X168517650Y-53794239D01*
X168609202Y-53745304D01*
X168689448Y-53679448D01*
X168755304Y-53599202D01*
X168804239Y-53507650D01*
X168834374Y-53408310D01*
X168844549Y-53305000D01*
X168844549Y-52855000D01*
X168834700Y-52755000D01*
X168837249Y-52729123D01*
X168946448Y-52738241D01*
X169401210Y-52735240D01*
X169559960Y-52576490D01*
X169559960Y-51973240D01*
X169539960Y-51973240D01*
X169539960Y-51946250D01*
X169559960Y-51926250D01*
X169559960Y-51753240D01*
X169813960Y-51753240D01*
X169813960Y-51926250D01*
X169860950Y-51973240D01*
X169813960Y-51973240D01*
X169813960Y-52576490D01*
X169932975Y-52695505D01*
X169951476Y-52756495D01*
X169985244Y-52819670D01*
X170001341Y-52849785D01*
X170068447Y-52931553D01*
X170150215Y-52998659D01*
X170243505Y-53048524D01*
X170344730Y-53079230D01*
X170450000Y-53089598D01*
X170476378Y-53087000D01*
X172023622Y-53087000D01*
X172050000Y-53089598D01*
X172076378Y-53087000D01*
X172090228Y-53085636D01*
X172155270Y-53079230D01*
X172256495Y-53048524D01*
X172349785Y-52998659D01*
X172431553Y-52931553D01*
X172448510Y-52910890D01*
X174453524Y-52910890D01*
X174498175Y-53058099D01*
X174623359Y-53320920D01*
X174797412Y-53554269D01*
X175013645Y-53749178D01*
X175263748Y-53898157D01*
X175538109Y-53995481D01*
X175768000Y-53874814D01*
X175768000Y-52681000D01*
X176022000Y-52681000D01*
X176022000Y-53874814D01*
X176251891Y-53995481D01*
X176526252Y-53898157D01*
X176776355Y-53749178D01*
X176992588Y-53554269D01*
X177166641Y-53320920D01*
X177291825Y-53058099D01*
X177336476Y-52910890D01*
X177215155Y-52681000D01*
X176022000Y-52681000D01*
X175768000Y-52681000D01*
X174574845Y-52681000D01*
X174453524Y-52910890D01*
X172448510Y-52910890D01*
X172498659Y-52849785D01*
X172548524Y-52756495D01*
X172567025Y-52695505D01*
X172686040Y-52576490D01*
X172686040Y-51973240D01*
X172587000Y-51973240D01*
X172587000Y-51827240D01*
X172686040Y-51827240D01*
X172686040Y-51753240D01*
X172940040Y-51753240D01*
X172940040Y-51827240D01*
X173305000Y-51827240D01*
X173305000Y-51837002D01*
X173463748Y-51837002D01*
X173327510Y-51973240D01*
X172940040Y-51973240D01*
X172940040Y-52576490D01*
X173098790Y-52735240D01*
X173553552Y-52738241D01*
X173678202Y-52727833D01*
X173798427Y-52693307D01*
X173909606Y-52635990D01*
X173922025Y-52626103D01*
X173942923Y-52628065D01*
X173964250Y-52625000D01*
X174123000Y-52466250D01*
X174123000Y-52399829D01*
X174148846Y-52353158D01*
X174186931Y-52234013D01*
X174198040Y-52131990D01*
X174123000Y-52056950D01*
X174123000Y-51837000D01*
X174103000Y-51837000D01*
X174103000Y-51763530D01*
X174198040Y-51668490D01*
X174186931Y-51566467D01*
X174185823Y-51563000D01*
X174377000Y-51563000D01*
X174377000Y-51583000D01*
X174397000Y-51583000D01*
X174397000Y-51837000D01*
X174377000Y-51837000D01*
X174377000Y-52466250D01*
X174535750Y-52625000D01*
X174557077Y-52628065D01*
X174681613Y-52616375D01*
X174801476Y-52580614D01*
X174912059Y-52522156D01*
X175009113Y-52443247D01*
X175022572Y-52427000D01*
X175768000Y-52427000D01*
X175768000Y-52407000D01*
X176022000Y-52407000D01*
X176022000Y-52427000D01*
X177215155Y-52427000D01*
X177336476Y-52197110D01*
X177291825Y-52049901D01*
X177166641Y-51787080D01*
X176992588Y-51553731D01*
X176776355Y-51358822D01*
X176556692Y-51227975D01*
X176772787Y-51083586D01*
X176964586Y-50891787D01*
X177115282Y-50666254D01*
X177219083Y-50415656D01*
X177272000Y-50149623D01*
X177272000Y-49878377D01*
X177219083Y-49612344D01*
X177115282Y-49361746D01*
X176964586Y-49136213D01*
X176772787Y-48944414D01*
X176547254Y-48793718D01*
X176427224Y-48744000D01*
X176547254Y-48694282D01*
X176772787Y-48543586D01*
X176964586Y-48351787D01*
X177115282Y-48126254D01*
X177219083Y-47875656D01*
X177272000Y-47609623D01*
X177272000Y-47338377D01*
X177219083Y-47072344D01*
X177115282Y-46821746D01*
X176964586Y-46596213D01*
X176772787Y-46404414D01*
X176547254Y-46253718D01*
X176427224Y-46204000D01*
X176547254Y-46154282D01*
X176772787Y-46003586D01*
X176964586Y-45811787D01*
X177115282Y-45586254D01*
X177219083Y-45335656D01*
X177272000Y-45069623D01*
X177272000Y-44798377D01*
X177219083Y-44532344D01*
X177115282Y-44281746D01*
X176964586Y-44056213D01*
X176772787Y-43864414D01*
X176636798Y-43773549D01*
X176745000Y-43773549D01*
X176848310Y-43763374D01*
X176947650Y-43733239D01*
X177039202Y-43684304D01*
X177119448Y-43618448D01*
X177185304Y-43538202D01*
X177234239Y-43446650D01*
X177264374Y-43347310D01*
X177274549Y-43244000D01*
X177274549Y-41544000D01*
X177264374Y-41440690D01*
X177234239Y-41341350D01*
X177185304Y-41249798D01*
X177119448Y-41169552D01*
X177039202Y-41103696D01*
X176947650Y-41054761D01*
X176889101Y-41037000D01*
X177463000Y-41037000D01*
X177463001Y-53777566D01*
G04 #@! TA.AperFunction,Conductor*
D29*
G36*
X177463001Y-53777566D02*
G01*
X165777568Y-65463000D01*
X159469762Y-65463000D01*
X159491842Y-65390211D01*
X159502000Y-65287075D01*
X159502000Y-65287065D01*
X159505395Y-65252595D01*
X159502000Y-65218125D01*
X159502000Y-63744777D01*
X159929233Y-64172011D01*
X159951210Y-64198790D01*
X159977989Y-64220767D01*
X159977991Y-64220769D01*
X160058102Y-64286515D01*
X160098491Y-64308103D01*
X160180057Y-64351701D01*
X160312384Y-64391842D01*
X160415520Y-64402000D01*
X160415529Y-64402000D01*
X160449999Y-64405395D01*
X160484469Y-64402000D01*
X160891024Y-64402000D01*
X160909072Y-64420048D01*
X161060901Y-64521496D01*
X161229604Y-64591376D01*
X161408699Y-64627000D01*
X161591301Y-64627000D01*
X161770396Y-64591376D01*
X161939099Y-64521496D01*
X162090928Y-64420048D01*
X162220048Y-64290928D01*
X162321496Y-64139099D01*
X162391376Y-63970396D01*
X162427000Y-63791301D01*
X162427000Y-63608699D01*
X162391376Y-63429604D01*
X162321496Y-63260901D01*
X162220048Y-63109072D01*
X162090928Y-62979952D01*
X161939099Y-62878504D01*
X161770396Y-62808624D01*
X161591301Y-62773000D01*
X161408699Y-62773000D01*
X161229604Y-62808624D01*
X161060901Y-62878504D01*
X160909072Y-62979952D01*
X160891024Y-62998000D01*
X160740778Y-62998000D01*
X160326990Y-62584213D01*
X160326990Y-62005554D01*
X160397917Y-62027070D01*
X160549999Y-62042049D01*
X161450001Y-62042049D01*
X161602083Y-62027070D01*
X161748321Y-61982709D01*
X161883095Y-61910671D01*
X162001225Y-61813725D01*
X162045451Y-61759835D01*
X162045451Y-62200001D01*
X162060430Y-62352083D01*
X162104791Y-62498321D01*
X162176829Y-62633095D01*
X162273775Y-62751225D01*
X162391905Y-62848171D01*
X162426861Y-62866855D01*
X162459008Y-62972829D01*
X162521872Y-63090440D01*
X162585276Y-63167698D01*
X162585279Y-63167701D01*
X162606474Y-63193527D01*
X162632299Y-63214722D01*
X163122778Y-63705201D01*
X163143973Y-63731027D01*
X163169799Y-63752222D01*
X163169801Y-63752224D01*
X163247059Y-63815628D01*
X163364670Y-63878492D01*
X163492285Y-63917204D01*
X163625000Y-63930275D01*
X163658252Y-63927000D01*
X165441755Y-63927000D01*
X165475000Y-63930274D01*
X165508245Y-63927000D01*
X165508252Y-63927000D01*
X165607715Y-63917204D01*
X165735330Y-63878492D01*
X165852941Y-63815628D01*
X165956027Y-63731027D01*
X165977226Y-63705196D01*
X166930205Y-62752218D01*
X166956026Y-62731027D01*
X166977218Y-62705205D01*
X166977224Y-62705199D01*
X167040628Y-62627941D01*
X167103492Y-62510330D01*
X167142204Y-62382715D01*
X167149299Y-62310676D01*
X167235353Y-62336780D01*
X167365000Y-62349549D01*
X167635000Y-62349549D01*
X167764647Y-62336780D01*
X167889312Y-62298963D01*
X168004204Y-62237552D01*
X168104907Y-62154907D01*
X168187552Y-62054204D01*
X168248963Y-61939312D01*
X168286780Y-61814647D01*
X168299549Y-61685000D01*
X168299549Y-61514479D01*
X168328492Y-61460330D01*
X168367204Y-61332715D01*
X168377000Y-61233252D01*
X168377000Y-61233243D01*
X168380274Y-61200001D01*
X168377000Y-61166759D01*
X168377000Y-61149499D01*
X168394202Y-61140304D01*
X168474448Y-61074448D01*
X168540304Y-60994202D01*
X168589239Y-60902650D01*
X168619374Y-60803310D01*
X168629549Y-60700000D01*
X168629549Y-59800000D01*
X168619374Y-59696690D01*
X168589239Y-59597350D01*
X168540304Y-59505798D01*
X168474448Y-59425552D01*
X168394202Y-59359696D01*
X168302650Y-59310761D01*
X168203310Y-59280626D01*
X168166445Y-59276995D01*
X168181026Y-59265029D01*
X168202218Y-59239207D01*
X168202224Y-59239201D01*
X168213126Y-59225917D01*
X168250000Y-59229549D01*
X169050000Y-59229549D01*
X169153310Y-59219374D01*
X169252650Y-59189239D01*
X169344202Y-59140304D01*
X169424448Y-59074448D01*
X169490304Y-58994202D01*
X169539239Y-58902650D01*
X169569374Y-58803310D01*
X169579549Y-58700000D01*
X169579549Y-57800000D01*
X169569374Y-57696690D01*
X169551688Y-57638389D01*
X169665000Y-57649549D01*
X169935000Y-57649549D01*
X170064647Y-57636780D01*
X170189312Y-57598963D01*
X170304204Y-57537552D01*
X170404907Y-57454907D01*
X170487552Y-57354204D01*
X170548963Y-57239312D01*
X170586780Y-57114647D01*
X170599549Y-56985000D01*
X170599549Y-56615000D01*
X170586780Y-56485353D01*
X170548963Y-56360688D01*
X170487552Y-56245796D01*
X170404907Y-56145093D01*
X170304204Y-56062448D01*
X170189312Y-56001037D01*
X170064647Y-55963220D01*
X170015835Y-55958413D01*
X169627000Y-55569578D01*
X169627000Y-55408699D01*
X169591376Y-55229604D01*
X169521496Y-55060901D01*
X169420048Y-54909072D01*
X169290928Y-54779952D01*
X169139099Y-54678504D01*
X168970396Y-54608624D01*
X168791301Y-54573000D01*
X168608699Y-54573000D01*
X168429604Y-54608624D01*
X168260901Y-54678504D01*
X168109072Y-54779952D01*
X167979952Y-54909072D01*
X167878504Y-55060901D01*
X167808624Y-55229604D01*
X167777000Y-55388590D01*
X167777000Y-53980422D01*
X167922873Y-53834549D01*
X168315000Y-53834549D01*
X168418310Y-53824374D01*
X168517650Y-53794239D01*
X168609202Y-53745304D01*
X168689448Y-53679448D01*
X168755304Y-53599202D01*
X168804239Y-53507650D01*
X168834374Y-53408310D01*
X168844549Y-53305000D01*
X168844549Y-52855000D01*
X168834700Y-52755000D01*
X168837249Y-52729123D01*
X168946448Y-52738241D01*
X169401210Y-52735240D01*
X169559960Y-52576490D01*
X169559960Y-51973240D01*
X169539960Y-51973240D01*
X169539960Y-51946250D01*
X169559960Y-51926250D01*
X169559960Y-51753240D01*
X169813960Y-51753240D01*
X169813960Y-51926250D01*
X169860950Y-51973240D01*
X169813960Y-51973240D01*
X169813960Y-52576490D01*
X169932975Y-52695505D01*
X169951476Y-52756495D01*
X169985244Y-52819670D01*
X170001341Y-52849785D01*
X170068447Y-52931553D01*
X170150215Y-52998659D01*
X170243505Y-53048524D01*
X170344730Y-53079230D01*
X170450000Y-53089598D01*
X170476378Y-53087000D01*
X172023622Y-53087000D01*
X172050000Y-53089598D01*
X172076378Y-53087000D01*
X172090228Y-53085636D01*
X172155270Y-53079230D01*
X172256495Y-53048524D01*
X172349785Y-52998659D01*
X172431553Y-52931553D01*
X172448510Y-52910890D01*
X174453524Y-52910890D01*
X174498175Y-53058099D01*
X174623359Y-53320920D01*
X174797412Y-53554269D01*
X175013645Y-53749178D01*
X175263748Y-53898157D01*
X175538109Y-53995481D01*
X175768000Y-53874814D01*
X175768000Y-52681000D01*
X176022000Y-52681000D01*
X176022000Y-53874814D01*
X176251891Y-53995481D01*
X176526252Y-53898157D01*
X176776355Y-53749178D01*
X176992588Y-53554269D01*
X177166641Y-53320920D01*
X177291825Y-53058099D01*
X177336476Y-52910890D01*
X177215155Y-52681000D01*
X176022000Y-52681000D01*
X175768000Y-52681000D01*
X174574845Y-52681000D01*
X174453524Y-52910890D01*
X172448510Y-52910890D01*
X172498659Y-52849785D01*
X172548524Y-52756495D01*
X172567025Y-52695505D01*
X172686040Y-52576490D01*
X172686040Y-51973240D01*
X172587000Y-51973240D01*
X172587000Y-51827240D01*
X172686040Y-51827240D01*
X172686040Y-51753240D01*
X172940040Y-51753240D01*
X172940040Y-51827240D01*
X173305000Y-51827240D01*
X173305000Y-51837002D01*
X173463748Y-51837002D01*
X173327510Y-51973240D01*
X172940040Y-51973240D01*
X172940040Y-52576490D01*
X173098790Y-52735240D01*
X173553552Y-52738241D01*
X173678202Y-52727833D01*
X173798427Y-52693307D01*
X173909606Y-52635990D01*
X173922025Y-52626103D01*
X173942923Y-52628065D01*
X173964250Y-52625000D01*
X174123000Y-52466250D01*
X174123000Y-52399829D01*
X174148846Y-52353158D01*
X174186931Y-52234013D01*
X174198040Y-52131990D01*
X174123000Y-52056950D01*
X174123000Y-51837000D01*
X174103000Y-51837000D01*
X174103000Y-51763530D01*
X174198040Y-51668490D01*
X174186931Y-51566467D01*
X174185823Y-51563000D01*
X174377000Y-51563000D01*
X174377000Y-51583000D01*
X174397000Y-51583000D01*
X174397000Y-51837000D01*
X174377000Y-51837000D01*
X174377000Y-52466250D01*
X174535750Y-52625000D01*
X174557077Y-52628065D01*
X174681613Y-52616375D01*
X174801476Y-52580614D01*
X174912059Y-52522156D01*
X175009113Y-52443247D01*
X175022572Y-52427000D01*
X175768000Y-52427000D01*
X175768000Y-52407000D01*
X176022000Y-52407000D01*
X176022000Y-52427000D01*
X177215155Y-52427000D01*
X177336476Y-52197110D01*
X177291825Y-52049901D01*
X177166641Y-51787080D01*
X176992588Y-51553731D01*
X176776355Y-51358822D01*
X176556692Y-51227975D01*
X176772787Y-51083586D01*
X176964586Y-50891787D01*
X177115282Y-50666254D01*
X177219083Y-50415656D01*
X177272000Y-50149623D01*
X177272000Y-49878377D01*
X177219083Y-49612344D01*
X177115282Y-49361746D01*
X176964586Y-49136213D01*
X176772787Y-48944414D01*
X176547254Y-48793718D01*
X176427224Y-48744000D01*
X176547254Y-48694282D01*
X176772787Y-48543586D01*
X176964586Y-48351787D01*
X177115282Y-48126254D01*
X177219083Y-47875656D01*
X177272000Y-47609623D01*
X177272000Y-47338377D01*
X177219083Y-47072344D01*
X177115282Y-46821746D01*
X176964586Y-46596213D01*
X176772787Y-46404414D01*
X176547254Y-46253718D01*
X176427224Y-46204000D01*
X176547254Y-46154282D01*
X176772787Y-46003586D01*
X176964586Y-45811787D01*
X177115282Y-45586254D01*
X177219083Y-45335656D01*
X177272000Y-45069623D01*
X177272000Y-44798377D01*
X177219083Y-44532344D01*
X177115282Y-44281746D01*
X176964586Y-44056213D01*
X176772787Y-43864414D01*
X176636798Y-43773549D01*
X176745000Y-43773549D01*
X176848310Y-43763374D01*
X176947650Y-43733239D01*
X177039202Y-43684304D01*
X177119448Y-43618448D01*
X177185304Y-43538202D01*
X177234239Y-43446650D01*
X177264374Y-43347310D01*
X177274549Y-43244000D01*
X177274549Y-41544000D01*
X177264374Y-41440690D01*
X177234239Y-41341350D01*
X177185304Y-41249798D01*
X177119448Y-41169552D01*
X177039202Y-41103696D01*
X176947650Y-41054761D01*
X176889101Y-41037000D01*
X177463000Y-41037000D01*
X177463001Y-53777566D01*
G37*
G04 #@! TD.AperFunction*
D28*
X156808699Y-61027000D02*
X156834222Y-61027000D01*
X157061553Y-61254331D01*
X157080761Y-61317650D01*
X157129696Y-61409202D01*
X157195552Y-61489448D01*
X157275798Y-61555304D01*
X157367350Y-61604239D01*
X157466690Y-61634374D01*
X157570000Y-61644549D01*
X158098000Y-61644549D01*
X158098001Y-64961816D01*
X158023000Y-65036817D01*
X158023000Y-64979252D01*
X158026275Y-64946000D01*
X158013204Y-64813285D01*
X157974492Y-64685670D01*
X157911628Y-64568059D01*
X157848224Y-64490801D01*
X157848222Y-64490799D01*
X157827027Y-64464973D01*
X157801201Y-64443778D01*
X156651998Y-63294576D01*
X156651998Y-60995830D01*
X156808699Y-61027000D01*
G04 #@! TA.AperFunction,Conductor*
D29*
G36*
X156808699Y-61027000D02*
G01*
X156834222Y-61027000D01*
X157061553Y-61254331D01*
X157080761Y-61317650D01*
X157129696Y-61409202D01*
X157195552Y-61489448D01*
X157275798Y-61555304D01*
X157367350Y-61604239D01*
X157466690Y-61634374D01*
X157570000Y-61644549D01*
X158098000Y-61644549D01*
X158098001Y-64961816D01*
X158023000Y-65036817D01*
X158023000Y-64979252D01*
X158026275Y-64946000D01*
X158013204Y-64813285D01*
X157974492Y-64685670D01*
X157911628Y-64568059D01*
X157848224Y-64490801D01*
X157848222Y-64490799D01*
X157827027Y-64464973D01*
X157801201Y-64443778D01*
X156651998Y-63294576D01*
X156651998Y-60995830D01*
X156808699Y-61027000D01*
G37*
G04 #@! TD.AperFunction*
D28*
X164040451Y-58136757D02*
X164040451Y-58625000D01*
X164050626Y-58728310D01*
X164080761Y-58827650D01*
X164129696Y-58919202D01*
X164195552Y-58999448D01*
X164275798Y-59065304D01*
X164367350Y-59114239D01*
X164458313Y-59141833D01*
X164471508Y-59185330D01*
X164499455Y-59237615D01*
X164534372Y-59302940D01*
X164569315Y-59345518D01*
X164466690Y-59355626D01*
X164367350Y-59385761D01*
X164275798Y-59434696D01*
X164195552Y-59500552D01*
X164129696Y-59580798D01*
X164080761Y-59672350D01*
X164050626Y-59771690D01*
X164040451Y-59875000D01*
X164040451Y-60525000D01*
X164050626Y-60628310D01*
X164080761Y-60727650D01*
X164094704Y-60753736D01*
X164001829Y-60866905D01*
X164000000Y-60870327D01*
X163998171Y-60866905D01*
X163905296Y-60753736D01*
X163919239Y-60727650D01*
X163949374Y-60628310D01*
X163959549Y-60525000D01*
X163959549Y-59930698D01*
X163960537Y-59929494D01*
X164019502Y-59819180D01*
X164055812Y-59699482D01*
X164068072Y-59575000D01*
X164065000Y-59535750D01*
X163906250Y-59377000D01*
X163603769Y-59377000D01*
X163533310Y-59355626D01*
X163430000Y-59345451D01*
X162370000Y-59345451D01*
X162266690Y-59355626D01*
X162238444Y-59364194D01*
X162176250Y-59302000D01*
X161127000Y-59302000D01*
X161127000Y-59322000D01*
X160873000Y-59322000D01*
X160873000Y-59302000D01*
X160853000Y-59302000D01*
X160853000Y-59048000D01*
X160873000Y-59048000D01*
X160873000Y-59028000D01*
X161127000Y-59028000D01*
X161127000Y-59048000D01*
X161818750Y-59048000D01*
X161893750Y-59123000D01*
X162196231Y-59123000D01*
X162266690Y-59144374D01*
X162370000Y-59154549D01*
X163430000Y-59154549D01*
X163533310Y-59144374D01*
X163603769Y-59123000D01*
X163906250Y-59123000D01*
X164065000Y-58964250D01*
X164068072Y-58925000D01*
X164055812Y-58800518D01*
X164019502Y-58680820D01*
X163960537Y-58570506D01*
X163959549Y-58569302D01*
X163959549Y-58135661D01*
X164040451Y-58136757D01*
G04 #@! TA.AperFunction,Conductor*
D29*
G36*
X164040451Y-58136757D02*
G01*
X164040451Y-58625000D01*
X164050626Y-58728310D01*
X164080761Y-58827650D01*
X164129696Y-58919202D01*
X164195552Y-58999448D01*
X164275798Y-59065304D01*
X164367350Y-59114239D01*
X164458313Y-59141833D01*
X164471508Y-59185330D01*
X164499455Y-59237615D01*
X164534372Y-59302940D01*
X164569315Y-59345518D01*
X164466690Y-59355626D01*
X164367350Y-59385761D01*
X164275798Y-59434696D01*
X164195552Y-59500552D01*
X164129696Y-59580798D01*
X164080761Y-59672350D01*
X164050626Y-59771690D01*
X164040451Y-59875000D01*
X164040451Y-60525000D01*
X164050626Y-60628310D01*
X164080761Y-60727650D01*
X164094704Y-60753736D01*
X164001829Y-60866905D01*
X164000000Y-60870327D01*
X163998171Y-60866905D01*
X163905296Y-60753736D01*
X163919239Y-60727650D01*
X163949374Y-60628310D01*
X163959549Y-60525000D01*
X163959549Y-59930698D01*
X163960537Y-59929494D01*
X164019502Y-59819180D01*
X164055812Y-59699482D01*
X164068072Y-59575000D01*
X164065000Y-59535750D01*
X163906250Y-59377000D01*
X163603769Y-59377000D01*
X163533310Y-59355626D01*
X163430000Y-59345451D01*
X162370000Y-59345451D01*
X162266690Y-59355626D01*
X162238444Y-59364194D01*
X162176250Y-59302000D01*
X161127000Y-59302000D01*
X161127000Y-59322000D01*
X160873000Y-59322000D01*
X160873000Y-59302000D01*
X160853000Y-59302000D01*
X160853000Y-59048000D01*
X160873000Y-59048000D01*
X160873000Y-59028000D01*
X161127000Y-59028000D01*
X161127000Y-59048000D01*
X161818750Y-59048000D01*
X161893750Y-59123000D01*
X162196231Y-59123000D01*
X162266690Y-59144374D01*
X162370000Y-59154549D01*
X163430000Y-59154549D01*
X163533310Y-59144374D01*
X163603769Y-59123000D01*
X163906250Y-59123000D01*
X164065000Y-58964250D01*
X164068072Y-58925000D01*
X164055812Y-58800518D01*
X164019502Y-58680820D01*
X163960537Y-58570506D01*
X163959549Y-58569302D01*
X163959549Y-58135661D01*
X164040451Y-58136757D01*
G37*
G04 #@! TD.AperFunction*
D28*
X166877000Y-58123000D02*
X166897000Y-58123000D01*
X166897000Y-58377000D01*
X166877000Y-58377000D01*
X166877000Y-58397000D01*
X166623000Y-58397000D01*
X166623000Y-58377000D01*
X166603000Y-58377000D01*
X166603000Y-58123000D01*
X166623000Y-58123000D01*
X166623000Y-58103000D01*
X166877000Y-58103000D01*
X166877000Y-58123000D01*
G04 #@! TA.AperFunction,Conductor*
D29*
G36*
X166877000Y-58123000D02*
G01*
X166897000Y-58123000D01*
X166897000Y-58377000D01*
X166877000Y-58377000D01*
X166877000Y-58397000D01*
X166623000Y-58397000D01*
X166623000Y-58377000D01*
X166603000Y-58377000D01*
X166603000Y-58123000D01*
X166623000Y-58123000D01*
X166623000Y-58103000D01*
X166877000Y-58103000D01*
X166877000Y-58123000D01*
G37*
G04 #@! TD.AperFunction*
D28*
X158267285Y-51867204D02*
X158366748Y-51877000D01*
X158366757Y-51877000D01*
X158399999Y-51880274D01*
X158433241Y-51877000D01*
X158467000Y-51877000D01*
X158467000Y-52052000D01*
X158447000Y-52052000D01*
X158447000Y-53068000D01*
X159546250Y-53068000D01*
X159660104Y-52954146D01*
X159760901Y-53021496D01*
X159929604Y-53091376D01*
X160108699Y-53127000D01*
X160291301Y-53127000D01*
X160435451Y-53098327D01*
X160435451Y-53305000D01*
X160445626Y-53408310D01*
X160475761Y-53507650D01*
X160524696Y-53599202D01*
X160590552Y-53679448D01*
X160670798Y-53745304D01*
X160762350Y-53794239D01*
X160861690Y-53824374D01*
X160965000Y-53834549D01*
X161879406Y-53834549D01*
X161878504Y-53835899D01*
X161808624Y-54004602D01*
X161773000Y-54183697D01*
X161773000Y-54366299D01*
X161808624Y-54545394D01*
X161878504Y-54714097D01*
X161979952Y-54865926D01*
X162109072Y-54995046D01*
X162196174Y-55053245D01*
X162218974Y-55081027D01*
X162322060Y-55165628D01*
X162439671Y-55228492D01*
X162567286Y-55267204D01*
X162700000Y-55280275D01*
X162832715Y-55267204D01*
X162960330Y-55228492D01*
X163077941Y-55165628D01*
X163147536Y-55108512D01*
X163209072Y-55170048D01*
X163360901Y-55271496D01*
X163529604Y-55341376D01*
X163708699Y-55377000D01*
X163891301Y-55377000D01*
X164070396Y-55341376D01*
X164239099Y-55271496D01*
X164325002Y-55214098D01*
X164410904Y-55271496D01*
X164579607Y-55341376D01*
X164758702Y-55377000D01*
X164941304Y-55377000D01*
X165120399Y-55341376D01*
X165289102Y-55271496D01*
X165375005Y-55214098D01*
X165460907Y-55271496D01*
X165629610Y-55341376D01*
X165808705Y-55377000D01*
X165991307Y-55377000D01*
X166170402Y-55341376D01*
X166339105Y-55271496D01*
X166423000Y-55215439D01*
X166423000Y-55750761D01*
X166419726Y-55784006D01*
X166423000Y-55817251D01*
X166423000Y-55817257D01*
X166429930Y-55887616D01*
X166432796Y-55916720D01*
X166471508Y-56044335D01*
X166508324Y-56113213D01*
X166486878Y-56101623D01*
X166367348Y-56064765D01*
X166245750Y-56055000D01*
X166087000Y-56213750D01*
X166087000Y-56873000D01*
X166716250Y-56873000D01*
X166875000Y-56714250D01*
X166878065Y-56692923D01*
X166866375Y-56568387D01*
X166840614Y-56482042D01*
X167023001Y-56664429D01*
X167023001Y-57177749D01*
X166877002Y-57323748D01*
X166877002Y-57318401D01*
X166878065Y-57307077D01*
X166877002Y-57299680D01*
X166877002Y-57165000D01*
X166754250Y-57165000D01*
X166716250Y-57127000D01*
X166087000Y-57127000D01*
X166087000Y-57147000D01*
X165833000Y-57147000D01*
X165833000Y-57127000D01*
X165813000Y-57127000D01*
X165813000Y-56873000D01*
X165833000Y-56873000D01*
X165833000Y-56213750D01*
X165674250Y-56055000D01*
X165552652Y-56064765D01*
X165433122Y-56101623D01*
X165323079Y-56161092D01*
X165298218Y-56181687D01*
X165270623Y-56173316D01*
X165140000Y-56160451D01*
X164860000Y-56160451D01*
X164775062Y-56168817D01*
X164775572Y-56100000D01*
X164763312Y-55975518D01*
X164727002Y-55855820D01*
X164668037Y-55745506D01*
X164588685Y-55648815D01*
X164491994Y-55569463D01*
X164381680Y-55510498D01*
X164261982Y-55474188D01*
X164137500Y-55461928D01*
X163910750Y-55465000D01*
X163752000Y-55623750D01*
X163752000Y-56673000D01*
X163772000Y-56673000D01*
X163772000Y-56927000D01*
X163752000Y-56927000D01*
X163752000Y-56947000D01*
X163498000Y-56947000D01*
X163498000Y-56927000D01*
X163478000Y-56927000D01*
X163478000Y-56673000D01*
X163498000Y-56673000D01*
X163498000Y-55623750D01*
X163339250Y-55465000D01*
X163112500Y-55461928D01*
X162988018Y-55474188D01*
X162868320Y-55510498D01*
X162758006Y-55569463D01*
X162661315Y-55648815D01*
X162581963Y-55745506D01*
X162571856Y-55764414D01*
X162495595Y-55701829D01*
X162360821Y-55629791D01*
X162214583Y-55585430D01*
X162062501Y-55570451D01*
X161537499Y-55570451D01*
X161385417Y-55585430D01*
X161239179Y-55629791D01*
X161104405Y-55701829D01*
X160986275Y-55798775D01*
X160889329Y-55916905D01*
X160817291Y-56051679D01*
X160772930Y-56197917D01*
X160757951Y-56349999D01*
X160757951Y-57250001D01*
X160772930Y-57402083D01*
X160794443Y-57473000D01*
X159569750Y-57473000D01*
X159589374Y-57408310D01*
X159599549Y-57305000D01*
X159599549Y-56705000D01*
X159589374Y-56601690D01*
X159559239Y-56502350D01*
X159510304Y-56410798D01*
X159476822Y-56370000D01*
X159510304Y-56329202D01*
X159559239Y-56237650D01*
X159589374Y-56138310D01*
X159599549Y-56035000D01*
X159599549Y-55435000D01*
X159589374Y-55331690D01*
X159559239Y-55232350D01*
X159510304Y-55140798D01*
X159476822Y-55100000D01*
X159510304Y-55059202D01*
X159559239Y-54967650D01*
X159589374Y-54868310D01*
X159599549Y-54765000D01*
X159599549Y-54165000D01*
X159589374Y-54061690D01*
X159559239Y-53962350D01*
X159538997Y-53924480D01*
X159600537Y-53849494D01*
X159659502Y-53739180D01*
X159695812Y-53619482D01*
X159708072Y-53495000D01*
X159705000Y-53480750D01*
X159546250Y-53322000D01*
X158447000Y-53322000D01*
X158447000Y-53342000D01*
X158193000Y-53342000D01*
X158193000Y-53322000D01*
X158173000Y-53322000D01*
X158173000Y-53068000D01*
X158193000Y-53068000D01*
X158193000Y-52052000D01*
X158173000Y-52052000D01*
X158173000Y-51838603D01*
X158267285Y-51867204D01*
G04 #@! TA.AperFunction,Conductor*
D29*
G36*
X158267285Y-51867204D02*
G01*
X158366748Y-51877000D01*
X158366757Y-51877000D01*
X158399999Y-51880274D01*
X158433241Y-51877000D01*
X158467000Y-51877000D01*
X158467000Y-52052000D01*
X158447000Y-52052000D01*
X158447000Y-53068000D01*
X159546250Y-53068000D01*
X159660104Y-52954146D01*
X159760901Y-53021496D01*
X159929604Y-53091376D01*
X160108699Y-53127000D01*
X160291301Y-53127000D01*
X160435451Y-53098327D01*
X160435451Y-53305000D01*
X160445626Y-53408310D01*
X160475761Y-53507650D01*
X160524696Y-53599202D01*
X160590552Y-53679448D01*
X160670798Y-53745304D01*
X160762350Y-53794239D01*
X160861690Y-53824374D01*
X160965000Y-53834549D01*
X161879406Y-53834549D01*
X161878504Y-53835899D01*
X161808624Y-54004602D01*
X161773000Y-54183697D01*
X161773000Y-54366299D01*
X161808624Y-54545394D01*
X161878504Y-54714097D01*
X161979952Y-54865926D01*
X162109072Y-54995046D01*
X162196174Y-55053245D01*
X162218974Y-55081027D01*
X162322060Y-55165628D01*
X162439671Y-55228492D01*
X162567286Y-55267204D01*
X162700000Y-55280275D01*
X162832715Y-55267204D01*
X162960330Y-55228492D01*
X163077941Y-55165628D01*
X163147536Y-55108512D01*
X163209072Y-55170048D01*
X163360901Y-55271496D01*
X163529604Y-55341376D01*
X163708699Y-55377000D01*
X163891301Y-55377000D01*
X164070396Y-55341376D01*
X164239099Y-55271496D01*
X164325002Y-55214098D01*
X164410904Y-55271496D01*
X164579607Y-55341376D01*
X164758702Y-55377000D01*
X164941304Y-55377000D01*
X165120399Y-55341376D01*
X165289102Y-55271496D01*
X165375005Y-55214098D01*
X165460907Y-55271496D01*
X165629610Y-55341376D01*
X165808705Y-55377000D01*
X165991307Y-55377000D01*
X166170402Y-55341376D01*
X166339105Y-55271496D01*
X166423000Y-55215439D01*
X166423000Y-55750761D01*
X166419726Y-55784006D01*
X166423000Y-55817251D01*
X166423000Y-55817257D01*
X166429930Y-55887616D01*
X166432796Y-55916720D01*
X166471508Y-56044335D01*
X166508324Y-56113213D01*
X166486878Y-56101623D01*
X166367348Y-56064765D01*
X166245750Y-56055000D01*
X166087000Y-56213750D01*
X166087000Y-56873000D01*
X166716250Y-56873000D01*
X166875000Y-56714250D01*
X166878065Y-56692923D01*
X166866375Y-56568387D01*
X166840614Y-56482042D01*
X167023001Y-56664429D01*
X167023001Y-57177749D01*
X166877002Y-57323748D01*
X166877002Y-57318401D01*
X166878065Y-57307077D01*
X166877002Y-57299680D01*
X166877002Y-57165000D01*
X166754250Y-57165000D01*
X166716250Y-57127000D01*
X166087000Y-57127000D01*
X166087000Y-57147000D01*
X165833000Y-57147000D01*
X165833000Y-57127000D01*
X165813000Y-57127000D01*
X165813000Y-56873000D01*
X165833000Y-56873000D01*
X165833000Y-56213750D01*
X165674250Y-56055000D01*
X165552652Y-56064765D01*
X165433122Y-56101623D01*
X165323079Y-56161092D01*
X165298218Y-56181687D01*
X165270623Y-56173316D01*
X165140000Y-56160451D01*
X164860000Y-56160451D01*
X164775062Y-56168817D01*
X164775572Y-56100000D01*
X164763312Y-55975518D01*
X164727002Y-55855820D01*
X164668037Y-55745506D01*
X164588685Y-55648815D01*
X164491994Y-55569463D01*
X164381680Y-55510498D01*
X164261982Y-55474188D01*
X164137500Y-55461928D01*
X163910750Y-55465000D01*
X163752000Y-55623750D01*
X163752000Y-56673000D01*
X163772000Y-56673000D01*
X163772000Y-56927000D01*
X163752000Y-56927000D01*
X163752000Y-56947000D01*
X163498000Y-56947000D01*
X163498000Y-56927000D01*
X163478000Y-56927000D01*
X163478000Y-56673000D01*
X163498000Y-56673000D01*
X163498000Y-55623750D01*
X163339250Y-55465000D01*
X163112500Y-55461928D01*
X162988018Y-55474188D01*
X162868320Y-55510498D01*
X162758006Y-55569463D01*
X162661315Y-55648815D01*
X162581963Y-55745506D01*
X162571856Y-55764414D01*
X162495595Y-55701829D01*
X162360821Y-55629791D01*
X162214583Y-55585430D01*
X162062501Y-55570451D01*
X161537499Y-55570451D01*
X161385417Y-55585430D01*
X161239179Y-55629791D01*
X161104405Y-55701829D01*
X160986275Y-55798775D01*
X160889329Y-55916905D01*
X160817291Y-56051679D01*
X160772930Y-56197917D01*
X160757951Y-56349999D01*
X160757951Y-57250001D01*
X160772930Y-57402083D01*
X160794443Y-57473000D01*
X159569750Y-57473000D01*
X159589374Y-57408310D01*
X159599549Y-57305000D01*
X159599549Y-56705000D01*
X159589374Y-56601690D01*
X159559239Y-56502350D01*
X159510304Y-56410798D01*
X159476822Y-56370000D01*
X159510304Y-56329202D01*
X159559239Y-56237650D01*
X159589374Y-56138310D01*
X159599549Y-56035000D01*
X159599549Y-55435000D01*
X159589374Y-55331690D01*
X159559239Y-55232350D01*
X159510304Y-55140798D01*
X159476822Y-55100000D01*
X159510304Y-55059202D01*
X159559239Y-54967650D01*
X159589374Y-54868310D01*
X159599549Y-54765000D01*
X159599549Y-54165000D01*
X159589374Y-54061690D01*
X159559239Y-53962350D01*
X159538997Y-53924480D01*
X159600537Y-53849494D01*
X159659502Y-53739180D01*
X159695812Y-53619482D01*
X159708072Y-53495000D01*
X159705000Y-53480750D01*
X159546250Y-53322000D01*
X158447000Y-53322000D01*
X158447000Y-53342000D01*
X158193000Y-53342000D01*
X158193000Y-53322000D01*
X158173000Y-53322000D01*
X158173000Y-53068000D01*
X158193000Y-53068000D01*
X158193000Y-52052000D01*
X158173000Y-52052000D01*
X158173000Y-51838603D01*
X158267285Y-51867204D01*
G37*
G04 #@! TD.AperFunction*
D28*
X156160901Y-52321496D02*
X156329604Y-52391376D01*
X156508699Y-52427000D01*
X156691301Y-52427000D01*
X156870396Y-52391376D01*
X156947241Y-52359545D01*
X156980498Y-52469180D01*
X157029043Y-52560000D01*
X156980498Y-52650820D01*
X156944188Y-52770518D01*
X156931928Y-52895000D01*
X156935000Y-52909250D01*
X157093748Y-53067998D01*
X156935000Y-53067998D01*
X156935000Y-53143576D01*
X156016305Y-52224881D01*
X156160901Y-52321496D01*
G04 #@! TA.AperFunction,Conductor*
D29*
G36*
X156160901Y-52321496D02*
G01*
X156329604Y-52391376D01*
X156508699Y-52427000D01*
X156691301Y-52427000D01*
X156870396Y-52391376D01*
X156947241Y-52359545D01*
X156980498Y-52469180D01*
X157029043Y-52560000D01*
X156980498Y-52650820D01*
X156944188Y-52770518D01*
X156931928Y-52895000D01*
X156935000Y-52909250D01*
X157093748Y-53067998D01*
X156935000Y-53067998D01*
X156935000Y-53143576D01*
X156016305Y-52224881D01*
X156160901Y-52321496D01*
G37*
G04 #@! TD.AperFunction*
D28*
X156377000Y-50083000D02*
X156397000Y-50083000D01*
X156397000Y-50337000D01*
X156377000Y-50337000D01*
X156377000Y-50357000D01*
X156214422Y-50357000D01*
X156103000Y-50245578D01*
X156103000Y-50083000D01*
X156123000Y-50083000D01*
X156123000Y-50063000D01*
X156377000Y-50063000D01*
X156377000Y-50083000D01*
G04 #@! TA.AperFunction,Conductor*
D29*
G36*
X156377000Y-50083000D02*
G01*
X156397000Y-50083000D01*
X156397000Y-50337000D01*
X156377000Y-50337000D01*
X156377000Y-50357000D01*
X156214422Y-50357000D01*
X156103000Y-50245578D01*
X156103000Y-50083000D01*
X156123000Y-50083000D01*
X156123000Y-50063000D01*
X156377000Y-50063000D01*
X156377000Y-50083000D01*
G37*
G04 #@! TD.AperFunction*
D28*
X163573000Y-50101156D02*
X163539099Y-50078504D01*
X163370396Y-50008624D01*
X163191301Y-49973000D01*
X163129379Y-49973000D01*
X163057941Y-49914372D01*
X162940330Y-49851508D01*
X162915322Y-49843922D01*
X162955608Y-49831701D01*
X163077562Y-49766515D01*
X163184455Y-49678790D01*
X163206436Y-49652006D01*
X163573000Y-49285442D01*
X163573000Y-50101156D01*
G04 #@! TA.AperFunction,Conductor*
D29*
G36*
X163573000Y-50101156D02*
G01*
X163539099Y-50078504D01*
X163370396Y-50008624D01*
X163191301Y-49973000D01*
X163129379Y-49973000D01*
X163057941Y-49914372D01*
X162940330Y-49851508D01*
X162915322Y-49843922D01*
X162955608Y-49831701D01*
X163077562Y-49766515D01*
X163184455Y-49678790D01*
X163206436Y-49652006D01*
X163573000Y-49285442D01*
X163573000Y-50101156D01*
G37*
G04 #@! TD.AperFunction*
D28*
X159263750Y-49923000D02*
X159127002Y-49923000D01*
X159127002Y-49786252D01*
X159263750Y-49923000D01*
G04 #@! TA.AperFunction,Conductor*
D29*
G36*
X159263750Y-49923000D02*
G01*
X159127002Y-49923000D01*
X159127002Y-49786252D01*
X159263750Y-49923000D01*
G37*
G04 #@! TD.AperFunction*
D28*
X154599999Y-47705395D02*
X154634469Y-47702000D01*
X154691580Y-47702000D01*
X154680451Y-47815000D01*
X154680451Y-48185000D01*
X154690837Y-48290451D01*
X154525000Y-48290451D01*
X154421690Y-48300626D01*
X154322350Y-48330761D01*
X154284480Y-48351003D01*
X154209494Y-48289463D01*
X154099180Y-48230498D01*
X153979482Y-48194188D01*
X153855000Y-48181928D01*
X153840750Y-48185000D01*
X153682000Y-48343750D01*
X153682000Y-49443000D01*
X153702000Y-49443000D01*
X153702000Y-49697000D01*
X153682000Y-49697000D01*
X153682000Y-49717000D01*
X153428000Y-49717000D01*
X153428000Y-49697000D01*
X153408000Y-49697000D01*
X153408000Y-49443000D01*
X153428000Y-49443000D01*
X153428000Y-48343750D01*
X153269250Y-48185000D01*
X153255000Y-48181928D01*
X153130518Y-48194188D01*
X153010820Y-48230498D01*
X152954988Y-48260341D01*
X152936701Y-48200057D01*
X152896957Y-48125701D01*
X152871515Y-48078102D01*
X152805769Y-47997991D01*
X152805763Y-47997985D01*
X152783789Y-47971210D01*
X152757015Y-47949237D01*
X152509778Y-47702000D01*
X154565529Y-47702000D01*
X154599999Y-47705395D01*
G04 #@! TA.AperFunction,Conductor*
D29*
G36*
X154599999Y-47705395D02*
G01*
X154634469Y-47702000D01*
X154691580Y-47702000D01*
X154680451Y-47815000D01*
X154680451Y-48185000D01*
X154690837Y-48290451D01*
X154525000Y-48290451D01*
X154421690Y-48300626D01*
X154322350Y-48330761D01*
X154284480Y-48351003D01*
X154209494Y-48289463D01*
X154099180Y-48230498D01*
X153979482Y-48194188D01*
X153855000Y-48181928D01*
X153840750Y-48185000D01*
X153682000Y-48343750D01*
X153682000Y-49443000D01*
X153702000Y-49443000D01*
X153702000Y-49697000D01*
X153682000Y-49697000D01*
X153682000Y-49717000D01*
X153428000Y-49717000D01*
X153428000Y-49697000D01*
X153408000Y-49697000D01*
X153408000Y-49443000D01*
X153428000Y-49443000D01*
X153428000Y-48343750D01*
X153269250Y-48185000D01*
X153255000Y-48181928D01*
X153130518Y-48194188D01*
X153010820Y-48230498D01*
X152954988Y-48260341D01*
X152936701Y-48200057D01*
X152896957Y-48125701D01*
X152871515Y-48078102D01*
X152805769Y-47997991D01*
X152805763Y-47997985D01*
X152783789Y-47971210D01*
X152757015Y-47949237D01*
X152509778Y-47702000D01*
X154565529Y-47702000D01*
X154599999Y-47705395D01*
G37*
G04 #@! TD.AperFunction*
D28*
X159127000Y-48873000D02*
X159147000Y-48873000D01*
X159147000Y-49127000D01*
X159127000Y-49127000D01*
X159127000Y-49147000D01*
X158873000Y-49147000D01*
X158873000Y-49127000D01*
X158859437Y-49127000D01*
X158853000Y-49105780D01*
X158853000Y-48873000D01*
X158873000Y-48873000D01*
X158873000Y-48853000D01*
X159127000Y-48853000D01*
X159127000Y-48873000D01*
G04 #@! TA.AperFunction,Conductor*
D29*
G36*
X159127000Y-48873000D02*
G01*
X159147000Y-48873000D01*
X159147000Y-49127000D01*
X159127000Y-49127000D01*
X159127000Y-49147000D01*
X158873000Y-49147000D01*
X158873000Y-49127000D01*
X158859437Y-49127000D01*
X158853000Y-49105780D01*
X158853000Y-48873000D01*
X158873000Y-48873000D01*
X158873000Y-48853000D01*
X159127000Y-48853000D01*
X159127000Y-48873000D01*
G37*
G04 #@! TD.AperFunction*
D28*
X173072000Y-47484500D02*
X173092000Y-47484500D01*
X173092000Y-47738500D01*
X173072000Y-47738500D01*
X173072000Y-47758500D01*
X172818000Y-47758500D01*
X172818000Y-47738500D01*
X172798000Y-47738500D01*
X172798000Y-47484500D01*
X172818000Y-47484500D01*
X172818000Y-47464500D01*
X173072000Y-47464500D01*
X173072000Y-47484500D01*
G04 #@! TA.AperFunction,Conductor*
D29*
G36*
X173072000Y-47484500D02*
G01*
X173092000Y-47484500D01*
X173092000Y-47738500D01*
X173072000Y-47738500D01*
X173072000Y-47758500D01*
X172818000Y-47758500D01*
X172818000Y-47738500D01*
X172798000Y-47738500D01*
X172798000Y-47484500D01*
X172818000Y-47484500D01*
X172818000Y-47464500D01*
X173072000Y-47464500D01*
X173072000Y-47484500D01*
G37*
G04 #@! TD.AperFunction*
D28*
X171245750Y-46195000D02*
X171367348Y-46185235D01*
X171377000Y-46182259D01*
X171377000Y-46190500D01*
X171397000Y-46190500D01*
X171397000Y-46444500D01*
X171377000Y-46444500D01*
X171377000Y-46464500D01*
X171123000Y-46464500D01*
X171123000Y-46444500D01*
X171103000Y-46444500D01*
X171103000Y-46190500D01*
X171123000Y-46190500D01*
X171123000Y-46170500D01*
X171221250Y-46170500D01*
X171245750Y-46195000D01*
G04 #@! TA.AperFunction,Conductor*
D29*
G36*
X171245750Y-46195000D02*
G01*
X171367348Y-46185235D01*
X171377000Y-46182259D01*
X171377000Y-46190500D01*
X171397000Y-46190500D01*
X171397000Y-46444500D01*
X171377000Y-46444500D01*
X171377000Y-46464500D01*
X171123000Y-46464500D01*
X171123000Y-46444500D01*
X171103000Y-46444500D01*
X171103000Y-46190500D01*
X171123000Y-46190500D01*
X171123000Y-46170500D01*
X171221250Y-46170500D01*
X171245750Y-46195000D01*
G37*
G04 #@! TD.AperFunction*
D28*
X158351623Y-42723122D02*
X158314765Y-42842652D01*
X158305000Y-42964250D01*
X158463750Y-43123000D01*
X159123000Y-43123000D01*
X159123000Y-43103000D01*
X159377000Y-43103000D01*
X159377000Y-43123000D01*
X160036250Y-43123000D01*
X160181521Y-42977729D01*
X160200000Y-42979549D01*
X161500000Y-42979549D01*
X161603310Y-42969374D01*
X161702650Y-42939239D01*
X161794202Y-42890304D01*
X161874448Y-42824448D01*
X161940304Y-42744202D01*
X161976224Y-42677000D01*
X164616025Y-42677000D01*
X166062316Y-44123292D01*
X166091341Y-44158659D01*
X166108816Y-44173000D01*
X163790614Y-44173000D01*
X163750000Y-44169000D01*
X163709386Y-44173000D01*
X163709376Y-44173000D01*
X163587880Y-44184966D01*
X163479278Y-44217910D01*
X163431989Y-44232255D01*
X163288320Y-44309048D01*
X163193949Y-44386497D01*
X163162394Y-44412394D01*
X163136499Y-44443947D01*
X162643942Y-44936505D01*
X162612384Y-44962404D01*
X162565487Y-45019549D01*
X162509038Y-45088331D01*
X162472620Y-45156465D01*
X162432245Y-45232001D01*
X162384956Y-45387891D01*
X162372990Y-45509387D01*
X162372990Y-45509396D01*
X162368990Y-45550010D01*
X162372990Y-45590624D01*
X162372990Y-46443762D01*
X162372957Y-46443699D01*
X162316514Y-46338101D01*
X162250768Y-46257990D01*
X162250762Y-46257984D01*
X162228788Y-46231209D01*
X162202014Y-46209236D01*
X161843019Y-45850241D01*
X161874448Y-45824448D01*
X161940304Y-45744202D01*
X161989239Y-45652650D01*
X162019374Y-45553310D01*
X162029549Y-45450000D01*
X162029549Y-44550000D01*
X162019374Y-44446690D01*
X161989239Y-44347350D01*
X161940304Y-44255798D01*
X161874448Y-44175552D01*
X161794202Y-44109696D01*
X161702650Y-44060761D01*
X161603310Y-44030626D01*
X161500000Y-44020451D01*
X161308060Y-44020451D01*
X161156465Y-43939421D01*
X160981725Y-43886414D01*
X160845539Y-43873001D01*
X160845528Y-43873001D01*
X160800001Y-43868517D01*
X160754474Y-43873001D01*
X160096431Y-43873001D01*
X160148377Y-43776878D01*
X160185235Y-43657348D01*
X160195000Y-43535750D01*
X160036250Y-43377000D01*
X159377000Y-43377000D01*
X159377000Y-43397000D01*
X159123000Y-43397000D01*
X159123000Y-43377000D01*
X158463750Y-43377000D01*
X158305000Y-43535750D01*
X158314765Y-43657348D01*
X158351623Y-43776878D01*
X158403569Y-43873001D01*
X157920679Y-43873001D01*
X157926984Y-43841301D01*
X157926984Y-43795684D01*
X157927000Y-43795522D01*
X157927000Y-43795511D01*
X157931484Y-43749984D01*
X157927000Y-43704457D01*
X157927000Y-42904983D01*
X158154984Y-42677000D01*
X158376548Y-42677000D01*
X158351623Y-42723122D01*
G04 #@! TA.AperFunction,Conductor*
D29*
G36*
X158351623Y-42723122D02*
G01*
X158314765Y-42842652D01*
X158305000Y-42964250D01*
X158463750Y-43123000D01*
X159123000Y-43123000D01*
X159123000Y-43103000D01*
X159377000Y-43103000D01*
X159377000Y-43123000D01*
X160036250Y-43123000D01*
X160181521Y-42977729D01*
X160200000Y-42979549D01*
X161500000Y-42979549D01*
X161603310Y-42969374D01*
X161702650Y-42939239D01*
X161794202Y-42890304D01*
X161874448Y-42824448D01*
X161940304Y-42744202D01*
X161976224Y-42677000D01*
X164616025Y-42677000D01*
X166062316Y-44123292D01*
X166091341Y-44158659D01*
X166108816Y-44173000D01*
X163790614Y-44173000D01*
X163750000Y-44169000D01*
X163709386Y-44173000D01*
X163709376Y-44173000D01*
X163587880Y-44184966D01*
X163479278Y-44217910D01*
X163431989Y-44232255D01*
X163288320Y-44309048D01*
X163193949Y-44386497D01*
X163162394Y-44412394D01*
X163136499Y-44443947D01*
X162643942Y-44936505D01*
X162612384Y-44962404D01*
X162565487Y-45019549D01*
X162509038Y-45088331D01*
X162472620Y-45156465D01*
X162432245Y-45232001D01*
X162384956Y-45387891D01*
X162372990Y-45509387D01*
X162372990Y-45509396D01*
X162368990Y-45550010D01*
X162372990Y-45590624D01*
X162372990Y-46443762D01*
X162372957Y-46443699D01*
X162316514Y-46338101D01*
X162250768Y-46257990D01*
X162250762Y-46257984D01*
X162228788Y-46231209D01*
X162202014Y-46209236D01*
X161843019Y-45850241D01*
X161874448Y-45824448D01*
X161940304Y-45744202D01*
X161989239Y-45652650D01*
X162019374Y-45553310D01*
X162029549Y-45450000D01*
X162029549Y-44550000D01*
X162019374Y-44446690D01*
X161989239Y-44347350D01*
X161940304Y-44255798D01*
X161874448Y-44175552D01*
X161794202Y-44109696D01*
X161702650Y-44060761D01*
X161603310Y-44030626D01*
X161500000Y-44020451D01*
X161308060Y-44020451D01*
X161156465Y-43939421D01*
X160981725Y-43886414D01*
X160845539Y-43873001D01*
X160845528Y-43873001D01*
X160800001Y-43868517D01*
X160754474Y-43873001D01*
X160096431Y-43873001D01*
X160148377Y-43776878D01*
X160185235Y-43657348D01*
X160195000Y-43535750D01*
X160036250Y-43377000D01*
X159377000Y-43377000D01*
X159377000Y-43397000D01*
X159123000Y-43397000D01*
X159123000Y-43377000D01*
X158463750Y-43377000D01*
X158305000Y-43535750D01*
X158314765Y-43657348D01*
X158351623Y-43776878D01*
X158403569Y-43873001D01*
X157920679Y-43873001D01*
X157926984Y-43841301D01*
X157926984Y-43795684D01*
X157927000Y-43795522D01*
X157927000Y-43795511D01*
X157931484Y-43749984D01*
X157927000Y-43704457D01*
X157927000Y-42904983D01*
X158154984Y-42677000D01*
X158376548Y-42677000D01*
X158351623Y-42723122D01*
G37*
G04 #@! TD.AperFunction*
D28*
X174604696Y-43538202D02*
X174670552Y-43618448D01*
X174750798Y-43684304D01*
X174842350Y-43733239D01*
X174941690Y-43763374D01*
X175045000Y-43773549D01*
X175153202Y-43773549D01*
X175017213Y-43864414D01*
X174825414Y-44056213D01*
X174674718Y-44281746D01*
X174570917Y-44532344D01*
X174518000Y-44798377D01*
X174518000Y-45069623D01*
X174559245Y-45276977D01*
X173949549Y-45886674D01*
X173949549Y-45817750D01*
X173935171Y-45671764D01*
X173892588Y-45531388D01*
X173829472Y-45413306D01*
X173972015Y-45270763D01*
X173998789Y-45248790D01*
X174020763Y-45222015D01*
X174020770Y-45222008D01*
X174086515Y-45141897D01*
X174151701Y-45019944D01*
X174191842Y-44887616D01*
X174192741Y-44878492D01*
X174202000Y-44784480D01*
X174202000Y-44784473D01*
X174205395Y-44750000D01*
X174202000Y-44715527D01*
X174202000Y-44271524D01*
X174237552Y-44228204D01*
X174298963Y-44113312D01*
X174336780Y-43988647D01*
X174349549Y-43859000D01*
X174349549Y-43589000D01*
X174343443Y-43527000D01*
X174598708Y-43527000D01*
X174604696Y-43538202D01*
G04 #@! TA.AperFunction,Conductor*
D29*
G36*
X174604696Y-43538202D02*
G01*
X174670552Y-43618448D01*
X174750798Y-43684304D01*
X174842350Y-43733239D01*
X174941690Y-43763374D01*
X175045000Y-43773549D01*
X175153202Y-43773549D01*
X175017213Y-43864414D01*
X174825414Y-44056213D01*
X174674718Y-44281746D01*
X174570917Y-44532344D01*
X174518000Y-44798377D01*
X174518000Y-45069623D01*
X174559245Y-45276977D01*
X173949549Y-45886674D01*
X173949549Y-45817750D01*
X173935171Y-45671764D01*
X173892588Y-45531388D01*
X173829472Y-45413306D01*
X173972015Y-45270763D01*
X173998789Y-45248790D01*
X174020763Y-45222015D01*
X174020770Y-45222008D01*
X174086515Y-45141897D01*
X174151701Y-45019944D01*
X174191842Y-44887616D01*
X174192741Y-44878492D01*
X174202000Y-44784480D01*
X174202000Y-44784473D01*
X174205395Y-44750000D01*
X174202000Y-44715527D01*
X174202000Y-44271524D01*
X174237552Y-44228204D01*
X174298963Y-44113312D01*
X174336780Y-43988647D01*
X174349549Y-43859000D01*
X174349549Y-43589000D01*
X174343443Y-43527000D01*
X174598708Y-43527000D01*
X174604696Y-43538202D01*
G37*
G04 #@! TD.AperFunction*
D28*
X172127000Y-43557500D02*
X172147000Y-43557500D01*
X172147000Y-43811500D01*
X172127000Y-43811500D01*
X172127000Y-44440750D01*
X172285750Y-44599500D01*
X172307077Y-44602565D01*
X172431613Y-44590875D01*
X172551476Y-44555114D01*
X172662059Y-44496656D01*
X172759113Y-44417747D01*
X172798000Y-44370803D01*
X172798000Y-44459222D01*
X172472990Y-44784233D01*
X172446211Y-44806210D01*
X172424234Y-44832989D01*
X172424230Y-44832993D01*
X172358485Y-44913104D01*
X172315267Y-44993959D01*
X172293300Y-45035057D01*
X172253158Y-45167384D01*
X172248392Y-45215771D01*
X172159623Y-45288623D01*
X172066562Y-45402017D01*
X171997412Y-45531388D01*
X171986863Y-45566163D01*
X171912059Y-45505344D01*
X171801476Y-45446886D01*
X171779613Y-45440363D01*
X171716250Y-45377000D01*
X171087000Y-45377000D01*
X171087000Y-45525250D01*
X170964250Y-45402500D01*
X170942923Y-45399435D01*
X170833000Y-45409753D01*
X170833000Y-45377000D01*
X170813000Y-45377000D01*
X170813000Y-45123000D01*
X170833000Y-45123000D01*
X170833000Y-45103000D01*
X171087000Y-45103000D01*
X171087000Y-45123000D01*
X171716250Y-45123000D01*
X171875000Y-44964250D01*
X171878065Y-44942923D01*
X171866375Y-44818387D01*
X171830614Y-44698524D01*
X171775657Y-44594563D01*
X171789240Y-44569150D01*
X171808678Y-44505072D01*
X171873000Y-44440750D01*
X171873000Y-43811500D01*
X171853000Y-43811500D01*
X171853000Y-43557500D01*
X171873000Y-43557500D01*
X171873000Y-43537500D01*
X172127000Y-43537500D01*
X172127000Y-43557500D01*
G04 #@! TA.AperFunction,Conductor*
D29*
G36*
X172127000Y-43557500D02*
G01*
X172147000Y-43557500D01*
X172147000Y-43811500D01*
X172127000Y-43811500D01*
X172127000Y-44440750D01*
X172285750Y-44599500D01*
X172307077Y-44602565D01*
X172431613Y-44590875D01*
X172551476Y-44555114D01*
X172662059Y-44496656D01*
X172759113Y-44417747D01*
X172798000Y-44370803D01*
X172798000Y-44459222D01*
X172472990Y-44784233D01*
X172446211Y-44806210D01*
X172424234Y-44832989D01*
X172424230Y-44832993D01*
X172358485Y-44913104D01*
X172315267Y-44993959D01*
X172293300Y-45035057D01*
X172253158Y-45167384D01*
X172248392Y-45215771D01*
X172159623Y-45288623D01*
X172066562Y-45402017D01*
X171997412Y-45531388D01*
X171986863Y-45566163D01*
X171912059Y-45505344D01*
X171801476Y-45446886D01*
X171779613Y-45440363D01*
X171716250Y-45377000D01*
X171087000Y-45377000D01*
X171087000Y-45525250D01*
X170964250Y-45402500D01*
X170942923Y-45399435D01*
X170833000Y-45409753D01*
X170833000Y-45377000D01*
X170813000Y-45377000D01*
X170813000Y-45123000D01*
X170833000Y-45123000D01*
X170833000Y-45103000D01*
X171087000Y-45103000D01*
X171087000Y-45123000D01*
X171716250Y-45123000D01*
X171875000Y-44964250D01*
X171878065Y-44942923D01*
X171866375Y-44818387D01*
X171830614Y-44698524D01*
X171775657Y-44594563D01*
X171789240Y-44569150D01*
X171808678Y-44505072D01*
X171873000Y-44440750D01*
X171873000Y-43811500D01*
X171853000Y-43811500D01*
X171853000Y-43557500D01*
X171873000Y-43557500D01*
X171873000Y-43537500D01*
X172127000Y-43537500D01*
X172127000Y-43557500D01*
G37*
G04 #@! TD.AperFunction*
D28*
X147661092Y-41113079D02*
X147601623Y-41223122D01*
X147564765Y-41342652D01*
X147555000Y-41464250D01*
X147713750Y-41623000D01*
X148373000Y-41623000D01*
X148373000Y-41603000D01*
X148627000Y-41603000D01*
X148627000Y-41623000D01*
X148647000Y-41623000D01*
X148647000Y-41877000D01*
X148627000Y-41877000D01*
X148627000Y-41897000D01*
X148373000Y-41897000D01*
X148373000Y-41877000D01*
X147713750Y-41877000D01*
X147555000Y-42035750D01*
X147564765Y-42157348D01*
X147601623Y-42276878D01*
X147661092Y-42386921D01*
X147681687Y-42411782D01*
X147673316Y-42439377D01*
X147660451Y-42570000D01*
X147660451Y-42850000D01*
X147667196Y-42918489D01*
X147608310Y-42900626D01*
X147505000Y-42890451D01*
X146905000Y-42890451D01*
X146801690Y-42900626D01*
X146702350Y-42930761D01*
X146610798Y-42979696D01*
X146570000Y-43013178D01*
X146529202Y-42979696D01*
X146437650Y-42930761D01*
X146338310Y-42900626D01*
X146235000Y-42890451D01*
X145635000Y-42890451D01*
X145531690Y-42900626D01*
X145432350Y-42930761D01*
X145340798Y-42979696D01*
X145260552Y-43045552D01*
X145234397Y-43077422D01*
X144381549Y-42224574D01*
X144381549Y-41306000D01*
X144371374Y-41202690D01*
X144341239Y-41103350D01*
X144305775Y-41037000D01*
X147724115Y-41037000D01*
X147661092Y-41113079D01*
G04 #@! TA.AperFunction,Conductor*
D29*
G36*
X147661092Y-41113079D02*
G01*
X147601623Y-41223122D01*
X147564765Y-41342652D01*
X147555000Y-41464250D01*
X147713750Y-41623000D01*
X148373000Y-41623000D01*
X148373000Y-41603000D01*
X148627000Y-41603000D01*
X148627000Y-41623000D01*
X148647000Y-41623000D01*
X148647000Y-41877000D01*
X148627000Y-41877000D01*
X148627000Y-41897000D01*
X148373000Y-41897000D01*
X148373000Y-41877000D01*
X147713750Y-41877000D01*
X147555000Y-42035750D01*
X147564765Y-42157348D01*
X147601623Y-42276878D01*
X147661092Y-42386921D01*
X147681687Y-42411782D01*
X147673316Y-42439377D01*
X147660451Y-42570000D01*
X147660451Y-42850000D01*
X147667196Y-42918489D01*
X147608310Y-42900626D01*
X147505000Y-42890451D01*
X146905000Y-42890451D01*
X146801690Y-42900626D01*
X146702350Y-42930761D01*
X146610798Y-42979696D01*
X146570000Y-43013178D01*
X146529202Y-42979696D01*
X146437650Y-42930761D01*
X146338310Y-42900626D01*
X146235000Y-42890451D01*
X145635000Y-42890451D01*
X145531690Y-42900626D01*
X145432350Y-42930761D01*
X145340798Y-42979696D01*
X145260552Y-43045552D01*
X145234397Y-43077422D01*
X144381549Y-42224574D01*
X144381549Y-41306000D01*
X144371374Y-41202690D01*
X144341239Y-41103350D01*
X144305775Y-41037000D01*
X147724115Y-41037000D01*
X147661092Y-41113079D01*
G37*
G04 #@! TD.AperFunction*
D28*
X154623001Y-42146421D02*
X154623001Y-42353579D01*
X154428801Y-42547779D01*
X154402974Y-42568975D01*
X154381779Y-42594801D01*
X154381777Y-42594803D01*
X154350019Y-42633500D01*
X154339549Y-42646258D01*
X154339549Y-42610000D01*
X154326684Y-42479377D01*
X154318313Y-42451782D01*
X154338908Y-42426921D01*
X154398377Y-42316878D01*
X154435235Y-42197348D01*
X154445000Y-42075750D01*
X154286252Y-41917002D01*
X154393582Y-41917002D01*
X154623001Y-42146421D01*
G04 #@! TA.AperFunction,Conductor*
D29*
G36*
X154623001Y-42146421D02*
G01*
X154623001Y-42353579D01*
X154428801Y-42547779D01*
X154402974Y-42568975D01*
X154381779Y-42594801D01*
X154381777Y-42594803D01*
X154350019Y-42633500D01*
X154339549Y-42646258D01*
X154339549Y-42610000D01*
X154326684Y-42479377D01*
X154318313Y-42451782D01*
X154338908Y-42426921D01*
X154398377Y-42316878D01*
X154435235Y-42197348D01*
X154445000Y-42075750D01*
X154286252Y-41917002D01*
X154393582Y-41917002D01*
X154623001Y-42146421D01*
G37*
G04 #@! TD.AperFunction*
D28*
X174842350Y-41054761D02*
X174750798Y-41103696D01*
X174670552Y-41169552D01*
X174604696Y-41249798D01*
X174555761Y-41341350D01*
X174525626Y-41440690D01*
X174515451Y-41544000D01*
X174515451Y-41673000D01*
X169945526Y-41673000D01*
X169899999Y-41668516D01*
X169854472Y-41673000D01*
X169854462Y-41673000D01*
X169718276Y-41686413D01*
X169543536Y-41739420D01*
X169460184Y-41783973D01*
X169382494Y-41825499D01*
X169276712Y-41912312D01*
X169276708Y-41912316D01*
X169241341Y-41941341D01*
X169212316Y-41976708D01*
X169085074Y-42103950D01*
X168175000Y-42103950D01*
X168071690Y-42114125D01*
X168029248Y-42127000D01*
X167477000Y-42127000D01*
X167477000Y-42147000D01*
X167223000Y-42147000D01*
X167223000Y-42127000D01*
X167203000Y-42127000D01*
X167203000Y-41873000D01*
X167223000Y-41873000D01*
X167223000Y-41853000D01*
X167477000Y-41853000D01*
X167477000Y-41873000D01*
X168476250Y-41873000D01*
X168635000Y-41714250D01*
X168638072Y-41550000D01*
X168625812Y-41425518D01*
X168589502Y-41305820D01*
X168530537Y-41195506D01*
X168451185Y-41098815D01*
X168375863Y-41037000D01*
X174900899Y-41037000D01*
X174842350Y-41054761D01*
G04 #@! TA.AperFunction,Conductor*
D29*
G36*
X174842350Y-41054761D02*
G01*
X174750798Y-41103696D01*
X174670552Y-41169552D01*
X174604696Y-41249798D01*
X174555761Y-41341350D01*
X174525626Y-41440690D01*
X174515451Y-41544000D01*
X174515451Y-41673000D01*
X169945526Y-41673000D01*
X169899999Y-41668516D01*
X169854472Y-41673000D01*
X169854462Y-41673000D01*
X169718276Y-41686413D01*
X169543536Y-41739420D01*
X169460184Y-41783973D01*
X169382494Y-41825499D01*
X169276712Y-41912312D01*
X169276708Y-41912316D01*
X169241341Y-41941341D01*
X169212316Y-41976708D01*
X169085074Y-42103950D01*
X168175000Y-42103950D01*
X168071690Y-42114125D01*
X168029248Y-42127000D01*
X167477000Y-42127000D01*
X167477000Y-42147000D01*
X167223000Y-42147000D01*
X167223000Y-42127000D01*
X167203000Y-42127000D01*
X167203000Y-41873000D01*
X167223000Y-41873000D01*
X167223000Y-41853000D01*
X167477000Y-41853000D01*
X167477000Y-41873000D01*
X168476250Y-41873000D01*
X168635000Y-41714250D01*
X168638072Y-41550000D01*
X168625812Y-41425518D01*
X168589502Y-41305820D01*
X168530537Y-41195506D01*
X168451185Y-41098815D01*
X168375863Y-41037000D01*
X174900899Y-41037000D01*
X174842350Y-41054761D01*
G37*
G04 #@! TD.AperFunction*
D28*
X153647000Y-41917000D02*
X153627000Y-41917000D01*
X153627000Y-41937000D01*
X153373000Y-41937000D01*
X153373000Y-41917000D01*
X153353000Y-41917000D01*
X153353000Y-41786990D01*
X153647000Y-41786990D01*
X153647000Y-41917000D01*
G04 #@! TA.AperFunction,Conductor*
D29*
G36*
X153647000Y-41917000D02*
G01*
X153627000Y-41917000D01*
X153627000Y-41937000D01*
X153373000Y-41937000D01*
X153373000Y-41917000D01*
X153353000Y-41917000D01*
X153353000Y-41786990D01*
X153647000Y-41786990D01*
X153647000Y-41917000D01*
G37*
G04 #@! TD.AperFunction*
D28*
X166248815Y-41098815D02*
X166169463Y-41195506D01*
X166110498Y-41305820D01*
X166074188Y-41425518D01*
X166066325Y-41505350D01*
X165687688Y-41126713D01*
X165658659Y-41091341D01*
X165592444Y-41037000D01*
X166324137Y-41037000D01*
X166248815Y-41098815D01*
G04 #@! TA.AperFunction,Conductor*
D29*
G36*
X166248815Y-41098815D02*
G01*
X166169463Y-41195506D01*
X166110498Y-41305820D01*
X166074188Y-41425518D01*
X166066325Y-41505350D01*
X165687688Y-41126713D01*
X165658659Y-41091341D01*
X165592444Y-41037000D01*
X166324137Y-41037000D01*
X166248815Y-41098815D01*
G37*
G04 #@! TD.AperFunction*
D28*
X151263000Y-118573621D02*
X151260402Y-118600000D01*
X151270770Y-118705270D01*
X151301476Y-118806495D01*
X151332347Y-118864250D01*
X151351341Y-118899785D01*
X151418447Y-118981553D01*
X151500215Y-119048659D01*
X151514622Y-119056360D01*
X151514760Y-119077290D01*
X151673510Y-119236040D01*
X152276760Y-119236040D01*
X152276760Y-119137000D01*
X152422760Y-119137000D01*
X152422760Y-119236040D01*
X152496760Y-119236040D01*
X152496760Y-119490040D01*
X152422760Y-119490040D01*
X152422760Y-119510040D01*
X152276760Y-119510040D01*
X152276760Y-119490040D01*
X151673510Y-119490040D01*
X151514760Y-119648790D01*
X151511759Y-120103552D01*
X151522167Y-120228202D01*
X151556693Y-120348427D01*
X151614010Y-120459606D01*
X151615636Y-120461648D01*
X151613625Y-120468387D01*
X151601935Y-120592923D01*
X151605000Y-120614250D01*
X151763750Y-120773000D01*
X152393000Y-120773000D01*
X152393000Y-120753000D01*
X152647000Y-120753000D01*
X152647000Y-120773000D01*
X152667000Y-120773000D01*
X152667000Y-121027000D01*
X152647000Y-121027000D01*
X152647000Y-121686250D01*
X152805750Y-121845000D01*
X152927348Y-121835235D01*
X153046878Y-121798377D01*
X153156921Y-121738908D01*
X153181782Y-121718313D01*
X153209377Y-121726684D01*
X153340000Y-121739549D01*
X153620000Y-121739549D01*
X153750623Y-121726684D01*
X153876225Y-121688583D01*
X153991981Y-121626710D01*
X154093443Y-121543443D01*
X154176710Y-121441981D01*
X154238583Y-121326225D01*
X154276684Y-121200623D01*
X154289549Y-121070000D01*
X154289549Y-120874432D01*
X154317444Y-120782475D01*
X154327240Y-120683012D01*
X154330515Y-120649760D01*
X154327240Y-120616508D01*
X154327240Y-120338588D01*
X154339479Y-120315690D01*
X154369614Y-120216350D01*
X154379789Y-120113040D01*
X154379789Y-120022966D01*
X154406903Y-120014741D01*
X154528857Y-119949555D01*
X154635750Y-119861830D01*
X154657731Y-119835046D01*
X155172011Y-119320767D01*
X155198790Y-119298790D01*
X155220767Y-119272011D01*
X155220770Y-119272008D01*
X155286515Y-119191897D01*
X155334186Y-119102711D01*
X155351701Y-119069943D01*
X155391842Y-118937616D01*
X155402000Y-118834480D01*
X155402000Y-118834470D01*
X155405395Y-118800000D01*
X155402000Y-118765530D01*
X155402000Y-118254366D01*
X155451059Y-118294628D01*
X155473000Y-118306356D01*
X155473000Y-125000000D01*
X155474612Y-125016370D01*
X155473208Y-125873000D01*
X150527000Y-125873000D01*
X150527000Y-121207077D01*
X151601935Y-121207077D01*
X151613625Y-121331613D01*
X151649386Y-121451476D01*
X151707844Y-121562059D01*
X151786753Y-121659113D01*
X151883079Y-121738908D01*
X151993122Y-121798377D01*
X152112652Y-121835235D01*
X152234250Y-121845000D01*
X152393000Y-121686250D01*
X152393000Y-121027000D01*
X151763750Y-121027000D01*
X151605000Y-121185750D01*
X151601935Y-121207077D01*
X150527000Y-121207077D01*
X150527000Y-118267422D01*
X151205207Y-117589215D01*
X151231038Y-117568016D01*
X151263001Y-117529070D01*
X151263000Y-118573621D01*
G04 #@! TA.AperFunction,Conductor*
D29*
G36*
X151263000Y-118573621D02*
G01*
X151260402Y-118600000D01*
X151270770Y-118705270D01*
X151301476Y-118806495D01*
X151332347Y-118864250D01*
X151351341Y-118899785D01*
X151418447Y-118981553D01*
X151500215Y-119048659D01*
X151514622Y-119056360D01*
X151514760Y-119077290D01*
X151673510Y-119236040D01*
X152276760Y-119236040D01*
X152276760Y-119137000D01*
X152422760Y-119137000D01*
X152422760Y-119236040D01*
X152496760Y-119236040D01*
X152496760Y-119490040D01*
X152422760Y-119490040D01*
X152422760Y-119510040D01*
X152276760Y-119510040D01*
X152276760Y-119490040D01*
X151673510Y-119490040D01*
X151514760Y-119648790D01*
X151511759Y-120103552D01*
X151522167Y-120228202D01*
X151556693Y-120348427D01*
X151614010Y-120459606D01*
X151615636Y-120461648D01*
X151613625Y-120468387D01*
X151601935Y-120592923D01*
X151605000Y-120614250D01*
X151763750Y-120773000D01*
X152393000Y-120773000D01*
X152393000Y-120753000D01*
X152647000Y-120753000D01*
X152647000Y-120773000D01*
X152667000Y-120773000D01*
X152667000Y-121027000D01*
X152647000Y-121027000D01*
X152647000Y-121686250D01*
X152805750Y-121845000D01*
X152927348Y-121835235D01*
X153046878Y-121798377D01*
X153156921Y-121738908D01*
X153181782Y-121718313D01*
X153209377Y-121726684D01*
X153340000Y-121739549D01*
X153620000Y-121739549D01*
X153750623Y-121726684D01*
X153876225Y-121688583D01*
X153991981Y-121626710D01*
X154093443Y-121543443D01*
X154176710Y-121441981D01*
X154238583Y-121326225D01*
X154276684Y-121200623D01*
X154289549Y-121070000D01*
X154289549Y-120874432D01*
X154317444Y-120782475D01*
X154327240Y-120683012D01*
X154330515Y-120649760D01*
X154327240Y-120616508D01*
X154327240Y-120338588D01*
X154339479Y-120315690D01*
X154369614Y-120216350D01*
X154379789Y-120113040D01*
X154379789Y-120022966D01*
X154406903Y-120014741D01*
X154528857Y-119949555D01*
X154635750Y-119861830D01*
X154657731Y-119835046D01*
X155172011Y-119320767D01*
X155198790Y-119298790D01*
X155220767Y-119272011D01*
X155220770Y-119272008D01*
X155286515Y-119191897D01*
X155334186Y-119102711D01*
X155351701Y-119069943D01*
X155391842Y-118937616D01*
X155402000Y-118834480D01*
X155402000Y-118834470D01*
X155405395Y-118800000D01*
X155402000Y-118765530D01*
X155402000Y-118254366D01*
X155451059Y-118294628D01*
X155473000Y-118306356D01*
X155473000Y-125000000D01*
X155474612Y-125016370D01*
X155473208Y-125873000D01*
X150527000Y-125873000D01*
X150527000Y-121207077D01*
X151601935Y-121207077D01*
X151613625Y-121331613D01*
X151649386Y-121451476D01*
X151707844Y-121562059D01*
X151786753Y-121659113D01*
X151883079Y-121738908D01*
X151993122Y-121798377D01*
X152112652Y-121835235D01*
X152234250Y-121845000D01*
X152393000Y-121686250D01*
X152393000Y-121027000D01*
X151763750Y-121027000D01*
X151605000Y-121185750D01*
X151601935Y-121207077D01*
X150527000Y-121207077D01*
X150527000Y-118267422D01*
X151205207Y-117589215D01*
X151231038Y-117568016D01*
X151263001Y-117529070D01*
X151263000Y-118573621D01*
G37*
G04 #@! TD.AperFunction*
D28*
X151460215Y-104308659D02*
X151474622Y-104316360D01*
X151474760Y-104337290D01*
X151633510Y-104496040D01*
X152236760Y-104496040D01*
X152236760Y-104397000D01*
X152382760Y-104397000D01*
X152382760Y-104496040D01*
X152456760Y-104496040D01*
X152456760Y-104750040D01*
X152382760Y-104750040D01*
X152382760Y-105255000D01*
X152292998Y-105255000D01*
X152292998Y-105413748D01*
X152236760Y-105357510D01*
X152236760Y-104750040D01*
X151633510Y-104750040D01*
X151474760Y-104908790D01*
X151471759Y-105363552D01*
X151482167Y-105488202D01*
X151516693Y-105608427D01*
X151544979Y-105663294D01*
X151513625Y-105768387D01*
X151501935Y-105892923D01*
X151505000Y-105914250D01*
X151663750Y-106073000D01*
X152293000Y-106073000D01*
X152293000Y-106053000D01*
X152547000Y-106053000D01*
X152547000Y-106073000D01*
X152567000Y-106073000D01*
X152567000Y-106327000D01*
X152547000Y-106327000D01*
X152547000Y-106986250D01*
X152684858Y-107124108D01*
X152688159Y-107157616D01*
X152714049Y-107242963D01*
X152728300Y-107289943D01*
X152793485Y-107411896D01*
X152859230Y-107492007D01*
X152859234Y-107492011D01*
X152881211Y-107518790D01*
X152907990Y-107540767D01*
X153047711Y-107680488D01*
X153069693Y-107707273D01*
X153176586Y-107794998D01*
X153298540Y-107860184D01*
X153430867Y-107900325D01*
X153534003Y-107910483D01*
X153534012Y-107910483D01*
X153568482Y-107913878D01*
X153602952Y-107910483D01*
X153998000Y-107910483D01*
X153998001Y-113690769D01*
X153920396Y-113658624D01*
X153741301Y-113623000D01*
X153558699Y-113623000D01*
X153379604Y-113658624D01*
X153210901Y-113728504D01*
X153059072Y-113829952D01*
X152929952Y-113959072D01*
X152828504Y-114110901D01*
X152758624Y-114279604D01*
X152723000Y-114458699D01*
X152723000Y-114641301D01*
X152758624Y-114820396D01*
X152828504Y-114989099D01*
X152872998Y-115055690D01*
X152872998Y-115140096D01*
X152835770Y-115119480D01*
X152768250Y-115051960D01*
X152674880Y-115062127D01*
X152581510Y-115051960D01*
X152513990Y-115119480D01*
X152437657Y-115161752D01*
X152342156Y-115242534D01*
X152276760Y-115324680D01*
X152276760Y-115210710D01*
X152118010Y-115051960D01*
X152015987Y-115063069D01*
X151896842Y-115101154D01*
X151787417Y-115161752D01*
X151691916Y-115242534D01*
X151614010Y-115340394D01*
X151556693Y-115451573D01*
X151522167Y-115571798D01*
X151511759Y-115696448D01*
X151514760Y-116151210D01*
X151673510Y-116309960D01*
X152276760Y-116309960D01*
X152276760Y-116262970D01*
X152323750Y-116309960D01*
X152496760Y-116309960D01*
X152496760Y-116563960D01*
X152323750Y-116563960D01*
X152276760Y-116610950D01*
X152276760Y-116563960D01*
X151673510Y-116563960D01*
X151514760Y-116722710D01*
X151514622Y-116743640D01*
X151500215Y-116751341D01*
X151427011Y-116811419D01*
X151427011Y-106507077D01*
X151501935Y-106507077D01*
X151513625Y-106631613D01*
X151549386Y-106751476D01*
X151607844Y-106862059D01*
X151686753Y-106959113D01*
X151783079Y-107038908D01*
X151893122Y-107098377D01*
X152012652Y-107135235D01*
X152134250Y-107145000D01*
X152293000Y-106986250D01*
X152293000Y-106327000D01*
X151663750Y-106327000D01*
X151505000Y-106485750D01*
X151501935Y-106507077D01*
X151427011Y-106507077D01*
X151427011Y-104281409D01*
X151460215Y-104308659D01*
G04 #@! TA.AperFunction,Conductor*
D29*
G36*
X151460215Y-104308659D02*
G01*
X151474622Y-104316360D01*
X151474760Y-104337290D01*
X151633510Y-104496040D01*
X152236760Y-104496040D01*
X152236760Y-104397000D01*
X152382760Y-104397000D01*
X152382760Y-104496040D01*
X152456760Y-104496040D01*
X152456760Y-104750040D01*
X152382760Y-104750040D01*
X152382760Y-105255000D01*
X152292998Y-105255000D01*
X152292998Y-105413748D01*
X152236760Y-105357510D01*
X152236760Y-104750040D01*
X151633510Y-104750040D01*
X151474760Y-104908790D01*
X151471759Y-105363552D01*
X151482167Y-105488202D01*
X151516693Y-105608427D01*
X151544979Y-105663294D01*
X151513625Y-105768387D01*
X151501935Y-105892923D01*
X151505000Y-105914250D01*
X151663750Y-106073000D01*
X152293000Y-106073000D01*
X152293000Y-106053000D01*
X152547000Y-106053000D01*
X152547000Y-106073000D01*
X152567000Y-106073000D01*
X152567000Y-106327000D01*
X152547000Y-106327000D01*
X152547000Y-106986250D01*
X152684858Y-107124108D01*
X152688159Y-107157616D01*
X152714049Y-107242963D01*
X152728300Y-107289943D01*
X152793485Y-107411896D01*
X152859230Y-107492007D01*
X152859234Y-107492011D01*
X152881211Y-107518790D01*
X152907990Y-107540767D01*
X153047711Y-107680488D01*
X153069693Y-107707273D01*
X153176586Y-107794998D01*
X153298540Y-107860184D01*
X153430867Y-107900325D01*
X153534003Y-107910483D01*
X153534012Y-107910483D01*
X153568482Y-107913878D01*
X153602952Y-107910483D01*
X153998000Y-107910483D01*
X153998001Y-113690769D01*
X153920396Y-113658624D01*
X153741301Y-113623000D01*
X153558699Y-113623000D01*
X153379604Y-113658624D01*
X153210901Y-113728504D01*
X153059072Y-113829952D01*
X152929952Y-113959072D01*
X152828504Y-114110901D01*
X152758624Y-114279604D01*
X152723000Y-114458699D01*
X152723000Y-114641301D01*
X152758624Y-114820396D01*
X152828504Y-114989099D01*
X152872998Y-115055690D01*
X152872998Y-115140096D01*
X152835770Y-115119480D01*
X152768250Y-115051960D01*
X152674880Y-115062127D01*
X152581510Y-115051960D01*
X152513990Y-115119480D01*
X152437657Y-115161752D01*
X152342156Y-115242534D01*
X152276760Y-115324680D01*
X152276760Y-115210710D01*
X152118010Y-115051960D01*
X152015987Y-115063069D01*
X151896842Y-115101154D01*
X151787417Y-115161752D01*
X151691916Y-115242534D01*
X151614010Y-115340394D01*
X151556693Y-115451573D01*
X151522167Y-115571798D01*
X151511759Y-115696448D01*
X151514760Y-116151210D01*
X151673510Y-116309960D01*
X152276760Y-116309960D01*
X152276760Y-116262970D01*
X152323750Y-116309960D01*
X152496760Y-116309960D01*
X152496760Y-116563960D01*
X152323750Y-116563960D01*
X152276760Y-116610950D01*
X152276760Y-116563960D01*
X151673510Y-116563960D01*
X151514760Y-116722710D01*
X151514622Y-116743640D01*
X151500215Y-116751341D01*
X151427011Y-116811419D01*
X151427011Y-106507077D01*
X151501935Y-106507077D01*
X151513625Y-106631613D01*
X151549386Y-106751476D01*
X151607844Y-106862059D01*
X151686753Y-106959113D01*
X151783079Y-107038908D01*
X151893122Y-107098377D01*
X152012652Y-107135235D01*
X152134250Y-107145000D01*
X152293000Y-106986250D01*
X152293000Y-106327000D01*
X151663750Y-106327000D01*
X151505000Y-106485750D01*
X151501935Y-106507077D01*
X151427011Y-106507077D01*
X151427011Y-104281409D01*
X151460215Y-104308659D01*
G37*
G04 #@! TD.AperFunction*
D28*
X151450215Y-89508659D02*
X151464622Y-89516360D01*
X151464760Y-89537290D01*
X151623510Y-89696040D01*
X152226760Y-89696040D01*
X152226760Y-89597000D01*
X152372760Y-89597000D01*
X152372760Y-89696040D01*
X152446760Y-89696040D01*
X152446760Y-89950040D01*
X152372760Y-89950040D01*
X152372760Y-89970040D01*
X152226760Y-89970040D01*
X152226760Y-89950040D01*
X151623510Y-89950040D01*
X151464760Y-90108790D01*
X151461759Y-90563552D01*
X151472167Y-90688202D01*
X151506693Y-90808427D01*
X151564010Y-90919606D01*
X151612488Y-90980501D01*
X151601935Y-91092923D01*
X151605000Y-91114250D01*
X151763750Y-91273000D01*
X152393000Y-91273000D01*
X152393000Y-91253000D01*
X152647000Y-91253000D01*
X152647000Y-91273000D01*
X152667000Y-91273000D01*
X152667000Y-91527000D01*
X152647000Y-91527000D01*
X152647000Y-92186250D01*
X152805750Y-92345000D01*
X152927348Y-92335235D01*
X153046878Y-92298377D01*
X153156921Y-92238908D01*
X153181782Y-92218313D01*
X153209377Y-92226684D01*
X153340000Y-92239549D01*
X153620000Y-92239549D01*
X153750623Y-92226684D01*
X153876225Y-92188583D01*
X153991981Y-92126710D01*
X153998000Y-92121770D01*
X153998001Y-100040579D01*
X153427000Y-99469578D01*
X153427000Y-99408699D01*
X153391376Y-99229604D01*
X153321496Y-99060901D01*
X153220048Y-98909072D01*
X153090928Y-98779952D01*
X152939099Y-98678504D01*
X152770396Y-98608624D01*
X152591301Y-98573000D01*
X152408699Y-98573000D01*
X152229604Y-98608624D01*
X152060901Y-98678504D01*
X151909072Y-98779952D01*
X151779952Y-98909072D01*
X151678504Y-99060901D01*
X151608624Y-99229604D01*
X151573000Y-99408699D01*
X151573000Y-99591301D01*
X151608624Y-99770396D01*
X151678504Y-99939099D01*
X151779952Y-100090928D01*
X151909072Y-100220048D01*
X152051027Y-100314898D01*
X151975987Y-100323069D01*
X151856842Y-100361154D01*
X151747417Y-100421752D01*
X151651916Y-100502534D01*
X151574010Y-100600394D01*
X151516693Y-100711573D01*
X151482167Y-100831798D01*
X151471759Y-100956448D01*
X151474760Y-101411210D01*
X151633510Y-101569960D01*
X152236760Y-101569960D01*
X152236760Y-101549960D01*
X152263750Y-101549960D01*
X152283750Y-101569960D01*
X152456760Y-101569960D01*
X152456760Y-101823960D01*
X152283750Y-101823960D01*
X152236760Y-101870950D01*
X152236760Y-101823960D01*
X151633510Y-101823960D01*
X151474760Y-101982710D01*
X151474622Y-102003640D01*
X151460215Y-102011341D01*
X151427011Y-102038591D01*
X151427011Y-91707077D01*
X151601935Y-91707077D01*
X151613625Y-91831613D01*
X151649386Y-91951476D01*
X151707844Y-92062059D01*
X151786753Y-92159113D01*
X151883079Y-92238908D01*
X151993122Y-92298377D01*
X152112652Y-92335235D01*
X152234250Y-92345000D01*
X152393000Y-92186250D01*
X152393000Y-91527000D01*
X151763750Y-91527000D01*
X151605000Y-91685750D01*
X151601935Y-91707077D01*
X151427011Y-91707077D01*
X151427011Y-89489616D01*
X151450215Y-89508659D01*
G04 #@! TA.AperFunction,Conductor*
D29*
G36*
X151450215Y-89508659D02*
G01*
X151464622Y-89516360D01*
X151464760Y-89537290D01*
X151623510Y-89696040D01*
X152226760Y-89696040D01*
X152226760Y-89597000D01*
X152372760Y-89597000D01*
X152372760Y-89696040D01*
X152446760Y-89696040D01*
X152446760Y-89950040D01*
X152372760Y-89950040D01*
X152372760Y-89970040D01*
X152226760Y-89970040D01*
X152226760Y-89950040D01*
X151623510Y-89950040D01*
X151464760Y-90108790D01*
X151461759Y-90563552D01*
X151472167Y-90688202D01*
X151506693Y-90808427D01*
X151564010Y-90919606D01*
X151612488Y-90980501D01*
X151601935Y-91092923D01*
X151605000Y-91114250D01*
X151763750Y-91273000D01*
X152393000Y-91273000D01*
X152393000Y-91253000D01*
X152647000Y-91253000D01*
X152647000Y-91273000D01*
X152667000Y-91273000D01*
X152667000Y-91527000D01*
X152647000Y-91527000D01*
X152647000Y-92186250D01*
X152805750Y-92345000D01*
X152927348Y-92335235D01*
X153046878Y-92298377D01*
X153156921Y-92238908D01*
X153181782Y-92218313D01*
X153209377Y-92226684D01*
X153340000Y-92239549D01*
X153620000Y-92239549D01*
X153750623Y-92226684D01*
X153876225Y-92188583D01*
X153991981Y-92126710D01*
X153998000Y-92121770D01*
X153998001Y-100040579D01*
X153427000Y-99469578D01*
X153427000Y-99408699D01*
X153391376Y-99229604D01*
X153321496Y-99060901D01*
X153220048Y-98909072D01*
X153090928Y-98779952D01*
X152939099Y-98678504D01*
X152770396Y-98608624D01*
X152591301Y-98573000D01*
X152408699Y-98573000D01*
X152229604Y-98608624D01*
X152060901Y-98678504D01*
X151909072Y-98779952D01*
X151779952Y-98909072D01*
X151678504Y-99060901D01*
X151608624Y-99229604D01*
X151573000Y-99408699D01*
X151573000Y-99591301D01*
X151608624Y-99770396D01*
X151678504Y-99939099D01*
X151779952Y-100090928D01*
X151909072Y-100220048D01*
X152051027Y-100314898D01*
X151975987Y-100323069D01*
X151856842Y-100361154D01*
X151747417Y-100421752D01*
X151651916Y-100502534D01*
X151574010Y-100600394D01*
X151516693Y-100711573D01*
X151482167Y-100831798D01*
X151471759Y-100956448D01*
X151474760Y-101411210D01*
X151633510Y-101569960D01*
X152236760Y-101569960D01*
X152236760Y-101549960D01*
X152263750Y-101549960D01*
X152283750Y-101569960D01*
X152456760Y-101569960D01*
X152456760Y-101823960D01*
X152283750Y-101823960D01*
X152236760Y-101870950D01*
X152236760Y-101823960D01*
X151633510Y-101823960D01*
X151474760Y-101982710D01*
X151474622Y-102003640D01*
X151460215Y-102011341D01*
X151427011Y-102038591D01*
X151427011Y-91707077D01*
X151601935Y-91707077D01*
X151613625Y-91831613D01*
X151649386Y-91951476D01*
X151707844Y-92062059D01*
X151786753Y-92159113D01*
X151883079Y-92238908D01*
X151993122Y-92298377D01*
X152112652Y-92335235D01*
X152234250Y-92345000D01*
X152393000Y-92186250D01*
X152393000Y-91527000D01*
X151763750Y-91527000D01*
X151605000Y-91685750D01*
X151601935Y-91707077D01*
X151427011Y-91707077D01*
X151427011Y-89489616D01*
X151450215Y-89508659D01*
G37*
G04 #@! TD.AperFunction*
D28*
X151455715Y-74708659D02*
X151470122Y-74716360D01*
X151470260Y-74737290D01*
X151629010Y-74896040D01*
X152232260Y-74896040D01*
X152232260Y-74797000D01*
X152378260Y-74797000D01*
X152378260Y-74896040D01*
X152452260Y-74896040D01*
X152452260Y-75150040D01*
X152378260Y-75150040D01*
X152378260Y-75555000D01*
X152292998Y-75555000D01*
X152292998Y-75713748D01*
X152232260Y-75653010D01*
X152232260Y-75150040D01*
X151629010Y-75150040D01*
X151470260Y-75308790D01*
X151467259Y-75763552D01*
X151477667Y-75888202D01*
X151512193Y-76008427D01*
X151524431Y-76032166D01*
X151513625Y-76068387D01*
X151501935Y-76192923D01*
X151505000Y-76214250D01*
X151663750Y-76373000D01*
X151896621Y-76373000D01*
X151971487Y-76396931D01*
X152073510Y-76408040D01*
X152108550Y-76373000D01*
X152293000Y-76373000D01*
X152293000Y-76353000D01*
X152481970Y-76353000D01*
X152537010Y-76408040D01*
X152567000Y-76404775D01*
X152567000Y-76627000D01*
X152547000Y-76627000D01*
X152547000Y-77286250D01*
X152705750Y-77445000D01*
X152827348Y-77435235D01*
X152946878Y-77398377D01*
X153056921Y-77338908D01*
X153081782Y-77318313D01*
X153109377Y-77326684D01*
X153240000Y-77339549D01*
X153520000Y-77339549D01*
X153650623Y-77326684D01*
X153776225Y-77288583D01*
X153891981Y-77226710D01*
X153952553Y-77177000D01*
X153998001Y-77177000D01*
X153998000Y-84540578D01*
X153592456Y-84135034D01*
X153591376Y-84129604D01*
X153521496Y-83960901D01*
X153420048Y-83809072D01*
X153290928Y-83679952D01*
X153139099Y-83578504D01*
X152970396Y-83508624D01*
X152791301Y-83473000D01*
X152608699Y-83473000D01*
X152429604Y-83508624D01*
X152260901Y-83578504D01*
X152109072Y-83679952D01*
X151979952Y-83809072D01*
X151878504Y-83960901D01*
X151808624Y-84129604D01*
X151773000Y-84308699D01*
X151773000Y-84491301D01*
X151808624Y-84670396D01*
X151878504Y-84839099D01*
X151979952Y-84990928D01*
X152109072Y-85120048D01*
X152260901Y-85221496D01*
X152429604Y-85291376D01*
X152608699Y-85327000D01*
X152791301Y-85327000D01*
X152856591Y-85314013D01*
X152923001Y-85380423D01*
X152923001Y-85511960D01*
X152822998Y-85511960D01*
X152822998Y-85600096D01*
X152785770Y-85579480D01*
X152718250Y-85511960D01*
X152624880Y-85522127D01*
X152531510Y-85511960D01*
X152463990Y-85579480D01*
X152387657Y-85621752D01*
X152292156Y-85702534D01*
X152226760Y-85784680D01*
X152226760Y-85670710D01*
X152068010Y-85511960D01*
X151965987Y-85523069D01*
X151846842Y-85561154D01*
X151737417Y-85621752D01*
X151641916Y-85702534D01*
X151564010Y-85800394D01*
X151506693Y-85911573D01*
X151472167Y-86031798D01*
X151461759Y-86156448D01*
X151464760Y-86611210D01*
X151623510Y-86769960D01*
X152226760Y-86769960D01*
X152226760Y-86722970D01*
X152273750Y-86769960D01*
X152446760Y-86769960D01*
X152446760Y-87023960D01*
X152273750Y-87023960D01*
X152226760Y-87070950D01*
X152226760Y-87023960D01*
X151623510Y-87023960D01*
X151464760Y-87182710D01*
X151464622Y-87203640D01*
X151450215Y-87211341D01*
X151427011Y-87230384D01*
X151427011Y-76807077D01*
X151501935Y-76807077D01*
X151513625Y-76931613D01*
X151549386Y-77051476D01*
X151607844Y-77162059D01*
X151686753Y-77259113D01*
X151783079Y-77338908D01*
X151893122Y-77398377D01*
X152012652Y-77435235D01*
X152134250Y-77445000D01*
X152293000Y-77286250D01*
X152293000Y-76627000D01*
X151663750Y-76627000D01*
X151505000Y-76785750D01*
X151501935Y-76807077D01*
X151427011Y-76807077D01*
X151427011Y-74685102D01*
X151455715Y-74708659D01*
G04 #@! TA.AperFunction,Conductor*
D29*
G36*
X151455715Y-74708659D02*
G01*
X151470122Y-74716360D01*
X151470260Y-74737290D01*
X151629010Y-74896040D01*
X152232260Y-74896040D01*
X152232260Y-74797000D01*
X152378260Y-74797000D01*
X152378260Y-74896040D01*
X152452260Y-74896040D01*
X152452260Y-75150040D01*
X152378260Y-75150040D01*
X152378260Y-75555000D01*
X152292998Y-75555000D01*
X152292998Y-75713748D01*
X152232260Y-75653010D01*
X152232260Y-75150040D01*
X151629010Y-75150040D01*
X151470260Y-75308790D01*
X151467259Y-75763552D01*
X151477667Y-75888202D01*
X151512193Y-76008427D01*
X151524431Y-76032166D01*
X151513625Y-76068387D01*
X151501935Y-76192923D01*
X151505000Y-76214250D01*
X151663750Y-76373000D01*
X151896621Y-76373000D01*
X151971487Y-76396931D01*
X152073510Y-76408040D01*
X152108550Y-76373000D01*
X152293000Y-76373000D01*
X152293000Y-76353000D01*
X152481970Y-76353000D01*
X152537010Y-76408040D01*
X152567000Y-76404775D01*
X152567000Y-76627000D01*
X152547000Y-76627000D01*
X152547000Y-77286250D01*
X152705750Y-77445000D01*
X152827348Y-77435235D01*
X152946878Y-77398377D01*
X153056921Y-77338908D01*
X153081782Y-77318313D01*
X153109377Y-77326684D01*
X153240000Y-77339549D01*
X153520000Y-77339549D01*
X153650623Y-77326684D01*
X153776225Y-77288583D01*
X153891981Y-77226710D01*
X153952553Y-77177000D01*
X153998001Y-77177000D01*
X153998000Y-84540578D01*
X153592456Y-84135034D01*
X153591376Y-84129604D01*
X153521496Y-83960901D01*
X153420048Y-83809072D01*
X153290928Y-83679952D01*
X153139099Y-83578504D01*
X152970396Y-83508624D01*
X152791301Y-83473000D01*
X152608699Y-83473000D01*
X152429604Y-83508624D01*
X152260901Y-83578504D01*
X152109072Y-83679952D01*
X151979952Y-83809072D01*
X151878504Y-83960901D01*
X151808624Y-84129604D01*
X151773000Y-84308699D01*
X151773000Y-84491301D01*
X151808624Y-84670396D01*
X151878504Y-84839099D01*
X151979952Y-84990928D01*
X152109072Y-85120048D01*
X152260901Y-85221496D01*
X152429604Y-85291376D01*
X152608699Y-85327000D01*
X152791301Y-85327000D01*
X152856591Y-85314013D01*
X152923001Y-85380423D01*
X152923001Y-85511960D01*
X152822998Y-85511960D01*
X152822998Y-85600096D01*
X152785770Y-85579480D01*
X152718250Y-85511960D01*
X152624880Y-85522127D01*
X152531510Y-85511960D01*
X152463990Y-85579480D01*
X152387657Y-85621752D01*
X152292156Y-85702534D01*
X152226760Y-85784680D01*
X152226760Y-85670710D01*
X152068010Y-85511960D01*
X151965987Y-85523069D01*
X151846842Y-85561154D01*
X151737417Y-85621752D01*
X151641916Y-85702534D01*
X151564010Y-85800394D01*
X151506693Y-85911573D01*
X151472167Y-86031798D01*
X151461759Y-86156448D01*
X151464760Y-86611210D01*
X151623510Y-86769960D01*
X152226760Y-86769960D01*
X152226760Y-86722970D01*
X152273750Y-86769960D01*
X152446760Y-86769960D01*
X152446760Y-87023960D01*
X152273750Y-87023960D01*
X152226760Y-87070950D01*
X152226760Y-87023960D01*
X151623510Y-87023960D01*
X151464760Y-87182710D01*
X151464622Y-87203640D01*
X151450215Y-87211341D01*
X151427011Y-87230384D01*
X151427011Y-76807077D01*
X151501935Y-76807077D01*
X151513625Y-76931613D01*
X151549386Y-77051476D01*
X151607844Y-77162059D01*
X151686753Y-77259113D01*
X151783079Y-77338908D01*
X151893122Y-77398377D01*
X152012652Y-77435235D01*
X152134250Y-77445000D01*
X152293000Y-77286250D01*
X152293000Y-76627000D01*
X151663750Y-76627000D01*
X151505000Y-76785750D01*
X151501935Y-76807077D01*
X151427011Y-76807077D01*
X151427011Y-74685102D01*
X151455715Y-74708659D01*
G37*
G04 #@! TD.AperFunction*
D28*
X151478504Y-70739099D02*
X151579952Y-70890928D01*
X151622658Y-70933634D01*
X151569510Y-71000394D01*
X151512193Y-71111573D01*
X151477667Y-71231798D01*
X151467259Y-71356448D01*
X151470260Y-71811210D01*
X151629010Y-71969960D01*
X152232260Y-71969960D01*
X152232260Y-71949960D01*
X152259250Y-71949960D01*
X152279250Y-71969960D01*
X152452260Y-71969960D01*
X152452260Y-72223960D01*
X152279250Y-72223960D01*
X152232260Y-72270950D01*
X152232260Y-72223960D01*
X151629010Y-72223960D01*
X151470260Y-72382710D01*
X151470122Y-72403640D01*
X151455715Y-72411341D01*
X151427011Y-72434898D01*
X151427011Y-70614786D01*
X151478504Y-70739099D01*
G04 #@! TA.AperFunction,Conductor*
D29*
G36*
X151478504Y-70739099D02*
G01*
X151579952Y-70890928D01*
X151622658Y-70933634D01*
X151569510Y-71000394D01*
X151512193Y-71111573D01*
X151477667Y-71231798D01*
X151467259Y-71356448D01*
X151470260Y-71811210D01*
X151629010Y-71969960D01*
X152232260Y-71969960D01*
X152232260Y-71949960D01*
X152259250Y-71949960D01*
X152279250Y-71969960D01*
X152452260Y-71969960D01*
X152452260Y-72223960D01*
X152279250Y-72223960D01*
X152232260Y-72270950D01*
X152232260Y-72223960D01*
X151629010Y-72223960D01*
X151470260Y-72382710D01*
X151470122Y-72403640D01*
X151455715Y-72411341D01*
X151427011Y-72434898D01*
X151427011Y-70614786D01*
X151478504Y-70739099D01*
G37*
G04 #@! TD.AperFunction*
D28*
X152023000Y-67291755D02*
X152019726Y-67325000D01*
X152023000Y-67358245D01*
X152023000Y-67358251D01*
X152032796Y-67457714D01*
X152071508Y-67585329D01*
X152134372Y-67702940D01*
X152218973Y-67806026D01*
X152244800Y-67827222D01*
X152948000Y-68530423D01*
X152948000Y-68591301D01*
X152983624Y-68770396D01*
X153053504Y-68939099D01*
X153154952Y-69090928D01*
X153284072Y-69220048D01*
X153435901Y-69321496D01*
X153604604Y-69391376D01*
X153783699Y-69427000D01*
X153966301Y-69427000D01*
X153998001Y-69420695D01*
X153998001Y-69940579D01*
X153902226Y-69844804D01*
X153881027Y-69818973D01*
X153777941Y-69734372D01*
X153660330Y-69671508D01*
X153532715Y-69632796D01*
X153433252Y-69623000D01*
X153433245Y-69623000D01*
X153400000Y-69619726D01*
X153366755Y-69623000D01*
X152933976Y-69623000D01*
X152890928Y-69579952D01*
X152739099Y-69478504D01*
X152570396Y-69408624D01*
X152391301Y-69373000D01*
X152208699Y-69373000D01*
X152029604Y-69408624D01*
X151860901Y-69478504D01*
X151709072Y-69579952D01*
X151579952Y-69709072D01*
X151478504Y-69860901D01*
X151427011Y-69985214D01*
X151427011Y-65127000D01*
X152023000Y-65127000D01*
X152023000Y-67291755D01*
G04 #@! TA.AperFunction,Conductor*
D29*
G36*
X152023000Y-67291755D02*
G01*
X152019726Y-67325000D01*
X152023000Y-67358245D01*
X152023000Y-67358251D01*
X152032796Y-67457714D01*
X152071508Y-67585329D01*
X152134372Y-67702940D01*
X152218973Y-67806026D01*
X152244800Y-67827222D01*
X152948000Y-68530423D01*
X152948000Y-68591301D01*
X152983624Y-68770396D01*
X153053504Y-68939099D01*
X153154952Y-69090928D01*
X153284072Y-69220048D01*
X153435901Y-69321496D01*
X153604604Y-69391376D01*
X153783699Y-69427000D01*
X153966301Y-69427000D01*
X153998001Y-69420695D01*
X153998001Y-69940579D01*
X153902226Y-69844804D01*
X153881027Y-69818973D01*
X153777941Y-69734372D01*
X153660330Y-69671508D01*
X153532715Y-69632796D01*
X153433252Y-69623000D01*
X153433245Y-69623000D01*
X153400000Y-69619726D01*
X153366755Y-69623000D01*
X152933976Y-69623000D01*
X152890928Y-69579952D01*
X152739099Y-69478504D01*
X152570396Y-69408624D01*
X152391301Y-69373000D01*
X152208699Y-69373000D01*
X152029604Y-69408624D01*
X151860901Y-69478504D01*
X151709072Y-69579952D01*
X151579952Y-69709072D01*
X151478504Y-69860901D01*
X151427011Y-69985214D01*
X151427011Y-65127000D01*
X152023000Y-65127000D01*
X152023000Y-67291755D01*
G37*
G04 #@! TD.AperFunction*
D28*
X154227990Y-66113548D02*
X154201211Y-66135525D01*
X154179234Y-66162304D01*
X154179230Y-66162308D01*
X154113485Y-66242419D01*
X154087317Y-66291376D01*
X154048300Y-66364372D01*
X154012277Y-66483126D01*
X154008159Y-66496700D01*
X153994605Y-66634315D01*
X153998001Y-66668795D01*
X153998001Y-67579305D01*
X153966301Y-67573000D01*
X153905423Y-67573000D01*
X153377000Y-67044578D01*
X153377000Y-65127000D01*
X155214538Y-65127000D01*
X154227990Y-66113548D01*
G04 #@! TA.AperFunction,Conductor*
D29*
G36*
X154227990Y-66113548D02*
G01*
X154201211Y-66135525D01*
X154179234Y-66162304D01*
X154179230Y-66162308D01*
X154113485Y-66242419D01*
X154087317Y-66291376D01*
X154048300Y-66364372D01*
X154012277Y-66483126D01*
X154008159Y-66496700D01*
X153994605Y-66634315D01*
X153998001Y-66668795D01*
X153998001Y-67579305D01*
X153966301Y-67573000D01*
X153905423Y-67573000D01*
X153377000Y-67044578D01*
X153377000Y-65127000D01*
X155214538Y-65127000D01*
X154227990Y-66113548D01*
G37*
G04 #@! TD.AperFunction*
D28*
X158463000Y-109873000D02*
X156127000Y-109873000D01*
X156127000Y-97127000D01*
X158463000Y-97127000D01*
X158463000Y-109873000D01*
G04 #@! TA.AperFunction,Conductor*
D29*
G36*
X158463000Y-109873000D02*
G01*
X156127000Y-109873000D01*
X156127000Y-97127000D01*
X158463000Y-97127000D01*
X158463000Y-109873000D01*
G37*
G04 #@! TD.AperFunction*
M02*
