G04 #@! TF.GenerationSoftware,KiCad,Pcbnew,(5.1.9)-1*
G04 #@! TF.CreationDate,2021-06-08T15:39:03+02:00*
G04 #@! TF.ProjectId,TempSpike,54656d70-5370-4696-9b65-2e6b69636164,rev?*
G04 #@! TF.SameCoordinates,Original*
G04 #@! TF.FileFunction,Soldermask,Top*
G04 #@! TF.FilePolarity,Negative*
%FSLAX46Y46*%
G04 Gerber Fmt 4.6, Leading zero omitted, Abs format (unit mm)*
G04 Created by KiCad (PCBNEW (5.1.9)-1) date 2021-06-08 15:39:03*
%MOMM*%
%LPD*%
G01*
G04 APERTURE LIST*
%ADD10O,1.802000X1.802000*%
%ADD11C,0.100000*%
%ADD12C,0.254000*%
G04 APERTURE END LIST*
G36*
G01*
X142379000Y-52310500D02*
X142379000Y-51889500D01*
G75*
G02*
X142539500Y-51729000I160500J0D01*
G01*
X142860500Y-51729000D01*
G75*
G02*
X143021000Y-51889500I0J-160500D01*
G01*
X143021000Y-52310500D01*
G75*
G02*
X142860500Y-52471000I-160500J0D01*
G01*
X142539500Y-52471000D01*
G75*
G02*
X142379000Y-52310500I0J160500D01*
G01*
G37*
G36*
G01*
X141359000Y-52310500D02*
X141359000Y-51889500D01*
G75*
G02*
X141519500Y-51729000I160500J0D01*
G01*
X141840500Y-51729000D01*
G75*
G02*
X142001000Y-51889500I0J-160500D01*
G01*
X142001000Y-52310500D01*
G75*
G02*
X141840500Y-52471000I-160500J0D01*
G01*
X141519500Y-52471000D01*
G75*
G02*
X141359000Y-52310500I0J160500D01*
G01*
G37*
G36*
G01*
X157659000Y-46210500D02*
X157659000Y-45789500D01*
G75*
G02*
X157819500Y-45629000I160500J0D01*
G01*
X158140500Y-45629000D01*
G75*
G02*
X158301000Y-45789500I0J-160500D01*
G01*
X158301000Y-46210500D01*
G75*
G02*
X158140500Y-46371000I-160500J0D01*
G01*
X157819500Y-46371000D01*
G75*
G02*
X157659000Y-46210500I0J160500D01*
G01*
G37*
G36*
G01*
X158679000Y-46210500D02*
X158679000Y-45789500D01*
G75*
G02*
X158839500Y-45629000I160500J0D01*
G01*
X159160500Y-45629000D01*
G75*
G02*
X159321000Y-45789500I0J-160500D01*
G01*
X159321000Y-46210500D01*
G75*
G02*
X159160500Y-46371000I-160500J0D01*
G01*
X158839500Y-46371000D01*
G75*
G02*
X158679000Y-46210500I0J160500D01*
G01*
G37*
G36*
G01*
X158689000Y-48210500D02*
X158689000Y-47789500D01*
G75*
G02*
X158849500Y-47629000I160500J0D01*
G01*
X159170500Y-47629000D01*
G75*
G02*
X159331000Y-47789500I0J-160500D01*
G01*
X159331000Y-48210500D01*
G75*
G02*
X159170500Y-48371000I-160500J0D01*
G01*
X158849500Y-48371000D01*
G75*
G02*
X158689000Y-48210500I0J160500D01*
G01*
G37*
G36*
G01*
X157669000Y-48210500D02*
X157669000Y-47789500D01*
G75*
G02*
X157829500Y-47629000I160500J0D01*
G01*
X158150500Y-47629000D01*
G75*
G02*
X158311000Y-47789500I0J-160500D01*
G01*
X158311000Y-48210500D01*
G75*
G02*
X158150500Y-48371000I-160500J0D01*
G01*
X157829500Y-48371000D01*
G75*
G02*
X157669000Y-48210500I0J160500D01*
G01*
G37*
G36*
G01*
X141379000Y-53310500D02*
X141379000Y-52889500D01*
G75*
G02*
X141539500Y-52729000I160500J0D01*
G01*
X141860500Y-52729000D01*
G75*
G02*
X142021000Y-52889500I0J-160500D01*
G01*
X142021000Y-53310500D01*
G75*
G02*
X141860500Y-53471000I-160500J0D01*
G01*
X141539500Y-53471000D01*
G75*
G02*
X141379000Y-53310500I0J160500D01*
G01*
G37*
G36*
G01*
X142399000Y-53310500D02*
X142399000Y-52889500D01*
G75*
G02*
X142559500Y-52729000I160500J0D01*
G01*
X142880500Y-52729000D01*
G75*
G02*
X143041000Y-52889500I0J-160500D01*
G01*
X143041000Y-53310500D01*
G75*
G02*
X142880500Y-53471000I-160500J0D01*
G01*
X142559500Y-53471000D01*
G75*
G02*
X142399000Y-53310500I0J160500D01*
G01*
G37*
G36*
G01*
X156179000Y-48210500D02*
X156179000Y-47789500D01*
G75*
G02*
X156339500Y-47629000I160500J0D01*
G01*
X156660500Y-47629000D01*
G75*
G02*
X156821000Y-47789500I0J-160500D01*
G01*
X156821000Y-48210500D01*
G75*
G02*
X156660500Y-48371000I-160500J0D01*
G01*
X156339500Y-48371000D01*
G75*
G02*
X156179000Y-48210500I0J160500D01*
G01*
G37*
G36*
G01*
X155159000Y-48210500D02*
X155159000Y-47789500D01*
G75*
G02*
X155319500Y-47629000I160500J0D01*
G01*
X155640500Y-47629000D01*
G75*
G02*
X155801000Y-47789500I0J-160500D01*
G01*
X155801000Y-48210500D01*
G75*
G02*
X155640500Y-48371000I-160500J0D01*
G01*
X155319500Y-48371000D01*
G75*
G02*
X155159000Y-48210500I0J160500D01*
G01*
G37*
G36*
G01*
X158689000Y-47210500D02*
X158689000Y-46789500D01*
G75*
G02*
X158849500Y-46629000I160500J0D01*
G01*
X159170500Y-46629000D01*
G75*
G02*
X159331000Y-46789500I0J-160500D01*
G01*
X159331000Y-47210500D01*
G75*
G02*
X159170500Y-47371000I-160500J0D01*
G01*
X158849500Y-47371000D01*
G75*
G02*
X158689000Y-47210500I0J160500D01*
G01*
G37*
G36*
G01*
X157669000Y-47210500D02*
X157669000Y-46789500D01*
G75*
G02*
X157829500Y-46629000I160500J0D01*
G01*
X158150500Y-46629000D01*
G75*
G02*
X158311000Y-46789500I0J-160500D01*
G01*
X158311000Y-47210500D01*
G75*
G02*
X158150500Y-47371000I-160500J0D01*
G01*
X157829500Y-47371000D01*
G75*
G02*
X157669000Y-47210500I0J160500D01*
G01*
G37*
G36*
G01*
X155159000Y-47210500D02*
X155159000Y-46789500D01*
G75*
G02*
X155319500Y-46629000I160500J0D01*
G01*
X155640500Y-46629000D01*
G75*
G02*
X155801000Y-46789500I0J-160500D01*
G01*
X155801000Y-47210500D01*
G75*
G02*
X155640500Y-47371000I-160500J0D01*
G01*
X155319500Y-47371000D01*
G75*
G02*
X155159000Y-47210500I0J160500D01*
G01*
G37*
G36*
G01*
X156179000Y-47210500D02*
X156179000Y-46789500D01*
G75*
G02*
X156339500Y-46629000I160500J0D01*
G01*
X156660500Y-46629000D01*
G75*
G02*
X156821000Y-46789500I0J-160500D01*
G01*
X156821000Y-47210500D01*
G75*
G02*
X156660500Y-47371000I-160500J0D01*
G01*
X156339500Y-47371000D01*
G75*
G02*
X156179000Y-47210500I0J160500D01*
G01*
G37*
G36*
G01*
X150371000Y-60515000D02*
X150371000Y-61115000D01*
G75*
G02*
X150320000Y-61166000I-51000J0D01*
G01*
X148820000Y-61166000D01*
G75*
G02*
X148769000Y-61115000I0J51000D01*
G01*
X148769000Y-60515000D01*
G75*
G02*
X148820000Y-60464000I51000J0D01*
G01*
X150320000Y-60464000D01*
G75*
G02*
X150371000Y-60515000I0J-51000D01*
G01*
G37*
G36*
G01*
X150371000Y-59245000D02*
X150371000Y-59845000D01*
G75*
G02*
X150320000Y-59896000I-51000J0D01*
G01*
X148820000Y-59896000D01*
G75*
G02*
X148769000Y-59845000I0J51000D01*
G01*
X148769000Y-59245000D01*
G75*
G02*
X148820000Y-59194000I51000J0D01*
G01*
X150320000Y-59194000D01*
G75*
G02*
X150371000Y-59245000I0J-51000D01*
G01*
G37*
G36*
G01*
X150371000Y-57975000D02*
X150371000Y-58575000D01*
G75*
G02*
X150320000Y-58626000I-51000J0D01*
G01*
X148820000Y-58626000D01*
G75*
G02*
X148769000Y-58575000I0J51000D01*
G01*
X148769000Y-57975000D01*
G75*
G02*
X148820000Y-57924000I51000J0D01*
G01*
X150320000Y-57924000D01*
G75*
G02*
X150371000Y-57975000I0J-51000D01*
G01*
G37*
G36*
G01*
X150371000Y-56705000D02*
X150371000Y-57305000D01*
G75*
G02*
X150320000Y-57356000I-51000J0D01*
G01*
X148820000Y-57356000D01*
G75*
G02*
X148769000Y-57305000I0J51000D01*
G01*
X148769000Y-56705000D01*
G75*
G02*
X148820000Y-56654000I51000J0D01*
G01*
X150320000Y-56654000D01*
G75*
G02*
X150371000Y-56705000I0J-51000D01*
G01*
G37*
G36*
G01*
X150371000Y-55435000D02*
X150371000Y-56035000D01*
G75*
G02*
X150320000Y-56086000I-51000J0D01*
G01*
X148820000Y-56086000D01*
G75*
G02*
X148769000Y-56035000I0J51000D01*
G01*
X148769000Y-55435000D01*
G75*
G02*
X148820000Y-55384000I51000J0D01*
G01*
X150320000Y-55384000D01*
G75*
G02*
X150371000Y-55435000I0J-51000D01*
G01*
G37*
G36*
G01*
X150371000Y-54165000D02*
X150371000Y-54765000D01*
G75*
G02*
X150320000Y-54816000I-51000J0D01*
G01*
X148820000Y-54816000D01*
G75*
G02*
X148769000Y-54765000I0J51000D01*
G01*
X148769000Y-54165000D01*
G75*
G02*
X148820000Y-54114000I51000J0D01*
G01*
X150320000Y-54114000D01*
G75*
G02*
X150371000Y-54165000I0J-51000D01*
G01*
G37*
G36*
G01*
X150371000Y-52895000D02*
X150371000Y-53495000D01*
G75*
G02*
X150320000Y-53546000I-51000J0D01*
G01*
X148820000Y-53546000D01*
G75*
G02*
X148769000Y-53495000I0J51000D01*
G01*
X148769000Y-52895000D01*
G75*
G02*
X148820000Y-52844000I51000J0D01*
G01*
X150320000Y-52844000D01*
G75*
G02*
X150371000Y-52895000I0J-51000D01*
G01*
G37*
G36*
G01*
X150371000Y-51625000D02*
X150371000Y-52225000D01*
G75*
G02*
X150320000Y-52276000I-51000J0D01*
G01*
X148820000Y-52276000D01*
G75*
G02*
X148769000Y-52225000I0J51000D01*
G01*
X148769000Y-51625000D01*
G75*
G02*
X148820000Y-51574000I51000J0D01*
G01*
X150320000Y-51574000D01*
G75*
G02*
X150371000Y-51625000I0J-51000D01*
G01*
G37*
G36*
G01*
X144971000Y-51625000D02*
X144971000Y-52225000D01*
G75*
G02*
X144920000Y-52276000I-51000J0D01*
G01*
X143420000Y-52276000D01*
G75*
G02*
X143369000Y-52225000I0J51000D01*
G01*
X143369000Y-51625000D01*
G75*
G02*
X143420000Y-51574000I51000J0D01*
G01*
X144920000Y-51574000D01*
G75*
G02*
X144971000Y-51625000I0J-51000D01*
G01*
G37*
G36*
G01*
X144971000Y-52895000D02*
X144971000Y-53495000D01*
G75*
G02*
X144920000Y-53546000I-51000J0D01*
G01*
X143420000Y-53546000D01*
G75*
G02*
X143369000Y-53495000I0J51000D01*
G01*
X143369000Y-52895000D01*
G75*
G02*
X143420000Y-52844000I51000J0D01*
G01*
X144920000Y-52844000D01*
G75*
G02*
X144971000Y-52895000I0J-51000D01*
G01*
G37*
G36*
G01*
X144971000Y-54165000D02*
X144971000Y-54765000D01*
G75*
G02*
X144920000Y-54816000I-51000J0D01*
G01*
X143420000Y-54816000D01*
G75*
G02*
X143369000Y-54765000I0J51000D01*
G01*
X143369000Y-54165000D01*
G75*
G02*
X143420000Y-54114000I51000J0D01*
G01*
X144920000Y-54114000D01*
G75*
G02*
X144971000Y-54165000I0J-51000D01*
G01*
G37*
G36*
G01*
X144971000Y-55435000D02*
X144971000Y-56035000D01*
G75*
G02*
X144920000Y-56086000I-51000J0D01*
G01*
X143420000Y-56086000D01*
G75*
G02*
X143369000Y-56035000I0J51000D01*
G01*
X143369000Y-55435000D01*
G75*
G02*
X143420000Y-55384000I51000J0D01*
G01*
X144920000Y-55384000D01*
G75*
G02*
X144971000Y-55435000I0J-51000D01*
G01*
G37*
G36*
G01*
X144971000Y-56705000D02*
X144971000Y-57305000D01*
G75*
G02*
X144920000Y-57356000I-51000J0D01*
G01*
X143420000Y-57356000D01*
G75*
G02*
X143369000Y-57305000I0J51000D01*
G01*
X143369000Y-56705000D01*
G75*
G02*
X143420000Y-56654000I51000J0D01*
G01*
X144920000Y-56654000D01*
G75*
G02*
X144971000Y-56705000I0J-51000D01*
G01*
G37*
G36*
G01*
X144971000Y-57975000D02*
X144971000Y-58575000D01*
G75*
G02*
X144920000Y-58626000I-51000J0D01*
G01*
X143420000Y-58626000D01*
G75*
G02*
X143369000Y-58575000I0J51000D01*
G01*
X143369000Y-57975000D01*
G75*
G02*
X143420000Y-57924000I51000J0D01*
G01*
X144920000Y-57924000D01*
G75*
G02*
X144971000Y-57975000I0J-51000D01*
G01*
G37*
G36*
G01*
X144971000Y-59245000D02*
X144971000Y-59845000D01*
G75*
G02*
X144920000Y-59896000I-51000J0D01*
G01*
X143420000Y-59896000D01*
G75*
G02*
X143369000Y-59845000I0J51000D01*
G01*
X143369000Y-59245000D01*
G75*
G02*
X143420000Y-59194000I51000J0D01*
G01*
X144920000Y-59194000D01*
G75*
G02*
X144971000Y-59245000I0J-51000D01*
G01*
G37*
G36*
G01*
X144971000Y-60515000D02*
X144971000Y-61115000D01*
G75*
G02*
X144920000Y-61166000I-51000J0D01*
G01*
X143420000Y-61166000D01*
G75*
G02*
X143369000Y-61115000I0J51000D01*
G01*
X143369000Y-60515000D01*
G75*
G02*
X143420000Y-60464000I51000J0D01*
G01*
X144920000Y-60464000D01*
G75*
G02*
X144971000Y-60515000I0J-51000D01*
G01*
G37*
G36*
G01*
X159121000Y-60515000D02*
X159121000Y-61115000D01*
G75*
G02*
X159070000Y-61166000I-51000J0D01*
G01*
X157570000Y-61166000D01*
G75*
G02*
X157519000Y-61115000I0J51000D01*
G01*
X157519000Y-60515000D01*
G75*
G02*
X157570000Y-60464000I51000J0D01*
G01*
X159070000Y-60464000D01*
G75*
G02*
X159121000Y-60515000I0J-51000D01*
G01*
G37*
G36*
G01*
X159121000Y-59245000D02*
X159121000Y-59845000D01*
G75*
G02*
X159070000Y-59896000I-51000J0D01*
G01*
X157570000Y-59896000D01*
G75*
G02*
X157519000Y-59845000I0J51000D01*
G01*
X157519000Y-59245000D01*
G75*
G02*
X157570000Y-59194000I51000J0D01*
G01*
X159070000Y-59194000D01*
G75*
G02*
X159121000Y-59245000I0J-51000D01*
G01*
G37*
G36*
G01*
X159121000Y-57975000D02*
X159121000Y-58575000D01*
G75*
G02*
X159070000Y-58626000I-51000J0D01*
G01*
X157570000Y-58626000D01*
G75*
G02*
X157519000Y-58575000I0J51000D01*
G01*
X157519000Y-57975000D01*
G75*
G02*
X157570000Y-57924000I51000J0D01*
G01*
X159070000Y-57924000D01*
G75*
G02*
X159121000Y-57975000I0J-51000D01*
G01*
G37*
G36*
G01*
X159121000Y-56705000D02*
X159121000Y-57305000D01*
G75*
G02*
X159070000Y-57356000I-51000J0D01*
G01*
X157570000Y-57356000D01*
G75*
G02*
X157519000Y-57305000I0J51000D01*
G01*
X157519000Y-56705000D01*
G75*
G02*
X157570000Y-56654000I51000J0D01*
G01*
X159070000Y-56654000D01*
G75*
G02*
X159121000Y-56705000I0J-51000D01*
G01*
G37*
G36*
G01*
X159121000Y-55435000D02*
X159121000Y-56035000D01*
G75*
G02*
X159070000Y-56086000I-51000J0D01*
G01*
X157570000Y-56086000D01*
G75*
G02*
X157519000Y-56035000I0J51000D01*
G01*
X157519000Y-55435000D01*
G75*
G02*
X157570000Y-55384000I51000J0D01*
G01*
X159070000Y-55384000D01*
G75*
G02*
X159121000Y-55435000I0J-51000D01*
G01*
G37*
G36*
G01*
X159121000Y-54165000D02*
X159121000Y-54765000D01*
G75*
G02*
X159070000Y-54816000I-51000J0D01*
G01*
X157570000Y-54816000D01*
G75*
G02*
X157519000Y-54765000I0J51000D01*
G01*
X157519000Y-54165000D01*
G75*
G02*
X157570000Y-54114000I51000J0D01*
G01*
X159070000Y-54114000D01*
G75*
G02*
X159121000Y-54165000I0J-51000D01*
G01*
G37*
G36*
G01*
X159121000Y-52895000D02*
X159121000Y-53495000D01*
G75*
G02*
X159070000Y-53546000I-51000J0D01*
G01*
X157570000Y-53546000D01*
G75*
G02*
X157519000Y-53495000I0J51000D01*
G01*
X157519000Y-52895000D01*
G75*
G02*
X157570000Y-52844000I51000J0D01*
G01*
X159070000Y-52844000D01*
G75*
G02*
X159121000Y-52895000I0J-51000D01*
G01*
G37*
G36*
G01*
X159121000Y-51625000D02*
X159121000Y-52225000D01*
G75*
G02*
X159070000Y-52276000I-51000J0D01*
G01*
X157570000Y-52276000D01*
G75*
G02*
X157519000Y-52225000I0J51000D01*
G01*
X157519000Y-51625000D01*
G75*
G02*
X157570000Y-51574000I51000J0D01*
G01*
X159070000Y-51574000D01*
G75*
G02*
X159121000Y-51625000I0J-51000D01*
G01*
G37*
G36*
G01*
X153721000Y-51625000D02*
X153721000Y-52225000D01*
G75*
G02*
X153670000Y-52276000I-51000J0D01*
G01*
X152170000Y-52276000D01*
G75*
G02*
X152119000Y-52225000I0J51000D01*
G01*
X152119000Y-51625000D01*
G75*
G02*
X152170000Y-51574000I51000J0D01*
G01*
X153670000Y-51574000D01*
G75*
G02*
X153721000Y-51625000I0J-51000D01*
G01*
G37*
G36*
G01*
X153721000Y-52895000D02*
X153721000Y-53495000D01*
G75*
G02*
X153670000Y-53546000I-51000J0D01*
G01*
X152170000Y-53546000D01*
G75*
G02*
X152119000Y-53495000I0J51000D01*
G01*
X152119000Y-52895000D01*
G75*
G02*
X152170000Y-52844000I51000J0D01*
G01*
X153670000Y-52844000D01*
G75*
G02*
X153721000Y-52895000I0J-51000D01*
G01*
G37*
G36*
G01*
X153721000Y-54165000D02*
X153721000Y-54765000D01*
G75*
G02*
X153670000Y-54816000I-51000J0D01*
G01*
X152170000Y-54816000D01*
G75*
G02*
X152119000Y-54765000I0J51000D01*
G01*
X152119000Y-54165000D01*
G75*
G02*
X152170000Y-54114000I51000J0D01*
G01*
X153670000Y-54114000D01*
G75*
G02*
X153721000Y-54165000I0J-51000D01*
G01*
G37*
G36*
G01*
X153721000Y-55435000D02*
X153721000Y-56035000D01*
G75*
G02*
X153670000Y-56086000I-51000J0D01*
G01*
X152170000Y-56086000D01*
G75*
G02*
X152119000Y-56035000I0J51000D01*
G01*
X152119000Y-55435000D01*
G75*
G02*
X152170000Y-55384000I51000J0D01*
G01*
X153670000Y-55384000D01*
G75*
G02*
X153721000Y-55435000I0J-51000D01*
G01*
G37*
G36*
G01*
X153721000Y-56705000D02*
X153721000Y-57305000D01*
G75*
G02*
X153670000Y-57356000I-51000J0D01*
G01*
X152170000Y-57356000D01*
G75*
G02*
X152119000Y-57305000I0J51000D01*
G01*
X152119000Y-56705000D01*
G75*
G02*
X152170000Y-56654000I51000J0D01*
G01*
X153670000Y-56654000D01*
G75*
G02*
X153721000Y-56705000I0J-51000D01*
G01*
G37*
G36*
G01*
X153721000Y-57975000D02*
X153721000Y-58575000D01*
G75*
G02*
X153670000Y-58626000I-51000J0D01*
G01*
X152170000Y-58626000D01*
G75*
G02*
X152119000Y-58575000I0J51000D01*
G01*
X152119000Y-57975000D01*
G75*
G02*
X152170000Y-57924000I51000J0D01*
G01*
X153670000Y-57924000D01*
G75*
G02*
X153721000Y-57975000I0J-51000D01*
G01*
G37*
G36*
G01*
X153721000Y-59245000D02*
X153721000Y-59845000D01*
G75*
G02*
X153670000Y-59896000I-51000J0D01*
G01*
X152170000Y-59896000D01*
G75*
G02*
X152119000Y-59845000I0J51000D01*
G01*
X152119000Y-59245000D01*
G75*
G02*
X152170000Y-59194000I51000J0D01*
G01*
X153670000Y-59194000D01*
G75*
G02*
X153721000Y-59245000I0J-51000D01*
G01*
G37*
G36*
G01*
X153721000Y-60515000D02*
X153721000Y-61115000D01*
G75*
G02*
X153670000Y-61166000I-51000J0D01*
G01*
X152170000Y-61166000D01*
G75*
G02*
X152119000Y-61115000I0J51000D01*
G01*
X152119000Y-60515000D01*
G75*
G02*
X152170000Y-60464000I51000J0D01*
G01*
X153670000Y-60464000D01*
G75*
G02*
X153721000Y-60515000I0J-51000D01*
G01*
G37*
G36*
G01*
X142101000Y-43006000D02*
X142101000Y-41306000D01*
G75*
G02*
X142152000Y-41255000I51000J0D01*
G01*
X143852000Y-41255000D01*
G75*
G02*
X143903000Y-41306000I0J-51000D01*
G01*
X143903000Y-43006000D01*
G75*
G02*
X143852000Y-43057000I-51000J0D01*
G01*
X142152000Y-43057000D01*
G75*
G02*
X142101000Y-43006000I0J51000D01*
G01*
G37*
D10*
X143002000Y-44696000D03*
X143002000Y-47236000D03*
X143002000Y-49776000D03*
G36*
G01*
X174994000Y-43244000D02*
X174994000Y-41544000D01*
G75*
G02*
X175045000Y-41493000I51000J0D01*
G01*
X176745000Y-41493000D01*
G75*
G02*
X176796000Y-41544000I0J-51000D01*
G01*
X176796000Y-43244000D01*
G75*
G02*
X176745000Y-43295000I-51000J0D01*
G01*
X175045000Y-43295000D01*
G75*
G02*
X174994000Y-43244000I0J51000D01*
G01*
G37*
X175895000Y-44934000D03*
X175895000Y-47474000D03*
X175895000Y-50014000D03*
X175895000Y-52554000D03*
G36*
G01*
X173614040Y-51700240D02*
X173614040Y-52100240D01*
G75*
G02*
X173563040Y-52151240I-51000J0D01*
G01*
X172063040Y-52151240D01*
G75*
G02*
X172012040Y-52100240I0J51000D01*
G01*
X172012040Y-51700240D01*
G75*
G02*
X172063040Y-51649240I51000J0D01*
G01*
X173563040Y-51649240D01*
G75*
G02*
X173614040Y-51700240I0J-51000D01*
G01*
G37*
G36*
G01*
X170487960Y-51050000D02*
X170487960Y-51450000D01*
G75*
G02*
X170436960Y-51501000I-51000J0D01*
G01*
X168936960Y-51501000D01*
G75*
G02*
X168885960Y-51450000I0J51000D01*
G01*
X168885960Y-51050000D01*
G75*
G02*
X168936960Y-50999000I51000J0D01*
G01*
X170436960Y-50999000D01*
G75*
G02*
X170487960Y-51050000I0J-51000D01*
G01*
G37*
G36*
G01*
X173614040Y-50399760D02*
X173614040Y-50799760D01*
G75*
G02*
X173563040Y-50850760I-51000J0D01*
G01*
X172063040Y-50850760D01*
G75*
G02*
X172012040Y-50799760I0J51000D01*
G01*
X172012040Y-50399760D01*
G75*
G02*
X172063040Y-50348760I51000J0D01*
G01*
X173563040Y-50348760D01*
G75*
G02*
X173614040Y-50399760I0J-51000D01*
G01*
G37*
G36*
G01*
X170487960Y-50400000D02*
X170487960Y-50800000D01*
G75*
G02*
X170436960Y-50851000I-51000J0D01*
G01*
X168936960Y-50851000D01*
G75*
G02*
X168885960Y-50800000I0J51000D01*
G01*
X168885960Y-50400000D01*
G75*
G02*
X168936960Y-50349000I51000J0D01*
G01*
X170436960Y-50349000D01*
G75*
G02*
X170487960Y-50400000I0J-51000D01*
G01*
G37*
G36*
G01*
X170487960Y-51700240D02*
X170487960Y-52100240D01*
G75*
G02*
X170436960Y-52151240I-51000J0D01*
G01*
X168936960Y-52151240D01*
G75*
G02*
X168885960Y-52100240I0J51000D01*
G01*
X168885960Y-51700240D01*
G75*
G02*
X168936960Y-51649240I51000J0D01*
G01*
X170436960Y-51649240D01*
G75*
G02*
X170487960Y-51700240I0J-51000D01*
G01*
G37*
G36*
G01*
X171445500Y-46648500D02*
X171054500Y-46648500D01*
G75*
G02*
X170889000Y-46483000I0J165500D01*
G01*
X170889000Y-46152000D01*
G75*
G02*
X171054500Y-45986500I165500J0D01*
G01*
X171445500Y-45986500D01*
G75*
G02*
X171611000Y-46152000I0J-165500D01*
G01*
X171611000Y-46483000D01*
G75*
G02*
X171445500Y-46648500I-165500J0D01*
G01*
G37*
G36*
G01*
X171445500Y-47608500D02*
X171054500Y-47608500D01*
G75*
G02*
X170889000Y-47443000I0J165500D01*
G01*
X170889000Y-47112000D01*
G75*
G02*
X171054500Y-46946500I165500J0D01*
G01*
X171445500Y-46946500D01*
G75*
G02*
X171611000Y-47112000I0J-165500D01*
G01*
X171611000Y-47443000D01*
G75*
G02*
X171445500Y-47608500I-165500J0D01*
G01*
G37*
G36*
G01*
X173710500Y-43025000D02*
X173289500Y-43025000D01*
G75*
G02*
X173129000Y-42864500I0J160500D01*
G01*
X173129000Y-42543500D01*
G75*
G02*
X173289500Y-42383000I160500J0D01*
G01*
X173710500Y-42383000D01*
G75*
G02*
X173871000Y-42543500I0J-160500D01*
G01*
X173871000Y-42864500D01*
G75*
G02*
X173710500Y-43025000I-160500J0D01*
G01*
G37*
G36*
G01*
X173710500Y-44045000D02*
X173289500Y-44045000D01*
G75*
G02*
X173129000Y-43884500I0J160500D01*
G01*
X173129000Y-43563500D01*
G75*
G02*
X173289500Y-43403000I160500J0D01*
G01*
X173710500Y-43403000D01*
G75*
G02*
X173871000Y-43563500I0J-160500D01*
G01*
X173871000Y-43884500D01*
G75*
G02*
X173710500Y-44045000I-160500J0D01*
G01*
G37*
G36*
G01*
X167821000Y-61289500D02*
X167821000Y-61710500D01*
G75*
G02*
X167660500Y-61871000I-160500J0D01*
G01*
X167339500Y-61871000D01*
G75*
G02*
X167179000Y-61710500I0J160500D01*
G01*
X167179000Y-61289500D01*
G75*
G02*
X167339500Y-61129000I160500J0D01*
G01*
X167660500Y-61129000D01*
G75*
G02*
X167821000Y-61289500I0J-160500D01*
G01*
G37*
G36*
G01*
X166801000Y-61289500D02*
X166801000Y-61710500D01*
G75*
G02*
X166640500Y-61871000I-160500J0D01*
G01*
X166319500Y-61871000D01*
G75*
G02*
X166159000Y-61710500I0J160500D01*
G01*
X166159000Y-61289500D01*
G75*
G02*
X166319500Y-61129000I160500J0D01*
G01*
X166640500Y-61129000D01*
G75*
G02*
X166801000Y-61289500I0J-160500D01*
G01*
G37*
G36*
G01*
X173226750Y-48100000D02*
X172663250Y-48100000D01*
G75*
G02*
X172419000Y-47855750I0J244250D01*
G01*
X172419000Y-47367250D01*
G75*
G02*
X172663250Y-47123000I244250J0D01*
G01*
X173226750Y-47123000D01*
G75*
G02*
X173471000Y-47367250I0J-244250D01*
G01*
X173471000Y-47855750D01*
G75*
G02*
X173226750Y-48100000I-244250J0D01*
G01*
G37*
G36*
G01*
X173226750Y-46525000D02*
X172663250Y-46525000D01*
G75*
G02*
X172419000Y-46280750I0J244250D01*
G01*
X172419000Y-45792250D01*
G75*
G02*
X172663250Y-45548000I244250J0D01*
G01*
X173226750Y-45548000D01*
G75*
G02*
X173471000Y-45792250I0J-244250D01*
G01*
X173471000Y-46280750D01*
G75*
G02*
X173226750Y-46525000I-244250J0D01*
G01*
G37*
G36*
G01*
X174054500Y-51379000D02*
X174445500Y-51379000D01*
G75*
G02*
X174611000Y-51544500I0J-165500D01*
G01*
X174611000Y-51875500D01*
G75*
G02*
X174445500Y-52041000I-165500J0D01*
G01*
X174054500Y-52041000D01*
G75*
G02*
X173889000Y-51875500I0J165500D01*
G01*
X173889000Y-51544500D01*
G75*
G02*
X174054500Y-51379000I165500J0D01*
G01*
G37*
G36*
G01*
X174054500Y-50419000D02*
X174445500Y-50419000D01*
G75*
G02*
X174611000Y-50584500I0J-165500D01*
G01*
X174611000Y-50915500D01*
G75*
G02*
X174445500Y-51081000I-165500J0D01*
G01*
X174054500Y-51081000D01*
G75*
G02*
X173889000Y-50915500I0J165500D01*
G01*
X173889000Y-50584500D01*
G75*
G02*
X174054500Y-50419000I165500J0D01*
G01*
G37*
G36*
G01*
X160149000Y-42450000D02*
X160149000Y-41550000D01*
G75*
G02*
X160200000Y-41499000I51000J0D01*
G01*
X161500000Y-41499000D01*
G75*
G02*
X161551000Y-41550000I0J-51000D01*
G01*
X161551000Y-42450000D01*
G75*
G02*
X161500000Y-42501000I-51000J0D01*
G01*
X160200000Y-42501000D01*
G75*
G02*
X160149000Y-42450000I0J51000D01*
G01*
G37*
G36*
G01*
X160149000Y-45450000D02*
X160149000Y-44550000D01*
G75*
G02*
X160200000Y-44499000I51000J0D01*
G01*
X161500000Y-44499000D01*
G75*
G02*
X161551000Y-44550000I0J-51000D01*
G01*
X161551000Y-45450000D01*
G75*
G02*
X161500000Y-45501000I-51000J0D01*
G01*
X160200000Y-45501000D01*
G75*
G02*
X160149000Y-45450000I0J51000D01*
G01*
G37*
D11*
G36*
X164809950Y-42583480D02*
G01*
X164819517Y-42586382D01*
X164828334Y-42591095D01*
X164836062Y-42597438D01*
X164842405Y-42605166D01*
X164847118Y-42613983D01*
X164850020Y-42623550D01*
X164851000Y-42633500D01*
X164851000Y-44366500D01*
X164850020Y-44376450D01*
X164847118Y-44386017D01*
X164842405Y-44394834D01*
X164836062Y-44402562D01*
X164828334Y-44408905D01*
X164819517Y-44413618D01*
X164809950Y-44416520D01*
X164800000Y-44417500D01*
X161675000Y-44417500D01*
X161665050Y-44416520D01*
X161655483Y-44413618D01*
X161646666Y-44408905D01*
X161638938Y-44402562D01*
X161632595Y-44394834D01*
X161627882Y-44386017D01*
X161624980Y-44376450D01*
X161624000Y-44366500D01*
X161624000Y-44001000D01*
X160200000Y-44001000D01*
X160190050Y-44000020D01*
X160180483Y-43997118D01*
X160171666Y-43992405D01*
X160163938Y-43986062D01*
X160157595Y-43978334D01*
X160152882Y-43969517D01*
X160149980Y-43959950D01*
X160149000Y-43950000D01*
X160149000Y-43050000D01*
X160149980Y-43040050D01*
X160152882Y-43030483D01*
X160157595Y-43021666D01*
X160163938Y-43013938D01*
X160171666Y-43007595D01*
X160180483Y-43002882D01*
X160190050Y-42999980D01*
X160200000Y-42999000D01*
X161624000Y-42999000D01*
X161624000Y-42633500D01*
X161624980Y-42623550D01*
X161627882Y-42613983D01*
X161632595Y-42605166D01*
X161638938Y-42597438D01*
X161646666Y-42591095D01*
X161655483Y-42586382D01*
X161665050Y-42583480D01*
X161675000Y-42582500D01*
X164800000Y-42582500D01*
X164809950Y-42583480D01*
G37*
G36*
G01*
X148695500Y-42081000D02*
X148304500Y-42081000D01*
G75*
G02*
X148139000Y-41915500I0J165500D01*
G01*
X148139000Y-41584500D01*
G75*
G02*
X148304500Y-41419000I165500J0D01*
G01*
X148695500Y-41419000D01*
G75*
G02*
X148861000Y-41584500I0J-165500D01*
G01*
X148861000Y-41915500D01*
G75*
G02*
X148695500Y-42081000I-165500J0D01*
G01*
G37*
G36*
G01*
X148695500Y-43041000D02*
X148304500Y-43041000D01*
G75*
G02*
X148139000Y-42875500I0J165500D01*
G01*
X148139000Y-42544500D01*
G75*
G02*
X148304500Y-42379000I165500J0D01*
G01*
X148695500Y-42379000D01*
G75*
G02*
X148861000Y-42544500I0J-165500D01*
G01*
X148861000Y-42875500D01*
G75*
G02*
X148695500Y-43041000I-165500J0D01*
G01*
G37*
G36*
G01*
X165629000Y-57195500D02*
X165629000Y-56804500D01*
G75*
G02*
X165794500Y-56639000I165500J0D01*
G01*
X166125500Y-56639000D01*
G75*
G02*
X166291000Y-56804500I0J-165500D01*
G01*
X166291000Y-57195500D01*
G75*
G02*
X166125500Y-57361000I-165500J0D01*
G01*
X165794500Y-57361000D01*
G75*
G02*
X165629000Y-57195500I0J165500D01*
G01*
G37*
G36*
G01*
X164669000Y-57195500D02*
X164669000Y-56804500D01*
G75*
G02*
X164834500Y-56639000I165500J0D01*
G01*
X165165500Y-56639000D01*
G75*
G02*
X165331000Y-56804500I0J-165500D01*
G01*
X165331000Y-57195500D01*
G75*
G02*
X165165500Y-57361000I-165500J0D01*
G01*
X164834500Y-57361000D01*
G75*
G02*
X164669000Y-57195500I0J165500D01*
G01*
G37*
G36*
G01*
X154525000Y-48769000D02*
X155125000Y-48769000D01*
G75*
G02*
X155176000Y-48820000I0J-51000D01*
G01*
X155176000Y-50320000D01*
G75*
G02*
X155125000Y-50371000I-51000J0D01*
G01*
X154525000Y-50371000D01*
G75*
G02*
X154474000Y-50320000I0J51000D01*
G01*
X154474000Y-48820000D01*
G75*
G02*
X154525000Y-48769000I51000J0D01*
G01*
G37*
G36*
G01*
X153255000Y-48769000D02*
X153855000Y-48769000D01*
G75*
G02*
X153906000Y-48820000I0J-51000D01*
G01*
X153906000Y-50320000D01*
G75*
G02*
X153855000Y-50371000I-51000J0D01*
G01*
X153255000Y-50371000D01*
G75*
G02*
X153204000Y-50320000I0J51000D01*
G01*
X153204000Y-48820000D01*
G75*
G02*
X153255000Y-48769000I51000J0D01*
G01*
G37*
G36*
G01*
X151985000Y-48769000D02*
X152585000Y-48769000D01*
G75*
G02*
X152636000Y-48820000I0J-51000D01*
G01*
X152636000Y-50320000D01*
G75*
G02*
X152585000Y-50371000I-51000J0D01*
G01*
X151985000Y-50371000D01*
G75*
G02*
X151934000Y-50320000I0J51000D01*
G01*
X151934000Y-48820000D01*
G75*
G02*
X151985000Y-48769000I51000J0D01*
G01*
G37*
G36*
G01*
X150715000Y-48769000D02*
X151315000Y-48769000D01*
G75*
G02*
X151366000Y-48820000I0J-51000D01*
G01*
X151366000Y-50320000D01*
G75*
G02*
X151315000Y-50371000I-51000J0D01*
G01*
X150715000Y-50371000D01*
G75*
G02*
X150664000Y-50320000I0J51000D01*
G01*
X150664000Y-48820000D01*
G75*
G02*
X150715000Y-48769000I51000J0D01*
G01*
G37*
G36*
G01*
X149445000Y-48769000D02*
X150045000Y-48769000D01*
G75*
G02*
X150096000Y-48820000I0J-51000D01*
G01*
X150096000Y-50320000D01*
G75*
G02*
X150045000Y-50371000I-51000J0D01*
G01*
X149445000Y-50371000D01*
G75*
G02*
X149394000Y-50320000I0J51000D01*
G01*
X149394000Y-48820000D01*
G75*
G02*
X149445000Y-48769000I51000J0D01*
G01*
G37*
G36*
G01*
X148175000Y-48769000D02*
X148775000Y-48769000D01*
G75*
G02*
X148826000Y-48820000I0J-51000D01*
G01*
X148826000Y-50320000D01*
G75*
G02*
X148775000Y-50371000I-51000J0D01*
G01*
X148175000Y-50371000D01*
G75*
G02*
X148124000Y-50320000I0J51000D01*
G01*
X148124000Y-48820000D01*
G75*
G02*
X148175000Y-48769000I51000J0D01*
G01*
G37*
G36*
G01*
X146905000Y-48769000D02*
X147505000Y-48769000D01*
G75*
G02*
X147556000Y-48820000I0J-51000D01*
G01*
X147556000Y-50320000D01*
G75*
G02*
X147505000Y-50371000I-51000J0D01*
G01*
X146905000Y-50371000D01*
G75*
G02*
X146854000Y-50320000I0J51000D01*
G01*
X146854000Y-48820000D01*
G75*
G02*
X146905000Y-48769000I51000J0D01*
G01*
G37*
G36*
G01*
X145635000Y-48769000D02*
X146235000Y-48769000D01*
G75*
G02*
X146286000Y-48820000I0J-51000D01*
G01*
X146286000Y-50320000D01*
G75*
G02*
X146235000Y-50371000I-51000J0D01*
G01*
X145635000Y-50371000D01*
G75*
G02*
X145584000Y-50320000I0J51000D01*
G01*
X145584000Y-48820000D01*
G75*
G02*
X145635000Y-48769000I51000J0D01*
G01*
G37*
G36*
G01*
X145635000Y-43369000D02*
X146235000Y-43369000D01*
G75*
G02*
X146286000Y-43420000I0J-51000D01*
G01*
X146286000Y-44920000D01*
G75*
G02*
X146235000Y-44971000I-51000J0D01*
G01*
X145635000Y-44971000D01*
G75*
G02*
X145584000Y-44920000I0J51000D01*
G01*
X145584000Y-43420000D01*
G75*
G02*
X145635000Y-43369000I51000J0D01*
G01*
G37*
G36*
G01*
X146905000Y-43369000D02*
X147505000Y-43369000D01*
G75*
G02*
X147556000Y-43420000I0J-51000D01*
G01*
X147556000Y-44920000D01*
G75*
G02*
X147505000Y-44971000I-51000J0D01*
G01*
X146905000Y-44971000D01*
G75*
G02*
X146854000Y-44920000I0J51000D01*
G01*
X146854000Y-43420000D01*
G75*
G02*
X146905000Y-43369000I51000J0D01*
G01*
G37*
G36*
G01*
X148175000Y-43369000D02*
X148775000Y-43369000D01*
G75*
G02*
X148826000Y-43420000I0J-51000D01*
G01*
X148826000Y-44920000D01*
G75*
G02*
X148775000Y-44971000I-51000J0D01*
G01*
X148175000Y-44971000D01*
G75*
G02*
X148124000Y-44920000I0J51000D01*
G01*
X148124000Y-43420000D01*
G75*
G02*
X148175000Y-43369000I51000J0D01*
G01*
G37*
G36*
G01*
X149445000Y-43369000D02*
X150045000Y-43369000D01*
G75*
G02*
X150096000Y-43420000I0J-51000D01*
G01*
X150096000Y-44920000D01*
G75*
G02*
X150045000Y-44971000I-51000J0D01*
G01*
X149445000Y-44971000D01*
G75*
G02*
X149394000Y-44920000I0J51000D01*
G01*
X149394000Y-43420000D01*
G75*
G02*
X149445000Y-43369000I51000J0D01*
G01*
G37*
G36*
G01*
X150715000Y-43369000D02*
X151315000Y-43369000D01*
G75*
G02*
X151366000Y-43420000I0J-51000D01*
G01*
X151366000Y-44920000D01*
G75*
G02*
X151315000Y-44971000I-51000J0D01*
G01*
X150715000Y-44971000D01*
G75*
G02*
X150664000Y-44920000I0J51000D01*
G01*
X150664000Y-43420000D01*
G75*
G02*
X150715000Y-43369000I51000J0D01*
G01*
G37*
G36*
G01*
X151985000Y-43369000D02*
X152585000Y-43369000D01*
G75*
G02*
X152636000Y-43420000I0J-51000D01*
G01*
X152636000Y-44920000D01*
G75*
G02*
X152585000Y-44971000I-51000J0D01*
G01*
X151985000Y-44971000D01*
G75*
G02*
X151934000Y-44920000I0J51000D01*
G01*
X151934000Y-43420000D01*
G75*
G02*
X151985000Y-43369000I51000J0D01*
G01*
G37*
G36*
G01*
X153255000Y-43369000D02*
X153855000Y-43369000D01*
G75*
G02*
X153906000Y-43420000I0J-51000D01*
G01*
X153906000Y-44920000D01*
G75*
G02*
X153855000Y-44971000I-51000J0D01*
G01*
X153255000Y-44971000D01*
G75*
G02*
X153204000Y-44920000I0J51000D01*
G01*
X153204000Y-43420000D01*
G75*
G02*
X153255000Y-43369000I51000J0D01*
G01*
G37*
G36*
G01*
X154525000Y-43369000D02*
X155125000Y-43369000D01*
G75*
G02*
X155176000Y-43420000I0J-51000D01*
G01*
X155176000Y-44920000D01*
G75*
G02*
X155125000Y-44971000I-51000J0D01*
G01*
X154525000Y-44971000D01*
G75*
G02*
X154474000Y-44920000I0J51000D01*
G01*
X154474000Y-43420000D01*
G75*
G02*
X154525000Y-43369000I51000J0D01*
G01*
G37*
G36*
G01*
X160914000Y-47455000D02*
X160914000Y-47005000D01*
G75*
G02*
X160965000Y-46954000I51000J0D01*
G01*
X162415000Y-46954000D01*
G75*
G02*
X162466000Y-47005000I0J-51000D01*
G01*
X162466000Y-47455000D01*
G75*
G02*
X162415000Y-47506000I-51000J0D01*
G01*
X160965000Y-47506000D01*
G75*
G02*
X160914000Y-47455000I0J51000D01*
G01*
G37*
G36*
G01*
X160914000Y-48105000D02*
X160914000Y-47655000D01*
G75*
G02*
X160965000Y-47604000I51000J0D01*
G01*
X162415000Y-47604000D01*
G75*
G02*
X162466000Y-47655000I0J-51000D01*
G01*
X162466000Y-48105000D01*
G75*
G02*
X162415000Y-48156000I-51000J0D01*
G01*
X160965000Y-48156000D01*
G75*
G02*
X160914000Y-48105000I0J51000D01*
G01*
G37*
G36*
G01*
X160914000Y-48755000D02*
X160914000Y-48305000D01*
G75*
G02*
X160965000Y-48254000I51000J0D01*
G01*
X162415000Y-48254000D01*
G75*
G02*
X162466000Y-48305000I0J-51000D01*
G01*
X162466000Y-48755000D01*
G75*
G02*
X162415000Y-48806000I-51000J0D01*
G01*
X160965000Y-48806000D01*
G75*
G02*
X160914000Y-48755000I0J51000D01*
G01*
G37*
G36*
G01*
X160914000Y-49405000D02*
X160914000Y-48955000D01*
G75*
G02*
X160965000Y-48904000I51000J0D01*
G01*
X162415000Y-48904000D01*
G75*
G02*
X162466000Y-48955000I0J-51000D01*
G01*
X162466000Y-49405000D01*
G75*
G02*
X162415000Y-49456000I-51000J0D01*
G01*
X160965000Y-49456000D01*
G75*
G02*
X160914000Y-49405000I0J51000D01*
G01*
G37*
G36*
G01*
X160914000Y-50055000D02*
X160914000Y-49605000D01*
G75*
G02*
X160965000Y-49554000I51000J0D01*
G01*
X162415000Y-49554000D01*
G75*
G02*
X162466000Y-49605000I0J-51000D01*
G01*
X162466000Y-50055000D01*
G75*
G02*
X162415000Y-50106000I-51000J0D01*
G01*
X160965000Y-50106000D01*
G75*
G02*
X160914000Y-50055000I0J51000D01*
G01*
G37*
G36*
G01*
X160914000Y-50705000D02*
X160914000Y-50255000D01*
G75*
G02*
X160965000Y-50204000I51000J0D01*
G01*
X162415000Y-50204000D01*
G75*
G02*
X162466000Y-50255000I0J-51000D01*
G01*
X162466000Y-50705000D01*
G75*
G02*
X162415000Y-50756000I-51000J0D01*
G01*
X160965000Y-50756000D01*
G75*
G02*
X160914000Y-50705000I0J51000D01*
G01*
G37*
G36*
G01*
X160914000Y-51355000D02*
X160914000Y-50905000D01*
G75*
G02*
X160965000Y-50854000I51000J0D01*
G01*
X162415000Y-50854000D01*
G75*
G02*
X162466000Y-50905000I0J-51000D01*
G01*
X162466000Y-51355000D01*
G75*
G02*
X162415000Y-51406000I-51000J0D01*
G01*
X160965000Y-51406000D01*
G75*
G02*
X160914000Y-51355000I0J51000D01*
G01*
G37*
G36*
G01*
X160914000Y-52005000D02*
X160914000Y-51555000D01*
G75*
G02*
X160965000Y-51504000I51000J0D01*
G01*
X162415000Y-51504000D01*
G75*
G02*
X162466000Y-51555000I0J-51000D01*
G01*
X162466000Y-52005000D01*
G75*
G02*
X162415000Y-52056000I-51000J0D01*
G01*
X160965000Y-52056000D01*
G75*
G02*
X160914000Y-52005000I0J51000D01*
G01*
G37*
G36*
G01*
X160914000Y-52655000D02*
X160914000Y-52205000D01*
G75*
G02*
X160965000Y-52154000I51000J0D01*
G01*
X162415000Y-52154000D01*
G75*
G02*
X162466000Y-52205000I0J-51000D01*
G01*
X162466000Y-52655000D01*
G75*
G02*
X162415000Y-52706000I-51000J0D01*
G01*
X160965000Y-52706000D01*
G75*
G02*
X160914000Y-52655000I0J51000D01*
G01*
G37*
G36*
G01*
X160914000Y-53305000D02*
X160914000Y-52855000D01*
G75*
G02*
X160965000Y-52804000I51000J0D01*
G01*
X162415000Y-52804000D01*
G75*
G02*
X162466000Y-52855000I0J-51000D01*
G01*
X162466000Y-53305000D01*
G75*
G02*
X162415000Y-53356000I-51000J0D01*
G01*
X160965000Y-53356000D01*
G75*
G02*
X160914000Y-53305000I0J51000D01*
G01*
G37*
G36*
G01*
X166814000Y-53305000D02*
X166814000Y-52855000D01*
G75*
G02*
X166865000Y-52804000I51000J0D01*
G01*
X168315000Y-52804000D01*
G75*
G02*
X168366000Y-52855000I0J-51000D01*
G01*
X168366000Y-53305000D01*
G75*
G02*
X168315000Y-53356000I-51000J0D01*
G01*
X166865000Y-53356000D01*
G75*
G02*
X166814000Y-53305000I0J51000D01*
G01*
G37*
G36*
G01*
X166814000Y-52655000D02*
X166814000Y-52205000D01*
G75*
G02*
X166865000Y-52154000I51000J0D01*
G01*
X168315000Y-52154000D01*
G75*
G02*
X168366000Y-52205000I0J-51000D01*
G01*
X168366000Y-52655000D01*
G75*
G02*
X168315000Y-52706000I-51000J0D01*
G01*
X166865000Y-52706000D01*
G75*
G02*
X166814000Y-52655000I0J51000D01*
G01*
G37*
G36*
G01*
X166814000Y-52005000D02*
X166814000Y-51555000D01*
G75*
G02*
X166865000Y-51504000I51000J0D01*
G01*
X168315000Y-51504000D01*
G75*
G02*
X168366000Y-51555000I0J-51000D01*
G01*
X168366000Y-52005000D01*
G75*
G02*
X168315000Y-52056000I-51000J0D01*
G01*
X166865000Y-52056000D01*
G75*
G02*
X166814000Y-52005000I0J51000D01*
G01*
G37*
G36*
G01*
X166814000Y-51355000D02*
X166814000Y-50905000D01*
G75*
G02*
X166865000Y-50854000I51000J0D01*
G01*
X168315000Y-50854000D01*
G75*
G02*
X168366000Y-50905000I0J-51000D01*
G01*
X168366000Y-51355000D01*
G75*
G02*
X168315000Y-51406000I-51000J0D01*
G01*
X166865000Y-51406000D01*
G75*
G02*
X166814000Y-51355000I0J51000D01*
G01*
G37*
G36*
G01*
X166814000Y-50705000D02*
X166814000Y-50255000D01*
G75*
G02*
X166865000Y-50204000I51000J0D01*
G01*
X168315000Y-50204000D01*
G75*
G02*
X168366000Y-50255000I0J-51000D01*
G01*
X168366000Y-50705000D01*
G75*
G02*
X168315000Y-50756000I-51000J0D01*
G01*
X166865000Y-50756000D01*
G75*
G02*
X166814000Y-50705000I0J51000D01*
G01*
G37*
G36*
G01*
X166814000Y-50055000D02*
X166814000Y-49605000D01*
G75*
G02*
X166865000Y-49554000I51000J0D01*
G01*
X168315000Y-49554000D01*
G75*
G02*
X168366000Y-49605000I0J-51000D01*
G01*
X168366000Y-50055000D01*
G75*
G02*
X168315000Y-50106000I-51000J0D01*
G01*
X166865000Y-50106000D01*
G75*
G02*
X166814000Y-50055000I0J51000D01*
G01*
G37*
G36*
G01*
X166814000Y-49405000D02*
X166814000Y-48955000D01*
G75*
G02*
X166865000Y-48904000I51000J0D01*
G01*
X168315000Y-48904000D01*
G75*
G02*
X168366000Y-48955000I0J-51000D01*
G01*
X168366000Y-49405000D01*
G75*
G02*
X168315000Y-49456000I-51000J0D01*
G01*
X166865000Y-49456000D01*
G75*
G02*
X166814000Y-49405000I0J51000D01*
G01*
G37*
G36*
G01*
X166814000Y-48755000D02*
X166814000Y-48305000D01*
G75*
G02*
X166865000Y-48254000I51000J0D01*
G01*
X168315000Y-48254000D01*
G75*
G02*
X168366000Y-48305000I0J-51000D01*
G01*
X168366000Y-48755000D01*
G75*
G02*
X168315000Y-48806000I-51000J0D01*
G01*
X166865000Y-48806000D01*
G75*
G02*
X166814000Y-48755000I0J51000D01*
G01*
G37*
G36*
G01*
X166814000Y-48105000D02*
X166814000Y-47655000D01*
G75*
G02*
X166865000Y-47604000I51000J0D01*
G01*
X168315000Y-47604000D01*
G75*
G02*
X168366000Y-47655000I0J-51000D01*
G01*
X168366000Y-48105000D01*
G75*
G02*
X168315000Y-48156000I-51000J0D01*
G01*
X166865000Y-48156000D01*
G75*
G02*
X166814000Y-48105000I0J51000D01*
G01*
G37*
G36*
G01*
X166814000Y-47455000D02*
X166814000Y-47005000D01*
G75*
G02*
X166865000Y-46954000I51000J0D01*
G01*
X168315000Y-46954000D01*
G75*
G02*
X168366000Y-47005000I0J-51000D01*
G01*
X168366000Y-47455000D01*
G75*
G02*
X168315000Y-47506000I-51000J0D01*
G01*
X166865000Y-47506000D01*
G75*
G02*
X166814000Y-47455000I0J51000D01*
G01*
G37*
G36*
G01*
X153695500Y-43081000D02*
X153304500Y-43081000D01*
G75*
G02*
X153139000Y-42915500I0J165500D01*
G01*
X153139000Y-42584500D01*
G75*
G02*
X153304500Y-42419000I165500J0D01*
G01*
X153695500Y-42419000D01*
G75*
G02*
X153861000Y-42584500I0J-165500D01*
G01*
X153861000Y-42915500D01*
G75*
G02*
X153695500Y-43081000I-165500J0D01*
G01*
G37*
G36*
G01*
X153695500Y-42121000D02*
X153304500Y-42121000D01*
G75*
G02*
X153139000Y-41955500I0J165500D01*
G01*
X153139000Y-41624500D01*
G75*
G02*
X153304500Y-41459000I165500J0D01*
G01*
X153695500Y-41459000D01*
G75*
G02*
X153861000Y-41624500I0J-165500D01*
G01*
X153861000Y-41955500D01*
G75*
G02*
X153695500Y-42121000I-165500J0D01*
G01*
G37*
G36*
G01*
X152054500Y-41459000D02*
X152445500Y-41459000D01*
G75*
G02*
X152611000Y-41624500I0J-165500D01*
G01*
X152611000Y-41955500D01*
G75*
G02*
X152445500Y-42121000I-165500J0D01*
G01*
X152054500Y-42121000D01*
G75*
G02*
X151889000Y-41955500I0J165500D01*
G01*
X151889000Y-41624500D01*
G75*
G02*
X152054500Y-41459000I165500J0D01*
G01*
G37*
G36*
G01*
X152054500Y-42419000D02*
X152445500Y-42419000D01*
G75*
G02*
X152611000Y-42584500I0J-165500D01*
G01*
X152611000Y-42915500D01*
G75*
G02*
X152445500Y-43081000I-165500J0D01*
G01*
X152054500Y-43081000D01*
G75*
G02*
X151889000Y-42915500I0J165500D01*
G01*
X151889000Y-42584500D01*
G75*
G02*
X152054500Y-42419000I165500J0D01*
G01*
G37*
G36*
G01*
X171804500Y-43353500D02*
X172195500Y-43353500D01*
G75*
G02*
X172361000Y-43519000I0J-165500D01*
G01*
X172361000Y-43850000D01*
G75*
G02*
X172195500Y-44015500I-165500J0D01*
G01*
X171804500Y-44015500D01*
G75*
G02*
X171639000Y-43850000I0J165500D01*
G01*
X171639000Y-43519000D01*
G75*
G02*
X171804500Y-43353500I165500J0D01*
G01*
G37*
G36*
G01*
X171804500Y-42393500D02*
X172195500Y-42393500D01*
G75*
G02*
X172361000Y-42559000I0J-165500D01*
G01*
X172361000Y-42890000D01*
G75*
G02*
X172195500Y-43055500I-165500J0D01*
G01*
X171804500Y-43055500D01*
G75*
G02*
X171639000Y-42890000I0J165500D01*
G01*
X171639000Y-42559000D01*
G75*
G02*
X171804500Y-42393500I165500J0D01*
G01*
G37*
G36*
G01*
X149554500Y-42419000D02*
X149945500Y-42419000D01*
G75*
G02*
X150111000Y-42584500I0J-165500D01*
G01*
X150111000Y-42915500D01*
G75*
G02*
X149945500Y-43081000I-165500J0D01*
G01*
X149554500Y-43081000D01*
G75*
G02*
X149389000Y-42915500I0J165500D01*
G01*
X149389000Y-42584500D01*
G75*
G02*
X149554500Y-42419000I165500J0D01*
G01*
G37*
G36*
G01*
X149554500Y-41459000D02*
X149945500Y-41459000D01*
G75*
G02*
X150111000Y-41624500I0J-165500D01*
G01*
X150111000Y-41955500D01*
G75*
G02*
X149945500Y-42121000I-165500J0D01*
G01*
X149554500Y-42121000D01*
G75*
G02*
X149389000Y-41955500I0J165500D01*
G01*
X149389000Y-41624500D01*
G75*
G02*
X149554500Y-41459000I165500J0D01*
G01*
G37*
G36*
G01*
X156054500Y-48919000D02*
X156445500Y-48919000D01*
G75*
G02*
X156611000Y-49084500I0J-165500D01*
G01*
X156611000Y-49415500D01*
G75*
G02*
X156445500Y-49581000I-165500J0D01*
G01*
X156054500Y-49581000D01*
G75*
G02*
X155889000Y-49415500I0J165500D01*
G01*
X155889000Y-49084500D01*
G75*
G02*
X156054500Y-48919000I165500J0D01*
G01*
G37*
G36*
G01*
X156054500Y-49879000D02*
X156445500Y-49879000D01*
G75*
G02*
X156611000Y-50044500I0J-165500D01*
G01*
X156611000Y-50375500D01*
G75*
G02*
X156445500Y-50541000I-165500J0D01*
G01*
X156054500Y-50541000D01*
G75*
G02*
X155889000Y-50375500I0J165500D01*
G01*
X155889000Y-50044500D01*
G75*
G02*
X156054500Y-49879000I165500J0D01*
G01*
G37*
G36*
G01*
X160291000Y-48804500D02*
X160291000Y-49195500D01*
G75*
G02*
X160125500Y-49361000I-165500J0D01*
G01*
X159794500Y-49361000D01*
G75*
G02*
X159629000Y-49195500I0J165500D01*
G01*
X159629000Y-48804500D01*
G75*
G02*
X159794500Y-48639000I165500J0D01*
G01*
X160125500Y-48639000D01*
G75*
G02*
X160291000Y-48804500I0J-165500D01*
G01*
G37*
G36*
G01*
X159331000Y-48804500D02*
X159331000Y-49195500D01*
G75*
G02*
X159165500Y-49361000I-165500J0D01*
G01*
X158834500Y-49361000D01*
G75*
G02*
X158669000Y-49195500I0J165500D01*
G01*
X158669000Y-48804500D01*
G75*
G02*
X158834500Y-48639000I165500J0D01*
G01*
X159165500Y-48639000D01*
G75*
G02*
X159331000Y-48804500I0J-165500D01*
G01*
G37*
G36*
G01*
X147449000Y-104500000D02*
X147449000Y-102500000D01*
G75*
G02*
X147500000Y-102449000I51000J0D01*
G01*
X149500000Y-102449000D01*
G75*
G02*
X149551000Y-102500000I0J-51000D01*
G01*
X149551000Y-104500000D01*
G75*
G02*
X149500000Y-104551000I-51000J0D01*
G01*
X147500000Y-104551000D01*
G75*
G02*
X147449000Y-104500000I0J51000D01*
G01*
G37*
G36*
G01*
X147666000Y-118820000D02*
X147666000Y-116820000D01*
G75*
G02*
X147717000Y-116769000I51000J0D01*
G01*
X149717000Y-116769000D01*
G75*
G02*
X149768000Y-116820000I0J-51000D01*
G01*
X149768000Y-118820000D01*
G75*
G02*
X149717000Y-118871000I-51000J0D01*
G01*
X147717000Y-118871000D01*
G75*
G02*
X147666000Y-118820000I0J51000D01*
G01*
G37*
G36*
G01*
X156459000Y-89500000D02*
X156459000Y-87500000D01*
G75*
G02*
X156510000Y-87449000I51000J0D01*
G01*
X158510000Y-87449000D01*
G75*
G02*
X158561000Y-87500000I0J-51000D01*
G01*
X158561000Y-89500000D01*
G75*
G02*
X158510000Y-89551000I-51000J0D01*
G01*
X156510000Y-89551000D01*
G75*
G02*
X156459000Y-89500000I0J51000D01*
G01*
G37*
G36*
G01*
X147449000Y-89500000D02*
X147449000Y-87500000D01*
G75*
G02*
X147500000Y-87449000I51000J0D01*
G01*
X149500000Y-87449000D01*
G75*
G02*
X149551000Y-87500000I0J-51000D01*
G01*
X149551000Y-89500000D01*
G75*
G02*
X149500000Y-89551000I-51000J0D01*
G01*
X147500000Y-89551000D01*
G75*
G02*
X147449000Y-89500000I0J51000D01*
G01*
G37*
G36*
G01*
X156175000Y-118729000D02*
X156175000Y-116729000D01*
G75*
G02*
X156226000Y-116678000I51000J0D01*
G01*
X158226000Y-116678000D01*
G75*
G02*
X158277000Y-116729000I0J-51000D01*
G01*
X158277000Y-118729000D01*
G75*
G02*
X158226000Y-118780000I-51000J0D01*
G01*
X156226000Y-118780000D01*
G75*
G02*
X156175000Y-118729000I0J51000D01*
G01*
G37*
G36*
G01*
X156048000Y-104500000D02*
X156048000Y-102500000D01*
G75*
G02*
X156099000Y-102449000I51000J0D01*
G01*
X158099000Y-102449000D01*
G75*
G02*
X158150000Y-102500000I0J-51000D01*
G01*
X158150000Y-104500000D01*
G75*
G02*
X158099000Y-104551000I-51000J0D01*
G01*
X156099000Y-104551000D01*
G75*
G02*
X156048000Y-104500000I0J51000D01*
G01*
G37*
G36*
G01*
X156349000Y-74500000D02*
X156349000Y-72500000D01*
G75*
G02*
X156400000Y-72449000I51000J0D01*
G01*
X158400000Y-72449000D01*
G75*
G02*
X158451000Y-72500000I0J-51000D01*
G01*
X158451000Y-74500000D01*
G75*
G02*
X158400000Y-74551000I-51000J0D01*
G01*
X156400000Y-74551000D01*
G75*
G02*
X156349000Y-74500000I0J51000D01*
G01*
G37*
G36*
G01*
X147649000Y-74500000D02*
X147649000Y-72500000D01*
G75*
G02*
X147700000Y-72449000I51000J0D01*
G01*
X149700000Y-72449000D01*
G75*
G02*
X149751000Y-72500000I0J-51000D01*
G01*
X149751000Y-74500000D01*
G75*
G02*
X149700000Y-74551000I-51000J0D01*
G01*
X147700000Y-74551000D01*
G75*
G02*
X147649000Y-74500000I0J51000D01*
G01*
G37*
G36*
G01*
X152549760Y-120164040D02*
X152149760Y-120164040D01*
G75*
G02*
X152098760Y-120113040I0J51000D01*
G01*
X152098760Y-118613040D01*
G75*
G02*
X152149760Y-118562040I51000J0D01*
G01*
X152549760Y-118562040D01*
G75*
G02*
X152600760Y-118613040I0J-51000D01*
G01*
X152600760Y-120113040D01*
G75*
G02*
X152549760Y-120164040I-51000J0D01*
G01*
G37*
G36*
G01*
X153200000Y-117237960D02*
X152800000Y-117237960D01*
G75*
G02*
X152749000Y-117186960I0J51000D01*
G01*
X152749000Y-115686960D01*
G75*
G02*
X152800000Y-115635960I51000J0D01*
G01*
X153200000Y-115635960D01*
G75*
G02*
X153251000Y-115686960I0J-51000D01*
G01*
X153251000Y-117186960D01*
G75*
G02*
X153200000Y-117237960I-51000J0D01*
G01*
G37*
G36*
G01*
X153850240Y-120164040D02*
X153450240Y-120164040D01*
G75*
G02*
X153399240Y-120113040I0J51000D01*
G01*
X153399240Y-118613040D01*
G75*
G02*
X153450240Y-118562040I51000J0D01*
G01*
X153850240Y-118562040D01*
G75*
G02*
X153901240Y-118613040I0J-51000D01*
G01*
X153901240Y-120113040D01*
G75*
G02*
X153850240Y-120164040I-51000J0D01*
G01*
G37*
G36*
G01*
X153850000Y-117237960D02*
X153450000Y-117237960D01*
G75*
G02*
X153399000Y-117186960I0J51000D01*
G01*
X153399000Y-115686960D01*
G75*
G02*
X153450000Y-115635960I51000J0D01*
G01*
X153850000Y-115635960D01*
G75*
G02*
X153901000Y-115686960I0J-51000D01*
G01*
X153901000Y-117186960D01*
G75*
G02*
X153850000Y-117237960I-51000J0D01*
G01*
G37*
G36*
G01*
X152549760Y-117237960D02*
X152149760Y-117237960D01*
G75*
G02*
X152098760Y-117186960I0J51000D01*
G01*
X152098760Y-115686960D01*
G75*
G02*
X152149760Y-115635960I51000J0D01*
G01*
X152549760Y-115635960D01*
G75*
G02*
X152600760Y-115686960I0J-51000D01*
G01*
X152600760Y-117186960D01*
G75*
G02*
X152549760Y-117237960I-51000J0D01*
G01*
G37*
G36*
G01*
X152499760Y-87697960D02*
X152099760Y-87697960D01*
G75*
G02*
X152048760Y-87646960I0J51000D01*
G01*
X152048760Y-86146960D01*
G75*
G02*
X152099760Y-86095960I51000J0D01*
G01*
X152499760Y-86095960D01*
G75*
G02*
X152550760Y-86146960I0J-51000D01*
G01*
X152550760Y-87646960D01*
G75*
G02*
X152499760Y-87697960I-51000J0D01*
G01*
G37*
G36*
G01*
X153800000Y-87697960D02*
X153400000Y-87697960D01*
G75*
G02*
X153349000Y-87646960I0J51000D01*
G01*
X153349000Y-86146960D01*
G75*
G02*
X153400000Y-86095960I51000J0D01*
G01*
X153800000Y-86095960D01*
G75*
G02*
X153851000Y-86146960I0J-51000D01*
G01*
X153851000Y-87646960D01*
G75*
G02*
X153800000Y-87697960I-51000J0D01*
G01*
G37*
G36*
G01*
X153800240Y-90624040D02*
X153400240Y-90624040D01*
G75*
G02*
X153349240Y-90573040I0J51000D01*
G01*
X153349240Y-89073040D01*
G75*
G02*
X153400240Y-89022040I51000J0D01*
G01*
X153800240Y-89022040D01*
G75*
G02*
X153851240Y-89073040I0J-51000D01*
G01*
X153851240Y-90573040D01*
G75*
G02*
X153800240Y-90624040I-51000J0D01*
G01*
G37*
G36*
G01*
X153150000Y-87697960D02*
X152750000Y-87697960D01*
G75*
G02*
X152699000Y-87646960I0J51000D01*
G01*
X152699000Y-86146960D01*
G75*
G02*
X152750000Y-86095960I51000J0D01*
G01*
X153150000Y-86095960D01*
G75*
G02*
X153201000Y-86146960I0J-51000D01*
G01*
X153201000Y-87646960D01*
G75*
G02*
X153150000Y-87697960I-51000J0D01*
G01*
G37*
G36*
G01*
X152499760Y-90624040D02*
X152099760Y-90624040D01*
G75*
G02*
X152048760Y-90573040I0J51000D01*
G01*
X152048760Y-89073040D01*
G75*
G02*
X152099760Y-89022040I51000J0D01*
G01*
X152499760Y-89022040D01*
G75*
G02*
X152550760Y-89073040I0J-51000D01*
G01*
X152550760Y-90573040D01*
G75*
G02*
X152499760Y-90624040I-51000J0D01*
G01*
G37*
G36*
G01*
X152505260Y-75824040D02*
X152105260Y-75824040D01*
G75*
G02*
X152054260Y-75773040I0J51000D01*
G01*
X152054260Y-74273040D01*
G75*
G02*
X152105260Y-74222040I51000J0D01*
G01*
X152505260Y-74222040D01*
G75*
G02*
X152556260Y-74273040I0J-51000D01*
G01*
X152556260Y-75773040D01*
G75*
G02*
X152505260Y-75824040I-51000J0D01*
G01*
G37*
G36*
G01*
X153155500Y-72897960D02*
X152755500Y-72897960D01*
G75*
G02*
X152704500Y-72846960I0J51000D01*
G01*
X152704500Y-71346960D01*
G75*
G02*
X152755500Y-71295960I51000J0D01*
G01*
X153155500Y-71295960D01*
G75*
G02*
X153206500Y-71346960I0J-51000D01*
G01*
X153206500Y-72846960D01*
G75*
G02*
X153155500Y-72897960I-51000J0D01*
G01*
G37*
G36*
G01*
X153805740Y-75824040D02*
X153405740Y-75824040D01*
G75*
G02*
X153354740Y-75773040I0J51000D01*
G01*
X153354740Y-74273040D01*
G75*
G02*
X153405740Y-74222040I51000J0D01*
G01*
X153805740Y-74222040D01*
G75*
G02*
X153856740Y-74273040I0J-51000D01*
G01*
X153856740Y-75773040D01*
G75*
G02*
X153805740Y-75824040I-51000J0D01*
G01*
G37*
G36*
G01*
X153805500Y-72897960D02*
X153405500Y-72897960D01*
G75*
G02*
X153354500Y-72846960I0J51000D01*
G01*
X153354500Y-71346960D01*
G75*
G02*
X153405500Y-71295960I51000J0D01*
G01*
X153805500Y-71295960D01*
G75*
G02*
X153856500Y-71346960I0J-51000D01*
G01*
X153856500Y-72846960D01*
G75*
G02*
X153805500Y-72897960I-51000J0D01*
G01*
G37*
G36*
G01*
X152505260Y-72897960D02*
X152105260Y-72897960D01*
G75*
G02*
X152054260Y-72846960I0J51000D01*
G01*
X152054260Y-71346960D01*
G75*
G02*
X152105260Y-71295960I51000J0D01*
G01*
X152505260Y-71295960D01*
G75*
G02*
X152556260Y-71346960I0J-51000D01*
G01*
X152556260Y-72846960D01*
G75*
G02*
X152505260Y-72897960I-51000J0D01*
G01*
G37*
G36*
G01*
X152509760Y-102497960D02*
X152109760Y-102497960D01*
G75*
G02*
X152058760Y-102446960I0J51000D01*
G01*
X152058760Y-100946960D01*
G75*
G02*
X152109760Y-100895960I51000J0D01*
G01*
X152509760Y-100895960D01*
G75*
G02*
X152560760Y-100946960I0J-51000D01*
G01*
X152560760Y-102446960D01*
G75*
G02*
X152509760Y-102497960I-51000J0D01*
G01*
G37*
G36*
G01*
X153810000Y-102497960D02*
X153410000Y-102497960D01*
G75*
G02*
X153359000Y-102446960I0J51000D01*
G01*
X153359000Y-100946960D01*
G75*
G02*
X153410000Y-100895960I51000J0D01*
G01*
X153810000Y-100895960D01*
G75*
G02*
X153861000Y-100946960I0J-51000D01*
G01*
X153861000Y-102446960D01*
G75*
G02*
X153810000Y-102497960I-51000J0D01*
G01*
G37*
G36*
G01*
X153810240Y-105424040D02*
X153410240Y-105424040D01*
G75*
G02*
X153359240Y-105373040I0J51000D01*
G01*
X153359240Y-103873040D01*
G75*
G02*
X153410240Y-103822040I51000J0D01*
G01*
X153810240Y-103822040D01*
G75*
G02*
X153861240Y-103873040I0J-51000D01*
G01*
X153861240Y-105373040D01*
G75*
G02*
X153810240Y-105424040I-51000J0D01*
G01*
G37*
G36*
G01*
X153160000Y-102497960D02*
X152760000Y-102497960D01*
G75*
G02*
X152709000Y-102446960I0J51000D01*
G01*
X152709000Y-100946960D01*
G75*
G02*
X152760000Y-100895960I51000J0D01*
G01*
X153160000Y-100895960D01*
G75*
G02*
X153211000Y-100946960I0J-51000D01*
G01*
X153211000Y-102446960D01*
G75*
G02*
X153160000Y-102497960I-51000J0D01*
G01*
G37*
G36*
G01*
X152509760Y-105424040D02*
X152109760Y-105424040D01*
G75*
G02*
X152058760Y-105373040I0J51000D01*
G01*
X152058760Y-103873040D01*
G75*
G02*
X152109760Y-103822040I51000J0D01*
G01*
X152509760Y-103822040D01*
G75*
G02*
X152560760Y-103873040I0J-51000D01*
G01*
X152560760Y-105373040D01*
G75*
G02*
X152509760Y-105424040I-51000J0D01*
G01*
G37*
G36*
G01*
X153811000Y-120704500D02*
X153811000Y-121095500D01*
G75*
G02*
X153645500Y-121261000I-165500J0D01*
G01*
X153314500Y-121261000D01*
G75*
G02*
X153149000Y-121095500I0J165500D01*
G01*
X153149000Y-120704500D01*
G75*
G02*
X153314500Y-120539000I165500J0D01*
G01*
X153645500Y-120539000D01*
G75*
G02*
X153811000Y-120704500I0J-165500D01*
G01*
G37*
G36*
G01*
X152851000Y-120704500D02*
X152851000Y-121095500D01*
G75*
G02*
X152685500Y-121261000I-165500J0D01*
G01*
X152354500Y-121261000D01*
G75*
G02*
X152189000Y-121095500I0J165500D01*
G01*
X152189000Y-120704500D01*
G75*
G02*
X152354500Y-120539000I165500J0D01*
G01*
X152685500Y-120539000D01*
G75*
G02*
X152851000Y-120704500I0J-165500D01*
G01*
G37*
G36*
G01*
X153811000Y-91204500D02*
X153811000Y-91595500D01*
G75*
G02*
X153645500Y-91761000I-165500J0D01*
G01*
X153314500Y-91761000D01*
G75*
G02*
X153149000Y-91595500I0J165500D01*
G01*
X153149000Y-91204500D01*
G75*
G02*
X153314500Y-91039000I165500J0D01*
G01*
X153645500Y-91039000D01*
G75*
G02*
X153811000Y-91204500I0J-165500D01*
G01*
G37*
G36*
G01*
X152851000Y-91204500D02*
X152851000Y-91595500D01*
G75*
G02*
X152685500Y-91761000I-165500J0D01*
G01*
X152354500Y-91761000D01*
G75*
G02*
X152189000Y-91595500I0J165500D01*
G01*
X152189000Y-91204500D01*
G75*
G02*
X152354500Y-91039000I165500J0D01*
G01*
X152685500Y-91039000D01*
G75*
G02*
X152851000Y-91204500I0J-165500D01*
G01*
G37*
G36*
G01*
X153711000Y-76304500D02*
X153711000Y-76695500D01*
G75*
G02*
X153545500Y-76861000I-165500J0D01*
G01*
X153214500Y-76861000D01*
G75*
G02*
X153049000Y-76695500I0J165500D01*
G01*
X153049000Y-76304500D01*
G75*
G02*
X153214500Y-76139000I165500J0D01*
G01*
X153545500Y-76139000D01*
G75*
G02*
X153711000Y-76304500I0J-165500D01*
G01*
G37*
G36*
G01*
X152751000Y-76304500D02*
X152751000Y-76695500D01*
G75*
G02*
X152585500Y-76861000I-165500J0D01*
G01*
X152254500Y-76861000D01*
G75*
G02*
X152089000Y-76695500I0J165500D01*
G01*
X152089000Y-76304500D01*
G75*
G02*
X152254500Y-76139000I165500J0D01*
G01*
X152585500Y-76139000D01*
G75*
G02*
X152751000Y-76304500I0J-165500D01*
G01*
G37*
G36*
G01*
X152751000Y-106004500D02*
X152751000Y-106395500D01*
G75*
G02*
X152585500Y-106561000I-165500J0D01*
G01*
X152254500Y-106561000D01*
G75*
G02*
X152089000Y-106395500I0J165500D01*
G01*
X152089000Y-106004500D01*
G75*
G02*
X152254500Y-105839000I165500J0D01*
G01*
X152585500Y-105839000D01*
G75*
G02*
X152751000Y-106004500I0J-165500D01*
G01*
G37*
G36*
G01*
X153711000Y-106004500D02*
X153711000Y-106395500D01*
G75*
G02*
X153545500Y-106561000I-165500J0D01*
G01*
X153214500Y-106561000D01*
G75*
G02*
X153049000Y-106395500I0J165500D01*
G01*
X153049000Y-106004500D01*
G75*
G02*
X153214500Y-105839000I165500J0D01*
G01*
X153545500Y-105839000D01*
G75*
G02*
X153711000Y-106004500I0J-165500D01*
G01*
G37*
G36*
G01*
X159445500Y-43581000D02*
X159054500Y-43581000D01*
G75*
G02*
X158889000Y-43415500I0J165500D01*
G01*
X158889000Y-43084500D01*
G75*
G02*
X159054500Y-42919000I165500J0D01*
G01*
X159445500Y-42919000D01*
G75*
G02*
X159611000Y-43084500I0J-165500D01*
G01*
X159611000Y-43415500D01*
G75*
G02*
X159445500Y-43581000I-165500J0D01*
G01*
G37*
G36*
G01*
X159445500Y-44541000D02*
X159054500Y-44541000D01*
G75*
G02*
X158889000Y-44375500I0J165500D01*
G01*
X158889000Y-44044500D01*
G75*
G02*
X159054500Y-43879000I165500J0D01*
G01*
X159445500Y-43879000D01*
G75*
G02*
X159611000Y-44044500I0J-165500D01*
G01*
X159611000Y-44375500D01*
G75*
G02*
X159445500Y-44541000I-165500J0D01*
G01*
G37*
G36*
G01*
X169669000Y-45445500D02*
X169669000Y-45054500D01*
G75*
G02*
X169834500Y-44889000I165500J0D01*
G01*
X170165500Y-44889000D01*
G75*
G02*
X170331000Y-45054500I0J-165500D01*
G01*
X170331000Y-45445500D01*
G75*
G02*
X170165500Y-45611000I-165500J0D01*
G01*
X169834500Y-45611000D01*
G75*
G02*
X169669000Y-45445500I0J165500D01*
G01*
G37*
G36*
G01*
X170629000Y-45445500D02*
X170629000Y-45054500D01*
G75*
G02*
X170794500Y-44889000I165500J0D01*
G01*
X171125500Y-44889000D01*
G75*
G02*
X171291000Y-45054500I0J-165500D01*
G01*
X171291000Y-45445500D01*
G75*
G02*
X171125500Y-45611000I-165500J0D01*
G01*
X170794500Y-45611000D01*
G75*
G02*
X170629000Y-45445500I0J165500D01*
G01*
G37*
G36*
G01*
X168250000Y-57749000D02*
X169050000Y-57749000D01*
G75*
G02*
X169101000Y-57800000I0J-51000D01*
G01*
X169101000Y-58700000D01*
G75*
G02*
X169050000Y-58751000I-51000J0D01*
G01*
X168250000Y-58751000D01*
G75*
G02*
X168199000Y-58700000I0J51000D01*
G01*
X168199000Y-57800000D01*
G75*
G02*
X168250000Y-57749000I51000J0D01*
G01*
G37*
G36*
G01*
X166350000Y-57749000D02*
X167150000Y-57749000D01*
G75*
G02*
X167201000Y-57800000I0J-51000D01*
G01*
X167201000Y-58700000D01*
G75*
G02*
X167150000Y-58751000I-51000J0D01*
G01*
X166350000Y-58751000D01*
G75*
G02*
X166299000Y-58700000I0J51000D01*
G01*
X166299000Y-57800000D01*
G75*
G02*
X166350000Y-57749000I51000J0D01*
G01*
G37*
G36*
G01*
X167300000Y-59749000D02*
X168100000Y-59749000D01*
G75*
G02*
X168151000Y-59800000I0J-51000D01*
G01*
X168151000Y-60700000D01*
G75*
G02*
X168100000Y-60751000I-51000J0D01*
G01*
X167300000Y-60751000D01*
G75*
G02*
X167249000Y-60700000I0J51000D01*
G01*
X167249000Y-59800000D01*
G75*
G02*
X167300000Y-59749000I51000J0D01*
G01*
G37*
G36*
G01*
X162319000Y-58625001D02*
X162319000Y-57974999D01*
G75*
G02*
X162369999Y-57924000I50999J0D01*
G01*
X163430001Y-57924000D01*
G75*
G02*
X163481000Y-57974999I0J-50999D01*
G01*
X163481000Y-58625001D01*
G75*
G02*
X163430001Y-58676000I-50999J0D01*
G01*
X162369999Y-58676000D01*
G75*
G02*
X162319000Y-58625001I0J50999D01*
G01*
G37*
G36*
G01*
X162319000Y-59575001D02*
X162319000Y-58924999D01*
G75*
G02*
X162369999Y-58874000I50999J0D01*
G01*
X163430001Y-58874000D01*
G75*
G02*
X163481000Y-58924999I0J-50999D01*
G01*
X163481000Y-59575001D01*
G75*
G02*
X163430001Y-59626000I-50999J0D01*
G01*
X162369999Y-59626000D01*
G75*
G02*
X162319000Y-59575001I0J50999D01*
G01*
G37*
G36*
G01*
X162319000Y-60525001D02*
X162319000Y-59874999D01*
G75*
G02*
X162369999Y-59824000I50999J0D01*
G01*
X163430001Y-59824000D01*
G75*
G02*
X163481000Y-59874999I0J-50999D01*
G01*
X163481000Y-60525001D01*
G75*
G02*
X163430001Y-60576000I-50999J0D01*
G01*
X162369999Y-60576000D01*
G75*
G02*
X162319000Y-60525001I0J50999D01*
G01*
G37*
G36*
G01*
X164519000Y-60525001D02*
X164519000Y-59874999D01*
G75*
G02*
X164569999Y-59824000I50999J0D01*
G01*
X165630001Y-59824000D01*
G75*
G02*
X165681000Y-59874999I0J-50999D01*
G01*
X165681000Y-60525001D01*
G75*
G02*
X165630001Y-60576000I-50999J0D01*
G01*
X164569999Y-60576000D01*
G75*
G02*
X164519000Y-60525001I0J50999D01*
G01*
G37*
G36*
G01*
X164519000Y-58625001D02*
X164519000Y-57974999D01*
G75*
G02*
X164569999Y-57924000I50999J0D01*
G01*
X165630001Y-57924000D01*
G75*
G02*
X165681000Y-57974999I0J-50999D01*
G01*
X165681000Y-58625001D01*
G75*
G02*
X165630001Y-58676000I-50999J0D01*
G01*
X164569999Y-58676000D01*
G75*
G02*
X164519000Y-58625001I0J50999D01*
G01*
G37*
G36*
G01*
X166649000Y-42450000D02*
X166649000Y-41550000D01*
G75*
G02*
X166700000Y-41499000I51000J0D01*
G01*
X168000000Y-41499000D01*
G75*
G02*
X168051000Y-41550000I0J-51000D01*
G01*
X168051000Y-42450000D01*
G75*
G02*
X168000000Y-42501000I-51000J0D01*
G01*
X166700000Y-42501000D01*
G75*
G02*
X166649000Y-42450000I0J51000D01*
G01*
G37*
G36*
G01*
X166649000Y-45450000D02*
X166649000Y-44550000D01*
G75*
G02*
X166700000Y-44499000I51000J0D01*
G01*
X168000000Y-44499000D01*
G75*
G02*
X168051000Y-44550000I0J-51000D01*
G01*
X168051000Y-45450000D01*
G75*
G02*
X168000000Y-45501000I-51000J0D01*
G01*
X166700000Y-45501000D01*
G75*
G02*
X166649000Y-45450000I0J51000D01*
G01*
G37*
G36*
X171309950Y-42583480D02*
G01*
X171319517Y-42586382D01*
X171328334Y-42591095D01*
X171336062Y-42597438D01*
X171342405Y-42605166D01*
X171347118Y-42613983D01*
X171350020Y-42623550D01*
X171351000Y-42633500D01*
X171351000Y-44366500D01*
X171350020Y-44376450D01*
X171347118Y-44386017D01*
X171342405Y-44394834D01*
X171336062Y-44402562D01*
X171328334Y-44408905D01*
X171319517Y-44413618D01*
X171309950Y-44416520D01*
X171300000Y-44417500D01*
X168175000Y-44417500D01*
X168165050Y-44416520D01*
X168155483Y-44413618D01*
X168146666Y-44408905D01*
X168138938Y-44402562D01*
X168132595Y-44394834D01*
X168127882Y-44386017D01*
X168124980Y-44376450D01*
X168124000Y-44366500D01*
X168124000Y-44001000D01*
X166700000Y-44001000D01*
X166690050Y-44000020D01*
X166680483Y-43997118D01*
X166671666Y-43992405D01*
X166663938Y-43986062D01*
X166657595Y-43978334D01*
X166652882Y-43969517D01*
X166649980Y-43959950D01*
X166649000Y-43950000D01*
X166649000Y-43050000D01*
X166649980Y-43040050D01*
X166652882Y-43030483D01*
X166657595Y-43021666D01*
X166663938Y-43013938D01*
X166671666Y-43007595D01*
X166680483Y-43002882D01*
X166690050Y-42999980D01*
X166700000Y-42999000D01*
X168124000Y-42999000D01*
X168124000Y-42633500D01*
X168124980Y-42623550D01*
X168127882Y-42613983D01*
X168132595Y-42605166D01*
X168138938Y-42597438D01*
X168146666Y-42591095D01*
X168155483Y-42586382D01*
X168165050Y-42583480D01*
X168175000Y-42582500D01*
X171300000Y-42582500D01*
X171309950Y-42583480D01*
G37*
G36*
G01*
X170121000Y-56589500D02*
X170121000Y-57010500D01*
G75*
G02*
X169960500Y-57171000I-160500J0D01*
G01*
X169639500Y-57171000D01*
G75*
G02*
X169479000Y-57010500I0J160500D01*
G01*
X169479000Y-56589500D01*
G75*
G02*
X169639500Y-56429000I160500J0D01*
G01*
X169960500Y-56429000D01*
G75*
G02*
X170121000Y-56589500I0J-160500D01*
G01*
G37*
G36*
G01*
X169101000Y-56589500D02*
X169101000Y-57010500D01*
G75*
G02*
X168940500Y-57171000I-160500J0D01*
G01*
X168619500Y-57171000D01*
G75*
G02*
X168459000Y-57010500I0J160500D01*
G01*
X168459000Y-56589500D01*
G75*
G02*
X168619500Y-56429000I160500J0D01*
G01*
X168940500Y-56429000D01*
G75*
G02*
X169101000Y-56589500I0J-160500D01*
G01*
G37*
G36*
G01*
X164188500Y-56323876D02*
X164188500Y-57276124D01*
G75*
G02*
X163913624Y-57551000I-274876J0D01*
G01*
X163336376Y-57551000D01*
G75*
G02*
X163061500Y-57276124I0J274876D01*
G01*
X163061500Y-56323876D01*
G75*
G02*
X163336376Y-56049000I274876J0D01*
G01*
X163913624Y-56049000D01*
G75*
G02*
X164188500Y-56323876I0J-274876D01*
G01*
G37*
G36*
G01*
X162363500Y-56323876D02*
X162363500Y-57276124D01*
G75*
G02*
X162088624Y-57551000I-274876J0D01*
G01*
X161511376Y-57551000D01*
G75*
G02*
X161236500Y-57276124I0J274876D01*
G01*
X161236500Y-56323876D01*
G75*
G02*
X161511376Y-56049000I274876J0D01*
G01*
X162088624Y-56049000D01*
G75*
G02*
X162363500Y-56323876I0J-274876D01*
G01*
G37*
G36*
G01*
X164349000Y-62226124D02*
X164349000Y-61273876D01*
G75*
G02*
X164623876Y-60999000I274876J0D01*
G01*
X165201124Y-60999000D01*
G75*
G02*
X165476000Y-61273876I0J-274876D01*
G01*
X165476000Y-62226124D01*
G75*
G02*
X165201124Y-62501000I-274876J0D01*
G01*
X164623876Y-62501000D01*
G75*
G02*
X164349000Y-62226124I0J274876D01*
G01*
G37*
G36*
G01*
X162524000Y-62226124D02*
X162524000Y-61273876D01*
G75*
G02*
X162798876Y-60999000I274876J0D01*
G01*
X163376124Y-60999000D01*
G75*
G02*
X163651000Y-61273876I0J-274876D01*
G01*
X163651000Y-62226124D01*
G75*
G02*
X163376124Y-62501000I-274876J0D01*
G01*
X162798876Y-62501000D01*
G75*
G02*
X162524000Y-62226124I0J274876D01*
G01*
G37*
G36*
G01*
X160523876Y-58611500D02*
X161476124Y-58611500D01*
G75*
G02*
X161751000Y-58886376I0J-274876D01*
G01*
X161751000Y-59463624D01*
G75*
G02*
X161476124Y-59738500I-274876J0D01*
G01*
X160523876Y-59738500D01*
G75*
G02*
X160249000Y-59463624I0J274876D01*
G01*
X160249000Y-58886376D01*
G75*
G02*
X160523876Y-58611500I274876J0D01*
G01*
G37*
G36*
G01*
X160523876Y-60436500D02*
X161476124Y-60436500D01*
G75*
G02*
X161751000Y-60711376I0J-274876D01*
G01*
X161751000Y-61288624D01*
G75*
G02*
X161476124Y-61563500I-274876J0D01*
G01*
X160523876Y-61563500D01*
G75*
G02*
X160249000Y-61288624I0J274876D01*
G01*
X160249000Y-60711376D01*
G75*
G02*
X160523876Y-60436500I274876J0D01*
G01*
G37*
D12*
X158473000Y-79873000D02*
X156127000Y-79873000D01*
X156127000Y-70852606D01*
X156589803Y-70389803D01*
X156605597Y-70370557D01*
X156617333Y-70348601D01*
X156624560Y-70324776D01*
X156627000Y-70300000D01*
X156627000Y-67527000D01*
X157700000Y-67527000D01*
X157724776Y-67524560D01*
X157748601Y-67517333D01*
X157770557Y-67505597D01*
X157789803Y-67489803D01*
X158152606Y-67127000D01*
X158473000Y-67127000D01*
X158473000Y-79873000D01*
D11*
G36*
X158473000Y-79873000D02*
G01*
X156127000Y-79873000D01*
X156127000Y-70852606D01*
X156589803Y-70389803D01*
X156605597Y-70370557D01*
X156617333Y-70348601D01*
X156624560Y-70324776D01*
X156627000Y-70300000D01*
X156627000Y-67527000D01*
X157700000Y-67527000D01*
X157724776Y-67524560D01*
X157748601Y-67517333D01*
X157770557Y-67505597D01*
X157789803Y-67489803D01*
X158152606Y-67127000D01*
X158473000Y-67127000D01*
X158473000Y-79873000D01*
G37*
D12*
X149573000Y-79873000D02*
X147527000Y-79873000D01*
X147527000Y-67127000D01*
X149573000Y-67127000D01*
X149573000Y-79873000D01*
D11*
G36*
X149573000Y-79873000D02*
G01*
X147527000Y-79873000D01*
X147527000Y-67127000D01*
X149573000Y-67127000D01*
X149573000Y-79873000D01*
G37*
D12*
X149873000Y-94873000D02*
X147527000Y-94873000D01*
X147527000Y-82127000D01*
X149873000Y-82127000D01*
X149873000Y-94873000D01*
D11*
G36*
X149873000Y-94873000D02*
G01*
X147527000Y-94873000D01*
X147527000Y-82127000D01*
X149873000Y-82127000D01*
X149873000Y-94873000D01*
G37*
D12*
X149873000Y-109873000D02*
X147527000Y-109873000D01*
X147527000Y-97127000D01*
X149873000Y-97127000D01*
X149873000Y-109873000D01*
D11*
G36*
X149873000Y-109873000D02*
G01*
X147527000Y-109873000D01*
X147527000Y-97127000D01*
X149873000Y-97127000D01*
X149873000Y-109873000D01*
G37*
D12*
X158473000Y-124873000D02*
X156127000Y-124873000D01*
X156127000Y-112127000D01*
X158473000Y-112127000D01*
X158473000Y-124873000D01*
D11*
G36*
X158473000Y-124873000D02*
G01*
X156127000Y-124873000D01*
X156127000Y-112127000D01*
X158473000Y-112127000D01*
X158473000Y-124873000D01*
G37*
D12*
X158473000Y-109873000D02*
X156127000Y-109873000D01*
X156127000Y-97127000D01*
X158473000Y-97127000D01*
X158473000Y-109873000D01*
D11*
G36*
X158473000Y-109873000D02*
G01*
X156127000Y-109873000D01*
X156127000Y-97127000D01*
X158473000Y-97127000D01*
X158473000Y-109873000D01*
G37*
D12*
X158473000Y-94873000D02*
X156127000Y-94873000D01*
X156127000Y-82127000D01*
X158473000Y-82127000D01*
X158473000Y-94873000D01*
D11*
G36*
X158473000Y-94873000D02*
G01*
X156127000Y-94873000D01*
X156127000Y-82127000D01*
X158473000Y-82127000D01*
X158473000Y-94873000D01*
G37*
D12*
X149573000Y-124873000D02*
X147527000Y-124873000D01*
X147527000Y-112127000D01*
X149573000Y-112127000D01*
X149573000Y-124873000D01*
D11*
G36*
X149573000Y-124873000D02*
G01*
X147527000Y-124873000D01*
X147527000Y-112127000D01*
X149573000Y-112127000D01*
X149573000Y-124873000D01*
G37*
G36*
X152750732Y-115634960D02*
G01*
X152751000Y-115635960D01*
X152751000Y-117237960D01*
X152750000Y-117239692D01*
X152749000Y-117239960D01*
X152600760Y-117239960D01*
X152599028Y-117238960D01*
X152598760Y-117237960D01*
X152598760Y-115635960D01*
X152599760Y-115634228D01*
X152600760Y-115633960D01*
X152749000Y-115633960D01*
X152750732Y-115634960D01*
G37*
G36*
X153400732Y-115634960D02*
G01*
X153401000Y-115635960D01*
X153401000Y-117237960D01*
X153400000Y-117239692D01*
X153399000Y-117239960D01*
X153251000Y-117239960D01*
X153249268Y-117238960D01*
X153249000Y-117237960D01*
X153249000Y-115635960D01*
X153250000Y-115634228D01*
X153251000Y-115633960D01*
X153399000Y-115633960D01*
X153400732Y-115634960D01*
G37*
G36*
X152710732Y-100894960D02*
G01*
X152711000Y-100895960D01*
X152711000Y-102497960D01*
X152710000Y-102499692D01*
X152709000Y-102499960D01*
X152560760Y-102499960D01*
X152559028Y-102498960D01*
X152558760Y-102497960D01*
X152558760Y-100895960D01*
X152559760Y-100894228D01*
X152560760Y-100893960D01*
X152709000Y-100893960D01*
X152710732Y-100894960D01*
G37*
G36*
X153360732Y-100894960D02*
G01*
X153361000Y-100895960D01*
X153361000Y-102497960D01*
X153360000Y-102499692D01*
X153359000Y-102499960D01*
X153211000Y-102499960D01*
X153209268Y-102498960D01*
X153209000Y-102497960D01*
X153209000Y-100895960D01*
X153210000Y-100894228D01*
X153211000Y-100893960D01*
X153359000Y-100893960D01*
X153360732Y-100894960D01*
G37*
G36*
X153350732Y-86094960D02*
G01*
X153351000Y-86095960D01*
X153351000Y-87697960D01*
X153350000Y-87699692D01*
X153349000Y-87699960D01*
X153201000Y-87699960D01*
X153199268Y-87698960D01*
X153199000Y-87697960D01*
X153199000Y-86095960D01*
X153200000Y-86094228D01*
X153201000Y-86093960D01*
X153349000Y-86093960D01*
X153350732Y-86094960D01*
G37*
G36*
X152700732Y-86094960D02*
G01*
X152701000Y-86095960D01*
X152701000Y-87697960D01*
X152700000Y-87699692D01*
X152699000Y-87699960D01*
X152550760Y-87699960D01*
X152549028Y-87698960D01*
X152548760Y-87697960D01*
X152548760Y-86095960D01*
X152549760Y-86094228D01*
X152550760Y-86093960D01*
X152699000Y-86093960D01*
X152700732Y-86094960D01*
G37*
G36*
X152706232Y-71294960D02*
G01*
X152706500Y-71295960D01*
X152706500Y-72897960D01*
X152705500Y-72899692D01*
X152704500Y-72899960D01*
X152556260Y-72899960D01*
X152554528Y-72898960D01*
X152554260Y-72897960D01*
X152554260Y-71295960D01*
X152555260Y-71294228D01*
X152556260Y-71293960D01*
X152704500Y-71293960D01*
X152706232Y-71294960D01*
G37*
G36*
X153356232Y-71294960D02*
G01*
X153356500Y-71295960D01*
X153356500Y-72897960D01*
X153355500Y-72899692D01*
X153354500Y-72899960D01*
X153206500Y-72899960D01*
X153204768Y-72898960D01*
X153204500Y-72897960D01*
X153204500Y-71295960D01*
X153205500Y-71294228D01*
X153206500Y-71293960D01*
X153354500Y-71293960D01*
X153356232Y-71294960D01*
G37*
G36*
X163482732Y-59625000D02*
G01*
X163483000Y-59626000D01*
X163483000Y-59824000D01*
X163482000Y-59825732D01*
X163481000Y-59826000D01*
X162319000Y-59826000D01*
X162317268Y-59825000D01*
X162317000Y-59824000D01*
X162317000Y-59626000D01*
X162318000Y-59624268D01*
X162319000Y-59624000D01*
X163481000Y-59624000D01*
X163482732Y-59625000D01*
G37*
G36*
X163482732Y-58675000D02*
G01*
X163483000Y-58676000D01*
X163483000Y-58874000D01*
X163482000Y-58875732D01*
X163481000Y-58876000D01*
X162319000Y-58876000D01*
X162317268Y-58875000D01*
X162317000Y-58874000D01*
X162317000Y-58676000D01*
X162318000Y-58674268D01*
X162319000Y-58674000D01*
X163481000Y-58674000D01*
X163482732Y-58675000D01*
G37*
G36*
X168367732Y-52705000D02*
G01*
X168368000Y-52706000D01*
X168368000Y-52804000D01*
X168367000Y-52805732D01*
X168366000Y-52806000D01*
X166814000Y-52806000D01*
X166812268Y-52805000D01*
X166812000Y-52804000D01*
X166812000Y-52706000D01*
X166813000Y-52704268D01*
X166814000Y-52704000D01*
X168366000Y-52704000D01*
X168367732Y-52705000D01*
G37*
G36*
X162467732Y-52705000D02*
G01*
X162468000Y-52706000D01*
X162468000Y-52804000D01*
X162467000Y-52805732D01*
X162466000Y-52806000D01*
X160914000Y-52806000D01*
X160912268Y-52805000D01*
X160912000Y-52804000D01*
X160912000Y-52706000D01*
X160913000Y-52704268D01*
X160914000Y-52704000D01*
X162466000Y-52704000D01*
X162467732Y-52705000D01*
G37*
G36*
X168367732Y-52055000D02*
G01*
X168368000Y-52056000D01*
X168368000Y-52154000D01*
X168367000Y-52155732D01*
X168366000Y-52156000D01*
X166814000Y-52156000D01*
X166812268Y-52155000D01*
X166812000Y-52154000D01*
X166812000Y-52056000D01*
X166813000Y-52054268D01*
X166814000Y-52054000D01*
X168366000Y-52054000D01*
X168367732Y-52055000D01*
G37*
G36*
X162467732Y-52055000D02*
G01*
X162468000Y-52056000D01*
X162468000Y-52154000D01*
X162467000Y-52155732D01*
X162466000Y-52156000D01*
X160914000Y-52156000D01*
X160912268Y-52155000D01*
X160912000Y-52154000D01*
X160912000Y-52056000D01*
X160913000Y-52054268D01*
X160914000Y-52054000D01*
X162466000Y-52054000D01*
X162467732Y-52055000D01*
G37*
G36*
X170489692Y-51500000D02*
G01*
X170489960Y-51501000D01*
X170489960Y-51649240D01*
X170488960Y-51650972D01*
X170487960Y-51651240D01*
X168885960Y-51651240D01*
X168884228Y-51650240D01*
X168883960Y-51649240D01*
X168883960Y-51501000D01*
X168884960Y-51499268D01*
X168885960Y-51499000D01*
X170487960Y-51499000D01*
X170489692Y-51500000D01*
G37*
G36*
X162467732Y-51405000D02*
G01*
X162468000Y-51406000D01*
X162468000Y-51504000D01*
X162467000Y-51505732D01*
X162466000Y-51506000D01*
X160914000Y-51506000D01*
X160912268Y-51505000D01*
X160912000Y-51504000D01*
X160912000Y-51406000D01*
X160913000Y-51404268D01*
X160914000Y-51404000D01*
X162466000Y-51404000D01*
X162467732Y-51405000D01*
G37*
G36*
X168367732Y-51405000D02*
G01*
X168368000Y-51406000D01*
X168368000Y-51504000D01*
X168367000Y-51505732D01*
X168366000Y-51506000D01*
X166814000Y-51506000D01*
X166812268Y-51505000D01*
X166812000Y-51504000D01*
X166812000Y-51406000D01*
X166813000Y-51404268D01*
X166814000Y-51404000D01*
X168366000Y-51404000D01*
X168367732Y-51405000D01*
G37*
G36*
X170489692Y-50850000D02*
G01*
X170489960Y-50851000D01*
X170489960Y-50999000D01*
X170488960Y-51000732D01*
X170487960Y-51001000D01*
X168885960Y-51001000D01*
X168884228Y-51000000D01*
X168883960Y-50999000D01*
X168883960Y-50851000D01*
X168884960Y-50849268D01*
X168885960Y-50849000D01*
X170487960Y-50849000D01*
X170489692Y-50850000D01*
G37*
G36*
X162467732Y-50755000D02*
G01*
X162468000Y-50756000D01*
X162468000Y-50854000D01*
X162467000Y-50855732D01*
X162466000Y-50856000D01*
X160914000Y-50856000D01*
X160912268Y-50855000D01*
X160912000Y-50854000D01*
X160912000Y-50756000D01*
X160913000Y-50754268D01*
X160914000Y-50754000D01*
X162466000Y-50754000D01*
X162467732Y-50755000D01*
G37*
G36*
X168367732Y-50755000D02*
G01*
X168368000Y-50756000D01*
X168368000Y-50854000D01*
X168367000Y-50855732D01*
X168366000Y-50856000D01*
X166814000Y-50856000D01*
X166812268Y-50855000D01*
X166812000Y-50854000D01*
X166812000Y-50756000D01*
X166813000Y-50754268D01*
X166814000Y-50754000D01*
X168366000Y-50754000D01*
X168367732Y-50755000D01*
G37*
G36*
X162467732Y-50105000D02*
G01*
X162468000Y-50106000D01*
X162468000Y-50204000D01*
X162467000Y-50205732D01*
X162466000Y-50206000D01*
X160914000Y-50206000D01*
X160912268Y-50205000D01*
X160912000Y-50204000D01*
X160912000Y-50106000D01*
X160913000Y-50104268D01*
X160914000Y-50104000D01*
X162466000Y-50104000D01*
X162467732Y-50105000D01*
G37*
G36*
X168367732Y-50105000D02*
G01*
X168368000Y-50106000D01*
X168368000Y-50204000D01*
X168367000Y-50205732D01*
X168366000Y-50206000D01*
X166814000Y-50206000D01*
X166812268Y-50205000D01*
X166812000Y-50204000D01*
X166812000Y-50106000D01*
X166813000Y-50104268D01*
X166814000Y-50104000D01*
X168366000Y-50104000D01*
X168367732Y-50105000D01*
G37*
G36*
X168367732Y-49455000D02*
G01*
X168368000Y-49456000D01*
X168368000Y-49554000D01*
X168367000Y-49555732D01*
X168366000Y-49556000D01*
X166814000Y-49556000D01*
X166812268Y-49555000D01*
X166812000Y-49554000D01*
X166812000Y-49456000D01*
X166813000Y-49454268D01*
X166814000Y-49454000D01*
X168366000Y-49454000D01*
X168367732Y-49455000D01*
G37*
G36*
X162467732Y-49455000D02*
G01*
X162468000Y-49456000D01*
X162468000Y-49554000D01*
X162467000Y-49555732D01*
X162466000Y-49556000D01*
X160914000Y-49556000D01*
X160912268Y-49555000D01*
X160912000Y-49554000D01*
X160912000Y-49456000D01*
X160913000Y-49454268D01*
X160914000Y-49454000D01*
X162466000Y-49454000D01*
X162467732Y-49455000D01*
G37*
G36*
X168367732Y-48805000D02*
G01*
X168368000Y-48806000D01*
X168368000Y-48904000D01*
X168367000Y-48905732D01*
X168366000Y-48906000D01*
X166814000Y-48906000D01*
X166812268Y-48905000D01*
X166812000Y-48904000D01*
X166812000Y-48806000D01*
X166813000Y-48804268D01*
X166814000Y-48804000D01*
X168366000Y-48804000D01*
X168367732Y-48805000D01*
G37*
G36*
X162467732Y-48805000D02*
G01*
X162468000Y-48806000D01*
X162468000Y-48904000D01*
X162467000Y-48905732D01*
X162466000Y-48906000D01*
X160914000Y-48906000D01*
X160912268Y-48905000D01*
X160912000Y-48904000D01*
X160912000Y-48806000D01*
X160913000Y-48804268D01*
X160914000Y-48804000D01*
X162466000Y-48804000D01*
X162467732Y-48805000D01*
G37*
G36*
X162467732Y-48155000D02*
G01*
X162468000Y-48156000D01*
X162468000Y-48254000D01*
X162467000Y-48255732D01*
X162466000Y-48256000D01*
X160914000Y-48256000D01*
X160912268Y-48255000D01*
X160912000Y-48254000D01*
X160912000Y-48156000D01*
X160913000Y-48154268D01*
X160914000Y-48154000D01*
X162466000Y-48154000D01*
X162467732Y-48155000D01*
G37*
G36*
X168367732Y-48155000D02*
G01*
X168368000Y-48156000D01*
X168368000Y-48254000D01*
X168367000Y-48255732D01*
X168366000Y-48256000D01*
X166814000Y-48256000D01*
X166812268Y-48255000D01*
X166812000Y-48254000D01*
X166812000Y-48156000D01*
X166813000Y-48154268D01*
X166814000Y-48154000D01*
X168366000Y-48154000D01*
X168367732Y-48155000D01*
G37*
G36*
X168367732Y-47505000D02*
G01*
X168368000Y-47506000D01*
X168368000Y-47604000D01*
X168367000Y-47605732D01*
X168366000Y-47606000D01*
X166814000Y-47606000D01*
X166812268Y-47605000D01*
X166812000Y-47604000D01*
X166812000Y-47506000D01*
X166813000Y-47504268D01*
X166814000Y-47504000D01*
X168366000Y-47504000D01*
X168367732Y-47505000D01*
G37*
G36*
X162467732Y-47505000D02*
G01*
X162468000Y-47506000D01*
X162468000Y-47604000D01*
X162467000Y-47605732D01*
X162466000Y-47606000D01*
X160914000Y-47606000D01*
X160912268Y-47605000D01*
X160912000Y-47604000D01*
X160912000Y-47506000D01*
X160913000Y-47504268D01*
X160914000Y-47504000D01*
X162466000Y-47504000D01*
X162467732Y-47505000D01*
G37*
M02*
