G04 #@! TF.GenerationSoftware,KiCad,Pcbnew,(5.0.2)-1*
G04 #@! TF.CreationDate,2020-07-12T04:03:39+02:00*
G04 #@! TF.ProjectId,TempSpike,54656d70-5370-4696-9b65-2e6b69636164,rev?*
G04 #@! TF.SameCoordinates,Original*
G04 #@! TF.FileFunction,Legend,Bot*
G04 #@! TF.FilePolarity,Positive*
%FSLAX46Y46*%
G04 Gerber Fmt 4.6, Leading zero omitted, Abs format (unit mm)*
G04 Created by KiCad (PCBNEW (5.0.2)-1) date 2020/07/12 04:03:39*
%MOMM*%
%LPD*%
G01*
G04 APERTURE LIST*
%ADD10C,0.300000*%
%ADD11C,0.150000*%
G04 APERTURE END LIST*
D10*
X140142857Y-46478571D02*
X140642857Y-45764285D01*
X141000000Y-46478571D02*
X141000000Y-44978571D01*
X140428571Y-44978571D01*
X140285714Y-45050000D01*
X140214285Y-45121428D01*
X140142857Y-45264285D01*
X140142857Y-45478571D01*
X140214285Y-45621428D01*
X140285714Y-45692857D01*
X140428571Y-45764285D01*
X141000000Y-45764285D01*
X139642857Y-46478571D02*
X138857142Y-45478571D01*
X139642857Y-45478571D02*
X138857142Y-46478571D01*
X141135714Y-42378571D02*
X140278571Y-42378571D01*
X140707142Y-43878571D02*
X140707142Y-42378571D01*
X139921428Y-43878571D02*
X139135714Y-42878571D01*
X139921428Y-42878571D02*
X139135714Y-43878571D01*
X140357142Y-47650000D02*
X140500000Y-47578571D01*
X140714285Y-47578571D01*
X140928571Y-47650000D01*
X141071428Y-47792857D01*
X141142857Y-47935714D01*
X141214285Y-48221428D01*
X141214285Y-48435714D01*
X141142857Y-48721428D01*
X141071428Y-48864285D01*
X140928571Y-49007142D01*
X140714285Y-49078571D01*
X140571428Y-49078571D01*
X140357142Y-49007142D01*
X140285714Y-48935714D01*
X140285714Y-48435714D01*
X140571428Y-48435714D01*
X139642857Y-49078571D02*
X139642857Y-47578571D01*
X139285714Y-47578571D01*
X139071428Y-47650000D01*
X138928571Y-47792857D01*
X138857142Y-47935714D01*
X138785714Y-48221428D01*
X138785714Y-48435714D01*
X138857142Y-48721428D01*
X138928571Y-48864285D01*
X139071428Y-49007142D01*
X139285714Y-49078571D01*
X139642857Y-49078571D01*
X140285714Y-39978571D02*
X141000000Y-39978571D01*
X141071428Y-40692857D01*
X141000000Y-40621428D01*
X140857142Y-40550000D01*
X140500000Y-40550000D01*
X140357142Y-40621428D01*
X140285714Y-40692857D01*
X140214285Y-40835714D01*
X140214285Y-41192857D01*
X140285714Y-41335714D01*
X140357142Y-41407142D01*
X140500000Y-41478571D01*
X140857142Y-41478571D01*
X141000000Y-41407142D01*
X141071428Y-41335714D01*
X139785714Y-39978571D02*
X139285714Y-41478571D01*
X138785714Y-39978571D01*
X173342857Y-49350000D02*
X173485714Y-49278571D01*
X173700000Y-49278571D01*
X173914285Y-49350000D01*
X174057142Y-49492857D01*
X174128571Y-49635714D01*
X174200000Y-49921428D01*
X174200000Y-50135714D01*
X174128571Y-50421428D01*
X174057142Y-50564285D01*
X173914285Y-50707142D01*
X173700000Y-50778571D01*
X173557142Y-50778571D01*
X173342857Y-50707142D01*
X173271428Y-50635714D01*
X173271428Y-50135714D01*
X173557142Y-50135714D01*
X172628571Y-50778571D02*
X172628571Y-49278571D01*
X171771428Y-50778571D01*
X171771428Y-49278571D01*
X171057142Y-50778571D02*
X171057142Y-49278571D01*
X170700000Y-49278571D01*
X170485714Y-49350000D01*
X170342857Y-49492857D01*
X170271428Y-49635714D01*
X170200000Y-49921428D01*
X170200000Y-50135714D01*
X170271428Y-50421428D01*
X170342857Y-50564285D01*
X170485714Y-50707142D01*
X170700000Y-50778571D01*
X171057142Y-50778571D01*
X174035714Y-48135714D02*
X173964285Y-48207142D01*
X174035714Y-48278571D01*
X174107142Y-48207142D01*
X174035714Y-48135714D01*
X174035714Y-48278571D01*
X174035714Y-47707142D02*
X174107142Y-46850000D01*
X174035714Y-46778571D01*
X173964285Y-46850000D01*
X174035714Y-47707142D01*
X174035714Y-46778571D01*
X172464285Y-48278571D02*
X172964285Y-47564285D01*
X173321428Y-48278571D02*
X173321428Y-46778571D01*
X172750000Y-46778571D01*
X172607142Y-46850000D01*
X172535714Y-46921428D01*
X172464285Y-47064285D01*
X172464285Y-47278571D01*
X172535714Y-47421428D01*
X172607142Y-47492857D01*
X172750000Y-47564285D01*
X173321428Y-47564285D01*
X171892857Y-48207142D02*
X171678571Y-48278571D01*
X171321428Y-48278571D01*
X171178571Y-48207142D01*
X171107142Y-48135714D01*
X171035714Y-47992857D01*
X171035714Y-47850000D01*
X171107142Y-47707142D01*
X171178571Y-47635714D01*
X171321428Y-47564285D01*
X171607142Y-47492857D01*
X171750000Y-47421428D01*
X171821428Y-47350000D01*
X171892857Y-47207142D01*
X171892857Y-47064285D01*
X171821428Y-46921428D01*
X171750000Y-46850000D01*
X171607142Y-46778571D01*
X171250000Y-46778571D01*
X171035714Y-46850000D01*
X170607142Y-46778571D02*
X169750000Y-46778571D01*
X170178571Y-48278571D02*
X170178571Y-46778571D01*
X174078571Y-45607142D02*
X173864285Y-45678571D01*
X173507142Y-45678571D01*
X173364285Y-45607142D01*
X173292857Y-45535714D01*
X173221428Y-45392857D01*
X173221428Y-45250000D01*
X173292857Y-45107142D01*
X173364285Y-45035714D01*
X173507142Y-44964285D01*
X173792857Y-44892857D01*
X173935714Y-44821428D01*
X174007142Y-44750000D01*
X174078571Y-44607142D01*
X174078571Y-44464285D01*
X174007142Y-44321428D01*
X173935714Y-44250000D01*
X173792857Y-44178571D01*
X173435714Y-44178571D01*
X173221428Y-44250000D01*
X172721428Y-44178571D02*
X172364285Y-45678571D01*
X172078571Y-44607142D01*
X171792857Y-45678571D01*
X171435714Y-44178571D01*
X170864285Y-45678571D02*
X170864285Y-44178571D01*
X170507142Y-44178571D01*
X170292857Y-44250000D01*
X170150000Y-44392857D01*
X170078571Y-44535714D01*
X170007142Y-44821428D01*
X170007142Y-45035714D01*
X170078571Y-45321428D01*
X170150000Y-45464285D01*
X170292857Y-45607142D01*
X170507142Y-45678571D01*
X170864285Y-45678571D01*
X169364285Y-45678571D02*
X169364285Y-44178571D01*
X168364285Y-44178571D02*
X168078571Y-44178571D01*
X167935714Y-44250000D01*
X167792857Y-44392857D01*
X167721428Y-44678571D01*
X167721428Y-45178571D01*
X167792857Y-45464285D01*
X167935714Y-45607142D01*
X168078571Y-45678571D01*
X168364285Y-45678571D01*
X168507142Y-45607142D01*
X168650000Y-45464285D01*
X168721428Y-45178571D01*
X168721428Y-44678571D01*
X168650000Y-44392857D01*
X168507142Y-44250000D01*
X168364285Y-44178571D01*
X174092857Y-43007142D02*
X173878571Y-43078571D01*
X173521428Y-43078571D01*
X173378571Y-43007142D01*
X173307142Y-42935714D01*
X173235714Y-42792857D01*
X173235714Y-42650000D01*
X173307142Y-42507142D01*
X173378571Y-42435714D01*
X173521428Y-42364285D01*
X173807142Y-42292857D01*
X173950000Y-42221428D01*
X174021428Y-42150000D01*
X174092857Y-42007142D01*
X174092857Y-41864285D01*
X174021428Y-41721428D01*
X173950000Y-41650000D01*
X173807142Y-41578571D01*
X173450000Y-41578571D01*
X173235714Y-41650000D01*
X172735714Y-41578571D02*
X172378571Y-43078571D01*
X172092857Y-42007142D01*
X171807142Y-43078571D01*
X171450000Y-41578571D01*
X170021428Y-42935714D02*
X170092857Y-43007142D01*
X170307142Y-43078571D01*
X170450000Y-43078571D01*
X170664285Y-43007142D01*
X170807142Y-42864285D01*
X170878571Y-42721428D01*
X170950000Y-42435714D01*
X170950000Y-42221428D01*
X170878571Y-41935714D01*
X170807142Y-41792857D01*
X170664285Y-41650000D01*
X170450000Y-41578571D01*
X170307142Y-41578571D01*
X170092857Y-41650000D01*
X170021428Y-41721428D01*
X168664285Y-43078571D02*
X169378571Y-43078571D01*
X169378571Y-41578571D01*
X168164285Y-43078571D02*
X168164285Y-41578571D01*
X167307142Y-43078571D02*
X167950000Y-42221428D01*
X167307142Y-41578571D02*
X168164285Y-42435714D01*
X173285714Y-39078571D02*
X174000000Y-39078571D01*
X174071428Y-39792857D01*
X174000000Y-39721428D01*
X173857142Y-39650000D01*
X173500000Y-39650000D01*
X173357142Y-39721428D01*
X173285714Y-39792857D01*
X173214285Y-39935714D01*
X173214285Y-40292857D01*
X173285714Y-40435714D01*
X173357142Y-40507142D01*
X173500000Y-40578571D01*
X173857142Y-40578571D01*
X174000000Y-40507142D01*
X174071428Y-40435714D01*
X172785714Y-39078571D02*
X172285714Y-40578571D01*
X171785714Y-39078571D01*
D11*
G04 #@! TO.C,U8*
X152245000Y-47305000D02*
X152245000Y-47330000D01*
X148095000Y-47305000D02*
X148095000Y-47410000D01*
X148095000Y-57455000D02*
X148095000Y-57350000D01*
X152245000Y-57455000D02*
X152245000Y-57350000D01*
X152245000Y-47305000D02*
X148095000Y-47305000D01*
X152245000Y-57455000D02*
X148095000Y-57455000D01*
X152245000Y-47330000D02*
X153620000Y-47330000D01*
G04 #@! TO.C,U9*
X162245000Y-47305000D02*
X162245000Y-47330000D01*
X158095000Y-47305000D02*
X158095000Y-47410000D01*
X158095000Y-57455000D02*
X158095000Y-57350000D01*
X162245000Y-57455000D02*
X162245000Y-57350000D01*
X162245000Y-47305000D02*
X158095000Y-47305000D01*
X162245000Y-57455000D02*
X158095000Y-57455000D01*
X162245000Y-47330000D02*
X163620000Y-47330000D01*
G04 #@! TO.C,U8*
X150931904Y-45832380D02*
X150931904Y-46641904D01*
X150884285Y-46737142D01*
X150836666Y-46784761D01*
X150741428Y-46832380D01*
X150550952Y-46832380D01*
X150455714Y-46784761D01*
X150408095Y-46737142D01*
X150360476Y-46641904D01*
X150360476Y-45832380D01*
X149741428Y-46260952D02*
X149836666Y-46213333D01*
X149884285Y-46165714D01*
X149931904Y-46070476D01*
X149931904Y-46022857D01*
X149884285Y-45927619D01*
X149836666Y-45880000D01*
X149741428Y-45832380D01*
X149550952Y-45832380D01*
X149455714Y-45880000D01*
X149408095Y-45927619D01*
X149360476Y-46022857D01*
X149360476Y-46070476D01*
X149408095Y-46165714D01*
X149455714Y-46213333D01*
X149550952Y-46260952D01*
X149741428Y-46260952D01*
X149836666Y-46308571D01*
X149884285Y-46356190D01*
X149931904Y-46451428D01*
X149931904Y-46641904D01*
X149884285Y-46737142D01*
X149836666Y-46784761D01*
X149741428Y-46832380D01*
X149550952Y-46832380D01*
X149455714Y-46784761D01*
X149408095Y-46737142D01*
X149360476Y-46641904D01*
X149360476Y-46451428D01*
X149408095Y-46356190D01*
X149455714Y-46308571D01*
X149550952Y-46260952D01*
G04 #@! TO.C,U9*
X160931904Y-45832380D02*
X160931904Y-46641904D01*
X160884285Y-46737142D01*
X160836666Y-46784761D01*
X160741428Y-46832380D01*
X160550952Y-46832380D01*
X160455714Y-46784761D01*
X160408095Y-46737142D01*
X160360476Y-46641904D01*
X160360476Y-45832380D01*
X159836666Y-46832380D02*
X159646190Y-46832380D01*
X159550952Y-46784761D01*
X159503333Y-46737142D01*
X159408095Y-46594285D01*
X159360476Y-46403809D01*
X159360476Y-46022857D01*
X159408095Y-45927619D01*
X159455714Y-45880000D01*
X159550952Y-45832380D01*
X159741428Y-45832380D01*
X159836666Y-45880000D01*
X159884285Y-45927619D01*
X159931904Y-46022857D01*
X159931904Y-46260952D01*
X159884285Y-46356190D01*
X159836666Y-46403809D01*
X159741428Y-46451428D01*
X159550952Y-46451428D01*
X159455714Y-46403809D01*
X159408095Y-46356190D01*
X159360476Y-46260952D01*
G04 #@! TD*
M02*
