G04 #@! TF.GenerationSoftware,KiCad,Pcbnew,(5.0.2)-1*
G04 #@! TF.CreationDate,2020-07-12T04:03:39+02:00*
G04 #@! TF.ProjectId,TempSpike,54656d70-5370-4696-9b65-2e6b69636164,rev?*
G04 #@! TF.SameCoordinates,Original*
G04 #@! TF.FileFunction,Soldermask,Top*
G04 #@! TF.FilePolarity,Negative*
%FSLAX46Y46*%
G04 Gerber Fmt 4.6, Leading zero omitted, Abs format (unit mm)*
G04 Created by KiCad (PCBNEW (5.0.2)-1) date 2020/07/12 04:03:39*
%MOMM*%
%LPD*%
G01*
G04 APERTURE LIST*
%ADD10C,0.100000*%
G04 APERTURE END LIST*
D10*
G36*
X158600000Y-125000000D02*
X156000000Y-125000000D01*
X156000000Y-112000000D01*
X158600000Y-112000000D01*
X158600000Y-125000000D01*
X158600000Y-125000000D01*
G37*
G36*
X150000000Y-125000000D02*
X147400000Y-125000000D01*
X147400000Y-112000000D01*
X150000000Y-112000000D01*
X150000000Y-125000000D01*
X150000000Y-125000000D01*
G37*
G36*
X152177960Y-119341240D02*
X150575960Y-119341240D01*
X150575960Y-117539000D01*
X152177960Y-117539000D01*
X152177960Y-119341240D01*
X152177960Y-119341240D01*
G37*
G36*
X155104040Y-119341240D02*
X153502040Y-119341240D01*
X153502040Y-118839240D01*
X155104040Y-118839240D01*
X155104040Y-119341240D01*
X155104040Y-119341240D01*
G37*
G36*
X155104040Y-118040760D02*
X153502040Y-118040760D01*
X153502040Y-117538760D01*
X155104040Y-117538760D01*
X155104040Y-118040760D01*
X155104040Y-118040760D01*
G37*
G36*
X152391966Y-114383565D02*
X152430637Y-114395296D01*
X152466279Y-114414348D01*
X152497517Y-114439983D01*
X152523152Y-114471221D01*
X152542204Y-114506863D01*
X152553935Y-114545534D01*
X152558500Y-114591888D01*
X152558500Y-115668112D01*
X152553935Y-115714466D01*
X152542204Y-115753137D01*
X152523152Y-115788779D01*
X152497517Y-115820017D01*
X152466279Y-115845652D01*
X152430637Y-115864704D01*
X152391966Y-115876435D01*
X152345612Y-115881000D01*
X151694388Y-115881000D01*
X151648034Y-115876435D01*
X151609363Y-115864704D01*
X151573721Y-115845652D01*
X151542483Y-115820017D01*
X151516848Y-115788779D01*
X151497796Y-115753137D01*
X151486065Y-115714466D01*
X151481500Y-115668112D01*
X151481500Y-114591888D01*
X151486065Y-114545534D01*
X151497796Y-114506863D01*
X151516848Y-114471221D01*
X151542483Y-114439983D01*
X151573721Y-114414348D01*
X151609363Y-114395296D01*
X151648034Y-114383565D01*
X151694388Y-114379000D01*
X152345612Y-114379000D01*
X152391966Y-114383565D01*
X152391966Y-114383565D01*
G37*
G36*
X154266966Y-114383565D02*
X154305637Y-114395296D01*
X154341279Y-114414348D01*
X154372517Y-114439983D01*
X154398152Y-114471221D01*
X154417204Y-114506863D01*
X154428935Y-114545534D01*
X154433500Y-114591888D01*
X154433500Y-115668112D01*
X154428935Y-115714466D01*
X154417204Y-115753137D01*
X154398152Y-115788779D01*
X154372517Y-115820017D01*
X154341279Y-115845652D01*
X154305637Y-115864704D01*
X154266966Y-115876435D01*
X154220612Y-115881000D01*
X153569388Y-115881000D01*
X153523034Y-115876435D01*
X153484363Y-115864704D01*
X153448721Y-115845652D01*
X153417483Y-115820017D01*
X153391848Y-115788779D01*
X153372796Y-115753137D01*
X153361065Y-115714466D01*
X153356500Y-115668112D01*
X153356500Y-114591888D01*
X153361065Y-114545534D01*
X153372796Y-114506863D01*
X153391848Y-114471221D01*
X153417483Y-114439983D01*
X153448721Y-114414348D01*
X153484363Y-114395296D01*
X153523034Y-114383565D01*
X153569388Y-114379000D01*
X154220612Y-114379000D01*
X154266966Y-114383565D01*
X154266966Y-114383565D01*
G37*
G36*
X158600000Y-110000000D02*
X156000000Y-110000000D01*
X156000000Y-97000000D01*
X158600000Y-97000000D01*
X158600000Y-110000000D01*
X158600000Y-110000000D01*
G37*
G36*
X150000000Y-110000000D02*
X147400000Y-110000000D01*
X147400000Y-97000000D01*
X150000000Y-97000000D01*
X150000000Y-110000000D01*
X150000000Y-110000000D01*
G37*
G36*
X152177960Y-104341240D02*
X150575960Y-104341240D01*
X150575960Y-102539000D01*
X152177960Y-102539000D01*
X152177960Y-104341240D01*
X152177960Y-104341240D01*
G37*
G36*
X155104040Y-104341240D02*
X153502040Y-104341240D01*
X153502040Y-103839240D01*
X155104040Y-103839240D01*
X155104040Y-104341240D01*
X155104040Y-104341240D01*
G37*
G36*
X155104040Y-103040760D02*
X153502040Y-103040760D01*
X153502040Y-102538760D01*
X155104040Y-102538760D01*
X155104040Y-103040760D01*
X155104040Y-103040760D01*
G37*
G36*
X152376966Y-100113565D02*
X152415637Y-100125296D01*
X152451279Y-100144348D01*
X152482517Y-100169983D01*
X152508152Y-100201221D01*
X152527204Y-100236863D01*
X152538935Y-100275534D01*
X152543500Y-100321888D01*
X152543500Y-101398112D01*
X152538935Y-101444466D01*
X152527204Y-101483137D01*
X152508152Y-101518779D01*
X152482517Y-101550017D01*
X152451279Y-101575652D01*
X152415637Y-101594704D01*
X152376966Y-101606435D01*
X152330612Y-101611000D01*
X151679388Y-101611000D01*
X151633034Y-101606435D01*
X151594363Y-101594704D01*
X151558721Y-101575652D01*
X151527483Y-101550017D01*
X151501848Y-101518779D01*
X151482796Y-101483137D01*
X151471065Y-101444466D01*
X151466500Y-101398112D01*
X151466500Y-100321888D01*
X151471065Y-100275534D01*
X151482796Y-100236863D01*
X151501848Y-100201221D01*
X151527483Y-100169983D01*
X151558721Y-100144348D01*
X151594363Y-100125296D01*
X151633034Y-100113565D01*
X151679388Y-100109000D01*
X152330612Y-100109000D01*
X152376966Y-100113565D01*
X152376966Y-100113565D01*
G37*
G36*
X154251966Y-100113565D02*
X154290637Y-100125296D01*
X154326279Y-100144348D01*
X154357517Y-100169983D01*
X154383152Y-100201221D01*
X154402204Y-100236863D01*
X154413935Y-100275534D01*
X154418500Y-100321888D01*
X154418500Y-101398112D01*
X154413935Y-101444466D01*
X154402204Y-101483137D01*
X154383152Y-101518779D01*
X154357517Y-101550017D01*
X154326279Y-101575652D01*
X154290637Y-101594704D01*
X154251966Y-101606435D01*
X154205612Y-101611000D01*
X153554388Y-101611000D01*
X153508034Y-101606435D01*
X153469363Y-101594704D01*
X153433721Y-101575652D01*
X153402483Y-101550017D01*
X153376848Y-101518779D01*
X153357796Y-101483137D01*
X153346065Y-101444466D01*
X153341500Y-101398112D01*
X153341500Y-100321888D01*
X153346065Y-100275534D01*
X153357796Y-100236863D01*
X153376848Y-100201221D01*
X153402483Y-100169983D01*
X153433721Y-100144348D01*
X153469363Y-100125296D01*
X153508034Y-100113565D01*
X153554388Y-100109000D01*
X154205612Y-100109000D01*
X154251966Y-100113565D01*
X154251966Y-100113565D01*
G37*
G36*
X150000000Y-95000000D02*
X147400000Y-95000000D01*
X147400000Y-82000000D01*
X150000000Y-82000000D01*
X150000000Y-95000000D01*
X150000000Y-95000000D01*
G37*
G36*
X158600000Y-95000000D02*
X156000000Y-95000000D01*
X156000000Y-82000000D01*
X158600000Y-82000000D01*
X158600000Y-95000000D01*
X158600000Y-95000000D01*
G37*
G36*
X155114040Y-89341240D02*
X153512040Y-89341240D01*
X153512040Y-88839240D01*
X155114040Y-88839240D01*
X155114040Y-89341240D01*
X155114040Y-89341240D01*
G37*
G36*
X152187960Y-89341240D02*
X150585960Y-89341240D01*
X150585960Y-87539000D01*
X152187960Y-87539000D01*
X152187960Y-89341240D01*
X152187960Y-89341240D01*
G37*
G36*
X155114040Y-88040760D02*
X153512040Y-88040760D01*
X153512040Y-87538760D01*
X155114040Y-87538760D01*
X155114040Y-88040760D01*
X155114040Y-88040760D01*
G37*
G36*
X154326966Y-85273565D02*
X154365637Y-85285296D01*
X154401279Y-85304348D01*
X154432517Y-85329983D01*
X154458152Y-85361221D01*
X154477204Y-85396863D01*
X154488935Y-85435534D01*
X154493500Y-85481888D01*
X154493500Y-86558112D01*
X154488935Y-86604466D01*
X154477204Y-86643137D01*
X154458152Y-86678779D01*
X154432517Y-86710017D01*
X154401279Y-86735652D01*
X154365637Y-86754704D01*
X154326966Y-86766435D01*
X154280612Y-86771000D01*
X153629388Y-86771000D01*
X153583034Y-86766435D01*
X153544363Y-86754704D01*
X153508721Y-86735652D01*
X153477483Y-86710017D01*
X153451848Y-86678779D01*
X153432796Y-86643137D01*
X153421065Y-86604466D01*
X153416500Y-86558112D01*
X153416500Y-85481888D01*
X153421065Y-85435534D01*
X153432796Y-85396863D01*
X153451848Y-85361221D01*
X153477483Y-85329983D01*
X153508721Y-85304348D01*
X153544363Y-85285296D01*
X153583034Y-85273565D01*
X153629388Y-85269000D01*
X154280612Y-85269000D01*
X154326966Y-85273565D01*
X154326966Y-85273565D01*
G37*
G36*
X152451966Y-85273565D02*
X152490637Y-85285296D01*
X152526279Y-85304348D01*
X152557517Y-85329983D01*
X152583152Y-85361221D01*
X152602204Y-85396863D01*
X152613935Y-85435534D01*
X152618500Y-85481888D01*
X152618500Y-86558112D01*
X152613935Y-86604466D01*
X152602204Y-86643137D01*
X152583152Y-86678779D01*
X152557517Y-86710017D01*
X152526279Y-86735652D01*
X152490637Y-86754704D01*
X152451966Y-86766435D01*
X152405612Y-86771000D01*
X151754388Y-86771000D01*
X151708034Y-86766435D01*
X151669363Y-86754704D01*
X151633721Y-86735652D01*
X151602483Y-86710017D01*
X151576848Y-86678779D01*
X151557796Y-86643137D01*
X151546065Y-86604466D01*
X151541500Y-86558112D01*
X151541500Y-85481888D01*
X151546065Y-85435534D01*
X151557796Y-85396863D01*
X151576848Y-85361221D01*
X151602483Y-85329983D01*
X151633721Y-85304348D01*
X151669363Y-85285296D01*
X151708034Y-85273565D01*
X151754388Y-85269000D01*
X152405612Y-85269000D01*
X152451966Y-85273565D01*
X152451966Y-85273565D01*
G37*
G36*
X150000000Y-72324000D02*
X150002402Y-72348386D01*
X150009515Y-72371835D01*
X150021066Y-72393446D01*
X150036612Y-72412388D01*
X150055554Y-72427934D01*
X150061000Y-72430845D01*
X150061000Y-74569155D01*
X150055554Y-74572066D01*
X150036612Y-74587612D01*
X150021066Y-74606554D01*
X150009515Y-74628165D01*
X150002402Y-74651614D01*
X150000000Y-74676000D01*
X150000000Y-80000000D01*
X147400000Y-80000000D01*
X147400000Y-67000000D01*
X150000000Y-67000000D01*
X150000000Y-72324000D01*
X150000000Y-72324000D01*
G37*
G36*
X158600000Y-80000000D02*
X156000000Y-80000000D01*
X156000000Y-70800000D01*
X156463388Y-70336612D01*
X156478934Y-70317670D01*
X156490485Y-70296059D01*
X156497598Y-70272610D01*
X156500000Y-70248224D01*
X156500000Y-67400000D01*
X157648224Y-67400000D01*
X157672610Y-67397598D01*
X157696059Y-67390485D01*
X157717670Y-67378934D01*
X157736612Y-67363388D01*
X158100000Y-67000000D01*
X158600000Y-67000000D01*
X158600000Y-80000000D01*
X158600000Y-80000000D01*
G37*
G36*
X155108540Y-74341240D02*
X153506540Y-74341240D01*
X153506540Y-73839240D01*
X155108540Y-73839240D01*
X155108540Y-74341240D01*
X155108540Y-74341240D01*
G37*
G36*
X152182460Y-74341240D02*
X150580460Y-74341240D01*
X150580460Y-72539000D01*
X152182460Y-72539000D01*
X152182460Y-74341240D01*
X152182460Y-74341240D01*
G37*
G36*
X155108540Y-73040760D02*
X153506540Y-73040760D01*
X153506540Y-72538760D01*
X155108540Y-72538760D01*
X155108540Y-73040760D01*
X155108540Y-73040760D01*
G37*
G36*
X154496966Y-70173565D02*
X154535637Y-70185296D01*
X154571279Y-70204348D01*
X154602517Y-70229983D01*
X154628152Y-70261221D01*
X154647204Y-70296863D01*
X154658935Y-70335534D01*
X154663500Y-70381888D01*
X154663500Y-71458112D01*
X154658935Y-71504466D01*
X154647204Y-71543137D01*
X154628152Y-71578779D01*
X154602517Y-71610017D01*
X154571279Y-71635652D01*
X154535637Y-71654704D01*
X154496966Y-71666435D01*
X154450612Y-71671000D01*
X153799388Y-71671000D01*
X153753034Y-71666435D01*
X153714363Y-71654704D01*
X153678721Y-71635652D01*
X153647483Y-71610017D01*
X153621848Y-71578779D01*
X153602796Y-71543137D01*
X153591065Y-71504466D01*
X153586500Y-71458112D01*
X153586500Y-70381888D01*
X153591065Y-70335534D01*
X153602796Y-70296863D01*
X153621848Y-70261221D01*
X153647483Y-70229983D01*
X153678721Y-70204348D01*
X153714363Y-70185296D01*
X153753034Y-70173565D01*
X153799388Y-70169000D01*
X154450612Y-70169000D01*
X154496966Y-70173565D01*
X154496966Y-70173565D01*
G37*
G36*
X152621966Y-70173565D02*
X152660637Y-70185296D01*
X152696279Y-70204348D01*
X152727517Y-70229983D01*
X152753152Y-70261221D01*
X152772204Y-70296863D01*
X152783935Y-70335534D01*
X152788500Y-70381888D01*
X152788500Y-71458112D01*
X152783935Y-71504466D01*
X152772204Y-71543137D01*
X152753152Y-71578779D01*
X152727517Y-71610017D01*
X152696279Y-71635652D01*
X152660637Y-71654704D01*
X152621966Y-71666435D01*
X152575612Y-71671000D01*
X151924388Y-71671000D01*
X151878034Y-71666435D01*
X151839363Y-71654704D01*
X151803721Y-71635652D01*
X151772483Y-71610017D01*
X151746848Y-71578779D01*
X151727796Y-71543137D01*
X151716065Y-71504466D01*
X151711500Y-71458112D01*
X151711500Y-70381888D01*
X151716065Y-70335534D01*
X151727796Y-70296863D01*
X151746848Y-70261221D01*
X151772483Y-70229983D01*
X151803721Y-70204348D01*
X151839363Y-70185296D01*
X151878034Y-70173565D01*
X151924388Y-70169000D01*
X152575612Y-70169000D01*
X152621966Y-70173565D01*
X152621966Y-70173565D01*
G37*
G36*
X177368466Y-59807065D02*
X177407137Y-59818796D01*
X177442779Y-59837848D01*
X177474017Y-59863483D01*
X177499652Y-59894721D01*
X177518704Y-59930363D01*
X177530435Y-59969034D01*
X177535000Y-60015388D01*
X177535000Y-60666612D01*
X177530435Y-60712966D01*
X177518704Y-60751637D01*
X177499652Y-60787279D01*
X177474017Y-60818517D01*
X177442779Y-60844152D01*
X177407137Y-60863204D01*
X177368466Y-60874935D01*
X177322112Y-60879500D01*
X176245888Y-60879500D01*
X176199534Y-60874935D01*
X176160863Y-60863204D01*
X176125221Y-60844152D01*
X176093983Y-60818517D01*
X176068348Y-60787279D01*
X176049296Y-60751637D01*
X176037565Y-60712966D01*
X176033000Y-60666612D01*
X176033000Y-60015388D01*
X176037565Y-59969034D01*
X176049296Y-59930363D01*
X176068348Y-59894721D01*
X176093983Y-59863483D01*
X176125221Y-59837848D01*
X176160863Y-59818796D01*
X176199534Y-59807065D01*
X176245888Y-59802500D01*
X177322112Y-59802500D01*
X177368466Y-59807065D01*
X177368466Y-59807065D01*
G37*
G36*
X173050466Y-59807065D02*
X173089137Y-59818796D01*
X173124779Y-59837848D01*
X173156017Y-59863483D01*
X173181652Y-59894721D01*
X173200704Y-59930363D01*
X173212435Y-59969034D01*
X173217000Y-60015388D01*
X173217000Y-60666612D01*
X173212435Y-60712966D01*
X173200704Y-60751637D01*
X173181652Y-60787279D01*
X173156017Y-60818517D01*
X173124779Y-60844152D01*
X173089137Y-60863204D01*
X173050466Y-60874935D01*
X173004112Y-60879500D01*
X171927888Y-60879500D01*
X171881534Y-60874935D01*
X171842863Y-60863204D01*
X171807221Y-60844152D01*
X171775983Y-60818517D01*
X171750348Y-60787279D01*
X171731296Y-60751637D01*
X171719565Y-60712966D01*
X171715000Y-60666612D01*
X171715000Y-60015388D01*
X171719565Y-59969034D01*
X171731296Y-59930363D01*
X171750348Y-59894721D01*
X171775983Y-59863483D01*
X171807221Y-59837848D01*
X171842863Y-59818796D01*
X171881534Y-59807065D01*
X171927888Y-59802500D01*
X173004112Y-59802500D01*
X173050466Y-59807065D01*
X173050466Y-59807065D01*
G37*
G36*
X175209466Y-59807065D02*
X175248137Y-59818796D01*
X175283779Y-59837848D01*
X175315017Y-59863483D01*
X175340652Y-59894721D01*
X175359704Y-59930363D01*
X175371435Y-59969034D01*
X175376000Y-60015388D01*
X175376000Y-60666612D01*
X175371435Y-60712966D01*
X175359704Y-60751637D01*
X175340652Y-60787279D01*
X175315017Y-60818517D01*
X175283779Y-60844152D01*
X175248137Y-60863204D01*
X175209466Y-60874935D01*
X175163112Y-60879500D01*
X174086888Y-60879500D01*
X174040534Y-60874935D01*
X174001863Y-60863204D01*
X173966221Y-60844152D01*
X173934983Y-60818517D01*
X173909348Y-60787279D01*
X173890296Y-60751637D01*
X173878565Y-60712966D01*
X173874000Y-60666612D01*
X173874000Y-60015388D01*
X173878565Y-59969034D01*
X173890296Y-59930363D01*
X173909348Y-59894721D01*
X173934983Y-59863483D01*
X173966221Y-59837848D01*
X174001863Y-59818796D01*
X174040534Y-59807065D01*
X174086888Y-59802500D01*
X175163112Y-59802500D01*
X175209466Y-59807065D01*
X175209466Y-59807065D01*
G37*
G36*
X166700466Y-59523065D02*
X166739137Y-59534796D01*
X166774779Y-59553848D01*
X166806017Y-59579483D01*
X166831652Y-59610721D01*
X166850704Y-59646363D01*
X166862435Y-59685034D01*
X166867000Y-59731388D01*
X166867000Y-60382612D01*
X166862435Y-60428966D01*
X166850704Y-60467637D01*
X166831652Y-60503279D01*
X166806017Y-60534517D01*
X166774779Y-60560152D01*
X166739137Y-60579204D01*
X166700466Y-60590935D01*
X166654112Y-60595500D01*
X165577888Y-60595500D01*
X165531534Y-60590935D01*
X165492863Y-60579204D01*
X165457221Y-60560152D01*
X165425983Y-60534517D01*
X165400348Y-60503279D01*
X165381296Y-60467637D01*
X165369565Y-60428966D01*
X165365000Y-60382612D01*
X165365000Y-59731388D01*
X165369565Y-59685034D01*
X165381296Y-59646363D01*
X165400348Y-59610721D01*
X165425983Y-59579483D01*
X165457221Y-59553848D01*
X165492863Y-59534796D01*
X165531534Y-59523065D01*
X165577888Y-59518500D01*
X166654112Y-59518500D01*
X166700466Y-59523065D01*
X166700466Y-59523065D01*
G37*
G36*
X171211000Y-60439000D02*
X170049000Y-60439000D01*
X170049000Y-59687000D01*
X171211000Y-59687000D01*
X171211000Y-60439000D01*
X171211000Y-60439000D01*
G37*
G36*
X169011000Y-60439000D02*
X167849000Y-60439000D01*
X167849000Y-57787000D01*
X169011000Y-57787000D01*
X169011000Y-60439000D01*
X169011000Y-60439000D01*
G37*
G36*
X153019466Y-59069065D02*
X153058137Y-59080796D01*
X153093779Y-59099848D01*
X153125017Y-59125483D01*
X153150652Y-59156721D01*
X153169704Y-59192363D01*
X153181435Y-59231034D01*
X153186000Y-59277388D01*
X153186000Y-59928612D01*
X153181435Y-59974966D01*
X153169704Y-60013637D01*
X153150652Y-60049279D01*
X153125017Y-60080517D01*
X153093779Y-60106152D01*
X153058137Y-60125204D01*
X153019466Y-60136935D01*
X152973112Y-60141500D01*
X151896888Y-60141500D01*
X151850534Y-60136935D01*
X151811863Y-60125204D01*
X151776221Y-60106152D01*
X151744983Y-60080517D01*
X151719348Y-60049279D01*
X151700296Y-60013637D01*
X151688565Y-59974966D01*
X151684000Y-59928612D01*
X151684000Y-59277388D01*
X151688565Y-59231034D01*
X151700296Y-59192363D01*
X151719348Y-59156721D01*
X151744983Y-59125483D01*
X151776221Y-59099848D01*
X151811863Y-59080796D01*
X151850534Y-59069065D01*
X151896888Y-59064500D01*
X152973112Y-59064500D01*
X153019466Y-59069065D01*
X153019466Y-59069065D01*
G37*
G36*
X155283466Y-59069065D02*
X155322137Y-59080796D01*
X155357779Y-59099848D01*
X155389017Y-59125483D01*
X155414652Y-59156721D01*
X155433704Y-59192363D01*
X155445435Y-59231034D01*
X155450000Y-59277388D01*
X155450000Y-59928612D01*
X155445435Y-59974966D01*
X155433704Y-60013637D01*
X155414652Y-60049279D01*
X155389017Y-60080517D01*
X155357779Y-60106152D01*
X155322137Y-60125204D01*
X155283466Y-60136935D01*
X155237112Y-60141500D01*
X154160888Y-60141500D01*
X154114534Y-60136935D01*
X154075863Y-60125204D01*
X154040221Y-60106152D01*
X154008983Y-60080517D01*
X153983348Y-60049279D01*
X153964296Y-60013637D01*
X153952565Y-59974966D01*
X153948000Y-59928612D01*
X153948000Y-59277388D01*
X153952565Y-59231034D01*
X153964296Y-59192363D01*
X153983348Y-59156721D01*
X154008983Y-59125483D01*
X154040221Y-59099848D01*
X154075863Y-59080796D01*
X154114534Y-59069065D01*
X154160888Y-59064500D01*
X155237112Y-59064500D01*
X155283466Y-59069065D01*
X155283466Y-59069065D01*
G37*
G36*
X148701466Y-59069065D02*
X148740137Y-59080796D01*
X148775779Y-59099848D01*
X148807017Y-59125483D01*
X148832652Y-59156721D01*
X148851704Y-59192363D01*
X148863435Y-59231034D01*
X148868000Y-59277388D01*
X148868000Y-59928612D01*
X148863435Y-59974966D01*
X148851704Y-60013637D01*
X148832652Y-60049279D01*
X148807017Y-60080517D01*
X148775779Y-60106152D01*
X148740137Y-60125204D01*
X148701466Y-60136935D01*
X148655112Y-60141500D01*
X147578888Y-60141500D01*
X147532534Y-60136935D01*
X147493863Y-60125204D01*
X147458221Y-60106152D01*
X147426983Y-60080517D01*
X147401348Y-60049279D01*
X147382296Y-60013637D01*
X147370565Y-59974966D01*
X147366000Y-59928612D01*
X147366000Y-59277388D01*
X147370565Y-59231034D01*
X147382296Y-59192363D01*
X147401348Y-59156721D01*
X147426983Y-59125483D01*
X147458221Y-59099848D01*
X147493863Y-59080796D01*
X147532534Y-59069065D01*
X147578888Y-59064500D01*
X148655112Y-59064500D01*
X148701466Y-59069065D01*
X148701466Y-59069065D01*
G37*
G36*
X157442466Y-59069065D02*
X157481137Y-59080796D01*
X157516779Y-59099848D01*
X157548017Y-59125483D01*
X157573652Y-59156721D01*
X157592704Y-59192363D01*
X157604435Y-59231034D01*
X157609000Y-59277388D01*
X157609000Y-59928612D01*
X157604435Y-59974966D01*
X157592704Y-60013637D01*
X157573652Y-60049279D01*
X157548017Y-60080517D01*
X157516779Y-60106152D01*
X157481137Y-60125204D01*
X157442466Y-60136935D01*
X157396112Y-60141500D01*
X156319888Y-60141500D01*
X156273534Y-60136935D01*
X156234863Y-60125204D01*
X156199221Y-60106152D01*
X156167983Y-60080517D01*
X156142348Y-60049279D01*
X156123296Y-60013637D01*
X156111565Y-59974966D01*
X156107000Y-59928612D01*
X156107000Y-59277388D01*
X156111565Y-59231034D01*
X156123296Y-59192363D01*
X156142348Y-59156721D01*
X156167983Y-59125483D01*
X156199221Y-59099848D01*
X156234863Y-59080796D01*
X156273534Y-59069065D01*
X156319888Y-59064500D01*
X157396112Y-59064500D01*
X157442466Y-59069065D01*
X157442466Y-59069065D01*
G37*
G36*
X159601466Y-59069065D02*
X159640137Y-59080796D01*
X159675779Y-59099848D01*
X159707017Y-59125483D01*
X159732652Y-59156721D01*
X159751704Y-59192363D01*
X159763435Y-59231034D01*
X159768000Y-59277388D01*
X159768000Y-59928612D01*
X159763435Y-59974966D01*
X159751704Y-60013637D01*
X159732652Y-60049279D01*
X159707017Y-60080517D01*
X159675779Y-60106152D01*
X159640137Y-60125204D01*
X159601466Y-60136935D01*
X159555112Y-60141500D01*
X158478888Y-60141500D01*
X158432534Y-60136935D01*
X158393863Y-60125204D01*
X158358221Y-60106152D01*
X158326983Y-60080517D01*
X158301348Y-60049279D01*
X158282296Y-60013637D01*
X158270565Y-59974966D01*
X158266000Y-59928612D01*
X158266000Y-59277388D01*
X158270565Y-59231034D01*
X158282296Y-59192363D01*
X158301348Y-59156721D01*
X158326983Y-59125483D01*
X158358221Y-59099848D01*
X158393863Y-59080796D01*
X158432534Y-59069065D01*
X158478888Y-59064500D01*
X159555112Y-59064500D01*
X159601466Y-59069065D01*
X159601466Y-59069065D01*
G37*
G36*
X150860466Y-59069065D02*
X150899137Y-59080796D01*
X150934779Y-59099848D01*
X150966017Y-59125483D01*
X150991652Y-59156721D01*
X151010704Y-59192363D01*
X151022435Y-59231034D01*
X151027000Y-59277388D01*
X151027000Y-59928612D01*
X151022435Y-59974966D01*
X151010704Y-60013637D01*
X150991652Y-60049279D01*
X150966017Y-60080517D01*
X150934779Y-60106152D01*
X150899137Y-60125204D01*
X150860466Y-60136935D01*
X150814112Y-60141500D01*
X149737888Y-60141500D01*
X149691534Y-60136935D01*
X149652863Y-60125204D01*
X149617221Y-60106152D01*
X149585983Y-60080517D01*
X149560348Y-60049279D01*
X149541296Y-60013637D01*
X149529565Y-59974966D01*
X149525000Y-59928612D01*
X149525000Y-59277388D01*
X149529565Y-59231034D01*
X149541296Y-59192363D01*
X149560348Y-59156721D01*
X149585983Y-59125483D01*
X149617221Y-59099848D01*
X149652863Y-59080796D01*
X149691534Y-59069065D01*
X149737888Y-59064500D01*
X150814112Y-59064500D01*
X150860466Y-59069065D01*
X150860466Y-59069065D01*
G37*
G36*
X161784466Y-59066065D02*
X161823137Y-59077796D01*
X161858779Y-59096848D01*
X161890017Y-59122483D01*
X161915652Y-59153721D01*
X161934704Y-59189363D01*
X161946435Y-59228034D01*
X161951000Y-59274388D01*
X161951000Y-59925612D01*
X161946435Y-59971966D01*
X161934704Y-60010637D01*
X161915652Y-60046279D01*
X161890017Y-60077517D01*
X161858779Y-60103152D01*
X161823137Y-60122204D01*
X161784466Y-60133935D01*
X161738112Y-60138500D01*
X160661888Y-60138500D01*
X160615534Y-60133935D01*
X160576863Y-60122204D01*
X160541221Y-60103152D01*
X160509983Y-60077517D01*
X160484348Y-60046279D01*
X160465296Y-60010637D01*
X160453565Y-59971966D01*
X160449000Y-59925612D01*
X160449000Y-59274388D01*
X160453565Y-59228034D01*
X160465296Y-59189363D01*
X160484348Y-59153721D01*
X160509983Y-59122483D01*
X160541221Y-59096848D01*
X160576863Y-59077796D01*
X160615534Y-59066065D01*
X160661888Y-59061500D01*
X161738112Y-59061500D01*
X161784466Y-59066065D01*
X161784466Y-59066065D01*
G37*
G36*
X177368466Y-57932065D02*
X177407137Y-57943796D01*
X177442779Y-57962848D01*
X177474017Y-57988483D01*
X177499652Y-58019721D01*
X177518704Y-58055363D01*
X177530435Y-58094034D01*
X177535000Y-58140388D01*
X177535000Y-58791612D01*
X177530435Y-58837966D01*
X177518704Y-58876637D01*
X177499652Y-58912279D01*
X177474017Y-58943517D01*
X177442779Y-58969152D01*
X177407137Y-58988204D01*
X177368466Y-58999935D01*
X177322112Y-59004500D01*
X176245888Y-59004500D01*
X176199534Y-58999935D01*
X176160863Y-58988204D01*
X176125221Y-58969152D01*
X176093983Y-58943517D01*
X176068348Y-58912279D01*
X176049296Y-58876637D01*
X176037565Y-58837966D01*
X176033000Y-58791612D01*
X176033000Y-58140388D01*
X176037565Y-58094034D01*
X176049296Y-58055363D01*
X176068348Y-58019721D01*
X176093983Y-57988483D01*
X176125221Y-57962848D01*
X176160863Y-57943796D01*
X176199534Y-57932065D01*
X176245888Y-57927500D01*
X177322112Y-57927500D01*
X177368466Y-57932065D01*
X177368466Y-57932065D01*
G37*
G36*
X173050466Y-57932065D02*
X173089137Y-57943796D01*
X173124779Y-57962848D01*
X173156017Y-57988483D01*
X173181652Y-58019721D01*
X173200704Y-58055363D01*
X173212435Y-58094034D01*
X173217000Y-58140388D01*
X173217000Y-58791612D01*
X173212435Y-58837966D01*
X173200704Y-58876637D01*
X173181652Y-58912279D01*
X173156017Y-58943517D01*
X173124779Y-58969152D01*
X173089137Y-58988204D01*
X173050466Y-58999935D01*
X173004112Y-59004500D01*
X171927888Y-59004500D01*
X171881534Y-58999935D01*
X171842863Y-58988204D01*
X171807221Y-58969152D01*
X171775983Y-58943517D01*
X171750348Y-58912279D01*
X171731296Y-58876637D01*
X171719565Y-58837966D01*
X171715000Y-58791612D01*
X171715000Y-58140388D01*
X171719565Y-58094034D01*
X171731296Y-58055363D01*
X171750348Y-58019721D01*
X171775983Y-57988483D01*
X171807221Y-57962848D01*
X171842863Y-57943796D01*
X171881534Y-57932065D01*
X171927888Y-57927500D01*
X173004112Y-57927500D01*
X173050466Y-57932065D01*
X173050466Y-57932065D01*
G37*
G36*
X175209466Y-57932065D02*
X175248137Y-57943796D01*
X175283779Y-57962848D01*
X175315017Y-57988483D01*
X175340652Y-58019721D01*
X175359704Y-58055363D01*
X175371435Y-58094034D01*
X175376000Y-58140388D01*
X175376000Y-58791612D01*
X175371435Y-58837966D01*
X175359704Y-58876637D01*
X175340652Y-58912279D01*
X175315017Y-58943517D01*
X175283779Y-58969152D01*
X175248137Y-58988204D01*
X175209466Y-58999935D01*
X175163112Y-59004500D01*
X174086888Y-59004500D01*
X174040534Y-58999935D01*
X174001863Y-58988204D01*
X173966221Y-58969152D01*
X173934983Y-58943517D01*
X173909348Y-58912279D01*
X173890296Y-58876637D01*
X173878565Y-58837966D01*
X173874000Y-58791612D01*
X173874000Y-58140388D01*
X173878565Y-58094034D01*
X173890296Y-58055363D01*
X173909348Y-58019721D01*
X173934983Y-57988483D01*
X173966221Y-57962848D01*
X174001863Y-57943796D01*
X174040534Y-57932065D01*
X174086888Y-57927500D01*
X175163112Y-57927500D01*
X175209466Y-57932065D01*
X175209466Y-57932065D01*
G37*
G36*
X166700466Y-57648065D02*
X166739137Y-57659796D01*
X166774779Y-57678848D01*
X166806017Y-57704483D01*
X166831652Y-57735721D01*
X166850704Y-57771363D01*
X166862435Y-57810034D01*
X166867000Y-57856388D01*
X166867000Y-58507612D01*
X166862435Y-58553966D01*
X166850704Y-58592637D01*
X166831652Y-58628279D01*
X166806017Y-58659517D01*
X166774779Y-58685152D01*
X166739137Y-58704204D01*
X166700466Y-58715935D01*
X166654112Y-58720500D01*
X165577888Y-58720500D01*
X165531534Y-58715935D01*
X165492863Y-58704204D01*
X165457221Y-58685152D01*
X165425983Y-58659517D01*
X165400348Y-58628279D01*
X165381296Y-58592637D01*
X165369565Y-58553966D01*
X165365000Y-58507612D01*
X165365000Y-57856388D01*
X165369565Y-57810034D01*
X165381296Y-57771363D01*
X165400348Y-57735721D01*
X165425983Y-57704483D01*
X165457221Y-57678848D01*
X165492863Y-57659796D01*
X165531534Y-57648065D01*
X165577888Y-57643500D01*
X166654112Y-57643500D01*
X166700466Y-57648065D01*
X166700466Y-57648065D01*
G37*
G36*
X171211000Y-58539000D02*
X170049000Y-58539000D01*
X170049000Y-57787000D01*
X171211000Y-57787000D01*
X171211000Y-58539000D01*
X171211000Y-58539000D01*
G37*
G36*
X159601466Y-57194065D02*
X159640137Y-57205796D01*
X159675779Y-57224848D01*
X159707017Y-57250483D01*
X159732652Y-57281721D01*
X159751704Y-57317363D01*
X159763435Y-57356034D01*
X159768000Y-57402388D01*
X159768000Y-58053612D01*
X159763435Y-58099966D01*
X159751704Y-58138637D01*
X159732652Y-58174279D01*
X159707017Y-58205517D01*
X159675779Y-58231152D01*
X159640137Y-58250204D01*
X159601466Y-58261935D01*
X159555112Y-58266500D01*
X158478888Y-58266500D01*
X158432534Y-58261935D01*
X158393863Y-58250204D01*
X158358221Y-58231152D01*
X158326983Y-58205517D01*
X158301348Y-58174279D01*
X158282296Y-58138637D01*
X158270565Y-58099966D01*
X158266000Y-58053612D01*
X158266000Y-57402388D01*
X158270565Y-57356034D01*
X158282296Y-57317363D01*
X158301348Y-57281721D01*
X158326983Y-57250483D01*
X158358221Y-57224848D01*
X158393863Y-57205796D01*
X158432534Y-57194065D01*
X158478888Y-57189500D01*
X159555112Y-57189500D01*
X159601466Y-57194065D01*
X159601466Y-57194065D01*
G37*
G36*
X157442466Y-57194065D02*
X157481137Y-57205796D01*
X157516779Y-57224848D01*
X157548017Y-57250483D01*
X157573652Y-57281721D01*
X157592704Y-57317363D01*
X157604435Y-57356034D01*
X157609000Y-57402388D01*
X157609000Y-58053612D01*
X157604435Y-58099966D01*
X157592704Y-58138637D01*
X157573652Y-58174279D01*
X157548017Y-58205517D01*
X157516779Y-58231152D01*
X157481137Y-58250204D01*
X157442466Y-58261935D01*
X157396112Y-58266500D01*
X156319888Y-58266500D01*
X156273534Y-58261935D01*
X156234863Y-58250204D01*
X156199221Y-58231152D01*
X156167983Y-58205517D01*
X156142348Y-58174279D01*
X156123296Y-58138637D01*
X156111565Y-58099966D01*
X156107000Y-58053612D01*
X156107000Y-57402388D01*
X156111565Y-57356034D01*
X156123296Y-57317363D01*
X156142348Y-57281721D01*
X156167983Y-57250483D01*
X156199221Y-57224848D01*
X156234863Y-57205796D01*
X156273534Y-57194065D01*
X156319888Y-57189500D01*
X157396112Y-57189500D01*
X157442466Y-57194065D01*
X157442466Y-57194065D01*
G37*
G36*
X148701466Y-57194065D02*
X148740137Y-57205796D01*
X148775779Y-57224848D01*
X148807017Y-57250483D01*
X148832652Y-57281721D01*
X148851704Y-57317363D01*
X148863435Y-57356034D01*
X148868000Y-57402388D01*
X148868000Y-58053612D01*
X148863435Y-58099966D01*
X148851704Y-58138637D01*
X148832652Y-58174279D01*
X148807017Y-58205517D01*
X148775779Y-58231152D01*
X148740137Y-58250204D01*
X148701466Y-58261935D01*
X148655112Y-58266500D01*
X147578888Y-58266500D01*
X147532534Y-58261935D01*
X147493863Y-58250204D01*
X147458221Y-58231152D01*
X147426983Y-58205517D01*
X147401348Y-58174279D01*
X147382296Y-58138637D01*
X147370565Y-58099966D01*
X147366000Y-58053612D01*
X147366000Y-57402388D01*
X147370565Y-57356034D01*
X147382296Y-57317363D01*
X147401348Y-57281721D01*
X147426983Y-57250483D01*
X147458221Y-57224848D01*
X147493863Y-57205796D01*
X147532534Y-57194065D01*
X147578888Y-57189500D01*
X148655112Y-57189500D01*
X148701466Y-57194065D01*
X148701466Y-57194065D01*
G37*
G36*
X150860466Y-57194065D02*
X150899137Y-57205796D01*
X150934779Y-57224848D01*
X150966017Y-57250483D01*
X150991652Y-57281721D01*
X151010704Y-57317363D01*
X151022435Y-57356034D01*
X151027000Y-57402388D01*
X151027000Y-58053612D01*
X151022435Y-58099966D01*
X151010704Y-58138637D01*
X150991652Y-58174279D01*
X150966017Y-58205517D01*
X150934779Y-58231152D01*
X150899137Y-58250204D01*
X150860466Y-58261935D01*
X150814112Y-58266500D01*
X149737888Y-58266500D01*
X149691534Y-58261935D01*
X149652863Y-58250204D01*
X149617221Y-58231152D01*
X149585983Y-58205517D01*
X149560348Y-58174279D01*
X149541296Y-58138637D01*
X149529565Y-58099966D01*
X149525000Y-58053612D01*
X149525000Y-57402388D01*
X149529565Y-57356034D01*
X149541296Y-57317363D01*
X149560348Y-57281721D01*
X149585983Y-57250483D01*
X149617221Y-57224848D01*
X149652863Y-57205796D01*
X149691534Y-57194065D01*
X149737888Y-57189500D01*
X150814112Y-57189500D01*
X150860466Y-57194065D01*
X150860466Y-57194065D01*
G37*
G36*
X155283466Y-57194065D02*
X155322137Y-57205796D01*
X155357779Y-57224848D01*
X155389017Y-57250483D01*
X155414652Y-57281721D01*
X155433704Y-57317363D01*
X155445435Y-57356034D01*
X155450000Y-57402388D01*
X155450000Y-58053612D01*
X155445435Y-58099966D01*
X155433704Y-58138637D01*
X155414652Y-58174279D01*
X155389017Y-58205517D01*
X155357779Y-58231152D01*
X155322137Y-58250204D01*
X155283466Y-58261935D01*
X155237112Y-58266500D01*
X154160888Y-58266500D01*
X154114534Y-58261935D01*
X154075863Y-58250204D01*
X154040221Y-58231152D01*
X154008983Y-58205517D01*
X153983348Y-58174279D01*
X153964296Y-58138637D01*
X153952565Y-58099966D01*
X153948000Y-58053612D01*
X153948000Y-57402388D01*
X153952565Y-57356034D01*
X153964296Y-57317363D01*
X153983348Y-57281721D01*
X154008983Y-57250483D01*
X154040221Y-57224848D01*
X154075863Y-57205796D01*
X154114534Y-57194065D01*
X154160888Y-57189500D01*
X155237112Y-57189500D01*
X155283466Y-57194065D01*
X155283466Y-57194065D01*
G37*
G36*
X153019466Y-57194065D02*
X153058137Y-57205796D01*
X153093779Y-57224848D01*
X153125017Y-57250483D01*
X153150652Y-57281721D01*
X153169704Y-57317363D01*
X153181435Y-57356034D01*
X153186000Y-57402388D01*
X153186000Y-58053612D01*
X153181435Y-58099966D01*
X153169704Y-58138637D01*
X153150652Y-58174279D01*
X153125017Y-58205517D01*
X153093779Y-58231152D01*
X153058137Y-58250204D01*
X153019466Y-58261935D01*
X152973112Y-58266500D01*
X151896888Y-58266500D01*
X151850534Y-58261935D01*
X151811863Y-58250204D01*
X151776221Y-58231152D01*
X151744983Y-58205517D01*
X151719348Y-58174279D01*
X151700296Y-58138637D01*
X151688565Y-58099966D01*
X151684000Y-58053612D01*
X151684000Y-57402388D01*
X151688565Y-57356034D01*
X151700296Y-57317363D01*
X151719348Y-57281721D01*
X151744983Y-57250483D01*
X151776221Y-57224848D01*
X151811863Y-57205796D01*
X151850534Y-57194065D01*
X151896888Y-57189500D01*
X152973112Y-57189500D01*
X153019466Y-57194065D01*
X153019466Y-57194065D01*
G37*
G36*
X161784466Y-57191065D02*
X161823137Y-57202796D01*
X161858779Y-57221848D01*
X161890017Y-57247483D01*
X161915652Y-57278721D01*
X161934704Y-57314363D01*
X161946435Y-57353034D01*
X161951000Y-57399388D01*
X161951000Y-58050612D01*
X161946435Y-58096966D01*
X161934704Y-58135637D01*
X161915652Y-58171279D01*
X161890017Y-58202517D01*
X161858779Y-58228152D01*
X161823137Y-58247204D01*
X161784466Y-58258935D01*
X161738112Y-58263500D01*
X160661888Y-58263500D01*
X160615534Y-58258935D01*
X160576863Y-58247204D01*
X160541221Y-58228152D01*
X160509983Y-58202517D01*
X160484348Y-58171279D01*
X160465296Y-58135637D01*
X160453565Y-58096966D01*
X160449000Y-58050612D01*
X160449000Y-57399388D01*
X160453565Y-57353034D01*
X160465296Y-57314363D01*
X160484348Y-57278721D01*
X160509983Y-57247483D01*
X160541221Y-57221848D01*
X160576863Y-57202796D01*
X160615534Y-57191065D01*
X160661888Y-57186500D01*
X161738112Y-57186500D01*
X161784466Y-57191065D01*
X161784466Y-57191065D01*
G37*
G36*
X174436538Y-57115378D02*
X172434538Y-57115378D01*
X172434538Y-56213378D01*
X174436538Y-56213378D01*
X174436538Y-57115378D01*
X174436538Y-57115378D01*
G37*
G36*
X170805966Y-55149565D02*
X170844637Y-55161296D01*
X170880279Y-55180348D01*
X170911517Y-55205983D01*
X170937152Y-55237221D01*
X170956204Y-55272863D01*
X170967935Y-55311534D01*
X170972500Y-55357888D01*
X170972500Y-56434112D01*
X170967935Y-56480466D01*
X170956204Y-56519137D01*
X170937152Y-56554779D01*
X170911517Y-56586017D01*
X170880279Y-56611652D01*
X170844637Y-56630704D01*
X170805966Y-56642435D01*
X170759612Y-56647000D01*
X170108388Y-56647000D01*
X170062034Y-56642435D01*
X170023363Y-56630704D01*
X169987721Y-56611652D01*
X169956483Y-56586017D01*
X169930848Y-56554779D01*
X169911796Y-56519137D01*
X169900065Y-56480466D01*
X169895500Y-56434112D01*
X169895500Y-55357888D01*
X169900065Y-55311534D01*
X169911796Y-55272863D01*
X169930848Y-55237221D01*
X169956483Y-55205983D01*
X169987721Y-55180348D01*
X170023363Y-55161296D01*
X170062034Y-55149565D01*
X170108388Y-55145000D01*
X170759612Y-55145000D01*
X170805966Y-55149565D01*
X170805966Y-55149565D01*
G37*
G36*
X168930966Y-55149565D02*
X168969637Y-55161296D01*
X169005279Y-55180348D01*
X169036517Y-55205983D01*
X169062152Y-55237221D01*
X169081204Y-55272863D01*
X169092935Y-55311534D01*
X169097500Y-55357888D01*
X169097500Y-56434112D01*
X169092935Y-56480466D01*
X169081204Y-56519137D01*
X169062152Y-56554779D01*
X169036517Y-56586017D01*
X169005279Y-56611652D01*
X168969637Y-56630704D01*
X168930966Y-56642435D01*
X168884612Y-56647000D01*
X168233388Y-56647000D01*
X168187034Y-56642435D01*
X168148363Y-56630704D01*
X168112721Y-56611652D01*
X168081483Y-56586017D01*
X168055848Y-56554779D01*
X168036796Y-56519137D01*
X168025065Y-56480466D01*
X168020500Y-56434112D01*
X168020500Y-55357888D01*
X168025065Y-55311534D01*
X168036796Y-55272863D01*
X168055848Y-55237221D01*
X168081483Y-55205983D01*
X168112721Y-55180348D01*
X168148363Y-55161296D01*
X168187034Y-55149565D01*
X168233388Y-55145000D01*
X168884612Y-55145000D01*
X168930966Y-55149565D01*
X168930966Y-55149565D01*
G37*
G36*
X177436538Y-56165378D02*
X175434538Y-56165378D01*
X175434538Y-55263378D01*
X177436538Y-55263378D01*
X177436538Y-56165378D01*
X177436538Y-56165378D01*
G37*
G36*
X174436538Y-55215378D02*
X172434538Y-55215378D01*
X172434538Y-54313378D01*
X174436538Y-54313378D01*
X174436538Y-55215378D01*
X174436538Y-55215378D01*
G37*
G36*
X173114920Y-53749240D02*
X171512920Y-53749240D01*
X171512920Y-51947000D01*
X173114920Y-51947000D01*
X173114920Y-53749240D01*
X173114920Y-53749240D01*
G37*
G36*
X176041000Y-53749240D02*
X174439000Y-53749240D01*
X174439000Y-53247240D01*
X176041000Y-53247240D01*
X176041000Y-53749240D01*
X176041000Y-53749240D01*
G37*
G36*
X155156000Y-53121000D02*
X154454000Y-53121000D01*
X154454000Y-51519000D01*
X155156000Y-51519000D01*
X155156000Y-53121000D01*
X155156000Y-53121000D01*
G37*
G36*
X151346000Y-53121000D02*
X150644000Y-53121000D01*
X150644000Y-51519000D01*
X151346000Y-51519000D01*
X151346000Y-53121000D01*
X151346000Y-53121000D01*
G37*
G36*
X150076000Y-53121000D02*
X149374000Y-53121000D01*
X149374000Y-51519000D01*
X150076000Y-51519000D01*
X150076000Y-53121000D01*
X150076000Y-53121000D01*
G37*
G36*
X152616000Y-53121000D02*
X151914000Y-53121000D01*
X151914000Y-51519000D01*
X152616000Y-51519000D01*
X152616000Y-53121000D01*
X152616000Y-53121000D01*
G37*
G36*
X153886000Y-53121000D02*
X153184000Y-53121000D01*
X153184000Y-51519000D01*
X153886000Y-51519000D01*
X153886000Y-53121000D01*
X153886000Y-53121000D01*
G37*
G36*
X156426000Y-53121000D02*
X155724000Y-53121000D01*
X155724000Y-51519000D01*
X156426000Y-51519000D01*
X156426000Y-53121000D01*
X156426000Y-53121000D01*
G37*
G36*
X148806000Y-53121000D02*
X148104000Y-53121000D01*
X148104000Y-51519000D01*
X148806000Y-51519000D01*
X148806000Y-53121000D01*
X148806000Y-53121000D01*
G37*
G36*
X147536000Y-53121000D02*
X146834000Y-53121000D01*
X146834000Y-51519000D01*
X147536000Y-51519000D01*
X147536000Y-53121000D01*
X147536000Y-53121000D01*
G37*
G36*
X162466000Y-52856000D02*
X160914000Y-52856000D01*
X160914000Y-46454000D01*
X162466000Y-46454000D01*
X162466000Y-52856000D01*
X162466000Y-52856000D01*
G37*
G36*
X168366000Y-52856000D02*
X166814000Y-52856000D01*
X166814000Y-46454000D01*
X168366000Y-46454000D01*
X168366000Y-52856000D01*
X168366000Y-52856000D01*
G37*
G36*
X158572466Y-51425065D02*
X158611137Y-51436796D01*
X158646779Y-51455848D01*
X158678017Y-51481483D01*
X158703652Y-51512721D01*
X158722704Y-51548363D01*
X158734435Y-51587034D01*
X158739000Y-51633388D01*
X158739000Y-52284612D01*
X158734435Y-52330966D01*
X158722704Y-52369637D01*
X158703652Y-52405279D01*
X158678017Y-52436517D01*
X158646779Y-52462152D01*
X158611137Y-52481204D01*
X158572466Y-52492935D01*
X158526112Y-52497500D01*
X157449888Y-52497500D01*
X157403534Y-52492935D01*
X157364863Y-52481204D01*
X157329221Y-52462152D01*
X157297983Y-52436517D01*
X157272348Y-52405279D01*
X157253296Y-52369637D01*
X157241565Y-52330966D01*
X157237000Y-52284612D01*
X157237000Y-51633388D01*
X157241565Y-51587034D01*
X157253296Y-51548363D01*
X157272348Y-51512721D01*
X157297983Y-51481483D01*
X157329221Y-51455848D01*
X157364863Y-51436796D01*
X157403534Y-51425065D01*
X157449888Y-51420500D01*
X158526112Y-51420500D01*
X158572466Y-51425065D01*
X158572466Y-51425065D01*
G37*
G36*
X176041000Y-52448760D02*
X174439000Y-52448760D01*
X174439000Y-51946760D01*
X176041000Y-51946760D01*
X176041000Y-52448760D01*
X176041000Y-52448760D01*
G37*
G36*
X176005442Y-49159518D02*
X176071627Y-49166037D01*
X176184853Y-49200384D01*
X176241467Y-49217557D01*
X176276429Y-49236245D01*
X176397991Y-49301222D01*
X176433729Y-49330552D01*
X176535186Y-49413814D01*
X176592130Y-49483202D01*
X176647778Y-49551009D01*
X176647779Y-49551011D01*
X176731443Y-49707533D01*
X176732808Y-49712034D01*
X176782963Y-49877373D01*
X176800359Y-50054000D01*
X176782963Y-50230627D01*
X176775266Y-50256000D01*
X176731443Y-50400467D01*
X176700730Y-50457926D01*
X176647778Y-50556991D01*
X176631256Y-50577123D01*
X176535186Y-50694186D01*
X176433729Y-50777448D01*
X176397991Y-50806778D01*
X176397989Y-50806779D01*
X176241467Y-50890443D01*
X176190181Y-50906000D01*
X176071627Y-50941963D01*
X176005443Y-50948481D01*
X175939260Y-50955000D01*
X175850740Y-50955000D01*
X175784558Y-50948482D01*
X175718373Y-50941963D01*
X175599819Y-50906000D01*
X175548533Y-50890443D01*
X175392011Y-50806779D01*
X175392009Y-50806778D01*
X175356271Y-50777448D01*
X175254814Y-50694186D01*
X175158744Y-50577123D01*
X175142222Y-50556991D01*
X175089270Y-50457926D01*
X175058557Y-50400467D01*
X175014734Y-50256000D01*
X175007037Y-50230627D01*
X174989641Y-50054000D01*
X175007037Y-49877373D01*
X175057192Y-49712034D01*
X175058557Y-49707533D01*
X175142221Y-49551011D01*
X175142222Y-49551009D01*
X175197870Y-49483202D01*
X175254814Y-49413814D01*
X175356271Y-49330552D01*
X175392009Y-49301222D01*
X175513571Y-49236245D01*
X175548533Y-49217557D01*
X175605147Y-49200384D01*
X175718373Y-49166037D01*
X175784558Y-49159518D01*
X175850740Y-49153000D01*
X175939260Y-49153000D01*
X176005442Y-49159518D01*
X176005442Y-49159518D01*
G37*
G36*
X158572466Y-49550065D02*
X158611137Y-49561796D01*
X158646779Y-49580848D01*
X158678017Y-49606483D01*
X158703652Y-49637721D01*
X158722704Y-49673363D01*
X158734435Y-49712034D01*
X158739000Y-49758388D01*
X158739000Y-50409612D01*
X158734435Y-50455966D01*
X158722704Y-50494637D01*
X158703652Y-50530279D01*
X158678017Y-50561517D01*
X158646779Y-50587152D01*
X158611137Y-50606204D01*
X158572466Y-50617935D01*
X158526112Y-50622500D01*
X157449888Y-50622500D01*
X157403534Y-50617935D01*
X157364863Y-50606204D01*
X157329221Y-50587152D01*
X157297983Y-50561517D01*
X157272348Y-50530279D01*
X157253296Y-50494637D01*
X157241565Y-50455966D01*
X157237000Y-50409612D01*
X157237000Y-49758388D01*
X157241565Y-49712034D01*
X157253296Y-49673363D01*
X157272348Y-49637721D01*
X157297983Y-49606483D01*
X157329221Y-49580848D01*
X157364863Y-49561796D01*
X157403534Y-49550065D01*
X157449888Y-49545500D01*
X158526112Y-49545500D01*
X158572466Y-49550065D01*
X158572466Y-49550065D01*
G37*
G36*
X173926476Y-48914889D02*
X173965147Y-48926620D01*
X174000789Y-48945672D01*
X174036800Y-48975224D01*
X174497276Y-49435700D01*
X174526828Y-49471711D01*
X174545880Y-49507353D01*
X174557611Y-49546024D01*
X174561571Y-49586240D01*
X174557611Y-49626456D01*
X174545880Y-49665127D01*
X174526828Y-49700769D01*
X174497276Y-49736780D01*
X173736280Y-50497776D01*
X173700269Y-50527328D01*
X173664627Y-50546380D01*
X173625956Y-50558111D01*
X173585740Y-50562071D01*
X173545524Y-50558111D01*
X173506853Y-50546380D01*
X173471211Y-50527328D01*
X173435200Y-50497776D01*
X172974724Y-50037300D01*
X172945172Y-50001289D01*
X172926120Y-49965647D01*
X172914389Y-49926976D01*
X172910429Y-49886760D01*
X172914389Y-49846544D01*
X172926120Y-49807873D01*
X172945172Y-49772231D01*
X172974724Y-49736220D01*
X173735720Y-48975224D01*
X173771731Y-48945672D01*
X173807373Y-48926620D01*
X173846044Y-48914889D01*
X173886260Y-48910929D01*
X173926476Y-48914889D01*
X173926476Y-48914889D01*
G37*
G36*
X172600650Y-47589063D02*
X172639321Y-47600794D01*
X172674963Y-47619846D01*
X172710974Y-47649398D01*
X173171450Y-48109874D01*
X173201002Y-48145885D01*
X173220054Y-48181527D01*
X173231785Y-48220198D01*
X173235745Y-48260414D01*
X173231785Y-48300630D01*
X173220054Y-48339301D01*
X173201002Y-48374943D01*
X173171450Y-48410954D01*
X172410454Y-49171950D01*
X172374443Y-49201502D01*
X172338801Y-49220554D01*
X172300130Y-49232285D01*
X172259914Y-49236245D01*
X172219698Y-49232285D01*
X172181027Y-49220554D01*
X172145385Y-49201502D01*
X172109374Y-49171950D01*
X171648898Y-48711474D01*
X171619346Y-48675463D01*
X171600294Y-48639821D01*
X171588563Y-48601150D01*
X171584603Y-48560934D01*
X171588563Y-48520718D01*
X171600294Y-48482047D01*
X171619346Y-48446405D01*
X171648898Y-48410394D01*
X172409894Y-47649398D01*
X172445905Y-47619846D01*
X172481547Y-47600794D01*
X172520218Y-47589063D01*
X172560434Y-47585103D01*
X172600650Y-47589063D01*
X172600650Y-47589063D01*
G37*
G36*
X143112442Y-47381518D02*
X143178627Y-47388037D01*
X143291853Y-47422384D01*
X143348467Y-47439557D01*
X143487087Y-47513652D01*
X143504991Y-47523222D01*
X143540729Y-47552552D01*
X143642186Y-47635814D01*
X143710763Y-47719377D01*
X143754778Y-47773009D01*
X143754779Y-47773011D01*
X143838443Y-47929533D01*
X143838443Y-47929534D01*
X143889963Y-48099373D01*
X143907359Y-48276000D01*
X143889963Y-48452627D01*
X143869308Y-48520718D01*
X143838443Y-48622467D01*
X143791376Y-48710521D01*
X143754778Y-48778991D01*
X143725448Y-48814729D01*
X143642186Y-48916186D01*
X143540729Y-48999448D01*
X143504991Y-49028778D01*
X143504989Y-49028779D01*
X143348467Y-49112443D01*
X143291853Y-49129616D01*
X143178627Y-49163963D01*
X143112442Y-49170482D01*
X143046260Y-49177000D01*
X142957740Y-49177000D01*
X142891558Y-49170482D01*
X142825373Y-49163963D01*
X142712147Y-49129616D01*
X142655533Y-49112443D01*
X142499011Y-49028779D01*
X142499009Y-49028778D01*
X142463271Y-48999448D01*
X142361814Y-48916186D01*
X142278552Y-48814729D01*
X142249222Y-48778991D01*
X142212624Y-48710521D01*
X142165557Y-48622467D01*
X142134692Y-48520718D01*
X142114037Y-48452627D01*
X142096641Y-48276000D01*
X142114037Y-48099373D01*
X142165557Y-47929534D01*
X142165557Y-47929533D01*
X142249221Y-47773011D01*
X142249222Y-47773009D01*
X142293237Y-47719377D01*
X142361814Y-47635814D01*
X142463271Y-47552552D01*
X142499009Y-47523222D01*
X142516913Y-47513652D01*
X142655533Y-47439557D01*
X142712147Y-47422384D01*
X142825373Y-47388037D01*
X142891557Y-47381519D01*
X142957740Y-47375000D01*
X143046260Y-47375000D01*
X143112442Y-47381518D01*
X143112442Y-47381518D01*
G37*
G36*
X159397966Y-47678565D02*
X159436637Y-47690296D01*
X159472279Y-47709348D01*
X159503517Y-47734983D01*
X159529152Y-47766221D01*
X159548204Y-47801863D01*
X159559935Y-47840534D01*
X159564500Y-47886888D01*
X159564500Y-48538112D01*
X159559935Y-48584466D01*
X159548204Y-48623137D01*
X159529152Y-48658779D01*
X159503517Y-48690017D01*
X159472279Y-48715652D01*
X159436637Y-48734704D01*
X159397966Y-48746435D01*
X159351612Y-48751000D01*
X158275388Y-48751000D01*
X158229034Y-48746435D01*
X158190363Y-48734704D01*
X158154721Y-48715652D01*
X158123483Y-48690017D01*
X158097848Y-48658779D01*
X158078796Y-48623137D01*
X158067065Y-48584466D01*
X158062500Y-48538112D01*
X158062500Y-47886888D01*
X158067065Y-47840534D01*
X158078796Y-47801863D01*
X158097848Y-47766221D01*
X158123483Y-47734983D01*
X158154721Y-47709348D01*
X158190363Y-47690296D01*
X158229034Y-47678565D01*
X158275388Y-47674000D01*
X159351612Y-47674000D01*
X159397966Y-47678565D01*
X159397966Y-47678565D01*
G37*
G36*
X176005442Y-46619518D02*
X176071627Y-46626037D01*
X176181208Y-46659278D01*
X176241467Y-46677557D01*
X176373511Y-46748137D01*
X176397991Y-46761222D01*
X176433729Y-46790552D01*
X176535186Y-46873814D01*
X176618448Y-46975271D01*
X176647778Y-47011009D01*
X176647779Y-47011011D01*
X176731443Y-47167533D01*
X176731443Y-47167534D01*
X176782963Y-47337373D01*
X176800359Y-47514000D01*
X176782963Y-47690627D01*
X176763739Y-47754000D01*
X176731443Y-47860467D01*
X176717320Y-47886888D01*
X176647778Y-48016991D01*
X176618448Y-48052729D01*
X176535186Y-48154186D01*
X176433729Y-48237448D01*
X176397991Y-48266778D01*
X176397989Y-48266779D01*
X176241467Y-48350443D01*
X176198581Y-48363452D01*
X176071627Y-48401963D01*
X176005443Y-48408481D01*
X175939260Y-48415000D01*
X175850740Y-48415000D01*
X175784558Y-48408482D01*
X175718373Y-48401963D01*
X175591419Y-48363452D01*
X175548533Y-48350443D01*
X175392011Y-48266779D01*
X175392009Y-48266778D01*
X175356271Y-48237448D01*
X175254814Y-48154186D01*
X175171552Y-48052729D01*
X175142222Y-48016991D01*
X175072680Y-47886888D01*
X175058557Y-47860467D01*
X175026261Y-47754000D01*
X175007037Y-47690627D01*
X174989641Y-47514000D01*
X175007037Y-47337373D01*
X175058557Y-47167534D01*
X175058557Y-47167533D01*
X175142221Y-47011011D01*
X175142222Y-47011009D01*
X175171552Y-46975271D01*
X175254814Y-46873814D01*
X175356271Y-46790552D01*
X175392009Y-46761222D01*
X175416489Y-46748137D01*
X175548533Y-46677557D01*
X175608792Y-46659278D01*
X175718373Y-46626037D01*
X175784558Y-46619518D01*
X175850740Y-46613000D01*
X175939260Y-46613000D01*
X176005442Y-46619518D01*
X176005442Y-46619518D01*
G37*
G36*
X147536000Y-47721000D02*
X146834000Y-47721000D01*
X146834000Y-46119000D01*
X147536000Y-46119000D01*
X147536000Y-47721000D01*
X147536000Y-47721000D01*
G37*
G36*
X148806000Y-47721000D02*
X148104000Y-47721000D01*
X148104000Y-46119000D01*
X148806000Y-46119000D01*
X148806000Y-47721000D01*
X148806000Y-47721000D01*
G37*
G36*
X150076000Y-47721000D02*
X149374000Y-47721000D01*
X149374000Y-46119000D01*
X150076000Y-46119000D01*
X150076000Y-47721000D01*
X150076000Y-47721000D01*
G37*
G36*
X156426000Y-47721000D02*
X155724000Y-47721000D01*
X155724000Y-46119000D01*
X156426000Y-46119000D01*
X156426000Y-47721000D01*
X156426000Y-47721000D01*
G37*
G36*
X153886000Y-47721000D02*
X153184000Y-47721000D01*
X153184000Y-46119000D01*
X153886000Y-46119000D01*
X153886000Y-47721000D01*
X153886000Y-47721000D01*
G37*
G36*
X151346000Y-47721000D02*
X150644000Y-47721000D01*
X150644000Y-46119000D01*
X151346000Y-46119000D01*
X151346000Y-47721000D01*
X151346000Y-47721000D01*
G37*
G36*
X152616000Y-47721000D02*
X151914000Y-47721000D01*
X151914000Y-46119000D01*
X152616000Y-46119000D01*
X152616000Y-47721000D01*
X152616000Y-47721000D01*
G37*
G36*
X155156000Y-47721000D02*
X154454000Y-47721000D01*
X154454000Y-46119000D01*
X155156000Y-46119000D01*
X155156000Y-47721000D01*
X155156000Y-47721000D01*
G37*
G36*
X159397966Y-45803565D02*
X159436637Y-45815296D01*
X159472279Y-45834348D01*
X159503517Y-45859983D01*
X159529152Y-45891221D01*
X159548204Y-45926863D01*
X159559935Y-45965534D01*
X159564500Y-46011888D01*
X159564500Y-46663112D01*
X159559935Y-46709466D01*
X159548204Y-46748137D01*
X159529152Y-46783779D01*
X159503517Y-46815017D01*
X159472279Y-46840652D01*
X159436637Y-46859704D01*
X159397966Y-46871435D01*
X159351612Y-46876000D01*
X158275388Y-46876000D01*
X158229034Y-46871435D01*
X158190363Y-46859704D01*
X158154721Y-46840652D01*
X158123483Y-46815017D01*
X158097848Y-46783779D01*
X158078796Y-46748137D01*
X158067065Y-46709466D01*
X158062500Y-46663112D01*
X158062500Y-46011888D01*
X158067065Y-45965534D01*
X158078796Y-45926863D01*
X158097848Y-45891221D01*
X158123483Y-45859983D01*
X158154721Y-45834348D01*
X158190363Y-45815296D01*
X158229034Y-45803565D01*
X158275388Y-45799000D01*
X159351612Y-45799000D01*
X159397966Y-45803565D01*
X159397966Y-45803565D01*
G37*
G36*
X143112443Y-44841519D02*
X143178627Y-44848037D01*
X143291853Y-44882384D01*
X143348467Y-44899557D01*
X143487087Y-44973652D01*
X143504991Y-44983222D01*
X143540729Y-45012552D01*
X143642186Y-45095814D01*
X143725448Y-45197271D01*
X143754778Y-45233009D01*
X143754779Y-45233011D01*
X143838443Y-45389533D01*
X143838443Y-45389534D01*
X143889963Y-45559373D01*
X143907359Y-45736000D01*
X143889963Y-45912627D01*
X143855616Y-46025853D01*
X143838443Y-46082467D01*
X143818915Y-46119000D01*
X143754778Y-46238991D01*
X143725448Y-46274729D01*
X143642186Y-46376186D01*
X143547368Y-46454000D01*
X143504991Y-46488778D01*
X143504989Y-46488779D01*
X143348467Y-46572443D01*
X143291853Y-46589616D01*
X143178627Y-46623963D01*
X143112442Y-46630482D01*
X143046260Y-46637000D01*
X142957740Y-46637000D01*
X142891558Y-46630482D01*
X142825373Y-46623963D01*
X142712147Y-46589616D01*
X142655533Y-46572443D01*
X142499011Y-46488779D01*
X142499009Y-46488778D01*
X142456632Y-46454000D01*
X142361814Y-46376186D01*
X142278552Y-46274729D01*
X142249222Y-46238991D01*
X142185085Y-46119000D01*
X142165557Y-46082467D01*
X142148384Y-46025853D01*
X142114037Y-45912627D01*
X142096641Y-45736000D01*
X142114037Y-45559373D01*
X142165557Y-45389534D01*
X142165557Y-45389533D01*
X142249221Y-45233011D01*
X142249222Y-45233009D01*
X142278552Y-45197271D01*
X142361814Y-45095814D01*
X142463271Y-45012552D01*
X142499009Y-44983222D01*
X142516913Y-44973652D01*
X142655533Y-44899557D01*
X142712147Y-44882384D01*
X142825373Y-44848037D01*
X142891557Y-44841519D01*
X142957740Y-44835000D01*
X143046260Y-44835000D01*
X143112443Y-44841519D01*
X143112443Y-44841519D01*
G37*
G36*
X176005443Y-44079519D02*
X176071627Y-44086037D01*
X176176537Y-44117861D01*
X176241467Y-44137557D01*
X176337078Y-44188663D01*
X176397991Y-44221222D01*
X176415430Y-44235534D01*
X176535186Y-44333814D01*
X176618448Y-44435271D01*
X176647778Y-44471009D01*
X176647779Y-44471011D01*
X176731443Y-44627533D01*
X176731443Y-44627534D01*
X176782963Y-44797373D01*
X176800359Y-44974000D01*
X176782963Y-45150627D01*
X176757973Y-45233009D01*
X176731443Y-45320467D01*
X176662858Y-45448779D01*
X176647778Y-45476991D01*
X176635346Y-45492139D01*
X176535186Y-45614186D01*
X176437152Y-45694639D01*
X176397991Y-45726778D01*
X176397989Y-45726779D01*
X176241467Y-45810443D01*
X176184853Y-45827616D01*
X176071627Y-45861963D01*
X176005442Y-45868482D01*
X175939260Y-45875000D01*
X175850740Y-45875000D01*
X175784557Y-45868481D01*
X175718373Y-45861963D01*
X175605147Y-45827616D01*
X175548533Y-45810443D01*
X175392011Y-45726779D01*
X175392009Y-45726778D01*
X175352848Y-45694639D01*
X175254814Y-45614186D01*
X175154654Y-45492139D01*
X175142222Y-45476991D01*
X175127142Y-45448779D01*
X175058557Y-45320467D01*
X175032027Y-45233009D01*
X175007037Y-45150627D01*
X174989641Y-44974000D01*
X175007037Y-44797373D01*
X175058557Y-44627534D01*
X175058557Y-44627533D01*
X175142221Y-44471011D01*
X175142222Y-44471009D01*
X175171552Y-44435271D01*
X175254814Y-44333814D01*
X175374570Y-44235534D01*
X175392009Y-44221222D01*
X175452922Y-44188663D01*
X175548533Y-44137557D01*
X175613463Y-44117861D01*
X175718373Y-44086037D01*
X175784557Y-44079519D01*
X175850740Y-44073000D01*
X175939260Y-44073000D01*
X176005443Y-44079519D01*
X176005443Y-44079519D01*
G37*
G36*
X173529466Y-44727565D02*
X173568137Y-44739296D01*
X173603779Y-44758348D01*
X173635017Y-44783983D01*
X173660652Y-44815221D01*
X173679704Y-44850863D01*
X173691435Y-44889534D01*
X173696000Y-44935888D01*
X173696000Y-45587112D01*
X173691435Y-45633466D01*
X173679704Y-45672137D01*
X173660652Y-45707779D01*
X173635017Y-45739017D01*
X173603779Y-45764652D01*
X173568137Y-45783704D01*
X173529466Y-45795435D01*
X173483112Y-45800000D01*
X172406888Y-45800000D01*
X172360534Y-45795435D01*
X172321863Y-45783704D01*
X172286221Y-45764652D01*
X172254983Y-45739017D01*
X172229348Y-45707779D01*
X172210296Y-45672137D01*
X172198565Y-45633466D01*
X172194000Y-45587112D01*
X172194000Y-44935888D01*
X172198565Y-44889534D01*
X172210296Y-44850863D01*
X172229348Y-44815221D01*
X172254983Y-44783983D01*
X172286221Y-44758348D01*
X172321863Y-44739296D01*
X172360534Y-44727565D01*
X172406888Y-44723000D01*
X173483112Y-44723000D01*
X173529466Y-44727565D01*
X173529466Y-44727565D01*
G37*
G36*
X171384466Y-44701065D02*
X171423137Y-44712796D01*
X171458779Y-44731848D01*
X171490017Y-44757483D01*
X171515652Y-44788721D01*
X171534704Y-44824363D01*
X171546435Y-44863034D01*
X171551000Y-44909388D01*
X171551000Y-45560612D01*
X171546435Y-45606966D01*
X171534704Y-45645637D01*
X171515652Y-45681279D01*
X171490017Y-45712517D01*
X171458779Y-45738152D01*
X171423137Y-45757204D01*
X171384466Y-45768935D01*
X171338112Y-45773500D01*
X170261888Y-45773500D01*
X170215534Y-45768935D01*
X170176863Y-45757204D01*
X170141221Y-45738152D01*
X170109983Y-45712517D01*
X170084348Y-45681279D01*
X170065296Y-45645637D01*
X170053565Y-45606966D01*
X170049000Y-45560612D01*
X170049000Y-44909388D01*
X170053565Y-44863034D01*
X170065296Y-44824363D01*
X170084348Y-44788721D01*
X170109983Y-44757483D01*
X170141221Y-44731848D01*
X170176863Y-44712796D01*
X170215534Y-44701065D01*
X170261888Y-44696500D01*
X171338112Y-44696500D01*
X171384466Y-44701065D01*
X171384466Y-44701065D01*
G37*
G36*
X151186966Y-44073565D02*
X151225637Y-44085296D01*
X151261279Y-44104348D01*
X151292517Y-44129983D01*
X151318152Y-44161221D01*
X151337204Y-44196863D01*
X151348935Y-44235534D01*
X151353500Y-44281888D01*
X151353500Y-45358112D01*
X151348935Y-45404466D01*
X151337204Y-45443137D01*
X151318152Y-45478779D01*
X151292517Y-45510017D01*
X151261279Y-45535652D01*
X151225637Y-45554704D01*
X151186966Y-45566435D01*
X151140612Y-45571000D01*
X150489388Y-45571000D01*
X150443034Y-45566435D01*
X150404363Y-45554704D01*
X150368721Y-45535652D01*
X150337483Y-45510017D01*
X150311848Y-45478779D01*
X150292796Y-45443137D01*
X150281065Y-45404466D01*
X150276500Y-45358112D01*
X150276500Y-44281888D01*
X150281065Y-44235534D01*
X150292796Y-44196863D01*
X150311848Y-44161221D01*
X150337483Y-44129983D01*
X150368721Y-44104348D01*
X150404363Y-44085296D01*
X150443034Y-44073565D01*
X150489388Y-44069000D01*
X151140612Y-44069000D01*
X151186966Y-44073565D01*
X151186966Y-44073565D01*
G37*
G36*
X153061966Y-44073565D02*
X153100637Y-44085296D01*
X153136279Y-44104348D01*
X153167517Y-44129983D01*
X153193152Y-44161221D01*
X153212204Y-44196863D01*
X153223935Y-44235534D01*
X153228500Y-44281888D01*
X153228500Y-45358112D01*
X153223935Y-45404466D01*
X153212204Y-45443137D01*
X153193152Y-45478779D01*
X153167517Y-45510017D01*
X153136279Y-45535652D01*
X153100637Y-45554704D01*
X153061966Y-45566435D01*
X153015612Y-45571000D01*
X152364388Y-45571000D01*
X152318034Y-45566435D01*
X152279363Y-45554704D01*
X152243721Y-45535652D01*
X152212483Y-45510017D01*
X152186848Y-45478779D01*
X152167796Y-45443137D01*
X152156065Y-45404466D01*
X152151500Y-45358112D01*
X152151500Y-44281888D01*
X152156065Y-44235534D01*
X152167796Y-44196863D01*
X152186848Y-44161221D01*
X152212483Y-44129983D01*
X152243721Y-44104348D01*
X152279363Y-44085296D01*
X152318034Y-44073565D01*
X152364388Y-44069000D01*
X153015612Y-44069000D01*
X153061966Y-44073565D01*
X153061966Y-44073565D01*
G37*
G36*
X156936966Y-44043565D02*
X156975637Y-44055296D01*
X157011279Y-44074348D01*
X157042517Y-44099983D01*
X157068152Y-44131221D01*
X157087204Y-44166863D01*
X157098935Y-44205534D01*
X157103500Y-44251888D01*
X157103500Y-45328112D01*
X157098935Y-45374466D01*
X157087204Y-45413137D01*
X157068152Y-45448779D01*
X157042517Y-45480017D01*
X157011279Y-45505652D01*
X156975637Y-45524704D01*
X156936966Y-45536435D01*
X156890612Y-45541000D01*
X156239388Y-45541000D01*
X156193034Y-45536435D01*
X156154363Y-45524704D01*
X156118721Y-45505652D01*
X156087483Y-45480017D01*
X156061848Y-45448779D01*
X156042796Y-45413137D01*
X156031065Y-45374466D01*
X156026500Y-45328112D01*
X156026500Y-44251888D01*
X156031065Y-44205534D01*
X156042796Y-44166863D01*
X156061848Y-44131221D01*
X156087483Y-44099983D01*
X156118721Y-44074348D01*
X156154363Y-44055296D01*
X156193034Y-44043565D01*
X156239388Y-44039000D01*
X156890612Y-44039000D01*
X156936966Y-44043565D01*
X156936966Y-44043565D01*
G37*
G36*
X155061966Y-44043565D02*
X155100637Y-44055296D01*
X155136279Y-44074348D01*
X155167517Y-44099983D01*
X155193152Y-44131221D01*
X155212204Y-44166863D01*
X155223935Y-44205534D01*
X155228500Y-44251888D01*
X155228500Y-45328112D01*
X155223935Y-45374466D01*
X155212204Y-45413137D01*
X155193152Y-45448779D01*
X155167517Y-45480017D01*
X155136279Y-45505652D01*
X155100637Y-45524704D01*
X155061966Y-45536435D01*
X155015612Y-45541000D01*
X154364388Y-45541000D01*
X154318034Y-45536435D01*
X154279363Y-45524704D01*
X154243721Y-45505652D01*
X154212483Y-45480017D01*
X154186848Y-45448779D01*
X154167796Y-45413137D01*
X154156065Y-45374466D01*
X154151500Y-45328112D01*
X154151500Y-44251888D01*
X154156065Y-44205534D01*
X154167796Y-44166863D01*
X154186848Y-44131221D01*
X154212483Y-44099983D01*
X154243721Y-44074348D01*
X154279363Y-44055296D01*
X154318034Y-44043565D01*
X154364388Y-44039000D01*
X155015612Y-44039000D01*
X155061966Y-44043565D01*
X155061966Y-44043565D01*
G37*
G36*
X168751000Y-45351000D02*
X166649000Y-45351000D01*
X166649000Y-43749000D01*
X168751000Y-43749000D01*
X168751000Y-45351000D01*
X168751000Y-45351000D01*
G37*
G36*
X162451000Y-44201000D02*
X160349000Y-44201000D01*
X160349000Y-40299000D01*
X162451000Y-40299000D01*
X162451000Y-44201000D01*
X162451000Y-44201000D01*
G37*
G36*
X143112442Y-42301518D02*
X143178627Y-42308037D01*
X143291853Y-42342384D01*
X143348467Y-42359557D01*
X143487087Y-42433652D01*
X143504991Y-42443222D01*
X143540729Y-42472552D01*
X143642186Y-42555814D01*
X143725448Y-42657271D01*
X143754778Y-42693009D01*
X143754779Y-42693011D01*
X143838443Y-42849533D01*
X143839547Y-42853174D01*
X143889963Y-43019373D01*
X143907359Y-43196000D01*
X143889963Y-43372627D01*
X143864786Y-43455623D01*
X143838443Y-43542467D01*
X143792056Y-43629250D01*
X143754778Y-43698991D01*
X143727716Y-43731966D01*
X143642186Y-43836186D01*
X143553821Y-43908704D01*
X143504991Y-43948778D01*
X143504989Y-43948779D01*
X143348467Y-44032443D01*
X143311802Y-44043565D01*
X143178627Y-44083963D01*
X143112443Y-44090481D01*
X143046260Y-44097000D01*
X142957740Y-44097000D01*
X142891558Y-44090482D01*
X142825373Y-44083963D01*
X142692198Y-44043565D01*
X142655533Y-44032443D01*
X142499011Y-43948779D01*
X142499009Y-43948778D01*
X142450179Y-43908704D01*
X142361814Y-43836186D01*
X142276284Y-43731966D01*
X142249222Y-43698991D01*
X142211944Y-43629250D01*
X142165557Y-43542467D01*
X142139214Y-43455623D01*
X142114037Y-43372627D01*
X142096641Y-43196000D01*
X142114037Y-43019373D01*
X142164453Y-42853174D01*
X142165557Y-42849533D01*
X142249221Y-42693011D01*
X142249222Y-42693009D01*
X142278552Y-42657271D01*
X142361814Y-42555814D01*
X142463271Y-42472552D01*
X142499009Y-42443222D01*
X142516913Y-42433652D01*
X142655533Y-42359557D01*
X142712147Y-42342384D01*
X142825373Y-42308037D01*
X142891558Y-42301518D01*
X142957740Y-42295000D01*
X143046260Y-42295000D01*
X143112442Y-42301518D01*
X143112442Y-42301518D01*
G37*
G36*
X173529466Y-42852565D02*
X173568137Y-42864296D01*
X173603779Y-42883348D01*
X173635017Y-42908983D01*
X173660652Y-42940221D01*
X173679704Y-42975863D01*
X173691435Y-43014534D01*
X173696000Y-43060888D01*
X173696000Y-43712112D01*
X173691435Y-43758466D01*
X173679704Y-43797137D01*
X173660652Y-43832779D01*
X173635017Y-43864017D01*
X173603779Y-43889652D01*
X173568137Y-43908704D01*
X173529466Y-43920435D01*
X173483112Y-43925000D01*
X172406888Y-43925000D01*
X172360534Y-43920435D01*
X172321863Y-43908704D01*
X172286221Y-43889652D01*
X172254983Y-43864017D01*
X172229348Y-43832779D01*
X172210296Y-43797137D01*
X172198565Y-43758466D01*
X172194000Y-43712112D01*
X172194000Y-43060888D01*
X172198565Y-43014534D01*
X172210296Y-42975863D01*
X172229348Y-42940221D01*
X172254983Y-42908983D01*
X172286221Y-42883348D01*
X172321863Y-42864296D01*
X172360534Y-42852565D01*
X172406888Y-42848000D01*
X173483112Y-42848000D01*
X173529466Y-42852565D01*
X173529466Y-42852565D01*
G37*
G36*
X171384466Y-42826065D02*
X171423137Y-42837796D01*
X171458779Y-42856848D01*
X171490017Y-42882483D01*
X171515652Y-42913721D01*
X171534704Y-42949363D01*
X171546435Y-42988034D01*
X171551000Y-43034388D01*
X171551000Y-43685612D01*
X171546435Y-43731966D01*
X171534704Y-43770637D01*
X171515652Y-43806279D01*
X171490017Y-43837517D01*
X171458779Y-43863152D01*
X171423137Y-43882204D01*
X171384466Y-43893935D01*
X171338112Y-43898500D01*
X170261888Y-43898500D01*
X170215534Y-43893935D01*
X170176863Y-43882204D01*
X170141221Y-43863152D01*
X170109983Y-43837517D01*
X170084348Y-43806279D01*
X170065296Y-43770637D01*
X170053565Y-43731966D01*
X170049000Y-43685612D01*
X170049000Y-43034388D01*
X170053565Y-42988034D01*
X170065296Y-42949363D01*
X170084348Y-42913721D01*
X170109983Y-42882483D01*
X170141221Y-42856848D01*
X170176863Y-42837796D01*
X170215534Y-42826065D01*
X170261888Y-42821500D01*
X171338112Y-42821500D01*
X171384466Y-42826065D01*
X171384466Y-42826065D01*
G37*
G36*
X155066966Y-42003565D02*
X155105637Y-42015296D01*
X155141279Y-42034348D01*
X155172517Y-42059983D01*
X155198152Y-42091221D01*
X155217204Y-42126863D01*
X155228935Y-42165534D01*
X155233500Y-42211888D01*
X155233500Y-43288112D01*
X155228935Y-43334466D01*
X155217204Y-43373137D01*
X155198152Y-43408779D01*
X155172517Y-43440017D01*
X155141279Y-43465652D01*
X155105637Y-43484704D01*
X155066966Y-43496435D01*
X155020612Y-43501000D01*
X154369388Y-43501000D01*
X154323034Y-43496435D01*
X154284363Y-43484704D01*
X154248721Y-43465652D01*
X154217483Y-43440017D01*
X154191848Y-43408779D01*
X154172796Y-43373137D01*
X154161065Y-43334466D01*
X154156500Y-43288112D01*
X154156500Y-42211888D01*
X154161065Y-42165534D01*
X154172796Y-42126863D01*
X154191848Y-42091221D01*
X154217483Y-42059983D01*
X154248721Y-42034348D01*
X154284363Y-42015296D01*
X154323034Y-42003565D01*
X154369388Y-41999000D01*
X155020612Y-41999000D01*
X155066966Y-42003565D01*
X155066966Y-42003565D01*
G37*
G36*
X156941966Y-42003565D02*
X156980637Y-42015296D01*
X157016279Y-42034348D01*
X157047517Y-42059983D01*
X157073152Y-42091221D01*
X157092204Y-42126863D01*
X157103935Y-42165534D01*
X157108500Y-42211888D01*
X157108500Y-43288112D01*
X157103935Y-43334466D01*
X157092204Y-43373137D01*
X157073152Y-43408779D01*
X157047517Y-43440017D01*
X157016279Y-43465652D01*
X156980637Y-43484704D01*
X156941966Y-43496435D01*
X156895612Y-43501000D01*
X156244388Y-43501000D01*
X156198034Y-43496435D01*
X156159363Y-43484704D01*
X156123721Y-43465652D01*
X156092483Y-43440017D01*
X156066848Y-43408779D01*
X156047796Y-43373137D01*
X156036065Y-43334466D01*
X156031500Y-43288112D01*
X156031500Y-42211888D01*
X156036065Y-42165534D01*
X156047796Y-42126863D01*
X156066848Y-42091221D01*
X156092483Y-42059983D01*
X156123721Y-42034348D01*
X156159363Y-42015296D01*
X156198034Y-42003565D01*
X156244388Y-41999000D01*
X156895612Y-41999000D01*
X156941966Y-42003565D01*
X156941966Y-42003565D01*
G37*
G36*
X153056966Y-42003565D02*
X153095637Y-42015296D01*
X153131279Y-42034348D01*
X153162517Y-42059983D01*
X153188152Y-42091221D01*
X153207204Y-42126863D01*
X153218935Y-42165534D01*
X153223500Y-42211888D01*
X153223500Y-43288112D01*
X153218935Y-43334466D01*
X153207204Y-43373137D01*
X153188152Y-43408779D01*
X153162517Y-43440017D01*
X153131279Y-43465652D01*
X153095637Y-43484704D01*
X153056966Y-43496435D01*
X153010612Y-43501000D01*
X152359388Y-43501000D01*
X152313034Y-43496435D01*
X152274363Y-43484704D01*
X152238721Y-43465652D01*
X152207483Y-43440017D01*
X152181848Y-43408779D01*
X152162796Y-43373137D01*
X152151065Y-43334466D01*
X152146500Y-43288112D01*
X152146500Y-42211888D01*
X152151065Y-42165534D01*
X152162796Y-42126863D01*
X152181848Y-42091221D01*
X152207483Y-42059983D01*
X152238721Y-42034348D01*
X152274363Y-42015296D01*
X152313034Y-42003565D01*
X152359388Y-41999000D01*
X153010612Y-41999000D01*
X153056966Y-42003565D01*
X153056966Y-42003565D01*
G37*
G36*
X151181966Y-42003565D02*
X151220637Y-42015296D01*
X151256279Y-42034348D01*
X151287517Y-42059983D01*
X151313152Y-42091221D01*
X151332204Y-42126863D01*
X151343935Y-42165534D01*
X151348500Y-42211888D01*
X151348500Y-43288112D01*
X151343935Y-43334466D01*
X151332204Y-43373137D01*
X151313152Y-43408779D01*
X151287517Y-43440017D01*
X151256279Y-43465652D01*
X151220637Y-43484704D01*
X151181966Y-43496435D01*
X151135612Y-43501000D01*
X150484388Y-43501000D01*
X150438034Y-43496435D01*
X150399363Y-43484704D01*
X150363721Y-43465652D01*
X150332483Y-43440017D01*
X150306848Y-43408779D01*
X150287796Y-43373137D01*
X150276065Y-43334466D01*
X150271500Y-43288112D01*
X150271500Y-42211888D01*
X150276065Y-42165534D01*
X150287796Y-42126863D01*
X150306848Y-42091221D01*
X150332483Y-42059983D01*
X150363721Y-42034348D01*
X150399363Y-42015296D01*
X150438034Y-42003565D01*
X150484388Y-41999000D01*
X151135612Y-41999000D01*
X151181966Y-42003565D01*
X151181966Y-42003565D01*
G37*
G36*
X176005442Y-41539518D02*
X176071627Y-41546037D01*
X176184853Y-41580384D01*
X176241467Y-41597557D01*
X176380087Y-41671652D01*
X176397991Y-41681222D01*
X176433729Y-41710552D01*
X176535186Y-41793814D01*
X176618448Y-41895271D01*
X176647778Y-41931009D01*
X176647779Y-41931011D01*
X176731443Y-42087533D01*
X176740886Y-42118663D01*
X176782963Y-42257373D01*
X176800359Y-42434000D01*
X176782963Y-42610627D01*
X176757973Y-42693009D01*
X176731443Y-42780467D01*
X176690616Y-42856848D01*
X176647778Y-42936991D01*
X176645127Y-42940221D01*
X176535186Y-43074186D01*
X176433729Y-43157448D01*
X176397991Y-43186778D01*
X176397989Y-43186779D01*
X176241467Y-43270443D01*
X176195858Y-43284278D01*
X176071627Y-43321963D01*
X176005442Y-43328482D01*
X175939260Y-43335000D01*
X175850740Y-43335000D01*
X175784558Y-43328482D01*
X175718373Y-43321963D01*
X175594142Y-43284278D01*
X175548533Y-43270443D01*
X175392011Y-43186779D01*
X175392009Y-43186778D01*
X175356271Y-43157448D01*
X175254814Y-43074186D01*
X175144873Y-42940221D01*
X175142222Y-42936991D01*
X175099384Y-42856848D01*
X175058557Y-42780467D01*
X175032027Y-42693009D01*
X175007037Y-42610627D01*
X174989641Y-42434000D01*
X175007037Y-42257373D01*
X175049114Y-42118663D01*
X175058557Y-42087533D01*
X175142221Y-41931011D01*
X175142222Y-41931009D01*
X175171552Y-41895271D01*
X175254814Y-41793814D01*
X175356271Y-41710552D01*
X175392009Y-41681222D01*
X175409913Y-41671652D01*
X175548533Y-41597557D01*
X175605147Y-41580384D01*
X175718373Y-41546037D01*
X175784558Y-41539518D01*
X175850740Y-41533000D01*
X175939260Y-41533000D01*
X176005442Y-41539518D01*
X176005442Y-41539518D01*
G37*
G36*
X168751000Y-43051000D02*
X166649000Y-43051000D01*
X166649000Y-41449000D01*
X168751000Y-41449000D01*
X168751000Y-43051000D01*
X168751000Y-43051000D01*
G37*
G36*
X173509466Y-41117565D02*
X173548137Y-41129296D01*
X173583779Y-41148348D01*
X173615017Y-41173983D01*
X173640652Y-41205221D01*
X173659704Y-41240863D01*
X173671435Y-41279534D01*
X173676000Y-41325888D01*
X173676000Y-41977112D01*
X173671435Y-42023466D01*
X173659704Y-42062137D01*
X173640652Y-42097779D01*
X173615017Y-42129017D01*
X173583779Y-42154652D01*
X173548137Y-42173704D01*
X173509466Y-42185435D01*
X173463112Y-42190000D01*
X172386888Y-42190000D01*
X172340534Y-42185435D01*
X172301863Y-42173704D01*
X172266221Y-42154652D01*
X172234983Y-42129017D01*
X172209348Y-42097779D01*
X172190296Y-42062137D01*
X172178565Y-42023466D01*
X172174000Y-41977112D01*
X172174000Y-41325888D01*
X172178565Y-41279534D01*
X172190296Y-41240863D01*
X172209348Y-41205221D01*
X172234983Y-41173983D01*
X172266221Y-41148348D01*
X172301863Y-41129296D01*
X172340534Y-41117565D01*
X172386888Y-41113000D01*
X173463112Y-41113000D01*
X173509466Y-41117565D01*
X173509466Y-41117565D01*
G37*
G36*
X171384466Y-41108065D02*
X171423137Y-41119796D01*
X171458779Y-41138848D01*
X171490017Y-41164483D01*
X171515652Y-41195721D01*
X171534704Y-41231363D01*
X171546435Y-41270034D01*
X171551000Y-41316388D01*
X171551000Y-41967612D01*
X171546435Y-42013966D01*
X171534704Y-42052637D01*
X171515652Y-42088279D01*
X171490017Y-42119517D01*
X171458779Y-42145152D01*
X171423137Y-42164204D01*
X171384466Y-42175935D01*
X171338112Y-42180500D01*
X170261888Y-42180500D01*
X170215534Y-42175935D01*
X170176863Y-42164204D01*
X170141221Y-42145152D01*
X170109983Y-42119517D01*
X170084348Y-42088279D01*
X170065296Y-42052637D01*
X170053565Y-42013966D01*
X170049000Y-41967612D01*
X170049000Y-41316388D01*
X170053565Y-41270034D01*
X170065296Y-41231363D01*
X170084348Y-41195721D01*
X170109983Y-41164483D01*
X170141221Y-41138848D01*
X170176863Y-41119796D01*
X170215534Y-41108065D01*
X170261888Y-41103500D01*
X171338112Y-41103500D01*
X171384466Y-41108065D01*
X171384466Y-41108065D01*
G37*
G36*
X143903000Y-41557000D02*
X142101000Y-41557000D01*
X142101000Y-39755000D01*
X143903000Y-39755000D01*
X143903000Y-41557000D01*
X143903000Y-41557000D01*
G37*
G36*
X176796000Y-40795000D02*
X174994000Y-40795000D01*
X174994000Y-38993000D01*
X176796000Y-38993000D01*
X176796000Y-40795000D01*
X176796000Y-40795000D01*
G37*
G36*
X168751000Y-40751000D02*
X166649000Y-40751000D01*
X166649000Y-39149000D01*
X168751000Y-39149000D01*
X168751000Y-40751000D01*
X168751000Y-40751000D01*
G37*
G36*
X173509466Y-39242565D02*
X173548137Y-39254296D01*
X173583779Y-39273348D01*
X173615017Y-39298983D01*
X173640652Y-39330221D01*
X173659704Y-39365863D01*
X173671435Y-39404534D01*
X173676000Y-39450888D01*
X173676000Y-40102112D01*
X173671435Y-40148466D01*
X173659704Y-40187137D01*
X173640652Y-40222779D01*
X173615017Y-40254017D01*
X173583779Y-40279652D01*
X173548137Y-40298704D01*
X173509466Y-40310435D01*
X173463112Y-40315000D01*
X172386888Y-40315000D01*
X172340534Y-40310435D01*
X172301863Y-40298704D01*
X172266221Y-40279652D01*
X172234983Y-40254017D01*
X172209348Y-40222779D01*
X172190296Y-40187137D01*
X172178565Y-40148466D01*
X172174000Y-40102112D01*
X172174000Y-39450888D01*
X172178565Y-39404534D01*
X172190296Y-39365863D01*
X172209348Y-39330221D01*
X172234983Y-39298983D01*
X172266221Y-39273348D01*
X172301863Y-39254296D01*
X172340534Y-39242565D01*
X172386888Y-39238000D01*
X173463112Y-39238000D01*
X173509466Y-39242565D01*
X173509466Y-39242565D01*
G37*
G36*
X171384466Y-39233065D02*
X171423137Y-39244796D01*
X171458779Y-39263848D01*
X171490017Y-39289483D01*
X171515652Y-39320721D01*
X171534704Y-39356363D01*
X171546435Y-39395034D01*
X171551000Y-39441388D01*
X171551000Y-40092612D01*
X171546435Y-40138966D01*
X171534704Y-40177637D01*
X171515652Y-40213279D01*
X171490017Y-40244517D01*
X171458779Y-40270152D01*
X171423137Y-40289204D01*
X171384466Y-40300935D01*
X171338112Y-40305500D01*
X170261888Y-40305500D01*
X170215534Y-40300935D01*
X170176863Y-40289204D01*
X170141221Y-40270152D01*
X170109983Y-40244517D01*
X170084348Y-40213279D01*
X170065296Y-40177637D01*
X170053565Y-40138966D01*
X170049000Y-40092612D01*
X170049000Y-39441388D01*
X170053565Y-39395034D01*
X170065296Y-39356363D01*
X170084348Y-39320721D01*
X170109983Y-39289483D01*
X170141221Y-39263848D01*
X170176863Y-39244796D01*
X170215534Y-39233065D01*
X170261888Y-39228500D01*
X171338112Y-39228500D01*
X171384466Y-39233065D01*
X171384466Y-39233065D01*
G37*
M02*
