M48
;DRILL file {KiCad (5.0.2)-1} date 2020/07/12 04:03:37
;FORMAT={-:-/ absolute / metric / decimal}
FMAT,2
METRIC,TZ
T1C0.400
T2C1.000
%
G90
G05
T1
X138.557Y-56.785
X138.684Y-57.928
X143.054Y-62.94
X144.335Y-56.689
X145.985Y-56.737
X146.63Y-58.76
X147.32Y-43.45
X147.32Y-44.593
X147.892Y-81.3
X148.463Y-43.45
X148.463Y-44.593
X149.Y-96.3
X149.428Y-53.924
X149.504Y-64.211
X149.708Y-62.992
X149.76Y-48.98
X150.368Y-55.016
X150.622Y-112.522
X151.351Y-61.786
X151.384Y-83.82
X151.434Y-55.053
X151.511Y-76.2
X151.765Y-92.583
X151.765Y-120.523
X151.79Y-67.107
X152.019Y-69.215
X152.019Y-106.299
X152.587Y-112.905
X152.781Y-76.2
X152.908Y-92.583
X153.035Y-84.709
X153.035Y-98.552
X153.035Y-120.523
X153.049Y-62.752
X153.162Y-106.299
X153.376Y-68.704
X153.924Y-99.441
X153.924Y-113.665
X154.001Y-61.702
X154.201Y-69.526
X154.523Y-66.909
X154.559Y-50.816
X154.974Y-62.096
X155.141Y-68.783
X155.793Y-55.16
X156.182Y-63.505
X156.194Y-62.455
X156.921Y-66.04
X157.328Y-63.994
X157.48Y-40.021
X157.6Y-96.6
X157.734Y-111.379
X157.9Y-81.3
X158.242Y-43.577
X158.242Y-44.593
X158.275Y-67.6
X158.89Y-56.429
X158.92Y-55.178
X159.258Y-43.577
X159.258Y-44.593
X159.279Y-49.52
X159.285Y-51.105
X160.07Y-50.21
X161.37Y-56.49
X162.61Y-59.13
X163.449Y-59.833
X164.292Y-54.953
X164.846Y-43.577
X164.846Y-44.593
X165.862Y-43.577
X165.862Y-44.593
X166.623Y-56.901
X166.751Y-61.23
X167.34Y-55.007
X167.809Y-53.546
X169.101Y-54.055
X169.164Y-46.117
X170.18Y-54.181
X170.942Y-49.546
X171.041Y-51.451
X171.196Y-63.627
X172.466Y-62.627
X173.84Y-47.693
X176.022Y-57.023
T2
X175.895Y-39.894
X175.895Y-42.434
X175.895Y-44.974
X175.895Y-47.514
X175.895Y-50.054
X143.002Y-40.656
X143.002Y-43.196
X143.002Y-45.736
X143.002Y-48.276
T0
M30
