G04 #@! TF.GenerationSoftware,KiCad,Pcbnew,(5.0.2)-1*
G04 #@! TF.CreationDate,2020-07-12T04:03:39+02:00*
G04 #@! TF.ProjectId,TempSpike,54656d70-5370-4696-9b65-2e6b69636164,rev?*
G04 #@! TF.SameCoordinates,Original*
G04 #@! TF.FileFunction,Legend,Top*
G04 #@! TF.FilePolarity,Positive*
%FSLAX46Y46*%
G04 Gerber Fmt 4.6, Leading zero omitted, Abs format (unit mm)*
G04 Created by KiCad (PCBNEW (5.0.2)-1) date 2020/07/12 04:03:39*
%MOMM*%
%LPD*%
G01*
G04 APERTURE LIST*
%ADD10C,0.300000*%
%ADD11C,0.200000*%
%ADD12C,0.120000*%
%ADD13C,0.150000*%
G04 APERTURE END LIST*
D10*
X139542857Y-47550000D02*
X139400000Y-47478571D01*
X139185714Y-47478571D01*
X138971428Y-47550000D01*
X138828571Y-47692857D01*
X138757142Y-47835714D01*
X138685714Y-48121428D01*
X138685714Y-48335714D01*
X138757142Y-48621428D01*
X138828571Y-48764285D01*
X138971428Y-48907142D01*
X139185714Y-48978571D01*
X139328571Y-48978571D01*
X139542857Y-48907142D01*
X139614285Y-48835714D01*
X139614285Y-48335714D01*
X139328571Y-48335714D01*
X140257142Y-48978571D02*
X140257142Y-47478571D01*
X140614285Y-47478571D01*
X140828571Y-47550000D01*
X140971428Y-47692857D01*
X141042857Y-47835714D01*
X141114285Y-48121428D01*
X141114285Y-48335714D01*
X141042857Y-48621428D01*
X140971428Y-48764285D01*
X140828571Y-48907142D01*
X140614285Y-48978571D01*
X140257142Y-48978571D01*
X139614285Y-39778571D02*
X138900000Y-39778571D01*
X138828571Y-40492857D01*
X138900000Y-40421428D01*
X139042857Y-40350000D01*
X139400000Y-40350000D01*
X139542857Y-40421428D01*
X139614285Y-40492857D01*
X139685714Y-40635714D01*
X139685714Y-40992857D01*
X139614285Y-41135714D01*
X139542857Y-41207142D01*
X139400000Y-41278571D01*
X139042857Y-41278571D01*
X138900000Y-41207142D01*
X138828571Y-41135714D01*
X140114285Y-39778571D02*
X140614285Y-41278571D01*
X141114285Y-39778571D01*
X138764285Y-42378571D02*
X139621428Y-42378571D01*
X139192857Y-43878571D02*
X139192857Y-42378571D01*
X139978571Y-43878571D02*
X140764285Y-42878571D01*
X139978571Y-42878571D02*
X140764285Y-43878571D01*
X139657142Y-46478571D02*
X139157142Y-45764285D01*
X138800000Y-46478571D02*
X138800000Y-44978571D01*
X139371428Y-44978571D01*
X139514285Y-45050000D01*
X139585714Y-45121428D01*
X139657142Y-45264285D01*
X139657142Y-45478571D01*
X139585714Y-45621428D01*
X139514285Y-45692857D01*
X139371428Y-45764285D01*
X138800000Y-45764285D01*
X140157142Y-46478571D02*
X140942857Y-45478571D01*
X140157142Y-45478571D02*
X140942857Y-46478571D01*
X135672571Y-58637571D02*
X136029714Y-59637571D01*
X136386857Y-58637571D01*
X137244000Y-58137571D02*
X137386857Y-58137571D01*
X137529714Y-58209000D01*
X137601142Y-58280428D01*
X137672571Y-58423285D01*
X137744000Y-58709000D01*
X137744000Y-59066142D01*
X137672571Y-59351857D01*
X137601142Y-59494714D01*
X137529714Y-59566142D01*
X137386857Y-59637571D01*
X137244000Y-59637571D01*
X137101142Y-59566142D01*
X137029714Y-59494714D01*
X136958285Y-59351857D01*
X136886857Y-59066142D01*
X136886857Y-58709000D01*
X136958285Y-58423285D01*
X137029714Y-58280428D01*
X137101142Y-58209000D01*
X137244000Y-58137571D01*
X130994000Y-52137571D02*
X131851142Y-52137571D01*
X131422571Y-53637571D02*
X131422571Y-52137571D01*
X132922571Y-53566142D02*
X132779714Y-53637571D01*
X132494000Y-53637571D01*
X132351142Y-53566142D01*
X132279714Y-53423285D01*
X132279714Y-52851857D01*
X132351142Y-52709000D01*
X132494000Y-52637571D01*
X132779714Y-52637571D01*
X132922571Y-52709000D01*
X132994000Y-52851857D01*
X132994000Y-52994714D01*
X132279714Y-53137571D01*
X133636857Y-53637571D02*
X133636857Y-52637571D01*
X133636857Y-52780428D02*
X133708285Y-52709000D01*
X133851142Y-52637571D01*
X134065428Y-52637571D01*
X134208285Y-52709000D01*
X134279714Y-52851857D01*
X134279714Y-53637571D01*
X134279714Y-52851857D02*
X134351142Y-52709000D01*
X134494000Y-52637571D01*
X134708285Y-52637571D01*
X134851142Y-52709000D01*
X134922571Y-52851857D01*
X134922571Y-53637571D01*
X135636857Y-52637571D02*
X135636857Y-54137571D01*
X135636857Y-52709000D02*
X135779714Y-52637571D01*
X136065428Y-52637571D01*
X136208285Y-52709000D01*
X136279714Y-52780428D01*
X136351142Y-52923285D01*
X136351142Y-53351857D01*
X136279714Y-53494714D01*
X136208285Y-53566142D01*
X136065428Y-53637571D01*
X135779714Y-53637571D01*
X135636857Y-53566142D01*
X136922571Y-53566142D02*
X137136857Y-53637571D01*
X137494000Y-53637571D01*
X137636857Y-53566142D01*
X137708285Y-53494714D01*
X137779714Y-53351857D01*
X137779714Y-53209000D01*
X137708285Y-53066142D01*
X137636857Y-52994714D01*
X137494000Y-52923285D01*
X137208285Y-52851857D01*
X137065428Y-52780428D01*
X136994000Y-52709000D01*
X136922571Y-52566142D01*
X136922571Y-52423285D01*
X136994000Y-52280428D01*
X137065428Y-52209000D01*
X137208285Y-52137571D01*
X137565428Y-52137571D01*
X137779714Y-52209000D01*
X138422571Y-52637571D02*
X138422571Y-54137571D01*
X138422571Y-52709000D02*
X138565428Y-52637571D01*
X138851142Y-52637571D01*
X138994000Y-52709000D01*
X139065428Y-52780428D01*
X139136857Y-52923285D01*
X139136857Y-53351857D01*
X139065428Y-53494714D01*
X138994000Y-53566142D01*
X138851142Y-53637571D01*
X138565428Y-53637571D01*
X138422571Y-53566142D01*
X139779714Y-53637571D02*
X139779714Y-52637571D01*
X139779714Y-52137571D02*
X139708285Y-52209000D01*
X139779714Y-52280428D01*
X139851142Y-52209000D01*
X139779714Y-52137571D01*
X139779714Y-52280428D01*
X140494000Y-53637571D02*
X140494000Y-52137571D01*
X140636857Y-53066142D02*
X141065428Y-53637571D01*
X141065428Y-52637571D02*
X140494000Y-53209000D01*
X142279714Y-53566142D02*
X142136857Y-53637571D01*
X141851142Y-53637571D01*
X141708285Y-53566142D01*
X141636857Y-53423285D01*
X141636857Y-52851857D01*
X141708285Y-52709000D01*
X141851142Y-52637571D01*
X142136857Y-52637571D01*
X142279714Y-52709000D01*
X142351142Y-52851857D01*
X142351142Y-52994714D01*
X141636857Y-53137571D01*
X135458285Y-55137571D02*
X135458285Y-56209000D01*
X135386857Y-56423285D01*
X135244000Y-56566142D01*
X135029714Y-56637571D01*
X134886857Y-56637571D01*
X137029714Y-56494714D02*
X136958285Y-56566142D01*
X136744000Y-56637571D01*
X136601142Y-56637571D01*
X136386857Y-56566142D01*
X136244000Y-56423285D01*
X136172571Y-56280428D01*
X136101142Y-55994714D01*
X136101142Y-55780428D01*
X136172571Y-55494714D01*
X136244000Y-55351857D01*
X136386857Y-55209000D01*
X136601142Y-55137571D01*
X136744000Y-55137571D01*
X136958285Y-55209000D01*
X137029714Y-55280428D01*
X137672571Y-56637571D02*
X137672571Y-55137571D01*
X138244000Y-55137571D01*
X138386857Y-55209000D01*
X138458285Y-55280428D01*
X138529714Y-55423285D01*
X138529714Y-55637571D01*
X138458285Y-55780428D01*
X138386857Y-55851857D01*
X138244000Y-55923285D01*
X137672571Y-55923285D01*
X151928571Y-133678571D02*
X152285714Y-134678571D01*
X152642857Y-133678571D01*
X153500000Y-133178571D02*
X153642857Y-133178571D01*
X153785714Y-133250000D01*
X153857142Y-133321428D01*
X153928571Y-133464285D01*
X154000000Y-133750000D01*
X154000000Y-134107142D01*
X153928571Y-134392857D01*
X153857142Y-134535714D01*
X153785714Y-134607142D01*
X153642857Y-134678571D01*
X153500000Y-134678571D01*
X153357142Y-134607142D01*
X153285714Y-134535714D01*
X153214285Y-134392857D01*
X153142857Y-134107142D01*
X153142857Y-133750000D01*
X153214285Y-133464285D01*
X153285714Y-133321428D01*
X153357142Y-133250000D01*
X153500000Y-133178571D01*
X151714285Y-130178571D02*
X151714285Y-131250000D01*
X151642857Y-131464285D01*
X151500000Y-131607142D01*
X151285714Y-131678571D01*
X151142857Y-131678571D01*
X153285714Y-131535714D02*
X153214285Y-131607142D01*
X153000000Y-131678571D01*
X152857142Y-131678571D01*
X152642857Y-131607142D01*
X152500000Y-131464285D01*
X152428571Y-131321428D01*
X152357142Y-131035714D01*
X152357142Y-130821428D01*
X152428571Y-130535714D01*
X152500000Y-130392857D01*
X152642857Y-130250000D01*
X152857142Y-130178571D01*
X153000000Y-130178571D01*
X153214285Y-130250000D01*
X153285714Y-130321428D01*
X153928571Y-131678571D02*
X153928571Y-130178571D01*
X154500000Y-130178571D01*
X154642857Y-130250000D01*
X154714285Y-130321428D01*
X154785714Y-130464285D01*
X154785714Y-130678571D01*
X154714285Y-130821428D01*
X154642857Y-130892857D01*
X154500000Y-130964285D01*
X153928571Y-130964285D01*
X147250000Y-127178571D02*
X148107142Y-127178571D01*
X147678571Y-128678571D02*
X147678571Y-127178571D01*
X149178571Y-128607142D02*
X149035714Y-128678571D01*
X148750000Y-128678571D01*
X148607142Y-128607142D01*
X148535714Y-128464285D01*
X148535714Y-127892857D01*
X148607142Y-127750000D01*
X148750000Y-127678571D01*
X149035714Y-127678571D01*
X149178571Y-127750000D01*
X149250000Y-127892857D01*
X149250000Y-128035714D01*
X148535714Y-128178571D01*
X149892857Y-128678571D02*
X149892857Y-127678571D01*
X149892857Y-127821428D02*
X149964285Y-127750000D01*
X150107142Y-127678571D01*
X150321428Y-127678571D01*
X150464285Y-127750000D01*
X150535714Y-127892857D01*
X150535714Y-128678571D01*
X150535714Y-127892857D02*
X150607142Y-127750000D01*
X150750000Y-127678571D01*
X150964285Y-127678571D01*
X151107142Y-127750000D01*
X151178571Y-127892857D01*
X151178571Y-128678571D01*
X151892857Y-127678571D02*
X151892857Y-129178571D01*
X151892857Y-127750000D02*
X152035714Y-127678571D01*
X152321428Y-127678571D01*
X152464285Y-127750000D01*
X152535714Y-127821428D01*
X152607142Y-127964285D01*
X152607142Y-128392857D01*
X152535714Y-128535714D01*
X152464285Y-128607142D01*
X152321428Y-128678571D01*
X152035714Y-128678571D01*
X151892857Y-128607142D01*
X153178571Y-128607142D02*
X153392857Y-128678571D01*
X153750000Y-128678571D01*
X153892857Y-128607142D01*
X153964285Y-128535714D01*
X154035714Y-128392857D01*
X154035714Y-128250000D01*
X153964285Y-128107142D01*
X153892857Y-128035714D01*
X153750000Y-127964285D01*
X153464285Y-127892857D01*
X153321428Y-127821428D01*
X153250000Y-127750000D01*
X153178571Y-127607142D01*
X153178571Y-127464285D01*
X153250000Y-127321428D01*
X153321428Y-127250000D01*
X153464285Y-127178571D01*
X153821428Y-127178571D01*
X154035714Y-127250000D01*
X154678571Y-127678571D02*
X154678571Y-129178571D01*
X154678571Y-127750000D02*
X154821428Y-127678571D01*
X155107142Y-127678571D01*
X155250000Y-127750000D01*
X155321428Y-127821428D01*
X155392857Y-127964285D01*
X155392857Y-128392857D01*
X155321428Y-128535714D01*
X155250000Y-128607142D01*
X155107142Y-128678571D01*
X154821428Y-128678571D01*
X154678571Y-128607142D01*
X156035714Y-128678571D02*
X156035714Y-127678571D01*
X156035714Y-127178571D02*
X155964285Y-127250000D01*
X156035714Y-127321428D01*
X156107142Y-127250000D01*
X156035714Y-127178571D01*
X156035714Y-127321428D01*
X156750000Y-128678571D02*
X156750000Y-127178571D01*
X156892857Y-128107142D02*
X157321428Y-128678571D01*
X157321428Y-127678571D02*
X156750000Y-128250000D01*
X158535714Y-128607142D02*
X158392857Y-128678571D01*
X158107142Y-128678571D01*
X157964285Y-128607142D01*
X157892857Y-128464285D01*
X157892857Y-127892857D01*
X157964285Y-127750000D01*
X158107142Y-127678571D01*
X158392857Y-127678571D01*
X158535714Y-127750000D01*
X158607142Y-127892857D01*
X158607142Y-128035714D01*
X157892857Y-128178571D01*
D11*
X147000000Y-66000000D02*
X159000000Y-66000000D01*
X147000000Y-81000000D02*
X159000000Y-81000000D01*
X147000000Y-96000000D02*
X159000000Y-96000000D01*
X159000000Y-111000000D02*
X147000000Y-111000000D01*
X147000000Y-126000000D02*
X159000000Y-126000000D01*
D12*
G04 #@! TO.C,C1*
X152011078Y-44110000D02*
X151493922Y-44110000D01*
X152011078Y-45530000D02*
X151493922Y-45530000D01*
G04 #@! TO.C,C2*
X155368922Y-45500000D02*
X155886078Y-45500000D01*
X155368922Y-44080000D02*
X155886078Y-44080000D01*
G04 #@! TO.C,C3*
X151488922Y-42040000D02*
X152006078Y-42040000D01*
X151488922Y-43460000D02*
X152006078Y-43460000D01*
G04 #@! TO.C,C4*
X158698000Y-51280078D02*
X158698000Y-50762922D01*
X157278000Y-51280078D02*
X157278000Y-50762922D01*
G04 #@! TO.C,C5*
X169237922Y-55186000D02*
X169755078Y-55186000D01*
X169237922Y-56606000D02*
X169755078Y-56606000D01*
G04 #@! TO.C,C6*
X155891078Y-43460000D02*
X155373922Y-43460000D01*
X155891078Y-42040000D02*
X155373922Y-42040000D01*
G04 #@! TO.C,C7*
X159523500Y-47533578D02*
X159523500Y-47016422D01*
X158103500Y-47533578D02*
X158103500Y-47016422D01*
G04 #@! TO.C,C8*
X170090000Y-40445922D02*
X170090000Y-40963078D01*
X171510000Y-40445922D02*
X171510000Y-40963078D01*
G04 #@! TO.C,C9*
X153216078Y-114420000D02*
X152698922Y-114420000D01*
X153216078Y-115840000D02*
X152698922Y-115840000D01*
G04 #@! TO.C,C10*
X170090000Y-44556078D02*
X170090000Y-44038922D01*
X171510000Y-44556078D02*
X171510000Y-44038922D01*
G04 #@! TO.C,C11*
X173392291Y-48388699D02*
X173757975Y-48754383D01*
X172388199Y-49392791D02*
X172753883Y-49758475D01*
G04 #@! TO.C,C12*
X153276078Y-86730000D02*
X152758922Y-86730000D01*
X153276078Y-85310000D02*
X152758922Y-85310000D01*
G04 #@! TO.C,C13*
X153446078Y-71630000D02*
X152928922Y-71630000D01*
X153446078Y-70210000D02*
X152928922Y-70210000D01*
G04 #@! TO.C,C14*
X153201078Y-100150000D02*
X152683922Y-100150000D01*
X153201078Y-101570000D02*
X152683922Y-101570000D01*
G04 #@! TO.C,D1*
X171985000Y-43324000D02*
X171985000Y-46009000D01*
X171985000Y-46009000D02*
X173905000Y-46009000D01*
X173905000Y-46009000D02*
X173905000Y-43324000D01*
G04 #@! TO.C,J1*
X141672000Y-49606000D02*
X144332000Y-49606000D01*
X141672000Y-41926000D02*
X141672000Y-49606000D01*
X144332000Y-41926000D02*
X144332000Y-49606000D01*
X141672000Y-41926000D02*
X144332000Y-41926000D01*
X141672000Y-40656000D02*
X141672000Y-39326000D01*
X141672000Y-39326000D02*
X143002000Y-39326000D01*
G04 #@! TO.C,J2*
X174565000Y-51384000D02*
X177225000Y-51384000D01*
X174565000Y-41164000D02*
X174565000Y-51384000D01*
X177225000Y-41164000D02*
X177225000Y-51384000D01*
X174565000Y-41164000D02*
X177225000Y-41164000D01*
X174565000Y-39894000D02*
X174565000Y-38564000D01*
X174565000Y-38564000D02*
X175895000Y-38564000D01*
G04 #@! TO.C,J3*
X147300000Y-104700000D02*
X147300000Y-102300000D01*
X149700000Y-104700000D02*
X147300000Y-104700000D01*
X149700000Y-102300000D02*
X149700000Y-104700000D01*
X147300000Y-102300000D02*
X149700000Y-102300000D01*
G04 #@! TO.C,J4*
X147517000Y-116620000D02*
X149917000Y-116620000D01*
X149917000Y-116620000D02*
X149917000Y-119020000D01*
X149917000Y-119020000D02*
X147517000Y-119020000D01*
X147517000Y-119020000D02*
X147517000Y-116620000D01*
G04 #@! TO.C,J5*
X156310000Y-89700000D02*
X156310000Y-87300000D01*
X158710000Y-89700000D02*
X156310000Y-89700000D01*
X158710000Y-87300000D02*
X158710000Y-89700000D01*
X156310000Y-87300000D02*
X158710000Y-87300000D01*
G04 #@! TO.C,J6*
X147300000Y-87300000D02*
X149700000Y-87300000D01*
X149700000Y-87300000D02*
X149700000Y-89700000D01*
X149700000Y-89700000D02*
X147300000Y-89700000D01*
X147300000Y-89700000D02*
X147300000Y-87300000D01*
G04 #@! TO.C,J7*
X156026000Y-118929000D02*
X156026000Y-116529000D01*
X158426000Y-118929000D02*
X156026000Y-118929000D01*
X158426000Y-116529000D02*
X158426000Y-118929000D01*
X156026000Y-116529000D02*
X158426000Y-116529000D01*
G04 #@! TO.C,J8*
X155899000Y-102300000D02*
X158299000Y-102300000D01*
X158299000Y-102300000D02*
X158299000Y-104700000D01*
X158299000Y-104700000D02*
X155899000Y-104700000D01*
X155899000Y-104700000D02*
X155899000Y-102300000D01*
G04 #@! TO.C,J9*
X156200000Y-74700000D02*
X156200000Y-72300000D01*
X158600000Y-74700000D02*
X156200000Y-74700000D01*
X158600000Y-72300000D02*
X158600000Y-74700000D01*
X156200000Y-72300000D02*
X158600000Y-72300000D01*
G04 #@! TO.C,J10*
X147810000Y-72300000D02*
X150210000Y-72300000D01*
X150210000Y-72300000D02*
X150210000Y-74700000D01*
X150210000Y-74700000D02*
X147810000Y-74700000D01*
X147810000Y-74700000D02*
X147810000Y-72300000D01*
G04 #@! TO.C,Q1*
X175695538Y-57294378D02*
X175695538Y-56364378D01*
X175695538Y-54134378D02*
X175695538Y-55064378D01*
X175695538Y-54134378D02*
X172535538Y-54134378D01*
X175695538Y-57294378D02*
X174235538Y-57294378D01*
G04 #@! TO.C,R1*
X166826000Y-58860922D02*
X166826000Y-59378078D01*
X165406000Y-58860922D02*
X165406000Y-59378078D01*
G04 #@! TO.C,R2*
X177494000Y-59662078D02*
X177494000Y-59144922D01*
X176074000Y-59662078D02*
X176074000Y-59144922D01*
G04 #@! TO.C,R3*
X175335000Y-59144922D02*
X175335000Y-59662078D01*
X173915000Y-59144922D02*
X173915000Y-59662078D01*
G04 #@! TO.C,R4*
X171756000Y-59144922D02*
X171756000Y-59662078D01*
X173176000Y-59144922D02*
X173176000Y-59662078D01*
G04 #@! TO.C,R5*
X172215000Y-40972578D02*
X172215000Y-40455422D01*
X173635000Y-40972578D02*
X173635000Y-40455422D01*
G04 #@! TO.C,R6*
X160490000Y-58921078D02*
X160490000Y-58403922D01*
X161910000Y-58921078D02*
X161910000Y-58403922D01*
G04 #@! TO.C,R7*
X153145000Y-58924078D02*
X153145000Y-58406922D01*
X151725000Y-58924078D02*
X151725000Y-58406922D01*
G04 #@! TO.C,R8*
X159727000Y-58924078D02*
X159727000Y-58406922D01*
X158307000Y-58924078D02*
X158307000Y-58406922D01*
G04 #@! TO.C,R9*
X149566000Y-58924078D02*
X149566000Y-58406922D01*
X150986000Y-58924078D02*
X150986000Y-58406922D01*
G04 #@! TO.C,R10*
X156148000Y-58924078D02*
X156148000Y-58406922D01*
X157568000Y-58924078D02*
X157568000Y-58406922D01*
G04 #@! TO.C,R11*
X148827000Y-58924078D02*
X148827000Y-58406922D01*
X147407000Y-58924078D02*
X147407000Y-58406922D01*
G04 #@! TO.C,R12*
X155409000Y-58924078D02*
X155409000Y-58406922D01*
X153989000Y-58924078D02*
X153989000Y-58406922D01*
D13*
G04 #@! TO.C,U1*
X156680000Y-47545000D02*
X156680000Y-46170000D01*
X146555000Y-47545000D02*
X146555000Y-51695000D01*
X156705000Y-47545000D02*
X156705000Y-51695000D01*
X146555000Y-47545000D02*
X146660000Y-47545000D01*
X146555000Y-51695000D02*
X146660000Y-51695000D01*
X156705000Y-51695000D02*
X156600000Y-51695000D01*
X156705000Y-47545000D02*
X156680000Y-47545000D01*
D12*
G04 #@! TO.C,U2*
X168630000Y-60723000D02*
X170430000Y-60723000D01*
X170430000Y-57503000D02*
X167980000Y-57503000D01*
G04 #@! TO.C,U3*
X162640000Y-38840000D02*
X162640000Y-40100000D01*
X162640000Y-45660000D02*
X162640000Y-44400000D01*
X166400000Y-38840000D02*
X162640000Y-38840000D01*
X168650000Y-45660000D02*
X162640000Y-45660000D01*
D13*
G04 #@! TO.C,U4*
X162415000Y-53105000D02*
X166865000Y-53105000D01*
X160890000Y-46205000D02*
X166865000Y-46205000D01*
D11*
G04 #@! TO.C,U5*
X151588898Y-119674440D02*
G75*
G03X151588898Y-119674440I-90018J0D01*
G01*
G04 #@! TO.C,U6*
X172525858Y-54082440D02*
G75*
G03X172525858Y-54082440I-90018J0D01*
G01*
G04 #@! TO.C,U7*
X151598898Y-89674440D02*
G75*
G03X151598898Y-89674440I-90018J0D01*
G01*
G04 #@! TO.C,U10*
X151593398Y-74674440D02*
G75*
G03X151593398Y-74674440I-90018J0D01*
G01*
G04 #@! TO.C,U11*
X151588898Y-104674440D02*
G75*
G03X151588898Y-104674440I-90018J0D01*
G01*
G04 #@! TO.C,C1*
D13*
X148933333Y-45257142D02*
X148885714Y-45304761D01*
X148742857Y-45352380D01*
X148647619Y-45352380D01*
X148504761Y-45304761D01*
X148409523Y-45209523D01*
X148361904Y-45114285D01*
X148314285Y-44923809D01*
X148314285Y-44780952D01*
X148361904Y-44590476D01*
X148409523Y-44495238D01*
X148504761Y-44400000D01*
X148647619Y-44352380D01*
X148742857Y-44352380D01*
X148885714Y-44400000D01*
X148933333Y-44447619D01*
X149885714Y-45352380D02*
X149314285Y-45352380D01*
X149600000Y-45352380D02*
X149600000Y-44352380D01*
X149504761Y-44495238D01*
X149409523Y-44590476D01*
X149314285Y-44638095D01*
G04 #@! TO.C,C2*
X158133333Y-43157142D02*
X158085714Y-43204761D01*
X157942857Y-43252380D01*
X157847619Y-43252380D01*
X157704761Y-43204761D01*
X157609523Y-43109523D01*
X157561904Y-43014285D01*
X157514285Y-42823809D01*
X157514285Y-42680952D01*
X157561904Y-42490476D01*
X157609523Y-42395238D01*
X157704761Y-42300000D01*
X157847619Y-42252380D01*
X157942857Y-42252380D01*
X158085714Y-42300000D01*
X158133333Y-42347619D01*
X158514285Y-42347619D02*
X158561904Y-42300000D01*
X158657142Y-42252380D01*
X158895238Y-42252380D01*
X158990476Y-42300000D01*
X159038095Y-42347619D01*
X159085714Y-42442857D01*
X159085714Y-42538095D01*
X159038095Y-42680952D01*
X158466666Y-43252380D01*
X159085714Y-43252380D01*
G04 #@! TO.C,C3*
X148933333Y-43157142D02*
X148885714Y-43204761D01*
X148742857Y-43252380D01*
X148647619Y-43252380D01*
X148504761Y-43204761D01*
X148409523Y-43109523D01*
X148361904Y-43014285D01*
X148314285Y-42823809D01*
X148314285Y-42680952D01*
X148361904Y-42490476D01*
X148409523Y-42395238D01*
X148504761Y-42300000D01*
X148647619Y-42252380D01*
X148742857Y-42252380D01*
X148885714Y-42300000D01*
X148933333Y-42347619D01*
X149266666Y-42252380D02*
X149885714Y-42252380D01*
X149552380Y-42633333D01*
X149695238Y-42633333D01*
X149790476Y-42680952D01*
X149838095Y-42728571D01*
X149885714Y-42823809D01*
X149885714Y-43061904D01*
X149838095Y-43157142D01*
X149790476Y-43204761D01*
X149695238Y-43252380D01*
X149409523Y-43252380D01*
X149314285Y-43204761D01*
X149266666Y-43157142D01*
G04 #@! TO.C,C4*
X157833333Y-53857142D02*
X157785714Y-53904761D01*
X157642857Y-53952380D01*
X157547619Y-53952380D01*
X157404761Y-53904761D01*
X157309523Y-53809523D01*
X157261904Y-53714285D01*
X157214285Y-53523809D01*
X157214285Y-53380952D01*
X157261904Y-53190476D01*
X157309523Y-53095238D01*
X157404761Y-53000000D01*
X157547619Y-52952380D01*
X157642857Y-52952380D01*
X157785714Y-53000000D01*
X157833333Y-53047619D01*
X158690476Y-53285714D02*
X158690476Y-53952380D01*
X158452380Y-52904761D02*
X158214285Y-53619047D01*
X158833333Y-53619047D01*
G04 #@! TO.C,C5*
X169329833Y-54603142D02*
X169282214Y-54650761D01*
X169139357Y-54698380D01*
X169044119Y-54698380D01*
X168901261Y-54650761D01*
X168806023Y-54555523D01*
X168758404Y-54460285D01*
X168710785Y-54269809D01*
X168710785Y-54126952D01*
X168758404Y-53936476D01*
X168806023Y-53841238D01*
X168901261Y-53746000D01*
X169044119Y-53698380D01*
X169139357Y-53698380D01*
X169282214Y-53746000D01*
X169329833Y-53793619D01*
X170234595Y-53698380D02*
X169758404Y-53698380D01*
X169710785Y-54174571D01*
X169758404Y-54126952D01*
X169853642Y-54079333D01*
X170091738Y-54079333D01*
X170186976Y-54126952D01*
X170234595Y-54174571D01*
X170282214Y-54269809D01*
X170282214Y-54507904D01*
X170234595Y-54603142D01*
X170186976Y-54650761D01*
X170091738Y-54698380D01*
X169853642Y-54698380D01*
X169758404Y-54650761D01*
X169710785Y-54603142D01*
G04 #@! TO.C,C6*
X158033333Y-45157142D02*
X157985714Y-45204761D01*
X157842857Y-45252380D01*
X157747619Y-45252380D01*
X157604761Y-45204761D01*
X157509523Y-45109523D01*
X157461904Y-45014285D01*
X157414285Y-44823809D01*
X157414285Y-44680952D01*
X157461904Y-44490476D01*
X157509523Y-44395238D01*
X157604761Y-44300000D01*
X157747619Y-44252380D01*
X157842857Y-44252380D01*
X157985714Y-44300000D01*
X158033333Y-44347619D01*
X158890476Y-44252380D02*
X158700000Y-44252380D01*
X158604761Y-44300000D01*
X158557142Y-44347619D01*
X158461904Y-44490476D01*
X158414285Y-44680952D01*
X158414285Y-45061904D01*
X158461904Y-45157142D01*
X158509523Y-45204761D01*
X158604761Y-45252380D01*
X158795238Y-45252380D01*
X158890476Y-45204761D01*
X158938095Y-45157142D01*
X158985714Y-45061904D01*
X158985714Y-44823809D01*
X158938095Y-44728571D01*
X158890476Y-44680952D01*
X158795238Y-44633333D01*
X158604761Y-44633333D01*
X158509523Y-44680952D01*
X158461904Y-44728571D01*
X158414285Y-44823809D01*
G04 #@! TO.C,C7*
X160433333Y-45757142D02*
X160385714Y-45804761D01*
X160242857Y-45852380D01*
X160147619Y-45852380D01*
X160004761Y-45804761D01*
X159909523Y-45709523D01*
X159861904Y-45614285D01*
X159814285Y-45423809D01*
X159814285Y-45280952D01*
X159861904Y-45090476D01*
X159909523Y-44995238D01*
X160004761Y-44900000D01*
X160147619Y-44852380D01*
X160242857Y-44852380D01*
X160385714Y-44900000D01*
X160433333Y-44947619D01*
X160766666Y-44852380D02*
X161433333Y-44852380D01*
X161004761Y-45852380D01*
G04 #@! TO.C,C8*
X170633333Y-39057142D02*
X170585714Y-39104761D01*
X170442857Y-39152380D01*
X170347619Y-39152380D01*
X170204761Y-39104761D01*
X170109523Y-39009523D01*
X170061904Y-38914285D01*
X170014285Y-38723809D01*
X170014285Y-38580952D01*
X170061904Y-38390476D01*
X170109523Y-38295238D01*
X170204761Y-38200000D01*
X170347619Y-38152380D01*
X170442857Y-38152380D01*
X170585714Y-38200000D01*
X170633333Y-38247619D01*
X171204761Y-38580952D02*
X171109523Y-38533333D01*
X171061904Y-38485714D01*
X171014285Y-38390476D01*
X171014285Y-38342857D01*
X171061904Y-38247619D01*
X171109523Y-38200000D01*
X171204761Y-38152380D01*
X171395238Y-38152380D01*
X171490476Y-38200000D01*
X171538095Y-38247619D01*
X171585714Y-38342857D01*
X171585714Y-38390476D01*
X171538095Y-38485714D01*
X171490476Y-38533333D01*
X171395238Y-38580952D01*
X171204761Y-38580952D01*
X171109523Y-38628571D01*
X171061904Y-38676190D01*
X171014285Y-38771428D01*
X171014285Y-38961904D01*
X171061904Y-39057142D01*
X171109523Y-39104761D01*
X171204761Y-39152380D01*
X171395238Y-39152380D01*
X171490476Y-39104761D01*
X171538095Y-39057142D01*
X171585714Y-38961904D01*
X171585714Y-38771428D01*
X171538095Y-38676190D01*
X171490476Y-38628571D01*
X171395238Y-38580952D01*
G04 #@! TO.C,C9*
X152790833Y-113857142D02*
X152743214Y-113904761D01*
X152600357Y-113952380D01*
X152505119Y-113952380D01*
X152362261Y-113904761D01*
X152267023Y-113809523D01*
X152219404Y-113714285D01*
X152171785Y-113523809D01*
X152171785Y-113380952D01*
X152219404Y-113190476D01*
X152267023Y-113095238D01*
X152362261Y-113000000D01*
X152505119Y-112952380D01*
X152600357Y-112952380D01*
X152743214Y-113000000D01*
X152790833Y-113047619D01*
X153267023Y-113952380D02*
X153457500Y-113952380D01*
X153552738Y-113904761D01*
X153600357Y-113857142D01*
X153695595Y-113714285D01*
X153743214Y-113523809D01*
X153743214Y-113142857D01*
X153695595Y-113047619D01*
X153647976Y-113000000D01*
X153552738Y-112952380D01*
X153362261Y-112952380D01*
X153267023Y-113000000D01*
X153219404Y-113047619D01*
X153171785Y-113142857D01*
X153171785Y-113380952D01*
X153219404Y-113476190D01*
X153267023Y-113523809D01*
X153362261Y-113571428D01*
X153552738Y-113571428D01*
X153647976Y-113523809D01*
X153695595Y-113476190D01*
X153743214Y-113380952D01*
G04 #@! TO.C,C10*
X169557142Y-47057142D02*
X169509523Y-47104761D01*
X169366666Y-47152380D01*
X169271428Y-47152380D01*
X169128571Y-47104761D01*
X169033333Y-47009523D01*
X168985714Y-46914285D01*
X168938095Y-46723809D01*
X168938095Y-46580952D01*
X168985714Y-46390476D01*
X169033333Y-46295238D01*
X169128571Y-46200000D01*
X169271428Y-46152380D01*
X169366666Y-46152380D01*
X169509523Y-46200000D01*
X169557142Y-46247619D01*
X170509523Y-47152380D02*
X169938095Y-47152380D01*
X170223809Y-47152380D02*
X170223809Y-46152380D01*
X170128571Y-46295238D01*
X170033333Y-46390476D01*
X169938095Y-46438095D01*
X171128571Y-46152380D02*
X171223809Y-46152380D01*
X171319047Y-46200000D01*
X171366666Y-46247619D01*
X171414285Y-46342857D01*
X171461904Y-46533333D01*
X171461904Y-46771428D01*
X171414285Y-46961904D01*
X171366666Y-47057142D01*
X171319047Y-47104761D01*
X171223809Y-47152380D01*
X171128571Y-47152380D01*
X171033333Y-47104761D01*
X170985714Y-47057142D01*
X170938095Y-46961904D01*
X170890476Y-46771428D01*
X170890476Y-46533333D01*
X170938095Y-46342857D01*
X170985714Y-46247619D01*
X171033333Y-46200000D01*
X171128571Y-46152380D01*
G04 #@! TO.C,C11*
X170297969Y-50507106D02*
X170297969Y-50574450D01*
X170230625Y-50709137D01*
X170163282Y-50776480D01*
X170028595Y-50843824D01*
X169893908Y-50843824D01*
X169792893Y-50810152D01*
X169624534Y-50709137D01*
X169523519Y-50608122D01*
X169422503Y-50439763D01*
X169388832Y-50338748D01*
X169388832Y-50204061D01*
X169456175Y-50069374D01*
X169523519Y-50002030D01*
X169658206Y-49934687D01*
X169725549Y-49934687D01*
X171038748Y-49901015D02*
X170634687Y-50305076D01*
X170836717Y-50103045D02*
X170129610Y-49395938D01*
X170163282Y-49564297D01*
X170163282Y-49698984D01*
X170129610Y-49800000D01*
X171712183Y-49227580D02*
X171308122Y-49631641D01*
X171510152Y-49429610D02*
X170803045Y-48722503D01*
X170836717Y-48890862D01*
X170836717Y-49025549D01*
X170803045Y-49126564D01*
G04 #@! TO.C,C12*
X152374642Y-84757142D02*
X152327023Y-84804761D01*
X152184166Y-84852380D01*
X152088928Y-84852380D01*
X151946071Y-84804761D01*
X151850833Y-84709523D01*
X151803214Y-84614285D01*
X151755595Y-84423809D01*
X151755595Y-84280952D01*
X151803214Y-84090476D01*
X151850833Y-83995238D01*
X151946071Y-83900000D01*
X152088928Y-83852380D01*
X152184166Y-83852380D01*
X152327023Y-83900000D01*
X152374642Y-83947619D01*
X153327023Y-84852380D02*
X152755595Y-84852380D01*
X153041309Y-84852380D02*
X153041309Y-83852380D01*
X152946071Y-83995238D01*
X152850833Y-84090476D01*
X152755595Y-84138095D01*
X153707976Y-83947619D02*
X153755595Y-83900000D01*
X153850833Y-83852380D01*
X154088928Y-83852380D01*
X154184166Y-83900000D01*
X154231785Y-83947619D01*
X154279404Y-84042857D01*
X154279404Y-84138095D01*
X154231785Y-84280952D01*
X153660357Y-84852380D01*
X154279404Y-84852380D01*
G04 #@! TO.C,C13*
X152544642Y-69757142D02*
X152497023Y-69804761D01*
X152354166Y-69852380D01*
X152258928Y-69852380D01*
X152116071Y-69804761D01*
X152020833Y-69709523D01*
X151973214Y-69614285D01*
X151925595Y-69423809D01*
X151925595Y-69280952D01*
X151973214Y-69090476D01*
X152020833Y-68995238D01*
X152116071Y-68900000D01*
X152258928Y-68852380D01*
X152354166Y-68852380D01*
X152497023Y-68900000D01*
X152544642Y-68947619D01*
X153497023Y-69852380D02*
X152925595Y-69852380D01*
X153211309Y-69852380D02*
X153211309Y-68852380D01*
X153116071Y-68995238D01*
X153020833Y-69090476D01*
X152925595Y-69138095D01*
X153830357Y-68852380D02*
X154449404Y-68852380D01*
X154116071Y-69233333D01*
X154258928Y-69233333D01*
X154354166Y-69280952D01*
X154401785Y-69328571D01*
X154449404Y-69423809D01*
X154449404Y-69661904D01*
X154401785Y-69757142D01*
X154354166Y-69804761D01*
X154258928Y-69852380D01*
X153973214Y-69852380D01*
X153877976Y-69804761D01*
X153830357Y-69757142D01*
G04 #@! TO.C,C14*
X152257142Y-99657142D02*
X152209523Y-99704761D01*
X152066666Y-99752380D01*
X151971428Y-99752380D01*
X151828571Y-99704761D01*
X151733333Y-99609523D01*
X151685714Y-99514285D01*
X151638095Y-99323809D01*
X151638095Y-99180952D01*
X151685714Y-98990476D01*
X151733333Y-98895238D01*
X151828571Y-98800000D01*
X151971428Y-98752380D01*
X152066666Y-98752380D01*
X152209523Y-98800000D01*
X152257142Y-98847619D01*
X153209523Y-99752380D02*
X152638095Y-99752380D01*
X152923809Y-99752380D02*
X152923809Y-98752380D01*
X152828571Y-98895238D01*
X152733333Y-98990476D01*
X152638095Y-99038095D01*
X154066666Y-99085714D02*
X154066666Y-99752380D01*
X153828571Y-98704761D02*
X153590476Y-99419047D01*
X154209523Y-99419047D01*
G04 #@! TO.C,D1*
X172361904Y-47252380D02*
X172361904Y-46252380D01*
X172600000Y-46252380D01*
X172742857Y-46300000D01*
X172838095Y-46395238D01*
X172885714Y-46490476D01*
X172933333Y-46680952D01*
X172933333Y-46823809D01*
X172885714Y-47014285D01*
X172838095Y-47109523D01*
X172742857Y-47204761D01*
X172600000Y-47252380D01*
X172361904Y-47252380D01*
X173885714Y-47252380D02*
X173314285Y-47252380D01*
X173600000Y-47252380D02*
X173600000Y-46252380D01*
X173504761Y-46395238D01*
X173409523Y-46490476D01*
X173314285Y-46538095D01*
G04 #@! TO.C,J1*
X142668666Y-37778380D02*
X142668666Y-38492666D01*
X142621047Y-38635523D01*
X142525809Y-38730761D01*
X142382952Y-38778380D01*
X142287714Y-38778380D01*
X143668666Y-38778380D02*
X143097238Y-38778380D01*
X143382952Y-38778380D02*
X143382952Y-37778380D01*
X143287714Y-37921238D01*
X143192476Y-38016476D01*
X143097238Y-38064095D01*
G04 #@! TO.C,J2*
X176766666Y-51752380D02*
X176766666Y-52466666D01*
X176719047Y-52609523D01*
X176623809Y-52704761D01*
X176480952Y-52752380D01*
X176385714Y-52752380D01*
X177195238Y-51847619D02*
X177242857Y-51800000D01*
X177338095Y-51752380D01*
X177576190Y-51752380D01*
X177671428Y-51800000D01*
X177719047Y-51847619D01*
X177766666Y-51942857D01*
X177766666Y-52038095D01*
X177719047Y-52180952D01*
X177147619Y-52752380D01*
X177766666Y-52752380D01*
G04 #@! TO.C,J3*
X150666666Y-108852380D02*
X150666666Y-109566666D01*
X150619047Y-109709523D01*
X150523809Y-109804761D01*
X150380952Y-109852380D01*
X150285714Y-109852380D01*
X151047619Y-108852380D02*
X151666666Y-108852380D01*
X151333333Y-109233333D01*
X151476190Y-109233333D01*
X151571428Y-109280952D01*
X151619047Y-109328571D01*
X151666666Y-109423809D01*
X151666666Y-109661904D01*
X151619047Y-109757142D01*
X151571428Y-109804761D01*
X151476190Y-109852380D01*
X151190476Y-109852380D01*
X151095238Y-109804761D01*
X151047619Y-109757142D01*
G04 #@! TO.C,J4*
X150666666Y-123852380D02*
X150666666Y-124566666D01*
X150619047Y-124709523D01*
X150523809Y-124804761D01*
X150380952Y-124852380D01*
X150285714Y-124852380D01*
X151571428Y-124185714D02*
X151571428Y-124852380D01*
X151333333Y-123804761D02*
X151095238Y-124519047D01*
X151714285Y-124519047D01*
G04 #@! TO.C,J5*
X154766666Y-93752380D02*
X154766666Y-94466666D01*
X154719047Y-94609523D01*
X154623809Y-94704761D01*
X154480952Y-94752380D01*
X154385714Y-94752380D01*
X155719047Y-93752380D02*
X155242857Y-93752380D01*
X155195238Y-94228571D01*
X155242857Y-94180952D01*
X155338095Y-94133333D01*
X155576190Y-94133333D01*
X155671428Y-94180952D01*
X155719047Y-94228571D01*
X155766666Y-94323809D01*
X155766666Y-94561904D01*
X155719047Y-94657142D01*
X155671428Y-94704761D01*
X155576190Y-94752380D01*
X155338095Y-94752380D01*
X155242857Y-94704761D01*
X155195238Y-94657142D01*
G04 #@! TO.C,J6*
X150666666Y-93752380D02*
X150666666Y-94466666D01*
X150619047Y-94609523D01*
X150523809Y-94704761D01*
X150380952Y-94752380D01*
X150285714Y-94752380D01*
X151571428Y-93752380D02*
X151380952Y-93752380D01*
X151285714Y-93800000D01*
X151238095Y-93847619D01*
X151142857Y-93990476D01*
X151095238Y-94180952D01*
X151095238Y-94561904D01*
X151142857Y-94657142D01*
X151190476Y-94704761D01*
X151285714Y-94752380D01*
X151476190Y-94752380D01*
X151571428Y-94704761D01*
X151619047Y-94657142D01*
X151666666Y-94561904D01*
X151666666Y-94323809D01*
X151619047Y-94228571D01*
X151571428Y-94180952D01*
X151476190Y-94133333D01*
X151285714Y-94133333D01*
X151190476Y-94180952D01*
X151142857Y-94228571D01*
X151095238Y-94323809D01*
G04 #@! TO.C,J7*
X154566666Y-123852380D02*
X154566666Y-124566666D01*
X154519047Y-124709523D01*
X154423809Y-124804761D01*
X154280952Y-124852380D01*
X154185714Y-124852380D01*
X154947619Y-123852380D02*
X155614285Y-123852380D01*
X155185714Y-124852380D01*
G04 #@! TO.C,J8*
X154666666Y-108852380D02*
X154666666Y-109566666D01*
X154619047Y-109709523D01*
X154523809Y-109804761D01*
X154380952Y-109852380D01*
X154285714Y-109852380D01*
X155285714Y-109280952D02*
X155190476Y-109233333D01*
X155142857Y-109185714D01*
X155095238Y-109090476D01*
X155095238Y-109042857D01*
X155142857Y-108947619D01*
X155190476Y-108900000D01*
X155285714Y-108852380D01*
X155476190Y-108852380D01*
X155571428Y-108900000D01*
X155619047Y-108947619D01*
X155666666Y-109042857D01*
X155666666Y-109090476D01*
X155619047Y-109185714D01*
X155571428Y-109233333D01*
X155476190Y-109280952D01*
X155285714Y-109280952D01*
X155190476Y-109328571D01*
X155142857Y-109376190D01*
X155095238Y-109471428D01*
X155095238Y-109661904D01*
X155142857Y-109757142D01*
X155190476Y-109804761D01*
X155285714Y-109852380D01*
X155476190Y-109852380D01*
X155571428Y-109804761D01*
X155619047Y-109757142D01*
X155666666Y-109661904D01*
X155666666Y-109471428D01*
X155619047Y-109376190D01*
X155571428Y-109328571D01*
X155476190Y-109280952D01*
G04 #@! TO.C,J9*
X154766666Y-78852380D02*
X154766666Y-79566666D01*
X154719047Y-79709523D01*
X154623809Y-79804761D01*
X154480952Y-79852380D01*
X154385714Y-79852380D01*
X155290476Y-79852380D02*
X155480952Y-79852380D01*
X155576190Y-79804761D01*
X155623809Y-79757142D01*
X155719047Y-79614285D01*
X155766666Y-79423809D01*
X155766666Y-79042857D01*
X155719047Y-78947619D01*
X155671428Y-78900000D01*
X155576190Y-78852380D01*
X155385714Y-78852380D01*
X155290476Y-78900000D01*
X155242857Y-78947619D01*
X155195238Y-79042857D01*
X155195238Y-79280952D01*
X155242857Y-79376190D01*
X155290476Y-79423809D01*
X155385714Y-79471428D01*
X155576190Y-79471428D01*
X155671428Y-79423809D01*
X155719047Y-79376190D01*
X155766666Y-79280952D01*
G04 #@! TO.C,J10*
X150590476Y-78852380D02*
X150590476Y-79566666D01*
X150542857Y-79709523D01*
X150447619Y-79804761D01*
X150304761Y-79852380D01*
X150209523Y-79852380D01*
X151590476Y-79852380D02*
X151019047Y-79852380D01*
X151304761Y-79852380D02*
X151304761Y-78852380D01*
X151209523Y-78995238D01*
X151114285Y-79090476D01*
X151019047Y-79138095D01*
X152209523Y-78852380D02*
X152304761Y-78852380D01*
X152400000Y-78900000D01*
X152447619Y-78947619D01*
X152495238Y-79042857D01*
X152542857Y-79233333D01*
X152542857Y-79471428D01*
X152495238Y-79661904D01*
X152447619Y-79757142D01*
X152400000Y-79804761D01*
X152304761Y-79852380D01*
X152209523Y-79852380D01*
X152114285Y-79804761D01*
X152066666Y-79757142D01*
X152019047Y-79661904D01*
X151971428Y-79471428D01*
X151971428Y-79233333D01*
X152019047Y-79042857D01*
X152066666Y-78947619D01*
X152114285Y-78900000D01*
X152209523Y-78852380D01*
G04 #@! TO.C,Q1*
X176904761Y-54947619D02*
X176809523Y-54900000D01*
X176714285Y-54804761D01*
X176571428Y-54661904D01*
X176476190Y-54614285D01*
X176380952Y-54614285D01*
X176428571Y-54852380D02*
X176333333Y-54804761D01*
X176238095Y-54709523D01*
X176190476Y-54519047D01*
X176190476Y-54185714D01*
X176238095Y-53995238D01*
X176333333Y-53900000D01*
X176428571Y-53852380D01*
X176619047Y-53852380D01*
X176714285Y-53900000D01*
X176809523Y-53995238D01*
X176857142Y-54185714D01*
X176857142Y-54519047D01*
X176809523Y-54709523D01*
X176714285Y-54804761D01*
X176619047Y-54852380D01*
X176428571Y-54852380D01*
X177809523Y-54852380D02*
X177238095Y-54852380D01*
X177523809Y-54852380D02*
X177523809Y-53852380D01*
X177428571Y-53995238D01*
X177333333Y-54090476D01*
X177238095Y-54138095D01*
G04 #@! TO.C,R1*
X166033333Y-62052380D02*
X165700000Y-61576190D01*
X165461904Y-62052380D02*
X165461904Y-61052380D01*
X165842857Y-61052380D01*
X165938095Y-61100000D01*
X165985714Y-61147619D01*
X166033333Y-61242857D01*
X166033333Y-61385714D01*
X165985714Y-61480952D01*
X165938095Y-61528571D01*
X165842857Y-61576190D01*
X165461904Y-61576190D01*
X166985714Y-62052380D02*
X166414285Y-62052380D01*
X166700000Y-62052380D02*
X166700000Y-61052380D01*
X166604761Y-61195238D01*
X166509523Y-61290476D01*
X166414285Y-61338095D01*
G04 #@! TO.C,R2*
X176633333Y-62152380D02*
X176300000Y-61676190D01*
X176061904Y-62152380D02*
X176061904Y-61152380D01*
X176442857Y-61152380D01*
X176538095Y-61200000D01*
X176585714Y-61247619D01*
X176633333Y-61342857D01*
X176633333Y-61485714D01*
X176585714Y-61580952D01*
X176538095Y-61628571D01*
X176442857Y-61676190D01*
X176061904Y-61676190D01*
X177014285Y-61247619D02*
X177061904Y-61200000D01*
X177157142Y-61152380D01*
X177395238Y-61152380D01*
X177490476Y-61200000D01*
X177538095Y-61247619D01*
X177585714Y-61342857D01*
X177585714Y-61438095D01*
X177538095Y-61580952D01*
X176966666Y-62152380D01*
X177585714Y-62152380D01*
G04 #@! TO.C,R3*
X174333333Y-62152380D02*
X174000000Y-61676190D01*
X173761904Y-62152380D02*
X173761904Y-61152380D01*
X174142857Y-61152380D01*
X174238095Y-61200000D01*
X174285714Y-61247619D01*
X174333333Y-61342857D01*
X174333333Y-61485714D01*
X174285714Y-61580952D01*
X174238095Y-61628571D01*
X174142857Y-61676190D01*
X173761904Y-61676190D01*
X174666666Y-61152380D02*
X175285714Y-61152380D01*
X174952380Y-61533333D01*
X175095238Y-61533333D01*
X175190476Y-61580952D01*
X175238095Y-61628571D01*
X175285714Y-61723809D01*
X175285714Y-61961904D01*
X175238095Y-62057142D01*
X175190476Y-62104761D01*
X175095238Y-62152380D01*
X174809523Y-62152380D01*
X174714285Y-62104761D01*
X174666666Y-62057142D01*
G04 #@! TO.C,R4*
X171933333Y-62252380D02*
X171600000Y-61776190D01*
X171361904Y-62252380D02*
X171361904Y-61252380D01*
X171742857Y-61252380D01*
X171838095Y-61300000D01*
X171885714Y-61347619D01*
X171933333Y-61442857D01*
X171933333Y-61585714D01*
X171885714Y-61680952D01*
X171838095Y-61728571D01*
X171742857Y-61776190D01*
X171361904Y-61776190D01*
X172790476Y-61585714D02*
X172790476Y-62252380D01*
X172552380Y-61204761D02*
X172314285Y-61919047D01*
X172933333Y-61919047D01*
G04 #@! TO.C,R5*
X173133333Y-39152380D02*
X172800000Y-38676190D01*
X172561904Y-39152380D02*
X172561904Y-38152380D01*
X172942857Y-38152380D01*
X173038095Y-38200000D01*
X173085714Y-38247619D01*
X173133333Y-38342857D01*
X173133333Y-38485714D01*
X173085714Y-38580952D01*
X173038095Y-38628571D01*
X172942857Y-38676190D01*
X172561904Y-38676190D01*
X174038095Y-38152380D02*
X173561904Y-38152380D01*
X173514285Y-38628571D01*
X173561904Y-38580952D01*
X173657142Y-38533333D01*
X173895238Y-38533333D01*
X173990476Y-38580952D01*
X174038095Y-38628571D01*
X174085714Y-38723809D01*
X174085714Y-38961904D01*
X174038095Y-39057142D01*
X173990476Y-39104761D01*
X173895238Y-39152380D01*
X173657142Y-39152380D01*
X173561904Y-39104761D01*
X173514285Y-39057142D01*
G04 #@! TO.C,R6*
X161033333Y-61552380D02*
X160700000Y-61076190D01*
X160461904Y-61552380D02*
X160461904Y-60552380D01*
X160842857Y-60552380D01*
X160938095Y-60600000D01*
X160985714Y-60647619D01*
X161033333Y-60742857D01*
X161033333Y-60885714D01*
X160985714Y-60980952D01*
X160938095Y-61028571D01*
X160842857Y-61076190D01*
X160461904Y-61076190D01*
X161890476Y-60552380D02*
X161700000Y-60552380D01*
X161604761Y-60600000D01*
X161557142Y-60647619D01*
X161461904Y-60790476D01*
X161414285Y-60980952D01*
X161414285Y-61361904D01*
X161461904Y-61457142D01*
X161509523Y-61504761D01*
X161604761Y-61552380D01*
X161795238Y-61552380D01*
X161890476Y-61504761D01*
X161938095Y-61457142D01*
X161985714Y-61361904D01*
X161985714Y-61123809D01*
X161938095Y-61028571D01*
X161890476Y-60980952D01*
X161795238Y-60933333D01*
X161604761Y-60933333D01*
X161509523Y-60980952D01*
X161461904Y-61028571D01*
X161414285Y-61123809D01*
G04 #@! TO.C,R7*
X152333333Y-61552380D02*
X152000000Y-61076190D01*
X151761904Y-61552380D02*
X151761904Y-60552380D01*
X152142857Y-60552380D01*
X152238095Y-60600000D01*
X152285714Y-60647619D01*
X152333333Y-60742857D01*
X152333333Y-60885714D01*
X152285714Y-60980952D01*
X152238095Y-61028571D01*
X152142857Y-61076190D01*
X151761904Y-61076190D01*
X152666666Y-60552380D02*
X153333333Y-60552380D01*
X152904761Y-61552380D01*
G04 #@! TO.C,R8*
X158833333Y-56852380D02*
X158500000Y-56376190D01*
X158261904Y-56852380D02*
X158261904Y-55852380D01*
X158642857Y-55852380D01*
X158738095Y-55900000D01*
X158785714Y-55947619D01*
X158833333Y-56042857D01*
X158833333Y-56185714D01*
X158785714Y-56280952D01*
X158738095Y-56328571D01*
X158642857Y-56376190D01*
X158261904Y-56376190D01*
X159404761Y-56280952D02*
X159309523Y-56233333D01*
X159261904Y-56185714D01*
X159214285Y-56090476D01*
X159214285Y-56042857D01*
X159261904Y-55947619D01*
X159309523Y-55900000D01*
X159404761Y-55852380D01*
X159595238Y-55852380D01*
X159690476Y-55900000D01*
X159738095Y-55947619D01*
X159785714Y-56042857D01*
X159785714Y-56090476D01*
X159738095Y-56185714D01*
X159690476Y-56233333D01*
X159595238Y-56280952D01*
X159404761Y-56280952D01*
X159309523Y-56328571D01*
X159261904Y-56376190D01*
X159214285Y-56471428D01*
X159214285Y-56661904D01*
X159261904Y-56757142D01*
X159309523Y-56804761D01*
X159404761Y-56852380D01*
X159595238Y-56852380D01*
X159690476Y-56804761D01*
X159738095Y-56757142D01*
X159785714Y-56661904D01*
X159785714Y-56471428D01*
X159738095Y-56376190D01*
X159690476Y-56328571D01*
X159595238Y-56280952D01*
G04 #@! TO.C,R9*
X150133333Y-56852380D02*
X149800000Y-56376190D01*
X149561904Y-56852380D02*
X149561904Y-55852380D01*
X149942857Y-55852380D01*
X150038095Y-55900000D01*
X150085714Y-55947619D01*
X150133333Y-56042857D01*
X150133333Y-56185714D01*
X150085714Y-56280952D01*
X150038095Y-56328571D01*
X149942857Y-56376190D01*
X149561904Y-56376190D01*
X150609523Y-56852380D02*
X150800000Y-56852380D01*
X150895238Y-56804761D01*
X150942857Y-56757142D01*
X151038095Y-56614285D01*
X151085714Y-56423809D01*
X151085714Y-56042857D01*
X151038095Y-55947619D01*
X150990476Y-55900000D01*
X150895238Y-55852380D01*
X150704761Y-55852380D01*
X150609523Y-55900000D01*
X150561904Y-55947619D01*
X150514285Y-56042857D01*
X150514285Y-56280952D01*
X150561904Y-56376190D01*
X150609523Y-56423809D01*
X150704761Y-56471428D01*
X150895238Y-56471428D01*
X150990476Y-56423809D01*
X151038095Y-56376190D01*
X151085714Y-56280952D01*
G04 #@! TO.C,R10*
X156157142Y-61552380D02*
X155823809Y-61076190D01*
X155585714Y-61552380D02*
X155585714Y-60552380D01*
X155966666Y-60552380D01*
X156061904Y-60600000D01*
X156109523Y-60647619D01*
X156157142Y-60742857D01*
X156157142Y-60885714D01*
X156109523Y-60980952D01*
X156061904Y-61028571D01*
X155966666Y-61076190D01*
X155585714Y-61076190D01*
X157109523Y-61552380D02*
X156538095Y-61552380D01*
X156823809Y-61552380D02*
X156823809Y-60552380D01*
X156728571Y-60695238D01*
X156633333Y-60790476D01*
X156538095Y-60838095D01*
X157728571Y-60552380D02*
X157823809Y-60552380D01*
X157919047Y-60600000D01*
X157966666Y-60647619D01*
X158014285Y-60742857D01*
X158061904Y-60933333D01*
X158061904Y-61171428D01*
X158014285Y-61361904D01*
X157966666Y-61457142D01*
X157919047Y-61504761D01*
X157823809Y-61552380D01*
X157728571Y-61552380D01*
X157633333Y-61504761D01*
X157585714Y-61457142D01*
X157538095Y-61361904D01*
X157490476Y-61171428D01*
X157490476Y-60933333D01*
X157538095Y-60742857D01*
X157585714Y-60647619D01*
X157633333Y-60600000D01*
X157728571Y-60552380D01*
G04 #@! TO.C,R11*
X147557142Y-61452380D02*
X147223809Y-60976190D01*
X146985714Y-61452380D02*
X146985714Y-60452380D01*
X147366666Y-60452380D01*
X147461904Y-60500000D01*
X147509523Y-60547619D01*
X147557142Y-60642857D01*
X147557142Y-60785714D01*
X147509523Y-60880952D01*
X147461904Y-60928571D01*
X147366666Y-60976190D01*
X146985714Y-60976190D01*
X148509523Y-61452380D02*
X147938095Y-61452380D01*
X148223809Y-61452380D02*
X148223809Y-60452380D01*
X148128571Y-60595238D01*
X148033333Y-60690476D01*
X147938095Y-60738095D01*
X149461904Y-61452380D02*
X148890476Y-61452380D01*
X149176190Y-61452380D02*
X149176190Y-60452380D01*
X149080952Y-60595238D01*
X148985714Y-60690476D01*
X148890476Y-60738095D01*
G04 #@! TO.C,R12*
X153957142Y-56852380D02*
X153623809Y-56376190D01*
X153385714Y-56852380D02*
X153385714Y-55852380D01*
X153766666Y-55852380D01*
X153861904Y-55900000D01*
X153909523Y-55947619D01*
X153957142Y-56042857D01*
X153957142Y-56185714D01*
X153909523Y-56280952D01*
X153861904Y-56328571D01*
X153766666Y-56376190D01*
X153385714Y-56376190D01*
X154909523Y-56852380D02*
X154338095Y-56852380D01*
X154623809Y-56852380D02*
X154623809Y-55852380D01*
X154528571Y-55995238D01*
X154433333Y-56090476D01*
X154338095Y-56138095D01*
X155290476Y-55947619D02*
X155338095Y-55900000D01*
X155433333Y-55852380D01*
X155671428Y-55852380D01*
X155766666Y-55900000D01*
X155814285Y-55947619D01*
X155861904Y-56042857D01*
X155861904Y-56138095D01*
X155814285Y-56280952D01*
X155242857Y-56852380D01*
X155861904Y-56852380D01*
G04 #@! TO.C,U1*
X144638095Y-50552380D02*
X144638095Y-51361904D01*
X144685714Y-51457142D01*
X144733333Y-51504761D01*
X144828571Y-51552380D01*
X145019047Y-51552380D01*
X145114285Y-51504761D01*
X145161904Y-51457142D01*
X145209523Y-51361904D01*
X145209523Y-50552380D01*
X146209523Y-51552380D02*
X145638095Y-51552380D01*
X145923809Y-51552380D02*
X145923809Y-50552380D01*
X145828571Y-50695238D01*
X145733333Y-50790476D01*
X145638095Y-50838095D01*
G04 #@! TO.C,U2*
X168838095Y-61052380D02*
X168838095Y-61861904D01*
X168885714Y-61957142D01*
X168933333Y-62004761D01*
X169028571Y-62052380D01*
X169219047Y-62052380D01*
X169314285Y-62004761D01*
X169361904Y-61957142D01*
X169409523Y-61861904D01*
X169409523Y-61052380D01*
X169838095Y-61147619D02*
X169885714Y-61100000D01*
X169980952Y-61052380D01*
X170219047Y-61052380D01*
X170314285Y-61100000D01*
X170361904Y-61147619D01*
X170409523Y-61242857D01*
X170409523Y-61338095D01*
X170361904Y-61480952D01*
X169790476Y-62052380D01*
X170409523Y-62052380D01*
G04 #@! TO.C,U3*
X160638095Y-38752380D02*
X160638095Y-39561904D01*
X160685714Y-39657142D01*
X160733333Y-39704761D01*
X160828571Y-39752380D01*
X161019047Y-39752380D01*
X161114285Y-39704761D01*
X161161904Y-39657142D01*
X161209523Y-39561904D01*
X161209523Y-38752380D01*
X161590476Y-38752380D02*
X162209523Y-38752380D01*
X161876190Y-39133333D01*
X162019047Y-39133333D01*
X162114285Y-39180952D01*
X162161904Y-39228571D01*
X162209523Y-39323809D01*
X162209523Y-39561904D01*
X162161904Y-39657142D01*
X162114285Y-39704761D01*
X162019047Y-39752380D01*
X161733333Y-39752380D01*
X161638095Y-39704761D01*
X161590476Y-39657142D01*
G04 #@! TO.C,U4*
X165038095Y-53452380D02*
X165038095Y-54261904D01*
X165085714Y-54357142D01*
X165133333Y-54404761D01*
X165228571Y-54452380D01*
X165419047Y-54452380D01*
X165514285Y-54404761D01*
X165561904Y-54357142D01*
X165609523Y-54261904D01*
X165609523Y-53452380D01*
X166514285Y-53785714D02*
X166514285Y-54452380D01*
X166276190Y-53404761D02*
X166038095Y-54119047D01*
X166657142Y-54119047D01*
G04 #@! TO.C,U5*
X152078095Y-119892380D02*
X152078095Y-120701904D01*
X152125714Y-120797142D01*
X152173333Y-120844761D01*
X152268571Y-120892380D01*
X152459047Y-120892380D01*
X152554285Y-120844761D01*
X152601904Y-120797142D01*
X152649523Y-120701904D01*
X152649523Y-119892380D01*
X153601904Y-119892380D02*
X153125714Y-119892380D01*
X153078095Y-120368571D01*
X153125714Y-120320952D01*
X153220952Y-120273333D01*
X153459047Y-120273333D01*
X153554285Y-120320952D01*
X153601904Y-120368571D01*
X153649523Y-120463809D01*
X153649523Y-120701904D01*
X153601904Y-120797142D01*
X153554285Y-120844761D01*
X153459047Y-120892380D01*
X153220952Y-120892380D01*
X153125714Y-120844761D01*
X153078095Y-120797142D01*
G04 #@! TO.C,U6*
X171438095Y-50452380D02*
X171438095Y-51261904D01*
X171485714Y-51357142D01*
X171533333Y-51404761D01*
X171628571Y-51452380D01*
X171819047Y-51452380D01*
X171914285Y-51404761D01*
X171961904Y-51357142D01*
X172009523Y-51261904D01*
X172009523Y-50452380D01*
X172914285Y-50452380D02*
X172723809Y-50452380D01*
X172628571Y-50500000D01*
X172580952Y-50547619D01*
X172485714Y-50690476D01*
X172438095Y-50880952D01*
X172438095Y-51261904D01*
X172485714Y-51357142D01*
X172533333Y-51404761D01*
X172628571Y-51452380D01*
X172819047Y-51452380D01*
X172914285Y-51404761D01*
X172961904Y-51357142D01*
X173009523Y-51261904D01*
X173009523Y-51023809D01*
X172961904Y-50928571D01*
X172914285Y-50880952D01*
X172819047Y-50833333D01*
X172628571Y-50833333D01*
X172533333Y-50880952D01*
X172485714Y-50928571D01*
X172438095Y-51023809D01*
G04 #@! TO.C,U7*
X152088095Y-89892380D02*
X152088095Y-90701904D01*
X152135714Y-90797142D01*
X152183333Y-90844761D01*
X152278571Y-90892380D01*
X152469047Y-90892380D01*
X152564285Y-90844761D01*
X152611904Y-90797142D01*
X152659523Y-90701904D01*
X152659523Y-89892380D01*
X153040476Y-89892380D02*
X153707142Y-89892380D01*
X153278571Y-90892380D01*
G04 #@! TO.C,U10*
X151606404Y-74892380D02*
X151606404Y-75701904D01*
X151654023Y-75797142D01*
X151701642Y-75844761D01*
X151796880Y-75892380D01*
X151987357Y-75892380D01*
X152082595Y-75844761D01*
X152130214Y-75797142D01*
X152177833Y-75701904D01*
X152177833Y-74892380D01*
X153177833Y-75892380D02*
X152606404Y-75892380D01*
X152892119Y-75892380D02*
X152892119Y-74892380D01*
X152796880Y-75035238D01*
X152701642Y-75130476D01*
X152606404Y-75178095D01*
X153796880Y-74892380D02*
X153892119Y-74892380D01*
X153987357Y-74940000D01*
X154034976Y-74987619D01*
X154082595Y-75082857D01*
X154130214Y-75273333D01*
X154130214Y-75511428D01*
X154082595Y-75701904D01*
X154034976Y-75797142D01*
X153987357Y-75844761D01*
X153892119Y-75892380D01*
X153796880Y-75892380D01*
X153701642Y-75844761D01*
X153654023Y-75797142D01*
X153606404Y-75701904D01*
X153558785Y-75511428D01*
X153558785Y-75273333D01*
X153606404Y-75082857D01*
X153654023Y-74987619D01*
X153701642Y-74940000D01*
X153796880Y-74892380D01*
G04 #@! TO.C,U11*
X151601904Y-104892380D02*
X151601904Y-105701904D01*
X151649523Y-105797142D01*
X151697142Y-105844761D01*
X151792380Y-105892380D01*
X151982857Y-105892380D01*
X152078095Y-105844761D01*
X152125714Y-105797142D01*
X152173333Y-105701904D01*
X152173333Y-104892380D01*
X153173333Y-105892380D02*
X152601904Y-105892380D01*
X152887619Y-105892380D02*
X152887619Y-104892380D01*
X152792380Y-105035238D01*
X152697142Y-105130476D01*
X152601904Y-105178095D01*
X154125714Y-105892380D02*
X153554285Y-105892380D01*
X153840000Y-105892380D02*
X153840000Y-104892380D01*
X153744761Y-105035238D01*
X153649523Y-105130476D01*
X153554285Y-105178095D01*
G04 #@! TD*
M02*
