G04 #@! TF.GenerationSoftware,KiCad,Pcbnew,(5.0.2)-1*
G04 #@! TF.CreationDate,2020-07-12T04:03:39+02:00*
G04 #@! TF.ProjectId,TempSpike,54656d70-5370-4696-9b65-2e6b69636164,rev?*
G04 #@! TF.SameCoordinates,Original*
G04 #@! TF.FileFunction,Profile,NP*
%FSLAX46Y46*%
G04 Gerber Fmt 4.6, Leading zero omitted, Abs format (unit mm)*
G04 Created by KiCad (PCBNEW (5.0.2)-1) date 2020/07/12 04:03:39*
%MOMM*%
%LPD*%
G01*
G04 APERTURE LIST*
%ADD10C,0.020000*%
G04 #@! TA.AperFunction,NonConductor*
%ADD11C,0.020000*%
G04 #@! TD*
G04 APERTURE END LIST*
D10*
X134000000Y-66000000D02*
X130000000Y-62000000D01*
X147000000Y-66000000D02*
X134000000Y-66000000D01*
X174000000Y-66000000D02*
X178000000Y-62000000D01*
X159000000Y-66000000D02*
X174000000Y-66000000D01*
X178000000Y-38000000D02*
X178000000Y-62000000D01*
X130000000Y-38000000D02*
X130000000Y-62000000D01*
X132000000Y-38000000D02*
X130000000Y-38000000D01*
X138000000Y-38000000D02*
X178000000Y-38000000D01*
X138000000Y-40000000D02*
X138000000Y-38000000D01*
X132000000Y-40000000D02*
X138000000Y-40000000D01*
X132000000Y-38000000D02*
X132000000Y-40000000D01*
X138000000Y-48500000D02*
X138000000Y-50500000D01*
X132000000Y-50500000D02*
X132000000Y-48500000D01*
X132000000Y-48500000D02*
X138000000Y-48500000D01*
X138000000Y-50500000D02*
X132000000Y-50500000D01*
X159000000Y-126000000D02*
X159000000Y-66000000D01*
X162000000Y-123000000D02*
X159000000Y-126000000D01*
X162000000Y-128000000D02*
X162000000Y-123000000D01*
X153000000Y-137000000D02*
X162000000Y-128000000D01*
X144000000Y-128000000D02*
X153000000Y-137000000D01*
X144000000Y-123000000D02*
X144000000Y-128000000D01*
X147000000Y-126000000D02*
X144000000Y-123000000D01*
X147000000Y-66000000D02*
X147000000Y-126000000D01*
D11*
G04 #@! TO.C,U5*
X153540000Y-119640000D02*
X152140000Y-119640000D01*
X152140000Y-119640000D02*
X152140000Y-117240000D01*
X152140000Y-117240000D02*
X153540000Y-117240000D01*
X153540000Y-117240000D02*
X153540000Y-119640000D01*
G04 #@! TO.C,U6*
X174476960Y-54048000D02*
X173076960Y-54048000D01*
X173076960Y-54048000D02*
X173076960Y-51648000D01*
X173076960Y-51648000D02*
X174476960Y-51648000D01*
X174476960Y-51648000D02*
X174476960Y-54048000D01*
G04 #@! TO.C,U7*
X153550000Y-87240000D02*
X153550000Y-89640000D01*
X152150000Y-87240000D02*
X153550000Y-87240000D01*
X152150000Y-89640000D02*
X152150000Y-87240000D01*
X153550000Y-89640000D02*
X152150000Y-89640000D01*
G04 #@! TO.C,U10*
X153544500Y-74640000D02*
X152144500Y-74640000D01*
X152144500Y-74640000D02*
X152144500Y-72240000D01*
X152144500Y-72240000D02*
X153544500Y-72240000D01*
X153544500Y-72240000D02*
X153544500Y-74640000D01*
G04 #@! TO.C,U11*
X153540000Y-102240000D02*
X153540000Y-104640000D01*
X152140000Y-102240000D02*
X153540000Y-102240000D01*
X152140000Y-104640000D02*
X152140000Y-102240000D01*
X153540000Y-104640000D02*
X152140000Y-104640000D01*
G04 #@! TD*
M02*
