%TF.GenerationSoftware,KiCad,Pcbnew,(6.0.0)*%
%TF.CreationDate,2022-08-23T17:29:18+02:00*%
%TF.ProjectId,TempSpike,54656d70-5370-4696-9b65-2e6b69636164,rev?*%
%TF.SameCoordinates,Original*%
%TF.FileFunction,Copper,L1,Top*%
%TF.FilePolarity,Positive*%
%FSLAX46Y46*%
G04 Gerber Fmt 4.6, Leading zero omitted, Abs format (unit mm)*
G04 Created by KiCad (PCBNEW (6.0.0)) date 2022-08-23 17:29:18*
%MOMM*%
%LPD*%
G01*
G04 APERTURE LIST*
G04 Aperture macros list*
%AMRoundRect*
0 Rectangle with rounded corners*
0 $1 Rounding radius*
0 $2 $3 $4 $5 $6 $7 $8 $9 X,Y pos of 4 corners*
0 Add a 4 corners polygon primitive as box body*
4,1,4,$2,$3,$4,$5,$6,$7,$8,$9,$2,$3,0*
0 Add four circle primitives for the rounded corners*
1,1,$1+$1,$2,$3*
1,1,$1+$1,$4,$5*
1,1,$1+$1,$6,$7*
1,1,$1+$1,$8,$9*
0 Add four rect primitives between the rounded corners*
20,1,$1+$1,$2,$3,$4,$5,0*
20,1,$1+$1,$4,$5,$6,$7,0*
20,1,$1+$1,$6,$7,$8,$9,0*
20,1,$1+$1,$8,$9,$2,$3,0*%
%AMFreePoly0*
4,1,9,3.862500,-0.866500,0.737500,-0.866500,0.737500,-0.450000,-0.737500,-0.450000,-0.737500,0.450000,0.737500,0.450000,0.737500,0.866500,3.862500,0.866500,3.862500,-0.866500,3.862500,-0.866500,$1*%
G04 Aperture macros list end*
%TA.AperFunction,SMDPad,CuDef*%
%ADD10R,2.000000X2.000000*%
%TD*%
%TA.AperFunction,SMDPad,CuDef*%
%ADD11R,0.400000X0.650000*%
%TD*%
%TA.AperFunction,SMDPad,CuDef*%
%ADD12RoundRect,0.140000X0.140000X0.170000X-0.140000X0.170000X-0.140000X-0.170000X0.140000X-0.170000X0*%
%TD*%
%TA.AperFunction,SMDPad,CuDef*%
%ADD13RoundRect,0.135000X0.135000X0.185000X-0.135000X0.185000X-0.135000X-0.185000X0.135000X-0.185000X0*%
%TD*%
%TA.AperFunction,SMDPad,CuDef*%
%ADD14R,1.500000X0.600000*%
%TD*%
%TA.AperFunction,SMDPad,CuDef*%
%ADD15RoundRect,0.140000X-0.170000X0.140000X-0.170000X-0.140000X0.170000X-0.140000X0.170000X0.140000X0*%
%TD*%
%TA.AperFunction,SMDPad,CuDef*%
%ADD16RoundRect,0.140000X0.170000X-0.140000X0.170000X0.140000X-0.170000X0.140000X-0.170000X-0.140000X0*%
%TD*%
%TA.AperFunction,SMDPad,CuDef*%
%ADD17R,1.450000X0.450000*%
%TD*%
%TA.AperFunction,SMDPad,CuDef*%
%ADD18R,0.600000X1.500000*%
%TD*%
%TA.AperFunction,SMDPad,CuDef*%
%ADD19RoundRect,0.140000X-0.140000X-0.170000X0.140000X-0.170000X0.140000X0.170000X-0.140000X0.170000X0*%
%TD*%
%TA.AperFunction,SMDPad,CuDef*%
%ADD20R,1.300000X0.900000*%
%TD*%
%TA.AperFunction,SMDPad,CuDef*%
%ADD21FreePoly0,0.000000*%
%TD*%
%TA.AperFunction,SMDPad,CuDef*%
%ADD22RoundRect,0.135000X-0.135000X-0.185000X0.135000X-0.185000X0.135000X0.185000X-0.135000X0.185000X0*%
%TD*%
%TA.AperFunction,SMDPad,CuDef*%
%ADD23R,1.060000X0.650000*%
%TD*%
%TA.AperFunction,SMDPad,CuDef*%
%ADD24RoundRect,0.218750X0.256250X-0.218750X0.256250X0.218750X-0.256250X0.218750X-0.256250X-0.218750X0*%
%TD*%
%TA.AperFunction,SMDPad,CuDef*%
%ADD25R,0.800000X0.900000*%
%TD*%
%TA.AperFunction,SMDPad,CuDef*%
%ADD26RoundRect,0.135000X0.185000X-0.135000X0.185000X0.135000X-0.185000X0.135000X-0.185000X-0.135000X0*%
%TD*%
%TA.AperFunction,SMDPad,CuDef*%
%ADD27R,0.650000X0.400000*%
%TD*%
%TA.AperFunction,ComponentPad*%
%ADD28R,1.700000X1.700000*%
%TD*%
%TA.AperFunction,ComponentPad*%
%ADD29O,1.700000X1.700000*%
%TD*%
%TA.AperFunction,SMDPad,CuDef*%
%ADD30RoundRect,0.250000X0.262500X0.450000X-0.262500X0.450000X-0.262500X-0.450000X0.262500X-0.450000X0*%
%TD*%
%TA.AperFunction,SMDPad,CuDef*%
%ADD31RoundRect,0.250000X-0.262500X-0.450000X0.262500X-0.450000X0.262500X0.450000X-0.262500X0.450000X0*%
%TD*%
%TA.AperFunction,SMDPad,CuDef*%
%ADD32RoundRect,0.250000X-0.450000X0.262500X-0.450000X-0.262500X0.450000X-0.262500X0.450000X0.262500X0*%
%TD*%
%TA.AperFunction,ViaPad*%
%ADD33C,0.800000*%
%TD*%
%TA.AperFunction,Conductor*%
%ADD34C,0.300000*%
%TD*%
%TA.AperFunction,Conductor*%
%ADD35C,0.350000*%
%TD*%
%TA.AperFunction,Conductor*%
%ADD36C,0.600000*%
%TD*%
%TA.AperFunction,Conductor*%
%ADD37C,0.400000*%
%TD*%
%TA.AperFunction,Conductor*%
%ADD38C,0.800000*%
%TD*%
G04 APERTURE END LIST*
D10*
%TO.P,J10,1,Pin_1*%
%TO.N,Net-(J10-Pad1)*%
X148700000Y-73500000D03*
%TD*%
%TO.P,J3,1,Pin_1*%
%TO.N,Net-(J3-Pad1)*%
X148500000Y-103500000D03*
%TD*%
%TO.P,J4,1,Pin_1*%
%TO.N,Net-(J4-Pad1)*%
X148717000Y-117820000D03*
%TD*%
%TO.P,J5,1,Pin_1*%
%TO.N,Net-(J5-Pad1)*%
X157510000Y-88500000D03*
%TD*%
%TO.P,J6,1,Pin_1*%
%TO.N,Net-(J6-Pad1)*%
X148500000Y-88500000D03*
%TD*%
%TO.P,J7,1,Pin_1*%
%TO.N,Net-(J7-Pad1)*%
X157226000Y-117729000D03*
%TD*%
%TO.P,J8,1,Pin_1*%
%TO.N,Net-(J8-Pad1)*%
X157099000Y-103500000D03*
%TD*%
%TO.P,J9,1,Pin_1*%
%TO.N,Net-(J9-Pad1)*%
X157400000Y-73500000D03*
%TD*%
D11*
%TO.P,U5,1,NC*%
%TO.N,GND*%
X152350000Y-118350000D03*
%TO.P,U5,2,GND*%
X153000000Y-118350000D03*
%TO.P,U5,3,VOUT*%
%TO.N,/Temp_1*%
X153650000Y-118350000D03*
%TO.P,U5,4,VIN*%
%TO.N,+3V3*%
X153650000Y-116450000D03*
%TO.P,U5,5,NC*%
%TO.N,GND*%
X152350000Y-116450000D03*
%TD*%
%TO.P,U7,1,NC*%
%TO.N,GND*%
X152300000Y-89310000D03*
%TO.P,U7,2,GND*%
X152950000Y-89310000D03*
%TO.P,U7,3,VOUT*%
%TO.N,/Temp_3*%
X153600000Y-89310000D03*
%TO.P,U7,4,VIN*%
%TO.N,+3V3*%
X153600000Y-87410000D03*
%TO.P,U7,5,NC*%
%TO.N,GND*%
X152300000Y-87410000D03*
%TD*%
%TO.P,U10,1,NC*%
%TO.N,GND*%
X152350000Y-74510000D03*
%TO.P,U10,2,GND*%
X153000000Y-74510000D03*
%TO.P,U10,3,VOUT*%
%TO.N,/Temp_2*%
X153650000Y-74510000D03*
%TO.P,U10,4,VIN*%
%TO.N,+3V3*%
X153650000Y-72610000D03*
%TO.P,U10,5,NC*%
%TO.N,GND*%
X152350000Y-72610000D03*
%TD*%
%TO.P,U11,1,NC*%
%TO.N,GND*%
X152310000Y-103750000D03*
%TO.P,U11,2,GND*%
X152960000Y-103750000D03*
%TO.P,U11,3,VOUT*%
%TO.N,/Temp_4*%
X153610000Y-103750000D03*
%TO.P,U11,4,VIN*%
%TO.N,+3V3*%
X153610000Y-101850000D03*
%TO.P,U11,5,NC*%
%TO.N,GND*%
X152310000Y-101850000D03*
%TD*%
D12*
%TO.P,C9,1*%
%TO.N,+3V3*%
X153480000Y-114600000D03*
%TO.P,C9,2*%
%TO.N,GND*%
X152520000Y-114600000D03*
%TD*%
%TO.P,C12,1*%
%TO.N,+3V3*%
X153430000Y-85800000D03*
%TO.P,C12,2*%
%TO.N,GND*%
X152470000Y-85800000D03*
%TD*%
%TO.P,C14,1*%
%TO.N,+3V3*%
X153440000Y-100800000D03*
%TO.P,C14,2*%
%TO.N,GND*%
X152480000Y-100800000D03*
%TD*%
%TO.P,C13,1*%
%TO.N,+3V3*%
X153480000Y-71200000D03*
%TO.P,C13,2*%
%TO.N,GND*%
X152520000Y-71200000D03*
%TD*%
D13*
%TO.P,R13,1*%
%TO.N,/Moisture_High_Gain*%
X169800000Y-56800000D03*
%TO.P,R13,2*%
%TO.N,Net-(Q1-Pad1)*%
X168780000Y-56800000D03*
%TD*%
D14*
%TO.P,U9,1,X4*%
%TO.N,Net-(J9-Pad1)*%
X158320000Y-60815000D03*
%TO.P,U9,2,X6*%
%TO.N,Net-(J5-Pad1)*%
X158320000Y-59545000D03*
%TO.P,U9,3,X*%
%TO.N,/Moisture_Sense*%
X158320000Y-58275000D03*
%TO.P,U9,4,X7*%
%TO.N,Net-(J7-Pad1)*%
X158320000Y-57005000D03*
%TO.P,U9,5,X5*%
%TO.N,Net-(J10-Pad1)*%
X158320000Y-55735000D03*
%TO.P,U9,6,INH*%
%TO.N,/INH*%
X158320000Y-54465000D03*
%TO.P,U9,7,VEE*%
%TO.N,GND*%
X158320000Y-53195000D03*
%TO.P,U9,8,VSS*%
X158320000Y-51925000D03*
%TO.P,U9,9,C*%
%TO.N,/C_Low*%
X152920000Y-51925000D03*
%TO.P,U9,10,B*%
%TO.N,/B_Low*%
X152920000Y-53195000D03*
%TO.P,U9,11,A*%
%TO.N,/A_Low*%
X152920000Y-54465000D03*
%TO.P,U9,12,X3*%
%TO.N,Net-(J6-Pad1)*%
X152920000Y-55735000D03*
%TO.P,U9,13,X0*%
%TO.N,Net-(J3-Pad1)*%
X152920000Y-57005000D03*
%TO.P,U9,14,X1*%
%TO.N,Net-(J4-Pad1)*%
X152920000Y-58275000D03*
%TO.P,U9,15,X2*%
%TO.N,Net-(J8-Pad1)*%
X152920000Y-59545000D03*
%TO.P,U9,16,VDD*%
%TO.N,+5V*%
X152920000Y-60815000D03*
%TD*%
D12*
%TO.P,C7,1*%
%TO.N,+3V3*%
X159960000Y-49000000D03*
%TO.P,C7,2*%
%TO.N,GND*%
X159000000Y-49000000D03*
%TD*%
D15*
%TO.P,C4,1*%
%TO.N,+3V3*%
X156250000Y-49250000D03*
%TO.P,C4,2*%
%TO.N,GND*%
X156250000Y-50210000D03*
%TD*%
%TO.P,C1,1*%
%TO.N,Net-(C1-Pad1)*%
X149750000Y-41790000D03*
%TO.P,C1,2*%
%TO.N,Net-(C1-Pad2)*%
X149750000Y-42750000D03*
%TD*%
%TO.P,C8,1*%
%TO.N,+5V*%
X172000000Y-42724500D03*
%TO.P,C8,2*%
%TO.N,GND*%
X172000000Y-43684500D03*
%TD*%
%TO.P,C6,1*%
%TO.N,Net-(C6-Pad1)*%
X152250000Y-41790000D03*
%TO.P,C6,2*%
%TO.N,Net-(C6-Pad2)*%
X152250000Y-42750000D03*
%TD*%
D14*
%TO.P,U8,1,X4*%
%TO.N,Net-(J8-Pad1)*%
X149570000Y-60815000D03*
%TO.P,U8,2,X6*%
%TO.N,Net-(J4-Pad1)*%
X149570000Y-59545000D03*
%TO.P,U8,3,X*%
%TO.N,+5V*%
X149570000Y-58275000D03*
%TO.P,U8,4,X7*%
%TO.N,Net-(J3-Pad1)*%
X149570000Y-57005000D03*
%TO.P,U8,5,X5*%
%TO.N,Net-(J6-Pad1)*%
X149570000Y-55735000D03*
%TO.P,U8,6,INH*%
%TO.N,/INH*%
X149570000Y-54465000D03*
%TO.P,U8,7,VEE*%
%TO.N,GND*%
X149570000Y-53195000D03*
%TO.P,U8,8,VSS*%
X149570000Y-51925000D03*
%TO.P,U8,9,C*%
%TO.N,/C_High*%
X144170000Y-51925000D03*
%TO.P,U8,10,B*%
%TO.N,/B_High*%
X144170000Y-53195000D03*
%TO.P,U8,11,A*%
%TO.N,/A_High*%
X144170000Y-54465000D03*
%TO.P,U8,12,X3*%
%TO.N,Net-(J9-Pad1)*%
X144170000Y-55735000D03*
%TO.P,U8,13,X0*%
%TO.N,Net-(J7-Pad1)*%
X144170000Y-57005000D03*
%TO.P,U8,14,X1*%
%TO.N,Net-(J5-Pad1)*%
X144170000Y-58275000D03*
%TO.P,U8,15,X2*%
%TO.N,Net-(J10-Pad1)*%
X144170000Y-59545000D03*
%TO.P,U8,16,VDD*%
%TO.N,+5V*%
X144170000Y-60815000D03*
%TD*%
D16*
%TO.P,C2,1*%
%TO.N,Net-(C2-Pad1)*%
X153500000Y-42750000D03*
%TO.P,C2,2*%
%TO.N,GND*%
X153500000Y-41790000D03*
%TD*%
D17*
%TO.P,U4,1,PB7/PB8*%
%TO.N,/INH*%
X161690000Y-47230000D03*
%TO.P,U4,2,PB9/PC14-OSC32_IN*%
%TO.N,/A_High*%
X161690000Y-47880000D03*
%TO.P,U4,3,PC15-OSC32_OUT*%
%TO.N,/C_Low*%
X161690000Y-48530000D03*
%TO.P,U4,4,VDD*%
%TO.N,+3V3*%
X161690000Y-49180000D03*
%TO.P,U4,5,VSS*%
%TO.N,GND*%
X161690000Y-49830000D03*
%TO.P,U4,6,NRST*%
%TO.N,/NRST*%
X161690000Y-50480000D03*
%TO.P,U4,7,PA0*%
%TO.N,/B_Low*%
X161690000Y-51130000D03*
%TO.P,U4,8,PA1*%
%TO.N,/A_Low*%
X161690000Y-51780000D03*
%TO.P,U4,9,PA2*%
%TO.N,/MCU_Out*%
X161690000Y-52430000D03*
%TO.P,U4,10,PA3*%
%TO.N,/MCU_In*%
X161690000Y-53080000D03*
%TO.P,U4,11,PA4*%
%TO.N,/Moisture_ADC*%
X167590000Y-53080000D03*
%TO.P,U4,12,PA5*%
%TO.N,/Temp_1*%
X167590000Y-52430000D03*
%TO.P,U4,13,PA6*%
%TO.N,/Temp_2*%
X167590000Y-51780000D03*
%TO.P,U4,14,PA7*%
%TO.N,/Temp_3*%
X167590000Y-51130000D03*
%TO.P,U4,15,PB0/PB1/PB2/PA8*%
%TO.N,/Temp_4*%
X167590000Y-50480000D03*
%TO.P,U4,16,PA11[PA9]*%
%TO.N,/Temp_Cont*%
X167590000Y-49830000D03*
%TO.P,U4,17,PA12[PA10]*%
%TO.N,/B_High*%
X167590000Y-49180000D03*
%TO.P,U4,18,PA13*%
%TO.N,/Moisture_High_Gain*%
X167590000Y-48530000D03*
%TO.P,U4,19,PA15/PA14-BOOT0*%
%TO.N,/SWCLK*%
X167590000Y-47880000D03*
%TO.P,U4,20,PB3/PB4/PB5/PB6*%
%TO.N,/C_High*%
X167590000Y-47230000D03*
%TD*%
D18*
%TO.P,U1,1,C1+*%
%TO.N,Net-(C6-Pad1)*%
X154825000Y-44170000D03*
%TO.P,U1,2,VS+*%
%TO.N,Net-(C2-Pad1)*%
X153555000Y-44170000D03*
%TO.P,U1,3,C1-*%
%TO.N,Net-(C6-Pad2)*%
X152285000Y-44170000D03*
%TO.P,U1,4,C2+*%
%TO.N,Net-(C1-Pad1)*%
X151015000Y-44170000D03*
%TO.P,U1,5,C2-*%
%TO.N,Net-(C1-Pad2)*%
X149745000Y-44170000D03*
%TO.P,U1,6,VS-*%
%TO.N,Net-(C3-Pad1)*%
X148475000Y-44170000D03*
%TO.P,U1,7,T2OUT*%
%TO.N,unconnected-(U1-Pad7)*%
X147205000Y-44170000D03*
%TO.P,U1,8,R2IN*%
%TO.N,unconnected-(U1-Pad8)*%
X145935000Y-44170000D03*
%TO.P,U1,9,R2OUT*%
%TO.N,unconnected-(U1-Pad9)*%
X145935000Y-49570000D03*
%TO.P,U1,10,T2IN*%
%TO.N,unconnected-(U1-Pad10)*%
X147205000Y-49570000D03*
%TO.P,U1,11,T1IN*%
%TO.N,/MCU_Out*%
X148475000Y-49570000D03*
%TO.P,U1,12,R1OUT*%
%TO.N,/MCU_In*%
X149745000Y-49570000D03*
%TO.P,U1,13,R1IN*%
%TO.N,/RPi_Out*%
X151015000Y-49570000D03*
%TO.P,U1,14,T1OUT*%
%TO.N,/RPi_In*%
X152285000Y-49570000D03*
%TO.P,U1,15,GND*%
%TO.N,GND*%
X153555000Y-49570000D03*
%TO.P,U1,16,VCC*%
%TO.N,+3V3*%
X154825000Y-49570000D03*
%TD*%
D19*
%TO.P,C5,1*%
%TO.N,+3V3*%
X165000000Y-57000000D03*
%TO.P,C5,2*%
%TO.N,GND*%
X165960000Y-57000000D03*
%TD*%
D16*
%TO.P,C3,1*%
%TO.N,Net-(C3-Pad1)*%
X148500000Y-42710000D03*
%TO.P,C3,2*%
%TO.N,GND*%
X148500000Y-41750000D03*
%TD*%
D20*
%TO.P,U3,1,GND*%
%TO.N,GND*%
X167350000Y-42000000D03*
D21*
%TO.P,U3,2,VIN*%
%TO.N,+5V*%
X167437500Y-43500000D03*
D20*
%TO.P,U3,3,VOUT*%
%TO.N,+3V3*%
X167350000Y-45000000D03*
%TD*%
D22*
%TO.P,R10,1*%
%TO.N,+5V*%
X155480000Y-47000000D03*
%TO.P,R10,2*%
%TO.N,/B_Low*%
X156500000Y-47000000D03*
%TD*%
D20*
%TO.P,U12,1,OUT*%
%TO.N,+5V*%
X160850000Y-42000000D03*
D21*
%TO.P,U12,2,GND*%
%TO.N,GND*%
X160937500Y-43500000D03*
D20*
%TO.P,U12,3,IN*%
%TO.N,VD*%
X160850000Y-45000000D03*
%TD*%
D23*
%TO.P,U2,1,+*%
%TO.N,/Moisture_Sense*%
X162900000Y-58300000D03*
%TO.P,U2,2,V-*%
%TO.N,GND*%
X162900000Y-59250000D03*
%TO.P,U2,3,-*%
%TO.N,Net-(R2-Pad1)*%
X162900000Y-60200000D03*
%TO.P,U2,4*%
%TO.N,/Moisture_ADC*%
X165100000Y-60200000D03*
%TO.P,U2,5,V+*%
%TO.N,+3V3*%
X165100000Y-58300000D03*
%TD*%
D22*
%TO.P,R11,1*%
%TO.N,+5V*%
X157990000Y-47000000D03*
%TO.P,R11,2*%
%TO.N,/A_High*%
X159010000Y-47000000D03*
%TD*%
%TO.P,R12,1*%
%TO.N,+5V*%
X155480000Y-48000000D03*
%TO.P,R12,2*%
%TO.N,/A_Low*%
X156500000Y-48000000D03*
%TD*%
%TO.P,R9,1*%
%TO.N,+5V*%
X141700000Y-53100000D03*
%TO.P,R9,2*%
%TO.N,/B_High*%
X142720000Y-53100000D03*
%TD*%
D16*
%TO.P,C11,1*%
%TO.N,+3V3*%
X174250000Y-51710000D03*
%TO.P,C11,2*%
%TO.N,GND*%
X174250000Y-50750000D03*
%TD*%
D24*
%TO.P,D1,1,K*%
%TO.N,GND*%
X172945000Y-47611500D03*
%TO.P,D1,2,A*%
%TO.N,Net-(D1-Pad2)*%
X172945000Y-46036500D03*
%TD*%
D22*
%TO.P,R8,1*%
%TO.N,+5V*%
X157990000Y-48000000D03*
%TO.P,R8,2*%
%TO.N,/C_Low*%
X159010000Y-48000000D03*
%TD*%
%TO.P,R6,1*%
%TO.N,+5V*%
X157980000Y-46000000D03*
%TO.P,R6,2*%
%TO.N,/INH*%
X159000000Y-46000000D03*
%TD*%
D13*
%TO.P,R4,1*%
%TO.N,Net-(Q1-Pad3)*%
X167500000Y-61500000D03*
%TO.P,R4,2*%
%TO.N,Net-(R2-Pad1)*%
X166480000Y-61500000D03*
%TD*%
D25*
%TO.P,Q1,1,G*%
%TO.N,Net-(Q1-Pad1)*%
X168650000Y-58250000D03*
%TO.P,Q1,2,S*%
%TO.N,GND*%
X166750000Y-58250000D03*
%TO.P,Q1,3,D*%
%TO.N,Net-(Q1-Pad3)*%
X167700000Y-60250000D03*
%TD*%
D26*
%TO.P,R5,1*%
%TO.N,Net-(D1-Pad2)*%
X173500000Y-43724000D03*
%TO.P,R5,2*%
%TO.N,+5V*%
X173500000Y-42704000D03*
%TD*%
D16*
%TO.P,C10,1*%
%TO.N,+3V3*%
X171250000Y-47277500D03*
%TO.P,C10,2*%
%TO.N,GND*%
X171250000Y-46317500D03*
%TD*%
D22*
%TO.P,R7,1*%
%TO.N,+5V*%
X141680000Y-52100000D03*
%TO.P,R7,2*%
%TO.N,/C_High*%
X142700000Y-52100000D03*
%TD*%
D19*
%TO.P,C16,1*%
%TO.N,+5V*%
X170000000Y-45250000D03*
%TO.P,C16,2*%
%TO.N,GND*%
X170960000Y-45250000D03*
%TD*%
D16*
%TO.P,C15,1*%
%TO.N,VD*%
X159250000Y-44210000D03*
%TO.P,C15,2*%
%TO.N,GND*%
X159250000Y-43250000D03*
%TD*%
D27*
%TO.P,U6,1,NC*%
%TO.N,GND*%
X170850000Y-50600000D03*
%TO.P,U6,2,GND*%
X170850000Y-51250000D03*
%TO.P,U6,3,VOUT*%
%TO.N,/Temp_Cont*%
X170850000Y-51900000D03*
%TO.P,U6,4,VIN*%
%TO.N,+3V3*%
X172750000Y-51900000D03*
%TO.P,U6,5,NC*%
%TO.N,GND*%
X172750000Y-50600000D03*
%TD*%
D28*
%TO.P,J2,1,Pin_1*%
%TO.N,+5V*%
X175895000Y-42394000D03*
D29*
%TO.P,J2,2,Pin_2*%
%TO.N,/SWCLK*%
X175895000Y-44934000D03*
%TO.P,J2,3,Pin_3*%
%TO.N,/Moisture_High_Gain*%
X175895000Y-47474000D03*
%TO.P,J2,4,Pin_4*%
%TO.N,/NRST*%
X175895000Y-50014000D03*
%TO.P,J2,5,Pin_5*%
%TO.N,GND*%
X175895000Y-52554000D03*
%TD*%
D28*
%TO.P,J1,1,Pin_1*%
%TO.N,VD*%
X143002000Y-42156000D03*
D29*
%TO.P,J1,2,Pin_2*%
%TO.N,/RPi_In*%
X143002000Y-44696000D03*
%TO.P,J1,3,Pin_3*%
%TO.N,/RPi_Out*%
X143002000Y-47236000D03*
%TO.P,J1,4,Pin_4*%
%TO.N,GND*%
X143002000Y-49776000D03*
%TD*%
D30*
%TO.P,R1,1*%
%TO.N,GND*%
X163625000Y-56800000D03*
%TO.P,R1,2*%
%TO.N,/Moisture_Sense*%
X161800000Y-56800000D03*
%TD*%
D31*
%TO.P,R2,1*%
%TO.N,Net-(R2-Pad1)*%
X163087500Y-61750000D03*
%TO.P,R2,2*%
%TO.N,/Moisture_ADC*%
X164912500Y-61750000D03*
%TD*%
D32*
%TO.P,R3,1*%
%TO.N,GND*%
X161000000Y-59175000D03*
%TO.P,R3,2*%
%TO.N,Net-(R2-Pad1)*%
X161000000Y-61000000D03*
%TD*%
D33*
%TO.N,GND*%
X152300000Y-110600000D03*
X152300000Y-109100000D03*
X159230000Y-49799990D03*
X156700000Y-52600000D03*
X166899990Y-57000000D03*
X161125000Y-55050000D03*
X160000000Y-59200000D03*
X163300000Y-49800000D03*
X158200000Y-42900000D03*
X148325000Y-51925000D03*
X154500000Y-42250000D03*
X147500000Y-42250000D03*
X172000000Y-44750000D03*
X169000000Y-41500000D03*
X166000000Y-41250000D03*
X153150000Y-48050000D03*
X137500000Y-55000000D03*
X152500000Y-79400000D03*
X159900000Y-57200000D03*
X172000000Y-55500000D03*
X154350000Y-48000000D03*
X174250000Y-45250000D03*
X153800000Y-62000000D03*
X169000000Y-53200000D03*
X162000000Y-43400000D03*
X152900000Y-77989000D03*
X152500000Y-80900000D03*
X168400000Y-54300000D03*
X177150000Y-46250000D03*
X172000000Y-57000000D03*
X170450000Y-41350000D03*
X152500000Y-121800000D03*
X137500000Y-58000000D03*
X152500000Y-124500000D03*
X150975000Y-62325000D03*
X152500000Y-123000000D03*
X173500000Y-54000000D03*
X173500000Y-55500000D03*
X177200000Y-43900000D03*
X152400000Y-94900000D03*
X148200000Y-63300000D03*
X142400000Y-62000000D03*
X151600000Y-63600000D03*
X143300000Y-63000000D03*
X173500000Y-41350000D03*
X164100000Y-64800000D03*
X139000000Y-58000000D03*
X134500000Y-55000000D03*
X171900000Y-41350000D03*
X165400000Y-64800000D03*
X165500000Y-43900000D03*
X147200000Y-62300000D03*
%TO.N,+3V3*%
X166059302Y-59281387D03*
X156600000Y-51500000D03*
X173943255Y-52684273D03*
X163199990Y-47400010D03*
X170375000Y-47125000D03*
X156500000Y-65400000D03*
%TO.N,+5V*%
X155000000Y-59274990D03*
X151250000Y-58175021D03*
X157000000Y-42521008D03*
X145816727Y-46850000D03*
X156999984Y-43750000D03*
X156738014Y-45852771D03*
X141200000Y-54300000D03*
%TO.N,/Moisture_High_Gain*%
X169400000Y-48900000D03*
X168700000Y-55500000D03*
%TO.N,/NRST*%
X163100000Y-50900000D03*
%TO.N,Net-(J3-Pad1)*%
X148000000Y-102000000D03*
X148000000Y-106500000D03*
X148000000Y-109500000D03*
X148000000Y-99000000D03*
X146775000Y-59875000D03*
X148000000Y-97500000D03*
X148000000Y-105000000D03*
X148000000Y-108000000D03*
X148000000Y-103500000D03*
X149300000Y-64100000D03*
X148000000Y-100500000D03*
%TO.N,Net-(J4-Pad1)*%
X148000000Y-121500000D03*
X148000000Y-114000000D03*
X148000000Y-115500000D03*
X148000000Y-123000000D03*
X148000000Y-112500000D03*
X148000000Y-117000000D03*
X148000000Y-118500000D03*
X148000000Y-124500000D03*
X148000000Y-120000000D03*
%TO.N,Net-(J5-Pad1)*%
X143100000Y-58275002D03*
X158000000Y-88500000D03*
X158000000Y-91500000D03*
X156900000Y-59000000D03*
X158000000Y-85500000D03*
X158000000Y-84000000D03*
X161500000Y-63700000D03*
X158000000Y-82500000D03*
X158000000Y-90000000D03*
X158000000Y-87000000D03*
X158000000Y-94500000D03*
X156500000Y-81400000D03*
X158000000Y-93000000D03*
%TO.N,Net-(J6-Pad1)*%
X148000000Y-82500000D03*
X148000000Y-94500000D03*
X145725000Y-59850000D03*
X148000000Y-93000000D03*
X148000000Y-85500000D03*
X148000000Y-90000000D03*
X148000000Y-88500000D03*
X148000000Y-84000000D03*
X148000000Y-91500000D03*
X147892000Y-81300000D03*
X148000000Y-87000000D03*
%TO.N,Net-(J7-Pad1)*%
X158000000Y-118500000D03*
X158000000Y-114000000D03*
X158000000Y-115500000D03*
X158000000Y-120000000D03*
X158000000Y-121500000D03*
X142325010Y-57329173D03*
X156500000Y-58000034D03*
X158000000Y-112500000D03*
X158000000Y-117000000D03*
X158000000Y-123000000D03*
X158000000Y-124500000D03*
%TO.N,Net-(J8-Pad1)*%
X158000000Y-102000000D03*
X158000000Y-109500000D03*
X156500000Y-96400000D03*
X158000000Y-103500000D03*
X158000000Y-97500000D03*
X158000000Y-99000000D03*
X158000000Y-100500000D03*
X158000000Y-105000000D03*
X153875000Y-68500000D03*
X158000000Y-106500000D03*
X158000000Y-108000000D03*
%TO.N,Net-(J9-Pad1)*%
X158000000Y-73500000D03*
X142382416Y-54750010D03*
X158000000Y-70500000D03*
X158000000Y-72000000D03*
X158000000Y-69000000D03*
X158000000Y-79500000D03*
X158000000Y-67500000D03*
X158000000Y-76500000D03*
X158000000Y-78000000D03*
X156900000Y-60100000D03*
X158000000Y-75000000D03*
%TO.N,Net-(J10-Pad1)*%
X141800000Y-59500000D03*
X142229804Y-56069363D03*
X148000000Y-79500000D03*
X148000000Y-69000000D03*
X148000000Y-76500000D03*
X148000000Y-67500000D03*
X148000000Y-73500000D03*
X148000000Y-70500000D03*
X148000000Y-75000000D03*
X144800000Y-64100000D03*
X156500000Y-56950021D03*
X148000000Y-72000000D03*
X148000000Y-78000000D03*
%TO.N,/INH*%
X151500000Y-52250000D03*
X159750000Y-46050000D03*
%TO.N,/C_High*%
X146800000Y-52250000D03*
X166000000Y-48317068D03*
%TO.N,/C_Low*%
X159727624Y-48022376D03*
X154550000Y-52950000D03*
%TO.N,/B_High*%
X166200000Y-49500000D03*
X145695001Y-53195001D03*
%TO.N,/B_Low*%
X160200000Y-50600000D03*
X155690423Y-54219320D03*
%TO.N,/A_High*%
X160250000Y-47000000D03*
X148100000Y-53900000D03*
%TO.N,/A_Low*%
X155034977Y-58175021D03*
X160200000Y-52200000D03*
X151484984Y-54465000D03*
%TO.N,/Temp_4*%
X162700000Y-54274998D03*
X152600000Y-106000000D03*
%TO.N,/Temp_3*%
X163800000Y-54450000D03*
X152400000Y-91200000D03*
%TO.N,/Temp_2*%
X164850003Y-54450000D03*
X153599959Y-75694780D03*
%TO.N,/Temp_1*%
X165900006Y-54450000D03*
X153800000Y-119800000D03*
%TO.N,/MCU_In*%
X165500000Y-46000000D03*
X150038697Y-50761309D03*
%TO.N,/MCU_Out*%
X164250000Y-46000000D03*
X148711361Y-50749568D03*
%TD*%
D34*
%TO.N,Net-(C1-Pad2)*%
X149750000Y-42750000D02*
X149750000Y-44250000D01*
%TO.N,Net-(C1-Pad1)*%
X151015000Y-44170000D02*
X151015000Y-42265000D01*
X151015000Y-42265000D02*
X150500000Y-41750000D01*
X150500000Y-41750000D02*
X149823692Y-41750000D01*
%TO.N,GND*%
X159250000Y-43250000D02*
X158550000Y-43250000D01*
X158550000Y-43250000D02*
X158200000Y-42900000D01*
X149870000Y-51925000D02*
X148325000Y-51925000D01*
D35*
X166750000Y-58250000D02*
X166750000Y-57149990D01*
X166750000Y-57149990D02*
X166899990Y-57000000D01*
X159120000Y-53195000D02*
X159115590Y-53190590D01*
D34*
X160750000Y-59240000D02*
X160030002Y-59240000D01*
X160030002Y-59240000D02*
X160020002Y-59250000D01*
X154040000Y-41790000D02*
X154500000Y-42250000D01*
X153500000Y-41790000D02*
X154040000Y-41790000D01*
D36*
X166750000Y-42000000D02*
X166000000Y-41250000D01*
X168500000Y-42000000D02*
X169000000Y-41500000D01*
X167350000Y-42000000D02*
X168500000Y-42000000D01*
X167350000Y-42000000D02*
X166750000Y-42000000D01*
D35*
X161690000Y-49830000D02*
X160615000Y-49830000D01*
X159074998Y-49774998D02*
X159000000Y-49700000D01*
X160559998Y-49774998D02*
X159074998Y-49774998D01*
D37*
X159000000Y-49000000D02*
X159000000Y-49569990D01*
X159000000Y-49569990D02*
X159230000Y-49799990D01*
D35*
X160615000Y-49830000D02*
X160559998Y-49774998D01*
X159750000Y-43250000D02*
X160000000Y-43500000D01*
X159250000Y-43250000D02*
X159750000Y-43250000D01*
X160000000Y-43500000D02*
X161000000Y-43500000D01*
D34*
X172000000Y-45400000D02*
X171800000Y-45600000D01*
X171800000Y-45600000D02*
X171200000Y-45600000D01*
X172000000Y-44750000D02*
X172000000Y-45400000D01*
X172811500Y-47611500D02*
X171500000Y-46300000D01*
X171500000Y-46300000D02*
X171200000Y-46300000D01*
X171200000Y-45600000D02*
X171200000Y-46300000D01*
X170960000Y-45250000D02*
X170960000Y-45360000D01*
X170960000Y-45360000D02*
X171200000Y-45600000D01*
X172945000Y-47611500D02*
X172811500Y-47611500D01*
X163270000Y-49830000D02*
X163300000Y-49800000D01*
X161690000Y-49830000D02*
X163270000Y-49830000D01*
X162990000Y-59240000D02*
X162980000Y-59250000D01*
X161500000Y-59240000D02*
X162990000Y-59240000D01*
X174099760Y-50599760D02*
X174250000Y-50750000D01*
X172000000Y-43684500D02*
X172000000Y-44750000D01*
X148000000Y-41750000D02*
X147500000Y-42250000D01*
X148500000Y-41750000D02*
X148386308Y-41750000D01*
X148386308Y-41750000D02*
X148000000Y-41750000D01*
D35*
X149870000Y-53195000D02*
X149870000Y-51925000D01*
X153555000Y-48312000D02*
X153309000Y-48066000D01*
X153555000Y-49570000D02*
X153555000Y-48312000D01*
D34*
X152960000Y-103750000D02*
X152960000Y-102960000D01*
X152300000Y-86900000D02*
X152600000Y-86600000D01*
X151339990Y-72160010D02*
X151339990Y-69160010D01*
X152350000Y-118350000D02*
X152350000Y-116450000D01*
X170850000Y-50600000D02*
X172750000Y-50600000D01*
X152310000Y-103750000D02*
X152310000Y-101850000D01*
X152305260Y-72096960D02*
X151403040Y-72096960D01*
X177000000Y-43900000D02*
X177200000Y-43900000D01*
X151403040Y-72096960D02*
X151339990Y-72160010D01*
X153000000Y-117600000D02*
X152800000Y-117400000D01*
X156700000Y-52600000D02*
X156211835Y-52600000D01*
X151339990Y-62689990D02*
X150975000Y-62325000D01*
X174250000Y-45250000D02*
X174325000Y-43975000D01*
X157900000Y-51550000D02*
X157900000Y-51900000D01*
X164025000Y-59000000D02*
X164025000Y-56725000D01*
X176750000Y-43650000D02*
X177000000Y-43900000D01*
X156560000Y-50210000D02*
X157675000Y-51325000D01*
X170850000Y-51250000D02*
X170850000Y-50600000D01*
X157475000Y-51925000D02*
X156800000Y-52600000D01*
X152950000Y-88550000D02*
X152800000Y-88400000D01*
X156211835Y-52600000D02*
X153555000Y-49943165D01*
X156800000Y-52600000D02*
X156700000Y-52600000D01*
X153000000Y-118350000D02*
X153000000Y-117600000D01*
X163775000Y-59250000D02*
X164025000Y-59000000D01*
X151339990Y-72460010D02*
X151339990Y-72160010D01*
X151339990Y-101639990D02*
X151339990Y-75139990D01*
X152800000Y-117400000D02*
X152000000Y-117400000D01*
X153555000Y-49943165D02*
X153555000Y-49570000D01*
X151339990Y-69160010D02*
X151339990Y-68660010D01*
D35*
X152520000Y-120900000D02*
X152520000Y-120420000D01*
D34*
X158620000Y-51925000D02*
X157475000Y-51925000D01*
X156250000Y-50210000D02*
X156560000Y-50210000D01*
X151339990Y-63860010D02*
X151600000Y-63600000D01*
D35*
X152520000Y-120900000D02*
X152520000Y-121780000D01*
D34*
X152350000Y-74510000D02*
X152350000Y-72610000D01*
X157675000Y-51325000D02*
X157675000Y-51875000D01*
X152950000Y-89310000D02*
X152950000Y-88550000D01*
X152960000Y-102960000D02*
X152800000Y-102800000D01*
X151339990Y-64060010D02*
X151339990Y-62689990D01*
X152600000Y-86600000D02*
X152600000Y-86200000D01*
D35*
X152520000Y-121780000D02*
X152500000Y-121800000D01*
D34*
X151849760Y-119363040D02*
X151339990Y-118853270D01*
X151339990Y-68660010D02*
X151339990Y-64060010D01*
X152300000Y-87410000D02*
X152300000Y-86900000D01*
D35*
X152349760Y-119363040D02*
X152349760Y-120249760D01*
D34*
X152300000Y-89310000D02*
X152300000Y-87410000D01*
X157675000Y-51325000D02*
X157900000Y-51550000D01*
X162900000Y-59250000D02*
X163775000Y-59250000D01*
X151456940Y-75023040D02*
X151339990Y-75139990D01*
X174137004Y-50750000D02*
X174250000Y-50750000D01*
X151339990Y-75139990D02*
X151339990Y-72460010D01*
X151339990Y-118853270D02*
X151339990Y-101639990D01*
X157675000Y-51875000D02*
X157700000Y-51900000D01*
X174650000Y-43650000D02*
X176750000Y-43650000D01*
X152800000Y-102800000D02*
X152000000Y-102800000D01*
X152800000Y-88400000D02*
X152000000Y-88400000D01*
X152349760Y-119363040D02*
X151849760Y-119363040D01*
X151339990Y-64060010D02*
X151339990Y-63860010D01*
D35*
X152349760Y-120249760D02*
X152520000Y-120420000D01*
D34*
X174325000Y-43975000D02*
X174650000Y-43650000D01*
%TO.N,Net-(C2-Pad1)*%
X153500000Y-42750000D02*
X153500000Y-44250000D01*
%TO.N,Net-(C3-Pad1)*%
X148475000Y-44170000D02*
X148475000Y-42775000D01*
D35*
%TO.N,+3V3*%
X168750000Y-45000000D02*
X167250000Y-45000000D01*
X169000000Y-45250000D02*
X168750000Y-45000000D01*
X169000000Y-45750000D02*
X169000000Y-45250000D01*
X170375000Y-47125000D02*
X169000000Y-45750000D01*
D34*
X170527500Y-47277500D02*
X170375000Y-47125000D01*
D35*
X171250000Y-47277500D02*
X170527500Y-47277500D01*
D34*
X165100000Y-58925000D02*
X165456387Y-59281387D01*
X165456387Y-59281387D02*
X166059302Y-59281387D01*
X165100000Y-58300000D02*
X165100000Y-58925000D01*
D35*
X165100000Y-57100000D02*
X165000000Y-57000000D01*
X165100000Y-58300000D02*
X165100000Y-57100000D01*
X160104987Y-49174987D02*
X160000000Y-49070000D01*
X161690000Y-49180000D02*
X160849547Y-49180000D01*
X160849547Y-49180000D02*
X160844534Y-49174987D01*
X160844534Y-49174987D02*
X160104987Y-49174987D01*
D36*
X167350000Y-45000000D02*
X163750000Y-45000000D01*
D35*
X161690000Y-49180000D02*
X162685665Y-49180000D01*
X163199990Y-48665675D02*
X163199990Y-47400010D01*
D36*
X163750000Y-45000000D02*
X163199990Y-45550010D01*
D35*
X162685665Y-49180000D02*
X163199990Y-48665675D01*
D36*
X163199990Y-45550010D02*
X163199990Y-47400010D01*
D34*
X154850000Y-49250000D02*
X154800000Y-49300000D01*
X156250000Y-49250000D02*
X154850000Y-49250000D01*
X173943255Y-52449759D02*
X173872141Y-52449759D01*
D35*
X154700000Y-76500000D02*
X154700000Y-71900000D01*
D34*
X156600000Y-51500000D02*
X156400000Y-51500000D01*
X153600000Y-87410000D02*
X153600000Y-86600000D01*
D35*
X154700000Y-91400000D02*
X154700000Y-101900000D01*
D34*
X153610000Y-101850000D02*
X153610000Y-100970000D01*
D35*
X154700000Y-66634315D02*
X155934315Y-65400000D01*
D34*
X154600000Y-114600000D02*
X154700000Y-114500000D01*
X154650000Y-101850000D02*
X154700000Y-101900000D01*
D35*
X154700000Y-101900000D02*
X154700000Y-114500000D01*
D34*
X154600000Y-86600000D02*
X154700000Y-86500000D01*
X173943255Y-52684273D02*
X173943255Y-52449759D01*
X153610000Y-100970000D02*
X153440000Y-100800000D01*
X173943255Y-52016745D02*
X174060000Y-51900000D01*
X174060000Y-51900000D02*
X174250000Y-51710000D01*
X153650000Y-71950000D02*
X153650000Y-71370000D01*
X153600000Y-85970000D02*
X153430000Y-85800000D01*
X153600000Y-86600000D02*
X153600000Y-85970000D01*
X153600000Y-86600000D02*
X154600000Y-86600000D01*
D35*
X154700000Y-71900000D02*
X154700000Y-66634315D01*
D34*
X153650000Y-71950000D02*
X154650000Y-71950000D01*
D35*
X154700000Y-114500000D02*
X154700000Y-115400000D01*
D34*
X153610000Y-101850000D02*
X154650000Y-101850000D01*
D35*
X155934315Y-65400000D02*
X156500000Y-65400000D01*
D34*
X173943255Y-52684273D02*
X173943255Y-52016745D01*
X154900000Y-50000000D02*
X154900000Y-49600000D01*
X153480000Y-114600000D02*
X154600000Y-114600000D01*
D35*
X154700000Y-86500000D02*
X154700000Y-76500000D01*
D34*
X153650000Y-72610000D02*
X153650000Y-71950000D01*
D35*
X154700000Y-115400000D02*
X153650000Y-116450000D01*
D34*
X154650000Y-71950000D02*
X154700000Y-71900000D01*
D35*
X154700000Y-91400000D02*
X154700000Y-86500000D01*
D34*
X172750000Y-51900000D02*
X174060000Y-51900000D01*
X156400000Y-51500000D02*
X154900000Y-50000000D01*
X153650000Y-71370000D02*
X153480000Y-71200000D01*
%TO.N,Net-(C6-Pad1)*%
X152860010Y-41109990D02*
X154543992Y-41109990D01*
X154543992Y-41109990D02*
X155300001Y-41865999D01*
X154884001Y-43050001D02*
X154884001Y-44115999D01*
X154884001Y-44115999D02*
X154750000Y-44250000D01*
X152250000Y-41720000D02*
X152860010Y-41109990D01*
X155300001Y-42634001D02*
X154884001Y-43050001D01*
X155300001Y-41865999D02*
X155300001Y-42634001D01*
X152250000Y-41790000D02*
X152250000Y-41720000D01*
%TO.N,Net-(C6-Pad2)*%
X152285000Y-44170000D02*
X152285000Y-42785000D01*
%TO.N,+5V*%
X155000000Y-60300000D02*
X155000000Y-59274990D01*
X153250000Y-60750000D02*
X154550000Y-60750000D01*
X154550000Y-60750000D02*
X155000000Y-60300000D01*
D38*
X157000000Y-43749984D02*
X156999984Y-43750000D01*
X157000000Y-42521008D02*
X157000000Y-43749984D01*
D34*
X149870000Y-58275000D02*
X151150021Y-58275000D01*
X151150021Y-58275000D02*
X151250000Y-58175021D01*
D35*
X145900000Y-47000000D02*
X145700000Y-46800000D01*
X155480000Y-47000000D02*
X145900000Y-47000000D01*
X145700000Y-46800000D02*
X145766727Y-46800000D01*
X145766727Y-46800000D02*
X145816727Y-46850000D01*
X145816727Y-46850000D02*
X154450000Y-46850000D01*
X154450000Y-46850000D02*
X154600000Y-47000000D01*
X170000000Y-45250000D02*
X170000000Y-43500000D01*
D34*
X157980000Y-46000000D02*
X157980000Y-47980000D01*
X157980000Y-47980000D02*
X158000000Y-48000000D01*
D35*
X153220000Y-60815000D02*
X152770000Y-60815000D01*
X147600000Y-60325000D02*
X147600000Y-59100000D01*
X147110000Y-60815000D02*
X147600000Y-60325000D01*
X141700000Y-53800000D02*
X141200000Y-54300000D01*
X140800001Y-54699999D02*
X141200000Y-54300000D01*
D34*
X141700000Y-53100000D02*
X141700000Y-52100000D01*
D35*
X141900000Y-60800000D02*
X140800001Y-59700001D01*
X141700000Y-53100000D02*
X141700000Y-53800000D01*
X148425000Y-58275000D02*
X149870000Y-58275000D01*
D34*
X156885243Y-46000000D02*
X156738014Y-45852771D01*
D38*
X165000000Y-41750000D02*
X157771008Y-41750000D01*
X175895000Y-42394000D02*
X175689000Y-42600000D01*
D35*
X140800001Y-59700001D02*
X140800001Y-54699999D01*
D34*
X155480000Y-46943380D02*
X156570609Y-45852771D01*
X156570609Y-45852771D02*
X156738014Y-45852771D01*
D35*
X147600000Y-59100000D02*
X148425000Y-58275000D01*
D38*
X175689000Y-42600000D02*
X169900000Y-42600000D01*
X169000000Y-43500000D02*
X166750000Y-43500000D01*
D35*
X144470000Y-60815000D02*
X147110000Y-60815000D01*
D34*
X155480000Y-48000000D02*
X155480000Y-46943380D01*
D38*
X166750000Y-43500000D02*
X165000000Y-41750000D01*
X157771008Y-41750000D02*
X157000000Y-42521008D01*
D34*
X157980000Y-46000000D02*
X156885243Y-46000000D01*
D35*
X144600000Y-60800000D02*
X141900000Y-60800000D01*
D38*
X169900000Y-42600000D02*
X169000000Y-43500000D01*
D35*
%TO.N,Net-(D1-Pad2)*%
X172945000Y-46036500D02*
X172945000Y-45305000D01*
X173500000Y-44750000D02*
X173500000Y-43750000D01*
X172945000Y-45305000D02*
X173500000Y-44750000D01*
%TO.N,/Moisture_High_Gain*%
X169475000Y-48725000D02*
X170000000Y-49250000D01*
D34*
X169475000Y-48725000D02*
X169475000Y-48825000D01*
X169475000Y-48825000D02*
X169400000Y-48900000D01*
D35*
X169280000Y-48530000D02*
X169475000Y-48725000D01*
X175895000Y-47474000D02*
X176121000Y-47700000D01*
X175260000Y-47474000D02*
X175895000Y-47474000D01*
X167590000Y-48530000D02*
X169280000Y-48530000D01*
X174119000Y-49250000D02*
X175895000Y-47474000D01*
X170000000Y-49250000D02*
X174119000Y-49250000D01*
D34*
X168700000Y-55600000D02*
X168700000Y-55500000D01*
X169800000Y-56700000D02*
X168700000Y-55600000D01*
D35*
%TO.N,/SWCLK*%
X173980000Y-48500000D02*
X174371000Y-48109000D01*
X167590000Y-47880000D02*
X169630000Y-47880000D01*
X174371000Y-46458000D02*
X175045001Y-45783999D01*
X170250000Y-48500000D02*
X173980000Y-48500000D01*
X174371000Y-48109000D02*
X174371000Y-46458000D01*
X175045001Y-45783999D02*
X175895000Y-44934000D01*
X169630000Y-47880000D02*
X170250000Y-48500000D01*
D34*
%TO.N,/NRST*%
X161690000Y-50480000D02*
X162680000Y-50480000D01*
X162680000Y-50480000D02*
X163100000Y-50900000D01*
%TO.N,Net-(J3-Pad1)*%
X153220000Y-57005000D02*
X152170000Y-57005000D01*
X153420000Y-57005000D02*
X149870000Y-57005000D01*
D35*
X147895000Y-57005000D02*
X146775000Y-58125000D01*
D34*
X150200001Y-65000001D02*
X149300000Y-64100000D01*
X150200000Y-94149990D02*
X150200001Y-75700000D01*
X150200001Y-75700000D02*
X150200001Y-70399999D01*
D35*
X149870000Y-57005000D02*
X147895000Y-57005000D01*
D34*
X148500000Y-98600000D02*
X149500000Y-97600000D01*
X149500000Y-97600000D02*
X149500000Y-95900000D01*
X149500000Y-95900000D02*
X150200000Y-95200000D01*
X150200001Y-70399999D02*
X150200001Y-70200000D01*
X148500000Y-103500000D02*
X148500000Y-98600000D01*
X150200000Y-95200000D02*
X150200000Y-94149990D01*
X150200001Y-70399999D02*
X150200001Y-65000001D01*
D35*
X146775000Y-58125000D02*
X146775000Y-59875000D01*
%TO.N,Net-(J4-Pad1)*%
X149870000Y-59545000D02*
X148955000Y-59545000D01*
D34*
X153220000Y-58275000D02*
X152325000Y-58275000D01*
X152325000Y-58275000D02*
X151100000Y-59500000D01*
X151100000Y-59500000D02*
X149750000Y-59500000D01*
X150750011Y-64050011D02*
X150750011Y-117086989D01*
X150750011Y-117086989D02*
X150017000Y-117820000D01*
X148500010Y-61800010D02*
X150750011Y-64050011D01*
X148755000Y-59545000D02*
X148555000Y-59545000D01*
X148555000Y-59545000D02*
X148175010Y-59924990D01*
X148175010Y-59924990D02*
X148175010Y-61475010D01*
X148175010Y-61475010D02*
X148500010Y-61800010D01*
X150017000Y-117820000D02*
X148717000Y-117820000D01*
D35*
%TO.N,Net-(J5-Pad1)*%
X144470000Y-58275000D02*
X143100002Y-58275000D01*
X143100002Y-58275000D02*
X143100000Y-58275002D01*
X159624990Y-60124990D02*
X159624990Y-62874990D01*
D34*
X157510000Y-88500000D02*
X156500000Y-87490000D01*
D35*
X160450000Y-63700000D02*
X161500000Y-63700000D01*
X157645000Y-59545000D02*
X159045000Y-59545000D01*
X159624990Y-62874990D02*
X160450000Y-63700000D01*
D34*
X156500000Y-87490000D02*
X156500000Y-81400000D01*
D35*
X157100000Y-59000000D02*
X157645000Y-59545000D01*
X156900000Y-59000000D02*
X157100000Y-59000000D01*
X159045000Y-59545000D02*
X159624990Y-60124990D01*
D34*
%TO.N,Net-(J6-Pad1)*%
X149670000Y-55735000D02*
X153220000Y-55735000D01*
X149870000Y-55735000D02*
X150920000Y-55735000D01*
D35*
X147900000Y-81308000D02*
X147900000Y-81873685D01*
X147365000Y-55735000D02*
X145725000Y-57375000D01*
X145725000Y-57375000D02*
X145725000Y-59850000D01*
X147900000Y-81873685D02*
X147900000Y-82800000D01*
X149870000Y-55735000D02*
X147365000Y-55735000D01*
X147892000Y-81300000D02*
X147900000Y-81308000D01*
%TO.N,Net-(J7-Pad1)*%
X157695000Y-57005000D02*
X156699966Y-58000034D01*
D34*
X155829000Y-117729000D02*
X155275010Y-117175010D01*
X157346000Y-64946000D02*
X155974998Y-63574998D01*
X157346000Y-65846000D02*
X157346000Y-64946000D01*
D35*
X142649183Y-57005000D02*
X142325010Y-57329173D01*
D34*
X155275010Y-67024990D02*
X155900000Y-66400000D01*
D35*
X158620000Y-57005000D02*
X157695000Y-57005000D01*
X156699966Y-58000034D02*
X156500000Y-58000034D01*
D34*
X155275010Y-117175010D02*
X155275010Y-67024990D01*
X155974998Y-63574998D02*
X155974998Y-60525002D01*
X155900000Y-66400000D02*
X156792001Y-66400000D01*
D35*
X155974998Y-60525002D02*
X155974998Y-58525036D01*
D34*
X157226000Y-117729000D02*
X155829000Y-117729000D01*
D35*
X144470000Y-57005000D02*
X142649183Y-57005000D01*
D34*
X156792001Y-66400000D02*
X157346000Y-65846000D01*
D35*
X155974998Y-58525036D02*
X156500000Y-58000034D01*
D34*
%TO.N,Net-(J8-Pad1)*%
X150920000Y-60815000D02*
X149870000Y-60815000D01*
X150405000Y-60815000D02*
X149670000Y-60815000D01*
X152255000Y-59545000D02*
X151500000Y-60300000D01*
X152700000Y-62325000D02*
X152375000Y-62000000D01*
X152700000Y-67325000D02*
X152700000Y-62325000D01*
X151515000Y-60815000D02*
X151515000Y-60315000D01*
X150985000Y-60815000D02*
X150920000Y-60815000D01*
X151515000Y-60315000D02*
X151500000Y-60300000D01*
X153220000Y-59545000D02*
X152255000Y-59545000D01*
X153875000Y-68500000D02*
X152700000Y-67325000D01*
X156500000Y-102901000D02*
X156500000Y-96400000D01*
X157099000Y-103500000D02*
X156500000Y-102901000D01*
X151515000Y-61140000D02*
X151515000Y-60815000D01*
X151515000Y-60815000D02*
X150920000Y-60815000D01*
X152375000Y-62000000D02*
X151515000Y-61140000D01*
D35*
%TO.N,Net-(J9-Pad1)*%
X158000000Y-72000000D02*
X158000000Y-72900000D01*
X158000000Y-70500000D02*
X158000000Y-72000000D01*
X158000000Y-69000000D02*
X158000000Y-70500000D01*
X158000000Y-67500000D02*
X158000000Y-69000000D01*
X158000000Y-72900000D02*
X157400000Y-73500000D01*
X143550000Y-55750000D02*
X142550010Y-54750010D01*
X158620000Y-60815000D02*
X157615000Y-60815000D01*
X158800000Y-65252595D02*
X158000000Y-66052595D01*
X144500000Y-55750000D02*
X143550000Y-55750000D01*
X157615000Y-60815000D02*
X156900000Y-60100000D01*
X142550010Y-54750010D02*
X142382416Y-54750010D01*
X158000000Y-66052595D02*
X158000000Y-67500000D01*
X158800000Y-60800000D02*
X158800000Y-65252595D01*
%TO.N,Net-(J10-Pad1)*%
X141800000Y-59500000D02*
X144500000Y-59500000D01*
X148000000Y-67500000D02*
X148000000Y-65800000D01*
X148000000Y-69000000D02*
X148000000Y-67500000D01*
X148000000Y-70500000D02*
X148000000Y-69000000D01*
X148000000Y-72000000D02*
X148000000Y-70500000D01*
D34*
X145400000Y-64700000D02*
X146700000Y-64700000D01*
D35*
X158620000Y-55735000D02*
X157715021Y-55735000D01*
X141800000Y-59500000D02*
X141500000Y-59200000D01*
D34*
X144800000Y-64100000D02*
X145400000Y-64700000D01*
D35*
X141500000Y-59200000D02*
X141500000Y-56799167D01*
X148000000Y-65800000D02*
X146900000Y-64700000D01*
X149010000Y-73500000D02*
X148000000Y-72490000D01*
X141500000Y-56799167D02*
X142229804Y-56069363D01*
X146900000Y-64700000D02*
X146700000Y-64700000D01*
X148000000Y-72490000D02*
X148000000Y-72000000D01*
X157715021Y-55735000D02*
X156500000Y-56950021D01*
D34*
%TO.N,/Moisture_Sense*%
X162975000Y-58275000D02*
X163000000Y-58250000D01*
X162900000Y-58300000D02*
X162750000Y-58150000D01*
X158870000Y-58275000D02*
X158995000Y-58150000D01*
X161800000Y-56800000D02*
X162575000Y-57575000D01*
X162575000Y-57575000D02*
X162575000Y-58300000D01*
X158995000Y-58150000D02*
X162350000Y-58150000D01*
X162575000Y-58300000D02*
X162600000Y-58300000D01*
X162350000Y-58150000D02*
X162475000Y-58275000D01*
%TO.N,/Moisture_ADC*%
X167570000Y-53100000D02*
X167300000Y-53100000D01*
X167300000Y-53100000D02*
X167200000Y-53200000D01*
X167590000Y-53080000D02*
X167570000Y-53100000D01*
X165000000Y-62250000D02*
X165250000Y-62000000D01*
X165250000Y-62000000D02*
X165250000Y-61500000D01*
X167700000Y-58784002D02*
X167700000Y-56384006D01*
X164912500Y-60337500D02*
X165000000Y-60250000D01*
X164912500Y-61750000D02*
X164912500Y-60337500D01*
X167100000Y-53700000D02*
X167700000Y-53100000D01*
X167100000Y-55784006D02*
X167100000Y-53700000D01*
X165100000Y-60200000D02*
X166284002Y-60200000D01*
X166284002Y-60200000D02*
X167700000Y-58784002D01*
X167700000Y-56384006D02*
X167100000Y-55784006D01*
%TO.N,Net-(R2-Pad1)*%
X163000000Y-61500000D02*
X163000000Y-62035000D01*
X161000000Y-61000000D02*
X161175000Y-61000000D01*
X163625000Y-63250000D02*
X165475000Y-63250000D01*
X165475000Y-63250000D02*
X166475000Y-62250000D01*
X166475000Y-62250000D02*
X166475000Y-61525000D01*
X162900000Y-60200000D02*
X162900000Y-61650000D01*
X163087500Y-62712500D02*
X163625000Y-63250000D01*
X161175000Y-61000000D02*
X161925000Y-60250000D01*
X163087500Y-61750000D02*
X163087500Y-62712500D01*
X161925000Y-60250000D02*
X163000000Y-60250000D01*
X162900000Y-61650000D02*
X163000000Y-61750000D01*
%TO.N,/INH*%
X159750000Y-46000000D02*
X159000000Y-46000000D01*
X159750000Y-46000000D02*
X159750000Y-46050000D01*
D35*
X161000000Y-46000000D02*
X161729999Y-46729999D01*
X161729999Y-46729999D02*
X161729999Y-47229999D01*
X159750000Y-46000000D02*
X161000000Y-46000000D01*
D34*
X158620000Y-54465000D02*
X157299002Y-54465000D01*
X151500000Y-51684315D02*
X151500000Y-52250000D01*
X157299002Y-54465000D02*
X154034002Y-51200000D01*
D35*
X151500000Y-52250000D02*
X151500000Y-53075000D01*
D34*
X151984315Y-51200000D02*
X151500000Y-51684315D01*
D35*
X150075000Y-54500000D02*
X149750000Y-54500000D01*
X151500000Y-53075000D02*
X150075000Y-54500000D01*
D34*
X154034002Y-51200000D02*
X151984315Y-51200000D01*
%TO.N,/C_High*%
X144470000Y-51925000D02*
X146675000Y-51925000D01*
X146675000Y-51925000D02*
X147000000Y-52250000D01*
X142875000Y-51925000D02*
X142700000Y-52100000D01*
X144470000Y-51925000D02*
X142875000Y-51925000D01*
X166565000Y-47230000D02*
X166000000Y-47795000D01*
X166000000Y-47795000D02*
X166000000Y-48317068D01*
X167590000Y-47230000D02*
X166565000Y-47230000D01*
%TO.N,/C_Low*%
X159750000Y-48000000D02*
X160033692Y-48000000D01*
X159010000Y-48000000D02*
X159750000Y-48000000D01*
X159750000Y-48000000D02*
X159727624Y-48022376D01*
X160563692Y-48530000D02*
X160033692Y-48000000D01*
X161690000Y-48530000D02*
X160563692Y-48530000D01*
D35*
X153370000Y-51925000D02*
X154260693Y-52815693D01*
D34*
%TO.N,/B_High*%
X166520000Y-49180000D02*
X166200000Y-49500000D01*
X167590000Y-49180000D02*
X166520000Y-49180000D01*
X144470000Y-53195000D02*
X142795000Y-53195000D01*
X145520001Y-53195001D02*
X145895001Y-53195001D01*
X144470000Y-53195000D02*
X145520001Y-53195001D01*
%TO.N,/B_Low*%
X157634689Y-48720010D02*
X158200001Y-49285322D01*
X158815998Y-50600000D02*
X160200000Y-50600000D01*
X156500000Y-47000000D02*
X157100000Y-47000000D01*
X158200001Y-49984003D02*
X158815998Y-50600000D01*
X157319990Y-47219990D02*
X157319990Y-48406610D01*
X158200001Y-49285322D02*
X158200001Y-49984003D01*
X157633390Y-48720010D02*
X157634689Y-48720010D01*
X157319990Y-48406610D02*
X157633390Y-48720010D01*
X157100000Y-47000000D02*
X157319990Y-47219990D01*
D35*
X160730000Y-51130000D02*
X160200000Y-50600000D01*
X161690000Y-51130000D02*
X160730000Y-51130000D01*
X154519320Y-54219320D02*
X155690423Y-54219320D01*
X153495000Y-53195000D02*
X154519320Y-54219320D01*
X153220000Y-53195000D02*
X153495000Y-53195000D01*
D34*
%TO.N,/A_High*%
X159836620Y-47000000D02*
X159000000Y-47000000D01*
X159836620Y-47000000D02*
X160250000Y-47000000D01*
X161690000Y-47880000D02*
X160716620Y-47880000D01*
X160250000Y-47000000D02*
X160250000Y-47413380D01*
X160268310Y-47431690D02*
X159836620Y-47000000D01*
X147735000Y-54465000D02*
X148300000Y-53900000D01*
X160716620Y-47880000D02*
X160268310Y-47431690D01*
X160250000Y-47413380D02*
X160268310Y-47431690D01*
X144470000Y-54465000D02*
X147735000Y-54465000D01*
D35*
%TO.N,/A_Low*%
X152770000Y-54465000D02*
X153220000Y-54465000D01*
X161690000Y-51780000D02*
X160620000Y-51780000D01*
X160620000Y-51780000D02*
X160200000Y-52200000D01*
D37*
X152920000Y-54465000D02*
X151484984Y-54465000D01*
D34*
X158400000Y-51200000D02*
X159665002Y-51200000D01*
X160432501Y-51967499D02*
X160200000Y-52200000D01*
X156500000Y-48000000D02*
X156500000Y-48364453D01*
X159665002Y-51200000D02*
X160432501Y-51967499D01*
X156500000Y-48364453D02*
X157649990Y-49514443D01*
X157649990Y-50449990D02*
X158400000Y-51200000D01*
X157649990Y-49514443D02*
X157649990Y-50449990D01*
D35*
X155034977Y-55634977D02*
X155034977Y-58175021D01*
X153220000Y-54465000D02*
X153865000Y-54465000D01*
X153865000Y-54465000D02*
X155034977Y-55634977D01*
D34*
%TO.N,/Temp_4*%
X166242168Y-50480000D02*
X162700000Y-54022168D01*
X162700000Y-54022168D02*
X162700000Y-54600000D01*
X167590000Y-50480000D02*
X166242168Y-50480000D01*
X162700000Y-54050000D02*
X162700000Y-54274998D01*
X153610000Y-105590000D02*
X153610000Y-103750000D01*
X152600000Y-106000000D02*
X153200000Y-106000000D01*
X153200000Y-106000000D02*
X153610000Y-105590000D01*
%TO.N,/Temp_3*%
X153000000Y-91200000D02*
X153600000Y-90600000D01*
X163800000Y-54450000D02*
X163800000Y-53700000D01*
X153600000Y-90600000D02*
X153600000Y-89310000D01*
X152400000Y-91200000D02*
X153000000Y-91200000D01*
X163800000Y-53700000D02*
X166370000Y-51130000D01*
X166370000Y-51130000D02*
X167590000Y-51130000D01*
%TO.N,/Temp_2*%
X166497830Y-51780000D02*
X164850000Y-53427830D01*
X153650000Y-74510000D02*
X153650000Y-75644739D01*
X164850000Y-54449997D02*
X164850003Y-54450000D01*
X164850000Y-53427830D02*
X164850000Y-54449997D01*
X153650000Y-75644739D02*
X153599959Y-75694780D01*
X167590000Y-51780000D02*
X166497830Y-51780000D01*
%TO.N,/Temp_1*%
X167590000Y-52430000D02*
X166670000Y-52430000D01*
X166670000Y-52430000D02*
X165900006Y-53199994D01*
X165900006Y-53199994D02*
X165900006Y-54450000D01*
X153650000Y-118350000D02*
X153650000Y-119650000D01*
X153650000Y-119650000D02*
X153800000Y-119800000D01*
%TO.N,/Temp_Cont*%
X170850000Y-51900000D02*
X170100000Y-51900000D01*
X169686960Y-49936960D02*
X169580000Y-49830000D01*
X170100000Y-51900000D02*
X169686960Y-51486960D01*
X169686960Y-51486960D02*
X169686960Y-49936960D01*
X169580000Y-49830000D02*
X167590000Y-49830000D01*
D37*
%TO.N,VD*%
X159250000Y-45000000D02*
X160750000Y-45000000D01*
D35*
X159250000Y-44210000D02*
X159250000Y-45000000D01*
D38*
X144750000Y-45125000D02*
X145425000Y-45800000D01*
X156195995Y-44800001D02*
X160800001Y-44800001D01*
X145425000Y-45800000D02*
X155195996Y-45800000D01*
X160800001Y-44800001D02*
X161000000Y-45000000D01*
X155195996Y-45800000D02*
X156195995Y-44800001D01*
X144750000Y-43904000D02*
X144750000Y-45125000D01*
X143002000Y-42156000D02*
X144750000Y-43904000D01*
D35*
%TO.N,/RPi_In*%
X151515000Y-47700000D02*
X152285000Y-48470000D01*
X143002000Y-44696000D02*
X143002000Y-45202000D01*
X152285000Y-48470000D02*
X152285000Y-49570000D01*
X143002000Y-45202000D02*
X145500000Y-47700000D01*
X145500000Y-47700000D02*
X151515000Y-47700000D01*
%TO.N,/RPi_Out*%
X150876000Y-48300000D02*
X144050000Y-48300000D01*
X151015000Y-49570000D02*
X151015000Y-48439000D01*
X151015000Y-48439000D02*
X150876000Y-48300000D01*
X144050000Y-48300000D02*
X143000000Y-47250000D01*
D34*
%TO.N,Net-(Q1-Pad3)*%
X167700000Y-61200000D02*
X167700000Y-60200000D01*
X167400000Y-61500000D02*
X167700000Y-61200000D01*
%TO.N,/MCU_In*%
X162842830Y-53080000D02*
X164800000Y-51122830D01*
X161690000Y-53080000D02*
X162842830Y-53080000D01*
X164800000Y-51122830D02*
X164800000Y-46700000D01*
X164800000Y-46700000D02*
X165500000Y-46000000D01*
X149745000Y-49570000D02*
X149745000Y-50467612D01*
X149745000Y-50467612D02*
X150038697Y-50761309D01*
%TO.N,/MCU_Out*%
X161690000Y-52430000D02*
X162715000Y-52430000D01*
X162715000Y-52430000D02*
X164250000Y-50895000D01*
X164250000Y-50895000D02*
X164250000Y-46000000D01*
D35*
X148475000Y-49570000D02*
X148475000Y-50020000D01*
D34*
X148475000Y-49570000D02*
X148475000Y-50513207D01*
X148475000Y-50513207D02*
X148711361Y-50749568D01*
D35*
%TO.N,Net-(Q1-Pad1)*%
X168500000Y-58000000D02*
X168750000Y-58250000D01*
X168500000Y-57050000D02*
X168500000Y-58000000D01*
X168800000Y-56750000D02*
X168500000Y-57050000D01*
%TD*%
%TA.AperFunction,Conductor*%
%TO.N,Net-(J8-Pad1)*%
G36*
X158542121Y-97020002D02*
G01*
X158588614Y-97073658D01*
X158600000Y-97126000D01*
X158600000Y-109874000D01*
X158579998Y-109942121D01*
X158526342Y-109988614D01*
X158474000Y-110000000D01*
X156126000Y-110000000D01*
X156057879Y-109979998D01*
X156011386Y-109926342D01*
X156000000Y-109874000D01*
X156000000Y-97126000D01*
X156020002Y-97057879D01*
X156073658Y-97011386D01*
X156126000Y-97000000D01*
X158474000Y-97000000D01*
X158542121Y-97020002D01*
G37*
%TD.AperFunction*%
%TD*%
%TA.AperFunction,Conductor*%
%TO.N,Net-(J9-Pad1)*%
G36*
X158542121Y-67020002D02*
G01*
X158588614Y-67073658D01*
X158600000Y-67126000D01*
X158600000Y-79874000D01*
X158579998Y-79942121D01*
X158526342Y-79988614D01*
X158474000Y-80000000D01*
X156126000Y-80000000D01*
X156057879Y-79979998D01*
X156011386Y-79926342D01*
X156000000Y-79874000D01*
X156000000Y-67130714D01*
X156020002Y-67062593D01*
X156036905Y-67041619D01*
X156041619Y-67036905D01*
X156103931Y-67002879D01*
X156130714Y-67000000D01*
X158474000Y-67000000D01*
X158542121Y-67020002D01*
G37*
%TD.AperFunction*%
%TD*%
%TA.AperFunction,Conductor*%
%TO.N,Net-(J5-Pad1)*%
G36*
X158542121Y-82020002D02*
G01*
X158588614Y-82073658D01*
X158600000Y-82126000D01*
X158600000Y-94874000D01*
X158579998Y-94942121D01*
X158526342Y-94988614D01*
X158474000Y-95000000D01*
X156126000Y-95000000D01*
X156057879Y-94979998D01*
X156011386Y-94926342D01*
X156000000Y-94874000D01*
X156000000Y-82126000D01*
X156020002Y-82057879D01*
X156073658Y-82011386D01*
X156126000Y-82000000D01*
X158474000Y-82000000D01*
X158542121Y-82020002D01*
G37*
%TD.AperFunction*%
%TD*%
%TA.AperFunction,Conductor*%
%TO.N,Net-(J7-Pad1)*%
G36*
X158542121Y-112020002D02*
G01*
X158588614Y-112073658D01*
X158600000Y-112126000D01*
X158600000Y-124874000D01*
X158579998Y-124942121D01*
X158526342Y-124988614D01*
X158474000Y-125000000D01*
X156126000Y-125000000D01*
X156057879Y-124979998D01*
X156011386Y-124926342D01*
X156000000Y-124874000D01*
X156000000Y-112126000D01*
X156020002Y-112057879D01*
X156073658Y-112011386D01*
X156126000Y-112000000D01*
X158474000Y-112000000D01*
X158542121Y-112020002D01*
G37*
%TD.AperFunction*%
%TD*%
%TA.AperFunction,Conductor*%
%TO.N,Net-(J10-Pad1)*%
G36*
X149591622Y-67020002D02*
G01*
X149638115Y-67073658D01*
X149649501Y-67126000D01*
X149649501Y-79874000D01*
X149629499Y-79942121D01*
X149575843Y-79988614D01*
X149523501Y-80000000D01*
X147526000Y-80000000D01*
X147457879Y-79979998D01*
X147411386Y-79926342D01*
X147400000Y-79874000D01*
X147400000Y-67126000D01*
X147420002Y-67057879D01*
X147473658Y-67011386D01*
X147526000Y-67000000D01*
X149523501Y-67000000D01*
X149591622Y-67020002D01*
G37*
%TD.AperFunction*%
%TD*%
%TA.AperFunction,Conductor*%
%TO.N,Net-(J6-Pad1)*%
G36*
X149591622Y-82020002D02*
G01*
X149638115Y-82073658D01*
X149649501Y-82126000D01*
X149649500Y-94079505D01*
X149649500Y-94874000D01*
X149629498Y-94942121D01*
X149575842Y-94988614D01*
X149523500Y-95000000D01*
X147526000Y-95000000D01*
X147457879Y-94979998D01*
X147411386Y-94926342D01*
X147400000Y-94874000D01*
X147400000Y-82126000D01*
X147420002Y-82057879D01*
X147473658Y-82011386D01*
X147526000Y-82000000D01*
X149523501Y-82000000D01*
X149591622Y-82020002D01*
G37*
%TD.AperFunction*%
%TD*%
%TA.AperFunction,Conductor*%
%TO.N,Net-(J3-Pad1)*%
G36*
X149942121Y-97020002D02*
G01*
X149988614Y-97073658D01*
X150000000Y-97126000D01*
X150000000Y-109874000D01*
X149979998Y-109942121D01*
X149926342Y-109988614D01*
X149874000Y-110000000D01*
X147526000Y-110000000D01*
X147457879Y-109979998D01*
X147411386Y-109926342D01*
X147400000Y-109874000D01*
X147400000Y-97126000D01*
X147420002Y-97057879D01*
X147473658Y-97011386D01*
X147526000Y-97000000D01*
X149874000Y-97000000D01*
X149942121Y-97020002D01*
G37*
%TD.AperFunction*%
%TD*%
%TA.AperFunction,Conductor*%
%TO.N,Net-(J4-Pad1)*%
G36*
X149942121Y-112020002D02*
G01*
X149988614Y-112073658D01*
X150000000Y-112126000D01*
X150000000Y-124874000D01*
X149979998Y-124942121D01*
X149926342Y-124988614D01*
X149874000Y-125000000D01*
X147526000Y-125000000D01*
X147457879Y-124979998D01*
X147411386Y-124926342D01*
X147400000Y-124874000D01*
X147400000Y-112126000D01*
X147420002Y-112057879D01*
X147473658Y-112011386D01*
X147526000Y-112000000D01*
X149874000Y-112000000D01*
X149942121Y-112020002D01*
G37*
%TD.AperFunction*%
%TD*%
%TA.AperFunction,Conductor*%
%TO.N,GND*%
G36*
X152149500Y-67310007D02*
G01*
X152149389Y-67315283D01*
X152146790Y-67377294D01*
X152148752Y-67385659D01*
X152156727Y-67419662D01*
X152158890Y-67431333D01*
X152164794Y-67474432D01*
X152168206Y-67482316D01*
X152168206Y-67482317D01*
X152170765Y-67488230D01*
X152177799Y-67509499D01*
X152181232Y-67524136D01*
X152185369Y-67531661D01*
X152185370Y-67531664D01*
X152202195Y-67562268D01*
X152207411Y-67572913D01*
X152224695Y-67612855D01*
X152234158Y-67624541D01*
X152246645Y-67643125D01*
X152253893Y-67656308D01*
X152260897Y-67664422D01*
X152285433Y-67688958D01*
X152294258Y-67698759D01*
X152314206Y-67723392D01*
X152319614Y-67730070D01*
X152326613Y-67735044D01*
X152326614Y-67735045D01*
X152334946Y-67740966D01*
X152351051Y-67754576D01*
X153035904Y-68439428D01*
X153069929Y-68501741D01*
X153072208Y-68516227D01*
X153087039Y-68667486D01*
X153143726Y-68837896D01*
X153236759Y-68991512D01*
X153361514Y-69120699D01*
X153511789Y-69219036D01*
X153680116Y-69281636D01*
X153687097Y-69282567D01*
X153687099Y-69282568D01*
X153851149Y-69304457D01*
X153851153Y-69304457D01*
X153858130Y-69305388D01*
X153865142Y-69304750D01*
X153865145Y-69304750D01*
X153971673Y-69295055D01*
X153987081Y-69293653D01*
X154056734Y-69307399D01*
X154107898Y-69356620D01*
X154124500Y-69419134D01*
X154124500Y-70480500D01*
X154104498Y-70548621D01*
X154050842Y-70595114D01*
X153980568Y-70605218D01*
X153922320Y-70580862D01*
X153887828Y-70554681D01*
X153750140Y-70500167D01*
X153661995Y-70489500D01*
X153480121Y-70489500D01*
X153298006Y-70489501D01*
X153294249Y-70489956D01*
X153294243Y-70489956D01*
X153217890Y-70499195D01*
X153217887Y-70499196D01*
X153209860Y-70500167D01*
X153202337Y-70503145D01*
X153202335Y-70503146D01*
X153163759Y-70518419D01*
X153093059Y-70524898D01*
X153053237Y-70509721D01*
X152926220Y-70434604D01*
X152911784Y-70428357D01*
X152791395Y-70393381D01*
X152777295Y-70393421D01*
X152774000Y-70400691D01*
X152774000Y-71932000D01*
X152753998Y-72000121D01*
X152700342Y-72046614D01*
X152648000Y-72058000D01*
X152568115Y-72058000D01*
X152552876Y-72062475D01*
X152551671Y-72063865D01*
X152550000Y-72071548D01*
X152550000Y-72684000D01*
X152529998Y-72752121D01*
X152476342Y-72798614D01*
X152424000Y-72810000D01*
X151660116Y-72810000D01*
X151644877Y-72814475D01*
X151643672Y-72815865D01*
X151642001Y-72823548D01*
X151642001Y-72979669D01*
X151642371Y-72986490D01*
X151647895Y-73037352D01*
X151651521Y-73052604D01*
X151696676Y-73173054D01*
X151705214Y-73188649D01*
X151781715Y-73290724D01*
X151794276Y-73303285D01*
X151896351Y-73379786D01*
X151911946Y-73388324D01*
X152032394Y-73433478D01*
X152048960Y-73437417D01*
X152110606Y-73472634D01*
X152143427Y-73535589D01*
X152137001Y-73606294D01*
X152093369Y-73662301D01*
X152048960Y-73682583D01*
X152032394Y-73686522D01*
X151911946Y-73731676D01*
X151896351Y-73740214D01*
X151794276Y-73816715D01*
X151781715Y-73829276D01*
X151705214Y-73931351D01*
X151696676Y-73946946D01*
X151651522Y-74067394D01*
X151647895Y-74082649D01*
X151642369Y-74133514D01*
X151642000Y-74140328D01*
X151642000Y-74291885D01*
X151646475Y-74307124D01*
X151647865Y-74308329D01*
X151655548Y-74310000D01*
X152781885Y-74310000D01*
X152797124Y-74305525D01*
X152798329Y-74304135D01*
X152800379Y-74294709D01*
X152834403Y-74232397D01*
X152851188Y-74223231D01*
X152829607Y-74208922D01*
X152801039Y-74143927D01*
X152800000Y-74127778D01*
X152800000Y-73695116D01*
X152795525Y-73679877D01*
X152794135Y-73678672D01*
X152786452Y-73677001D01*
X152755331Y-73677001D01*
X152748514Y-73677370D01*
X152708885Y-73681675D01*
X152639002Y-73669146D01*
X152586987Y-73620825D01*
X152569353Y-73552053D01*
X152591700Y-73484665D01*
X152646932Y-73440056D01*
X152666128Y-73433830D01*
X152667604Y-73433479D01*
X152788054Y-73388324D01*
X152803649Y-73379786D01*
X152905724Y-73303285D01*
X152918284Y-73290725D01*
X152968661Y-73223506D01*
X153025520Y-73180990D01*
X153096339Y-73175964D01*
X153158583Y-73209975D01*
X153211658Y-73263050D01*
X153324696Y-73320646D01*
X153334485Y-73322196D01*
X153334487Y-73322197D01*
X153361849Y-73326530D01*
X153418481Y-73335500D01*
X153649953Y-73335500D01*
X153881518Y-73335499D01*
X153975304Y-73320646D01*
X153975782Y-73323666D01*
X154030531Y-73322101D01*
X154091329Y-73358764D01*
X154122655Y-73422476D01*
X154124500Y-73443962D01*
X154124500Y-73676037D01*
X154104498Y-73744158D01*
X154050842Y-73790651D01*
X153980568Y-73800755D01*
X153975944Y-73799680D01*
X153975304Y-73799354D01*
X153881519Y-73784500D01*
X153865275Y-73784500D01*
X153554715Y-73784501D01*
X153486596Y-73764499D01*
X153479151Y-73759327D01*
X153453649Y-73740214D01*
X153438054Y-73731676D01*
X153317606Y-73686522D01*
X153302351Y-73682895D01*
X153251486Y-73677369D01*
X153244672Y-73677000D01*
X153218115Y-73677000D01*
X153202876Y-73681475D01*
X153201671Y-73682865D01*
X153200000Y-73690548D01*
X153200000Y-73816418D01*
X153179998Y-73884539D01*
X153163095Y-73905513D01*
X153121950Y-73946658D01*
X153064354Y-74059696D01*
X153062804Y-74069485D01*
X153062803Y-74069487D01*
X153050449Y-74147489D01*
X153020037Y-74211642D01*
X152997358Y-74225763D01*
X153024367Y-74245981D01*
X153049179Y-74312501D01*
X153049500Y-74321491D01*
X153049501Y-74584000D01*
X153029499Y-74652120D01*
X152975844Y-74698613D01*
X152923501Y-74710000D01*
X152568115Y-74710000D01*
X152552876Y-74714475D01*
X152551671Y-74715865D01*
X152550000Y-74723548D01*
X152550000Y-75324884D01*
X152554475Y-75340123D01*
X152555865Y-75341328D01*
X152563548Y-75342999D01*
X152594669Y-75342999D01*
X152601490Y-75342629D01*
X152660207Y-75336252D01*
X152660467Y-75338647D01*
X152689534Y-75338649D01*
X152689794Y-75336252D01*
X152711792Y-75338642D01*
X152777354Y-75365885D01*
X152817780Y-75424248D01*
X152820649Y-75493536D01*
X152819390Y-75498738D01*
X152816981Y-75505358D01*
X152794473Y-75683533D01*
X152811998Y-75862266D01*
X152868685Y-76032676D01*
X152961718Y-76186292D01*
X153086473Y-76315479D01*
X153236748Y-76413816D01*
X153405075Y-76476416D01*
X153412056Y-76477347D01*
X153412058Y-76477348D01*
X153576108Y-76499237D01*
X153576112Y-76499237D01*
X153583089Y-76500168D01*
X153590101Y-76499530D01*
X153590105Y-76499530D01*
X153754919Y-76484531D01*
X153754920Y-76484531D01*
X153761940Y-76483892D01*
X153932741Y-76428395D01*
X153938792Y-76424788D01*
X153945207Y-76421878D01*
X153946378Y-76424458D01*
X154002766Y-76409956D01*
X154070170Y-76432253D01*
X154114820Y-76487452D01*
X154124500Y-76535884D01*
X154124500Y-85118452D01*
X154104498Y-85186573D01*
X154050842Y-85233066D01*
X153980568Y-85243170D01*
X153922324Y-85218817D01*
X153837828Y-85154681D01*
X153700140Y-85100167D01*
X153611995Y-85089500D01*
X153430121Y-85089500D01*
X153248006Y-85089501D01*
X153244249Y-85089956D01*
X153244243Y-85089956D01*
X153167890Y-85099195D01*
X153167887Y-85099196D01*
X153159860Y-85100167D01*
X153152337Y-85103145D01*
X153152335Y-85103146D01*
X153113759Y-85118419D01*
X153043059Y-85124898D01*
X153003237Y-85109721D01*
X152876220Y-85034604D01*
X152861784Y-85028357D01*
X152741395Y-84993381D01*
X152727295Y-84993421D01*
X152724000Y-85000691D01*
X152724000Y-86532000D01*
X152703998Y-86600121D01*
X152650342Y-86646614D01*
X152598000Y-86658000D01*
X152518115Y-86658000D01*
X152502876Y-86662475D01*
X152501671Y-86663865D01*
X152500000Y-86671548D01*
X152500000Y-87484000D01*
X152479998Y-87552121D01*
X152426342Y-87598614D01*
X152374000Y-87610000D01*
X151610116Y-87610000D01*
X151594877Y-87614475D01*
X151593672Y-87615865D01*
X151592001Y-87623548D01*
X151592001Y-87779669D01*
X151592371Y-87786490D01*
X151597895Y-87837352D01*
X151601521Y-87852604D01*
X151646676Y-87973054D01*
X151655214Y-87988649D01*
X151731715Y-88090724D01*
X151744276Y-88103285D01*
X151846351Y-88179786D01*
X151861946Y-88188324D01*
X151982394Y-88233478D01*
X151998960Y-88237417D01*
X152060606Y-88272634D01*
X152093427Y-88335589D01*
X152087001Y-88406294D01*
X152043369Y-88462301D01*
X151998960Y-88482583D01*
X151982394Y-88486522D01*
X151861946Y-88531676D01*
X151846351Y-88540214D01*
X151744276Y-88616715D01*
X151731715Y-88629276D01*
X151655214Y-88731351D01*
X151646676Y-88746946D01*
X151601522Y-88867394D01*
X151597895Y-88882649D01*
X151592369Y-88933514D01*
X151592000Y-88940328D01*
X151592000Y-89091885D01*
X151596475Y-89107124D01*
X151597865Y-89108329D01*
X151605548Y-89110000D01*
X152731885Y-89110000D01*
X152747124Y-89105525D01*
X152748329Y-89104135D01*
X152750379Y-89094710D01*
X152784404Y-89032397D01*
X152801189Y-89023232D01*
X152779607Y-89008922D01*
X152751039Y-88943927D01*
X152750000Y-88927778D01*
X152750000Y-88495116D01*
X152745525Y-88479877D01*
X152744135Y-88478672D01*
X152736452Y-88477001D01*
X152705331Y-88477001D01*
X152698514Y-88477370D01*
X152658885Y-88481675D01*
X152589002Y-88469146D01*
X152536987Y-88420825D01*
X152519353Y-88352053D01*
X152541700Y-88284665D01*
X152596932Y-88240056D01*
X152616128Y-88233830D01*
X152617604Y-88233479D01*
X152738054Y-88188324D01*
X152753649Y-88179786D01*
X152855724Y-88103285D01*
X152868284Y-88090725D01*
X152918661Y-88023506D01*
X152975520Y-87980990D01*
X153046339Y-87975964D01*
X153108583Y-88009975D01*
X153161658Y-88063050D01*
X153274696Y-88120646D01*
X153284485Y-88122196D01*
X153284487Y-88122197D01*
X153309087Y-88126093D01*
X153368481Y-88135500D01*
X153599953Y-88135500D01*
X153831518Y-88135499D01*
X153836412Y-88134724D01*
X153915506Y-88122198D01*
X153915508Y-88122197D01*
X153925304Y-88120646D01*
X153934144Y-88116142D01*
X153941296Y-88112498D01*
X154011073Y-88099393D01*
X154076858Y-88126093D01*
X154117765Y-88184120D01*
X154124500Y-88224764D01*
X154124500Y-88495236D01*
X154104498Y-88563357D01*
X154050842Y-88609850D01*
X153980568Y-88619954D01*
X153941296Y-88607502D01*
X153934139Y-88603855D01*
X153934135Y-88603854D01*
X153925304Y-88599354D01*
X153915515Y-88597804D01*
X153915513Y-88597803D01*
X153888151Y-88593470D01*
X153831519Y-88584500D01*
X153815275Y-88584500D01*
X153504715Y-88584501D01*
X153436596Y-88564499D01*
X153429151Y-88559327D01*
X153403649Y-88540214D01*
X153388054Y-88531676D01*
X153267606Y-88486522D01*
X153252351Y-88482895D01*
X153201486Y-88477369D01*
X153194672Y-88477000D01*
X153168115Y-88477000D01*
X153152876Y-88481475D01*
X153151671Y-88482865D01*
X153150000Y-88490548D01*
X153150000Y-88616418D01*
X153129998Y-88684539D01*
X153113095Y-88705513D01*
X153071950Y-88746658D01*
X153014354Y-88859696D01*
X153012804Y-88869485D01*
X153012803Y-88869487D01*
X153000449Y-88947489D01*
X152970037Y-89011642D01*
X152947358Y-89025763D01*
X152974368Y-89045982D01*
X152999179Y-89112502D01*
X152999500Y-89121492D01*
X152999501Y-89501488D01*
X152979499Y-89569608D01*
X152951563Y-89593815D01*
X152958512Y-89596989D01*
X152996896Y-89656715D01*
X153000449Y-89672504D01*
X153014354Y-89760304D01*
X153018857Y-89769141D01*
X153018857Y-89769142D01*
X153035767Y-89802329D01*
X153049500Y-89859532D01*
X153049500Y-90319784D01*
X153029498Y-90387905D01*
X153012596Y-90408879D01*
X152942204Y-90479272D01*
X152879892Y-90513297D01*
X152809076Y-90508233D01*
X152785601Y-90496566D01*
X152753136Y-90475963D01*
X152723352Y-90465357D01*
X152590586Y-90418081D01*
X152590581Y-90418080D01*
X152583951Y-90415719D01*
X152576965Y-90414886D01*
X152576961Y-90414885D01*
X152449177Y-90399648D01*
X152405624Y-90394455D01*
X152398621Y-90395191D01*
X152398620Y-90395191D01*
X152234025Y-90412490D01*
X152234021Y-90412491D01*
X152227017Y-90413227D01*
X152220346Y-90415498D01*
X152063677Y-90468832D01*
X152063674Y-90468833D01*
X152057007Y-90471103D01*
X152051009Y-90474793D01*
X152051007Y-90474794D01*
X152042969Y-90479739D01*
X151904045Y-90565206D01*
X151899014Y-90570132D01*
X151899011Y-90570135D01*
X151836883Y-90630976D01*
X151775732Y-90690859D01*
X151678446Y-90841817D01*
X151617022Y-91010578D01*
X151594514Y-91188753D01*
X151612039Y-91367486D01*
X151668726Y-91537896D01*
X151672373Y-91543918D01*
X151751944Y-91675305D01*
X151761759Y-91691512D01*
X151766648Y-91696575D01*
X151766649Y-91696576D01*
X151791395Y-91722201D01*
X151886514Y-91820699D01*
X152036789Y-91919036D01*
X152205116Y-91981636D01*
X152212097Y-91982567D01*
X152212099Y-91982568D01*
X152376149Y-92004457D01*
X152376153Y-92004457D01*
X152383130Y-92005388D01*
X152390142Y-92004750D01*
X152390146Y-92004750D01*
X152554960Y-91989751D01*
X152554961Y-91989751D01*
X152561981Y-91989112D01*
X152732782Y-91933615D01*
X152763714Y-91915176D01*
X152880992Y-91845265D01*
X152880994Y-91845264D01*
X152887044Y-91841657D01*
X152944243Y-91787187D01*
X153007368Y-91754695D01*
X153036410Y-91752544D01*
X153052294Y-91753210D01*
X153063848Y-91750500D01*
X153094662Y-91743273D01*
X153106333Y-91741110D01*
X153121229Y-91739069D01*
X153149432Y-91735206D01*
X153163230Y-91729235D01*
X153184499Y-91722201D01*
X153190775Y-91720729D01*
X153199136Y-91718768D01*
X153206661Y-91714631D01*
X153206664Y-91714630D01*
X153237268Y-91697805D01*
X153247913Y-91692589D01*
X153287855Y-91675305D01*
X153299541Y-91665842D01*
X153318126Y-91653354D01*
X153325518Y-91649290D01*
X153331308Y-91646107D01*
X153339422Y-91639103D01*
X153363958Y-91614567D01*
X153373759Y-91605742D01*
X153398392Y-91585794D01*
X153398393Y-91585793D01*
X153405070Y-91580386D01*
X153415966Y-91565054D01*
X153429576Y-91548949D01*
X153909404Y-91069120D01*
X153971717Y-91035095D01*
X154042532Y-91040159D01*
X154099368Y-91082706D01*
X154124179Y-91149226D01*
X154124500Y-91158215D01*
X154124500Y-100110861D01*
X154104498Y-100178982D01*
X154050842Y-100225475D01*
X153980568Y-100235579D01*
X153922321Y-100211224D01*
X153854668Y-100159873D01*
X153854669Y-100159873D01*
X153847828Y-100154681D01*
X153710140Y-100100167D01*
X153621995Y-100089500D01*
X153440121Y-100089500D01*
X153258006Y-100089501D01*
X153254249Y-100089956D01*
X153254243Y-100089956D01*
X153177890Y-100099195D01*
X153177887Y-100099196D01*
X153169860Y-100100167D01*
X153162337Y-100103145D01*
X153162335Y-100103146D01*
X153123759Y-100118419D01*
X153053059Y-100124898D01*
X153013237Y-100109721D01*
X152886220Y-100034604D01*
X152871784Y-100028357D01*
X152751395Y-99993381D01*
X152737295Y-99993421D01*
X152734000Y-100000691D01*
X152734000Y-101532000D01*
X152713998Y-101600121D01*
X152660342Y-101646614D01*
X152608000Y-101658000D01*
X152528115Y-101658000D01*
X152512876Y-101662475D01*
X152511671Y-101663865D01*
X152510000Y-101671548D01*
X152510000Y-101924000D01*
X152489998Y-101992121D01*
X152436342Y-102038614D01*
X152384000Y-102050000D01*
X151620116Y-102050000D01*
X151604877Y-102054475D01*
X151603672Y-102055865D01*
X151602001Y-102063548D01*
X151602001Y-102219669D01*
X151602371Y-102226490D01*
X151607895Y-102277352D01*
X151611521Y-102292604D01*
X151656676Y-102413054D01*
X151665214Y-102428649D01*
X151741715Y-102530724D01*
X151754276Y-102543285D01*
X151856351Y-102619786D01*
X151871946Y-102628324D01*
X151992394Y-102673478D01*
X152008960Y-102677417D01*
X152070606Y-102712634D01*
X152103427Y-102775589D01*
X152097001Y-102846294D01*
X152053369Y-102902301D01*
X152008960Y-102922583D01*
X151992394Y-102926522D01*
X151871946Y-102971676D01*
X151856351Y-102980214D01*
X151754276Y-103056715D01*
X151741715Y-103069276D01*
X151665214Y-103171351D01*
X151656676Y-103186946D01*
X151611522Y-103307394D01*
X151607895Y-103322649D01*
X151602369Y-103373514D01*
X151602000Y-103380328D01*
X151602000Y-103531885D01*
X151606475Y-103547124D01*
X151607865Y-103548329D01*
X151615548Y-103550000D01*
X152741885Y-103550000D01*
X152757124Y-103545525D01*
X152758329Y-103544135D01*
X152760379Y-103534710D01*
X152794404Y-103472397D01*
X152811189Y-103463232D01*
X152789607Y-103448922D01*
X152761039Y-103383927D01*
X152760000Y-103367778D01*
X152760000Y-102935116D01*
X152755525Y-102919877D01*
X152754135Y-102918672D01*
X152746452Y-102917001D01*
X152715331Y-102917001D01*
X152708514Y-102917370D01*
X152668885Y-102921675D01*
X152599002Y-102909146D01*
X152546987Y-102860825D01*
X152529353Y-102792053D01*
X152551700Y-102724665D01*
X152606932Y-102680056D01*
X152626128Y-102673830D01*
X152627604Y-102673479D01*
X152748054Y-102628324D01*
X152763649Y-102619786D01*
X152865724Y-102543285D01*
X152878284Y-102530725D01*
X152928661Y-102463506D01*
X152985520Y-102420990D01*
X153056339Y-102415964D01*
X153118583Y-102449975D01*
X153171658Y-102503050D01*
X153284696Y-102560646D01*
X153294485Y-102562196D01*
X153294487Y-102562197D01*
X153321849Y-102566530D01*
X153378481Y-102575500D01*
X153609953Y-102575500D01*
X153841518Y-102575499D01*
X153846412Y-102574724D01*
X153925506Y-102562198D01*
X153925508Y-102562197D01*
X153935304Y-102560646D01*
X153944141Y-102556143D01*
X153953572Y-102553079D01*
X153954248Y-102555161D01*
X154011067Y-102544487D01*
X154076853Y-102571184D01*
X154117763Y-102629209D01*
X154124500Y-102669859D01*
X154124500Y-102930141D01*
X154104498Y-102998262D01*
X154050842Y-103044755D01*
X153980568Y-103054859D01*
X153953754Y-103046357D01*
X153953571Y-103046920D01*
X153944137Y-103043854D01*
X153935304Y-103039354D01*
X153925515Y-103037804D01*
X153925513Y-103037803D01*
X153898151Y-103033470D01*
X153841519Y-103024500D01*
X153825275Y-103024500D01*
X153514715Y-103024501D01*
X153446596Y-103004499D01*
X153439151Y-102999327D01*
X153413649Y-102980214D01*
X153398054Y-102971676D01*
X153277606Y-102926522D01*
X153262351Y-102922895D01*
X153211486Y-102917369D01*
X153204672Y-102917000D01*
X153178115Y-102917000D01*
X153162876Y-102921475D01*
X153161671Y-102922865D01*
X153160000Y-102930548D01*
X153160000Y-103056418D01*
X153139998Y-103124539D01*
X153123095Y-103145513D01*
X153081950Y-103186658D01*
X153024354Y-103299696D01*
X153022804Y-103309485D01*
X153022803Y-103309487D01*
X153010449Y-103387489D01*
X152980037Y-103451642D01*
X152957358Y-103465763D01*
X152984368Y-103485982D01*
X153009179Y-103552502D01*
X153009500Y-103561492D01*
X153009501Y-103941488D01*
X152989499Y-104009608D01*
X152961563Y-104033815D01*
X152968512Y-104036989D01*
X153006896Y-104096715D01*
X153010449Y-104112504D01*
X153024354Y-104200304D01*
X153028857Y-104209141D01*
X153028857Y-104209142D01*
X153045767Y-104242329D01*
X153059500Y-104299532D01*
X153059500Y-105135221D01*
X153039498Y-105203342D01*
X152985842Y-105249835D01*
X152915568Y-105259939D01*
X152891233Y-105253920D01*
X152790586Y-105218081D01*
X152790581Y-105218080D01*
X152783951Y-105215719D01*
X152776965Y-105214886D01*
X152776961Y-105214885D01*
X152649177Y-105199648D01*
X152605624Y-105194455D01*
X152598621Y-105195191D01*
X152598620Y-105195191D01*
X152434025Y-105212490D01*
X152434021Y-105212491D01*
X152427017Y-105213227D01*
X152420346Y-105215498D01*
X152263677Y-105268832D01*
X152263674Y-105268833D01*
X152257007Y-105271103D01*
X152104045Y-105365206D01*
X152099014Y-105370132D01*
X152099011Y-105370135D01*
X152036883Y-105430976D01*
X151975732Y-105490859D01*
X151878446Y-105641817D01*
X151817022Y-105810578D01*
X151794514Y-105988753D01*
X151812039Y-106167486D01*
X151868726Y-106337896D01*
X151872373Y-106343918D01*
X151951944Y-106475305D01*
X151961759Y-106491512D01*
X151966648Y-106496575D01*
X151966649Y-106496576D01*
X151991395Y-106522201D01*
X152086514Y-106620699D01*
X152236789Y-106719036D01*
X152405116Y-106781636D01*
X152412097Y-106782567D01*
X152412099Y-106782568D01*
X152576149Y-106804457D01*
X152576153Y-106804457D01*
X152583130Y-106805388D01*
X152590142Y-106804750D01*
X152590146Y-106804750D01*
X152754960Y-106789751D01*
X152754961Y-106789751D01*
X152761981Y-106789112D01*
X152932782Y-106733615D01*
X152963714Y-106715176D01*
X153080992Y-106645265D01*
X153080994Y-106645264D01*
X153087044Y-106641657D01*
X153144243Y-106587187D01*
X153207368Y-106554695D01*
X153236410Y-106552544D01*
X153252294Y-106553210D01*
X153263848Y-106550500D01*
X153294662Y-106543273D01*
X153306333Y-106541110D01*
X153321229Y-106539069D01*
X153349432Y-106535206D01*
X153363230Y-106529235D01*
X153384499Y-106522201D01*
X153390775Y-106520729D01*
X153399136Y-106518768D01*
X153406661Y-106514631D01*
X153406664Y-106514630D01*
X153437268Y-106497805D01*
X153447913Y-106492589D01*
X153487855Y-106475305D01*
X153499541Y-106465842D01*
X153518126Y-106453354D01*
X153525518Y-106449290D01*
X153531308Y-106446107D01*
X153539422Y-106439103D01*
X153563958Y-106414567D01*
X153573759Y-106405742D01*
X153598392Y-106385794D01*
X153598393Y-106385793D01*
X153605070Y-106380386D01*
X153610043Y-106373388D01*
X153610048Y-106373383D01*
X153615968Y-106365052D01*
X153629579Y-106348946D01*
X153909405Y-106069120D01*
X153971717Y-106035094D01*
X154042532Y-106040159D01*
X154099368Y-106082706D01*
X154124179Y-106149226D01*
X154124500Y-106158215D01*
X154124500Y-113880500D01*
X154104498Y-113948621D01*
X154050842Y-113995114D01*
X153980568Y-114005218D01*
X153922320Y-113980862D01*
X153887828Y-113954681D01*
X153750140Y-113900167D01*
X153661995Y-113889500D01*
X153480121Y-113889500D01*
X153298006Y-113889501D01*
X153294249Y-113889956D01*
X153294243Y-113889956D01*
X153217890Y-113899195D01*
X153217887Y-113899196D01*
X153209860Y-113900167D01*
X153202337Y-113903145D01*
X153202335Y-113903146D01*
X153163759Y-113918419D01*
X153093059Y-113924898D01*
X153053237Y-113909721D01*
X152926220Y-113834604D01*
X152911784Y-113828357D01*
X152791395Y-113793381D01*
X152777295Y-113793421D01*
X152774000Y-113800691D01*
X152774000Y-114728000D01*
X152753998Y-114796121D01*
X152700342Y-114842614D01*
X152648000Y-114854000D01*
X151751576Y-114854000D01*
X151736781Y-114858344D01*
X151734937Y-114868775D01*
X151736688Y-114878359D01*
X151778357Y-115021784D01*
X151784604Y-115036220D01*
X151859876Y-115163499D01*
X151869516Y-115175926D01*
X151974074Y-115280484D01*
X151986501Y-115290124D01*
X152113780Y-115365396D01*
X152135489Y-115374790D01*
X152134585Y-115376879D01*
X152184697Y-115408890D01*
X152214367Y-115473390D01*
X152204455Y-115543691D01*
X152158110Y-115597474D01*
X152101777Y-115615761D01*
X152101912Y-115617001D01*
X152047648Y-115622895D01*
X152032396Y-115626521D01*
X151911946Y-115671676D01*
X151896351Y-115680214D01*
X151794276Y-115756715D01*
X151781715Y-115769276D01*
X151705214Y-115871351D01*
X151696676Y-115886946D01*
X151651522Y-116007394D01*
X151647895Y-116022649D01*
X151642369Y-116073514D01*
X151642000Y-116080328D01*
X151642000Y-116231885D01*
X151646475Y-116247124D01*
X151647865Y-116248329D01*
X151655548Y-116250000D01*
X152424000Y-116250000D01*
X152492121Y-116270002D01*
X152538614Y-116323658D01*
X152550000Y-116376000D01*
X152550000Y-116524000D01*
X152529998Y-116592121D01*
X152476342Y-116638614D01*
X152424000Y-116650000D01*
X151660116Y-116650000D01*
X151644877Y-116654475D01*
X151643672Y-116655865D01*
X151642001Y-116663548D01*
X151642001Y-116819669D01*
X151642371Y-116826490D01*
X151647895Y-116877352D01*
X151651521Y-116892604D01*
X151696676Y-117013054D01*
X151705214Y-117028649D01*
X151781715Y-117130724D01*
X151794276Y-117143285D01*
X151896351Y-117219786D01*
X151911946Y-117228324D01*
X152032394Y-117273478D01*
X152048960Y-117277417D01*
X152110606Y-117312634D01*
X152143427Y-117375589D01*
X152137001Y-117446294D01*
X152093369Y-117502301D01*
X152048960Y-117522583D01*
X152032394Y-117526522D01*
X151911946Y-117571676D01*
X151896351Y-117580214D01*
X151794276Y-117656715D01*
X151781715Y-117669276D01*
X151705214Y-117771351D01*
X151696676Y-117786946D01*
X151651522Y-117907394D01*
X151647895Y-117922649D01*
X151642369Y-117973514D01*
X151642000Y-117980328D01*
X151642000Y-118131885D01*
X151646475Y-118147124D01*
X151647865Y-118148329D01*
X151655548Y-118150000D01*
X152781885Y-118150000D01*
X152797124Y-118145525D01*
X152798329Y-118144135D01*
X152800379Y-118134710D01*
X152834404Y-118072397D01*
X152851189Y-118063232D01*
X152829607Y-118048922D01*
X152801039Y-117983927D01*
X152800000Y-117967778D01*
X152800000Y-117535116D01*
X152795525Y-117519877D01*
X152794135Y-117518672D01*
X152786452Y-117517001D01*
X152755331Y-117517001D01*
X152748514Y-117517370D01*
X152708885Y-117521675D01*
X152639002Y-117509146D01*
X152586987Y-117460825D01*
X152569353Y-117392053D01*
X152591700Y-117324665D01*
X152646932Y-117280056D01*
X152666128Y-117273830D01*
X152667604Y-117273479D01*
X152788054Y-117228324D01*
X152803649Y-117219786D01*
X152905724Y-117143285D01*
X152918284Y-117130725D01*
X152968661Y-117063506D01*
X153025520Y-117020990D01*
X153096339Y-117015964D01*
X153158583Y-117049975D01*
X153211658Y-117103050D01*
X153324696Y-117160646D01*
X153334485Y-117162196D01*
X153334487Y-117162197D01*
X153354036Y-117165293D01*
X153418481Y-117175500D01*
X153649953Y-117175500D01*
X153881518Y-117175499D01*
X153887820Y-117174501D01*
X153965506Y-117162198D01*
X153965508Y-117162197D01*
X153975304Y-117160646D01*
X154088342Y-117103050D01*
X154178050Y-117013342D01*
X154235646Y-116900304D01*
X154250500Y-116806519D01*
X154250500Y-116715570D01*
X154270502Y-116647449D01*
X154287405Y-116626475D01*
X154509415Y-116404465D01*
X154571727Y-116370439D01*
X154642542Y-116375504D01*
X154699378Y-116418051D01*
X154724189Y-116484571D01*
X154724510Y-116493560D01*
X154724510Y-117160017D01*
X154724399Y-117165293D01*
X154721800Y-117227304D01*
X154723762Y-117235669D01*
X154731737Y-117269672D01*
X154733900Y-117281343D01*
X154739804Y-117324442D01*
X154743216Y-117332326D01*
X154743216Y-117332327D01*
X154745775Y-117338240D01*
X154752809Y-117359509D01*
X154756242Y-117374146D01*
X154760379Y-117381671D01*
X154760380Y-117381674D01*
X154777205Y-117412278D01*
X154782421Y-117422923D01*
X154799705Y-117462865D01*
X154809168Y-117474551D01*
X154821655Y-117493135D01*
X154828903Y-117506318D01*
X154835907Y-117514432D01*
X154860443Y-117538968D01*
X154869268Y-117548769D01*
X154889216Y-117573402D01*
X154894624Y-117580080D01*
X154901623Y-117585054D01*
X154901624Y-117585055D01*
X154909956Y-117590976D01*
X154926061Y-117604586D01*
X155429131Y-118107655D01*
X155432783Y-118111464D01*
X155474799Y-118157156D01*
X155482099Y-118161682D01*
X155482100Y-118161683D01*
X155511783Y-118180087D01*
X155521563Y-118186808D01*
X155550180Y-118208530D01*
X155592347Y-118265648D01*
X155600000Y-118308892D01*
X155600000Y-124874000D01*
X155600360Y-124877344D01*
X155601085Y-124884088D01*
X155601807Y-124897765D01*
X155600206Y-125874207D01*
X155580092Y-125942294D01*
X155526360Y-125988699D01*
X155474206Y-126000000D01*
X150526000Y-126000000D01*
X150457879Y-125979998D01*
X150411386Y-125926342D01*
X150400000Y-125874000D01*
X150400000Y-119788753D01*
X152994514Y-119788753D01*
X152995201Y-119795760D01*
X152995201Y-119795763D01*
X152996005Y-119803963D01*
X153012039Y-119967486D01*
X153014262Y-119974168D01*
X153014262Y-119974169D01*
X153022967Y-120000336D01*
X153068726Y-120137896D01*
X153161759Y-120291512D01*
X153286514Y-120420699D01*
X153436789Y-120519036D01*
X153605116Y-120581636D01*
X153612097Y-120582567D01*
X153612099Y-120582568D01*
X153776149Y-120604457D01*
X153776153Y-120604457D01*
X153783130Y-120605388D01*
X153790142Y-120604750D01*
X153790146Y-120604750D01*
X153954960Y-120589751D01*
X153954961Y-120589751D01*
X153961981Y-120589112D01*
X154132782Y-120533615D01*
X154163714Y-120515176D01*
X154280992Y-120445265D01*
X154280994Y-120445264D01*
X154287044Y-120441657D01*
X154417099Y-120317807D01*
X154434570Y-120291512D01*
X154512582Y-120174093D01*
X154516483Y-120168222D01*
X154531168Y-120129564D01*
X154577757Y-120006919D01*
X154577758Y-120006914D01*
X154580257Y-120000336D01*
X154605251Y-119822493D01*
X154605565Y-119800000D01*
X154585546Y-119621528D01*
X154579427Y-119603955D01*
X154528803Y-119458584D01*
X154526485Y-119451927D01*
X154431316Y-119299625D01*
X154367771Y-119235635D01*
X154309733Y-119177190D01*
X154309729Y-119177187D01*
X154304770Y-119172193D01*
X154258985Y-119143137D01*
X154212187Y-119089747D01*
X154200500Y-119036752D01*
X154200500Y-118899532D01*
X154214233Y-118842329D01*
X154235646Y-118800304D01*
X154250500Y-118706519D01*
X154250499Y-117993482D01*
X154235646Y-117899696D01*
X154178050Y-117786658D01*
X154088342Y-117696950D01*
X153975304Y-117639354D01*
X153965515Y-117637804D01*
X153965513Y-117637803D01*
X153938151Y-117633470D01*
X153881519Y-117624500D01*
X153865275Y-117624500D01*
X153554715Y-117624501D01*
X153486596Y-117604499D01*
X153479151Y-117599327D01*
X153453649Y-117580214D01*
X153438054Y-117571676D01*
X153317606Y-117526522D01*
X153302351Y-117522895D01*
X153251486Y-117517369D01*
X153244672Y-117517000D01*
X153218115Y-117517000D01*
X153202876Y-117521475D01*
X153201671Y-117522865D01*
X153200000Y-117530548D01*
X153200000Y-117656418D01*
X153179998Y-117724539D01*
X153163095Y-117745513D01*
X153121950Y-117786658D01*
X153064354Y-117899696D01*
X153062804Y-117909485D01*
X153062803Y-117909487D01*
X153050449Y-117987489D01*
X153020037Y-118051642D01*
X152997358Y-118065763D01*
X153024368Y-118085982D01*
X153049179Y-118152502D01*
X153049500Y-118161492D01*
X153049501Y-118541488D01*
X153029499Y-118609608D01*
X153001563Y-118633815D01*
X153008512Y-118636989D01*
X153046896Y-118696715D01*
X153050449Y-118712504D01*
X153064354Y-118800304D01*
X153068855Y-118809137D01*
X153068857Y-118809142D01*
X153085767Y-118842329D01*
X153099500Y-118899532D01*
X153099500Y-119372064D01*
X153082927Y-119428360D01*
X153085395Y-119429585D01*
X153082264Y-119435893D01*
X153078446Y-119441817D01*
X153017022Y-119610578D01*
X152994514Y-119788753D01*
X150400000Y-119788753D01*
X150400000Y-118719669D01*
X151642001Y-118719669D01*
X151642371Y-118726490D01*
X151647895Y-118777352D01*
X151651521Y-118792604D01*
X151696676Y-118913054D01*
X151705214Y-118928649D01*
X151781715Y-119030724D01*
X151794276Y-119043285D01*
X151896351Y-119119786D01*
X151911946Y-119128324D01*
X152032394Y-119173478D01*
X152047649Y-119177105D01*
X152098514Y-119182631D01*
X152105328Y-119183000D01*
X152131885Y-119183000D01*
X152147124Y-119178525D01*
X152148329Y-119177135D01*
X152150000Y-119169452D01*
X152150000Y-119164884D01*
X152550000Y-119164884D01*
X152554475Y-119180123D01*
X152555865Y-119181328D01*
X152563548Y-119182999D01*
X152594669Y-119182999D01*
X152601490Y-119182629D01*
X152660207Y-119176252D01*
X152660467Y-119178647D01*
X152689533Y-119178649D01*
X152689793Y-119176252D01*
X152748514Y-119182631D01*
X152755328Y-119183000D01*
X152781885Y-119183000D01*
X152797124Y-119178525D01*
X152798329Y-119177135D01*
X152800000Y-119169452D01*
X152800000Y-118732213D01*
X152820002Y-118664092D01*
X152847937Y-118639886D01*
X152840989Y-118636713D01*
X152802605Y-118576987D01*
X152795525Y-118552876D01*
X152794135Y-118551671D01*
X152786452Y-118550000D01*
X152568115Y-118550000D01*
X152552876Y-118554475D01*
X152551671Y-118555865D01*
X152550000Y-118563548D01*
X152550000Y-119164884D01*
X152150000Y-119164884D01*
X152150000Y-118568115D01*
X152145525Y-118552876D01*
X152144135Y-118551671D01*
X152136452Y-118550000D01*
X151660116Y-118550000D01*
X151644877Y-118554475D01*
X151643672Y-118555865D01*
X151642001Y-118563548D01*
X151642001Y-118719669D01*
X150400000Y-118719669D01*
X150400000Y-118271654D01*
X150423293Y-118198665D01*
X150432966Y-118185053D01*
X150446576Y-118168949D01*
X151128665Y-117486859D01*
X151132475Y-117483206D01*
X151147338Y-117469539D01*
X151178167Y-117441190D01*
X151201110Y-117404187D01*
X151207811Y-117394437D01*
X151234123Y-117359772D01*
X151239657Y-117345793D01*
X151249718Y-117325790D01*
X151257646Y-117313003D01*
X151269786Y-117271217D01*
X151273632Y-117259984D01*
X151283259Y-117235669D01*
X151289647Y-117219536D01*
X151291219Y-117204581D01*
X151295531Y-117182606D01*
X151299726Y-117168164D01*
X151300278Y-117160646D01*
X151300342Y-117159781D01*
X151300342Y-117159770D01*
X151300511Y-117157474D01*
X151300511Y-117122772D01*
X151301201Y-117109602D01*
X151304514Y-117078077D01*
X151305412Y-117069535D01*
X151303980Y-117061070D01*
X151303980Y-117061061D01*
X151302276Y-117050989D01*
X151300511Y-117029976D01*
X151300511Y-114329609D01*
X151735232Y-114329609D01*
X151738052Y-114343031D01*
X151749513Y-114346000D01*
X152247885Y-114346000D01*
X152263124Y-114341525D01*
X152264329Y-114340135D01*
X152266000Y-114332452D01*
X152266000Y-113806442D01*
X152262027Y-113792911D01*
X152254129Y-113791776D01*
X152128216Y-113828357D01*
X152113780Y-113834604D01*
X151986501Y-113909876D01*
X151974074Y-113919516D01*
X151869516Y-114024074D01*
X151859876Y-114036501D01*
X151784604Y-114163780D01*
X151778357Y-114178216D01*
X151736688Y-114321641D01*
X151735232Y-114329609D01*
X151300511Y-114329609D01*
X151300511Y-104119669D01*
X151602001Y-104119669D01*
X151602371Y-104126490D01*
X151607895Y-104177352D01*
X151611521Y-104192604D01*
X151656676Y-104313054D01*
X151665214Y-104328649D01*
X151741715Y-104430724D01*
X151754276Y-104443285D01*
X151856351Y-104519786D01*
X151871946Y-104528324D01*
X151992394Y-104573478D01*
X152007649Y-104577105D01*
X152058514Y-104582631D01*
X152065328Y-104583000D01*
X152091885Y-104583000D01*
X152107124Y-104578525D01*
X152108329Y-104577135D01*
X152110000Y-104569452D01*
X152110000Y-104564884D01*
X152510000Y-104564884D01*
X152514475Y-104580123D01*
X152515865Y-104581328D01*
X152523548Y-104582999D01*
X152554669Y-104582999D01*
X152561490Y-104582629D01*
X152620207Y-104576252D01*
X152620467Y-104578647D01*
X152649533Y-104578649D01*
X152649793Y-104576252D01*
X152708514Y-104582631D01*
X152715328Y-104583000D01*
X152741885Y-104583000D01*
X152757124Y-104578525D01*
X152758329Y-104577135D01*
X152760000Y-104569452D01*
X152760000Y-104132213D01*
X152780002Y-104064092D01*
X152807937Y-104039886D01*
X152800989Y-104036713D01*
X152762605Y-103976987D01*
X152755525Y-103952876D01*
X152754135Y-103951671D01*
X152746452Y-103950000D01*
X152528115Y-103950000D01*
X152512876Y-103954475D01*
X152511671Y-103955865D01*
X152510000Y-103963548D01*
X152510000Y-104564884D01*
X152110000Y-104564884D01*
X152110000Y-103968115D01*
X152105525Y-103952876D01*
X152104135Y-103951671D01*
X152096452Y-103950000D01*
X151620116Y-103950000D01*
X151604877Y-103954475D01*
X151603672Y-103955865D01*
X151602001Y-103963548D01*
X151602001Y-104119669D01*
X151300511Y-104119669D01*
X151300511Y-101631885D01*
X151602000Y-101631885D01*
X151606475Y-101647124D01*
X151607865Y-101648329D01*
X151615548Y-101650000D01*
X152091885Y-101650000D01*
X152107124Y-101645525D01*
X152108329Y-101644135D01*
X152110000Y-101636452D01*
X152110000Y-101072115D01*
X152105525Y-101056876D01*
X152104135Y-101055671D01*
X152096452Y-101054000D01*
X151711576Y-101054000D01*
X151696781Y-101058344D01*
X151694937Y-101068776D01*
X151696687Y-101078355D01*
X151710756Y-101126780D01*
X151710554Y-101197776D01*
X151690585Y-101237499D01*
X151665214Y-101271352D01*
X151656676Y-101286946D01*
X151611522Y-101407394D01*
X151607895Y-101422649D01*
X151602369Y-101473514D01*
X151602000Y-101480328D01*
X151602000Y-101631885D01*
X151300511Y-101631885D01*
X151300511Y-100529609D01*
X151695232Y-100529609D01*
X151698052Y-100543031D01*
X151709513Y-100546000D01*
X152207885Y-100546000D01*
X152223124Y-100541525D01*
X152224329Y-100540135D01*
X152226000Y-100532452D01*
X152226000Y-100006442D01*
X152222027Y-99992911D01*
X152214129Y-99991776D01*
X152088216Y-100028357D01*
X152073780Y-100034604D01*
X151946501Y-100109876D01*
X151934074Y-100119516D01*
X151829516Y-100224074D01*
X151819876Y-100236501D01*
X151744604Y-100363780D01*
X151738357Y-100378216D01*
X151696688Y-100521641D01*
X151695232Y-100529609D01*
X151300511Y-100529609D01*
X151300511Y-89679669D01*
X151592001Y-89679669D01*
X151592371Y-89686490D01*
X151597895Y-89737352D01*
X151601521Y-89752604D01*
X151646676Y-89873054D01*
X151655214Y-89888649D01*
X151731715Y-89990724D01*
X151744276Y-90003285D01*
X151846351Y-90079786D01*
X151861946Y-90088324D01*
X151982394Y-90133478D01*
X151997649Y-90137105D01*
X152048514Y-90142631D01*
X152055328Y-90143000D01*
X152081885Y-90143000D01*
X152097124Y-90138525D01*
X152098329Y-90137135D01*
X152100000Y-90129452D01*
X152100000Y-90124884D01*
X152500000Y-90124884D01*
X152504475Y-90140123D01*
X152505865Y-90141328D01*
X152513548Y-90142999D01*
X152544669Y-90142999D01*
X152551490Y-90142629D01*
X152610207Y-90136252D01*
X152610467Y-90138647D01*
X152639533Y-90138649D01*
X152639793Y-90136252D01*
X152698514Y-90142631D01*
X152705328Y-90143000D01*
X152731885Y-90143000D01*
X152747124Y-90138525D01*
X152748329Y-90137135D01*
X152750000Y-90129452D01*
X152750000Y-89692213D01*
X152770002Y-89624092D01*
X152797937Y-89599886D01*
X152790989Y-89596713D01*
X152752605Y-89536987D01*
X152745525Y-89512876D01*
X152744135Y-89511671D01*
X152736452Y-89510000D01*
X152518115Y-89510000D01*
X152502876Y-89514475D01*
X152501671Y-89515865D01*
X152500000Y-89523548D01*
X152500000Y-90124884D01*
X152100000Y-90124884D01*
X152100000Y-89528115D01*
X152095525Y-89512876D01*
X152094135Y-89511671D01*
X152086452Y-89510000D01*
X151610116Y-89510000D01*
X151594877Y-89514475D01*
X151593672Y-89515865D01*
X151592001Y-89523548D01*
X151592001Y-89679669D01*
X151300511Y-89679669D01*
X151300511Y-87191885D01*
X151592000Y-87191885D01*
X151596475Y-87207124D01*
X151597865Y-87208329D01*
X151605548Y-87210000D01*
X152081885Y-87210000D01*
X152097124Y-87205525D01*
X152098329Y-87204135D01*
X152100000Y-87196452D01*
X152100000Y-86660064D01*
X152120002Y-86591943D01*
X152173658Y-86545450D01*
X152190501Y-86539168D01*
X152213124Y-86532525D01*
X152214329Y-86531135D01*
X152216000Y-86523452D01*
X152216000Y-86072115D01*
X152211525Y-86056876D01*
X152210135Y-86055671D01*
X152202452Y-86054000D01*
X151701576Y-86054000D01*
X151686781Y-86058344D01*
X151684937Y-86068775D01*
X151686688Y-86078359D01*
X151728357Y-86221784D01*
X151734604Y-86236220D01*
X151809876Y-86363499D01*
X151819516Y-86375926D01*
X151880915Y-86437325D01*
X151914941Y-86499637D01*
X151909876Y-86570452D01*
X151867329Y-86627288D01*
X151852334Y-86636937D01*
X151846357Y-86640209D01*
X151744276Y-86716715D01*
X151731715Y-86729276D01*
X151655214Y-86831351D01*
X151646676Y-86846946D01*
X151601522Y-86967394D01*
X151597895Y-86982649D01*
X151592369Y-87033514D01*
X151592000Y-87040328D01*
X151592000Y-87191885D01*
X151300511Y-87191885D01*
X151300511Y-85529609D01*
X151685232Y-85529609D01*
X151688052Y-85543031D01*
X151699513Y-85546000D01*
X152197885Y-85546000D01*
X152213124Y-85541525D01*
X152214329Y-85540135D01*
X152216000Y-85532452D01*
X152216000Y-85006442D01*
X152212027Y-84992911D01*
X152204129Y-84991776D01*
X152078216Y-85028357D01*
X152063780Y-85034604D01*
X151936501Y-85109876D01*
X151924074Y-85119516D01*
X151819516Y-85224074D01*
X151809876Y-85236501D01*
X151734604Y-85363780D01*
X151728357Y-85378216D01*
X151686688Y-85521641D01*
X151685232Y-85529609D01*
X151300511Y-85529609D01*
X151300511Y-74879669D01*
X151642001Y-74879669D01*
X151642371Y-74886490D01*
X151647895Y-74937352D01*
X151651521Y-74952604D01*
X151696676Y-75073054D01*
X151705214Y-75088649D01*
X151781715Y-75190724D01*
X151794276Y-75203285D01*
X151896351Y-75279786D01*
X151911946Y-75288324D01*
X152032394Y-75333478D01*
X152047649Y-75337105D01*
X152098514Y-75342631D01*
X152105328Y-75343000D01*
X152131885Y-75343000D01*
X152147124Y-75338525D01*
X152148329Y-75337135D01*
X152150000Y-75329452D01*
X152150000Y-74728115D01*
X152145525Y-74712876D01*
X152144135Y-74711671D01*
X152136452Y-74710000D01*
X151660116Y-74710000D01*
X151644877Y-74714475D01*
X151643672Y-74715865D01*
X151642001Y-74723548D01*
X151642001Y-74879669D01*
X151300511Y-74879669D01*
X151300511Y-72391885D01*
X151642000Y-72391885D01*
X151646475Y-72407124D01*
X151647865Y-72408329D01*
X151655548Y-72410000D01*
X152131885Y-72410000D01*
X152147124Y-72405525D01*
X152148329Y-72404135D01*
X152150000Y-72396452D01*
X152150000Y-71860064D01*
X152170002Y-71791943D01*
X152223658Y-71745450D01*
X152240501Y-71739168D01*
X152263124Y-71732525D01*
X152264329Y-71731135D01*
X152266000Y-71723452D01*
X152266000Y-71472115D01*
X152261525Y-71456876D01*
X152260135Y-71455671D01*
X152252452Y-71454000D01*
X151751576Y-71454000D01*
X151736781Y-71458344D01*
X151734937Y-71468775D01*
X151736688Y-71478359D01*
X151778357Y-71621784D01*
X151784604Y-71636220D01*
X151845016Y-71738372D01*
X151862475Y-71807189D01*
X151839958Y-71874520D01*
X151812125Y-71903339D01*
X151794274Y-71916717D01*
X151781715Y-71929276D01*
X151705214Y-72031351D01*
X151696676Y-72046946D01*
X151651522Y-72167394D01*
X151647895Y-72182649D01*
X151642369Y-72233514D01*
X151642000Y-72240328D01*
X151642000Y-72391885D01*
X151300511Y-72391885D01*
X151300511Y-70929609D01*
X151735232Y-70929609D01*
X151738052Y-70943031D01*
X151749513Y-70946000D01*
X152247885Y-70946000D01*
X152263124Y-70941525D01*
X152264329Y-70940135D01*
X152266000Y-70932452D01*
X152266000Y-70406442D01*
X152262027Y-70392911D01*
X152254129Y-70391776D01*
X152128216Y-70428357D01*
X152113780Y-70434604D01*
X151986501Y-70509876D01*
X151974074Y-70519516D01*
X151869516Y-70624074D01*
X151859876Y-70636501D01*
X151784604Y-70763780D01*
X151778357Y-70778216D01*
X151736688Y-70921641D01*
X151735232Y-70929609D01*
X151300511Y-70929609D01*
X151300511Y-65000000D01*
X152149500Y-65000000D01*
X152149500Y-67310007D01*
G37*
%TD.AperFunction*%
%TA.AperFunction,Conductor*%
G36*
X155505732Y-65013179D02*
G01*
X155494865Y-65025570D01*
X154325570Y-66194865D01*
X154313179Y-66205732D01*
X154289549Y-66223864D01*
X154266391Y-66254044D01*
X154266388Y-66254047D01*
X154197302Y-66344082D01*
X154139313Y-66484079D01*
X154124500Y-66596595D01*
X154124500Y-66596601D01*
X154119535Y-66634315D01*
X154120613Y-66642503D01*
X154120613Y-66642504D01*
X154123422Y-66663841D01*
X154124500Y-66680287D01*
X154124500Y-67581618D01*
X154104498Y-67649739D01*
X154050842Y-67696232D01*
X153983582Y-67706732D01*
X153916719Y-67698759D01*
X153886882Y-67695201D01*
X153821609Y-67667273D01*
X153812706Y-67659182D01*
X153287405Y-67133881D01*
X153253379Y-67071569D01*
X153250500Y-67044786D01*
X153250500Y-65000000D01*
X155515845Y-65000000D01*
X155505732Y-65013179D01*
G37*
%TD.AperFunction*%
%TD*%
%TA.AperFunction,Conductor*%
%TO.N,GND*%
G36*
X151000418Y-61385502D02*
G01*
X151038126Y-61424229D01*
X151039695Y-61427855D01*
X151049158Y-61439541D01*
X151061645Y-61458125D01*
X151068893Y-61471308D01*
X151075897Y-61479422D01*
X151100433Y-61503958D01*
X151109258Y-61513759D01*
X151126866Y-61535502D01*
X151134614Y-61545070D01*
X151141612Y-61550043D01*
X151141617Y-61550048D01*
X151149948Y-61555968D01*
X151166054Y-61569579D01*
X152112595Y-62516120D01*
X152146621Y-62578432D01*
X152149500Y-62605215D01*
X152149500Y-65874000D01*
X152129498Y-65942121D01*
X152075842Y-65988614D01*
X152023500Y-66000000D01*
X151426511Y-66000000D01*
X151358390Y-65979998D01*
X151311897Y-65926342D01*
X151300511Y-65874000D01*
X151300511Y-64065004D01*
X151300622Y-64059728D01*
X151302861Y-64006302D01*
X151303221Y-63997717D01*
X151300249Y-63985046D01*
X151293284Y-63955349D01*
X151291121Y-63943678D01*
X151286383Y-63909092D01*
X151285217Y-63900579D01*
X151279246Y-63886781D01*
X151272212Y-63865512D01*
X151270740Y-63859236D01*
X151268779Y-63850875D01*
X151264642Y-63843350D01*
X151264641Y-63843347D01*
X151247816Y-63812743D01*
X151242600Y-63802098D01*
X151225316Y-63762156D01*
X151215853Y-63750470D01*
X151203365Y-63731885D01*
X151200358Y-63726416D01*
X151196118Y-63718703D01*
X151189114Y-63710589D01*
X151164578Y-63686053D01*
X151155753Y-63676252D01*
X151135805Y-63651619D01*
X151135804Y-63651618D01*
X151130397Y-63644941D01*
X151123399Y-63639968D01*
X151123394Y-63639963D01*
X151115063Y-63634043D01*
X151098957Y-63620432D01*
X150178025Y-62699500D01*
X149209119Y-61730595D01*
X149175094Y-61668283D01*
X149180158Y-61597468D01*
X149222705Y-61540632D01*
X149289225Y-61515821D01*
X149298214Y-61515500D01*
X150329760Y-61515499D01*
X150351518Y-61515499D01*
X150362505Y-61513759D01*
X150435506Y-61502198D01*
X150435508Y-61502197D01*
X150445304Y-61500646D01*
X150558342Y-61443050D01*
X150598987Y-61402405D01*
X150661299Y-61368379D01*
X150688082Y-61365500D01*
X150932297Y-61365500D01*
X151000418Y-61385502D01*
G37*
%TD.AperFunction*%
%TA.AperFunction,Conductor*%
G36*
X155342530Y-60840161D02*
G01*
X155399366Y-60882708D01*
X155424177Y-60949228D01*
X155424498Y-60958217D01*
X155424498Y-63560005D01*
X155424387Y-63565281D01*
X155421788Y-63627292D01*
X155423750Y-63635657D01*
X155431725Y-63669660D01*
X155433888Y-63681331D01*
X155434953Y-63689103D01*
X155439792Y-63724430D01*
X155443204Y-63732314D01*
X155443204Y-63732315D01*
X155445763Y-63738228D01*
X155452797Y-63759497D01*
X155456230Y-63774134D01*
X155460367Y-63781659D01*
X155460368Y-63781662D01*
X155477193Y-63812266D01*
X155482409Y-63822911D01*
X155499693Y-63862853D01*
X155509156Y-63874539D01*
X155521643Y-63893123D01*
X155528891Y-63906306D01*
X155535895Y-63914420D01*
X155560431Y-63938956D01*
X155569256Y-63948757D01*
X155589204Y-63973390D01*
X155594612Y-63980068D01*
X155601610Y-63985041D01*
X155601615Y-63985046D01*
X155609946Y-63990966D01*
X155626052Y-64004577D01*
X156128127Y-64506652D01*
X156162153Y-64568964D01*
X156157088Y-64639779D01*
X156114541Y-64696615D01*
X156105058Y-64703062D01*
X156004045Y-64765206D01*
X155999010Y-64770137D01*
X155999007Y-64770139D01*
X155980812Y-64787956D01*
X155918146Y-64821326D01*
X155909103Y-64822854D01*
X155896609Y-64824499D01*
X155896600Y-64824500D01*
X155896595Y-64824500D01*
X155784079Y-64839313D01*
X155644082Y-64897302D01*
X155554047Y-64966388D01*
X155554044Y-64966391D01*
X155523864Y-64989549D01*
X155518838Y-64996099D01*
X155505732Y-65013179D01*
X155494865Y-65025570D01*
X154557340Y-65963095D01*
X154495028Y-65997121D01*
X154468245Y-66000000D01*
X153376500Y-66000000D01*
X153308379Y-65979998D01*
X153261886Y-65926342D01*
X153250500Y-65874000D01*
X153250500Y-62339993D01*
X153250611Y-62334717D01*
X153252850Y-62281291D01*
X153253210Y-62272706D01*
X153246441Y-62243846D01*
X153243273Y-62230338D01*
X153241110Y-62218667D01*
X153238190Y-62197353D01*
X153235206Y-62175568D01*
X153229235Y-62161770D01*
X153222201Y-62140501D01*
X153220730Y-62134228D01*
X153220729Y-62134226D01*
X153218768Y-62125864D01*
X153197805Y-62087734D01*
X153192583Y-62077073D01*
X153178716Y-62045027D01*
X153178715Y-62045026D01*
X153175305Y-62037145D01*
X153165842Y-62025459D01*
X153153351Y-62006871D01*
X153146106Y-61993692D01*
X153139102Y-61985578D01*
X153114567Y-61961043D01*
X153105742Y-61951242D01*
X153085794Y-61926608D01*
X153085793Y-61926607D01*
X153080386Y-61919930D01*
X153073384Y-61914954D01*
X153073382Y-61914952D01*
X153065051Y-61909032D01*
X153048945Y-61895421D01*
X152884119Y-61730595D01*
X152850093Y-61668283D01*
X152855158Y-61597468D01*
X152897705Y-61540632D01*
X152964225Y-61515821D01*
X152973214Y-61515500D01*
X153684969Y-61515499D01*
X153701518Y-61515499D01*
X153712505Y-61513759D01*
X153785506Y-61502198D01*
X153785508Y-61502197D01*
X153795304Y-61500646D01*
X153908342Y-61443050D01*
X153998050Y-61353342D01*
X153999625Y-61350252D01*
X154053011Y-61309085D01*
X154098724Y-61300500D01*
X154535007Y-61300500D01*
X154540284Y-61300611D01*
X154602294Y-61303210D01*
X154613848Y-61300500D01*
X154644662Y-61293273D01*
X154656333Y-61291110D01*
X154671229Y-61289069D01*
X154699432Y-61285206D01*
X154713230Y-61279235D01*
X154734499Y-61272201D01*
X154740775Y-61270729D01*
X154749136Y-61268768D01*
X154756661Y-61264631D01*
X154756664Y-61264630D01*
X154787268Y-61247805D01*
X154797913Y-61242589D01*
X154837855Y-61225305D01*
X154849541Y-61215842D01*
X154868126Y-61203354D01*
X154875518Y-61199290D01*
X154881308Y-61196107D01*
X154889422Y-61189103D01*
X154913958Y-61164567D01*
X154923759Y-61155742D01*
X154948392Y-61135794D01*
X154948393Y-61135793D01*
X154955070Y-61130386D01*
X154965966Y-61115054D01*
X154979576Y-61098949D01*
X155092260Y-60986265D01*
X155209403Y-60869121D01*
X155271715Y-60835097D01*
X155342530Y-60840161D01*
G37*
%TD.AperFunction*%
%TA.AperFunction,Conductor*%
G36*
X133042121Y-40920002D02*
G01*
X133088614Y-40973658D01*
X133100000Y-41026000D01*
X133100000Y-42458602D01*
X133098449Y-42478311D01*
X133095014Y-42500000D01*
X133100000Y-42531481D01*
X133114835Y-42625148D01*
X133172359Y-42738045D01*
X133261955Y-42827641D01*
X133374852Y-42885165D01*
X133500000Y-42904986D01*
X133521689Y-42901551D01*
X133541398Y-42900000D01*
X139458602Y-42900000D01*
X139478311Y-42901551D01*
X139500000Y-42904986D01*
X139531481Y-42900000D01*
X139625148Y-42885165D01*
X139738045Y-42827641D01*
X139827641Y-42738045D01*
X139885165Y-42625148D01*
X139904986Y-42500000D01*
X139901551Y-42478311D01*
X139900000Y-42458602D01*
X139900000Y-41026000D01*
X139920002Y-40957879D01*
X139973658Y-40911386D01*
X140026000Y-40900000D01*
X141703762Y-40900000D01*
X141771883Y-40920002D01*
X141818376Y-40973658D01*
X141828480Y-41043932D01*
X141816029Y-41083203D01*
X141797951Y-41118684D01*
X141766354Y-41180696D01*
X141751500Y-41274481D01*
X141751501Y-43037518D01*
X141752276Y-43042411D01*
X141752276Y-43042412D01*
X141756698Y-43070331D01*
X141766354Y-43131304D01*
X141823950Y-43244342D01*
X141913658Y-43334050D01*
X142026696Y-43391646D01*
X142036485Y-43393196D01*
X142036487Y-43393197D01*
X142063849Y-43397530D01*
X142120481Y-43406500D01*
X142263796Y-43406500D01*
X142331917Y-43426502D01*
X142378410Y-43480158D01*
X142388514Y-43550432D01*
X142359020Y-43615012D01*
X142336066Y-43635713D01*
X142195123Y-43734402D01*
X142040402Y-43889123D01*
X141914898Y-44068362D01*
X141912577Y-44073340D01*
X141912575Y-44073343D01*
X141855134Y-44196526D01*
X141822425Y-44266670D01*
X141821003Y-44271978D01*
X141821002Y-44271980D01*
X141811687Y-44306743D01*
X141765793Y-44478023D01*
X141746723Y-44696000D01*
X141765793Y-44913977D01*
X141822425Y-45125330D01*
X141824747Y-45130310D01*
X141824748Y-45130312D01*
X141911179Y-45315662D01*
X141914898Y-45323638D01*
X142040402Y-45502877D01*
X142195123Y-45657598D01*
X142199631Y-45660755D01*
X142199634Y-45660757D01*
X142338063Y-45757686D01*
X142374361Y-45783102D01*
X142379343Y-45785425D01*
X142379348Y-45785428D01*
X142521695Y-45851805D01*
X142574980Y-45898722D01*
X142594441Y-45967000D01*
X142573899Y-46034960D01*
X142521695Y-46080195D01*
X142379343Y-46146575D01*
X142379340Y-46146577D01*
X142374362Y-46148898D01*
X142195123Y-46274402D01*
X142040402Y-46429123D01*
X141914898Y-46608362D01*
X141912577Y-46613340D01*
X141912575Y-46613343D01*
X141848051Y-46751715D01*
X141822425Y-46806670D01*
X141821003Y-46811978D01*
X141821002Y-46811980D01*
X141806810Y-46864946D01*
X141765793Y-47018023D01*
X141746723Y-47236000D01*
X141765793Y-47453977D01*
X141822425Y-47665330D01*
X141824747Y-47670310D01*
X141824748Y-47670312D01*
X141912556Y-47858615D01*
X141914898Y-47863638D01*
X142040402Y-48042877D01*
X142195123Y-48197598D01*
X142199631Y-48200755D01*
X142199634Y-48200757D01*
X142369594Y-48319764D01*
X142374361Y-48323102D01*
X142379343Y-48325425D01*
X142379348Y-48325428D01*
X142394663Y-48332569D01*
X142447948Y-48379486D01*
X142467409Y-48447764D01*
X142446867Y-48515724D01*
X142399593Y-48558527D01*
X142280463Y-48620542D01*
X142271738Y-48626036D01*
X142101433Y-48753905D01*
X142093726Y-48760748D01*
X141946590Y-48914717D01*
X141940104Y-48922727D01*
X141820098Y-49098649D01*
X141815000Y-49107623D01*
X141725338Y-49300783D01*
X141721775Y-49310470D01*
X141666389Y-49510183D01*
X141667912Y-49518607D01*
X141680292Y-49522000D01*
X144320344Y-49522000D01*
X144333875Y-49518027D01*
X144335180Y-49508947D01*
X144293214Y-49341875D01*
X144289894Y-49332124D01*
X144204972Y-49136814D01*
X144200105Y-49127739D01*
X144162714Y-49069940D01*
X144142507Y-49001880D01*
X144162303Y-48933699D01*
X144215819Y-48887045D01*
X144268506Y-48875500D01*
X145108500Y-48875500D01*
X145176621Y-48895502D01*
X145223114Y-48949158D01*
X145234500Y-49001500D01*
X145234501Y-49677672D01*
X145234501Y-50351518D01*
X145235276Y-50356411D01*
X145235276Y-50356412D01*
X145242259Y-50400502D01*
X145249354Y-50445304D01*
X145306950Y-50558342D01*
X145396658Y-50648050D01*
X145509696Y-50705646D01*
X145519485Y-50707196D01*
X145519487Y-50707197D01*
X145546849Y-50711530D01*
X145603481Y-50720500D01*
X145934933Y-50720500D01*
X146266518Y-50720499D01*
X146271412Y-50719724D01*
X146350506Y-50707198D01*
X146350508Y-50707197D01*
X146360304Y-50705646D01*
X146382268Y-50694455D01*
X146428449Y-50670924D01*
X146473342Y-50648050D01*
X146480905Y-50640487D01*
X146481740Y-50640031D01*
X146488374Y-50635211D01*
X146488997Y-50636068D01*
X146543217Y-50606461D01*
X146614032Y-50611526D01*
X146651390Y-50635535D01*
X146651626Y-50635211D01*
X146657298Y-50639332D01*
X146659095Y-50640487D01*
X146666658Y-50648050D01*
X146779696Y-50705646D01*
X146789485Y-50707196D01*
X146789487Y-50707197D01*
X146816849Y-50711530D01*
X146873481Y-50720500D01*
X147204933Y-50720500D01*
X147536518Y-50720499D01*
X147541412Y-50719724D01*
X147620506Y-50707198D01*
X147620508Y-50707197D01*
X147630304Y-50705646D01*
X147639142Y-50701143D01*
X147725134Y-50657328D01*
X147794911Y-50644224D01*
X147860696Y-50670924D01*
X147901602Y-50728952D01*
X147907736Y-50757299D01*
X147923400Y-50917054D01*
X147925623Y-50923736D01*
X147925623Y-50923737D01*
X147967751Y-51050379D01*
X147980087Y-51087464D01*
X147983734Y-51093486D01*
X148063893Y-51225844D01*
X148073120Y-51241080D01*
X148078009Y-51246143D01*
X148078010Y-51246144D01*
X148118526Y-51288099D01*
X148197875Y-51370267D01*
X148203771Y-51374125D01*
X148203772Y-51374126D01*
X148260775Y-51411428D01*
X148306824Y-51465466D01*
X148317045Y-51530467D01*
X148312369Y-51573512D01*
X148312000Y-51580328D01*
X148312000Y-51652885D01*
X148316475Y-51668124D01*
X148317865Y-51669329D01*
X148325548Y-51671000D01*
X149698000Y-51671000D01*
X149766121Y-51691002D01*
X149812614Y-51744658D01*
X149824000Y-51797000D01*
X149824000Y-53323000D01*
X149803998Y-53391121D01*
X149750342Y-53437614D01*
X149698000Y-53449000D01*
X149442000Y-53449000D01*
X149373879Y-53428998D01*
X149327386Y-53375342D01*
X149316000Y-53323000D01*
X149316000Y-52197115D01*
X149311525Y-52181876D01*
X149310135Y-52180671D01*
X149302452Y-52179000D01*
X148330116Y-52179000D01*
X148314877Y-52183475D01*
X148313672Y-52184865D01*
X148312001Y-52192548D01*
X148312001Y-52269669D01*
X148312371Y-52276490D01*
X148317895Y-52327352D01*
X148321521Y-52342604D01*
X148366678Y-52463059D01*
X148375212Y-52478647D01*
X148379549Y-52484434D01*
X148404398Y-52550940D01*
X148389346Y-52620322D01*
X148379549Y-52635566D01*
X148375212Y-52641353D01*
X148366678Y-52656941D01*
X148321522Y-52777394D01*
X148317895Y-52792649D01*
X148312369Y-52843514D01*
X148312000Y-52850328D01*
X148312000Y-52977146D01*
X148291998Y-53045267D01*
X148238342Y-53091760D01*
X148171082Y-53102260D01*
X148112618Y-53095289D01*
X148105624Y-53094455D01*
X148098621Y-53095191D01*
X148098620Y-53095191D01*
X147934025Y-53112490D01*
X147934021Y-53112491D01*
X147927017Y-53113227D01*
X147920346Y-53115498D01*
X147763677Y-53168832D01*
X147763674Y-53168833D01*
X147757007Y-53171103D01*
X147751009Y-53174793D01*
X147751007Y-53174794D01*
X147709574Y-53200284D01*
X147604045Y-53265206D01*
X147599014Y-53270132D01*
X147599011Y-53270135D01*
X147541345Y-53326606D01*
X147475732Y-53390859D01*
X147471913Y-53396784D01*
X147471912Y-53396786D01*
X147422416Y-53473589D01*
X147378446Y-53541817D01*
X147376037Y-53548437D01*
X147376035Y-53548440D01*
X147366443Y-53574794D01*
X147317022Y-53710578D01*
X147306881Y-53790859D01*
X147305184Y-53804291D01*
X147276802Y-53869368D01*
X147217743Y-53908770D01*
X147180177Y-53914500D01*
X146412043Y-53914500D01*
X146343922Y-53894498D01*
X146297429Y-53840842D01*
X146287325Y-53770568D01*
X146312911Y-53713347D01*
X146312100Y-53712808D01*
X146315316Y-53707968D01*
X146315317Y-53707967D01*
X146411484Y-53563223D01*
X146445533Y-53473589D01*
X146472758Y-53401920D01*
X146472759Y-53401915D01*
X146475258Y-53395337D01*
X146476470Y-53386716D01*
X146499701Y-53221417D01*
X146499701Y-53221412D01*
X146500252Y-53217494D01*
X146500467Y-53202080D01*
X146500511Y-53198964D01*
X146500511Y-53198959D01*
X146500566Y-53195001D01*
X146500124Y-53191064D01*
X146500124Y-53191056D01*
X146498352Y-53175256D01*
X146510637Y-53105331D01*
X146558777Y-53053148D01*
X146627487Y-53035275D01*
X146640225Y-53036320D01*
X146695451Y-53043689D01*
X146776149Y-53054457D01*
X146776153Y-53054457D01*
X146783130Y-53055388D01*
X146790142Y-53054750D01*
X146790146Y-53054750D01*
X146954960Y-53039751D01*
X146954961Y-53039751D01*
X146961981Y-53039112D01*
X147112491Y-52990208D01*
X147126082Y-52985792D01*
X147132782Y-52983615D01*
X147207073Y-52939329D01*
X147280992Y-52895265D01*
X147280994Y-52895264D01*
X147287044Y-52891657D01*
X147417099Y-52767807D01*
X147425608Y-52755001D01*
X147480071Y-52673026D01*
X147516483Y-52618222D01*
X147533222Y-52574157D01*
X147577757Y-52456919D01*
X147577758Y-52456914D01*
X147580257Y-52450336D01*
X147584319Y-52421432D01*
X147604700Y-52276416D01*
X147604700Y-52276411D01*
X147605251Y-52272493D01*
X147605565Y-52250000D01*
X147585546Y-52071528D01*
X147571630Y-52031565D01*
X147555584Y-51985489D01*
X147526485Y-51901927D01*
X147506303Y-51869628D01*
X147435049Y-51755599D01*
X147431316Y-51749625D01*
X147367771Y-51685635D01*
X147309733Y-51627190D01*
X147309729Y-51627187D01*
X147304770Y-51622193D01*
X147274748Y-51603140D01*
X147216008Y-51565863D01*
X147153136Y-51525963D01*
X147111641Y-51511187D01*
X146995820Y-51469945D01*
X146961910Y-51451610D01*
X146954630Y-51446084D01*
X146954625Y-51446081D01*
X146947783Y-51440888D01*
X146933804Y-51435354D01*
X146913801Y-51425293D01*
X146901014Y-51417365D01*
X146892763Y-51414968D01*
X146892761Y-51414967D01*
X146859228Y-51405225D01*
X146847995Y-51401379D01*
X146840830Y-51398542D01*
X146807547Y-51385364D01*
X146799006Y-51384466D01*
X146799005Y-51384466D01*
X146792592Y-51383792D01*
X146770617Y-51379480D01*
X146756175Y-51375285D01*
X146748692Y-51374736D01*
X146747792Y-51374669D01*
X146747781Y-51374669D01*
X146745485Y-51374500D01*
X146710783Y-51374500D01*
X146697613Y-51373810D01*
X146687384Y-51372735D01*
X146657546Y-51369599D01*
X146649081Y-51371031D01*
X146649072Y-51371031D01*
X146639000Y-51372735D01*
X146617987Y-51374500D01*
X145288082Y-51374500D01*
X145219961Y-51354498D01*
X145198987Y-51337595D01*
X145158342Y-51296950D01*
X145045304Y-51239354D01*
X145035515Y-51237804D01*
X145035513Y-51237803D01*
X145008151Y-51233470D01*
X144951519Y-51224500D01*
X144925031Y-51224500D01*
X143675796Y-51224501D01*
X143607676Y-51204499D01*
X143561183Y-51150843D01*
X143551079Y-51080569D01*
X143580572Y-51015989D01*
X143620364Y-50985350D01*
X143695095Y-50948739D01*
X143703945Y-50943464D01*
X143877328Y-50819792D01*
X143885200Y-50813139D01*
X144036052Y-50662812D01*
X144042730Y-50654965D01*
X144167003Y-50482020D01*
X144172313Y-50473183D01*
X144266670Y-50282267D01*
X144270469Y-50272672D01*
X144332377Y-50068910D01*
X144334555Y-50058837D01*
X144335986Y-50047962D01*
X144333775Y-50033778D01*
X144320617Y-50030000D01*
X141685225Y-50030000D01*
X141671694Y-50033973D01*
X141670257Y-50043966D01*
X141700565Y-50178446D01*
X141703645Y-50188275D01*
X141783770Y-50385603D01*
X141788413Y-50394794D01*
X141899694Y-50576388D01*
X141905777Y-50584699D01*
X142045213Y-50745667D01*
X142052580Y-50752883D01*
X142216434Y-50888916D01*
X142224881Y-50894831D01*
X142408756Y-51002279D01*
X142418042Y-51006729D01*
X142617001Y-51082703D01*
X142626899Y-51085579D01*
X142822326Y-51125339D01*
X142885092Y-51158521D01*
X142919954Y-51220369D01*
X142915845Y-51291246D01*
X142874068Y-51348651D01*
X142822079Y-51369122D01*
X142822705Y-51371790D01*
X142804026Y-51376171D01*
X142775256Y-51379500D01*
X142578416Y-51379501D01*
X142523394Y-51379501D01*
X142519636Y-51379956D01*
X142519631Y-51379956D01*
X142448799Y-51388527D01*
X142436064Y-51390068D01*
X142428541Y-51393046D01*
X142428539Y-51393047D01*
X142377904Y-51413095D01*
X142299649Y-51444078D01*
X142266178Y-51469484D01*
X142199828Y-51494737D01*
X142130354Y-51480109D01*
X142113829Y-51469489D01*
X142080351Y-51444078D01*
X142002096Y-51413095D01*
X141951466Y-51393049D01*
X141951464Y-51393048D01*
X141943936Y-51390068D01*
X141856607Y-51379500D01*
X141680117Y-51379500D01*
X141503394Y-51379501D01*
X141499636Y-51379956D01*
X141499631Y-51379956D01*
X141428799Y-51388527D01*
X141416064Y-51390068D01*
X141408541Y-51393046D01*
X141408539Y-51393047D01*
X141357904Y-51413095D01*
X141279649Y-51444078D01*
X141162784Y-51532784D01*
X141074078Y-51649649D01*
X141065625Y-51671000D01*
X141024522Y-51774815D01*
X141020068Y-51786064D01*
X141009500Y-51873393D01*
X141009501Y-52326606D01*
X141009956Y-52330364D01*
X141009956Y-52330369D01*
X141018758Y-52403108D01*
X141020068Y-52413936D01*
X141023046Y-52421459D01*
X141023047Y-52421461D01*
X141034818Y-52451190D01*
X141074078Y-52550351D01*
X141079270Y-52557191D01*
X141079964Y-52558423D01*
X141095979Y-52627590D01*
X141087343Y-52666659D01*
X141043049Y-52778534D01*
X141040068Y-52786064D01*
X141029500Y-52873393D01*
X141029501Y-53326606D01*
X141029955Y-53330362D01*
X141029956Y-53330371D01*
X141038812Y-53403559D01*
X141027137Y-53473589D01*
X140979455Y-53526190D01*
X140954329Y-53537972D01*
X140863677Y-53568832D01*
X140863674Y-53568833D01*
X140857007Y-53571103D01*
X140851009Y-53574793D01*
X140851007Y-53574794D01*
X140813625Y-53597792D01*
X140704045Y-53665206D01*
X140699014Y-53670132D01*
X140699011Y-53670135D01*
X140646596Y-53721464D01*
X140575732Y-53790859D01*
X140571913Y-53796784D01*
X140571912Y-53796786D01*
X140482265Y-53935891D01*
X140478446Y-53941817D01*
X140476037Y-53948437D01*
X140476035Y-53948440D01*
X140465016Y-53978716D01*
X140417022Y-54110578D01*
X140414747Y-54128588D01*
X140399648Y-54248114D01*
X140374608Y-54309020D01*
X140366392Y-54319728D01*
X140366389Y-54319731D01*
X140316180Y-54385165D01*
X140297303Y-54409766D01*
X140239314Y-54549763D01*
X140224501Y-54662279D01*
X140224501Y-54662285D01*
X140219536Y-54699999D01*
X140220614Y-54708187D01*
X140220614Y-54708188D01*
X140223423Y-54729525D01*
X140224501Y-54745971D01*
X140224501Y-59654029D01*
X140223423Y-59670475D01*
X140219536Y-59700001D01*
X140224501Y-59737715D01*
X140224501Y-59737721D01*
X140239314Y-59850237D01*
X140242473Y-59857864D01*
X140242474Y-59857867D01*
X140272235Y-59929716D01*
X140282895Y-59955451D01*
X140297303Y-59990234D01*
X140366389Y-60080269D01*
X140366392Y-60080272D01*
X140389550Y-60110452D01*
X140396100Y-60115478D01*
X140413180Y-60128584D01*
X140425571Y-60139451D01*
X141460550Y-61174430D01*
X141471417Y-61186821D01*
X141489549Y-61210451D01*
X141519729Y-61233609D01*
X141519732Y-61233612D01*
X141609768Y-61302699D01*
X141671319Y-61328194D01*
X141749764Y-61360687D01*
X141757952Y-61361765D01*
X141839698Y-61372527D01*
X141862280Y-61375500D01*
X141900000Y-61380466D01*
X141908188Y-61379388D01*
X141908189Y-61379388D01*
X141929533Y-61376578D01*
X141945979Y-61375500D01*
X143061918Y-61375500D01*
X143130039Y-61395502D01*
X143151013Y-61412405D01*
X143181658Y-61443050D01*
X143294696Y-61500646D01*
X143304485Y-61502196D01*
X143304487Y-61502197D01*
X143331849Y-61506530D01*
X143388481Y-61515500D01*
X144169842Y-61515500D01*
X144951518Y-61515499D01*
X144962505Y-61513759D01*
X145035506Y-61502198D01*
X145035508Y-61502197D01*
X145045304Y-61500646D01*
X145158342Y-61443050D01*
X145173987Y-61427405D01*
X145236299Y-61393379D01*
X145263082Y-61390500D01*
X147064028Y-61390500D01*
X147080474Y-61391578D01*
X147101811Y-61394387D01*
X147101812Y-61394387D01*
X147110000Y-61395465D01*
X147118188Y-61394387D01*
X147118190Y-61394387D01*
X147147709Y-61390501D01*
X147147719Y-61390500D01*
X147147720Y-61390500D01*
X147260236Y-61375687D01*
X147400233Y-61317698D01*
X147421806Y-61301145D01*
X147488025Y-61275544D01*
X147557574Y-61289808D01*
X147608370Y-61339408D01*
X147624510Y-61401107D01*
X147624510Y-61460017D01*
X147624399Y-61465293D01*
X147621800Y-61527304D01*
X147623762Y-61535669D01*
X147631737Y-61569672D01*
X147633900Y-61581343D01*
X147639804Y-61624442D01*
X147643216Y-61632326D01*
X147643216Y-61632327D01*
X147645775Y-61638240D01*
X147652809Y-61659509D01*
X147656242Y-61674146D01*
X147660379Y-61681671D01*
X147660380Y-61681674D01*
X147677205Y-61712278D01*
X147682421Y-61722923D01*
X147699705Y-61762865D01*
X147709168Y-61774551D01*
X147721655Y-61793135D01*
X147728903Y-61806318D01*
X147735907Y-61814432D01*
X147760443Y-61838968D01*
X147769268Y-61848769D01*
X147781800Y-61864244D01*
X147794624Y-61880080D01*
X147801622Y-61885053D01*
X147801627Y-61885058D01*
X147809958Y-61890978D01*
X147826064Y-61904589D01*
X148060907Y-62139432D01*
X148639557Y-62718081D01*
X149064216Y-63142740D01*
X149098242Y-63205052D01*
X149093177Y-63275867D01*
X149050630Y-63332703D01*
X149015726Y-63351113D01*
X148957007Y-63371103D01*
X148951009Y-63374793D01*
X148951007Y-63374794D01*
X148936240Y-63383879D01*
X148804045Y-63465206D01*
X148799014Y-63470132D01*
X148799011Y-63470135D01*
X148746531Y-63521528D01*
X148675732Y-63590859D01*
X148671913Y-63596784D01*
X148671912Y-63596786D01*
X148582265Y-63735891D01*
X148578446Y-63741817D01*
X148576037Y-63748437D01*
X148576035Y-63748440D01*
X148555630Y-63804503D01*
X148517022Y-63910578D01*
X148494514Y-64088753D01*
X148495201Y-64095760D01*
X148495201Y-64095763D01*
X148497134Y-64115474D01*
X148512039Y-64267486D01*
X148514262Y-64274168D01*
X148514262Y-64274169D01*
X148527504Y-64313975D01*
X148568726Y-64437896D01*
X148572373Y-64443918D01*
X148656024Y-64582042D01*
X148661759Y-64591512D01*
X148666648Y-64596575D01*
X148666649Y-64596576D01*
X148708370Y-64639779D01*
X148786514Y-64720699D01*
X148936789Y-64819036D01*
X149105116Y-64881636D01*
X149112097Y-64882567D01*
X149112099Y-64882568D01*
X149276150Y-64904457D01*
X149276153Y-64904457D01*
X149283130Y-64905388D01*
X149282974Y-64906555D01*
X149344045Y-64925886D01*
X149362813Y-64941338D01*
X149612596Y-65191121D01*
X149646622Y-65253433D01*
X149649501Y-65280216D01*
X149649501Y-65874000D01*
X149629499Y-65942121D01*
X149575843Y-65988614D01*
X149523501Y-66000000D01*
X148701500Y-66000000D01*
X148633379Y-65979998D01*
X148586886Y-65926342D01*
X148575500Y-65874000D01*
X148575500Y-65845972D01*
X148576578Y-65829526D01*
X148579387Y-65808189D01*
X148579387Y-65808188D01*
X148580465Y-65800000D01*
X148575500Y-65762286D01*
X148575500Y-65762280D01*
X148560687Y-65649764D01*
X148538009Y-65595014D01*
X148502699Y-65509767D01*
X148433612Y-65419732D01*
X148433609Y-65419729D01*
X148410451Y-65389549D01*
X148386821Y-65371417D01*
X148374430Y-65360550D01*
X147339450Y-64325570D01*
X147328583Y-64313179D01*
X147315477Y-64296099D01*
X147310451Y-64289549D01*
X147280271Y-64266391D01*
X147280268Y-64266388D01*
X147190233Y-64197302D01*
X147111752Y-64164794D01*
X147074829Y-64149500D01*
X147057865Y-64142473D01*
X147050236Y-64139313D01*
X146937720Y-64124500D01*
X146937718Y-64124500D01*
X146937709Y-64124499D01*
X146908190Y-64120613D01*
X146908188Y-64120613D01*
X146900000Y-64119535D01*
X146891812Y-64120613D01*
X146891811Y-64120613D01*
X146870474Y-64123422D01*
X146854028Y-64124500D01*
X146662280Y-64124500D01*
X146549764Y-64139313D01*
X146542133Y-64142474D01*
X146534158Y-64144611D01*
X146533678Y-64142820D01*
X146500109Y-64149500D01*
X145723774Y-64149500D01*
X145655653Y-64129498D01*
X145609160Y-64075842D01*
X145598559Y-64037545D01*
X145594862Y-64004577D01*
X145585546Y-63921528D01*
X145579427Y-63903955D01*
X145545850Y-63807537D01*
X145526485Y-63751927D01*
X145521398Y-63743785D01*
X145435049Y-63605599D01*
X145431316Y-63599625D01*
X145353762Y-63521528D01*
X145309733Y-63477190D01*
X145309729Y-63477187D01*
X145304770Y-63472193D01*
X145293761Y-63465206D01*
X145246860Y-63435442D01*
X145153136Y-63375963D01*
X145085635Y-63351927D01*
X144990586Y-63318081D01*
X144990581Y-63318080D01*
X144983951Y-63315719D01*
X144976965Y-63314886D01*
X144976961Y-63314885D01*
X144849177Y-63299648D01*
X144805624Y-63294455D01*
X144798621Y-63295191D01*
X144798620Y-63295191D01*
X144634025Y-63312490D01*
X144634021Y-63312491D01*
X144627017Y-63313227D01*
X144620346Y-63315498D01*
X144463677Y-63368832D01*
X144463674Y-63368833D01*
X144457007Y-63371103D01*
X144451009Y-63374793D01*
X144451007Y-63374794D01*
X144436240Y-63383879D01*
X144304045Y-63465206D01*
X144299014Y-63470132D01*
X144299011Y-63470135D01*
X144246531Y-63521528D01*
X144175732Y-63590859D01*
X144171913Y-63596784D01*
X144171912Y-63596786D01*
X144082265Y-63735891D01*
X144078446Y-63741817D01*
X144076037Y-63748437D01*
X144076035Y-63748440D01*
X144055630Y-63804503D01*
X144017022Y-63910578D01*
X143994514Y-64088753D01*
X143995201Y-64095760D01*
X143995201Y-64095763D01*
X143997134Y-64115474D01*
X144012039Y-64267486D01*
X144014262Y-64274168D01*
X144014262Y-64274169D01*
X144027504Y-64313975D01*
X144068726Y-64437896D01*
X144072373Y-64443918D01*
X144156024Y-64582042D01*
X144161759Y-64591512D01*
X144166648Y-64596575D01*
X144166649Y-64596576D01*
X144208370Y-64639779D01*
X144286514Y-64720699D01*
X144436789Y-64819036D01*
X144605116Y-64881636D01*
X144612097Y-64882567D01*
X144612099Y-64882568D01*
X144776150Y-64904457D01*
X144776153Y-64904457D01*
X144776487Y-64904502D01*
X144776488Y-64904502D01*
X144783130Y-64905388D01*
X144782974Y-64906555D01*
X144844046Y-64925886D01*
X144862814Y-64941338D01*
X145000119Y-65078643D01*
X145003772Y-65082452D01*
X145045799Y-65128156D01*
X145053099Y-65132682D01*
X145053100Y-65132683D01*
X145082783Y-65151087D01*
X145092553Y-65157801D01*
X145127216Y-65184112D01*
X145141201Y-65189649D01*
X145161209Y-65199713D01*
X145173986Y-65207635D01*
X145182232Y-65210031D01*
X145182235Y-65210032D01*
X145215765Y-65219773D01*
X145226985Y-65223613D01*
X145267453Y-65239636D01*
X145275994Y-65240534D01*
X145275995Y-65240534D01*
X145282408Y-65241208D01*
X145304383Y-65245520D01*
X145318825Y-65249715D01*
X145326308Y-65250265D01*
X145327208Y-65250331D01*
X145327219Y-65250331D01*
X145329515Y-65250500D01*
X145364217Y-65250500D01*
X145377387Y-65251190D01*
X145417454Y-65255401D01*
X145425919Y-65253969D01*
X145425928Y-65253969D01*
X145436000Y-65252265D01*
X145457013Y-65250500D01*
X146500109Y-65250500D01*
X146533678Y-65257180D01*
X146534158Y-65255389D01*
X146542133Y-65257526D01*
X146549764Y-65260687D01*
X146619116Y-65269817D01*
X146684042Y-65298539D01*
X146691764Y-65305644D01*
X146771025Y-65384905D01*
X146805051Y-65447217D01*
X146799986Y-65518032D01*
X146757439Y-65574868D01*
X146690919Y-65599679D01*
X146681930Y-65600000D01*
X144217875Y-65600000D01*
X144149754Y-65579998D01*
X144128780Y-65563095D01*
X131936905Y-53371220D01*
X131902879Y-53308908D01*
X131900000Y-53282125D01*
X131900000Y-53000000D01*
X133095014Y-53000000D01*
X133100000Y-53031481D01*
X133114835Y-53125148D01*
X133172359Y-53238045D01*
X133261955Y-53327641D01*
X133374852Y-53385165D01*
X133384645Y-53386716D01*
X133490157Y-53403427D01*
X133500000Y-53404986D01*
X133521689Y-53401551D01*
X133541398Y-53400000D01*
X139458602Y-53400000D01*
X139478311Y-53401551D01*
X139500000Y-53404986D01*
X139509793Y-53403435D01*
X139531476Y-53400001D01*
X139531481Y-53400000D01*
X139533281Y-53399715D01*
X139560923Y-53395337D01*
X139625148Y-53385165D01*
X139738045Y-53327641D01*
X139827641Y-53238045D01*
X139885165Y-53125148D01*
X139900000Y-53031481D01*
X139904986Y-53000000D01*
X139901551Y-52978311D01*
X139900000Y-52958602D01*
X139900000Y-51041398D01*
X139901551Y-51021687D01*
X139902454Y-51015989D01*
X139904986Y-51000000D01*
X139885165Y-50874852D01*
X139875081Y-50855060D01*
X139832141Y-50770787D01*
X139827641Y-50761955D01*
X139738045Y-50672359D01*
X139665138Y-50635211D01*
X139633982Y-50619336D01*
X139633981Y-50619336D01*
X139625148Y-50614835D01*
X139531481Y-50600000D01*
X139500000Y-50595014D01*
X139478311Y-50598449D01*
X139458602Y-50600000D01*
X133541398Y-50600000D01*
X133521689Y-50598449D01*
X133500000Y-50595014D01*
X133468519Y-50600000D01*
X133374852Y-50614835D01*
X133366019Y-50619336D01*
X133366018Y-50619336D01*
X133334862Y-50635211D01*
X133261955Y-50672359D01*
X133172359Y-50761955D01*
X133167859Y-50770787D01*
X133124920Y-50855060D01*
X133114835Y-50874852D01*
X133095014Y-51000000D01*
X133097547Y-51015989D01*
X133098449Y-51021687D01*
X133100000Y-51041398D01*
X133100000Y-52958602D01*
X133098449Y-52978311D01*
X133095014Y-53000000D01*
X131900000Y-53000000D01*
X131900000Y-41026000D01*
X131920002Y-40957879D01*
X131973658Y-40911386D01*
X132026000Y-40900000D01*
X132974000Y-40900000D01*
X133042121Y-40920002D01*
G37*
%TD.AperFunction*%
%TA.AperFunction,Conductor*%
G36*
X177542121Y-40920002D02*
G01*
X177588614Y-40973658D01*
X177600000Y-41026000D01*
X177600000Y-53782125D01*
X177579998Y-53850246D01*
X177563095Y-53871220D01*
X165871220Y-65563095D01*
X165808908Y-65597121D01*
X165782125Y-65600000D01*
X159467589Y-65600000D01*
X159399468Y-65579998D01*
X159352975Y-65526342D01*
X159342871Y-65456068D01*
X159351181Y-65425780D01*
X159357527Y-65410461D01*
X159357528Y-65410458D01*
X159360687Y-65402831D01*
X159375500Y-65290315D01*
X159375500Y-65290309D01*
X159380465Y-65252595D01*
X159376578Y-65223067D01*
X159375500Y-65206624D01*
X159375500Y-63743570D01*
X159395502Y-63675449D01*
X159449158Y-63628956D01*
X159519432Y-63618852D01*
X159584012Y-63648346D01*
X159590595Y-63654475D01*
X160010550Y-64074430D01*
X160021417Y-64086821D01*
X160039549Y-64110451D01*
X160069729Y-64133609D01*
X160069732Y-64133612D01*
X160145189Y-64191512D01*
X160159767Y-64202698D01*
X160299764Y-64260687D01*
X160307952Y-64261765D01*
X160351408Y-64267486D01*
X160412280Y-64275500D01*
X160412281Y-64275500D01*
X160412291Y-64275501D01*
X160441811Y-64279387D01*
X160450000Y-64280465D01*
X160458188Y-64279387D01*
X160458189Y-64279387D01*
X160479526Y-64276578D01*
X160495972Y-64275500D01*
X160889382Y-64275500D01*
X160957503Y-64295502D01*
X160980020Y-64313975D01*
X160981616Y-64315628D01*
X160981621Y-64315632D01*
X160986514Y-64320699D01*
X161136789Y-64419036D01*
X161305116Y-64481636D01*
X161312097Y-64482567D01*
X161312099Y-64482568D01*
X161476149Y-64504457D01*
X161476153Y-64504457D01*
X161483130Y-64505388D01*
X161490142Y-64504750D01*
X161490146Y-64504750D01*
X161654960Y-64489751D01*
X161654961Y-64489751D01*
X161661981Y-64489112D01*
X161832782Y-64433615D01*
X161863714Y-64415176D01*
X161980992Y-64345265D01*
X161980994Y-64345264D01*
X161987044Y-64341657D01*
X162117099Y-64217807D01*
X162127138Y-64202698D01*
X162177959Y-64126205D01*
X162216483Y-64068222D01*
X162240660Y-64004577D01*
X162277757Y-63906919D01*
X162277758Y-63906914D01*
X162280257Y-63900336D01*
X162282655Y-63883273D01*
X162304700Y-63726416D01*
X162304700Y-63726411D01*
X162305251Y-63722493D01*
X162305565Y-63700000D01*
X162285546Y-63521528D01*
X162226485Y-63351927D01*
X162214473Y-63332703D01*
X162135049Y-63205599D01*
X162131316Y-63199625D01*
X162054772Y-63122545D01*
X162009733Y-63077190D01*
X162009729Y-63077187D01*
X162004770Y-63072193D01*
X161993761Y-63065206D01*
X161923748Y-63020775D01*
X161853136Y-62975963D01*
X161779572Y-62949768D01*
X161690586Y-62918081D01*
X161690581Y-62918080D01*
X161683951Y-62915719D01*
X161676965Y-62914886D01*
X161676961Y-62914885D01*
X161549177Y-62899648D01*
X161505624Y-62894455D01*
X161498621Y-62895191D01*
X161498620Y-62895191D01*
X161334025Y-62912490D01*
X161334021Y-62912491D01*
X161327017Y-62913227D01*
X161320346Y-62915498D01*
X161163677Y-62968832D01*
X161163674Y-62968833D01*
X161157007Y-62971103D01*
X161151009Y-62974793D01*
X161151007Y-62974794D01*
X161076266Y-63020775D01*
X161004045Y-63065206D01*
X160999010Y-63070137D01*
X160999007Y-63070139D01*
X160980232Y-63088524D01*
X160917566Y-63121894D01*
X160892075Y-63124500D01*
X160740570Y-63124500D01*
X160672449Y-63104498D01*
X160651475Y-63087595D01*
X160237395Y-62673515D01*
X160203369Y-62611203D01*
X160200490Y-62584420D01*
X160200490Y-62006171D01*
X160220492Y-61938050D01*
X160274148Y-61891557D01*
X160344422Y-61881453D01*
X160361642Y-61885174D01*
X160447431Y-61910098D01*
X160460584Y-61911133D01*
X160481847Y-61912807D01*
X160481860Y-61912808D01*
X160484306Y-61913000D01*
X161515694Y-61913000D01*
X161518140Y-61912808D01*
X161518153Y-61912807D01*
X161539416Y-61911133D01*
X161552569Y-61910098D01*
X161638357Y-61885174D01*
X161702785Y-61866456D01*
X161702786Y-61866455D01*
X161710398Y-61864244D01*
X161851865Y-61780581D01*
X161959405Y-61673041D01*
X162021717Y-61639015D01*
X162092532Y-61644080D01*
X162149368Y-61686627D01*
X162174179Y-61753147D01*
X162174500Y-61762136D01*
X162174500Y-62265694D01*
X162174692Y-62268140D01*
X162174693Y-62268153D01*
X162175727Y-62281291D01*
X162177402Y-62302569D01*
X162223256Y-62460398D01*
X162227291Y-62467220D01*
X162227291Y-62467221D01*
X162286428Y-62567217D01*
X162306919Y-62601865D01*
X162423135Y-62718081D01*
X162429953Y-62722113D01*
X162429958Y-62722117D01*
X162489808Y-62757511D01*
X162538261Y-62809403D01*
X162550504Y-62848863D01*
X162552294Y-62861932D01*
X162555706Y-62869816D01*
X162555706Y-62869817D01*
X162558265Y-62875730D01*
X162565299Y-62896999D01*
X162568732Y-62911636D01*
X162572869Y-62919161D01*
X162572870Y-62919164D01*
X162589695Y-62949768D01*
X162594911Y-62960413D01*
X162612195Y-63000355D01*
X162621658Y-63012041D01*
X162634145Y-63030625D01*
X162641393Y-63043808D01*
X162648397Y-63051922D01*
X162672933Y-63076458D01*
X162681758Y-63086259D01*
X162696528Y-63104498D01*
X162707114Y-63117570D01*
X162714113Y-63122544D01*
X162714114Y-63122545D01*
X162722446Y-63128466D01*
X162738551Y-63142076D01*
X163225131Y-63628655D01*
X163228783Y-63632464D01*
X163270799Y-63678156D01*
X163307802Y-63701099D01*
X163317552Y-63707800D01*
X163352217Y-63734112D01*
X163366195Y-63739646D01*
X163386199Y-63749707D01*
X163398986Y-63757635D01*
X163407237Y-63760032D01*
X163407239Y-63760033D01*
X163440772Y-63769775D01*
X163452002Y-63773620D01*
X163492453Y-63789636D01*
X163500994Y-63790534D01*
X163500995Y-63790534D01*
X163507408Y-63791208D01*
X163529383Y-63795520D01*
X163543825Y-63799715D01*
X163551308Y-63800264D01*
X163552208Y-63800331D01*
X163552219Y-63800331D01*
X163554515Y-63800500D01*
X163589217Y-63800500D01*
X163602387Y-63801190D01*
X163642454Y-63805401D01*
X163650919Y-63803969D01*
X163650928Y-63803969D01*
X163661000Y-63802265D01*
X163682013Y-63800500D01*
X165460007Y-63800500D01*
X165465284Y-63800611D01*
X165527294Y-63803210D01*
X165538848Y-63800500D01*
X165569662Y-63793273D01*
X165581333Y-63791110D01*
X165596229Y-63789069D01*
X165624432Y-63785206D01*
X165638230Y-63779235D01*
X165659499Y-63772201D01*
X165665775Y-63770729D01*
X165674136Y-63768768D01*
X165681661Y-63764631D01*
X165681664Y-63764630D01*
X165712268Y-63747805D01*
X165722913Y-63742589D01*
X165762855Y-63725305D01*
X165774541Y-63715842D01*
X165793126Y-63703354D01*
X165806308Y-63696107D01*
X165814422Y-63689103D01*
X165838958Y-63664567D01*
X165848759Y-63655742D01*
X165873392Y-63635794D01*
X165873393Y-63635793D01*
X165880070Y-63630386D01*
X165885043Y-63623388D01*
X165885048Y-63623383D01*
X165890968Y-63615052D01*
X165904579Y-63598946D01*
X166853655Y-62649870D01*
X166857464Y-62646217D01*
X166857970Y-62645752D01*
X166903156Y-62604201D01*
X166926087Y-62567217D01*
X166932810Y-62557435D01*
X166953918Y-62529626D01*
X166959112Y-62522783D01*
X166964646Y-62508804D01*
X166974707Y-62488801D01*
X166982635Y-62476014D01*
X166994775Y-62434228D01*
X166998621Y-62422995D01*
X167011474Y-62390533D01*
X167014636Y-62382547D01*
X167015534Y-62374005D01*
X167015535Y-62374000D01*
X167016209Y-62367591D01*
X167020520Y-62345615D01*
X167022874Y-62337512D01*
X167022874Y-62337511D01*
X167024715Y-62331175D01*
X167025500Y-62320485D01*
X167025500Y-62311967D01*
X167045502Y-62243846D01*
X167099158Y-62197353D01*
X167169432Y-62187249D01*
X167197879Y-62194814D01*
X167236064Y-62209932D01*
X167323393Y-62220500D01*
X167499883Y-62220500D01*
X167676606Y-62220499D01*
X167680364Y-62220044D01*
X167680369Y-62220044D01*
X167755903Y-62210904D01*
X167763936Y-62209932D01*
X167771459Y-62206954D01*
X167771461Y-62206953D01*
X167850730Y-62175568D01*
X167900351Y-62155922D01*
X168017216Y-62067216D01*
X168105922Y-61950351D01*
X168140014Y-61864244D01*
X168156951Y-61821466D01*
X168156952Y-61821464D01*
X168159932Y-61813936D01*
X168170500Y-61726607D01*
X168170499Y-61527622D01*
X168184814Y-61473056D01*
X168184114Y-61472779D01*
X168189646Y-61458804D01*
X168199707Y-61438801D01*
X168207635Y-61426014D01*
X168216500Y-61395502D01*
X168219775Y-61384228D01*
X168223621Y-61372995D01*
X168226759Y-61365069D01*
X168239636Y-61332547D01*
X168241208Y-61317592D01*
X168245520Y-61295617D01*
X168249715Y-61281175D01*
X168250500Y-61270485D01*
X168250500Y-61235783D01*
X168251190Y-61222613D01*
X168252645Y-61208770D01*
X168255401Y-61182546D01*
X168253360Y-61170479D01*
X168253752Y-61167174D01*
X168253699Y-61165491D01*
X168253952Y-61165483D01*
X168261720Y-61099977D01*
X168306869Y-61045185D01*
X168320392Y-61037196D01*
X168329510Y-61032550D01*
X168338342Y-61028050D01*
X168428050Y-60938342D01*
X168485646Y-60825304D01*
X168500500Y-60731519D01*
X168500499Y-59768482D01*
X168499232Y-59760479D01*
X168487198Y-59684494D01*
X168487197Y-59684492D01*
X168485646Y-59674696D01*
X168428050Y-59561658D01*
X168338342Y-59471950D01*
X168225304Y-59414354D01*
X168215513Y-59412803D01*
X168215512Y-59412803D01*
X168143982Y-59401474D01*
X168079829Y-59371062D01*
X168042301Y-59310794D01*
X168043315Y-59239804D01*
X168074597Y-59187930D01*
X168078655Y-59183872D01*
X168082464Y-59180219D01*
X168128156Y-59138203D01*
X168129548Y-59139717D01*
X168178957Y-59106346D01*
X168218481Y-59101778D01*
X168218481Y-59100500D01*
X169081518Y-59100499D01*
X169093825Y-59098550D01*
X169165506Y-59087198D01*
X169165508Y-59087197D01*
X169175304Y-59085646D01*
X169288342Y-59028050D01*
X169378050Y-58938342D01*
X169435646Y-58825304D01*
X169438483Y-58807396D01*
X169442863Y-58779735D01*
X169450500Y-58731519D01*
X169450499Y-57768482D01*
X169435646Y-57674696D01*
X169434977Y-57673383D01*
X169433085Y-57607102D01*
X169469749Y-57546305D01*
X169533461Y-57514981D01*
X169570077Y-57514048D01*
X169623393Y-57520500D01*
X169799883Y-57520500D01*
X169976606Y-57520499D01*
X169980364Y-57520044D01*
X169980369Y-57520044D01*
X170055903Y-57510904D01*
X170063936Y-57509932D01*
X170071459Y-57506954D01*
X170071461Y-57506953D01*
X170154855Y-57473935D01*
X170200351Y-57455922D01*
X170317216Y-57367216D01*
X170405922Y-57250351D01*
X170459932Y-57113936D01*
X170470500Y-57026607D01*
X170470499Y-56573394D01*
X170459932Y-56486064D01*
X170449255Y-56459095D01*
X170409084Y-56357636D01*
X170405922Y-56349649D01*
X170317216Y-56232784D01*
X170200351Y-56144078D01*
X170127701Y-56115314D01*
X170071466Y-56093049D01*
X170071464Y-56093048D01*
X170063936Y-56090068D01*
X169998660Y-56082169D01*
X169933437Y-56054129D01*
X169924703Y-56046178D01*
X169536829Y-55658305D01*
X169502804Y-55595992D01*
X169501150Y-55551673D01*
X169504700Y-55526416D01*
X169504700Y-55526411D01*
X169505251Y-55522493D01*
X169505565Y-55500000D01*
X169485546Y-55321528D01*
X169479427Y-55303955D01*
X169453388Y-55229181D01*
X169426485Y-55151927D01*
X169419423Y-55140624D01*
X169335049Y-55005599D01*
X169331316Y-54999625D01*
X169258909Y-54926711D01*
X169209733Y-54877190D01*
X169209729Y-54877187D01*
X169204770Y-54872193D01*
X169193761Y-54865206D01*
X169146860Y-54835442D01*
X169053136Y-54775963D01*
X168968909Y-54745971D01*
X168890586Y-54718081D01*
X168890581Y-54718080D01*
X168883951Y-54715719D01*
X168876965Y-54714886D01*
X168876961Y-54714885D01*
X168749177Y-54699648D01*
X168705624Y-54694455D01*
X168698621Y-54695191D01*
X168698620Y-54695191D01*
X168534025Y-54712490D01*
X168534021Y-54712491D01*
X168527017Y-54713227D01*
X168520346Y-54715498D01*
X168363677Y-54768832D01*
X168363674Y-54768833D01*
X168357007Y-54771103D01*
X168351009Y-54774793D01*
X168351007Y-54774794D01*
X168315694Y-54796519D01*
X168204045Y-54865206D01*
X168199014Y-54870132D01*
X168199011Y-54870135D01*
X168144241Y-54923770D01*
X168075732Y-54990859D01*
X168071913Y-54996784D01*
X168071912Y-54996786D01*
X167999373Y-55109344D01*
X167978446Y-55141817D01*
X167976037Y-55148437D01*
X167976035Y-55148440D01*
X167955268Y-55205497D01*
X167917022Y-55310578D01*
X167916139Y-55317569D01*
X167901507Y-55433396D01*
X167873125Y-55498473D01*
X167814065Y-55537875D01*
X167743079Y-55539092D01*
X167682704Y-55501737D01*
X167652108Y-55437672D01*
X167650500Y-55417605D01*
X167650500Y-53980216D01*
X167670502Y-53912095D01*
X167687404Y-53891121D01*
X167836120Y-53742404D01*
X167898432Y-53708379D01*
X167925216Y-53705499D01*
X168346518Y-53705499D01*
X168351412Y-53704724D01*
X168430506Y-53692198D01*
X168430508Y-53692197D01*
X168440304Y-53690646D01*
X168453623Y-53683860D01*
X168475268Y-53672831D01*
X168553342Y-53633050D01*
X168643050Y-53543342D01*
X168700646Y-53430304D01*
X168702613Y-53417888D01*
X168710004Y-53371220D01*
X168715500Y-53336519D01*
X168715499Y-52823482D01*
X168707775Y-52774709D01*
X168707775Y-52735292D01*
X168714709Y-52691512D01*
X168715500Y-52686519D01*
X168715499Y-52173482D01*
X168707775Y-52124709D01*
X168707775Y-52085292D01*
X168715500Y-52036519D01*
X168715499Y-51523482D01*
X168707775Y-51474709D01*
X168707775Y-51435292D01*
X168708421Y-51431215D01*
X168715500Y-51386519D01*
X168715499Y-50873482D01*
X168707775Y-50824709D01*
X168707775Y-50785292D01*
X168708408Y-50781298D01*
X168715500Y-50736519D01*
X168715499Y-50506500D01*
X168735501Y-50438380D01*
X168789156Y-50391887D01*
X168841499Y-50380500D01*
X169010460Y-50380500D01*
X169078581Y-50400502D01*
X169125074Y-50454158D01*
X169136460Y-50506500D01*
X169136460Y-51471967D01*
X169136349Y-51477243D01*
X169133750Y-51539254D01*
X169135712Y-51547619D01*
X169143687Y-51581622D01*
X169145850Y-51593293D01*
X169151754Y-51636392D01*
X169155166Y-51644276D01*
X169155166Y-51644277D01*
X169157725Y-51650190D01*
X169164759Y-51671459D01*
X169168192Y-51686096D01*
X169172329Y-51693621D01*
X169172330Y-51693624D01*
X169189155Y-51724228D01*
X169194371Y-51734873D01*
X169211655Y-51774815D01*
X169221118Y-51786501D01*
X169233605Y-51805085D01*
X169240853Y-51818268D01*
X169247857Y-51826382D01*
X169272393Y-51850918D01*
X169281218Y-51860719D01*
X169294550Y-51877182D01*
X169306574Y-51892030D01*
X169320501Y-51901927D01*
X169321908Y-51902927D01*
X169338015Y-51916539D01*
X169700119Y-52278643D01*
X169703772Y-52282452D01*
X169745799Y-52328156D01*
X169782802Y-52351099D01*
X169792552Y-52357800D01*
X169827217Y-52384112D01*
X169841195Y-52389646D01*
X169861199Y-52399707D01*
X169873986Y-52407635D01*
X169882237Y-52410032D01*
X169882239Y-52410033D01*
X169915772Y-52419775D01*
X169927002Y-52423620D01*
X169967453Y-52439636D01*
X169975994Y-52440534D01*
X169975995Y-52440534D01*
X169982408Y-52441208D01*
X170004383Y-52445520D01*
X170018825Y-52449715D01*
X170026308Y-52450265D01*
X170027208Y-52450331D01*
X170027219Y-52450331D01*
X170029515Y-52450500D01*
X170064217Y-52450500D01*
X170077387Y-52451190D01*
X170117454Y-52455401D01*
X170125919Y-52453969D01*
X170125928Y-52453969D01*
X170136000Y-52452265D01*
X170157013Y-52450500D01*
X170300468Y-52450500D01*
X170357670Y-52464233D01*
X170399696Y-52485646D01*
X170409485Y-52487196D01*
X170409487Y-52487197D01*
X170436849Y-52491530D01*
X170493481Y-52500500D01*
X170849928Y-52500500D01*
X171206518Y-52500499D01*
X171211412Y-52499724D01*
X171290506Y-52487198D01*
X171290508Y-52487197D01*
X171300304Y-52485646D01*
X171314041Y-52478647D01*
X171344633Y-52463059D01*
X171413342Y-52428050D01*
X171503050Y-52338342D01*
X171560646Y-52225304D01*
X171575500Y-52131519D01*
X171575499Y-51804715D01*
X171595501Y-51736596D01*
X171600673Y-51729151D01*
X171619786Y-51703649D01*
X171628324Y-51688054D01*
X171673478Y-51567606D01*
X171677105Y-51552351D01*
X171682631Y-51501486D01*
X171683000Y-51494672D01*
X171683000Y-51468115D01*
X171678525Y-51452876D01*
X171677135Y-51451671D01*
X171669452Y-51450000D01*
X171543582Y-51450000D01*
X171475461Y-51429998D01*
X171454487Y-51413095D01*
X171413342Y-51371950D01*
X171300304Y-51314354D01*
X171290515Y-51312804D01*
X171290513Y-51312803D01*
X171212511Y-51300449D01*
X171148358Y-51270037D01*
X171134237Y-51247358D01*
X171114019Y-51274367D01*
X171047499Y-51299179D01*
X171038509Y-51299500D01*
X170940615Y-51299500D01*
X170775999Y-51299501D01*
X170707880Y-51279499D01*
X170661387Y-51225844D01*
X170650000Y-51173501D01*
X170650000Y-50526000D01*
X170670002Y-50457879D01*
X170723658Y-50411386D01*
X170776000Y-50400000D01*
X170924000Y-50400000D01*
X170992121Y-50420002D01*
X171038614Y-50473658D01*
X171050000Y-50526000D01*
X171050000Y-51031885D01*
X171054475Y-51047124D01*
X171055865Y-51048329D01*
X171065291Y-51050379D01*
X171127603Y-51084403D01*
X171136769Y-51101188D01*
X171151078Y-51079607D01*
X171216073Y-51051039D01*
X171232222Y-51050000D01*
X171664884Y-51050000D01*
X171680123Y-51045525D01*
X171681328Y-51044135D01*
X171682999Y-51036452D01*
X171682999Y-51005331D01*
X171682630Y-50998514D01*
X171678325Y-50958885D01*
X171690854Y-50889002D01*
X171739175Y-50836987D01*
X171807947Y-50819353D01*
X171875335Y-50841700D01*
X171919944Y-50896932D01*
X171926170Y-50916128D01*
X171926521Y-50917604D01*
X171971676Y-51038054D01*
X171980214Y-51053649D01*
X172056715Y-51155724D01*
X172069275Y-51168284D01*
X172136494Y-51218661D01*
X172179010Y-51275520D01*
X172184036Y-51346339D01*
X172150025Y-51408583D01*
X172096950Y-51461658D01*
X172039354Y-51574696D01*
X172037804Y-51584485D01*
X172037803Y-51584487D01*
X172034849Y-51603140D01*
X172024500Y-51668481D01*
X172024501Y-52131518D01*
X172025276Y-52136409D01*
X172025276Y-52136412D01*
X172034890Y-52197115D01*
X172039354Y-52225304D01*
X172043855Y-52234137D01*
X172043857Y-52234142D01*
X172046214Y-52238767D01*
X172096950Y-52338342D01*
X172186658Y-52428050D01*
X172299696Y-52485646D01*
X172309485Y-52487196D01*
X172309487Y-52487197D01*
X172336849Y-52491530D01*
X172393481Y-52500500D01*
X172430725Y-52500500D01*
X173016645Y-52500499D01*
X173084766Y-52520501D01*
X173131259Y-52574157D01*
X173141651Y-52642292D01*
X173137769Y-52673026D01*
X173138456Y-52680033D01*
X173138456Y-52680036D01*
X173141077Y-52706766D01*
X173155294Y-52851759D01*
X173157517Y-52858441D01*
X173157517Y-52858442D01*
X173206187Y-53004750D01*
X173211981Y-53022169D01*
X173215628Y-53028191D01*
X173267128Y-53113227D01*
X173305014Y-53175785D01*
X173309903Y-53180848D01*
X173309904Y-53180849D01*
X173377825Y-53251183D01*
X173429769Y-53304972D01*
X173580044Y-53403309D01*
X173748371Y-53465909D01*
X173755352Y-53466840D01*
X173755354Y-53466841D01*
X173919404Y-53488730D01*
X173919408Y-53488730D01*
X173926385Y-53489661D01*
X173933397Y-53489023D01*
X173933401Y-53489023D01*
X174098215Y-53474024D01*
X174098216Y-53474024D01*
X174105236Y-53473385D01*
X174276037Y-53417888D01*
X174296374Y-53405765D01*
X174424247Y-53329538D01*
X174424249Y-53329537D01*
X174430299Y-53325930D01*
X174486728Y-53272193D01*
X174535254Y-53225983D01*
X174598379Y-53193491D01*
X174669050Y-53200284D01*
X174724829Y-53244207D01*
X174729579Y-53251394D01*
X174792694Y-53354388D01*
X174798777Y-53362699D01*
X174938213Y-53523667D01*
X174945580Y-53530883D01*
X175109434Y-53666916D01*
X175117881Y-53672831D01*
X175301756Y-53780279D01*
X175311042Y-53784729D01*
X175510001Y-53860703D01*
X175519899Y-53863579D01*
X175623250Y-53884606D01*
X175637299Y-53883410D01*
X175641000Y-53873065D01*
X175641000Y-53872517D01*
X176149000Y-53872517D01*
X176153064Y-53886359D01*
X176166478Y-53888393D01*
X176173184Y-53887534D01*
X176183262Y-53885392D01*
X176387255Y-53824191D01*
X176396842Y-53820433D01*
X176588095Y-53726739D01*
X176596945Y-53721464D01*
X176770328Y-53597792D01*
X176778200Y-53591139D01*
X176929052Y-53440812D01*
X176935730Y-53432965D01*
X177060003Y-53260020D01*
X177065313Y-53251183D01*
X177159670Y-53060267D01*
X177163469Y-53050672D01*
X177225377Y-52846910D01*
X177227555Y-52836837D01*
X177228986Y-52825962D01*
X177226775Y-52811778D01*
X177213617Y-52808000D01*
X176167115Y-52808000D01*
X176151876Y-52812475D01*
X176150671Y-52813865D01*
X176149000Y-52821548D01*
X176149000Y-53872517D01*
X175641000Y-53872517D01*
X175641000Y-52426000D01*
X175661002Y-52357879D01*
X175714658Y-52311386D01*
X175767000Y-52300000D01*
X177213344Y-52300000D01*
X177226875Y-52296027D01*
X177228180Y-52286947D01*
X177186214Y-52119875D01*
X177182894Y-52110124D01*
X177097972Y-51914814D01*
X177093105Y-51905739D01*
X176977426Y-51726926D01*
X176971136Y-51718757D01*
X176827806Y-51561240D01*
X176820273Y-51554215D01*
X176653139Y-51422222D01*
X176644552Y-51416517D01*
X176495952Y-51334485D01*
X176445982Y-51284053D01*
X176431210Y-51214610D01*
X176456326Y-51148205D01*
X176503596Y-51109982D01*
X176517652Y-51103428D01*
X176517657Y-51103425D01*
X176522639Y-51101102D01*
X176546488Y-51084403D01*
X176697366Y-50978757D01*
X176697369Y-50978755D01*
X176701877Y-50975598D01*
X176856598Y-50820877D01*
X176982102Y-50641638D01*
X176984700Y-50636068D01*
X177072252Y-50448312D01*
X177072253Y-50448310D01*
X177074575Y-50443330D01*
X177076672Y-50435506D01*
X177100504Y-50346563D01*
X177131207Y-50231977D01*
X177150277Y-50014000D01*
X177131207Y-49796023D01*
X177082329Y-49613609D01*
X177075998Y-49589980D01*
X177075997Y-49589978D01*
X177074575Y-49584670D01*
X177060474Y-49554430D01*
X176984425Y-49391343D01*
X176984423Y-49391340D01*
X176982102Y-49386362D01*
X176856598Y-49207123D01*
X176701877Y-49052402D01*
X176697369Y-49049245D01*
X176697366Y-49049243D01*
X176527148Y-48930055D01*
X176527146Y-48930054D01*
X176522639Y-48926898D01*
X176517657Y-48924575D01*
X176517652Y-48924572D01*
X176375305Y-48858195D01*
X176322020Y-48811278D01*
X176302559Y-48743000D01*
X176323101Y-48675040D01*
X176375305Y-48629805D01*
X176517652Y-48563428D01*
X176517657Y-48563425D01*
X176522639Y-48561102D01*
X176568331Y-48529108D01*
X176697366Y-48438757D01*
X176697369Y-48438755D01*
X176701877Y-48435598D01*
X176856598Y-48280877D01*
X176982102Y-48101638D01*
X176987654Y-48089733D01*
X177072252Y-47908312D01*
X177072253Y-47908310D01*
X177074575Y-47903330D01*
X177077392Y-47892819D01*
X177108376Y-47777182D01*
X177131207Y-47691977D01*
X177150277Y-47474000D01*
X177131207Y-47256023D01*
X177093620Y-47115745D01*
X177075998Y-47049980D01*
X177075997Y-47049978D01*
X177074575Y-47044670D01*
X177043690Y-46978437D01*
X176984425Y-46851343D01*
X176984423Y-46851340D01*
X176982102Y-46846362D01*
X176856598Y-46667123D01*
X176701877Y-46512402D01*
X176697369Y-46509245D01*
X176697366Y-46509243D01*
X176527148Y-46390055D01*
X176527146Y-46390054D01*
X176522639Y-46386898D01*
X176517657Y-46384575D01*
X176517652Y-46384572D01*
X176375305Y-46318195D01*
X176322020Y-46271278D01*
X176302559Y-46203000D01*
X176323101Y-46135040D01*
X176375305Y-46089805D01*
X176517652Y-46023428D01*
X176517657Y-46023425D01*
X176522639Y-46021102D01*
X176552776Y-46000000D01*
X176697366Y-45898757D01*
X176697369Y-45898755D01*
X176701877Y-45895598D01*
X176856598Y-45740877D01*
X176982102Y-45561638D01*
X176996719Y-45530293D01*
X177072252Y-45368312D01*
X177072253Y-45368310D01*
X177074575Y-45363330D01*
X177085211Y-45323638D01*
X177110837Y-45227997D01*
X177131207Y-45151977D01*
X177150277Y-44934000D01*
X177131207Y-44716023D01*
X177074575Y-44504670D01*
X177072252Y-44499688D01*
X176984425Y-44311343D01*
X176984423Y-44311340D01*
X176982102Y-44306362D01*
X176856598Y-44127123D01*
X176701877Y-43972402D01*
X176697369Y-43969245D01*
X176697366Y-43969243D01*
X176565415Y-43876850D01*
X176560933Y-43873712D01*
X176516605Y-43818255D01*
X176509296Y-43747636D01*
X176541327Y-43684275D01*
X176602528Y-43648290D01*
X176633203Y-43644499D01*
X176776518Y-43644499D01*
X176781412Y-43643724D01*
X176860506Y-43631198D01*
X176860508Y-43631197D01*
X176870304Y-43629646D01*
X176983342Y-43572050D01*
X177073050Y-43482342D01*
X177130646Y-43369304D01*
X177145500Y-43275519D01*
X177145499Y-41512482D01*
X177144430Y-41505732D01*
X177132198Y-41428494D01*
X177132197Y-41428492D01*
X177130646Y-41418696D01*
X177073050Y-41305658D01*
X176983342Y-41215950D01*
X176870304Y-41158354D01*
X176860515Y-41156804D01*
X176860513Y-41156803D01*
X176820394Y-41150449D01*
X176756241Y-41120036D01*
X176718714Y-41059768D01*
X176719728Y-40988779D01*
X176758961Y-40929607D01*
X176823956Y-40901039D01*
X176840105Y-40900000D01*
X177474000Y-40900000D01*
X177542121Y-40920002D01*
G37*
%TD.AperFunction*%
%TA.AperFunction,Conductor*%
G36*
X164100319Y-58011253D02*
G01*
X164152100Y-58059825D01*
X164169500Y-58123715D01*
X164169501Y-58394761D01*
X164169501Y-58656518D01*
X164170276Y-58661411D01*
X164170276Y-58661412D01*
X164180595Y-58726566D01*
X164184354Y-58750304D01*
X164188857Y-58759141D01*
X164188857Y-58759142D01*
X164192613Y-58766514D01*
X164241950Y-58863342D01*
X164331658Y-58953050D01*
X164444696Y-59010646D01*
X164454485Y-59012196D01*
X164454487Y-59012197D01*
X164475229Y-59015482D01*
X164539381Y-59045895D01*
X164576169Y-59107763D01*
X164576192Y-59107754D01*
X164576243Y-59107886D01*
X164578187Y-59111156D01*
X164579270Y-59115772D01*
X164581232Y-59124136D01*
X164585369Y-59131661D01*
X164585370Y-59131664D01*
X164602195Y-59162268D01*
X164607411Y-59172913D01*
X164624695Y-59212855D01*
X164634158Y-59224541D01*
X164646645Y-59243125D01*
X164653893Y-59256308D01*
X164660311Y-59263743D01*
X164660897Y-59264422D01*
X164660570Y-59264704D01*
X164661975Y-59266725D01*
X164661570Y-59267006D01*
X164691156Y-59326225D01*
X164683513Y-59396809D01*
X164638922Y-59452055D01*
X164567141Y-59474501D01*
X164538482Y-59474501D01*
X164533589Y-59475276D01*
X164533588Y-59475276D01*
X164454494Y-59487802D01*
X164454492Y-59487803D01*
X164444696Y-59489354D01*
X164331658Y-59546950D01*
X164241950Y-59636658D01*
X164184354Y-59749696D01*
X164182804Y-59759485D01*
X164182803Y-59759487D01*
X164178470Y-59786849D01*
X164169500Y-59843481D01*
X164169501Y-60556518D01*
X164184354Y-60650304D01*
X164188855Y-60659137D01*
X164188857Y-60659142D01*
X164208748Y-60698180D01*
X164221852Y-60767957D01*
X164195152Y-60833742D01*
X164185576Y-60844478D01*
X164131919Y-60898135D01*
X164127886Y-60904955D01*
X164127881Y-60904961D01*
X164108453Y-60937812D01*
X164056560Y-60986265D01*
X163986710Y-60998970D01*
X163921079Y-60971895D01*
X163891547Y-60937812D01*
X163872119Y-60904961D01*
X163872114Y-60904955D01*
X163868081Y-60898135D01*
X163814424Y-60844478D01*
X163780398Y-60782166D01*
X163785463Y-60711351D01*
X163791252Y-60698180D01*
X163802941Y-60675238D01*
X163815646Y-60650304D01*
X163830500Y-60556519D01*
X163830499Y-59929716D01*
X163850501Y-59861595D01*
X163855673Y-59854151D01*
X163874786Y-59828649D01*
X163883324Y-59813054D01*
X163928478Y-59692606D01*
X163932105Y-59677351D01*
X163937631Y-59626486D01*
X163938000Y-59619672D01*
X163938000Y-59522115D01*
X163933525Y-59506876D01*
X163932135Y-59505671D01*
X163924452Y-59504000D01*
X163614299Y-59504000D01*
X163574384Y-59494418D01*
X163573571Y-59496920D01*
X163564137Y-59493854D01*
X163555304Y-59489354D01*
X163545515Y-59487804D01*
X163545513Y-59487803D01*
X163518151Y-59483470D01*
X163461519Y-59474500D01*
X162900114Y-59474500D01*
X162338482Y-59474501D01*
X162333589Y-59475276D01*
X162333588Y-59475276D01*
X162254494Y-59487802D01*
X162254492Y-59487803D01*
X162244696Y-59489354D01*
X162235859Y-59493857D01*
X162226428Y-59496921D01*
X162225615Y-59494418D01*
X162185701Y-59504000D01*
X161933025Y-59504000D01*
X161864904Y-59483998D01*
X161826414Y-59439578D01*
X161816135Y-59430671D01*
X161808452Y-59429000D01*
X159795070Y-59429000D01*
X159726949Y-59408998D01*
X159705975Y-59392095D01*
X159485244Y-59171364D01*
X159456366Y-59124240D01*
X159455646Y-59119696D01*
X159449629Y-59107886D01*
X159418042Y-59045895D01*
X159398050Y-59006658D01*
X159390487Y-58999095D01*
X159390031Y-58998260D01*
X159385211Y-58991626D01*
X159386068Y-58991003D01*
X159356461Y-58936783D01*
X159361526Y-58865968D01*
X159385535Y-58828610D01*
X159385211Y-58828374D01*
X159389332Y-58822702D01*
X159390487Y-58820905D01*
X159398050Y-58813342D01*
X159420492Y-58769297D01*
X159469240Y-58717682D01*
X159532759Y-58700500D01*
X159668991Y-58700500D01*
X159737112Y-58720502D01*
X159783605Y-58774158D01*
X159794335Y-58839340D01*
X159792328Y-58858932D01*
X159792000Y-58865355D01*
X159792000Y-58902885D01*
X159796475Y-58918124D01*
X159797865Y-58919329D01*
X159805548Y-58921000D01*
X162049245Y-58921000D01*
X162117366Y-58941002D01*
X162123308Y-58945066D01*
X162124647Y-58946039D01*
X162131658Y-58953050D01*
X162244696Y-59010646D01*
X162254485Y-59012196D01*
X162254487Y-59012197D01*
X162275229Y-59015482D01*
X162338481Y-59025500D01*
X162899886Y-59025500D01*
X163461518Y-59025499D01*
X163466412Y-59024724D01*
X163545506Y-59012198D01*
X163545508Y-59012197D01*
X163555304Y-59010646D01*
X163564141Y-59006143D01*
X163573572Y-59003079D01*
X163574385Y-59005582D01*
X163614299Y-58996000D01*
X163919884Y-58996000D01*
X163935123Y-58991525D01*
X163936328Y-58990135D01*
X163937999Y-58982452D01*
X163937999Y-58880331D01*
X163937629Y-58873510D01*
X163932105Y-58822648D01*
X163928479Y-58807396D01*
X163883323Y-58686942D01*
X163874789Y-58671355D01*
X163855674Y-58645850D01*
X163830826Y-58579343D01*
X163830500Y-58570285D01*
X163830500Y-58363380D01*
X163830499Y-58132740D01*
X163850501Y-58064620D01*
X163904156Y-58018127D01*
X163943497Y-58007414D01*
X164030498Y-57998388D01*
X164100319Y-58011253D01*
G37*
%TD.AperFunction*%
%TA.AperFunction,Conductor*%
G36*
X154857905Y-50740501D02*
G01*
X154878880Y-50757404D01*
X155802479Y-51681003D01*
X155832943Y-51730327D01*
X155860271Y-51812478D01*
X155868726Y-51837896D01*
X155872373Y-51843918D01*
X155887944Y-51869628D01*
X155961759Y-51991512D01*
X155966649Y-51996576D01*
X155966650Y-51996577D01*
X156000223Y-52031343D01*
X156033155Y-52094240D01*
X156032352Y-52103256D01*
X156074008Y-52112318D01*
X156086472Y-52120763D01*
X156086514Y-52120699D01*
X156236789Y-52219036D01*
X156405116Y-52281636D01*
X156412097Y-52282567D01*
X156412099Y-52282568D01*
X156576149Y-52304457D01*
X156576153Y-52304457D01*
X156583130Y-52305388D01*
X156590142Y-52304750D01*
X156590146Y-52304750D01*
X156754960Y-52289751D01*
X156754961Y-52289751D01*
X156761981Y-52289112D01*
X156907598Y-52241798D01*
X156978564Y-52239770D01*
X157039362Y-52276433D01*
X157069117Y-52332489D01*
X157071523Y-52342608D01*
X157116678Y-52463059D01*
X157125212Y-52478647D01*
X157129549Y-52484434D01*
X157154398Y-52550940D01*
X157139346Y-52620322D01*
X157129549Y-52635566D01*
X157125212Y-52641353D01*
X157116678Y-52656941D01*
X157071522Y-52777394D01*
X157067895Y-52792649D01*
X157062369Y-52843514D01*
X157062000Y-52850328D01*
X157062000Y-52922885D01*
X157066475Y-52938124D01*
X157067865Y-52939329D01*
X157075548Y-52941000D01*
X158047885Y-52941000D01*
X158063124Y-52936525D01*
X158064329Y-52935135D01*
X158066000Y-52927452D01*
X158066000Y-51845277D01*
X158086002Y-51777156D01*
X158139658Y-51730663D01*
X158209932Y-51720559D01*
X158238375Y-51728123D01*
X158267453Y-51739635D01*
X158275996Y-51740533D01*
X158275997Y-51740533D01*
X158282402Y-51741206D01*
X158304380Y-51745518D01*
X158318825Y-51749715D01*
X158325408Y-51750198D01*
X158325411Y-51750199D01*
X158327208Y-51750331D01*
X158327219Y-51750331D01*
X158329515Y-51750500D01*
X158364219Y-51750500D01*
X158377390Y-51751190D01*
X158417454Y-51755401D01*
X158426984Y-51753789D01*
X158427959Y-51753905D01*
X158434509Y-51753699D01*
X158434540Y-51754685D01*
X158497484Y-51762148D01*
X158552276Y-51807296D01*
X158574000Y-51878024D01*
X158574000Y-52922885D01*
X158578475Y-52938124D01*
X158579865Y-52939329D01*
X158587548Y-52941000D01*
X159559884Y-52941000D01*
X159575123Y-52936525D01*
X159590188Y-52919139D01*
X159606956Y-52888429D01*
X159669268Y-52854402D01*
X159740083Y-52859465D01*
X159765046Y-52872089D01*
X159836789Y-52919036D01*
X160005116Y-52981636D01*
X160012097Y-52982567D01*
X160012099Y-52982568D01*
X160176149Y-53004457D01*
X160176153Y-53004457D01*
X160183130Y-53005388D01*
X160190142Y-53004750D01*
X160190146Y-53004750D01*
X160354960Y-52989751D01*
X160354961Y-52989751D01*
X160361981Y-52989112D01*
X160399566Y-52976900D01*
X160470530Y-52974872D01*
X160531328Y-53011534D01*
X160562654Y-53075246D01*
X160564500Y-53096732D01*
X160564501Y-53217494D01*
X160564501Y-53336518D01*
X160565276Y-53341409D01*
X160565276Y-53341412D01*
X160577388Y-53417888D01*
X160579354Y-53430304D01*
X160583855Y-53439137D01*
X160583857Y-53439142D01*
X160595451Y-53461895D01*
X160636950Y-53543342D01*
X160726658Y-53633050D01*
X160839696Y-53690646D01*
X160849485Y-53692196D01*
X160849487Y-53692197D01*
X160876849Y-53696530D01*
X160933481Y-53705500D01*
X160956522Y-53705500D01*
X161883531Y-53705499D01*
X161951651Y-53725501D01*
X161998144Y-53779157D01*
X162008248Y-53849431D01*
X161989443Y-53899751D01*
X161978446Y-53916815D01*
X161976037Y-53923435D01*
X161976035Y-53923438D01*
X161963384Y-53958197D01*
X161917022Y-54085576D01*
X161894514Y-54263751D01*
X161895201Y-54270758D01*
X161895201Y-54270761D01*
X161903277Y-54353118D01*
X161912039Y-54442484D01*
X161914262Y-54449166D01*
X161914262Y-54449167D01*
X161962245Y-54593410D01*
X161968726Y-54612894D01*
X161972373Y-54618916D01*
X162046907Y-54741986D01*
X162061759Y-54766510D01*
X162066648Y-54771573D01*
X162066649Y-54771574D01*
X162114796Y-54821431D01*
X162186514Y-54895697D01*
X162240235Y-54930851D01*
X162264733Y-54946882D01*
X162293658Y-54973019D01*
X162314205Y-54998391D01*
X162319614Y-55005070D01*
X162326612Y-55010044D01*
X162326614Y-55010045D01*
X162397181Y-55060194D01*
X162442558Y-55092442D01*
X162584468Y-55143533D01*
X162593030Y-55144162D01*
X162593031Y-55144162D01*
X162651285Y-55148440D01*
X162734891Y-55154580D01*
X162743306Y-55152883D01*
X162743309Y-55152883D01*
X162809687Y-55139498D01*
X162882743Y-55124767D01*
X163017132Y-55056293D01*
X163061937Y-55015092D01*
X163125619Y-54983708D01*
X163196160Y-54991734D01*
X163237858Y-55020314D01*
X163286514Y-55070699D01*
X163436789Y-55169036D01*
X163605116Y-55231636D01*
X163612097Y-55232567D01*
X163612099Y-55232568D01*
X163776149Y-55254457D01*
X163776153Y-55254457D01*
X163783130Y-55255388D01*
X163790142Y-55254750D01*
X163790146Y-55254750D01*
X163954960Y-55239751D01*
X163954961Y-55239751D01*
X163961981Y-55239112D01*
X164132782Y-55183615D01*
X164148387Y-55174313D01*
X164262064Y-55106548D01*
X164330819Y-55088848D01*
X164395572Y-55109343D01*
X164486792Y-55169036D01*
X164655119Y-55231636D01*
X164662100Y-55232567D01*
X164662102Y-55232568D01*
X164826152Y-55254457D01*
X164826156Y-55254457D01*
X164833133Y-55255388D01*
X164840145Y-55254750D01*
X164840149Y-55254750D01*
X165004963Y-55239751D01*
X165004964Y-55239751D01*
X165011984Y-55239112D01*
X165182785Y-55183615D01*
X165198390Y-55174313D01*
X165312067Y-55106548D01*
X165380822Y-55088848D01*
X165445575Y-55109343D01*
X165536795Y-55169036D01*
X165705122Y-55231636D01*
X165712103Y-55232567D01*
X165712105Y-55232568D01*
X165876155Y-55254457D01*
X165876159Y-55254457D01*
X165883136Y-55255388D01*
X165890148Y-55254750D01*
X165890152Y-55254750D01*
X166054966Y-55239751D01*
X166054967Y-55239751D01*
X166061987Y-55239112D01*
X166232788Y-55183615D01*
X166249537Y-55173631D01*
X166302905Y-55141817D01*
X166358984Y-55108388D01*
X166427738Y-55090688D01*
X166495147Y-55112970D01*
X166539809Y-55168159D01*
X166549500Y-55216617D01*
X166549500Y-55769013D01*
X166549389Y-55774289D01*
X166546790Y-55836300D01*
X166548752Y-55844665D01*
X166556727Y-55878668D01*
X166558890Y-55890339D01*
X166564794Y-55933438D01*
X166568206Y-55941322D01*
X166568206Y-55941323D01*
X166570765Y-55947236D01*
X166577799Y-55968505D01*
X166581232Y-55983142D01*
X166585369Y-55990667D01*
X166585370Y-55990670D01*
X166602195Y-56021274D01*
X166607411Y-56031919D01*
X166624695Y-56071861D01*
X166634158Y-56083547D01*
X166646645Y-56102131D01*
X166653893Y-56115314D01*
X166659529Y-56121843D01*
X166660897Y-56123428D01*
X166660570Y-56123710D01*
X166661975Y-56125731D01*
X166661602Y-56125991D01*
X166691251Y-56185323D01*
X166684322Y-56249361D01*
X166730410Y-56238499D01*
X166797349Y-56262158D01*
X166812687Y-56275218D01*
X167112595Y-56575125D01*
X167146620Y-56637438D01*
X167149500Y-56664221D01*
X167149500Y-57166000D01*
X167129498Y-57234121D01*
X167075842Y-57280614D01*
X167023500Y-57292000D01*
X167022115Y-57292000D01*
X167006876Y-57296475D01*
X167005671Y-57297865D01*
X167004000Y-57305548D01*
X167004000Y-58378000D01*
X166983998Y-58446121D01*
X166930342Y-58492614D01*
X166878000Y-58504000D01*
X166622000Y-58504000D01*
X166553879Y-58483998D01*
X166507386Y-58430342D01*
X166496000Y-58378000D01*
X166496000Y-57272115D01*
X166491525Y-57256876D01*
X166490135Y-57255671D01*
X166482452Y-57254000D01*
X165832000Y-57254000D01*
X165763879Y-57233998D01*
X165717386Y-57180342D01*
X165706000Y-57128000D01*
X165706000Y-56727885D01*
X166214000Y-56727885D01*
X166218475Y-56743124D01*
X166219865Y-56744329D01*
X166227548Y-56746000D01*
X166728424Y-56746000D01*
X166743219Y-56741656D01*
X166745063Y-56731225D01*
X166743312Y-56721641D01*
X166701643Y-56578216D01*
X166695396Y-56563780D01*
X166616090Y-56429680D01*
X166618759Y-56428102D01*
X166598087Y-56375470D01*
X166608924Y-56321156D01*
X166571650Y-56333534D01*
X166502870Y-56315929D01*
X166497171Y-56312047D01*
X166366220Y-56234604D01*
X166351784Y-56228357D01*
X166231395Y-56193381D01*
X166217295Y-56193421D01*
X166214000Y-56200691D01*
X166214000Y-56727885D01*
X165706000Y-56727885D01*
X165706000Y-56206442D01*
X165702027Y-56192911D01*
X165694129Y-56191776D01*
X165568216Y-56228357D01*
X165553780Y-56234604D01*
X165426763Y-56309721D01*
X165357946Y-56327180D01*
X165316241Y-56318419D01*
X165277671Y-56303148D01*
X165277666Y-56303147D01*
X165270140Y-56300167D01*
X165181995Y-56289500D01*
X165000121Y-56289500D01*
X164818006Y-56289501D01*
X164814246Y-56289956D01*
X164814229Y-56289957D01*
X164772615Y-56294993D01*
X164702585Y-56283320D01*
X164649983Y-56235638D01*
X164634317Y-56196505D01*
X164632350Y-56187396D01*
X164580912Y-56033216D01*
X164574739Y-56020038D01*
X164489437Y-55882193D01*
X164480401Y-55870792D01*
X164365671Y-55756261D01*
X164354260Y-55747249D01*
X164216257Y-55662184D01*
X164203076Y-55656037D01*
X164048790Y-55604862D01*
X164035414Y-55601995D01*
X163941062Y-55592328D01*
X163934645Y-55592000D01*
X163897115Y-55592000D01*
X163881876Y-55596475D01*
X163880671Y-55597865D01*
X163879000Y-55605548D01*
X163879000Y-56928000D01*
X163858998Y-56996121D01*
X163805342Y-57042614D01*
X163753000Y-57054000D01*
X163497000Y-57054000D01*
X163428879Y-57033998D01*
X163382386Y-56980342D01*
X163371000Y-56928000D01*
X163371000Y-55610116D01*
X163366525Y-55594877D01*
X163365135Y-55593672D01*
X163357452Y-55592001D01*
X163315405Y-55592001D01*
X163308886Y-55592338D01*
X163213294Y-55602257D01*
X163199900Y-55605149D01*
X163045716Y-55656588D01*
X163032538Y-55662761D01*
X162894693Y-55748063D01*
X162883292Y-55757099D01*
X162768761Y-55871829D01*
X162759751Y-55883237D01*
X162750320Y-55898538D01*
X162697548Y-55946032D01*
X162627476Y-55957456D01*
X162562352Y-55929183D01*
X162553964Y-55921518D01*
X162464365Y-55831919D01*
X162457544Y-55827885D01*
X162329721Y-55752291D01*
X162329720Y-55752291D01*
X162322898Y-55748256D01*
X162315286Y-55746045D01*
X162315285Y-55746044D01*
X162171254Y-55704199D01*
X162171255Y-55704199D01*
X162165069Y-55702402D01*
X162151916Y-55701367D01*
X162130653Y-55699693D01*
X162130640Y-55699692D01*
X162128194Y-55699500D01*
X161471806Y-55699500D01*
X161469360Y-55699692D01*
X161469347Y-55699693D01*
X161448084Y-55701367D01*
X161434931Y-55702402D01*
X161428745Y-55704199D01*
X161428746Y-55704199D01*
X161284715Y-55746044D01*
X161284714Y-55746045D01*
X161277102Y-55748256D01*
X161270280Y-55752291D01*
X161270279Y-55752291D01*
X161142456Y-55827885D01*
X161135635Y-55831919D01*
X161019419Y-55948135D01*
X161015385Y-55954956D01*
X160956735Y-56054129D01*
X160935756Y-56089602D01*
X160933545Y-56097214D01*
X160933544Y-56097215D01*
X160904698Y-56196505D01*
X160889902Y-56247431D01*
X160889397Y-56253850D01*
X160887193Y-56281847D01*
X160887192Y-56281860D01*
X160887000Y-56284306D01*
X160887000Y-57315694D01*
X160887192Y-57318140D01*
X160887193Y-57318153D01*
X160888249Y-57331566D01*
X160889902Y-57352569D01*
X160891699Y-57358754D01*
X160914823Y-57438347D01*
X160914620Y-57509343D01*
X160876066Y-57568960D01*
X160811402Y-57598268D01*
X160793826Y-57599500D01*
X159572464Y-57599500D01*
X159504343Y-57579498D01*
X159457850Y-57525842D01*
X159447746Y-57455568D01*
X159451922Y-57437614D01*
X159455646Y-57430304D01*
X159470500Y-57336519D01*
X159470499Y-56673482D01*
X159460767Y-56612030D01*
X159457198Y-56589494D01*
X159457197Y-56589492D01*
X159455646Y-56579696D01*
X159398050Y-56466658D01*
X159390487Y-56459095D01*
X159390031Y-56458260D01*
X159385211Y-56451626D01*
X159386068Y-56451003D01*
X159356461Y-56396783D01*
X159361526Y-56325968D01*
X159385535Y-56288610D01*
X159385211Y-56288374D01*
X159389332Y-56282702D01*
X159390487Y-56280905D01*
X159398050Y-56273342D01*
X159455646Y-56160304D01*
X159457502Y-56148590D01*
X159466298Y-56093049D01*
X159470500Y-56066519D01*
X159470499Y-55403482D01*
X159459036Y-55331099D01*
X159457198Y-55319494D01*
X159457197Y-55319492D01*
X159455646Y-55309696D01*
X159398050Y-55196658D01*
X159390487Y-55189095D01*
X159390031Y-55188260D01*
X159385211Y-55181626D01*
X159386068Y-55181003D01*
X159356461Y-55126783D01*
X159361526Y-55055968D01*
X159385535Y-55018610D01*
X159385211Y-55018374D01*
X159389332Y-55012702D01*
X159390487Y-55010905D01*
X159398050Y-55003342D01*
X159455646Y-54890304D01*
X159458515Y-54872193D01*
X159466554Y-54821431D01*
X159470500Y-54796519D01*
X159470499Y-54133482D01*
X159468713Y-54122203D01*
X159457198Y-54049494D01*
X159457197Y-54049492D01*
X159455646Y-54039696D01*
X159448654Y-54025973D01*
X159426942Y-53983361D01*
X159413838Y-53913584D01*
X159438383Y-53850593D01*
X159514786Y-53748649D01*
X159523324Y-53733054D01*
X159568478Y-53612606D01*
X159572105Y-53597351D01*
X159577631Y-53546486D01*
X159578000Y-53539672D01*
X159578000Y-53467115D01*
X159573525Y-53451876D01*
X159572135Y-53450671D01*
X159564452Y-53449000D01*
X157113717Y-53449000D01*
X157045596Y-53428998D01*
X157024622Y-53412095D01*
X155924528Y-52312001D01*
X155890502Y-52249689D01*
X155891283Y-52238767D01*
X155847279Y-52228387D01*
X155820491Y-52207965D01*
X154548121Y-50935595D01*
X154514095Y-50873283D01*
X154519160Y-50802468D01*
X154561707Y-50745632D01*
X154628227Y-50720821D01*
X154637215Y-50720500D01*
X154749142Y-50720499D01*
X154789785Y-50720499D01*
X154857905Y-50740501D01*
G37*
%TD.AperFunction*%
%TA.AperFunction,Conductor*%
G36*
X173573930Y-50420002D02*
G01*
X173620423Y-50473658D01*
X173626705Y-50490503D01*
X173627475Y-50493124D01*
X173628865Y-50494329D01*
X173636548Y-50496000D01*
X174378000Y-50496000D01*
X174446121Y-50516002D01*
X174492614Y-50569658D01*
X174504000Y-50622000D01*
X174504000Y-50878000D01*
X174483998Y-50946121D01*
X174430342Y-50992614D01*
X174378000Y-51004000D01*
X173518000Y-51004000D01*
X173449879Y-50983998D01*
X173403386Y-50930342D01*
X173392000Y-50878000D01*
X173392000Y-50818115D01*
X173387525Y-50802876D01*
X173386135Y-50801671D01*
X173378452Y-50800000D01*
X172676000Y-50800000D01*
X172607879Y-50779998D01*
X172561386Y-50726342D01*
X172550000Y-50674000D01*
X172550000Y-50526000D01*
X172570002Y-50457879D01*
X172623658Y-50411386D01*
X172676000Y-50400000D01*
X173505809Y-50400000D01*
X173573930Y-50420002D01*
G37*
%TD.AperFunction*%
%TA.AperFunction,Conductor*%
G36*
X163617532Y-49166179D02*
G01*
X163674368Y-49208726D01*
X163699179Y-49275246D01*
X163699500Y-49284235D01*
X163699500Y-50103118D01*
X163679498Y-50171239D01*
X163625842Y-50217732D01*
X163555568Y-50227836D01*
X163505989Y-50209504D01*
X163453136Y-50175963D01*
X163369976Y-50146351D01*
X163290586Y-50118081D01*
X163290581Y-50118080D01*
X163283951Y-50115719D01*
X163276963Y-50114886D01*
X163276960Y-50114885D01*
X163177439Y-50103018D01*
X163115693Y-50095656D01*
X163050420Y-50067729D01*
X163042505Y-50060227D01*
X163040016Y-50058168D01*
X163034201Y-50051844D01*
X162997198Y-50028901D01*
X162987448Y-50022200D01*
X162952783Y-49995888D01*
X162938804Y-49990354D01*
X162918801Y-49980293D01*
X162906014Y-49972365D01*
X162897763Y-49969968D01*
X162897761Y-49969967D01*
X162880612Y-49964985D01*
X162820776Y-49926773D01*
X162791098Y-49862277D01*
X162801001Y-49791974D01*
X162847340Y-49738186D01*
X162867546Y-49727579D01*
X162975898Y-49682698D01*
X163011597Y-49655305D01*
X163065933Y-49613612D01*
X163065936Y-49613609D01*
X163096116Y-49590451D01*
X163114248Y-49566821D01*
X163125115Y-49554430D01*
X163484405Y-49195140D01*
X163546717Y-49161114D01*
X163617532Y-49166179D01*
G37*
%TD.AperFunction*%
%TA.AperFunction,Conductor*%
G36*
X159643759Y-49681581D02*
G01*
X159682329Y-49696852D01*
X159682334Y-49696853D01*
X159689860Y-49699833D01*
X159697900Y-49700806D01*
X159703973Y-49701541D01*
X159769198Y-49729582D01*
X159808907Y-49788435D01*
X159810495Y-49859414D01*
X159773456Y-49919984D01*
X159754858Y-49933945D01*
X159710046Y-49961513D01*
X159710039Y-49961518D01*
X159704045Y-49965206D01*
X159693184Y-49975842D01*
X159654704Y-50013524D01*
X159592039Y-50046894D01*
X159566547Y-50049500D01*
X159320717Y-50049500D01*
X159252596Y-50029498D01*
X159206103Y-49975842D01*
X159195999Y-49905568D01*
X159225493Y-49840988D01*
X159285564Y-49802503D01*
X159391784Y-49771643D01*
X159406220Y-49765396D01*
X159533237Y-49690279D01*
X159602054Y-49672820D01*
X159643759Y-49681581D01*
G37*
%TD.AperFunction*%
%TA.AperFunction,Conductor*%
G36*
X154570474Y-47576578D02*
G01*
X154591811Y-47579387D01*
X154591812Y-47579387D01*
X154600000Y-47580465D01*
X154608188Y-47579387D01*
X154608189Y-47579387D01*
X154629526Y-47576578D01*
X154645972Y-47575500D01*
X154691281Y-47575500D01*
X154759402Y-47595502D01*
X154805895Y-47649158D01*
X154816368Y-47716637D01*
X154815417Y-47724500D01*
X154809500Y-47773393D01*
X154809501Y-48226606D01*
X154809956Y-48230364D01*
X154809956Y-48230369D01*
X154815764Y-48278364D01*
X154804090Y-48348394D01*
X154756408Y-48400996D01*
X154690677Y-48419500D01*
X154503845Y-48419501D01*
X154493482Y-48419501D01*
X154488589Y-48420276D01*
X154488588Y-48420276D01*
X154409494Y-48432802D01*
X154409492Y-48432803D01*
X154399696Y-48434354D01*
X154390859Y-48438857D01*
X154390858Y-48438857D01*
X154343361Y-48463058D01*
X154273584Y-48476162D01*
X154210593Y-48451617D01*
X154108649Y-48375214D01*
X154093054Y-48366676D01*
X153972606Y-48321522D01*
X153957351Y-48317895D01*
X153906486Y-48312369D01*
X153899672Y-48312000D01*
X153827115Y-48312000D01*
X153811876Y-48316475D01*
X153810671Y-48317865D01*
X153809000Y-48325548D01*
X153809000Y-49698000D01*
X153788998Y-49766121D01*
X153735342Y-49812614D01*
X153683000Y-49824000D01*
X153427000Y-49824000D01*
X153358879Y-49803998D01*
X153312386Y-49750342D01*
X153301000Y-49698000D01*
X153301000Y-48330116D01*
X153296525Y-48314877D01*
X153295135Y-48313672D01*
X153287452Y-48312001D01*
X153210331Y-48312001D01*
X153203510Y-48312371D01*
X153152648Y-48317895D01*
X153137396Y-48321521D01*
X153016939Y-48366679D01*
X153016361Y-48366995D01*
X153015722Y-48367135D01*
X153008538Y-48369828D01*
X153008149Y-48368791D01*
X152947004Y-48382164D01*
X152880456Y-48357427D01*
X152839444Y-48304693D01*
X152831193Y-48284772D01*
X152805528Y-48222812D01*
X152790857Y-48187393D01*
X152790856Y-48187392D01*
X152787698Y-48179767D01*
X152780382Y-48170233D01*
X152718612Y-48089732D01*
X152718609Y-48089729D01*
X152695451Y-48059549D01*
X152671821Y-48041417D01*
X152659430Y-48030550D01*
X152419475Y-47790595D01*
X152385449Y-47728283D01*
X152390514Y-47657468D01*
X152433061Y-47600632D01*
X152499581Y-47575821D01*
X152508570Y-47575500D01*
X154554028Y-47575500D01*
X154570474Y-47576578D01*
G37*
%TD.AperFunction*%
%TA.AperFunction,Conductor*%
G36*
X158505268Y-42570502D02*
G01*
X158551761Y-42624158D01*
X158561865Y-42694432D01*
X158545601Y-42740639D01*
X158484604Y-42843780D01*
X158478357Y-42858216D01*
X158443381Y-42978605D01*
X158443421Y-42992705D01*
X158450691Y-42996000D01*
X160043558Y-42996000D01*
X160057089Y-42992027D01*
X160061674Y-42960136D01*
X160065982Y-42960755D01*
X160068053Y-42932317D01*
X160110672Y-42875535D01*
X160177224Y-42850810D01*
X160186052Y-42850500D01*
X161231693Y-42850499D01*
X161531518Y-42850499D01*
X161536412Y-42849724D01*
X161615506Y-42837198D01*
X161615508Y-42837197D01*
X161625304Y-42835646D01*
X161738342Y-42778050D01*
X161828050Y-42688342D01*
X161863231Y-42619296D01*
X161911978Y-42567682D01*
X161975497Y-42550500D01*
X164616232Y-42550500D01*
X164684353Y-42570502D01*
X164705327Y-42587405D01*
X166177481Y-44059559D01*
X166178331Y-44060416D01*
X166202742Y-44085344D01*
X166236111Y-44148008D01*
X166230305Y-44218766D01*
X166187166Y-44275153D01*
X166120389Y-44299266D01*
X166112717Y-44299500D01*
X163778641Y-44299500D01*
X163770071Y-44299208D01*
X163769211Y-44299149D01*
X163713070Y-44295322D01*
X163705593Y-44296627D01*
X163705590Y-44296627D01*
X163650870Y-44306177D01*
X163644346Y-44307140D01*
X163589221Y-44313811D01*
X163589218Y-44313812D01*
X163581680Y-44314724D01*
X163574578Y-44317408D01*
X163571242Y-44318227D01*
X163556785Y-44322183D01*
X163553528Y-44323166D01*
X163546047Y-44324472D01*
X163539095Y-44327524D01*
X163539094Y-44327524D01*
X163488233Y-44349849D01*
X163482128Y-44352340D01*
X163430189Y-44371967D01*
X163430185Y-44371969D01*
X163423077Y-44374655D01*
X163416813Y-44378960D01*
X163413774Y-44380549D01*
X163400687Y-44387832D01*
X163397748Y-44389570D01*
X163390798Y-44392621D01*
X163384772Y-44397245D01*
X163384770Y-44397246D01*
X163340697Y-44431064D01*
X163335378Y-44434929D01*
X163283349Y-44470688D01*
X163278292Y-44476364D01*
X163242400Y-44516648D01*
X163237419Y-44521924D01*
X162724915Y-45034428D01*
X162718650Y-45040281D01*
X162675594Y-45077841D01*
X162639307Y-45129473D01*
X162635374Y-45134768D01*
X162601095Y-45178486D01*
X162601093Y-45178490D01*
X162596406Y-45184467D01*
X162593280Y-45191390D01*
X162591495Y-45194338D01*
X162584103Y-45207298D01*
X162582470Y-45210344D01*
X162578103Y-45216557D01*
X162575344Y-45223634D01*
X162555170Y-45275376D01*
X162552615Y-45281455D01*
X162526635Y-45338994D01*
X162525250Y-45346465D01*
X162524226Y-45349733D01*
X162520113Y-45364174D01*
X162519273Y-45367447D01*
X162516514Y-45374523D01*
X162515523Y-45382053D01*
X162508274Y-45437116D01*
X162507242Y-45443633D01*
X162495738Y-45505702D01*
X162496175Y-45513282D01*
X162496175Y-45513283D01*
X162499281Y-45567154D01*
X162499490Y-45574406D01*
X162499490Y-46450416D01*
X162479488Y-46518537D01*
X162425832Y-46565030D01*
X162355558Y-46575134D01*
X162290978Y-46545640D01*
X162257081Y-46498634D01*
X162256484Y-46497193D01*
X162232697Y-46439766D01*
X162228222Y-46433934D01*
X162163611Y-46349731D01*
X162163608Y-46349728D01*
X162140450Y-46319548D01*
X162116820Y-46301416D01*
X162104429Y-46290549D01*
X161754231Y-45940351D01*
X161720205Y-45878039D01*
X161725270Y-45807224D01*
X161754231Y-45762161D01*
X161828050Y-45688342D01*
X161885646Y-45575304D01*
X161887589Y-45563040D01*
X161894343Y-45520391D01*
X161900500Y-45481519D01*
X161900499Y-44518482D01*
X161894247Y-44479005D01*
X161887198Y-44434494D01*
X161887197Y-44434492D01*
X161885646Y-44424696D01*
X161871660Y-44397246D01*
X161858779Y-44371967D01*
X161828050Y-44311658D01*
X161738342Y-44221950D01*
X161625304Y-44164354D01*
X161615515Y-44162804D01*
X161615513Y-44162803D01*
X161588151Y-44158470D01*
X161531519Y-44149500D01*
X161312428Y-44149500D01*
X161244307Y-44129498D01*
X161235645Y-44123282D01*
X161234776Y-44122735D01*
X161229267Y-44118337D01*
X161199442Y-44103919D01*
X161186026Y-44096390D01*
X161164110Y-44082266D01*
X161158184Y-44078447D01*
X161144637Y-44073516D01*
X161117912Y-44063789D01*
X161106170Y-44058829D01*
X161073917Y-44043238D01*
X161073918Y-44043238D01*
X161067579Y-44040174D01*
X161060724Y-44038591D01*
X161060720Y-44038590D01*
X161041758Y-44034213D01*
X161035303Y-44032722D01*
X161020555Y-44028353D01*
X160996046Y-44019433D01*
X160996042Y-44019432D01*
X160989423Y-44017023D01*
X160946883Y-44011649D01*
X160934364Y-44009419D01*
X160892590Y-43999775D01*
X160885549Y-43999750D01*
X160885546Y-43999750D01*
X160852419Y-43999634D01*
X160851546Y-43999605D01*
X160850718Y-43999501D01*
X160814263Y-43999501D01*
X160813823Y-43999500D01*
X160716494Y-43999160D01*
X160716491Y-43999160D01*
X160713001Y-43999148D01*
X160711813Y-43999414D01*
X160710201Y-43999501D01*
X160059076Y-43999501D01*
X159990955Y-43979499D01*
X159941923Y-43919882D01*
X159940975Y-43917486D01*
X159937368Y-43908376D01*
X159931580Y-43893757D01*
X159925102Y-43823057D01*
X159940279Y-43783237D01*
X160015396Y-43656220D01*
X160021643Y-43641784D01*
X160056619Y-43521395D01*
X160056579Y-43507295D01*
X160049309Y-43504000D01*
X158456442Y-43504000D01*
X158442911Y-43507973D01*
X158441776Y-43515871D01*
X158478357Y-43641784D01*
X158484604Y-43656220D01*
X158559721Y-43783237D01*
X158577180Y-43852054D01*
X158568420Y-43893757D01*
X158562632Y-43908376D01*
X158559026Y-43917486D01*
X158558077Y-43919882D01*
X158514404Y-43975857D01*
X158440924Y-43999501D01*
X157922401Y-43999501D01*
X157854280Y-43979499D01*
X157807787Y-43925843D01*
X157797683Y-43855569D01*
X157798339Y-43852064D01*
X157798644Y-43849432D01*
X157800227Y-43842573D01*
X157800320Y-43815845D01*
X157801545Y-43798748D01*
X157804684Y-43776416D01*
X157804684Y-43776410D01*
X157805235Y-43772493D01*
X157805390Y-43761415D01*
X157805494Y-43753962D01*
X157805494Y-43753957D01*
X157805549Y-43750000D01*
X157805108Y-43746066D01*
X157805107Y-43746052D01*
X157801510Y-43713991D01*
X157800725Y-43699501D01*
X157800727Y-43699157D01*
X157800853Y-43662983D01*
X157800587Y-43661795D01*
X157800500Y-43660183D01*
X157800500Y-42904776D01*
X157820502Y-42836655D01*
X157837405Y-42815681D01*
X158065681Y-42587405D01*
X158127993Y-42553379D01*
X158154776Y-42550500D01*
X158437147Y-42550500D01*
X158505268Y-42570502D01*
G37*
%TD.AperFunction*%
%TA.AperFunction,Conductor*%
G36*
X172196121Y-43450502D02*
G01*
X172242614Y-43504158D01*
X172254000Y-43556500D01*
X172254000Y-44452924D01*
X172258344Y-44467719D01*
X172268775Y-44469563D01*
X172278359Y-44467812D01*
X172421784Y-44426143D01*
X172436220Y-44419896D01*
X172563499Y-44344624D01*
X172575926Y-44334984D01*
X172680484Y-44230426D01*
X172694987Y-44211730D01*
X172696032Y-44212541D01*
X172741941Y-44169677D01*
X172811792Y-44156973D01*
X172877422Y-44184050D01*
X172917996Y-44242310D01*
X172924500Y-44282270D01*
X172924500Y-44459430D01*
X172904498Y-44527551D01*
X172887595Y-44548525D01*
X172570570Y-44865550D01*
X172558179Y-44876417D01*
X172534549Y-44894549D01*
X172511391Y-44924729D01*
X172511388Y-44924732D01*
X172474363Y-44972984D01*
X172442302Y-45014767D01*
X172384313Y-45154764D01*
X172380516Y-45183609D01*
X172374672Y-45227997D01*
X172345950Y-45292924D01*
X172319181Y-45315534D01*
X172319280Y-45315662D01*
X172316216Y-45318039D01*
X172313889Y-45320004D01*
X172306191Y-45324557D01*
X172195557Y-45435191D01*
X172191521Y-45442015D01*
X172191519Y-45442018D01*
X172158273Y-45498235D01*
X172115913Y-45569861D01*
X172113701Y-45577475D01*
X172088199Y-45665255D01*
X172049986Y-45725090D01*
X171985490Y-45754768D01*
X171915188Y-45744865D01*
X171878107Y-45719197D01*
X171825926Y-45667016D01*
X171813497Y-45657374D01*
X171804474Y-45652038D01*
X171756023Y-45600144D01*
X171743319Y-45530293D01*
X171744665Y-45520953D01*
X171744768Y-45520391D01*
X171741948Y-45506969D01*
X171730487Y-45504000D01*
X171522115Y-45504000D01*
X171506876Y-45508475D01*
X171505671Y-45509865D01*
X171504000Y-45517548D01*
X171504000Y-46445500D01*
X171483998Y-46513621D01*
X171430342Y-46560114D01*
X171378000Y-46571500D01*
X171122000Y-46571500D01*
X171053879Y-46551498D01*
X171007386Y-46497842D01*
X170996000Y-46445500D01*
X170996000Y-46126115D01*
X170991525Y-46110876D01*
X170990135Y-46109671D01*
X170982452Y-46108000D01*
X170832000Y-46108000D01*
X170763879Y-46087998D01*
X170717386Y-46034342D01*
X170706000Y-45982000D01*
X170706000Y-45122000D01*
X170726002Y-45053879D01*
X170779658Y-45007386D01*
X170832000Y-44996000D01*
X171728424Y-44996000D01*
X171743219Y-44991656D01*
X171745063Y-44981225D01*
X171743312Y-44971641D01*
X171701643Y-44828216D01*
X171695393Y-44813774D01*
X171637292Y-44715530D01*
X171619832Y-44646714D01*
X171633479Y-44594188D01*
X171665869Y-44530620D01*
X171714617Y-44479005D01*
X171740934Y-44468866D01*
X171742909Y-44466919D01*
X171746000Y-44454987D01*
X171746000Y-43556500D01*
X171766002Y-43488379D01*
X171819658Y-43441886D01*
X171872000Y-43430500D01*
X172128000Y-43430500D01*
X172196121Y-43450502D01*
G37*
%TD.AperFunction*%
%TA.AperFunction,Conductor*%
G36*
X174666157Y-43420502D02*
G01*
X174710302Y-43469296D01*
X174712447Y-43473507D01*
X174712451Y-43473513D01*
X174716950Y-43482342D01*
X174806658Y-43572050D01*
X174919696Y-43629646D01*
X174929485Y-43631196D01*
X174929487Y-43631197D01*
X174956849Y-43635530D01*
X175013481Y-43644500D01*
X175156796Y-43644500D01*
X175224917Y-43664502D01*
X175271410Y-43718158D01*
X175281514Y-43788432D01*
X175252020Y-43853012D01*
X175229067Y-43873712D01*
X175088123Y-43972402D01*
X174933402Y-44127123D01*
X174807898Y-44306362D01*
X174805577Y-44311340D01*
X174805575Y-44311343D01*
X174717748Y-44499688D01*
X174715425Y-44504670D01*
X174658793Y-44716023D01*
X174639723Y-44934000D01*
X174658793Y-45151977D01*
X174660216Y-45157287D01*
X174660217Y-45157294D01*
X174683149Y-45242878D01*
X174681459Y-45313854D01*
X174650537Y-45364583D01*
X174035594Y-45979526D01*
X173973282Y-46013552D01*
X173902467Y-46008487D01*
X173845631Y-45965940D01*
X173820820Y-45899420D01*
X173820499Y-45890431D01*
X173820499Y-45755214D01*
X173817737Y-45720108D01*
X173812041Y-45700500D01*
X173776300Y-45577477D01*
X173776299Y-45577474D01*
X173774087Y-45569861D01*
X173719758Y-45477995D01*
X173702299Y-45409181D01*
X173724816Y-45341849D01*
X173739117Y-45324763D01*
X173874430Y-45189450D01*
X173886821Y-45178583D01*
X173903901Y-45165477D01*
X173910451Y-45160451D01*
X173933609Y-45130271D01*
X173933612Y-45130268D01*
X174002699Y-45040232D01*
X174046701Y-44934000D01*
X174060687Y-44900236D01*
X174062098Y-44889523D01*
X174075500Y-44787720D01*
X174079388Y-44758188D01*
X174080466Y-44750000D01*
X174076578Y-44720467D01*
X174075500Y-44704021D01*
X174075500Y-44272706D01*
X174095502Y-44204585D01*
X174101130Y-44196537D01*
X174155922Y-44124351D01*
X174198765Y-44016142D01*
X174206951Y-43995466D01*
X174206952Y-43995464D01*
X174209932Y-43987936D01*
X174220500Y-43900607D01*
X174220499Y-43547394D01*
X174220045Y-43543638D01*
X174220044Y-43543629D01*
X174219803Y-43541642D01*
X174219892Y-43541110D01*
X174219815Y-43539836D01*
X174220107Y-43539818D01*
X174231474Y-43471611D01*
X174279154Y-43419007D01*
X174344890Y-43400500D01*
X174598036Y-43400500D01*
X174666157Y-43420502D01*
G37*
%TD.AperFunction*%
%TA.AperFunction,Conductor*%
G36*
X147887521Y-40920002D02*
G01*
X147934014Y-40973658D01*
X147944118Y-41043932D01*
X147914624Y-41108512D01*
X147908495Y-41115095D01*
X147819516Y-41204074D01*
X147809876Y-41216501D01*
X147734604Y-41343780D01*
X147728357Y-41358216D01*
X147693381Y-41478605D01*
X147693421Y-41492705D01*
X147700691Y-41496000D01*
X148628000Y-41496000D01*
X148696121Y-41516002D01*
X148742614Y-41569658D01*
X148754000Y-41622000D01*
X148754000Y-41878000D01*
X148733998Y-41946121D01*
X148680342Y-41992614D01*
X148628000Y-42004000D01*
X147706442Y-42004000D01*
X147692911Y-42007973D01*
X147691776Y-42015871D01*
X147728357Y-42141784D01*
X147734604Y-42156220D01*
X147809721Y-42283237D01*
X147827180Y-42352054D01*
X147818419Y-42393759D01*
X147803148Y-42432329D01*
X147803147Y-42432334D01*
X147800167Y-42439860D01*
X147789500Y-42528005D01*
X147789501Y-42891994D01*
X147789957Y-42895762D01*
X147789957Y-42895763D01*
X147790439Y-42899748D01*
X147778767Y-42969779D01*
X147731087Y-43022382D01*
X147662536Y-43040857D01*
X147633331Y-43035896D01*
X147630304Y-43034354D01*
X147620513Y-43032803D01*
X147620512Y-43032803D01*
X147604184Y-43030217D01*
X147536519Y-43019500D01*
X147205067Y-43019500D01*
X146873482Y-43019501D01*
X146868589Y-43020276D01*
X146868588Y-43020276D01*
X146789494Y-43032802D01*
X146789492Y-43032803D01*
X146779696Y-43034354D01*
X146666658Y-43091950D01*
X146659095Y-43099513D01*
X146658260Y-43099969D01*
X146651626Y-43104789D01*
X146651003Y-43103932D01*
X146596783Y-43133539D01*
X146525968Y-43128474D01*
X146488610Y-43104465D01*
X146488374Y-43104789D01*
X146482702Y-43100668D01*
X146480905Y-43099513D01*
X146473342Y-43091950D01*
X146360304Y-43034354D01*
X146350515Y-43032804D01*
X146350513Y-43032803D01*
X146323151Y-43028470D01*
X146266519Y-43019500D01*
X145935067Y-43019500D01*
X145603482Y-43019501D01*
X145598589Y-43020276D01*
X145598588Y-43020276D01*
X145519494Y-43032802D01*
X145519492Y-43032803D01*
X145509696Y-43034354D01*
X145396658Y-43091950D01*
X145322438Y-43166170D01*
X145260126Y-43200196D01*
X145189311Y-43195131D01*
X145144248Y-43166170D01*
X144289405Y-42311327D01*
X144255379Y-42249015D01*
X144252500Y-42222232D01*
X144252499Y-41279437D01*
X144252499Y-41274482D01*
X144244340Y-41222961D01*
X144239198Y-41190494D01*
X144239197Y-41190492D01*
X144237646Y-41180696D01*
X144225472Y-41156803D01*
X144187971Y-41083203D01*
X144174867Y-41013426D01*
X144201567Y-40947641D01*
X144259595Y-40906735D01*
X144300238Y-40900000D01*
X147819400Y-40900000D01*
X147887521Y-40920002D01*
G37*
%TD.AperFunction*%
%TA.AperFunction,Conductor*%
G36*
X154526512Y-41871490D02*
G01*
X154533095Y-41877618D01*
X154712596Y-42057118D01*
X154746621Y-42119430D01*
X154749501Y-42146214D01*
X154749501Y-42353785D01*
X154729499Y-42421906D01*
X154712597Y-42442880D01*
X154505346Y-42650132D01*
X154501537Y-42653784D01*
X154455845Y-42695800D01*
X154443832Y-42715176D01*
X154443586Y-42715572D01*
X154390690Y-42762927D01*
X154320589Y-42774167D01*
X154255539Y-42745724D01*
X154216193Y-42686627D01*
X154210499Y-42649176D01*
X154210499Y-42568006D01*
X154208381Y-42550500D01*
X154200805Y-42487890D01*
X154200804Y-42487887D01*
X154199833Y-42479860D01*
X154195343Y-42468519D01*
X154181581Y-42433759D01*
X154175102Y-42363059D01*
X154190279Y-42323237D01*
X154265396Y-42196220D01*
X154271643Y-42181784D01*
X154313312Y-42038359D01*
X154315614Y-42025756D01*
X154317807Y-41997898D01*
X154318000Y-41992969D01*
X154318000Y-41966714D01*
X154338002Y-41898593D01*
X154391658Y-41852100D01*
X154461932Y-41841996D01*
X154526512Y-41871490D01*
G37*
%TD.AperFunction*%
%TA.AperFunction,Conductor*%
G36*
X175018022Y-40920002D02*
G01*
X175064515Y-40973658D01*
X175074619Y-41043932D01*
X175045125Y-41108512D01*
X174985399Y-41146896D01*
X174969610Y-41150449D01*
X174929494Y-41156802D01*
X174929492Y-41156803D01*
X174919696Y-41158354D01*
X174806658Y-41215950D01*
X174716950Y-41305658D01*
X174659354Y-41418696D01*
X174644500Y-41512481D01*
X174644500Y-41673500D01*
X174624498Y-41741621D01*
X174570842Y-41788114D01*
X174518500Y-41799500D01*
X169909083Y-41799500D01*
X169907763Y-41799493D01*
X169906425Y-41799479D01*
X169818593Y-41798559D01*
X169776704Y-41807616D01*
X169764130Y-41809675D01*
X169749523Y-41811314D01*
X169728524Y-41813669D01*
X169728522Y-41813670D01*
X169721528Y-41814454D01*
X169690241Y-41825350D01*
X169675436Y-41829511D01*
X169649944Y-41835022D01*
X169649942Y-41835023D01*
X169643058Y-41836511D01*
X169636676Y-41839487D01*
X169636670Y-41839489D01*
X169604219Y-41854621D01*
X169592408Y-41859417D01*
X169558580Y-41871197D01*
X169558571Y-41871201D01*
X169551927Y-41873515D01*
X169523824Y-41891075D01*
X169510323Y-41898406D01*
X169480292Y-41912410D01*
X169453264Y-41933376D01*
X169446429Y-41938677D01*
X169435973Y-41945971D01*
X169405599Y-41964951D01*
X169399625Y-41968684D01*
X169394628Y-41973646D01*
X169394627Y-41973647D01*
X169371107Y-41997003D01*
X169370485Y-41997585D01*
X169369823Y-41998099D01*
X169343963Y-42023959D01*
X169272193Y-42095230D01*
X169271541Y-42096257D01*
X169270457Y-42097465D01*
X169176819Y-42191103D01*
X169114507Y-42225129D01*
X169087724Y-42228008D01*
X168175000Y-42228008D01*
X168079978Y-42243058D01*
X168059488Y-42246303D01*
X168059487Y-42246303D01*
X168049696Y-42247854D01*
X168047464Y-42248991D01*
X168015844Y-42254000D01*
X167222000Y-42254000D01*
X167153879Y-42233998D01*
X167107386Y-42180342D01*
X167096000Y-42128000D01*
X167096000Y-41872000D01*
X167116002Y-41803879D01*
X167169658Y-41757386D01*
X167222000Y-41746000D01*
X168489884Y-41746000D01*
X168505123Y-41741525D01*
X168506328Y-41740135D01*
X168507999Y-41732452D01*
X168507999Y-41505331D01*
X168507629Y-41498510D01*
X168502105Y-41447648D01*
X168498479Y-41432396D01*
X168453324Y-41311946D01*
X168444786Y-41296351D01*
X168368285Y-41194276D01*
X168355724Y-41181715D01*
X168282486Y-41126826D01*
X168239971Y-41069967D01*
X168234945Y-40999148D01*
X168269005Y-40936855D01*
X168331336Y-40902865D01*
X168358051Y-40900000D01*
X174949901Y-40900000D01*
X175018022Y-40920002D01*
G37*
%TD.AperFunction*%
%TA.AperFunction,Conductor*%
G36*
X166410070Y-40920002D02*
G01*
X166456563Y-40973658D01*
X166466667Y-41043932D01*
X166437173Y-41108512D01*
X166417514Y-41126826D01*
X166344276Y-41181715D01*
X166331715Y-41194276D01*
X166255214Y-41296351D01*
X166246676Y-41311946D01*
X166201522Y-41432394D01*
X166197895Y-41447649D01*
X166192369Y-41498514D01*
X166192000Y-41505328D01*
X166192000Y-41505732D01*
X166191973Y-41505823D01*
X166191816Y-41508725D01*
X166191132Y-41508688D01*
X166171998Y-41573853D01*
X166118342Y-41620346D01*
X166048068Y-41630450D01*
X165983488Y-41600956D01*
X165976905Y-41594827D01*
X165572519Y-41190441D01*
X165571590Y-41189503D01*
X165514071Y-41130766D01*
X165514069Y-41130765D01*
X165509141Y-41125732D01*
X165504891Y-41122993D01*
X165465189Y-41065087D01*
X165463072Y-40994122D01*
X165499658Y-40933278D01*
X165563331Y-40901873D01*
X165584973Y-40900000D01*
X166341949Y-40900000D01*
X166410070Y-40920002D01*
G37*
%TD.AperFunction*%
%TD*%
M02*
