M48
; DRILL file {KiCad (6.0.0)} date Tue Aug 23 17:29:19 2022
; FORMAT={-:-/ absolute / inch / decimal}
; #@! TF.CreationDate,2022-08-23T17:29:19+02:00
; #@! TF.GenerationSoftware,Kicad,Pcbnew,(6.0.0)
; #@! TF.FileFunction,Plated,1,2,PTH
FMAT,2
INCH
; #@! TA.AperFunction,Plated,PTH,ViaDrill
T1C0.0157
; #@! TA.AperFunction,Plated,PTH,ComponentDrill
T2C0.0394
%
G90
G05
T1
X5.2953Y-2.1654
X5.4134Y-2.1654
X5.4134Y-2.2835
X5.4724Y-2.2835
X5.5591Y-2.1378
X5.5827Y-2.3425
X5.5996Y-2.2075
X5.6033Y-2.2571
X5.6056Y-2.1555
X5.6063Y-2.4409
X5.6339Y-2.2943
X5.6417Y-2.4803
X5.7008Y-2.5236
X5.736Y-2.0943
X5.7372Y-2.3563
X5.7408Y-1.8445
X5.7785Y-2.3573
X5.7795Y-2.0571
X5.7953Y-2.4528
X5.8071Y-1.6634
X5.8225Y-3.2008
X5.8268Y-2.6575
X5.8268Y-2.7165
X5.8268Y-2.7756
X5.8268Y-2.8346
X5.8268Y-2.8937
X5.8268Y-2.9528
X5.8268Y-3.0118
X5.8268Y-3.0709
X5.8268Y-3.1299
X5.8268Y-3.248
X5.8268Y-3.3071
X5.8268Y-3.3661
X5.8268Y-3.4252
X5.8268Y-3.4843
X5.8268Y-3.5433
X5.8268Y-3.6024
X5.8268Y-3.6614
X5.8268Y-3.7205
X5.8268Y-3.8386
X5.8268Y-3.8976
X5.8268Y-3.9567
X5.8268Y-4.0157
X5.8268Y-4.0748
X5.8268Y-4.1339
X5.8268Y-4.1929
X5.8268Y-4.252
X5.8268Y-4.311
X5.8268Y-4.4291
X5.8268Y-4.4882
X5.8268Y-4.5472
X5.8268Y-4.6063
X5.8268Y-4.6654
X5.8268Y-4.7244
X5.8268Y-4.7835
X5.8268Y-4.8425
X5.8268Y-4.9016
X5.8307Y-2.122
X5.8346Y-2.4921
X5.8396Y-2.0443
X5.8548Y-1.998
X5.878Y-2.5236
X5.907Y-1.9985
X5.9439Y-2.4537
X5.9547Y-2.2904
X5.964Y-2.1443
X5.9646Y-2.0571
X5.9685Y-2.5039
X5.9961Y-4.2953
X5.9961Y-4.3543
X6.0Y-3.5906
X6.0Y-3.7362
X6.0039Y-3.126
X6.0039Y-3.185
X6.0039Y-4.7953
X6.0039Y-4.8425
X6.0039Y-4.9016
X6.0079Y-4.1732
X6.0197Y-3.0704
X6.0295Y-1.8917
X6.0472Y-2.9801
X6.0551Y-2.4409
X6.0551Y-4.7165
X6.0581Y-2.6969
X6.0768Y-1.8898
X6.0827Y-1.6634
X6.0846Y-2.0846
X6.1024Y-2.3337
X6.1037Y-2.2904
X6.1295Y-2.1346
X6.1614Y-2.2421
X6.1614Y-2.2835
X6.1614Y-2.5748
X6.1614Y-3.2047
X6.1614Y-3.7953
X6.1654Y-2.0276
X6.1693Y-2.0709
X6.1708Y-1.8052
X6.1772Y-2.3228
X6.1772Y-2.3661
X6.1811Y-1.7224
X6.1811Y-1.6741
X6.2205Y-2.6575
X6.2205Y-2.7165
X6.2205Y-2.7756
X6.2205Y-2.8346
X6.2205Y-2.8937
X6.2205Y-2.9528
X6.2205Y-3.0118
X6.2205Y-3.0709
X6.2205Y-3.1299
X6.2205Y-3.248
X6.2205Y-3.3071
X6.2205Y-3.3661
X6.2205Y-3.4252
X6.2205Y-3.4843
X6.2205Y-3.5433
X6.2205Y-3.6024
X6.2205Y-3.6614
X6.2205Y-3.7205
X6.2205Y-3.8386
X6.2205Y-3.8976
X6.2205Y-3.9567
X6.2205Y-4.0157
X6.2205Y-4.0748
X6.2205Y-4.1339
X6.2205Y-4.1929
X6.2205Y-4.252
X6.2205Y-4.311
X6.2205Y-4.4291
X6.2205Y-4.4882
X6.2205Y-4.5472
X6.2205Y-4.6063
X6.2205Y-4.6654
X6.2205Y-4.7244
X6.2205Y-4.7835
X6.2205Y-4.8425
X6.2205Y-4.9016
X6.2283Y-1.689
X6.2689Y-1.9606
X6.2885Y-1.8906
X6.2894Y-1.813
X6.2953Y-2.252
X6.2992Y-2.3307
X6.3071Y-1.9921
X6.3071Y-2.0551
X6.3091Y-1.8504
X6.3435Y-2.1673
X6.3583Y-2.5079
X6.378Y-1.7087
X6.4055Y-2.1368
X6.4213Y-2.0039
X6.4252Y-1.8661
X6.4291Y-1.9606
X6.4488Y-2.1437
X6.4606Y-2.5512
X6.4665Y-1.811
X6.4902Y-2.1437
X6.5118Y-2.5512
X6.5157Y-1.7283
X6.5157Y-1.811
X6.5315Y-2.1437
X6.5354Y-1.624
X6.5354Y-1.9022
X6.5378Y-2.3339
X6.5433Y-1.9488
X6.5709Y-2.2441
X6.6299Y-2.1378
X6.6417Y-2.185
X6.6535Y-1.6339
X6.6535Y-2.0945
X6.6693Y-1.9252
X6.7077Y-1.8553
X6.7106Y-1.628
X6.7677Y-1.628
X6.7717Y-1.7618
X6.7717Y-2.185
X6.7717Y-2.2441
X6.8307Y-1.628
X6.8307Y-2.126
X6.8307Y-2.185
X6.8482Y-2.0742
X6.8602Y-1.7815
X6.9744Y-1.8209
X6.9764Y-1.7283
T2
X5.63Y-1.6597
X5.63Y-1.7597
X5.63Y-1.8597
X5.63Y-1.9597
X6.925Y-1.6691
X6.925Y-1.7691
X6.925Y-1.8691
X6.925Y-1.9691
X6.925Y-2.0691
T0
M30
