%TF.GenerationSoftware,KiCad,Pcbnew,(6.0.0)*%
%TF.CreationDate,2022-08-23T17:29:19+02:00*%
%TF.ProjectId,TempSpike,54656d70-5370-4696-9b65-2e6b69636164,rev?*%
%TF.SameCoordinates,Original*%
%TF.FileFunction,Copper,L2,Bot*%
%TF.FilePolarity,Positive*%
%FSLAX46Y46*%
G04 Gerber Fmt 4.6, Leading zero omitted, Abs format (unit mm)*
G04 Created by KiCad (PCBNEW (6.0.0)) date 2022-08-23 17:29:19*
%MOMM*%
%LPD*%
G01*
G04 APERTURE LIST*
%TA.AperFunction,ComponentPad*%
%ADD10R,1.700000X1.700000*%
%TD*%
%TA.AperFunction,ComponentPad*%
%ADD11O,1.700000X1.700000*%
%TD*%
%TA.AperFunction,ViaPad*%
%ADD12C,0.800000*%
%TD*%
%TA.AperFunction,Conductor*%
%ADD13C,0.300000*%
%TD*%
%TA.AperFunction,Conductor*%
%ADD14C,0.400000*%
%TD*%
%TA.AperFunction,Conductor*%
%ADD15C,0.350000*%
%TD*%
%TA.AperFunction,Conductor*%
%ADD16C,0.600000*%
%TD*%
G04 APERTURE END LIST*
D10*
%TO.P,J2,1,Pin_1*%
%TO.N,+5V*%
X175895000Y-42394000D03*
D11*
%TO.P,J2,2,Pin_2*%
%TO.N,/SWCLK*%
X175895000Y-44934000D03*
%TO.P,J2,3,Pin_3*%
%TO.N,/Moisture_High_Gain*%
X175895000Y-47474000D03*
%TO.P,J2,4,Pin_4*%
%TO.N,/NRST*%
X175895000Y-50014000D03*
%TO.P,J2,5,Pin_5*%
%TO.N,GND*%
X175895000Y-52554000D03*
%TD*%
D10*
%TO.P,J1,1,Pin_1*%
%TO.N,VD*%
X143002000Y-42156000D03*
D11*
%TO.P,J1,2,Pin_2*%
%TO.N,/RPi_In*%
X143002000Y-44696000D03*
%TO.P,J1,3,Pin_3*%
%TO.N,/RPi_Out*%
X143002000Y-47236000D03*
%TO.P,J1,4,Pin_4*%
%TO.N,GND*%
X143002000Y-49776000D03*
%TD*%
D12*
%TO.N,GND*%
X152300000Y-110600000D03*
X152300000Y-109100000D03*
X159230000Y-49799990D03*
X156700000Y-52600000D03*
X166899990Y-57000000D03*
X161125000Y-55050000D03*
X160000000Y-59200000D03*
X163300000Y-49800000D03*
X158200000Y-42900000D03*
X148325000Y-51925000D03*
X154500000Y-42250000D03*
X147500000Y-42250000D03*
X172000000Y-44750000D03*
X169000000Y-41500000D03*
X166000000Y-41250000D03*
X153150000Y-48050000D03*
X137500000Y-55000000D03*
X152500000Y-79400000D03*
X159900000Y-57200000D03*
X172000000Y-55500000D03*
X154350000Y-48000000D03*
X174250000Y-45250000D03*
X153800000Y-62000000D03*
X169000000Y-53200000D03*
X162000000Y-43400000D03*
X152900000Y-77989000D03*
X152500000Y-80900000D03*
X168400000Y-54300000D03*
X177150000Y-46250000D03*
X172000000Y-57000000D03*
X170450000Y-41350000D03*
X152500000Y-121800000D03*
X137500000Y-58000000D03*
X152500000Y-124500000D03*
X150975000Y-62325000D03*
X152500000Y-123000000D03*
X173500000Y-54000000D03*
X173500000Y-55500000D03*
X177200000Y-43900000D03*
X152400000Y-94900000D03*
X148200000Y-63300000D03*
X142400000Y-62000000D03*
X151600000Y-63600000D03*
X143300000Y-63000000D03*
X173500000Y-41350000D03*
X164100000Y-64800000D03*
X139000000Y-58000000D03*
X134500000Y-55000000D03*
X171900000Y-41350000D03*
X165400000Y-64800000D03*
X165500000Y-43900000D03*
X147200000Y-62300000D03*
%TO.N,+3V3*%
X166059302Y-59281387D03*
X156600000Y-51500000D03*
X173943255Y-52684273D03*
X163199990Y-47400010D03*
X170375000Y-47125000D03*
X156500000Y-65400000D03*
%TO.N,+5V*%
X155000000Y-59274990D03*
X151250000Y-58175021D03*
X157000000Y-42521008D03*
X145816727Y-46850000D03*
X156999984Y-43750000D03*
X156738014Y-45852771D03*
X141200000Y-54300000D03*
%TO.N,/Moisture_High_Gain*%
X169400000Y-48900000D03*
X168700000Y-55500000D03*
%TO.N,/NRST*%
X163100000Y-50900000D03*
%TO.N,Net-(J3-Pad1)*%
X148000000Y-102000000D03*
X148000000Y-106500000D03*
X148000000Y-109500000D03*
X148000000Y-99000000D03*
X146775000Y-59875000D03*
X148000000Y-97500000D03*
X148000000Y-105000000D03*
X148000000Y-108000000D03*
X148000000Y-103500000D03*
X149300000Y-64100000D03*
X148000000Y-100500000D03*
%TO.N,Net-(J4-Pad1)*%
X148000000Y-121500000D03*
X148000000Y-114000000D03*
X148000000Y-115500000D03*
X148000000Y-123000000D03*
X148000000Y-112500000D03*
X148000000Y-117000000D03*
X148000000Y-118500000D03*
X148000000Y-124500000D03*
X148000000Y-120000000D03*
%TO.N,Net-(J5-Pad1)*%
X143100000Y-58275002D03*
X158000000Y-88500000D03*
X158000000Y-91500000D03*
X156900000Y-59000000D03*
X158000000Y-85500000D03*
X158000000Y-84000000D03*
X161500000Y-63700000D03*
X158000000Y-82500000D03*
X158000000Y-90000000D03*
X158000000Y-87000000D03*
X158000000Y-94500000D03*
X156500000Y-81400000D03*
X158000000Y-93000000D03*
%TO.N,Net-(J6-Pad1)*%
X148000000Y-82500000D03*
X148000000Y-94500000D03*
X145725000Y-59850000D03*
X148000000Y-93000000D03*
X148000000Y-85500000D03*
X148000000Y-90000000D03*
X148000000Y-88500000D03*
X148000000Y-84000000D03*
X148000000Y-91500000D03*
X147892000Y-81300000D03*
X148000000Y-87000000D03*
%TO.N,Net-(J7-Pad1)*%
X158000000Y-118500000D03*
X158000000Y-114000000D03*
X158000000Y-115500000D03*
X158000000Y-120000000D03*
X158000000Y-121500000D03*
X142325010Y-57329173D03*
X156500000Y-58000034D03*
X158000000Y-112500000D03*
X158000000Y-117000000D03*
X158000000Y-123000000D03*
X158000000Y-124500000D03*
%TO.N,Net-(J8-Pad1)*%
X158000000Y-102000000D03*
X158000000Y-109500000D03*
X156500000Y-96400000D03*
X158000000Y-103500000D03*
X158000000Y-97500000D03*
X158000000Y-99000000D03*
X158000000Y-100500000D03*
X158000000Y-105000000D03*
X153875000Y-68500000D03*
X158000000Y-106500000D03*
X158000000Y-108000000D03*
%TO.N,Net-(J9-Pad1)*%
X158000000Y-73500000D03*
X142382416Y-54750010D03*
X158000000Y-70500000D03*
X158000000Y-72000000D03*
X158000000Y-69000000D03*
X158000000Y-79500000D03*
X158000000Y-67500000D03*
X158000000Y-76500000D03*
X158000000Y-78000000D03*
X156900000Y-60100000D03*
X158000000Y-75000000D03*
%TO.N,Net-(J10-Pad1)*%
X141800000Y-59500000D03*
X142229804Y-56069363D03*
X148000000Y-79500000D03*
X148000000Y-69000000D03*
X148000000Y-76500000D03*
X148000000Y-67500000D03*
X148000000Y-73500000D03*
X148000000Y-70500000D03*
X148000000Y-75000000D03*
X144800000Y-64100000D03*
X156500000Y-56950021D03*
X148000000Y-72000000D03*
X148000000Y-78000000D03*
%TO.N,/INH*%
X151500000Y-52250000D03*
X159750000Y-46050000D03*
%TO.N,/C_High*%
X146800000Y-52250000D03*
X166000000Y-48317068D03*
%TO.N,/C_Low*%
X159727624Y-48022376D03*
X154550000Y-52950000D03*
%TO.N,/B_High*%
X166200000Y-49500000D03*
X145695001Y-53195001D03*
%TO.N,/B_Low*%
X160200000Y-50600000D03*
X155690423Y-54219320D03*
%TO.N,/A_High*%
X160250000Y-47000000D03*
X148100000Y-53900000D03*
%TO.N,/A_Low*%
X155034977Y-58175021D03*
X160200000Y-52200000D03*
X151484984Y-54465000D03*
%TO.N,/Temp_4*%
X162700000Y-54274998D03*
X152600000Y-106000000D03*
%TO.N,/Temp_3*%
X163800000Y-54450000D03*
X152400000Y-91200000D03*
%TO.N,/Temp_2*%
X164850003Y-54450000D03*
X153599959Y-75694780D03*
%TO.N,/Temp_1*%
X165900006Y-54450000D03*
X153800000Y-119800000D03*
%TO.N,/MCU_In*%
X165500000Y-46000000D03*
X150038697Y-50761309D03*
%TO.N,/MCU_Out*%
X164250000Y-46000000D03*
X148711361Y-50749568D03*
%TD*%
D13*
%TO.N,GND*%
X154934002Y-53750002D02*
X154165998Y-53750002D01*
X161524999Y-54650001D02*
X161524999Y-54265997D01*
X154165998Y-53750002D02*
X154080995Y-53664999D01*
X148100000Y-52950000D02*
X147865998Y-52950000D01*
X156700000Y-52600000D02*
X156084004Y-52600000D01*
X163300000Y-49800000D02*
X163300000Y-49022170D01*
X177150000Y-46250000D02*
X177123999Y-46223999D01*
X154080995Y-53664999D02*
X150635001Y-53664999D01*
X177200000Y-43900000D02*
X176950000Y-43650000D01*
X148325000Y-51925000D02*
X148325000Y-52725000D01*
X147300000Y-54284002D02*
X147300000Y-54400000D01*
X148325000Y-52725000D02*
X148100000Y-52950000D01*
X176950000Y-43650000D02*
X174250000Y-43650000D01*
X147150000Y-54134002D02*
X147300000Y-54284002D01*
X161524999Y-54265997D02*
X162365996Y-53425000D01*
X165522170Y-46800000D02*
X166100000Y-46800000D01*
X156084004Y-52600000D02*
X154934002Y-53750002D01*
X177123999Y-46223999D02*
X174676001Y-46223999D01*
X166100000Y-46800000D02*
X166300000Y-46600000D01*
X147150000Y-53665998D02*
X147150000Y-54134002D01*
X161450000Y-59250000D02*
X161200000Y-59500000D01*
X150635001Y-53664999D02*
X149600000Y-54700000D01*
X162365996Y-53425000D02*
X163600000Y-53425000D01*
X160020002Y-59250000D02*
X160950000Y-59250000D01*
X161125000Y-55050000D02*
X161524999Y-54650001D01*
X163300000Y-49022170D02*
X165522170Y-46800000D01*
X147865998Y-52950000D02*
X147150000Y-53665998D01*
%TO.N,+3V3*%
X170375000Y-47125000D02*
X173702830Y-47125000D01*
X173702830Y-47125000D02*
X174644999Y-48067169D01*
X175294999Y-48724001D02*
X176724001Y-48724001D01*
X176724001Y-48724001D02*
X177300000Y-49300000D01*
X177300000Y-50800000D02*
X176800000Y-51300000D01*
X176800000Y-51300000D02*
X173600000Y-51300000D01*
X174644999Y-48074001D02*
X175294999Y-48724001D01*
X177300000Y-49300000D02*
X177300000Y-50800000D01*
X174644999Y-48067169D02*
X174644999Y-48074001D01*
X166624987Y-59281387D02*
X166059302Y-59281387D01*
D14*
X161700000Y-48900000D02*
X163199990Y-47400010D01*
X156600000Y-51161751D02*
X158861751Y-48900000D01*
X158861751Y-48900000D02*
X161700000Y-48900000D01*
D13*
X173600000Y-51300000D02*
X173600000Y-52200000D01*
D15*
X165559302Y-61340698D02*
X161500000Y-65400000D01*
D13*
X173943255Y-52684273D02*
X173600000Y-52341018D01*
D15*
X161500000Y-65400000D02*
X156500000Y-65400000D01*
D13*
X166518613Y-59281387D02*
X166124987Y-59281387D01*
D15*
X166059302Y-59281387D02*
X166059302Y-60840698D01*
X166059302Y-60840698D02*
X165575000Y-61325000D01*
D14*
X156600000Y-51500000D02*
X156600000Y-51161751D01*
D13*
X173600000Y-52200000D02*
X166518613Y-59281387D01*
%TO.N,+5V*%
X151250000Y-58175021D02*
X152349969Y-59274990D01*
X152349969Y-59274990D02*
X155000000Y-59274990D01*
D16*
X145816727Y-49683273D02*
X141200000Y-54300000D01*
X145816727Y-46850000D02*
X145816727Y-49683273D01*
X156999984Y-43750000D02*
X156999984Y-45590801D01*
X156999984Y-45590801D02*
X156738014Y-45852771D01*
D13*
%TO.N,/Moisture_High_Gain*%
X169900000Y-49400000D02*
X169900000Y-54300000D01*
X169900000Y-54300000D02*
X168700000Y-55500000D01*
X169400000Y-48900000D02*
X169900000Y-49400000D01*
D15*
%TO.N,/NRST*%
X175659000Y-50250000D02*
X175895000Y-50014000D01*
D13*
X175893165Y-50100000D02*
X175900000Y-50100000D01*
X164849989Y-48250011D02*
X165700000Y-47400000D01*
X163100000Y-50900000D02*
X163400000Y-50900000D01*
X170800000Y-49000000D02*
X174793165Y-49000000D01*
X174793165Y-49000000D02*
X175893165Y-50100000D01*
X163400000Y-50900000D02*
X164849989Y-49450011D01*
X164849989Y-49450011D02*
X164849989Y-48250011D01*
X169200000Y-47400000D02*
X170800000Y-49000000D01*
X165700000Y-47400000D02*
X169200000Y-47400000D01*
%TO.N,Net-(J3-Pad1)*%
X149300000Y-62400000D02*
X146775000Y-59875000D01*
X149300000Y-64100000D02*
X149300000Y-62400000D01*
%TO.N,Net-(J5-Pad1)*%
X155700000Y-71000000D02*
X155700000Y-80600000D01*
D15*
X160674956Y-64525044D02*
X161500000Y-63700000D01*
X155678998Y-60100000D02*
X156778998Y-59000000D01*
X156065976Y-64525044D02*
X160674956Y-64525044D01*
X154800000Y-65791020D02*
X156065976Y-64525044D01*
D13*
X154800000Y-66700000D02*
X154800000Y-70100000D01*
D15*
X143100000Y-58275002D02*
X149975002Y-58275002D01*
D13*
X155700000Y-80600000D02*
X156500000Y-81400000D01*
D15*
X156778998Y-59000000D02*
X156900000Y-59000000D01*
X154800000Y-66700000D02*
X154800000Y-65791020D01*
D13*
X154800000Y-70100000D02*
X155700000Y-71000000D01*
D15*
X151800000Y-60100000D02*
X155678998Y-60100000D01*
X149975002Y-58275002D02*
X151800000Y-60100000D01*
D13*
%TO.N,Net-(J6-Pad1)*%
X149600000Y-65800000D02*
X148700000Y-65800000D01*
X148700000Y-65800000D02*
X146000000Y-63100000D01*
D15*
X147892000Y-81300000D02*
X148000000Y-81300000D01*
D13*
X148900000Y-81300000D02*
X150200000Y-80000000D01*
D15*
X146000000Y-62500000D02*
X145725000Y-62225000D01*
D13*
X146000000Y-63100000D02*
X146000000Y-62500000D01*
X147892000Y-81300000D02*
X148900000Y-81300000D01*
X150200000Y-66400000D02*
X149600000Y-65800000D01*
D15*
X145725000Y-62225000D02*
X145725000Y-59850000D01*
D13*
X150200000Y-80000000D02*
X150200000Y-66400000D01*
D15*
%TO.N,Net-(J7-Pad1)*%
X142345848Y-57350011D02*
X142325010Y-57329173D01*
X156329009Y-58000034D02*
X155678986Y-57350011D01*
X156500000Y-58000034D02*
X156329009Y-58000034D01*
X155678986Y-57350011D02*
X142345848Y-57350011D01*
D13*
%TO.N,Net-(J8-Pad1)*%
X155149989Y-71349989D02*
X153900000Y-70100000D01*
X153900000Y-68500000D02*
X154000000Y-68600000D01*
X153900000Y-70100000D02*
X153900000Y-68525000D01*
X155149989Y-95049989D02*
X155149989Y-71349989D01*
X153900000Y-68525000D02*
X153875000Y-68500000D01*
X153875000Y-68500000D02*
X153900000Y-68500000D01*
X156500000Y-96400000D02*
X155149989Y-95049989D01*
D15*
%TO.N,Net-(J9-Pad1)*%
X144400000Y-59300000D02*
X142900000Y-59300000D01*
X156200001Y-60799999D02*
X151499999Y-60799999D01*
X156900000Y-60100000D02*
X156200001Y-60799999D01*
X149700000Y-59000000D02*
X144700000Y-59000000D01*
X144700000Y-59000000D02*
X144400000Y-59300000D01*
X142900000Y-59300000D02*
X141100001Y-57500001D01*
X151499999Y-60799999D02*
X149700000Y-59000000D01*
X141100001Y-56032425D02*
X142382416Y-54750010D01*
X141100001Y-57500001D02*
X141100001Y-56032425D01*
%TO.N,Net-(J10-Pad1)*%
X141800000Y-59500000D02*
X144500000Y-62200000D01*
X156299979Y-56750000D02*
X143476126Y-56750000D01*
X156500000Y-56950021D02*
X156299979Y-56750000D01*
X143476126Y-56750000D02*
X142795489Y-56069363D01*
X142795489Y-56069363D02*
X142229804Y-56069363D01*
D13*
X144500000Y-62200000D02*
X144500000Y-63800000D01*
X144500000Y-63800000D02*
X144800000Y-64100000D01*
%TO.N,/INH*%
X159750000Y-46050000D02*
X159247788Y-46050000D01*
X159247788Y-46050000D02*
X153047788Y-52250000D01*
X153047788Y-52250000D02*
X151500000Y-52250000D01*
%TO.N,/C_High*%
X146300000Y-55000000D02*
X146300000Y-53738166D01*
X165399999Y-48917069D02*
X165399999Y-49900001D01*
X165399999Y-49900001D02*
X163075000Y-52225000D01*
X146900000Y-55600000D02*
X146300000Y-55000000D01*
X146300000Y-53738166D02*
X147000000Y-53038166D01*
X147000000Y-53038166D02*
X147000000Y-52250000D01*
X158450000Y-55600000D02*
X146900000Y-55600000D01*
X166000000Y-48317068D02*
X165399999Y-48917069D01*
X161825000Y-52225000D02*
X158450000Y-55600000D01*
X163075000Y-52225000D02*
X161825000Y-52225000D01*
%TO.N,/C_Low*%
X159727624Y-48022376D02*
X158836939Y-48022376D01*
X154550000Y-52309315D02*
X154550000Y-52950000D01*
X158836939Y-48022376D02*
X154550000Y-52309315D01*
%TO.N,/B_High*%
X163490676Y-52775010D02*
X166200000Y-50065685D01*
X158799989Y-56150011D02*
X162174990Y-52775010D01*
X162174990Y-52775010D02*
X163490676Y-52775010D01*
X145895001Y-53195001D02*
X145700000Y-53390002D01*
X145700000Y-55200000D02*
X146650011Y-56150011D01*
X166200000Y-50065685D02*
X166200000Y-49500000D01*
X145700000Y-53390002D02*
X145700000Y-55200000D01*
X146650011Y-56150011D02*
X158799989Y-56150011D01*
D15*
%TO.N,/B_Low*%
X160091623Y-50600000D02*
X160200000Y-50600000D01*
D13*
X160200000Y-50600000D02*
X156580680Y-54219320D01*
X156580680Y-54219320D02*
X155690423Y-54219320D01*
%TO.N,/A_High*%
X160250000Y-47000000D02*
X159075621Y-47000000D01*
X159075621Y-47000000D02*
X152975621Y-53100000D01*
X149100000Y-53100000D02*
X148300000Y-53900000D01*
X152975621Y-53100000D02*
X149100000Y-53100000D01*
D15*
%TO.N,/A_Low*%
X160200000Y-52047858D02*
X160200000Y-52200000D01*
D13*
X151484984Y-54465000D02*
X152039305Y-55019321D01*
X152039305Y-55019321D02*
X157380679Y-55019321D01*
X157380679Y-55019321D02*
X160200000Y-52200000D01*
%TO.N,/Temp_4*%
X152600000Y-106000000D02*
X152600000Y-104800000D01*
X155100000Y-62300000D02*
X159177830Y-62300000D01*
X150500000Y-86000000D02*
X150795480Y-85704520D01*
X152600000Y-104800000D02*
X150500000Y-102700000D01*
X150500000Y-102700000D02*
X150500000Y-86000000D01*
X159177830Y-62300000D02*
X162700000Y-58777830D01*
X150795480Y-85704520D02*
X150795480Y-66604520D01*
X162700000Y-58777830D02*
X162700000Y-54274998D01*
X150795480Y-66604520D02*
X155100000Y-62300000D01*
%TO.N,/Temp_3*%
X151345491Y-90145491D02*
X151345491Y-66854509D01*
X163365685Y-58889975D02*
X163365685Y-56000000D01*
X163365685Y-56000000D02*
X163800000Y-55565685D01*
X159405652Y-62850011D02*
X163365685Y-58889975D01*
X152400000Y-91200000D02*
X151345491Y-90145491D01*
X163800000Y-55565685D02*
X163800000Y-54450000D01*
X155349989Y-62850011D02*
X159405652Y-62850011D01*
X151345491Y-66854509D02*
X155349989Y-62850011D01*
%TO.N,/Temp_2*%
X153599959Y-75694780D02*
X152300000Y-74394821D01*
X155599978Y-63400022D02*
X159633468Y-63400022D01*
X152300000Y-74394821D02*
X152300000Y-66700000D01*
X163965703Y-56500000D02*
X164850003Y-55615700D01*
X164850003Y-55615700D02*
X164850003Y-54450000D01*
X163965703Y-59067787D02*
X163965703Y-56500000D01*
X152300000Y-66700000D02*
X155599978Y-63400022D01*
X159633468Y-63400022D02*
X163965703Y-59067787D01*
%TO.N,/Temp_1*%
X153800000Y-119800000D02*
X154599978Y-119000022D01*
X152900000Y-66877832D02*
X155827799Y-63950033D01*
X155827799Y-63950033D02*
X159861287Y-63950033D01*
X154599978Y-119000022D02*
X154599978Y-71599978D01*
X152900000Y-69400000D02*
X152900000Y-66877832D01*
X153300000Y-69800000D02*
X152900000Y-69400000D01*
X164600000Y-59211320D02*
X164600000Y-56865691D01*
X164600000Y-56865691D02*
X165900006Y-55565685D01*
X165900006Y-55565685D02*
X165900006Y-54450000D01*
X154599978Y-71599978D02*
X153300000Y-70300000D01*
X159861287Y-63950033D02*
X164600000Y-59211320D01*
X153300000Y-70300000D02*
X153300000Y-69800000D01*
%TO.N,/MCU_In*%
X159022181Y-44699989D02*
X159022179Y-44699991D01*
X164199989Y-44699989D02*
X165100001Y-45600001D01*
X159022181Y-44699989D02*
X164199989Y-44699989D01*
X165100001Y-45600001D02*
X165500000Y-46000000D01*
X150600016Y-50199990D02*
X150038697Y-50761309D01*
X159022181Y-44699989D02*
X153522180Y-50199990D01*
X153522180Y-50199990D02*
X150600016Y-50199990D01*
%TO.N,/MCU_Out*%
X164250000Y-46000000D02*
X163499999Y-45249999D01*
X151749999Y-50750001D02*
X150650000Y-51850000D01*
X149811793Y-51850000D02*
X148711361Y-50749568D01*
X150650000Y-51850000D02*
X149811793Y-51850000D01*
X163499999Y-45249999D02*
X159250003Y-45249999D01*
X153750002Y-50750001D02*
X151749999Y-50750001D01*
X159250003Y-45249999D02*
X153750002Y-50750001D01*
%TD*%
%TA.AperFunction,Conductor*%
%TO.N,Net-(J6-Pad1)*%
G36*
X149942121Y-82020002D02*
G01*
X149988614Y-82073658D01*
X150000000Y-82126000D01*
X150000000Y-85732922D01*
X149991335Y-85773686D01*
X149992365Y-85773985D01*
X149980225Y-85815772D01*
X149976380Y-85827002D01*
X149960364Y-85867453D01*
X149959466Y-85875994D01*
X149959466Y-85875995D01*
X149958792Y-85882408D01*
X149954480Y-85904383D01*
X149950285Y-85918825D01*
X149949500Y-85929515D01*
X149949500Y-85964217D01*
X149948810Y-85977387D01*
X149944599Y-86017454D01*
X149946031Y-86025919D01*
X149946031Y-86025928D01*
X149947735Y-86036000D01*
X149949500Y-86057013D01*
X149949500Y-94874000D01*
X149929498Y-94942121D01*
X149875842Y-94988614D01*
X149823500Y-95000000D01*
X147526000Y-95000000D01*
X147457879Y-94979998D01*
X147411386Y-94926342D01*
X147400000Y-94874000D01*
X147400000Y-82126000D01*
X147420002Y-82057879D01*
X147473658Y-82011386D01*
X147526000Y-82000000D01*
X149874000Y-82000000D01*
X149942121Y-82020002D01*
G37*
%TD.AperFunction*%
%TD*%
%TA.AperFunction,Conductor*%
%TO.N,Net-(J10-Pad1)*%
G36*
X149591621Y-67020002D02*
G01*
X149638114Y-67073658D01*
X149649500Y-67126000D01*
X149649500Y-79719785D01*
X149629498Y-79787906D01*
X149612595Y-79808880D01*
X149458380Y-79963095D01*
X149396068Y-79997121D01*
X149369285Y-80000000D01*
X147526000Y-80000000D01*
X147457879Y-79979998D01*
X147411386Y-79926342D01*
X147400000Y-79874000D01*
X147400000Y-67126000D01*
X147420002Y-67057879D01*
X147473658Y-67011386D01*
X147526000Y-67000000D01*
X149523500Y-67000000D01*
X149591621Y-67020002D01*
G37*
%TD.AperFunction*%
%TD*%
%TA.AperFunction,Conductor*%
%TO.N,Net-(J9-Pad1)*%
G36*
X158542121Y-67020002D02*
G01*
X158588614Y-67073658D01*
X158600000Y-67126000D01*
X158600000Y-79874000D01*
X158579998Y-79942121D01*
X158526342Y-79988614D01*
X158474000Y-80000000D01*
X156376500Y-80000000D01*
X156308379Y-79979998D01*
X156261886Y-79926342D01*
X156250500Y-79874000D01*
X156250500Y-71014993D01*
X156250611Y-71009717D01*
X156252850Y-70956291D01*
X156253210Y-70947706D01*
X156251248Y-70939341D01*
X156243273Y-70905338D01*
X156241110Y-70893667D01*
X156236372Y-70859081D01*
X156235206Y-70850568D01*
X156229235Y-70836770D01*
X156222201Y-70815501D01*
X156220730Y-70809228D01*
X156220729Y-70809226D01*
X156218768Y-70800864D01*
X156197805Y-70762734D01*
X156192583Y-70752073D01*
X156178716Y-70720027D01*
X156178715Y-70720026D01*
X156175305Y-70712145D01*
X156165842Y-70700459D01*
X156153351Y-70681871D01*
X156146106Y-70668692D01*
X156139103Y-70660578D01*
X156114567Y-70636042D01*
X156105742Y-70626241D01*
X156085794Y-70601608D01*
X156085793Y-70601607D01*
X156080386Y-70594930D01*
X156073388Y-70589957D01*
X156073383Y-70589952D01*
X156065052Y-70584032D01*
X156048946Y-70570421D01*
X156036905Y-70558380D01*
X156002879Y-70496068D01*
X156000000Y-70469285D01*
X156000000Y-67126000D01*
X156020002Y-67057879D01*
X156073658Y-67011386D01*
X156126000Y-67000000D01*
X158474000Y-67000000D01*
X158542121Y-67020002D01*
G37*
%TD.AperFunction*%
%TD*%
%TA.AperFunction,Conductor*%
%TO.N,Net-(J5-Pad1)*%
G36*
X158542121Y-82020002D02*
G01*
X158588614Y-82073658D01*
X158600000Y-82126000D01*
X158600000Y-94874000D01*
X158579998Y-94942121D01*
X158526342Y-94988614D01*
X158474000Y-95000000D01*
X156126000Y-95000000D01*
X156057879Y-94979998D01*
X156011386Y-94926342D01*
X156000000Y-94874000D01*
X156000000Y-82126000D01*
X156020002Y-82057879D01*
X156073658Y-82011386D01*
X156126000Y-82000000D01*
X158474000Y-82000000D01*
X158542121Y-82020002D01*
G37*
%TD.AperFunction*%
%TD*%
%TA.AperFunction,Conductor*%
%TO.N,Net-(J8-Pad1)*%
G36*
X158542121Y-97020002D02*
G01*
X158588614Y-97073658D01*
X158600000Y-97126000D01*
X158600000Y-109874000D01*
X158579998Y-109942121D01*
X158526342Y-109988614D01*
X158474000Y-110000000D01*
X156126000Y-110000000D01*
X156057879Y-109979998D01*
X156011386Y-109926342D01*
X156000000Y-109874000D01*
X156000000Y-97126000D01*
X156020002Y-97057879D01*
X156073658Y-97011386D01*
X156126000Y-97000000D01*
X158474000Y-97000000D01*
X158542121Y-97020002D01*
G37*
%TD.AperFunction*%
%TD*%
%TA.AperFunction,Conductor*%
%TO.N,Net-(J7-Pad1)*%
G36*
X158542121Y-112020002D02*
G01*
X158588614Y-112073658D01*
X158600000Y-112126000D01*
X158600000Y-124874000D01*
X158579998Y-124942121D01*
X158526342Y-124988614D01*
X158474000Y-125000000D01*
X156126000Y-125000000D01*
X156057879Y-124979998D01*
X156011386Y-124926342D01*
X156000000Y-124874000D01*
X156000000Y-112126000D01*
X156020002Y-112057879D01*
X156073658Y-112011386D01*
X156126000Y-112000000D01*
X158474000Y-112000000D01*
X158542121Y-112020002D01*
G37*
%TD.AperFunction*%
%TD*%
%TA.AperFunction,Conductor*%
%TO.N,Net-(J4-Pad1)*%
G36*
X149942121Y-112020002D02*
G01*
X149988614Y-112073658D01*
X150000000Y-112126000D01*
X150000000Y-124874000D01*
X149979998Y-124942121D01*
X149926342Y-124988614D01*
X149874000Y-125000000D01*
X147526000Y-125000000D01*
X147457879Y-124979998D01*
X147411386Y-124926342D01*
X147400000Y-124874000D01*
X147400000Y-112126000D01*
X147420002Y-112057879D01*
X147473658Y-112011386D01*
X147526000Y-112000000D01*
X149874000Y-112000000D01*
X149942121Y-112020002D01*
G37*
%TD.AperFunction*%
%TD*%
%TA.AperFunction,Conductor*%
%TO.N,Net-(J3-Pad1)*%
G36*
X149891621Y-97020002D02*
G01*
X149938114Y-97073658D01*
X149949500Y-97126000D01*
X149949500Y-102685007D01*
X149949389Y-102690283D01*
X149946790Y-102752294D01*
X149948752Y-102760659D01*
X149956727Y-102794662D01*
X149958890Y-102806333D01*
X149964794Y-102849432D01*
X149968206Y-102857316D01*
X149968206Y-102857317D01*
X149970765Y-102863230D01*
X149977799Y-102884499D01*
X149981232Y-102899136D01*
X149985370Y-102906663D01*
X149988449Y-102914684D01*
X149987057Y-102915218D01*
X150000000Y-102965627D01*
X150000000Y-109874000D01*
X149979998Y-109942121D01*
X149926342Y-109988614D01*
X149874000Y-110000000D01*
X147526000Y-110000000D01*
X147457879Y-109979998D01*
X147411386Y-109926342D01*
X147400000Y-109874000D01*
X147400000Y-97126000D01*
X147420002Y-97057879D01*
X147473658Y-97011386D01*
X147526000Y-97000000D01*
X149823500Y-97000000D01*
X149891621Y-97020002D01*
G37*
%TD.AperFunction*%
%TD*%
%TA.AperFunction,Conductor*%
%TO.N,GND*%
G36*
X152104503Y-74978303D02*
G01*
X152111086Y-74984432D01*
X152760863Y-75634209D01*
X152794889Y-75696521D01*
X152797167Y-75711007D01*
X152811998Y-75862266D01*
X152868685Y-76032676D01*
X152961718Y-76186292D01*
X153086473Y-76315479D01*
X153236748Y-76413816D01*
X153405075Y-76476416D01*
X153412056Y-76477347D01*
X153412058Y-76477348D01*
X153576108Y-76499237D01*
X153576112Y-76499237D01*
X153583089Y-76500168D01*
X153590101Y-76499530D01*
X153590105Y-76499530D01*
X153754919Y-76484531D01*
X153754920Y-76484531D01*
X153761940Y-76483892D01*
X153884542Y-76444056D01*
X153955509Y-76442028D01*
X154016307Y-76478691D01*
X154047633Y-76542403D01*
X154049478Y-76563889D01*
X154049478Y-118719806D01*
X154029476Y-118787927D01*
X154012574Y-118808901D01*
X153861085Y-118960391D01*
X153798773Y-118994416D01*
X153785160Y-118996606D01*
X153761526Y-118999090D01*
X153634025Y-119012490D01*
X153634021Y-119012491D01*
X153627017Y-119013227D01*
X153620346Y-119015498D01*
X153463677Y-119068832D01*
X153463674Y-119068833D01*
X153457007Y-119071103D01*
X153304045Y-119165206D01*
X153299014Y-119170132D01*
X153299011Y-119170135D01*
X153250355Y-119217783D01*
X153175732Y-119290859D01*
X153171913Y-119296784D01*
X153171912Y-119296786D01*
X153082265Y-119435891D01*
X153078446Y-119441817D01*
X153017022Y-119610578D01*
X152994514Y-119788753D01*
X152995201Y-119795760D01*
X152995201Y-119795763D01*
X152997177Y-119815911D01*
X153012039Y-119967486D01*
X153014262Y-119974168D01*
X153014262Y-119974169D01*
X153022967Y-120000336D01*
X153068726Y-120137896D01*
X153161759Y-120291512D01*
X153286514Y-120420699D01*
X153436789Y-120519036D01*
X153605116Y-120581636D01*
X153612097Y-120582567D01*
X153612099Y-120582568D01*
X153776149Y-120604457D01*
X153776153Y-120604457D01*
X153783130Y-120605388D01*
X153790142Y-120604750D01*
X153790146Y-120604750D01*
X153954960Y-120589751D01*
X153954961Y-120589751D01*
X153961981Y-120589112D01*
X154132782Y-120533615D01*
X154163714Y-120515176D01*
X154280992Y-120445265D01*
X154280994Y-120445264D01*
X154287044Y-120441657D01*
X154417099Y-120317807D01*
X154434570Y-120291512D01*
X154512582Y-120174093D01*
X154516483Y-120168222D01*
X154531168Y-120129564D01*
X154577757Y-120006919D01*
X154577758Y-120006914D01*
X154580257Y-120000336D01*
X154605251Y-119822493D01*
X154605306Y-119818530D01*
X154605508Y-119815911D01*
X154630678Y-119749526D01*
X154642041Y-119736484D01*
X154978633Y-119399891D01*
X154982443Y-119396238D01*
X155021811Y-119360037D01*
X155028134Y-119354223D01*
X155051077Y-119317220D01*
X155057778Y-119307470D01*
X155084090Y-119272805D01*
X155089624Y-119258826D01*
X155099685Y-119238823D01*
X155107613Y-119226036D01*
X155119753Y-119184250D01*
X155123599Y-119173017D01*
X155136451Y-119140557D01*
X155139614Y-119132569D01*
X155141186Y-119117614D01*
X155145498Y-119095639D01*
X155149693Y-119081197D01*
X155150478Y-119070507D01*
X155150478Y-119035805D01*
X155151168Y-119022635D01*
X155153890Y-118996735D01*
X155155379Y-118982568D01*
X155153947Y-118974103D01*
X155153947Y-118974094D01*
X155152243Y-118964022D01*
X155150478Y-118943009D01*
X155150478Y-96133194D01*
X155170480Y-96065073D01*
X155224136Y-96018580D01*
X155294410Y-96008476D01*
X155358990Y-96037970D01*
X155365573Y-96044098D01*
X155660904Y-96339428D01*
X155694929Y-96401741D01*
X155697208Y-96416227D01*
X155712039Y-96567486D01*
X155714262Y-96574168D01*
X155714263Y-96574174D01*
X155747091Y-96672859D01*
X155749614Y-96743811D01*
X155721569Y-96796494D01*
X155689813Y-96832102D01*
X155636205Y-96945187D01*
X155616203Y-97013308D01*
X155600000Y-97126000D01*
X155600000Y-109874000D01*
X155609141Y-109959024D01*
X155620527Y-110011366D01*
X155642936Y-110082049D01*
X155709086Y-110188286D01*
X155755579Y-110241942D01*
X155832102Y-110310187D01*
X155840246Y-110314048D01*
X155840248Y-110314049D01*
X155940716Y-110361676D01*
X155940721Y-110361678D01*
X155945187Y-110363795D01*
X155949934Y-110365189D01*
X155949937Y-110365190D01*
X155975645Y-110372738D01*
X156013308Y-110383797D01*
X156017767Y-110384438D01*
X156017771Y-110384439D01*
X156057451Y-110390144D01*
X156126000Y-110400000D01*
X158474000Y-110400000D01*
X158542121Y-110420002D01*
X158588614Y-110473658D01*
X158600000Y-110526000D01*
X158600000Y-111474000D01*
X158579998Y-111542121D01*
X158526342Y-111588614D01*
X158474000Y-111600000D01*
X156126000Y-111600000D01*
X156122652Y-111600360D01*
X156122651Y-111600360D01*
X156103073Y-111602465D01*
X156040976Y-111609141D01*
X156037692Y-111609855D01*
X156037688Y-111609856D01*
X156011463Y-111615561D01*
X155988634Y-111620527D01*
X155917951Y-111642936D01*
X155811714Y-111709086D01*
X155758058Y-111755579D01*
X155689813Y-111832102D01*
X155685952Y-111840246D01*
X155685951Y-111840248D01*
X155652290Y-111911257D01*
X155636205Y-111945187D01*
X155616203Y-112013308D01*
X155615562Y-112017767D01*
X155615561Y-112017771D01*
X155612225Y-112040976D01*
X155600000Y-112126000D01*
X155600000Y-124874000D01*
X155609141Y-124959024D01*
X155620527Y-125011366D01*
X155642936Y-125082049D01*
X155709086Y-125188286D01*
X155755579Y-125241942D01*
X155832102Y-125310187D01*
X155840246Y-125314048D01*
X155840248Y-125314049D01*
X155940716Y-125361676D01*
X155940721Y-125361678D01*
X155945187Y-125363795D01*
X155949934Y-125365189D01*
X155949937Y-125365190D01*
X155975645Y-125372738D01*
X156013308Y-125383797D01*
X156017767Y-125384438D01*
X156017771Y-125384439D01*
X156057451Y-125390144D01*
X156126000Y-125400000D01*
X158474000Y-125400000D01*
X158542121Y-125420002D01*
X158588614Y-125473658D01*
X158600000Y-125526000D01*
X158600000Y-125674914D01*
X158579998Y-125743035D01*
X158530350Y-125787611D01*
X158132176Y-125986698D01*
X158075827Y-126000000D01*
X147924173Y-126000000D01*
X147867824Y-125986698D01*
X147469650Y-125787611D01*
X147417667Y-125739257D01*
X147400000Y-125674914D01*
X147400000Y-125526000D01*
X147420002Y-125457879D01*
X147473658Y-125411386D01*
X147526000Y-125400000D01*
X149874000Y-125400000D01*
X149879972Y-125399358D01*
X149896927Y-125397535D01*
X149959024Y-125390859D01*
X149962308Y-125390145D01*
X149962312Y-125390144D01*
X149991687Y-125383754D01*
X150011366Y-125379473D01*
X150082049Y-125357064D01*
X150188286Y-125290914D01*
X150241942Y-125244421D01*
X150310187Y-125167898D01*
X150314049Y-125159752D01*
X150361676Y-125059284D01*
X150361678Y-125059279D01*
X150363795Y-125054813D01*
X150383797Y-124986692D01*
X150387303Y-124962312D01*
X150399358Y-124878463D01*
X150400000Y-124874000D01*
X150400000Y-112126000D01*
X150390859Y-112040976D01*
X150379473Y-111988634D01*
X150357064Y-111917951D01*
X150290914Y-111811714D01*
X150244421Y-111758058D01*
X150167898Y-111689813D01*
X150159754Y-111685952D01*
X150159752Y-111685951D01*
X150059284Y-111638324D01*
X150059279Y-111638322D01*
X150054813Y-111636205D01*
X150050066Y-111634811D01*
X150050063Y-111634810D01*
X150024355Y-111627262D01*
X149986692Y-111616203D01*
X149982233Y-111615562D01*
X149982229Y-111615561D01*
X149930346Y-111608102D01*
X149874000Y-111600000D01*
X147526000Y-111600000D01*
X147457879Y-111579998D01*
X147411386Y-111526342D01*
X147400000Y-111474000D01*
X147400000Y-110526000D01*
X147420002Y-110457879D01*
X147473658Y-110411386D01*
X147526000Y-110400000D01*
X149874000Y-110400000D01*
X149879972Y-110399358D01*
X149896927Y-110397535D01*
X149959024Y-110390859D01*
X149962308Y-110390145D01*
X149962312Y-110390144D01*
X149991687Y-110383754D01*
X150011366Y-110379473D01*
X150082049Y-110357064D01*
X150188286Y-110290914D01*
X150241942Y-110244421D01*
X150310187Y-110167898D01*
X150314049Y-110159752D01*
X150361676Y-110059284D01*
X150361678Y-110059279D01*
X150363795Y-110054813D01*
X150383797Y-109986692D01*
X150387303Y-109962312D01*
X150399358Y-109878463D01*
X150400000Y-109874000D01*
X150400000Y-103682715D01*
X150420002Y-103614594D01*
X150473658Y-103568101D01*
X150543932Y-103557997D01*
X150608512Y-103587491D01*
X150615095Y-103593620D01*
X152012595Y-104991120D01*
X152046621Y-105053432D01*
X152049500Y-105080215D01*
X152049500Y-105365654D01*
X152029498Y-105433775D01*
X152011657Y-105455678D01*
X151980767Y-105485928D01*
X151975732Y-105490859D01*
X151878446Y-105641817D01*
X151817022Y-105810578D01*
X151794514Y-105988753D01*
X151795201Y-105995760D01*
X151795201Y-105995763D01*
X151796005Y-106003963D01*
X151812039Y-106167486D01*
X151814262Y-106174168D01*
X151814262Y-106174169D01*
X151822967Y-106200336D01*
X151868726Y-106337896D01*
X151961759Y-106491512D01*
X152086514Y-106620699D01*
X152236789Y-106719036D01*
X152405116Y-106781636D01*
X152412097Y-106782567D01*
X152412099Y-106782568D01*
X152576149Y-106804457D01*
X152576153Y-106804457D01*
X152583130Y-106805388D01*
X152590142Y-106804750D01*
X152590146Y-106804750D01*
X152754960Y-106789751D01*
X152754961Y-106789751D01*
X152761981Y-106789112D01*
X152932782Y-106733615D01*
X152963714Y-106715176D01*
X153080992Y-106645265D01*
X153080994Y-106645264D01*
X153087044Y-106641657D01*
X153217099Y-106517807D01*
X153234570Y-106491512D01*
X153312582Y-106374093D01*
X153316483Y-106368222D01*
X153331168Y-106329564D01*
X153377757Y-106206919D01*
X153377758Y-106206914D01*
X153380257Y-106200336D01*
X153405251Y-106022493D01*
X153405565Y-106000000D01*
X153385546Y-105821528D01*
X153379427Y-105803955D01*
X153328803Y-105658584D01*
X153326485Y-105651927D01*
X153231316Y-105499625D01*
X153222611Y-105490859D01*
X153187094Y-105455093D01*
X153153287Y-105392662D01*
X153150500Y-105366309D01*
X153150500Y-104814993D01*
X153150611Y-104809717D01*
X153152850Y-104756291D01*
X153153210Y-104747706D01*
X153151248Y-104739341D01*
X153143273Y-104705338D01*
X153141110Y-104693667D01*
X153136372Y-104659081D01*
X153135206Y-104650568D01*
X153129235Y-104636770D01*
X153122201Y-104615501D01*
X153120730Y-104609228D01*
X153120729Y-104609226D01*
X153118768Y-104600864D01*
X153097805Y-104562734D01*
X153092583Y-104552073D01*
X153078716Y-104520027D01*
X153078715Y-104520026D01*
X153075305Y-104512145D01*
X153065842Y-104500459D01*
X153053351Y-104481871D01*
X153046106Y-104468692D01*
X153039102Y-104460578D01*
X153014567Y-104436043D01*
X153005742Y-104426242D01*
X152985794Y-104401608D01*
X152985793Y-104401607D01*
X152980386Y-104394930D01*
X152973384Y-104389954D01*
X152973382Y-104389952D01*
X152965051Y-104384032D01*
X152948945Y-104370421D01*
X151087405Y-102508881D01*
X151053379Y-102446569D01*
X151050500Y-102419786D01*
X151050500Y-90933216D01*
X151070502Y-90865095D01*
X151124158Y-90818602D01*
X151194432Y-90808498D01*
X151259012Y-90837992D01*
X151265595Y-90844120D01*
X151560904Y-91139428D01*
X151594929Y-91201741D01*
X151597208Y-91216227D01*
X151612039Y-91367486D01*
X151614262Y-91374168D01*
X151614262Y-91374169D01*
X151622967Y-91400336D01*
X151668726Y-91537896D01*
X151761759Y-91691512D01*
X151886514Y-91820699D01*
X152036789Y-91919036D01*
X152205116Y-91981636D01*
X152212097Y-91982567D01*
X152212099Y-91982568D01*
X152376149Y-92004457D01*
X152376153Y-92004457D01*
X152383130Y-92005388D01*
X152390142Y-92004750D01*
X152390146Y-92004750D01*
X152554960Y-91989751D01*
X152554961Y-91989751D01*
X152561981Y-91989112D01*
X152732782Y-91933615D01*
X152763714Y-91915176D01*
X152880992Y-91845265D01*
X152880994Y-91845264D01*
X152887044Y-91841657D01*
X153017099Y-91717807D01*
X153034570Y-91691512D01*
X153112582Y-91574093D01*
X153116483Y-91568222D01*
X153131168Y-91529564D01*
X153177757Y-91406919D01*
X153177758Y-91406914D01*
X153180257Y-91400336D01*
X153205251Y-91222493D01*
X153205565Y-91200000D01*
X153185546Y-91021528D01*
X153126485Y-90851927D01*
X153117778Y-90837992D01*
X153035049Y-90705599D01*
X153031316Y-90699625D01*
X152961207Y-90629025D01*
X152909733Y-90577190D01*
X152909729Y-90577187D01*
X152904770Y-90572193D01*
X152753136Y-90475963D01*
X152723352Y-90465357D01*
X152590586Y-90418081D01*
X152590581Y-90418080D01*
X152583951Y-90415719D01*
X152576963Y-90414886D01*
X152576960Y-90414885D01*
X152411882Y-90395201D01*
X152346609Y-90367274D01*
X152337706Y-90359182D01*
X151932896Y-89954372D01*
X151898870Y-89892060D01*
X151895991Y-89865277D01*
X151895991Y-75073527D01*
X151915993Y-75005406D01*
X151969649Y-74958913D01*
X152039923Y-74948809D01*
X152104503Y-74978303D01*
G37*
%TD.AperFunction*%
%TA.AperFunction,Conductor*%
G36*
X133042121Y-40920002D02*
G01*
X133088614Y-40973658D01*
X133100000Y-41026000D01*
X133100000Y-42458602D01*
X133098449Y-42478311D01*
X133095014Y-42500000D01*
X133100000Y-42531481D01*
X133114835Y-42625148D01*
X133172359Y-42738045D01*
X133261955Y-42827641D01*
X133374852Y-42885165D01*
X133500000Y-42904986D01*
X133521689Y-42901551D01*
X133541398Y-42900000D01*
X139458602Y-42900000D01*
X139478311Y-42901551D01*
X139500000Y-42904986D01*
X139531481Y-42900000D01*
X139625148Y-42885165D01*
X139738045Y-42827641D01*
X139827641Y-42738045D01*
X139885165Y-42625148D01*
X139904986Y-42500000D01*
X139901551Y-42478311D01*
X139900000Y-42458602D01*
X139900000Y-41026000D01*
X139920002Y-40957879D01*
X139973658Y-40911386D01*
X140026000Y-40900000D01*
X141703762Y-40900000D01*
X141771883Y-40920002D01*
X141818376Y-40973658D01*
X141828480Y-41043932D01*
X141816029Y-41083203D01*
X141766354Y-41180696D01*
X141751500Y-41274481D01*
X141751501Y-43037518D01*
X141766354Y-43131304D01*
X141823950Y-43244342D01*
X141913658Y-43334050D01*
X142026696Y-43391646D01*
X142036485Y-43393196D01*
X142036487Y-43393197D01*
X142063849Y-43397530D01*
X142120481Y-43406500D01*
X142263796Y-43406500D01*
X142331917Y-43426502D01*
X142378410Y-43480158D01*
X142388514Y-43550432D01*
X142359020Y-43615012D01*
X142336067Y-43635712D01*
X142195123Y-43734402D01*
X142040402Y-43889123D01*
X141914898Y-44068362D01*
X141912577Y-44073340D01*
X141912575Y-44073343D01*
X141830710Y-44248902D01*
X141822425Y-44266670D01*
X141821003Y-44271978D01*
X141821002Y-44271980D01*
X141810455Y-44311343D01*
X141765793Y-44478023D01*
X141746723Y-44696000D01*
X141765793Y-44913977D01*
X141822425Y-45125330D01*
X141824747Y-45130310D01*
X141824748Y-45130312D01*
X141892667Y-45275963D01*
X141914898Y-45323638D01*
X142040402Y-45502877D01*
X142195123Y-45657598D01*
X142199631Y-45660755D01*
X142199634Y-45660757D01*
X142319620Y-45744772D01*
X142374361Y-45783102D01*
X142379343Y-45785425D01*
X142379348Y-45785428D01*
X142521695Y-45851805D01*
X142574980Y-45898722D01*
X142594441Y-45967000D01*
X142573899Y-46034960D01*
X142521695Y-46080195D01*
X142379343Y-46146575D01*
X142379340Y-46146577D01*
X142374362Y-46148898D01*
X142195123Y-46274402D01*
X142040402Y-46429123D01*
X141914898Y-46608362D01*
X141912577Y-46613340D01*
X141912575Y-46613343D01*
X141833664Y-46782568D01*
X141822425Y-46806670D01*
X141821003Y-46811978D01*
X141821002Y-46811980D01*
X141811675Y-46846790D01*
X141765793Y-47018023D01*
X141746723Y-47236000D01*
X141765793Y-47453977D01*
X141781323Y-47511936D01*
X141817049Y-47645265D01*
X141822425Y-47665330D01*
X141824747Y-47670310D01*
X141824748Y-47670312D01*
X141912556Y-47858615D01*
X141914898Y-47863638D01*
X142040402Y-48042877D01*
X142195123Y-48197598D01*
X142199631Y-48200755D01*
X142199634Y-48200757D01*
X142369852Y-48319945D01*
X142374361Y-48323102D01*
X142379343Y-48325425D01*
X142379348Y-48325428D01*
X142394663Y-48332569D01*
X142447948Y-48379486D01*
X142467409Y-48447764D01*
X142446867Y-48515724D01*
X142399593Y-48558527D01*
X142280463Y-48620542D01*
X142271738Y-48626036D01*
X142101433Y-48753905D01*
X142093726Y-48760748D01*
X141946590Y-48914717D01*
X141940104Y-48922727D01*
X141820098Y-49098649D01*
X141815000Y-49107623D01*
X141725338Y-49300783D01*
X141721775Y-49310470D01*
X141666389Y-49510183D01*
X141667912Y-49518607D01*
X141680292Y-49522000D01*
X144320344Y-49522000D01*
X144333875Y-49518027D01*
X144335180Y-49508947D01*
X144293214Y-49341875D01*
X144289894Y-49332124D01*
X144204972Y-49136814D01*
X144200105Y-49127739D01*
X144084426Y-48948926D01*
X144078136Y-48940757D01*
X143934806Y-48783240D01*
X143927273Y-48776215D01*
X143760139Y-48644222D01*
X143751552Y-48638517D01*
X143602952Y-48556485D01*
X143552982Y-48506053D01*
X143538210Y-48436610D01*
X143563326Y-48370205D01*
X143610596Y-48331982D01*
X143624652Y-48325428D01*
X143624657Y-48325425D01*
X143629639Y-48323102D01*
X143634148Y-48319945D01*
X143804366Y-48200757D01*
X143804369Y-48200755D01*
X143808877Y-48197598D01*
X143963598Y-48042877D01*
X144089102Y-47863638D01*
X144091445Y-47858615D01*
X144179252Y-47670312D01*
X144179253Y-47670310D01*
X144181575Y-47665330D01*
X144186952Y-47645265D01*
X144222677Y-47511936D01*
X144238207Y-47453977D01*
X144257277Y-47236000D01*
X144238207Y-47018023D01*
X144192325Y-46846790D01*
X144182998Y-46811980D01*
X144182997Y-46811978D01*
X144181575Y-46806670D01*
X144170336Y-46782568D01*
X144091425Y-46613343D01*
X144091423Y-46613340D01*
X144089102Y-46608362D01*
X143963598Y-46429123D01*
X143808877Y-46274402D01*
X143804369Y-46271245D01*
X143804366Y-46271243D01*
X143634148Y-46152055D01*
X143634145Y-46152053D01*
X143629639Y-46148898D01*
X143624657Y-46146575D01*
X143624652Y-46146572D01*
X143482305Y-46080195D01*
X143429020Y-46033278D01*
X143409559Y-45965000D01*
X143430101Y-45897040D01*
X143482305Y-45851805D01*
X143624652Y-45785428D01*
X143624657Y-45785425D01*
X143629639Y-45783102D01*
X143684380Y-45744772D01*
X143804366Y-45660757D01*
X143804369Y-45660755D01*
X143808877Y-45657598D01*
X143963598Y-45502877D01*
X144089102Y-45323638D01*
X144111334Y-45275963D01*
X144179252Y-45130312D01*
X144179253Y-45130310D01*
X144181575Y-45125330D01*
X144238207Y-44913977D01*
X144257277Y-44696000D01*
X144238207Y-44478023D01*
X144193545Y-44311343D01*
X144182998Y-44271980D01*
X144182997Y-44271978D01*
X144181575Y-44266670D01*
X144173290Y-44248902D01*
X144091425Y-44073343D01*
X144091423Y-44073340D01*
X144089102Y-44068362D01*
X143963598Y-43889123D01*
X143808877Y-43734402D01*
X143804369Y-43731245D01*
X143804366Y-43731243D01*
X143709050Y-43664502D01*
X143667933Y-43635712D01*
X143623605Y-43580255D01*
X143616296Y-43509636D01*
X143648327Y-43446275D01*
X143709528Y-43410290D01*
X143740203Y-43406499D01*
X143883518Y-43406499D01*
X143888412Y-43405724D01*
X143967506Y-43393198D01*
X143967508Y-43393197D01*
X143977304Y-43391646D01*
X144090342Y-43334050D01*
X144180050Y-43244342D01*
X144237646Y-43131304D01*
X144252500Y-43037519D01*
X144252499Y-41274482D01*
X144237646Y-41180696D01*
X144225472Y-41156803D01*
X144187971Y-41083203D01*
X144174867Y-41013426D01*
X144201567Y-40947641D01*
X144259595Y-40906735D01*
X144300238Y-40900000D01*
X174949901Y-40900000D01*
X175018022Y-40920002D01*
X175064515Y-40973658D01*
X175074619Y-41043932D01*
X175045125Y-41108512D01*
X174985399Y-41146896D01*
X174969610Y-41150449D01*
X174929494Y-41156802D01*
X174929492Y-41156803D01*
X174919696Y-41158354D01*
X174806658Y-41215950D01*
X174716950Y-41305658D01*
X174659354Y-41418696D01*
X174644500Y-41512481D01*
X174644501Y-43275518D01*
X174659354Y-43369304D01*
X174663855Y-43378137D01*
X174663857Y-43378142D01*
X174668443Y-43387143D01*
X174716950Y-43482342D01*
X174806658Y-43572050D01*
X174919696Y-43629646D01*
X174929485Y-43631196D01*
X174929487Y-43631197D01*
X174956849Y-43635530D01*
X175013481Y-43644500D01*
X175156796Y-43644500D01*
X175224917Y-43664502D01*
X175271410Y-43718158D01*
X175281514Y-43788432D01*
X175252020Y-43853012D01*
X175229067Y-43873712D01*
X175088123Y-43972402D01*
X174933402Y-44127123D01*
X174807898Y-44306362D01*
X174805577Y-44311340D01*
X174805575Y-44311343D01*
X174800916Y-44321334D01*
X174715425Y-44504670D01*
X174658793Y-44716023D01*
X174639723Y-44934000D01*
X174658793Y-45151977D01*
X174667012Y-45182649D01*
X174711735Y-45349557D01*
X174715425Y-45363330D01*
X174717747Y-45368310D01*
X174717748Y-45368312D01*
X174778981Y-45499625D01*
X174807898Y-45561638D01*
X174933402Y-45740877D01*
X175088123Y-45895598D01*
X175092631Y-45898755D01*
X175092634Y-45898757D01*
X175242884Y-46003963D01*
X175267361Y-46021102D01*
X175272343Y-46023425D01*
X175272348Y-46023428D01*
X175414695Y-46089805D01*
X175467980Y-46136722D01*
X175487441Y-46205000D01*
X175466899Y-46272960D01*
X175414695Y-46318195D01*
X175272343Y-46384575D01*
X175272340Y-46384577D01*
X175267362Y-46386898D01*
X175088123Y-46512402D01*
X174933402Y-46667123D01*
X174807898Y-46846362D01*
X174805577Y-46851340D01*
X174805575Y-46851343D01*
X174728101Y-47017486D01*
X174715425Y-47044670D01*
X174714003Y-47049978D01*
X174714002Y-47049980D01*
X174705469Y-47081827D01*
X174668518Y-47142449D01*
X174604657Y-47173471D01*
X174534163Y-47165043D01*
X174494667Y-47138311D01*
X174102700Y-46746344D01*
X174099048Y-46742536D01*
X174062846Y-46703168D01*
X174057031Y-46696844D01*
X174020028Y-46673901D01*
X174010278Y-46667200D01*
X173975613Y-46640888D01*
X173961634Y-46635354D01*
X173941631Y-46625293D01*
X173928844Y-46617365D01*
X173920593Y-46614968D01*
X173920591Y-46614967D01*
X173887058Y-46605225D01*
X173875825Y-46601379D01*
X173835377Y-46585364D01*
X173826836Y-46584466D01*
X173826835Y-46584466D01*
X173820422Y-46583792D01*
X173798447Y-46579480D01*
X173784005Y-46575285D01*
X173776522Y-46574735D01*
X173775622Y-46574669D01*
X173775611Y-46574669D01*
X173773315Y-46574500D01*
X173738613Y-46574500D01*
X173725443Y-46573810D01*
X173715214Y-46572735D01*
X173685376Y-46569599D01*
X173676911Y-46571031D01*
X173676902Y-46571031D01*
X173666830Y-46572735D01*
X173645817Y-46574500D01*
X171008988Y-46574500D01*
X170940867Y-46554498D01*
X170919586Y-46537287D01*
X170879770Y-46497193D01*
X170728136Y-46400963D01*
X170661374Y-46377190D01*
X170565586Y-46343081D01*
X170565581Y-46343080D01*
X170558951Y-46340719D01*
X170551965Y-46339886D01*
X170551961Y-46339885D01*
X170424177Y-46324648D01*
X170380624Y-46319455D01*
X170373621Y-46320191D01*
X170373620Y-46320191D01*
X170209025Y-46337490D01*
X170209021Y-46337491D01*
X170202017Y-46338227D01*
X170195346Y-46340498D01*
X170038677Y-46393832D01*
X170038674Y-46393833D01*
X170032007Y-46396103D01*
X170026009Y-46399793D01*
X170026007Y-46399794D01*
X169984665Y-46425228D01*
X169879045Y-46490206D01*
X169874014Y-46495132D01*
X169874011Y-46495135D01*
X169813392Y-46554498D01*
X169750732Y-46615859D01*
X169746913Y-46621784D01*
X169746912Y-46621786D01*
X169694465Y-46703168D01*
X169653446Y-46766817D01*
X169651035Y-46773440D01*
X169651034Y-46773443D01*
X169627582Y-46837877D01*
X169585488Y-46895049D01*
X169519167Y-46920387D01*
X169462791Y-46911932D01*
X169458801Y-46910352D01*
X169438801Y-46900293D01*
X169426014Y-46892365D01*
X169417763Y-46889968D01*
X169417761Y-46889967D01*
X169384228Y-46880225D01*
X169372995Y-46876379D01*
X169370096Y-46875231D01*
X169332547Y-46860364D01*
X169324006Y-46859466D01*
X169324005Y-46859466D01*
X169317592Y-46858792D01*
X169295617Y-46854480D01*
X169281175Y-46850285D01*
X169273692Y-46849735D01*
X169272792Y-46849669D01*
X169272781Y-46849669D01*
X169270485Y-46849500D01*
X169235783Y-46849500D01*
X169222613Y-46848810D01*
X169212384Y-46847735D01*
X169182546Y-46844599D01*
X169174081Y-46846031D01*
X169174072Y-46846031D01*
X169164000Y-46847735D01*
X169142987Y-46849500D01*
X166083810Y-46849500D01*
X166015689Y-46829498D01*
X165969196Y-46775842D01*
X165959092Y-46705568D01*
X165988586Y-46640988D01*
X165996918Y-46632254D01*
X166007799Y-46621892D01*
X166117099Y-46517807D01*
X166125273Y-46505505D01*
X166194730Y-46400963D01*
X166216483Y-46368222D01*
X166250642Y-46278299D01*
X166277757Y-46206919D01*
X166277758Y-46206914D01*
X166280257Y-46200336D01*
X166283935Y-46174169D01*
X166304700Y-46026416D01*
X166304700Y-46026411D01*
X166305251Y-46022493D01*
X166305565Y-46000000D01*
X166285546Y-45821528D01*
X166226485Y-45651927D01*
X166131316Y-45499625D01*
X166067771Y-45435635D01*
X166009733Y-45377190D01*
X166009729Y-45377187D01*
X166004770Y-45372193D01*
X165990805Y-45363330D01*
X165920411Y-45318657D01*
X165853136Y-45275963D01*
X165823352Y-45265357D01*
X165690586Y-45218081D01*
X165690581Y-45218080D01*
X165683951Y-45215719D01*
X165676963Y-45214886D01*
X165676960Y-45214885D01*
X165599148Y-45205607D01*
X165511884Y-45195201D01*
X165446611Y-45167275D01*
X165437708Y-45159183D01*
X164599859Y-44321334D01*
X164596206Y-44317525D01*
X164574801Y-44294247D01*
X164554190Y-44271833D01*
X164517187Y-44248890D01*
X164507437Y-44242189D01*
X164472772Y-44215877D01*
X164458793Y-44210343D01*
X164438790Y-44200282D01*
X164426003Y-44192354D01*
X164417752Y-44189957D01*
X164417750Y-44189956D01*
X164384217Y-44180214D01*
X164372984Y-44176368D01*
X164370085Y-44175220D01*
X164332536Y-44160353D01*
X164323995Y-44159455D01*
X164323994Y-44159455D01*
X164317581Y-44158781D01*
X164295606Y-44154469D01*
X164281164Y-44150274D01*
X164273681Y-44149725D01*
X164272781Y-44149658D01*
X164272770Y-44149658D01*
X164270474Y-44149489D01*
X164235772Y-44149489D01*
X164222602Y-44148799D01*
X164212373Y-44147724D01*
X164182535Y-44144588D01*
X164174070Y-44146020D01*
X164174061Y-44146020D01*
X164163989Y-44147724D01*
X164142976Y-44149489D01*
X159037174Y-44149489D01*
X159031898Y-44149378D01*
X159027491Y-44149193D01*
X158969887Y-44146779D01*
X158961522Y-44148741D01*
X158927519Y-44156716D01*
X158915848Y-44158879D01*
X158905088Y-44160353D01*
X158872749Y-44164783D01*
X158864865Y-44168195D01*
X158864864Y-44168195D01*
X158858951Y-44170754D01*
X158837682Y-44177788D01*
X158823045Y-44181221D01*
X158815520Y-44185358D01*
X158815517Y-44185359D01*
X158784913Y-44202184D01*
X158774268Y-44207400D01*
X158734326Y-44224684D01*
X158722640Y-44234147D01*
X158704056Y-44246634D01*
X158690873Y-44253882D01*
X158682759Y-44260886D01*
X158658223Y-44285422D01*
X158648422Y-44294247D01*
X158639025Y-44301857D01*
X158617111Y-44319603D01*
X158612138Y-44326601D01*
X158612133Y-44326606D01*
X158606213Y-44334937D01*
X158592602Y-44351043D01*
X157915579Y-45028066D01*
X157853267Y-45062092D01*
X157782452Y-45057027D01*
X157725616Y-45014480D01*
X157700805Y-44947960D01*
X157700484Y-44938971D01*
X157700484Y-44178087D01*
X157714107Y-44121774D01*
X157716467Y-44118222D01*
X157718969Y-44111636D01*
X157777741Y-43956919D01*
X157777742Y-43956914D01*
X157780241Y-43950336D01*
X157805235Y-43772493D01*
X157805387Y-43761576D01*
X157805494Y-43753963D01*
X157805494Y-43753958D01*
X157805549Y-43750000D01*
X157785530Y-43571528D01*
X157779411Y-43553955D01*
X157746620Y-43459793D01*
X157726469Y-43401927D01*
X157711607Y-43378142D01*
X157635033Y-43255599D01*
X157631300Y-43249625D01*
X157607466Y-43225624D01*
X157573659Y-43163193D01*
X157578971Y-43092396D01*
X157607603Y-43049179D01*
X157607470Y-43049068D01*
X157608452Y-43047897D01*
X157609975Y-43045599D01*
X157617099Y-43038815D01*
X157716483Y-42889230D01*
X157738169Y-42832141D01*
X157777757Y-42727927D01*
X157777758Y-42727922D01*
X157780257Y-42721344D01*
X157792535Y-42633982D01*
X157804700Y-42547424D01*
X157804700Y-42547419D01*
X157805251Y-42543501D01*
X157805565Y-42521008D01*
X157785546Y-42342536D01*
X157779427Y-42324963D01*
X157728803Y-42179592D01*
X157726485Y-42172935D01*
X157631316Y-42020633D01*
X157567771Y-41956643D01*
X157509733Y-41898198D01*
X157509729Y-41898195D01*
X157504770Y-41893201D01*
X157493761Y-41886214D01*
X157446860Y-41856450D01*
X157353136Y-41796971D01*
X157323352Y-41786365D01*
X157190586Y-41739089D01*
X157190581Y-41739088D01*
X157183951Y-41736727D01*
X157176965Y-41735894D01*
X157176961Y-41735893D01*
X157049177Y-41720656D01*
X157005624Y-41715463D01*
X156998621Y-41716199D01*
X156998620Y-41716199D01*
X156834025Y-41733498D01*
X156834021Y-41733499D01*
X156827017Y-41734235D01*
X156820346Y-41736506D01*
X156663677Y-41789840D01*
X156663674Y-41789841D01*
X156657007Y-41792111D01*
X156651009Y-41795801D01*
X156651007Y-41795802D01*
X156580526Y-41839162D01*
X156504045Y-41886214D01*
X156499014Y-41891140D01*
X156499011Y-41891143D01*
X156491807Y-41898198D01*
X156375732Y-42011867D01*
X156371913Y-42017792D01*
X156371912Y-42017794D01*
X156318934Y-42100000D01*
X156278446Y-42162825D01*
X156217022Y-42331586D01*
X156194514Y-42509761D01*
X156195201Y-42516768D01*
X156195201Y-42516771D01*
X156197434Y-42539540D01*
X156212039Y-42688494D01*
X156214262Y-42695176D01*
X156214262Y-42695177D01*
X156222967Y-42721344D01*
X156268726Y-42858904D01*
X156272373Y-42864926D01*
X156293615Y-42900000D01*
X156361759Y-43012520D01*
X156385900Y-43037518D01*
X156394955Y-43046895D01*
X156427888Y-43109792D01*
X156421589Y-43180508D01*
X156392476Y-43224446D01*
X156375716Y-43240859D01*
X156371897Y-43246784D01*
X156371896Y-43246786D01*
X156292939Y-43369304D01*
X156278430Y-43391817D01*
X156276021Y-43398437D01*
X156276019Y-43398440D01*
X156258609Y-43446275D01*
X156217006Y-43560578D01*
X156194498Y-43738753D01*
X156195185Y-43745760D01*
X156195185Y-43745763D01*
X156197418Y-43768532D01*
X156212023Y-43917486D01*
X156214246Y-43924168D01*
X156214246Y-43924169D01*
X156231587Y-43976297D01*
X156268710Y-44087896D01*
X156272356Y-44093916D01*
X156281261Y-44108620D01*
X156299484Y-44173890D01*
X156299484Y-45112654D01*
X156279482Y-45180775D01*
X156251057Y-45211944D01*
X156248062Y-45214284D01*
X156242059Y-45217977D01*
X156113746Y-45343630D01*
X156109927Y-45349555D01*
X156109926Y-45349557D01*
X156097771Y-45368418D01*
X156016460Y-45494588D01*
X155955036Y-45663349D01*
X155932528Y-45841524D01*
X155950053Y-46020257D01*
X155952276Y-46026939D01*
X155952276Y-46026940D01*
X155993896Y-46152055D01*
X156006740Y-46190667D01*
X156010387Y-46196689D01*
X156085242Y-46320289D01*
X156099773Y-46344283D01*
X156104662Y-46349346D01*
X156104663Y-46349347D01*
X156154508Y-46400963D01*
X156224528Y-46473470D01*
X156230424Y-46477328D01*
X156243277Y-46485739D01*
X156289326Y-46539776D01*
X156298849Y-46610131D01*
X156268824Y-46674466D01*
X156263379Y-46680266D01*
X153331061Y-49612585D01*
X153268749Y-49646611D01*
X153241966Y-49649490D01*
X150615009Y-49649490D01*
X150609733Y-49649379D01*
X150605326Y-49649194D01*
X150547722Y-49646780D01*
X150539357Y-49648742D01*
X150505354Y-49656717D01*
X150493683Y-49658880D01*
X150478787Y-49660921D01*
X150450584Y-49664784D01*
X150442700Y-49668196D01*
X150442699Y-49668196D01*
X150436786Y-49670755D01*
X150415517Y-49677789D01*
X150400880Y-49681222D01*
X150393355Y-49685359D01*
X150393352Y-49685360D01*
X150362748Y-49702185D01*
X150352103Y-49707401D01*
X150312161Y-49724685D01*
X150300475Y-49734148D01*
X150281891Y-49746635D01*
X150268708Y-49753883D01*
X150260594Y-49760887D01*
X150236058Y-49785423D01*
X150226257Y-49794248D01*
X150203731Y-49812490D01*
X150194946Y-49819604D01*
X150189972Y-49826603D01*
X150189971Y-49826604D01*
X150184050Y-49834936D01*
X150170440Y-49851041D01*
X150127193Y-49894289D01*
X150099782Y-49921700D01*
X150037470Y-49955725D01*
X150023857Y-49957915D01*
X150000223Y-49960399D01*
X149872722Y-49973799D01*
X149872718Y-49973800D01*
X149865714Y-49974536D01*
X149859043Y-49976807D01*
X149702374Y-50030141D01*
X149702371Y-50030142D01*
X149695704Y-50032412D01*
X149689706Y-50036102D01*
X149689704Y-50036103D01*
X149659318Y-50054797D01*
X149542742Y-50126515D01*
X149537711Y-50131441D01*
X149537708Y-50131444D01*
X149508101Y-50160438D01*
X149468946Y-50198781D01*
X149406283Y-50232151D01*
X149335524Y-50226345D01*
X149291384Y-50197541D01*
X149221094Y-50126758D01*
X149221090Y-50126755D01*
X149216131Y-50121761D01*
X149206611Y-50115719D01*
X149149872Y-50079712D01*
X149064497Y-50025531D01*
X149016739Y-50008525D01*
X148901947Y-49967649D01*
X148901942Y-49967648D01*
X148895312Y-49965287D01*
X148888326Y-49964454D01*
X148888322Y-49964453D01*
X148760538Y-49949216D01*
X148716985Y-49944023D01*
X148709982Y-49944759D01*
X148709981Y-49944759D01*
X148545386Y-49962058D01*
X148545382Y-49962059D01*
X148538378Y-49962795D01*
X148531707Y-49965066D01*
X148375038Y-50018400D01*
X148375035Y-50018401D01*
X148368368Y-50020671D01*
X148362370Y-50024361D01*
X148362368Y-50024362D01*
X148323758Y-50048115D01*
X148215406Y-50114774D01*
X148210375Y-50119700D01*
X148210372Y-50119703D01*
X148156864Y-50172102D01*
X148087093Y-50240427D01*
X148083274Y-50246352D01*
X148083273Y-50246354D01*
X147995274Y-50382902D01*
X147989807Y-50391385D01*
X147987398Y-50398005D01*
X147987396Y-50398008D01*
X147963488Y-50463697D01*
X147928383Y-50560146D01*
X147905875Y-50738321D01*
X147906562Y-50745328D01*
X147906562Y-50745331D01*
X147910334Y-50783802D01*
X147923400Y-50917054D01*
X147925623Y-50923736D01*
X147925623Y-50923737D01*
X147975604Y-51073986D01*
X147980087Y-51087464D01*
X147983734Y-51093486D01*
X148067147Y-51231217D01*
X148073120Y-51241080D01*
X148078009Y-51246143D01*
X148078010Y-51246144D01*
X148149818Y-51320503D01*
X148197875Y-51370267D01*
X148348150Y-51468604D01*
X148516477Y-51531204D01*
X148523458Y-51532135D01*
X148523460Y-51532136D01*
X148687511Y-51554025D01*
X148687514Y-51554025D01*
X148694491Y-51554956D01*
X148694335Y-51556123D01*
X148755406Y-51575454D01*
X148774174Y-51590906D01*
X149411913Y-52228645D01*
X149415564Y-52232452D01*
X149457592Y-52278156D01*
X149494595Y-52301099D01*
X149504350Y-52307804D01*
X149524554Y-52323139D01*
X149566719Y-52380258D01*
X149571311Y-52451106D01*
X149536870Y-52513189D01*
X149474331Y-52546797D01*
X149448372Y-52549500D01*
X149114993Y-52549500D01*
X149109717Y-52549389D01*
X149105310Y-52549204D01*
X149047706Y-52546790D01*
X149039341Y-52548752D01*
X149005338Y-52556727D01*
X148993667Y-52558890D01*
X148978771Y-52560931D01*
X148950568Y-52564794D01*
X148942684Y-52568206D01*
X148942683Y-52568206D01*
X148936770Y-52570765D01*
X148915501Y-52577799D01*
X148900864Y-52581232D01*
X148893339Y-52585369D01*
X148893336Y-52585370D01*
X148862732Y-52602195D01*
X148852087Y-52607411D01*
X148812145Y-52624695D01*
X148800459Y-52634158D01*
X148781875Y-52646645D01*
X148768692Y-52653893D01*
X148760578Y-52660897D01*
X148736042Y-52685433D01*
X148726241Y-52694258D01*
X148701608Y-52714206D01*
X148694930Y-52719614D01*
X148689956Y-52726613D01*
X148689955Y-52726614D01*
X148684034Y-52734946D01*
X148670424Y-52751051D01*
X148346697Y-53074779D01*
X148284384Y-53108804D01*
X148242682Y-53110798D01*
X148105624Y-53094455D01*
X148098621Y-53095191D01*
X148098620Y-53095191D01*
X147934025Y-53112490D01*
X147934021Y-53112491D01*
X147927017Y-53113227D01*
X147920346Y-53115498D01*
X147763677Y-53168832D01*
X147763674Y-53168833D01*
X147757007Y-53171103D01*
X147742665Y-53179926D01*
X147674165Y-53198586D01*
X147606451Y-53177249D01*
X147561021Y-53122690D01*
X147551331Y-53059441D01*
X147554503Y-53029256D01*
X147555401Y-53020712D01*
X147553969Y-53012247D01*
X147553969Y-53012238D01*
X147552265Y-53002166D01*
X147550500Y-52981153D01*
X147550500Y-52551797D01*
X147558712Y-52507054D01*
X147564995Y-52490513D01*
X147580257Y-52450336D01*
X147600759Y-52304457D01*
X147604700Y-52276416D01*
X147604700Y-52276411D01*
X147605251Y-52272493D01*
X147605565Y-52250000D01*
X147585546Y-52071528D01*
X147579427Y-52053955D01*
X147528803Y-51908584D01*
X147526485Y-51901927D01*
X147509093Y-51874093D01*
X147435049Y-51755599D01*
X147431316Y-51749625D01*
X147344891Y-51662595D01*
X147309733Y-51627190D01*
X147309729Y-51627187D01*
X147304770Y-51622193D01*
X147293761Y-51615206D01*
X147225983Y-51572193D01*
X147153136Y-51525963D01*
X147091353Y-51503963D01*
X146990586Y-51468081D01*
X146990581Y-51468080D01*
X146983951Y-51465719D01*
X146976965Y-51464886D01*
X146976961Y-51464885D01*
X146831873Y-51447585D01*
X146805624Y-51444455D01*
X146798621Y-51445191D01*
X146798620Y-51445191D01*
X146634025Y-51462490D01*
X146634021Y-51462491D01*
X146627017Y-51463227D01*
X146620346Y-51465498D01*
X146463677Y-51518832D01*
X146463674Y-51518833D01*
X146457007Y-51521103D01*
X146451009Y-51524793D01*
X146451007Y-51524794D01*
X146401980Y-51554956D01*
X146304045Y-51615206D01*
X146299014Y-51620132D01*
X146299011Y-51620135D01*
X146244633Y-51673386D01*
X146175732Y-51740859D01*
X146171913Y-51746784D01*
X146171912Y-51746786D01*
X146099863Y-51858584D01*
X146078446Y-51891817D01*
X146076037Y-51898437D01*
X146076035Y-51898440D01*
X146049271Y-51971975D01*
X146017022Y-52060578D01*
X145994514Y-52238753D01*
X145997650Y-52270733D01*
X145984391Y-52340479D01*
X145935529Y-52391986D01*
X145866577Y-52408900D01*
X145857332Y-52408142D01*
X145700625Y-52389456D01*
X145693622Y-52390192D01*
X145693621Y-52390192D01*
X145529026Y-52407491D01*
X145529022Y-52407492D01*
X145522018Y-52408228D01*
X145515347Y-52410499D01*
X145358678Y-52463833D01*
X145358675Y-52463834D01*
X145352008Y-52466104D01*
X145346010Y-52469794D01*
X145346008Y-52469795D01*
X145285445Y-52507054D01*
X145199046Y-52560207D01*
X145194015Y-52565133D01*
X145194012Y-52565136D01*
X145149645Y-52608584D01*
X145070733Y-52685860D01*
X145066914Y-52691785D01*
X145066913Y-52691787D01*
X145011013Y-52778527D01*
X144973447Y-52836818D01*
X144971038Y-52843438D01*
X144971036Y-52843441D01*
X144956052Y-52884609D01*
X144912023Y-53005579D01*
X144889515Y-53183754D01*
X144890202Y-53190761D01*
X144890202Y-53190764D01*
X144893889Y-53228364D01*
X144907040Y-53362487D01*
X144909263Y-53369169D01*
X144909263Y-53369170D01*
X144960657Y-53523667D01*
X144963727Y-53532897D01*
X144967374Y-53538919D01*
X145051742Y-53678227D01*
X145056760Y-53686513D01*
X145087686Y-53718538D01*
X145114137Y-53745929D01*
X145147069Y-53808826D01*
X145149500Y-53833456D01*
X145149500Y-55185007D01*
X145149389Y-55190283D01*
X145146790Y-55252294D01*
X145148752Y-55260659D01*
X145156727Y-55294662D01*
X145158890Y-55306333D01*
X145164794Y-55349432D01*
X145168206Y-55357316D01*
X145168206Y-55357317D01*
X145170765Y-55363230D01*
X145177799Y-55384499D01*
X145181232Y-55399136D01*
X145185369Y-55406661D01*
X145185370Y-55406664D01*
X145202195Y-55437268D01*
X145207411Y-55447913D01*
X145224695Y-55487855D01*
X145234158Y-55499541D01*
X145246645Y-55518125D01*
X145253893Y-55531308D01*
X145260897Y-55539422D01*
X145285433Y-55563958D01*
X145294258Y-55573759D01*
X145314206Y-55598392D01*
X145319614Y-55605070D01*
X145326612Y-55610043D01*
X145326617Y-55610048D01*
X145334948Y-55615968D01*
X145351054Y-55629579D01*
X145680880Y-55959405D01*
X145714906Y-56021717D01*
X145709841Y-56092532D01*
X145667294Y-56149368D01*
X145600774Y-56174179D01*
X145591785Y-56174500D01*
X143766696Y-56174500D01*
X143698575Y-56154498D01*
X143677601Y-56137595D01*
X143234939Y-55694933D01*
X143224072Y-55682542D01*
X143210966Y-55665462D01*
X143205940Y-55658912D01*
X143175760Y-55635754D01*
X143175757Y-55635751D01*
X143085722Y-55566665D01*
X143084636Y-55566215D01*
X142985862Y-55525301D01*
X142930582Y-55480754D01*
X142908161Y-55413390D01*
X142925719Y-55344599D01*
X142947188Y-55317648D01*
X142994412Y-55272677D01*
X142994414Y-55272675D01*
X142999515Y-55267817D01*
X143009829Y-55252294D01*
X143094998Y-55124103D01*
X143098899Y-55118232D01*
X143128819Y-55039468D01*
X143160173Y-54956929D01*
X143160174Y-54956924D01*
X143162673Y-54950346D01*
X143165974Y-54926858D01*
X143187116Y-54776426D01*
X143187116Y-54776421D01*
X143187667Y-54772503D01*
X143187981Y-54750010D01*
X143167962Y-54571538D01*
X143159888Y-54548351D01*
X143141852Y-54496559D01*
X143108901Y-54401937D01*
X143095928Y-54381175D01*
X143017465Y-54255609D01*
X143013732Y-54249635D01*
X142918310Y-54153545D01*
X142892149Y-54127200D01*
X142892145Y-54127197D01*
X142887186Y-54122203D01*
X142878873Y-54116927D01*
X142817377Y-54077901D01*
X142735552Y-54025973D01*
X142723572Y-54021707D01*
X142666109Y-53980015D01*
X142640307Y-53913872D01*
X142654361Y-53844281D01*
X142676743Y-53813913D01*
X144412130Y-52078527D01*
X146291802Y-50198855D01*
X146298068Y-50193001D01*
X146335396Y-50160438D01*
X146341123Y-50155442D01*
X146377417Y-50103800D01*
X146381343Y-50098515D01*
X146415622Y-50054797D01*
X146415624Y-50054793D01*
X146420311Y-50048816D01*
X146423437Y-50041893D01*
X146425222Y-50038945D01*
X146432614Y-50025985D01*
X146434247Y-50022939D01*
X146438614Y-50016726D01*
X146461547Y-49957906D01*
X146464103Y-49951827D01*
X146467627Y-49944023D01*
X146490082Y-49894289D01*
X146491467Y-49886818D01*
X146492491Y-49883550D01*
X146496604Y-49869109D01*
X146497444Y-49865836D01*
X146500203Y-49858760D01*
X146508443Y-49796167D01*
X146509475Y-49789650D01*
X146519595Y-49735048D01*
X146520979Y-49727581D01*
X146517436Y-49666129D01*
X146517227Y-49658877D01*
X146517227Y-47278087D01*
X146530850Y-47221774D01*
X146533210Y-47218222D01*
X146536110Y-47210588D01*
X146594484Y-47056919D01*
X146594485Y-47056914D01*
X146596984Y-47050336D01*
X146598180Y-47041827D01*
X146621427Y-46876416D01*
X146621427Y-46876411D01*
X146621978Y-46872493D01*
X146622186Y-46857617D01*
X146622237Y-46853963D01*
X146622237Y-46853958D01*
X146622292Y-46850000D01*
X146602273Y-46671528D01*
X146597766Y-46658584D01*
X146546697Y-46511936D01*
X146543212Y-46501927D01*
X146538651Y-46494627D01*
X146451776Y-46355599D01*
X146448043Y-46349625D01*
X146370206Y-46271243D01*
X146326460Y-46227190D01*
X146326456Y-46227187D01*
X146321497Y-46222193D01*
X146310488Y-46215206D01*
X146239580Y-46170207D01*
X146169863Y-46125963D01*
X146135073Y-46113575D01*
X146007313Y-46068081D01*
X146007308Y-46068080D01*
X146000678Y-46065719D01*
X145993692Y-46064886D01*
X145993688Y-46064885D01*
X145865904Y-46049648D01*
X145822351Y-46044455D01*
X145815348Y-46045191D01*
X145815347Y-46045191D01*
X145650752Y-46062490D01*
X145650748Y-46062491D01*
X145643744Y-46063227D01*
X145637073Y-46065498D01*
X145480404Y-46118832D01*
X145480401Y-46118833D01*
X145473734Y-46121103D01*
X145467736Y-46124793D01*
X145467734Y-46124794D01*
X145423422Y-46152055D01*
X145320772Y-46215206D01*
X145315741Y-46220132D01*
X145315738Y-46220135D01*
X145285214Y-46250027D01*
X145192459Y-46340859D01*
X145188640Y-46346784D01*
X145188639Y-46346786D01*
X145099090Y-46485739D01*
X145095173Y-46491817D01*
X145092764Y-46498437D01*
X145092762Y-46498440D01*
X145083945Y-46522666D01*
X145033749Y-46660578D01*
X145011241Y-46838753D01*
X145011928Y-46845760D01*
X145011928Y-46845763D01*
X145017275Y-46900291D01*
X145028766Y-47017486D01*
X145030989Y-47024168D01*
X145030989Y-47024169D01*
X145080655Y-47173471D01*
X145085453Y-47187896D01*
X145089099Y-47193916D01*
X145098004Y-47208620D01*
X145116227Y-47273890D01*
X145116227Y-49340927D01*
X145096225Y-49409048D01*
X145079322Y-49430022D01*
X144495594Y-50013750D01*
X144433282Y-50047776D01*
X144370716Y-50043301D01*
X144370428Y-50044304D01*
X144365681Y-50042941D01*
X144362467Y-50042711D01*
X144360726Y-50041518D01*
X144320617Y-50030000D01*
X143274115Y-50030000D01*
X143258876Y-50034475D01*
X143257671Y-50035865D01*
X143256000Y-50043548D01*
X143256000Y-51094517D01*
X143270859Y-51145124D01*
X143271152Y-51145580D01*
X143271070Y-51216577D01*
X143239310Y-51270033D01*
X141000901Y-53508442D01*
X140952411Y-53538625D01*
X140943034Y-53541817D01*
X140863677Y-53568832D01*
X140863674Y-53568833D01*
X140857007Y-53571103D01*
X140851009Y-53574793D01*
X140851007Y-53574794D01*
X140786255Y-53614630D01*
X140704045Y-53665206D01*
X140699014Y-53670132D01*
X140699011Y-53670135D01*
X140643192Y-53724797D01*
X140575732Y-53790859D01*
X140571913Y-53796784D01*
X140571912Y-53796786D01*
X140514186Y-53886359D01*
X140478446Y-53941817D01*
X140476037Y-53948437D01*
X140476035Y-53948440D01*
X140467970Y-53970599D01*
X140417022Y-54110578D01*
X140394514Y-54288753D01*
X140412039Y-54467486D01*
X140414262Y-54474168D01*
X140414262Y-54474169D01*
X140444439Y-54564884D01*
X140468726Y-54637896D01*
X140472373Y-54643918D01*
X140552623Y-54776426D01*
X140561759Y-54791512D01*
X140566648Y-54796575D01*
X140566649Y-54796576D01*
X140589993Y-54820749D01*
X140686514Y-54920699D01*
X140836789Y-55019036D01*
X140843393Y-55021492D01*
X140990119Y-55076059D01*
X141046995Y-55118552D01*
X141071869Y-55185049D01*
X141056844Y-55254437D01*
X141035294Y-55283252D01*
X140725571Y-55592975D01*
X140713180Y-55603842D01*
X140689550Y-55621974D01*
X140684524Y-55628524D01*
X140678979Y-55635751D01*
X140666392Y-55652154D01*
X140666389Y-55652157D01*
X140632076Y-55696875D01*
X140597303Y-55742192D01*
X140539314Y-55882189D01*
X140524501Y-55994705D01*
X140524501Y-55994711D01*
X140519536Y-56032425D01*
X140520614Y-56040613D01*
X140520614Y-56040614D01*
X140523423Y-56061951D01*
X140524501Y-56078397D01*
X140524501Y-57454029D01*
X140523423Y-57470475D01*
X140519536Y-57500001D01*
X140524501Y-57537715D01*
X140524501Y-57537721D01*
X140539314Y-57650237D01*
X140542474Y-57657866D01*
X140585499Y-57761737D01*
X140594142Y-57782604D01*
X140594144Y-57782607D01*
X140597303Y-57790234D01*
X140666389Y-57880269D01*
X140666392Y-57880272D01*
X140689550Y-57910452D01*
X140696100Y-57915478D01*
X140713180Y-57928584D01*
X140725571Y-57939451D01*
X141406238Y-58620118D01*
X141440264Y-58682430D01*
X141435199Y-58753245D01*
X141392652Y-58810081D01*
X141383165Y-58816531D01*
X141304045Y-58865206D01*
X141299014Y-58870132D01*
X141299011Y-58870135D01*
X141247130Y-58920941D01*
X141175732Y-58990859D01*
X141171913Y-58996784D01*
X141171912Y-58996786D01*
X141137543Y-59050116D01*
X141078446Y-59141817D01*
X141017022Y-59310578D01*
X140994514Y-59488753D01*
X140995201Y-59495760D01*
X140995201Y-59495763D01*
X141000218Y-59546928D01*
X141012039Y-59667486D01*
X141014262Y-59674168D01*
X141014262Y-59674169D01*
X141061640Y-59816593D01*
X141068726Y-59837896D01*
X141072373Y-59843918D01*
X141099541Y-59888777D01*
X141161759Y-59991512D01*
X141166648Y-59996575D01*
X141166649Y-59996576D01*
X141243713Y-60076378D01*
X141286514Y-60120699D01*
X141436789Y-60219036D01*
X141605116Y-60281636D01*
X141693014Y-60293364D01*
X141750526Y-60301038D01*
X141815402Y-60329874D01*
X141822956Y-60336836D01*
X143912595Y-62426475D01*
X143946621Y-62488787D01*
X143949500Y-62515570D01*
X143949500Y-63785007D01*
X143949389Y-63790283D01*
X143946790Y-63852294D01*
X143948752Y-63860659D01*
X143956727Y-63894662D01*
X143958890Y-63906333D01*
X143964794Y-63949432D01*
X143968206Y-63957316D01*
X143968206Y-63957317D01*
X143970765Y-63963230D01*
X143977799Y-63984499D01*
X143981232Y-63999136D01*
X143985370Y-64006663D01*
X143988449Y-64014684D01*
X143985104Y-64015968D01*
X143996809Y-64068922D01*
X143996109Y-64076130D01*
X143994514Y-64088753D01*
X144012039Y-64267486D01*
X144014262Y-64274168D01*
X144014262Y-64274169D01*
X144022967Y-64300336D01*
X144068726Y-64437896D01*
X144161759Y-64591512D01*
X144286514Y-64720699D01*
X144436789Y-64819036D01*
X144605116Y-64881636D01*
X144612097Y-64882567D01*
X144612099Y-64882568D01*
X144776149Y-64904457D01*
X144776153Y-64904457D01*
X144783130Y-64905388D01*
X144790142Y-64904750D01*
X144790146Y-64904750D01*
X144954960Y-64889751D01*
X144954961Y-64889751D01*
X144961981Y-64889112D01*
X145132782Y-64833615D01*
X145163714Y-64815176D01*
X145280992Y-64745265D01*
X145280994Y-64745264D01*
X145287044Y-64741657D01*
X145417099Y-64617807D01*
X145434570Y-64591512D01*
X145512582Y-64474093D01*
X145516483Y-64468222D01*
X145531168Y-64429564D01*
X145577757Y-64306919D01*
X145577758Y-64306914D01*
X145580257Y-64300336D01*
X145605251Y-64122493D01*
X145605565Y-64100000D01*
X145585546Y-63921528D01*
X145579427Y-63903955D01*
X145538920Y-63787635D01*
X145526485Y-63751927D01*
X145524055Y-63748038D01*
X145512817Y-63678923D01*
X145541117Y-63613810D01*
X145600128Y-63574335D01*
X145671112Y-63573030D01*
X145726938Y-63605463D01*
X148300130Y-66178655D01*
X148303783Y-66182464D01*
X148345799Y-66228156D01*
X148361749Y-66238045D01*
X148382783Y-66251087D01*
X148392565Y-66257810D01*
X148427217Y-66284112D01*
X148441195Y-66289646D01*
X148461199Y-66299707D01*
X148473986Y-66307635D01*
X148482237Y-66310032D01*
X148482239Y-66310033D01*
X148515772Y-66319775D01*
X148527002Y-66323620D01*
X148567453Y-66339636D01*
X148575995Y-66340534D01*
X148576000Y-66340535D01*
X148582409Y-66341209D01*
X148604385Y-66345520D01*
X148612488Y-66347874D01*
X148618825Y-66349715D01*
X148624545Y-66350135D01*
X148687761Y-66381741D01*
X148724017Y-66442782D01*
X148721516Y-66513735D01*
X148681052Y-66572072D01*
X148615472Y-66599272D01*
X148601945Y-66600000D01*
X147526000Y-66600000D01*
X147457879Y-66579998D01*
X147411386Y-66526342D01*
X147400000Y-66474000D01*
X147400000Y-66041398D01*
X147401551Y-66021687D01*
X147401708Y-66020699D01*
X147404986Y-66000000D01*
X147385165Y-65874852D01*
X147327641Y-65761955D01*
X147238045Y-65672359D01*
X147125148Y-65614835D01*
X147036936Y-65600864D01*
X147000000Y-65595014D01*
X146978311Y-65598449D01*
X146958602Y-65600000D01*
X144217875Y-65600000D01*
X144149754Y-65579998D01*
X144128780Y-65563095D01*
X131936905Y-53371220D01*
X131902879Y-53308908D01*
X131900000Y-53282125D01*
X131900000Y-53000000D01*
X133095014Y-53000000D01*
X133104560Y-53060267D01*
X133109696Y-53092696D01*
X133109696Y-53092698D01*
X133112247Y-53108804D01*
X133114835Y-53125148D01*
X133119338Y-53133985D01*
X133119338Y-53133986D01*
X133126679Y-53148393D01*
X133172359Y-53238045D01*
X133261955Y-53327641D01*
X133374852Y-53385165D01*
X133384645Y-53386716D01*
X133489412Y-53403309D01*
X133500000Y-53404986D01*
X133521689Y-53401551D01*
X133541398Y-53400000D01*
X139458602Y-53400000D01*
X139478311Y-53401551D01*
X139500000Y-53404986D01*
X139510589Y-53403309D01*
X139531481Y-53400000D01*
X139579675Y-53392367D01*
X139625148Y-53385165D01*
X139738045Y-53327641D01*
X139827641Y-53238045D01*
X139875262Y-53144583D01*
X139880664Y-53133982D01*
X139880664Y-53133981D01*
X139885165Y-53125148D01*
X139904986Y-53000000D01*
X139901551Y-52978311D01*
X139900000Y-52958602D01*
X139900000Y-51041398D01*
X139901551Y-51021687D01*
X139903435Y-51009792D01*
X139904986Y-51000000D01*
X139885165Y-50874852D01*
X139827641Y-50761955D01*
X139738045Y-50672359D01*
X139677752Y-50641638D01*
X139633982Y-50619336D01*
X139633981Y-50619336D01*
X139625148Y-50614835D01*
X139531481Y-50600000D01*
X139500000Y-50595014D01*
X139478311Y-50598449D01*
X139458602Y-50600000D01*
X133541398Y-50600000D01*
X133521689Y-50598449D01*
X133500000Y-50595014D01*
X133468519Y-50600000D01*
X133374852Y-50614835D01*
X133366019Y-50619336D01*
X133366018Y-50619336D01*
X133322248Y-50641638D01*
X133261955Y-50672359D01*
X133172359Y-50761955D01*
X133114835Y-50874852D01*
X133095014Y-51000000D01*
X133096565Y-51009792D01*
X133098449Y-51021687D01*
X133100000Y-51041398D01*
X133100000Y-52958602D01*
X133098449Y-52978311D01*
X133095014Y-53000000D01*
X131900000Y-53000000D01*
X131900000Y-50043966D01*
X141670257Y-50043966D01*
X141700565Y-50178446D01*
X141703645Y-50188275D01*
X141783770Y-50385603D01*
X141788413Y-50394794D01*
X141899694Y-50576388D01*
X141905777Y-50584699D01*
X142045213Y-50745667D01*
X142052580Y-50752883D01*
X142216434Y-50888916D01*
X142224881Y-50894831D01*
X142408756Y-51002279D01*
X142418042Y-51006729D01*
X142617001Y-51082703D01*
X142626899Y-51085579D01*
X142730250Y-51106606D01*
X142744299Y-51105410D01*
X142748000Y-51095065D01*
X142748000Y-50048115D01*
X142743525Y-50032876D01*
X142742135Y-50031671D01*
X142734452Y-50030000D01*
X141685225Y-50030000D01*
X141671694Y-50033973D01*
X141670257Y-50043966D01*
X131900000Y-50043966D01*
X131900000Y-41026000D01*
X131920002Y-40957879D01*
X131973658Y-40911386D01*
X132026000Y-40900000D01*
X132974000Y-40900000D01*
X133042121Y-40920002D01*
G37*
%TD.AperFunction*%
%TA.AperFunction,Conductor*%
G36*
X161829553Y-54003137D02*
G01*
X161886389Y-54045684D01*
X161911200Y-54112204D01*
X161910528Y-54136982D01*
X161894514Y-54263751D01*
X161895201Y-54270758D01*
X161895201Y-54270761D01*
X161900929Y-54329175D01*
X161912039Y-54442484D01*
X161914262Y-54449166D01*
X161914262Y-54449167D01*
X161939341Y-54524557D01*
X161968726Y-54612894D01*
X161972373Y-54618916D01*
X162029490Y-54713227D01*
X162061759Y-54766510D01*
X162090447Y-54796217D01*
X162114137Y-54820749D01*
X162147069Y-54883646D01*
X162149500Y-54908276D01*
X162149500Y-58497615D01*
X162129498Y-58565736D01*
X162112595Y-58586710D01*
X158986711Y-61712595D01*
X158924399Y-61746621D01*
X158897616Y-61749500D01*
X155114993Y-61749500D01*
X155109717Y-61749389D01*
X155105310Y-61749204D01*
X155047706Y-61746790D01*
X155039341Y-61748752D01*
X155005338Y-61756727D01*
X154993667Y-61758890D01*
X154978771Y-61760931D01*
X154950568Y-61764794D01*
X154942684Y-61768206D01*
X154942683Y-61768206D01*
X154936770Y-61770765D01*
X154915501Y-61777799D01*
X154900864Y-61781232D01*
X154893339Y-61785369D01*
X154893336Y-61785370D01*
X154862732Y-61802195D01*
X154852087Y-61807411D01*
X154812145Y-61824695D01*
X154800459Y-61834158D01*
X154781875Y-61846645D01*
X154768692Y-61853893D01*
X154760578Y-61860897D01*
X154736042Y-61885433D01*
X154726241Y-61894258D01*
X154701608Y-61914206D01*
X154694930Y-61919614D01*
X154689957Y-61926612D01*
X154689952Y-61926617D01*
X154684032Y-61934948D01*
X154670421Y-61951054D01*
X152647926Y-63973550D01*
X150689096Y-65932380D01*
X150626784Y-65966406D01*
X150555969Y-65961341D01*
X150510906Y-65932380D01*
X149999870Y-65421344D01*
X149996218Y-65417536D01*
X149960016Y-65378168D01*
X149954201Y-65371844D01*
X149917198Y-65348901D01*
X149907448Y-65342200D01*
X149872783Y-65315888D01*
X149858804Y-65310354D01*
X149838801Y-65300293D01*
X149826014Y-65292365D01*
X149817763Y-65289968D01*
X149817761Y-65289967D01*
X149784228Y-65280225D01*
X149772995Y-65276379D01*
X149732547Y-65260364D01*
X149724006Y-65259466D01*
X149724005Y-65259466D01*
X149717592Y-65258792D01*
X149695617Y-65254480D01*
X149681175Y-65250285D01*
X149673692Y-65249736D01*
X149672792Y-65249669D01*
X149672781Y-65249669D01*
X149670485Y-65249500D01*
X149635783Y-65249500D01*
X149622613Y-65248810D01*
X149612384Y-65247735D01*
X149582546Y-65244599D01*
X149574081Y-65246031D01*
X149574072Y-65246031D01*
X149564000Y-65247735D01*
X149542987Y-65249500D01*
X148980215Y-65249500D01*
X148912094Y-65229498D01*
X148891120Y-65212595D01*
X146587405Y-62908881D01*
X146553380Y-62846569D01*
X146550500Y-62819786D01*
X146550500Y-62699892D01*
X146557177Y-62666321D01*
X146555389Y-62665842D01*
X146557525Y-62657870D01*
X146560687Y-62650236D01*
X146580466Y-62500000D01*
X146560687Y-62349765D01*
X146556370Y-62339341D01*
X146519599Y-62250568D01*
X146502699Y-62209768D01*
X146433612Y-62119732D01*
X146337405Y-62023525D01*
X146303379Y-61961213D01*
X146300500Y-61934430D01*
X146300500Y-60733939D01*
X146320502Y-60665818D01*
X146374158Y-60619325D01*
X146444432Y-60609221D01*
X146470420Y-60615841D01*
X146517521Y-60633357D01*
X146580116Y-60656636D01*
X146587097Y-60657567D01*
X146587099Y-60657568D01*
X146751150Y-60679457D01*
X146751153Y-60679457D01*
X146758130Y-60680388D01*
X146757974Y-60681555D01*
X146819045Y-60700886D01*
X146837813Y-60716338D01*
X148712595Y-62591119D01*
X148746620Y-62653431D01*
X148749500Y-62680214D01*
X148749500Y-63465654D01*
X148729498Y-63533775D01*
X148711657Y-63555678D01*
X148692347Y-63574588D01*
X148675732Y-63590859D01*
X148578446Y-63741817D01*
X148576037Y-63748437D01*
X148576035Y-63748440D01*
X148560806Y-63790283D01*
X148517022Y-63910578D01*
X148494514Y-64088753D01*
X148495201Y-64095760D01*
X148495201Y-64095763D01*
X148496005Y-64103963D01*
X148512039Y-64267486D01*
X148514262Y-64274168D01*
X148514262Y-64274169D01*
X148522967Y-64300336D01*
X148568726Y-64437896D01*
X148661759Y-64591512D01*
X148786514Y-64720699D01*
X148936789Y-64819036D01*
X149105116Y-64881636D01*
X149112097Y-64882567D01*
X149112099Y-64882568D01*
X149276149Y-64904457D01*
X149276153Y-64904457D01*
X149283130Y-64905388D01*
X149290142Y-64904750D01*
X149290146Y-64904750D01*
X149454960Y-64889751D01*
X149454961Y-64889751D01*
X149461981Y-64889112D01*
X149632782Y-64833615D01*
X149663714Y-64815176D01*
X149780992Y-64745265D01*
X149780994Y-64745264D01*
X149787044Y-64741657D01*
X149917099Y-64617807D01*
X149934570Y-64591512D01*
X150012582Y-64474093D01*
X150016483Y-64468222D01*
X150031168Y-64429564D01*
X150077757Y-64306919D01*
X150077758Y-64306914D01*
X150080257Y-64300336D01*
X150105251Y-64122493D01*
X150105565Y-64100000D01*
X150085546Y-63921528D01*
X150079427Y-63903955D01*
X150038920Y-63787635D01*
X150026485Y-63751927D01*
X149994038Y-63700000D01*
X149935049Y-63605599D01*
X149931316Y-63599625D01*
X149919945Y-63588174D01*
X149887094Y-63555093D01*
X149853287Y-63492662D01*
X149850500Y-63466309D01*
X149850500Y-62414993D01*
X149850611Y-62409717D01*
X149852850Y-62356291D01*
X149853210Y-62347706D01*
X149851248Y-62339341D01*
X149843273Y-62305338D01*
X149841110Y-62293667D01*
X149836372Y-62259081D01*
X149835206Y-62250568D01*
X149829235Y-62236770D01*
X149822201Y-62215501D01*
X149820730Y-62209228D01*
X149820729Y-62209226D01*
X149818768Y-62200864D01*
X149797805Y-62162734D01*
X149792583Y-62152073D01*
X149778716Y-62120027D01*
X149778715Y-62120026D01*
X149775305Y-62112145D01*
X149765842Y-62100459D01*
X149753351Y-62081871D01*
X149746106Y-62068692D01*
X149739103Y-62060578D01*
X149714567Y-62036042D01*
X149705742Y-62026241D01*
X149685794Y-62001608D01*
X149685793Y-62001607D01*
X149680386Y-61994930D01*
X149673388Y-61989957D01*
X149673383Y-61989952D01*
X149665052Y-61984032D01*
X149648946Y-61970421D01*
X148661271Y-60982746D01*
X147615183Y-59936659D01*
X147581158Y-59874347D01*
X147579063Y-59861609D01*
X147567507Y-59758584D01*
X147562679Y-59715545D01*
X147574963Y-59645619D01*
X147623102Y-59593435D01*
X147687894Y-59575500D01*
X149409430Y-59575500D01*
X149477551Y-59595502D01*
X149498525Y-59612405D01*
X151060549Y-61174429D01*
X151071416Y-61186820D01*
X151089548Y-61210450D01*
X151119728Y-61233608D01*
X151119731Y-61233611D01*
X151209766Y-61302697D01*
X151349763Y-61360686D01*
X151462279Y-61375499D01*
X151462280Y-61375499D01*
X151462290Y-61375500D01*
X151491809Y-61379386D01*
X151491811Y-61379386D01*
X151499999Y-61380464D01*
X151508187Y-61379386D01*
X151508188Y-61379386D01*
X151529525Y-61376577D01*
X151545971Y-61375499D01*
X156154029Y-61375499D01*
X156170475Y-61376577D01*
X156191812Y-61379386D01*
X156191813Y-61379386D01*
X156200001Y-61380464D01*
X156208189Y-61379386D01*
X156208191Y-61379386D01*
X156237710Y-61375500D01*
X156237720Y-61375499D01*
X156237721Y-61375499D01*
X156350237Y-61360686D01*
X156490234Y-61302697D01*
X156580269Y-61233611D01*
X156580272Y-61233608D01*
X156610452Y-61210450D01*
X156628584Y-61186820D01*
X156639451Y-61174429D01*
X156878779Y-60935101D01*
X156941091Y-60901075D01*
X156956435Y-60898717D01*
X157061981Y-60889112D01*
X157232782Y-60833615D01*
X157270431Y-60811172D01*
X157380992Y-60745265D01*
X157380994Y-60745264D01*
X157387044Y-60741657D01*
X157517099Y-60617807D01*
X157532893Y-60594036D01*
X157612582Y-60474093D01*
X157616483Y-60468222D01*
X157669037Y-60329874D01*
X157677757Y-60306919D01*
X157677758Y-60306914D01*
X157680257Y-60300336D01*
X157691683Y-60219036D01*
X157704700Y-60126416D01*
X157704700Y-60126411D01*
X157705251Y-60122493D01*
X157705565Y-60100000D01*
X157685546Y-59921528D01*
X157671247Y-59880465D01*
X157631691Y-59766876D01*
X157626485Y-59751927D01*
X157570151Y-59661773D01*
X157541109Y-59615297D01*
X157521973Y-59546928D01*
X157543015Y-59478800D01*
X157562114Y-59450054D01*
X157616483Y-59368222D01*
X157631168Y-59329564D01*
X157677757Y-59206919D01*
X157677758Y-59206914D01*
X157680257Y-59200336D01*
X157681237Y-59193364D01*
X157704700Y-59026416D01*
X157704700Y-59026411D01*
X157705251Y-59022493D01*
X157705565Y-59000000D01*
X157685546Y-58821528D01*
X157626485Y-58651927D01*
X157606609Y-58620118D01*
X157535049Y-58505599D01*
X157531316Y-58499625D01*
X157431937Y-58399550D01*
X157409733Y-58377190D01*
X157409729Y-58377187D01*
X157404770Y-58372193D01*
X157357993Y-58342507D01*
X157336364Y-58328781D01*
X157289565Y-58275392D01*
X157279060Y-58205177D01*
X157279736Y-58201743D01*
X157280257Y-58200370D01*
X157305251Y-58022527D01*
X157305565Y-58000034D01*
X157285546Y-57821562D01*
X157274637Y-57790234D01*
X157228803Y-57658618D01*
X157226485Y-57651961D01*
X157157206Y-57541091D01*
X157138070Y-57472721D01*
X157159112Y-57404594D01*
X157212582Y-57324114D01*
X157216483Y-57318243D01*
X157231168Y-57279585D01*
X157277757Y-57156940D01*
X157277758Y-57156935D01*
X157280257Y-57150357D01*
X157281237Y-57143385D01*
X157304700Y-56976437D01*
X157304700Y-56976432D01*
X157305251Y-56972514D01*
X157305565Y-56950021D01*
X157293286Y-56840555D01*
X157305570Y-56770631D01*
X157353709Y-56718447D01*
X157418501Y-56700511D01*
X158784996Y-56700511D01*
X158790273Y-56700622D01*
X158852283Y-56703221D01*
X158863837Y-56700511D01*
X158894651Y-56693284D01*
X158906322Y-56691121D01*
X158921218Y-56689080D01*
X158949421Y-56685217D01*
X158963219Y-56679246D01*
X158984488Y-56672212D01*
X158990764Y-56670740D01*
X158999125Y-56668779D01*
X159006650Y-56664642D01*
X159006653Y-56664641D01*
X159037257Y-56647816D01*
X159047902Y-56642600D01*
X159087844Y-56625316D01*
X159099530Y-56615853D01*
X159118115Y-56603365D01*
X159125507Y-56599301D01*
X159131297Y-56596118D01*
X159139411Y-56589114D01*
X159163947Y-56564578D01*
X159173748Y-56555753D01*
X159198381Y-56535805D01*
X159198382Y-56535804D01*
X159205059Y-56530397D01*
X159210032Y-56523399D01*
X159210037Y-56523394D01*
X159215957Y-56515063D01*
X159229568Y-56498957D01*
X160460708Y-55267817D01*
X161696426Y-54032098D01*
X161758738Y-53998073D01*
X161829553Y-54003137D01*
G37*
%TD.AperFunction*%
%TA.AperFunction,Conductor*%
G36*
X177518032Y-51464660D02*
G01*
X177574868Y-51507207D01*
X177599679Y-51573727D01*
X177600000Y-51582716D01*
X177600000Y-53782125D01*
X177579998Y-53850246D01*
X177563095Y-53871220D01*
X165871220Y-65563095D01*
X165808908Y-65597121D01*
X165782125Y-65600000D01*
X162418070Y-65600000D01*
X162349949Y-65579998D01*
X162303456Y-65526342D01*
X162293352Y-65456068D01*
X162322846Y-65391488D01*
X162328975Y-65384905D01*
X166433732Y-61280148D01*
X166446123Y-61269281D01*
X166463203Y-61256175D01*
X166469753Y-61251149D01*
X166492911Y-61220969D01*
X166492914Y-61220966D01*
X166562000Y-61130931D01*
X166619989Y-60990934D01*
X166625347Y-60950234D01*
X166634802Y-60878418D01*
X166634802Y-60878413D01*
X166639767Y-60840698D01*
X166635880Y-60811172D01*
X166634802Y-60794726D01*
X166634802Y-59945635D01*
X166654804Y-59877514D01*
X166708460Y-59831021D01*
X166743701Y-59820801D01*
X166751529Y-59819729D01*
X166774419Y-59816593D01*
X166782304Y-59813181D01*
X166904958Y-59760104D01*
X166904960Y-59760103D01*
X166912842Y-59756692D01*
X167030057Y-59661773D01*
X167099068Y-59564665D01*
X167112453Y-59545831D01*
X167117429Y-59538829D01*
X167151618Y-59443865D01*
X167181074Y-59397451D01*
X173263765Y-53314760D01*
X173326077Y-53280734D01*
X173396892Y-53285799D01*
X173429397Y-53304586D01*
X173429769Y-53304972D01*
X173435668Y-53308832D01*
X173435669Y-53308833D01*
X173446805Y-53316120D01*
X173580044Y-53403309D01*
X173748371Y-53465909D01*
X173755352Y-53466840D01*
X173755354Y-53466841D01*
X173919404Y-53488730D01*
X173919408Y-53488730D01*
X173926385Y-53489661D01*
X173933397Y-53489023D01*
X173933401Y-53489023D01*
X174098215Y-53474024D01*
X174098216Y-53474024D01*
X174105236Y-53473385D01*
X174276037Y-53417888D01*
X174296374Y-53405765D01*
X174424247Y-53329538D01*
X174424249Y-53329537D01*
X174430299Y-53325930D01*
X174486075Y-53272815D01*
X174535254Y-53225983D01*
X174598379Y-53193491D01*
X174669050Y-53200284D01*
X174724829Y-53244207D01*
X174729579Y-53251394D01*
X174792694Y-53354388D01*
X174798777Y-53362699D01*
X174938213Y-53523667D01*
X174945580Y-53530883D01*
X175109434Y-53666916D01*
X175117881Y-53672831D01*
X175301756Y-53780279D01*
X175311042Y-53784729D01*
X175510001Y-53860703D01*
X175519899Y-53863579D01*
X175623250Y-53884606D01*
X175637299Y-53883410D01*
X175641000Y-53873065D01*
X175641000Y-53872517D01*
X176149000Y-53872517D01*
X176153064Y-53886359D01*
X176166478Y-53888393D01*
X176173184Y-53887534D01*
X176183262Y-53885392D01*
X176387255Y-53824191D01*
X176396842Y-53820433D01*
X176588095Y-53726739D01*
X176596945Y-53721464D01*
X176770328Y-53597792D01*
X176778200Y-53591139D01*
X176929052Y-53440812D01*
X176935730Y-53432965D01*
X177060003Y-53260020D01*
X177065313Y-53251183D01*
X177159670Y-53060267D01*
X177163469Y-53050672D01*
X177225377Y-52846910D01*
X177227555Y-52836837D01*
X177228986Y-52825962D01*
X177226775Y-52811778D01*
X177213617Y-52808000D01*
X176167115Y-52808000D01*
X176151876Y-52812475D01*
X176150671Y-52813865D01*
X176149000Y-52821548D01*
X176149000Y-53872517D01*
X175641000Y-53872517D01*
X175641000Y-52426000D01*
X175661002Y-52357879D01*
X175714658Y-52311386D01*
X175767000Y-52300000D01*
X177213344Y-52300000D01*
X177226875Y-52296027D01*
X177228180Y-52286947D01*
X177186214Y-52119875D01*
X177182894Y-52110124D01*
X177097975Y-51914821D01*
X177093844Y-51907118D01*
X177079279Y-51837631D01*
X177104593Y-51771301D01*
X177130322Y-51746649D01*
X177131308Y-51746107D01*
X177136301Y-51741797D01*
X177136304Y-51741795D01*
X177137672Y-51740614D01*
X177137678Y-51740608D01*
X177139422Y-51739103D01*
X177163958Y-51714567D01*
X177173759Y-51705742D01*
X177198392Y-51685794D01*
X177198393Y-51685793D01*
X177205070Y-51680386D01*
X177215966Y-51665054D01*
X177229577Y-51648949D01*
X177384905Y-51493621D01*
X177447217Y-51459595D01*
X177518032Y-51464660D01*
G37*
%TD.AperFunction*%
%TA.AperFunction,Conductor*%
G36*
X168987906Y-47970502D02*
G01*
X169008880Y-47987405D01*
X169028127Y-48006652D01*
X169062153Y-48068964D01*
X169057088Y-48139779D01*
X169014541Y-48196615D01*
X169005058Y-48203062D01*
X168904045Y-48265206D01*
X168899014Y-48270132D01*
X168899011Y-48270135D01*
X168855106Y-48313130D01*
X168775732Y-48390859D01*
X168771913Y-48396784D01*
X168771912Y-48396786D01*
X168754137Y-48424368D01*
X168678446Y-48541817D01*
X168676037Y-48548437D01*
X168676035Y-48548440D01*
X168649792Y-48620542D01*
X168617022Y-48710578D01*
X168594514Y-48888753D01*
X168612039Y-49067486D01*
X168614262Y-49074168D01*
X168614262Y-49074169D01*
X168663434Y-49221986D01*
X168668726Y-49237896D01*
X168672373Y-49243918D01*
X168731124Y-49340927D01*
X168761759Y-49391512D01*
X168766648Y-49396575D01*
X168766649Y-49396576D01*
X168798948Y-49430022D01*
X168886514Y-49520699D01*
X169036789Y-49619036D01*
X169205116Y-49681636D01*
X169212097Y-49682567D01*
X169212099Y-49682568D01*
X169225692Y-49684381D01*
X169240164Y-49686312D01*
X169305040Y-49715147D01*
X169344029Y-49774480D01*
X169349500Y-49811205D01*
X169349500Y-54019784D01*
X169329498Y-54087905D01*
X169312596Y-54108879D01*
X168761085Y-54660391D01*
X168698772Y-54694416D01*
X168685160Y-54696606D01*
X168671781Y-54698012D01*
X168534025Y-54712490D01*
X168534021Y-54712491D01*
X168527017Y-54713227D01*
X168520346Y-54715498D01*
X168363677Y-54768832D01*
X168363674Y-54768833D01*
X168357007Y-54771103D01*
X168351009Y-54774793D01*
X168351007Y-54774794D01*
X168316185Y-54796217D01*
X168204045Y-54865206D01*
X168199014Y-54870132D01*
X168199011Y-54870135D01*
X168147377Y-54920699D01*
X168075732Y-54990859D01*
X168071913Y-54996784D01*
X168071912Y-54996786D01*
X167993439Y-55118552D01*
X167978446Y-55141817D01*
X167976037Y-55148437D01*
X167976035Y-55148440D01*
X167960806Y-55190283D01*
X167917022Y-55310578D01*
X167894514Y-55488753D01*
X167895201Y-55495760D01*
X167895201Y-55495763D01*
X167899482Y-55539422D01*
X167912039Y-55667486D01*
X167914262Y-55674168D01*
X167914262Y-55674169D01*
X167953359Y-55791699D01*
X167968726Y-55837896D01*
X167972373Y-55843918D01*
X168044914Y-55963697D01*
X168061759Y-55991512D01*
X168186514Y-56120699D01*
X168336789Y-56219036D01*
X168343393Y-56221492D01*
X168492254Y-56276853D01*
X168549130Y-56319346D01*
X168574004Y-56385843D01*
X168558979Y-56455231D01*
X168537429Y-56484046D01*
X166506877Y-58514598D01*
X166444565Y-58548624D01*
X166375515Y-58544202D01*
X166249888Y-58499468D01*
X166249883Y-58499467D01*
X166243253Y-58497106D01*
X166236267Y-58496273D01*
X166236263Y-58496272D01*
X166108479Y-58481035D01*
X166064926Y-58475842D01*
X166057923Y-58476578D01*
X166057922Y-58476578D01*
X165893327Y-58493877D01*
X165893323Y-58493878D01*
X165886319Y-58494614D01*
X165879648Y-58496885D01*
X165722979Y-58550219D01*
X165722976Y-58550220D01*
X165716309Y-58552490D01*
X165710311Y-58556180D01*
X165710309Y-58556181D01*
X165694778Y-58565736D01*
X165563347Y-58646593D01*
X165558316Y-58651519D01*
X165558313Y-58651522D01*
X165537202Y-58672196D01*
X165435034Y-58772246D01*
X165431215Y-58778171D01*
X165431214Y-58778173D01*
X165382411Y-58853901D01*
X165328697Y-58900326D01*
X165258410Y-58910341D01*
X165193867Y-58880766D01*
X165155559Y-58820991D01*
X165150500Y-58785646D01*
X165150500Y-57145906D01*
X165170502Y-57077785D01*
X165187405Y-57056811D01*
X166278648Y-55965567D01*
X166282457Y-55961914D01*
X166283184Y-55961246D01*
X166328162Y-55919886D01*
X166351105Y-55882883D01*
X166357806Y-55873133D01*
X166384118Y-55838468D01*
X166389652Y-55824489D01*
X166399713Y-55804486D01*
X166407641Y-55791699D01*
X166419781Y-55749913D01*
X166423627Y-55738680D01*
X166439642Y-55698232D01*
X166441214Y-55683277D01*
X166445526Y-55661302D01*
X166449721Y-55646860D01*
X166450506Y-55636170D01*
X166450506Y-55601468D01*
X166451196Y-55588298D01*
X166453263Y-55568632D01*
X166455407Y-55548231D01*
X166453975Y-55539766D01*
X166453975Y-55539757D01*
X166452271Y-55529685D01*
X166450506Y-55508672D01*
X166450506Y-55085233D01*
X166470508Y-55017112D01*
X166489613Y-54993989D01*
X166512002Y-54972667D01*
X166512004Y-54972665D01*
X166517105Y-54967807D01*
X166616489Y-54818222D01*
X166640895Y-54753973D01*
X166677763Y-54656919D01*
X166677764Y-54656914D01*
X166680263Y-54650336D01*
X166681243Y-54643364D01*
X166704706Y-54476416D01*
X166704706Y-54476411D01*
X166705257Y-54472493D01*
X166705571Y-54450000D01*
X166685552Y-54271528D01*
X166682931Y-54264000D01*
X166631938Y-54117569D01*
X166626491Y-54101927D01*
X166591347Y-54045684D01*
X166535055Y-53955599D01*
X166531322Y-53949625D01*
X166448799Y-53866524D01*
X166409739Y-53827190D01*
X166409735Y-53827187D01*
X166404776Y-53822193D01*
X166393767Y-53815206D01*
X166284603Y-53745929D01*
X166253142Y-53725963D01*
X166209936Y-53710578D01*
X166090592Y-53668081D01*
X166090587Y-53668080D01*
X166083957Y-53665719D01*
X166076971Y-53664886D01*
X166076967Y-53664885D01*
X165949183Y-53649648D01*
X165905630Y-53644455D01*
X165898627Y-53645191D01*
X165898626Y-53645191D01*
X165734031Y-53662490D01*
X165734027Y-53662491D01*
X165727023Y-53663227D01*
X165720352Y-53665498D01*
X165563683Y-53718832D01*
X165563680Y-53718833D01*
X165557013Y-53721103D01*
X165551017Y-53724792D01*
X165551010Y-53724795D01*
X165440499Y-53792783D01*
X165371998Y-53811442D01*
X165306962Y-53791851D01*
X165234600Y-53745929D01*
X165203139Y-53725963D01*
X165159933Y-53710578D01*
X165040589Y-53668081D01*
X165040584Y-53668080D01*
X165033954Y-53665719D01*
X165026968Y-53664886D01*
X165026964Y-53664885D01*
X164899180Y-53649648D01*
X164855627Y-53644455D01*
X164848624Y-53645191D01*
X164848623Y-53645191D01*
X164684028Y-53662490D01*
X164684024Y-53662491D01*
X164677020Y-53663227D01*
X164670349Y-53665498D01*
X164513680Y-53718832D01*
X164513677Y-53718833D01*
X164507010Y-53721103D01*
X164501014Y-53724792D01*
X164501007Y-53724795D01*
X164390496Y-53792783D01*
X164321995Y-53811442D01*
X164256959Y-53791851D01*
X164184597Y-53745929D01*
X164153136Y-53725963D01*
X164109930Y-53710578D01*
X163990586Y-53668081D01*
X163990581Y-53668080D01*
X163983951Y-53665719D01*
X163976965Y-53664886D01*
X163976961Y-53664885D01*
X163849177Y-53649648D01*
X163805624Y-53644455D01*
X163798621Y-53645191D01*
X163798620Y-53645191D01*
X163634025Y-53662490D01*
X163634021Y-53662491D01*
X163627017Y-53663227D01*
X163620346Y-53665498D01*
X163463677Y-53718832D01*
X163463674Y-53718833D01*
X163457007Y-53721103D01*
X163451006Y-53724795D01*
X163451002Y-53724797D01*
X163431048Y-53737072D01*
X163362547Y-53755730D01*
X163294833Y-53734390D01*
X163275621Y-53718538D01*
X163209733Y-53652188D01*
X163209729Y-53652185D01*
X163204770Y-53647191D01*
X163198597Y-53643273D01*
X163081296Y-53568832D01*
X163064062Y-53557895D01*
X163017263Y-53504506D01*
X163006758Y-53434291D01*
X163035882Y-53369543D01*
X163095388Y-53330819D01*
X163131576Y-53325510D01*
X163475683Y-53325510D01*
X163480960Y-53325621D01*
X163542970Y-53328220D01*
X163554524Y-53325510D01*
X163585338Y-53318283D01*
X163597009Y-53316120D01*
X163611905Y-53314079D01*
X163640108Y-53310216D01*
X163648067Y-53306772D01*
X163653906Y-53304245D01*
X163675175Y-53297211D01*
X163681451Y-53295739D01*
X163689812Y-53293778D01*
X163697337Y-53289641D01*
X163697340Y-53289640D01*
X163727944Y-53272815D01*
X163738589Y-53267599D01*
X163778531Y-53250315D01*
X163790217Y-53240852D01*
X163808802Y-53228364D01*
X163816194Y-53224300D01*
X163821984Y-53221117D01*
X163830098Y-53214113D01*
X163854634Y-53189577D01*
X163864435Y-53180752D01*
X163889068Y-53160804D01*
X163889069Y-53160803D01*
X163895746Y-53155396D01*
X163900719Y-53148398D01*
X163900724Y-53148393D01*
X163906644Y-53140062D01*
X163920255Y-53123956D01*
X166578642Y-50465567D01*
X166582451Y-50461914D01*
X166621833Y-50425700D01*
X166628156Y-50419886D01*
X166642479Y-50396786D01*
X166651087Y-50382902D01*
X166657801Y-50373132D01*
X166684112Y-50338469D01*
X166689646Y-50324492D01*
X166699709Y-50304483D01*
X166703111Y-50298997D01*
X166703113Y-50298993D01*
X166707635Y-50291699D01*
X166710029Y-50283457D01*
X166710031Y-50283454D01*
X166719779Y-50249901D01*
X166723618Y-50238688D01*
X166739635Y-50198232D01*
X166741206Y-50183283D01*
X166745519Y-50161300D01*
X166745770Y-50160438D01*
X166749715Y-50146860D01*
X166750500Y-50136170D01*
X166750500Y-50133855D01*
X166750584Y-50131558D01*
X166751568Y-50131594D01*
X166770502Y-50067111D01*
X166789609Y-50043986D01*
X166811992Y-50022671D01*
X166811995Y-50022668D01*
X166817099Y-50017807D01*
X166856897Y-49957907D01*
X166911340Y-49875963D01*
X166916483Y-49868222D01*
X166944225Y-49795191D01*
X166977757Y-49706919D01*
X166977758Y-49706914D01*
X166980257Y-49700336D01*
X166983426Y-49677789D01*
X167004700Y-49526416D01*
X167004700Y-49526411D01*
X167005251Y-49522493D01*
X167005440Y-49508947D01*
X167005510Y-49503963D01*
X167005510Y-49503958D01*
X167005565Y-49500000D01*
X166985546Y-49321528D01*
X166979209Y-49303329D01*
X166928803Y-49158584D01*
X166926485Y-49151927D01*
X166917042Y-49136814D01*
X166835049Y-49005599D01*
X166831316Y-48999625D01*
X166721215Y-48888753D01*
X166709798Y-48877256D01*
X166675991Y-48814825D01*
X166681303Y-48744028D01*
X166694255Y-48718746D01*
X166704082Y-48703955D01*
X166716483Y-48685290D01*
X166738992Y-48626036D01*
X166777757Y-48523987D01*
X166777758Y-48523982D01*
X166780257Y-48517404D01*
X166789800Y-48449500D01*
X166804700Y-48343484D01*
X166804700Y-48343479D01*
X166805251Y-48339561D01*
X166805565Y-48317068D01*
X166785546Y-48138596D01*
X166778351Y-48117934D01*
X166774839Y-48047026D01*
X166810220Y-47985474D01*
X166873263Y-47952822D01*
X166897343Y-47950500D01*
X168919785Y-47950500D01*
X168987906Y-47970502D01*
G37*
%TD.AperFunction*%
%TA.AperFunction,Conductor*%
G36*
X150931906Y-53670502D02*
G01*
X150978399Y-53724158D01*
X150988503Y-53794432D01*
X150959009Y-53859012D01*
X150951953Y-53866514D01*
X150860716Y-53955859D01*
X150856897Y-53961784D01*
X150856896Y-53961786D01*
X150793295Y-54060476D01*
X150763430Y-54106817D01*
X150761021Y-54113437D01*
X150761019Y-54113440D01*
X150746422Y-54153545D01*
X150702006Y-54275578D01*
X150679498Y-54453753D01*
X150680185Y-54460760D01*
X150680185Y-54460763D01*
X150680947Y-54468532D01*
X150697023Y-54632486D01*
X150699246Y-54639168D01*
X150699246Y-54639169D01*
X150747920Y-54785489D01*
X150753710Y-54802896D01*
X150787222Y-54858230D01*
X150805400Y-54926858D01*
X150783590Y-54994421D01*
X150728714Y-55039468D01*
X150679445Y-55049500D01*
X147180216Y-55049500D01*
X147112095Y-55029498D01*
X147091121Y-55012596D01*
X146887405Y-54808881D01*
X146853380Y-54746569D01*
X146850500Y-54719785D01*
X146850500Y-54018381D01*
X146870502Y-53950260D01*
X146887405Y-53929286D01*
X147087293Y-53729398D01*
X147149605Y-53695372D01*
X147220420Y-53700437D01*
X147277256Y-53742984D01*
X147302067Y-53809504D01*
X147301394Y-53834285D01*
X147295397Y-53881758D01*
X147295397Y-53881764D01*
X147294514Y-53888753D01*
X147295201Y-53895760D01*
X147295201Y-53895763D01*
X147300545Y-53950260D01*
X147312039Y-54067486D01*
X147314262Y-54074168D01*
X147314262Y-54074169D01*
X147359329Y-54209646D01*
X147368726Y-54237896D01*
X147372373Y-54243918D01*
X147455499Y-54381175D01*
X147461759Y-54391512D01*
X147466648Y-54396575D01*
X147466649Y-54396576D01*
X147528357Y-54460476D01*
X147586514Y-54520699D01*
X147736789Y-54619036D01*
X147905116Y-54681636D01*
X147912097Y-54682567D01*
X147912099Y-54682568D01*
X148076149Y-54704457D01*
X148076153Y-54704457D01*
X148083130Y-54705388D01*
X148090142Y-54704750D01*
X148090146Y-54704750D01*
X148254960Y-54689751D01*
X148254961Y-54689751D01*
X148261981Y-54689112D01*
X148432782Y-54633615D01*
X148438833Y-54630008D01*
X148580992Y-54545265D01*
X148580994Y-54545264D01*
X148587044Y-54541657D01*
X148717099Y-54417807D01*
X148724667Y-54406417D01*
X148802842Y-54288753D01*
X148816483Y-54268222D01*
X148871932Y-54122252D01*
X148900624Y-54077901D01*
X149095115Y-53883410D01*
X149291119Y-53687405D01*
X149353432Y-53653380D01*
X149380215Y-53650500D01*
X150863785Y-53650500D01*
X150931906Y-53670502D01*
G37*
%TD.AperFunction*%
%TA.AperFunction,Conductor*%
G36*
X153744938Y-53213374D02*
G01*
X153801774Y-53255921D01*
X153815286Y-53278579D01*
X153816502Y-53281211D01*
X153818726Y-53287896D01*
X153863900Y-53362487D01*
X153907839Y-53435039D01*
X153911759Y-53441512D01*
X153916648Y-53446575D01*
X153916649Y-53446576D01*
X153949299Y-53480386D01*
X154036514Y-53570699D01*
X154186789Y-53669036D01*
X154355116Y-53731636D01*
X154362097Y-53732567D01*
X154362099Y-53732568D01*
X154526149Y-53754457D01*
X154526153Y-53754457D01*
X154533130Y-53755388D01*
X154540142Y-53754750D01*
X154540146Y-53754750D01*
X154704960Y-53739751D01*
X154704961Y-53739751D01*
X154711981Y-53739112D01*
X154808001Y-53707913D01*
X154878967Y-53705885D01*
X154939765Y-53742547D01*
X154971090Y-53806260D01*
X154965337Y-53870841D01*
X154907445Y-54029898D01*
X154884937Y-54208073D01*
X154896812Y-54329175D01*
X154896944Y-54330525D01*
X154883685Y-54400273D01*
X154834822Y-54451780D01*
X154771545Y-54468821D01*
X152403635Y-54468821D01*
X152335514Y-54448819D01*
X152289021Y-54395163D01*
X152278420Y-54356867D01*
X152271315Y-54293526D01*
X152270530Y-54286528D01*
X152265307Y-54271528D01*
X152213787Y-54123584D01*
X152211469Y-54116927D01*
X152199599Y-54097930D01*
X152120033Y-53970599D01*
X152116300Y-53964625D01*
X152102035Y-53950260D01*
X152017650Y-53865284D01*
X151983843Y-53802853D01*
X151989155Y-53732056D01*
X152031900Y-53675369D01*
X152098506Y-53650790D01*
X152107056Y-53650500D01*
X152960628Y-53650500D01*
X152965905Y-53650611D01*
X153027915Y-53653210D01*
X153039469Y-53650500D01*
X153070283Y-53643273D01*
X153081954Y-53641110D01*
X153096850Y-53639069D01*
X153125053Y-53635206D01*
X153138851Y-53629235D01*
X153160120Y-53622201D01*
X153166396Y-53620729D01*
X153174757Y-53618768D01*
X153182282Y-53614631D01*
X153182285Y-53614630D01*
X153212889Y-53597805D01*
X153223534Y-53592589D01*
X153263476Y-53575305D01*
X153275162Y-53565842D01*
X153293747Y-53553354D01*
X153301139Y-53549290D01*
X153306929Y-53546107D01*
X153315043Y-53539103D01*
X153339579Y-53514567D01*
X153349380Y-53505742D01*
X153374013Y-53485794D01*
X153374014Y-53485793D01*
X153380691Y-53480386D01*
X153385664Y-53473388D01*
X153385669Y-53473383D01*
X153391589Y-53465052D01*
X153405200Y-53448946D01*
X153611811Y-53242335D01*
X153674123Y-53208309D01*
X153744938Y-53213374D01*
G37*
%TD.AperFunction*%
%TA.AperFunction,Conductor*%
G36*
X164920730Y-46568447D02*
G01*
X164964463Y-46597865D01*
X164986514Y-46620699D01*
X165136789Y-46719036D01*
X165143393Y-46721492D01*
X165292254Y-46776853D01*
X165349130Y-46819346D01*
X165374004Y-46885843D01*
X165358979Y-46955231D01*
X165337429Y-46984046D01*
X165336042Y-46985433D01*
X165326241Y-46994258D01*
X165301608Y-47014206D01*
X165294930Y-47019614D01*
X165289956Y-47026613D01*
X165289955Y-47026614D01*
X165284034Y-47034946D01*
X165270424Y-47051051D01*
X164471335Y-47850141D01*
X164467525Y-47853794D01*
X164421833Y-47895810D01*
X164398890Y-47932813D01*
X164392189Y-47942563D01*
X164365877Y-47977228D01*
X164361848Y-47987405D01*
X164360343Y-47991206D01*
X164350282Y-48011210D01*
X164342354Y-48023997D01*
X164339957Y-48032248D01*
X164339956Y-48032250D01*
X164330214Y-48065783D01*
X164326369Y-48077013D01*
X164310353Y-48117464D01*
X164309455Y-48126005D01*
X164309455Y-48126006D01*
X164308781Y-48132419D01*
X164304469Y-48154394D01*
X164300274Y-48168836D01*
X164299489Y-48179526D01*
X164299489Y-48214228D01*
X164298799Y-48227398D01*
X164294588Y-48267465D01*
X164296020Y-48275930D01*
X164296020Y-48275939D01*
X164297724Y-48286011D01*
X164299489Y-48307024D01*
X164299489Y-49169795D01*
X164279487Y-49237916D01*
X164262585Y-49258890D01*
X163838908Y-49682568D01*
X163430097Y-50091379D01*
X163367784Y-50125404D01*
X163298734Y-50120983D01*
X163290585Y-50118081D01*
X163290583Y-50118081D01*
X163283951Y-50115719D01*
X163276965Y-50114886D01*
X163276961Y-50114885D01*
X163148981Y-50099625D01*
X163105624Y-50094455D01*
X163098621Y-50095191D01*
X163098620Y-50095191D01*
X162934025Y-50112490D01*
X162934021Y-50112491D01*
X162927017Y-50113227D01*
X162920346Y-50115498D01*
X162763677Y-50168832D01*
X162763674Y-50168833D01*
X162757007Y-50171103D01*
X162751009Y-50174793D01*
X162751007Y-50174794D01*
X162712019Y-50198780D01*
X162604045Y-50265206D01*
X162599014Y-50270132D01*
X162599011Y-50270135D01*
X162561130Y-50307231D01*
X162475732Y-50390859D01*
X162471913Y-50396784D01*
X162471912Y-50396786D01*
X162438706Y-50448312D01*
X162378446Y-50541817D01*
X162376037Y-50548437D01*
X162376035Y-50548440D01*
X162357269Y-50600000D01*
X162317022Y-50710578D01*
X162294514Y-50888753D01*
X162295201Y-50895760D01*
X162295201Y-50895763D01*
X162301660Y-50961635D01*
X162312039Y-51067486D01*
X162314262Y-51074168D01*
X162314262Y-51074169D01*
X162365171Y-51227208D01*
X162368726Y-51237896D01*
X162372373Y-51243918D01*
X162456505Y-51382836D01*
X162461759Y-51391512D01*
X162466648Y-51396575D01*
X162466649Y-51396576D01*
X162528837Y-51460973D01*
X162561769Y-51523869D01*
X162555469Y-51594586D01*
X162511937Y-51650670D01*
X162438200Y-51674500D01*
X161839993Y-51674500D01*
X161834717Y-51674389D01*
X161830310Y-51674204D01*
X161772706Y-51671790D01*
X161764341Y-51673752D01*
X161730338Y-51681727D01*
X161718667Y-51683890D01*
X161704768Y-51685794D01*
X161675568Y-51689794D01*
X161667684Y-51693206D01*
X161667683Y-51693206D01*
X161661770Y-51695765D01*
X161640501Y-51702799D01*
X161625864Y-51706232D01*
X161618339Y-51710369D01*
X161618336Y-51710370D01*
X161587732Y-51727195D01*
X161577087Y-51732411D01*
X161537145Y-51749695D01*
X161525459Y-51759158D01*
X161506875Y-51771645D01*
X161493692Y-51778893D01*
X161485578Y-51785897D01*
X161461042Y-51810433D01*
X161451241Y-51819258D01*
X161428553Y-51837631D01*
X161419930Y-51844614D01*
X161414957Y-51851612D01*
X161414952Y-51851617D01*
X161409032Y-51859948D01*
X161395421Y-51876054D01*
X161195235Y-52076240D01*
X161132923Y-52110266D01*
X161062108Y-52105201D01*
X161005272Y-52062654D01*
X160986161Y-52021314D01*
X160985546Y-52021528D01*
X160983365Y-52015265D01*
X160926485Y-51851927D01*
X160921916Y-51844614D01*
X160835049Y-51705599D01*
X160831316Y-51699625D01*
X160759385Y-51627190D01*
X160709733Y-51577190D01*
X160709729Y-51577187D01*
X160704770Y-51572193D01*
X160600540Y-51506046D01*
X160553744Y-51452660D01*
X160543239Y-51382445D01*
X160572363Y-51317697D01*
X160603540Y-51291435D01*
X160680992Y-51245265D01*
X160680994Y-51245264D01*
X160687044Y-51241657D01*
X160817099Y-51117807D01*
X160841697Y-51080785D01*
X160890899Y-51006729D01*
X160916483Y-50968222D01*
X160933381Y-50923737D01*
X160977757Y-50806919D01*
X160977758Y-50806914D01*
X160980257Y-50800336D01*
X160984410Y-50770787D01*
X161004700Y-50626416D01*
X161004700Y-50626411D01*
X161005251Y-50622493D01*
X161005565Y-50600000D01*
X160985546Y-50421528D01*
X160979427Y-50403955D01*
X160951756Y-50324496D01*
X160926485Y-50251927D01*
X160883592Y-50183283D01*
X160835049Y-50105599D01*
X160831316Y-50099625D01*
X160764065Y-50031903D01*
X160709733Y-49977190D01*
X160709729Y-49977187D01*
X160704770Y-49972193D01*
X160693761Y-49965206D01*
X160582013Y-49894289D01*
X160553136Y-49875963D01*
X160512898Y-49861635D01*
X160390586Y-49818081D01*
X160390581Y-49818080D01*
X160383951Y-49815719D01*
X160376965Y-49814886D01*
X160376961Y-49814885D01*
X160249177Y-49799648D01*
X160205624Y-49794455D01*
X160198621Y-49795191D01*
X160198620Y-49795191D01*
X160034025Y-49812490D01*
X160034021Y-49812491D01*
X160027017Y-49813227D01*
X160020346Y-49815498D01*
X159863677Y-49868832D01*
X159863674Y-49868833D01*
X159857007Y-49871103D01*
X159851009Y-49874793D01*
X159851007Y-49874794D01*
X159819319Y-49894289D01*
X159704045Y-49965206D01*
X159699014Y-49970132D01*
X159699011Y-49970135D01*
X159694517Y-49974536D01*
X159575732Y-50090859D01*
X159571913Y-50096784D01*
X159571912Y-50096786D01*
X159506133Y-50198855D01*
X159478446Y-50241817D01*
X159476037Y-50248437D01*
X159476035Y-50248440D01*
X159469933Y-50265206D01*
X159417022Y-50410578D01*
X159394514Y-50588753D01*
X159391533Y-50588376D01*
X159374496Y-50643439D01*
X159358590Y-50662886D01*
X156401575Y-53619901D01*
X156339263Y-53653927D01*
X156268448Y-53648862D01*
X156223075Y-53619590D01*
X156200161Y-53596516D01*
X156195193Y-53591513D01*
X156043559Y-53495283D01*
X155983857Y-53474024D01*
X155881009Y-53437401D01*
X155881004Y-53437400D01*
X155874374Y-53435039D01*
X155867388Y-53434206D01*
X155867384Y-53434205D01*
X155730540Y-53417888D01*
X155696047Y-53413775D01*
X155689044Y-53414511D01*
X155689043Y-53414511D01*
X155524448Y-53431810D01*
X155524444Y-53431811D01*
X155517440Y-53432547D01*
X155510769Y-53434818D01*
X155432810Y-53461357D01*
X155361878Y-53464375D01*
X155300574Y-53428564D01*
X155268362Y-53365296D01*
X155274417Y-53297335D01*
X155275024Y-53295739D01*
X155320966Y-53174794D01*
X155327757Y-53156918D01*
X155327758Y-53156916D01*
X155330257Y-53150336D01*
X155332555Y-53133986D01*
X155354700Y-52976416D01*
X155354700Y-52976411D01*
X155355251Y-52972493D01*
X155355565Y-52950000D01*
X155335546Y-52771528D01*
X155315585Y-52714206D01*
X155286296Y-52630100D01*
X155276485Y-52601927D01*
X155259804Y-52575231D01*
X155237080Y-52538866D01*
X155217944Y-52470497D01*
X155238809Y-52402635D01*
X155254839Y-52383001D01*
X155729155Y-51908685D01*
X155791467Y-51874659D01*
X155862282Y-51879724D01*
X155919118Y-51922271D01*
X155926022Y-51932503D01*
X155961759Y-51991512D01*
X155966648Y-51996575D01*
X155966649Y-51996576D01*
X155990745Y-52021528D01*
X156086514Y-52120699D01*
X156236789Y-52219036D01*
X156405116Y-52281636D01*
X156412097Y-52282567D01*
X156412099Y-52282568D01*
X156576149Y-52304457D01*
X156576153Y-52304457D01*
X156583130Y-52305388D01*
X156590142Y-52304750D01*
X156590146Y-52304750D01*
X156754960Y-52289751D01*
X156754961Y-52289751D01*
X156761981Y-52289112D01*
X156932782Y-52233615D01*
X156949668Y-52223549D01*
X157080992Y-52145265D01*
X157080994Y-52145264D01*
X157087044Y-52141657D01*
X157217099Y-52017807D01*
X157234570Y-51991512D01*
X157289599Y-51908685D01*
X157316483Y-51868222D01*
X157347609Y-51786283D01*
X157377757Y-51706919D01*
X157377758Y-51706914D01*
X157380257Y-51700336D01*
X157381739Y-51689794D01*
X157404700Y-51526416D01*
X157404700Y-51526411D01*
X157405251Y-51522493D01*
X157405439Y-51509013D01*
X157405510Y-51503963D01*
X157405510Y-51503958D01*
X157405565Y-51500000D01*
X157385546Y-51321528D01*
X157383229Y-51314874D01*
X157382511Y-51311715D01*
X157386922Y-51240856D01*
X157416284Y-51194702D01*
X159073581Y-49537405D01*
X159135893Y-49503379D01*
X159162676Y-49500500D01*
X161652381Y-49500500D01*
X161668827Y-49501578D01*
X161700000Y-49505682D01*
X161708188Y-49504604D01*
X161739361Y-49500500D01*
X161848574Y-49486122D01*
X161856762Y-49485044D01*
X162002841Y-49424536D01*
X162128282Y-49328282D01*
X162147430Y-49303328D01*
X162158297Y-49290938D01*
X163217662Y-48231573D01*
X163279974Y-48197547D01*
X163295337Y-48195187D01*
X163354950Y-48189762D01*
X163354960Y-48189760D01*
X163361971Y-48189122D01*
X163532772Y-48133625D01*
X163538823Y-48130018D01*
X163680982Y-48045275D01*
X163680984Y-48045274D01*
X163687034Y-48041667D01*
X163817089Y-47917817D01*
X163831711Y-47895810D01*
X163912572Y-47774103D01*
X163916473Y-47768232D01*
X163938497Y-47710254D01*
X163977747Y-47606929D01*
X163977748Y-47606924D01*
X163980247Y-47600346D01*
X164005241Y-47422503D01*
X164005555Y-47400010D01*
X163985536Y-47221538D01*
X163965863Y-47165043D01*
X163928793Y-47058594D01*
X163926475Y-47051937D01*
X163910652Y-47026614D01*
X163863629Y-46951363D01*
X163844493Y-46882994D01*
X163865358Y-46815133D01*
X163919599Y-46769324D01*
X163989996Y-46760113D01*
X164014403Y-46766495D01*
X164055116Y-46781636D01*
X164062097Y-46782567D01*
X164062099Y-46782568D01*
X164226149Y-46804457D01*
X164226153Y-46804457D01*
X164233130Y-46805388D01*
X164240142Y-46804750D01*
X164240146Y-46804750D01*
X164404960Y-46789751D01*
X164404961Y-46789751D01*
X164411981Y-46789112D01*
X164582782Y-46733615D01*
X164633858Y-46703168D01*
X164730992Y-46645265D01*
X164730994Y-46645264D01*
X164737044Y-46641657D01*
X164742143Y-46636801D01*
X164742150Y-46636796D01*
X164786935Y-46594147D01*
X164850059Y-46561654D01*
X164920730Y-46568447D01*
G37*
%TD.AperFunction*%
%TA.AperFunction,Conductor*%
G36*
X177542121Y-40920002D02*
G01*
X177588614Y-40973658D01*
X177600000Y-41026000D01*
X177600000Y-48517284D01*
X177579998Y-48585405D01*
X177526342Y-48631898D01*
X177456068Y-48642002D01*
X177391488Y-48612508D01*
X177384905Y-48606380D01*
X177123870Y-48345346D01*
X177120217Y-48341536D01*
X177100363Y-48319945D01*
X177078202Y-48295845D01*
X177041199Y-48272902D01*
X177031444Y-48266197D01*
X177019171Y-48256882D01*
X176977007Y-48199764D01*
X176972415Y-48128916D01*
X176982915Y-48102017D01*
X176982102Y-48101638D01*
X177072252Y-47908312D01*
X177072253Y-47908310D01*
X177074575Y-47903330D01*
X177085211Y-47863638D01*
X177110774Y-47768232D01*
X177131207Y-47691977D01*
X177150277Y-47474000D01*
X177131207Y-47256023D01*
X177074575Y-47044670D01*
X177061899Y-47017486D01*
X176984425Y-46851343D01*
X176984423Y-46851340D01*
X176982102Y-46846362D01*
X176856598Y-46667123D01*
X176701877Y-46512402D01*
X176697369Y-46509245D01*
X176697366Y-46509243D01*
X176527148Y-46390055D01*
X176527145Y-46390053D01*
X176522639Y-46386898D01*
X176517657Y-46384575D01*
X176517652Y-46384572D01*
X176375305Y-46318195D01*
X176322020Y-46271278D01*
X176302559Y-46203000D01*
X176323101Y-46135040D01*
X176375305Y-46089805D01*
X176517652Y-46023428D01*
X176517657Y-46023425D01*
X176522639Y-46021102D01*
X176547116Y-46003963D01*
X176697366Y-45898757D01*
X176697369Y-45898755D01*
X176701877Y-45895598D01*
X176856598Y-45740877D01*
X176982102Y-45561638D01*
X177011020Y-45499625D01*
X177072252Y-45368312D01*
X177072253Y-45368310D01*
X177074575Y-45363330D01*
X177078266Y-45349557D01*
X177122988Y-45182649D01*
X177131207Y-45151977D01*
X177150277Y-44934000D01*
X177131207Y-44716023D01*
X177074575Y-44504670D01*
X176989084Y-44321334D01*
X176984425Y-44311343D01*
X176984423Y-44311340D01*
X176982102Y-44306362D01*
X176856598Y-44127123D01*
X176701877Y-43972402D01*
X176697369Y-43969245D01*
X176697366Y-43969243D01*
X176577380Y-43885228D01*
X176560933Y-43873712D01*
X176516605Y-43818255D01*
X176509296Y-43747636D01*
X176541327Y-43684275D01*
X176602528Y-43648290D01*
X176633203Y-43644499D01*
X176776518Y-43644499D01*
X176781412Y-43643724D01*
X176860506Y-43631198D01*
X176860508Y-43631197D01*
X176870304Y-43629646D01*
X176983342Y-43572050D01*
X177073050Y-43482342D01*
X177130646Y-43369304D01*
X177145500Y-43275519D01*
X177145499Y-41512482D01*
X177130646Y-41418696D01*
X177073050Y-41305658D01*
X176983342Y-41215950D01*
X176870304Y-41158354D01*
X176860515Y-41156804D01*
X176860513Y-41156803D01*
X176820394Y-41150449D01*
X176756241Y-41120036D01*
X176718714Y-41059768D01*
X176719728Y-40988779D01*
X176758961Y-40929607D01*
X176823956Y-40901039D01*
X176840105Y-40900000D01*
X177474000Y-40900000D01*
X177542121Y-40920002D01*
G37*
%TD.AperFunction*%
%TD*%
M02*
